{"history": {"redo": [], "undo": [{"value": {"end": 5.0}, "old_values": {"alpha": {"Points": [{"co": {"Y": 1, "X": 1}, "interpolation": 2}, {"handle_right": {"Y": 0, "X": 0.5}, "co": {"Y": 0, "X": 1}, "handle_left": {"Y": 1, "X": 0.5}, "handle_type": 0, "interpolation": 0}, {"handle_right": {"Y": 0, "X": 0.5}, "co": {"Y": 1, "X": 73}, "handle_left": {"Y": 1, "X": 0.5}, "handle_type": 0, "interpolation": 0}]}, "rotation": {"Points": [{"co": {"Y": 0, "X": 1}, "interpolation": 2}]}, "scale_y": {"Points": [{"co": {"Y": 1, "X": 1}, "interpolation": 2}]}, "crop_y": {"Points": [{"co": {"Y": 0, "X": 1}, "interpolation": 2}]}, "perspective_c3_x": {"Points": [{"co": {"Y": -1, "X": 1}, "interpolation": 2}]}, "end": 15, "crop_width": {"Points": [{"co": {"Y": -1, "X": 1}, "interpolation": 2}]}, "position": 32.755, "id": "PJWPMFXKV3", "wave_color": {"green": {"Points": [{"handle_right": {"Y": 0, "X": 0.5}, "co": {"Y": 123, "X": 1}, "handle_left": {"Y": 1, "X": 0.5}, "handle_type": 0, "interpolation": 0}]}, "blue": {"Points": [{"handle_right": {"Y": 0, "X": 0.5}, "co": {"Y": 255, "X": 1}, "handle_left": {"Y": 1, "X": 0.5}, "handle_type": 0, "interpolation": 0}]}, "alpha": {"Points": [{"handle_right": {"Y": 0, "X": 0.5}, "co": {"Y": 255, "X": 1}, "handle_left": {"Y": 1, "X": 0.5}, "handle_type": 0, "interpolation": 0}]}, "red": {"Points": [{"handle_right": {"Y": 0, "X": 0.5}, "co": {"Y": 0, "X": 1}, "handle_left": {"Y": 1, "X": 0.5}, "handle_type": 0, "interpolation": 0}]}}, "has_video": {"Points": [{"co": {"Y": -1, "X": 1}, "interpolation": 2}]}, "has_audio": {"Points": [{"co": {"Y": -1, "X": 1}, "interpolation": 2}]}, "effects": [], "location_x": {"Points": [{"co": {"Y": 0, "X": 1}, "interpolation": 2}]}, "waveform": false, "title": "arrow.mp4", "image": "/home/robsen/.openshot_qt/thumbnail/X22V56NF57.png", "gravity": 4, "perspective_c2_x": {"Points": [{"co": {"Y": -1, "X": 1}, "interpolation": 2}]}, "perspective_c1_y": {"Points": [{"co": {"Y": -1, "X": 1}, "interpolation": 2}]}, "crop_height": {"Points": [{"co": {"Y": -1, "X": 1}, "interpolation": 2}]}, "crop_x": {"Points": [{"co": {"Y": 0, "X": 1}, "interpolation": 2}]}, "start": 0, "scale": 1, "shear_y": {"Points": [{"co": {"Y": 0, "X": 1}, "interpolation": 2}]}, "display": 0, "volume": {"Points": [{"co": {"Y": 1, "X": 1}, "interpolation": 2}]}, "channel_mapping": {"Points": [{"co": {"Y": -1, "X": 1}, "interpolation": 2}]}, "anchor": 0, "duration": 15.0, "perspective_c3_y": {"Points": [{"co": {"Y": -1, "X": 1}, "interpolation": 2}]}, "shear_x": {"Points": [{"co": {"Y": 0, "X": 1}, "interpolation": 2}]}, "perspective_c4_x": {"Points": [{"co": {"Y": -1, "X": 1}, "interpolation": 2}]}, "location_y": {"Points": [{"co": {"Y": 0, "X": 1}, "interpolation": 2}]}, "scale_x": {"Points": [{"co": {"Y": 1, "X": 1}, "interpolation": 2}]}, "layer": 2, "perspective_c2_y": {"Points": [{"co": {"Y": -1, "X": 1}, "interpolation": 2}]}, "perspective_c1_x": {"Points": [{"co": {"Y": -1, "X": 1}, "interpolation": 2}]}, "perspective_c4_y": {"Points": [{"co": {"Y": -1, "X": 1}, "interpolation": 2}]}, "reader": {"audio_bit_rate": 0, "has_single_image": false, "vcodec": "h264", "has_video": true, "type": "FFmpegReader", "video_length": "375", "audio_timebase": {"den": 1, "num": 1}, "path": "/home/robsen/Dropbox/Workdir/Repo/SuesseRache-HH-Taxi/arrow.mp4", "width": 1920, "has_audio": false, "video_bit_rate": 83079, "channel_layout": 4, "height": 1080, "display_ratio": {"den": 9, "num": 16}, "interlaced_frame": false, "duration": 15.0, "sample_rate": 0, "pixel_format": 0, "video_timebase": {"den": 12800, "num": 1}, "file_size": "155774", "top_field_first": true, "pixel_ratio": {"den": 1, "num": 1}, "acodec": "", "audio_stream_index": -1, "video_stream_index": 0, "channels": 0, "fps": {"den": 1, "num": 25}}, "channel_filter": {"Points": [{"co": {"Y": -1, "X": 1}, "interpolation": 2}]}, "file_id": "X22V56NF57", "time": {"Points": [{"co": {"Y": 1, "X": 1}, "interpolation": 2}]}}, "partial": false, "key": ["clips", {"id": "PJWPMFXKV3"}], "type": "update"}, {"value": {"id": "PJWPMFXKV3", "start": 0, "end": 5, "position": 29.89, "layer": 2, "image": "/home/robsen/.openshot_qt/thumbnail/X22V56NF57.png"}, "old_values": {"alpha": {"Points": [{"co": {"Y": 1, "X": 1}, "interpolation": 2}, {"handle_right": {"Y": 0, "X": 0.5}, "co": {"Y": 0, "X": 1}, "handle_left": {"Y": 1, "X": 0.5}, "handle_type": 0, "interpolation": 0}, {"handle_right": {"Y": 0, "X": 0.5}, "co": {"Y": 1, "X": 73}, "handle_left": {"Y": 1, "X": 0.5}, "handle_type": 0, "interpolation": 0}]}, "rotation": {"Points": [{"co": {"Y": 0, "X": 1}, "interpolation": 2}]}, "scale_y": {"Points": [{"co": {"Y": 1, "X": 1}, "interpolation": 2}]}, "crop_y": {"Points": [{"co": {"Y": 0, "X": 1}, "interpolation": 2}]}, "perspective_c3_x": {"Points": [{"co": {"Y": -1, "X": 1}, "interpolation": 2}]}, "end": 5.0, "crop_width": {"Points": [{"co": {"Y": -1, "X": 1}, "interpolation": 2}]}, "position": 32.755, "id": "PJWPMFXKV3", "wave_color": {"green": {"Points": [{"handle_right": {"Y": 0, "X": 0.5}, "co": {"Y": 123, "X": 1}, "handle_left": {"Y": 1, "X": 0.5}, "handle_type": 0, "interpolation": 0}]}, "blue": {"Points": [{"handle_right": {"Y": 0, "X": 0.5}, "co": {"Y": 255, "X": 1}, "handle_left": {"Y": 1, "X": 0.5}, "handle_type": 0, "interpolation": 0}]}, "alpha": {"Points": [{"handle_right": {"Y": 0, "X": 0.5}, "co": {"Y": 255, "X": 1}, "handle_left": {"Y": 1, "X": 0.5}, "handle_type": 0, "interpolation": 0}]}, "red": {"Points": [{"handle_right": {"Y": 0, "X": 0.5}, "co": {"Y": 0, "X": 1}, "handle_left": {"Y": 1, "X": 0.5}, "handle_type": 0, "interpolation": 0}]}}, "has_video": {"Points": [{"co": {"Y": -1, "X": 1}, "interpolation": 2}]}, "has_audio": {"Points": [{"co": {"Y": -1, "X": 1}, "interpolation": 2}]}, "effects": [], "location_x": {"Points": [{"co": {"Y": 0, "X": 1}, "interpolation": 2}]}, "waveform": false, "title": "arrow.mp4", "image": "/home/robsen/.openshot_qt/thumbnail/X22V56NF57.png", "gravity": 4, "perspective_c2_x": {"Points": [{"co": {"Y": -1, "X": 1}, "interpolation": 2}]}, "perspective_c1_y": {"Points": [{"co": {"Y": -1, "X": 1}, "interpolation": 2}]}, "crop_height": {"Points": [{"co": {"Y": -1, "X": 1}, "interpolation": 2}]}, "crop_x": {"Points": [{"co": {"Y": 0, "X": 1}, "interpolation": 2}]}, "start": 0, "scale": 1, "shear_y": {"Points": [{"co": {"Y": 0, "X": 1}, "interpolation": 2}]}, "display": 0, "volume": {"Points": [{"co": {"Y": 1, "X": 1}, "interpolation": 2}]}, "channel_mapping": {"Points": [{"co": {"Y": -1, "X": 1}, "interpolation": 2}]}, "anchor": 0, "duration": 15.0, "perspective_c3_y": {"Points": [{"co": {"Y": -1, "X": 1}, "interpolation": 2}]}, "shear_x": {"Points": [{"co": {"Y": 0, "X": 1}, "interpolation": 2}]}, "perspective_c4_x": {"Points": [{"co": {"Y": -1, "X": 1}, "interpolation": 2}]}, "location_y": {"Points": [{"co": {"Y": 0, "X": 1}, "interpolation": 2}]}, "scale_x": {"Points": [{"co": {"Y": 1, "X": 1}, "interpolation": 2}]}, "layer": 2, "perspective_c2_y": {"Points": [{"co": {"Y": -1, "X": 1}, "interpolation": 2}]}, "perspective_c1_x": {"Points": [{"co": {"Y": -1, "X": 1}, "interpolation": 2}]}, "perspective_c4_y": {"Points": [{"co": {"Y": -1, "X": 1}, "interpolation": 2}]}, "reader": {"audio_bit_rate": 0, "has_single_image": false, "vcodec": "h264", "has_video": true, "type": "FFmpegReader", "video_length": "375", "audio_timebase": {"den": 1, "num": 1}, "path": "/home/robsen/Dropbox/Workdir/Repo/SuesseRache-HH-Taxi/arrow.mp4", "width": 1920, "has_audio": false, "video_bit_rate": 83079, "channel_layout": 4, "height": 1080, "display_ratio": {"den": 9, "num": 16}, "interlaced_frame": false, "duration": 15.0, "sample_rate": 0, "pixel_format": 0, "video_timebase": {"den": 12800, "num": 1}, "file_size": "155774", "top_field_first": true, "pixel_ratio": {"den": 1, "num": 1}, "acodec": "", "audio_stream_index": -1, "video_stream_index": 0, "channels": 0, "fps": {"den": 1, "num": 25}}, "channel_filter": {"Points": [{"co": {"Y": -1, "X": 1}, "interpolation": 2}]}, "file_id": "X22V56NF57", "time": {"Points": [{"co": {"Y": 1, "X": 1}, "interpolation": 2}]}}, "partial": false, "key": ["clips", {"id": "PJWPMFXKV3"}], "type": "update"}, {"value": {"redo": [], "undo": [{"old_values": null, "value": {"redo": [], "undo": [{"old_values": [{"number": 0, "label": "Spur 1", "id": "UBOPYJIV1S", "y": 0}, {"number": 1, "label": "Spur 2", "id": "SHY16ICR2M", "y": 0}], "value": {"number": 2, "y": 0, "label": "", "id": "E44ZNJSI3Z", "lock": false}, "key": ["layers"], "partial": false, "type": "insert"}, {"old_values": [], "value": {"audio_bit_rate": 0, "has_single_image": false, "media_type": "video", "id": "LGW3TZJV4Q", "type": "FFmpegReader", "has_video": true, "video_length": "375", "audio_timebase": {"den": 1, "num": 1}, "path": "/home/robsen/Dropbox/Workdir/Repo/SuesseRache-HH-Taxi/taxi_start.mp4", "width": 1920, "has_audio": false, "video_bit_rate": 147692, "channel_layout": 4, "height": 1080, "vcodec": "h264", "display_ratio": {"den": 9, "num": 16}, "interlaced_frame": false, "duration": 15, "sample_rate": 0, "pixel_format": 0, "video_timebase": {"den": 12800, "num": 1}, "file_size": "276924", "top_field_first": true, "pixel_ratio": {"den": 1, "num": 1}, "acodec": "", "audio_stream_index": -1, "video_stream_index": 0, "channels": 0, "fps": {"den": 1, "num": 25}}, "key": ["files"], "partial": false, "type": "insert"}, {"old_values": [{"audio_bit_rate": 0, "has_single_image": false, "media_type": "video", "id": "LGW3TZJV4Q", "type": "FFmpegReader", "has_video": true, "video_length": "375", "audio_timebase": {"den": 1, "num": 1}, "path": "/home/robsen/Dropbox/Workdir/Repo/SuesseRache-HH-Taxi/taxi_start.mp4", "width": 1920, "has_audio": false, "video_bit_rate": 147692, "channel_layout": 4, "height": 1080, "vcodec": "h264", "display_ratio": {"den": 9, "num": 16}, "interlaced_frame": false, "duration": 15, "sample_rate": 0, "pixel_format": 0, "video_timebase": {"den": 12800, "num": 1}, "file_size": "276924", "top_field_first": true, "pixel_ratio": {"den": 1, "num": 1}, "acodec": "", "audio_stream_index": -1, "video_stream_index": 0, "channels": 0, "fps": {"den": 1, "num": 25}}], "value": {"audio_bit_rate": 189375, "has_single_image": false, "media_type": "video", "id": "Z3LOYBY1PL", "type": "FFmpegReader", "has_video": true, "video_length": "937", "audio_timebase": {"den": 48000, "num": 1}, "path": "/home/robsen/Dropbox/Workdir/Repo/SuesseRache-HH-Taxi/TE_SR_Taxi.mp4", "width": 1920, "has_audio": true, "video_bit_rate": 32091692, "channel_layout": 3, "height": 1080, "vcodec": "h264", "display_ratio": {"den": 9, "num": 16}, "interlaced_frame": false, "duration": 31.317333221435547, "sample_rate": 48000, "pixel_format": 0, "video_timebase": {"den": 29970, "num": 1}, "file_size": "125628279", "top_field_first": true, "pixel_ratio": {"den": 1, "num": 1}, "acodec": "aac", "audio_stream_index": 1, "video_stream_index": 0, "channels": 2, "fps": {"den": 100, "num": 2997}}, "key": ["files"], "partial": false, "type": "insert"}, {"old_values": [{"audio_bit_rate": 0, "has_single_image": false, "media_type": "video", "id": "LGW3TZJV4Q", "type": "FFmpegReader", "has_video": true, "video_length": "375", "audio_timebase": {"den": 1, "num": 1}, "path": "/home/robsen/Dropbox/Workdir/Repo/SuesseRache-HH-Taxi/taxi_start.mp4", "width": 1920, "has_audio": false, "video_bit_rate": 147692, "channel_layout": 4, "height": 1080, "vcodec": "h264", "display_ratio": {"den": 9, "num": 16}, "interlaced_frame": false, "duration": 15, "sample_rate": 0, "pixel_format": 0, "video_timebase": {"den": 12800, "num": 1}, "file_size": "276924", "top_field_first": true, "pixel_ratio": {"den": 1, "num": 1}, "acodec": "", "audio_stream_index": -1, "video_stream_index": 0, "channels": 0, "fps": {"den": 1, "num": 25}}, {"audio_bit_rate": 189375, "has_single_image": false, "media_type": "video", "id": "Z3LOYBY1PL", "type": "FFmpegReader", "has_video": true, "video_length": "937", "audio_timebase": {"den": 48000, "num": 1}, "path": "/home/robsen/Dropbox/Workdir/Repo/SuesseRache-HH-Taxi/TE_SR_Taxi.mp4", "width": 1920, "has_audio": true, "video_bit_rate": 32091692, "channel_layout": 3, "height": 1080, "vcodec": "h264", "display_ratio": {"den": 9, "num": 16}, "interlaced_frame": false, "duration": 31.317333221435547, "sample_rate": 48000, "pixel_format": 0, "video_timebase": {"den": 29970, "num": 1}, "file_size": "125628279", "top_field_first": true, "pixel_ratio": {"den": 1, "num": 1}, "acodec": "aac", "audio_stream_index": 1, "video_stream_index": 0, "channels": 2, "fps": {"den": 100, "num": 2997}}], "value": {"audio_bit_rate": 0, "has_single_image": false, "media_type": "video", "id": "X22V56NF57", "type": "FFmpegReader", "has_video": true, "video_length": "375", "audio_timebase": {"den": 1, "num": 1}, "path": "/home/robsen/Dropbox/Workdir/Repo/SuesseRache-HH-Taxi/arrow.mp4", "width": 1920, "has_audio": false, "video_bit_rate": 83079, "channel_layout": 4, "height": 1080, "vcodec": "h264", "display_ratio": {"den": 9, "num": 16}, "interlaced_frame": false, "duration": 15, "sample_rate": 0, "pixel_format": 0, "video_timebase": {"den": 12800, "num": 1}, "file_size": "155774", "top_field_first": true, "pixel_ratio": {"den": 1, "num": 1}, "acodec": "", "audio_stream_index": -1, "video_stream_index": 0, "channels": 0, "fps": {"den": 1, "num": 25}}, "key": ["files"], "partial": false, "type": "insert"}, {"old_values": [], "value": {"alpha": {"Points": [{"co": {"Y": 1, "X": 1}, "interpolation": 2}, {"handle_right": {"Y": 0, "X": 0.5}, "co": {"Y": 1, "X": 289}, "handle_left": {"Y": 1, "X": 0.5}, "handle_type": 0, "interpolation": 0}, {"handle_right": {"Y": 0, "X": 0.5}, "co": {"Y": 0, "X": 361}, "handle_left": {"Y": 1, "X": 0.5}, "handle_type": 0, "interpolation": 0}, {"handle_right": {"Y": 0, "X": 0.5}, "co": {"Y": 0, "X": 1}, "handle_left": {"Y": 1, "X": 0.5}, "handle_type": 0, "interpolation": 0}, {"handle_right": {"Y": 0, "X": 0.5}, "co": {"Y": 1, "X": 73}, "handle_left": {"Y": 1, "X": 0.5}, "handle_type": 0, "interpolation": 0}]}, "rotation": {"Points": [{"co": {"Y": 0, "X": 1}, "interpolation": 2}]}, "scale_y": {"Points": [{"co": {"Y": 1, "X": 1}, "interpolation": 2}]}, "crop_y": {"Points": [{"co": {"Y": 0, "X": 1}, "interpolation": 2}]}, "perspective_c3_x": {"Points": [{"co": {"Y": -1, "X": 1}, "interpolation": 2}]}, "end": 15, "crop_width": {"Points": [{"co": {"Y": -1, "X": 1}, "interpolation": 2}]}, "position": 8.8, "id": "0AEDFYGQ7J", "wave_color": {"green": {"Points": [{"handle_right": {"Y": 0, "X": 0.5}, "co": {"Y": 123, "X": 1}, "handle_left": {"Y": 1, "X": 0.5}, "handle_type": 0, "interpolation": 0}]}, "blue": {"Points": [{"handle_right": {"Y": 0, "X": 0.5}, "co": {"Y": 255, "X": 1}, "handle_left": {"Y": 1, "X": 0.5}, "handle_type": 0, "interpolation": 0}]}, "alpha": {"Points": [{"handle_right": {"Y": 0, "X": 0.5}, "co": {"Y": 255, "X": 1}, "handle_left": {"Y": 1, "X": 0.5}, "handle_type": 0, "interpolation": 0}]}, "red": {"Points": [{"handle_right": {"Y": 0, "X": 0.5}, "co": {"Y": 0, "X": 1}, "handle_left": {"Y": 1, "X": 0.5}, "handle_type": 0, "interpolation": 0}]}}, "has_video": {"Points": [{"co": {"Y": -1, "X": 1}, "interpolation": 2}]}, "has_audio": {"Points": [{"co": {"Y": -1, "X": 1}, "interpolation": 2}]}, "effects": [], "location_x": {"Points": [{"co": {"Y": 0, "X": 1}, "interpolation": 2}]}, "waveform": false, "title": "taxi_start.mp4", "image": "/home/robsen/.openshot_qt/thumbnail/LGW3TZJV4Q.png", "gravity": 4, "scale_x": {"Points": [{"co": {"Y": 1, "X": 1}, "interpolation": 2}]}, "perspective_c1_y": {"Points": [{"co": {"Y": -1, "X": 1}, "interpolation": 2}]}, "crop_height": {"Points": [{"co": {"Y": -1, "X": 1}, "interpolation": 2}]}, "crop_x": {"Points": [{"co": {"Y": 0, "X": 1}, "interpolation": 2}]}, "start": 0, "scale": 1, "shear_y": {"Points": [{"co": {"Y": 0, "X": 1}, "interpolation": 2}]}, "display": 0, "volume": {"Points": [{"co": {"Y": 1, "X": 1}, "interpolation": 2}]}, "channel_mapping": {"Points": [{"co": {"Y": -1, "X": 1}, "interpolation": 2}]}, "anchor": 0, "duration": 15.0, "perspective_c3_y": {"Points": [{"co": {"Y": -1, "X": 1}, "interpolation": 2}]}, "shear_x": {"Points": [{"co": {"Y": 0, "X": 1}, "interpolation": 2}]}, "perspective_c4_x": {"Points": [{"co": {"Y": -1, "X": 1}, "interpolation": 2}]}, "location_y": {"Points": [{"co": {"Y": 0, "X": 1}, "interpolation": 2}]}, "perspective_c2_x": {"Points": [{"co": {"Y": -1, "X": 1}, "interpolation": 2}]}, "layer": 0, "perspective_c2_y": {"Points": [{"co": {"Y": -1, "X": 1}, "interpolation": 2}]}, "perspective_c1_x": {"Points": [{"co": {"Y": -1, "X": 1}, "interpolation": 2}]}, "perspective_c4_y": {"Points": [{"co": {"Y": -1, "X": 1}, "interpolation": 2}]}, "reader": {"audio_bit_rate": 0, "has_single_image": false, "has_video": true, "type": "FFmpegReader", "video_length": "375", "audio_timebase": {"den": 1, "num": 1}, "path": "/home/robsen/Dropbox/Workdir/Repo/SuesseRache-HH-Taxi/taxi_start.mp4", "width": 1920, "has_audio": false, "video_bit_rate": 147692, "channel_layout": 4, "height": 1080, "display_ratio": {"den": 9, "num": 16}, "interlaced_frame": false, "video_timebase": {"den": 12800, "num": 1}, "duration": 15.0, "sample_rate": 0, "pixel_format": 0, "fps": {"den": 1, "num": 25}, "file_size": "276924", "top_field_first": true, "pixel_ratio": {"den": 1, "num": 1}, "acodec": "", "audio_stream_index": -1, "video_stream_index": 0, "channels": 0, "vcodec": "h264"}, "channel_filter": {"Points": [{"co": {"Y": -1, "X": 1}, "interpolation": 2}]}, "file_id": "LGW3TZJV4Q", "time": {"Points": [{"co": {"Y": 1, "X": 1}, "interpolation": 2}]}}, "key": ["clips"], "partial": false, "type": "insert"}, {"old_values": null, "value": {"id": "0AEDFYGQ7J", "start": 0, "end": 15, "position": 8.8, "layer": 0, "image": "/home/robsen/.openshot_qt/thumbnail/LGW3TZJV4Q.png"}, "key": ["clips", {"id": "0AEDFYGQ7J"}], "partial": false, "type": "update"}, {"old_values": null, "value": {"id": "0AEDFYGQ7J", "start": 0, "end": 15, "position": 8.8, "layer": 0, "image": "/home/robsen/.openshot_qt/thumbnail/LGW3TZJV4Q.png"}, "key": ["clips", {"id": "0AEDFYGQ7J"}], "partial": false, "type": "update"}, {"old_values": [{"alpha": {"Points": [{"co": {"Y": 1, "X": 1}, "interpolation": 2}]}, "rotation": {"Points": [{"co": {"Y": 0, "X": 1}, "interpolation": 2}]}, "scale_y": {"Points": [{"co": {"Y": 1, "X": 1}, "interpolation": 2}]}, "crop_y": {"Points": [{"co": {"Y": 0, "X": 1}, "interpolation": 2}]}, "perspective_c3_x": {"Points": [{"co": {"Y": -1, "X": 1}, "interpolation": 2}]}, "end": 15, "crop_width": {"Points": [{"co": {"Y": -1, "X": 1}, "interpolation": 2}]}, "position": 8.8, "id": "0AEDFYGQ7J", "wave_color": {"green": {"Points": [{"handle_right": {"Y": 0, "X": 0.5}, "co": {"Y": 123, "X": 1}, "handle_left": {"Y": 1, "X": 0.5}, "handle_type": 0, "interpolation": 0}]}, "blue": {"Points": [{"handle_right": {"Y": 0, "X": 0.5}, "co": {"Y": 255, "X": 1}, "handle_left": {"Y": 1, "X": 0.5}, "handle_type": 0, "interpolation": 0}]}, "alpha": {"Points": [{"handle_right": {"Y": 0, "X": 0.5}, "co": {"Y": 255, "X": 1}, "handle_left": {"Y": 1, "X": 0.5}, "handle_type": 0, "interpolation": 0}]}, "red": {"Points": [{"handle_right": {"Y": 0, "X": 0.5}, "co": {"Y": 0, "X": 1}, "handle_left": {"Y": 1, "X": 0.5}, "handle_type": 0, "interpolation": 0}]}}, "has_video": {"Points": [{"co": {"Y": -1, "X": 1}, "interpolation": 2}]}, "has_audio": {"Points": [{"co": {"Y": -1, "X": 1}, "interpolation": 2}]}, "effects": [], "location_x": {"Points": [{"co": {"Y": 0, "X": 1}, "interpolation": 2}]}, "waveform": false, "title": "taxi_start.mp4", "image": "/home/robsen/.openshot_qt/thumbnail/LGW3TZJV4Q.png", "gravity": 4, "perspective_c2_x": {"Points": [{"co": {"Y": -1, "X": 1}, "interpolation": 2}]}, "perspective_c1_y": {"Points": [{"co": {"Y": -1, "X": 1}, "interpolation": 2}]}, "crop_height": {"Points": [{"co": {"Y": -1, "X": 1}, "interpolation": 2}]}, "crop_x": {"Points": [{"co": {"Y": 0, "X": 1}, "interpolation": 2}]}, "start": 0, "scale": 1, "shear_y": {"Points": [{"co": {"Y": 0, "X": 1}, "interpolation": 2}]}, "display": 0, "volume": {"Points": [{"co": {"Y": 1, "X": 1}, "interpolation": 2}]}, "channel_mapping": {"Points": [{"co": {"Y": -1, "X": 1}, "interpolation": 2}]}, "anchor": 0, "duration": 15.0, "perspective_c3_y": {"Points": [{"co": {"Y": -1, "X": 1}, "interpolation": 2}]}, "shear_x": {"Points": [{"co": {"Y": 0, "X": 1}, "interpolation": 2}]}, "perspective_c4_x": {"Points": [{"co": {"Y": -1, "X": 1}, "interpolation": 2}]}, "location_y": {"Points": [{"co": {"Y": 0, "X": 1}, "interpolation": 2}]}, "scale_x": {"Points": [{"co": {"Y": 1, "X": 1}, "interpolation": 2}]}, "layer": 0, "perspective_c2_y": {"Points": [{"co": {"Y": -1, "X": 1}, "interpolation": 2}]}, "perspective_c1_x": {"Points": [{"co": {"Y": -1, "X": 1}, "interpolation": 2}]}, "perspective_c4_y": {"Points": [{"co": {"Y": -1, "X": 1}, "interpolation": 2}]}, "reader": {"audio_bit_rate": 0, "has_single_image": false, "vcodec": "h264", "has_video": true, "type": "FFmpegReader", "video_length": "375", "audio_timebase": {"den": 1, "num": 1}, "path": "/home/robsen/Dropbox/Workdir/Repo/SuesseRache-HH-Taxi/taxi_start.mp4", "width": 1920, "has_audio": false, "video_bit_rate": 147692, "channel_layout": 4, "height": 1080, "display_ratio": {"den": 9, "num": 16}, "interlaced_frame": false, "duration": 15.0, "sample_rate": 0, "pixel_format": 0, "video_timebase": {"den": 12800, "num": 1}, "file_size": "276924", "top_field_first": true, "pixel_ratio": {"den": 1, "num": 1}, "acodec": "", "audio_stream_index": -1, "video_stream_index": 0, "channels": 0, "fps": {"den": 1, "num": 25}}, "channel_filter": {"Points": [{"co": {"Y": -1, "X": 1}, "interpolation": 2}]}, "file_id": "LGW3TZJV4Q", "time": {"Points": [{"co": {"Y": 1, "X": 1}, "interpolation": 2}]}}], "value": {"alpha": {"Points": [{"co": {"Y": 1, "X": 1}, "interpolation": 2}]}, "rotation": {"Points": [{"co": {"Y": 0, "X": 1}, "interpolation": 2}]}, "scale_y": {"Points": [{"co": {"Y": 1, "X": 1}, "interpolation": 2}]}, "crop_y": {"Points": [{"co": {"Y": 0, "X": 1}, "interpolation": 2}]}, "perspective_c3_x": {"Points": [{"co": {"Y": -1, "X": 1}, "interpolation": 2}]}, "end": 31.317333221435547, "crop_width": {"Points": [{"co": {"Y": -1, "X": 1}, "interpolation": 2}]}, "position": 21.76, "id": "627XQDJ3EP", "wave_color": {"green": {"Points": [{"handle_right": {"Y": 0, "X": 0.5}, "co": {"Y": 123, "X": 1}, "handle_left": {"Y": 1, "X": 0.5}, "handle_type": 0, "interpolation": 0}]}, "blue": {"Points": [{"handle_right": {"Y": 0, "X": 0.5}, "co": {"Y": 255, "X": 1}, "handle_left": {"Y": 1, "X": 0.5}, "handle_type": 0, "interpolation": 0}]}, "alpha": {"Points": [{"handle_right": {"Y": 0, "X": 0.5}, "co": {"Y": 255, "X": 1}, "handle_left": {"Y": 1, "X": 0.5}, "handle_type": 0, "interpolation": 0}]}, "red": {"Points": [{"handle_right": {"Y": 0, "X": 0.5}, "co": {"Y": 0, "X": 1}, "handle_left": {"Y": 1, "X": 0.5}, "handle_type": 0, "interpolation": 0}]}}, "has_video": {"Points": [{"co": {"Y": -1, "X": 1}, "interpolation": 2}]}, "has_audio": {"Points": [{"co": {"Y": -1, "X": 1}, "interpolation": 2}]}, "effects": [], "location_x": {"Points": [{"co": {"Y": 0, "X": 1}, "interpolation": 2}]}, "waveform": false, "title": "TE_SR_Taxi.mp4", "image": "/home/robsen/.openshot_qt/thumbnail/Z3LOYBY1PL.png", "gravity": 4, "scale_x": {"Points": [{"co": {"Y": 1, "X": 1}, "interpolation": 2}]}, "perspective_c1_y": {"Points": [{"co": {"Y": -1, "X": 1}, "interpolation": 2}]}, "crop_height": {"Points": [{"co": {"Y": -1, "X": 1}, "interpolation": 2}]}, "crop_x": {"Points": [{"co": {"Y": 0, "X": 1}, "interpolation": 2}]}, "start": 0, "scale": 1, "shear_y": {"Points": [{"co": {"Y": 0, "X": 1}, "interpolation": 2}]}, "display": 0, "volume": {"Points": [{"co": {"Y": 1, "X": 1}, "interpolation": 2}]}, "channel_mapping": {"Points": [{"co": {"Y": -1, "X": 1}, "interpolation": 2}]}, "anchor": 0, "duration": 31.317333221435547, "perspective_c3_y": {"Points": [{"co": {"Y": -1, "X": 1}, "interpolation": 2}]}, "shear_x": {"Points": [{"co": {"Y": 0, "X": 1}, "interpolation": 2}]}, "perspective_c4_x": {"Points": [{"co": {"Y": -1, "X": 1}, "interpolation": 2}]}, "location_y": {"Points": [{"co": {"Y": 0, "X": 1}, "interpolation": 2}]}, "perspective_c2_x": {"Points": [{"co": {"Y": -1, "X": 1}, "interpolation": 2}]}, "layer": 1, "perspective_c2_y": {"Points": [{"co": {"Y": -1, "X": 1}, "interpolation": 2}]}, "perspective_c1_x": {"Points": [{"co": {"Y": -1, "X": 1}, "interpolation": 2}]}, "perspective_c4_y": {"Points": [{"co": {"Y": -1, "X": 1}, "interpolation": 2}]}, "reader": {"audio_bit_rate": 189375, "has_single_image": false, "has_video": true, "type": "FFmpegReader", "video_length": "937", "audio_timebase": {"den": 48000, "num": 1}, "path": "/home/robsen/Dropbox/Workdir/Repo/SuesseRache-HH-Taxi/TE_SR_Taxi.mp4", "width": 1920, "has_audio": true, "video_bit_rate": 32091692, "channel_layout": 3, "height": 1080, "display_ratio": {"den": 9, "num": 16}, "interlaced_frame": false, "video_timebase": {"den": 29970, "num": 1}, "duration": 31.317333221435547, "sample_rate": 48000, "pixel_format": 0, "fps": {"den": 100, "num": 2997}, "file_size": "125628279", "top_field_first": true, "pixel_ratio": {"den": 1, "num": 1}, "acodec": "aac", "audio_stream_index": 1, "video_stream_index": 0, "channels": 2, "vcodec": "h264"}, "channel_filter": {"Points": [{"co": {"Y": -1, "X": 1}, "interpolation": 2}]}, "file_id": "Z3LOYBY1PL", "time": {"Points": [{"co": {"Y": 1, "X": 1}, "interpolation": 2}]}}, "key": ["clips"], "partial": false, "type": "insert"}, {"old_values": {"alpha": {"Points": [{"co": {"Y": 1, "X": 1}, "interpolation": 2}]}, "rotation": {"Points": [{"co": {"Y": 0, "X": 1}, "interpolation": 2}]}, "scale_y": {"Points": [{"co": {"Y": 1, "X": 1}, "interpolation": 2}]}, "crop_y": {"Points": [{"co": {"Y": 0, "X": 1}, "interpolation": 2}]}, "perspective_c3_x": {"Points": [{"co": {"Y": -1, "X": 1}, "interpolation": 2}]}, "end": 31.317333221435547, "crop_width": {"Points": [{"co": {"Y": -1, "X": 1}, "interpolation": 2}]}, "position": 18.88, "id": "627XQDJ3EP", "wave_color": {"green": {"Points": [{"handle_right": {"Y": 0, "X": 0.5}, "co": {"Y": 123, "X": 1}, "handle_left": {"Y": 1, "X": 0.5}, "handle_type": 0, "interpolation": 0}]}, "blue": {"Points": [{"handle_right": {"Y": 0, "X": 0.5}, "co": {"Y": 255, "X": 1}, "handle_left": {"Y": 1, "X": 0.5}, "handle_type": 0, "interpolation": 0}]}, "alpha": {"Points": [{"handle_right": {"Y": 0, "X": 0.5}, "co": {"Y": 255, "X": 1}, "handle_left": {"Y": 1, "X": 0.5}, "handle_type": 0, "interpolation": 0}]}, "red": {"Points": [{"handle_right": {"Y": 0, "X": 0.5}, "co": {"Y": 0, "X": 1}, "handle_left": {"Y": 1, "X": 0.5}, "handle_type": 0, "interpolation": 0}]}}, "has_video": {"Points": [{"co": {"Y": -1, "X": 1}, "interpolation": 2}]}, "has_audio": {"Points": [{"co": {"Y": -1, "X": 1}, "interpolation": 2}]}, "effects": [], "location_x": {"Points": [{"co": {"Y": 0, "X": 1}, "interpolation": 2}]}, "waveform": false, "title": "TE_SR_Taxi.mp4", "image": "/home/robsen/.openshot_qt/thumbnail/Z3LOYBY1PL.png", "gravity": 4, "scale_x": {"Points": [{"co": {"Y": 1, "X": 1}, "interpolation": 2}]}, "perspective_c1_y": {"Points": [{"co": {"Y": -1, "X": 1}, "interpolation": 2}]}, "crop_height": {"Points": [{"co": {"Y": -1, "X": 1}, "interpolation": 2}]}, "crop_x": {"Points": [{"co": {"Y": 0, "X": 1}, "interpolation": 2}]}, "start": 0, "scale": 1, "shear_y": {"Points": [{"co": {"Y": 0, "X": 1}, "interpolation": 2}]}, "display": 0, "volume": {"Points": [{"co": {"Y": 1, "X": 1}, "interpolation": 2}]}, "channel_mapping": {"Points": [{"co": {"Y": -1, "X": 1}, "interpolation": 2}]}, "anchor": 0, "duration": 31.317333221435547, "perspective_c3_y": {"Points": [{"co": {"Y": -1, "X": 1}, "interpolation": 2}]}, "shear_x": {"Points": [{"co": {"Y": 0, "X": 1}, "interpolation": 2}]}, "perspective_c4_x": {"Points": [{"co": {"Y": -1, "X": 1}, "interpolation": 2}]}, "location_y": {"Points": [{"co": {"Y": 0, "X": 1}, "interpolation": 2}]}, "perspective_c2_x": {"Points": [{"co": {"Y": -1, "X": 1}, "interpolation": 2}]}, "layer": 2, "perspective_c2_y": {"Points": [{"co": {"Y": -1, "X": 1}, "interpolation": 2}]}, "perspective_c1_x": {"Points": [{"co": {"Y": -1, "X": 1}, "interpolation": 2}]}, "perspective_c4_y": {"Points": [{"co": {"Y": -1, "X": 1}, "interpolation": 2}]}, "reader": {"audio_bit_rate": 189375, "has_single_image": false, "vcodec": "h264", "has_video": true, "type": "FFmpegReader", "video_length": "937", "audio_timebase": {"den": 48000, "num": 1}, "path": "/home/robsen/Dropbox/Workdir/Repo/SuesseRache-HH-Taxi/TE_SR_Taxi.mp4", "width": 1920, "has_audio": true, "video_bit_rate": 32091692, "channel_layout": 3, "height": 1080, "display_ratio": {"den": 9, "num": 16}, "interlaced_frame": false, "duration": 31.317333221435547, "sample_rate": 48000, "pixel_format": 0, "video_timebase": {"den": 29970, "num": 1}, "file_size": "125628279", "top_field_first": true, "pixel_ratio": {"den": 1, "num": 1}, "acodec": "aac", "audio_stream_index": 1, "video_stream_index": 0, "channels": 2, "fps": {"den": 100, "num": 2997}}, "channel_filter": {"Points": [{"co": {"Y": -1, "X": 1}, "interpolation": 2}]}, "file_id": "Z3LOYBY1PL", "time": {"Points": [{"co": {"Y": 1, "X": 1}, "interpolation": 2}]}}, "value": {"id": "627XQDJ3EP", "start": 0, "end": 31.317333221435547, "position": 21.76, "layer": 0, "image": "/home/robsen/.openshot_qt/thumbnail/Z3LOYBY1PL.png"}, "key": ["clips", {"id": "627XQDJ3EP"}], "partial": false, "type": "update"}, {"old_values": [], "value": {"start": 0, "type": "Mask", "contrast": {"Points": [{"co": {"Y": 3, "X": 1}, "interpolation": 2}]}, "layer": 0, "replace_image": false, "title": "Transition", "end": 2.039999999999999, "reader": {"audio_bit_rate": 0, "has_single_image": true, "has_video": true, "type": "QtImageReader", "video_length": "2592000", "audio_timebase": {"den": 1, "num": 1}, "path": "/usr/lib/python3/dist-packages/openshot_qt/transitions/common/fade.svg", "width": 720, "has_audio": false, "video_bit_rate": 0, "channel_layout": 4, "height": 576, "display_ratio": {"den": 4, "num": 5}, "interlaced_frame": false, "video_timebase": {"den": 30, "num": 1}, "duration": 86400, "sample_rate": 0, "pixel_format": -1, "fps": {"den": 1, "num": 30}, "file_size": "1658880", "top_field_first": true, "pixel_ratio": {"den": 1, "num": 1}, "acodec": "", "audio_stream_index": -1, "video_stream_index": -1, "channels": 0, "vcodec": ""}, "brightness": {"Points": [{"handle_right": {"Y": 0, "X": 0.5}, "co": {"Y": 1, "X": 1}, "handle_left": {"Y": 1, "X": 0.5}, "handle_type": 0, "interpolation": 0}, {"handle_right": {"Y": 0, "X": 0.5}, "co": {"Y": -1, "X": 50}, "handle_left": {"Y": 1, "X": 0.5}, "handle_type": 0, "interpolation": 0}]}, "id": "5NBS5H99MA", "position": 21.76}, "key": ["effects"], "partial": false, "type": "insert"}, {"old_values": {"alpha": {"Points": [{"co": {"Y": 1, "X": 1}, "interpolation": 2}]}, "rotation": {"Points": [{"co": {"Y": 0, "X": 1}, "interpolation": 2}]}, "scale_y": {"Points": [{"co": {"Y": 1, "X": 1}, "interpolation": 2}]}, "crop_y": {"Points": [{"co": {"Y": 0, "X": 1}, "interpolation": 2}]}, "perspective_c3_x": {"Points": [{"co": {"Y": -1, "X": 1}, "interpolation": 2}]}, "end": 31.317333221435547, "crop_width": {"Points": [{"co": {"Y": -1, "X": 1}, "interpolation": 2}]}, "position": 21.76, "id": "627XQDJ3EP", "wave_color": {"green": {"Points": [{"handle_right": {"Y": 0, "X": 0.5}, "co": {"Y": 123, "X": 1}, "handle_left": {"Y": 1, "X": 0.5}, "handle_type": 0, "interpolation": 0}]}, "blue": {"Points": [{"handle_right": {"Y": 0, "X": 0.5}, "co": {"Y": 255, "X": 1}, "handle_left": {"Y": 1, "X": 0.5}, "handle_type": 0, "interpolation": 0}]}, "alpha": {"Points": [{"handle_right": {"Y": 0, "X": 0.5}, "co": {"Y": 255, "X": 1}, "handle_left": {"Y": 1, "X": 0.5}, "handle_type": 0, "interpolation": 0}]}, "red": {"Points": [{"handle_right": {"Y": 0, "X": 0.5}, "co": {"Y": 0, "X": 1}, "handle_left": {"Y": 1, "X": 0.5}, "handle_type": 0, "interpolation": 0}]}}, "has_video": {"Points": [{"co": {"Y": -1, "X": 1}, "interpolation": 2}]}, "has_audio": {"Points": [{"co": {"Y": -1, "X": 1}, "interpolation": 2}]}, "effects": [], "location_x": {"Points": [{"co": {"Y": 0, "X": 1}, "interpolation": 2}]}, "waveform": false, "title": "TE_SR_Taxi.mp4", "image": "/home/robsen/.openshot_qt/thumbnail/Z3LOYBY1PL.png", "gravity": 4, "perspective_c2_x": {"Points": [{"co": {"Y": -1, "X": 1}, "interpolation": 2}]}, "perspective_c1_y": {"Points": [{"co": {"Y": -1, "X": 1}, "interpolation": 2}]}, "crop_height": {"Points": [{"co": {"Y": -1, "X": 1}, "interpolation": 2}]}, "crop_x": {"Points": [{"co": {"Y": 0, "X": 1}, "interpolation": 2}]}, "start": 0, "scale": 1, "shear_y": {"Points": [{"co": {"Y": 0, "X": 1}, "interpolation": 2}]}, "display": 0, "volume": {"Points": [{"co": {"Y": 1, "X": 1}, "interpolation": 2}]}, "channel_mapping": {"Points": [{"co": {"Y": -1, "X": 1}, "interpolation": 2}]}, "anchor": 0, "duration": 31.317333221435547, "perspective_c3_y": {"Points": [{"co": {"Y": -1, "X": 1}, "interpolation": 2}]}, "shear_x": {"Points": [{"co": {"Y": 0, "X": 1}, "interpolation": 2}]}, "perspective_c4_x": {"Points": [{"co": {"Y": -1, "X": 1}, "interpolation": 2}]}, "location_y": {"Points": [{"co": {"Y": 0, "X": 1}, "interpolation": 2}]}, "scale_x": {"Points": [{"co": {"Y": 1, "X": 1}, "interpolation": 2}]}, "layer": 0, "perspective_c2_y": {"Points": [{"co": {"Y": -1, "X": 1}, "interpolation": 2}]}, "perspective_c1_x": {"Points": [{"co": {"Y": -1, "X": 1}, "interpolation": 2}]}, "perspective_c4_y": {"Points": [{"co": {"Y": -1, "X": 1}, "interpolation": 2}]}, "reader": {"audio_bit_rate": 189375, "has_single_image": false, "vcodec": "h264", "has_video": true, "type": "FFmpegReader", "video_length": "937", "audio_timebase": {"den": 48000, "num": 1}, "path": "/home/robsen/Dropbox/Workdir/Repo/SuesseRache-HH-Taxi/TE_SR_Taxi.mp4", "width": 1920, "has_audio": true, "video_bit_rate": 32091692, "channel_layout": 3, "height": 1080, "display_ratio": {"den": 9, "num": 16}, "interlaced_frame": false, "duration": 31.317333221435547, "sample_rate": 48000, "pixel_format": 0, "video_timebase": {"den": 29970, "num": 1}, "file_size": "125628279", "top_field_first": true, "pixel_ratio": {"den": 1, "num": 1}, "acodec": "aac", "audio_stream_index": 1, "video_stream_index": 0, "channels": 2, "fps": {"den": 100, "num": 2997}}, "channel_filter": {"Points": [{"co": {"Y": -1, "X": 1}, "interpolation": 2}]}, "file_id": "Z3LOYBY1PL", "time": {"Points": [{"co": {"Y": 1, "X": 1}, "interpolation": 2}]}}, "value": {"id": "627XQDJ3EP", "start": 0, "end": 31.317333221435547, "position": 21.76, "layer": 1, "image": "/home/robsen/.openshot_qt/thumbnail/Z3LOYBY1PL.png"}, "key": ["clips", {"id": "627XQDJ3EP"}], "partial": false, "type": "update"}, {"old_values": [{"alpha": {"Points": [{"co": {"Y": 1, "X": 1}, "interpolation": 2}]}, "rotation": {"Points": [{"co": {"Y": 0, "X": 1}, "interpolation": 2}]}, "scale_y": {"Points": [{"co": {"Y": 1, "X": 1}, "interpolation": 2}]}, "crop_y": {"Points": [{"co": {"Y": 0, "X": 1}, "interpolation": 2}]}, "perspective_c3_x": {"Points": [{"co": {"Y": -1, "X": 1}, "interpolation": 2}]}, "end": 15, "crop_width": {"Points": [{"co": {"Y": -1, "X": 1}, "interpolation": 2}]}, "position": 8.8, "id": "0AEDFYGQ7J", "wave_color": {"green": {"Points": [{"handle_right": {"Y": 0, "X": 0.5}, "co": {"Y": 123, "X": 1}, "handle_left": {"Y": 1, "X": 0.5}, "handle_type": 0, "interpolation": 0}]}, "blue": {"Points": [{"handle_right": {"Y": 0, "X": 0.5}, "co": {"Y": 255, "X": 1}, "handle_left": {"Y": 1, "X": 0.5}, "handle_type": 0, "interpolation": 0}]}, "alpha": {"Points": [{"handle_right": {"Y": 0, "X": 0.5}, "co": {"Y": 255, "X": 1}, "handle_left": {"Y": 1, "X": 0.5}, "handle_type": 0, "interpolation": 0}]}, "red": {"Points": [{"handle_right": {"Y": 0, "X": 0.5}, "co": {"Y": 0, "X": 1}, "handle_left": {"Y": 1, "X": 0.5}, "handle_type": 0, "interpolation": 0}]}}, "has_video": {"Points": [{"co": {"Y": -1, "X": 1}, "interpolation": 2}]}, "has_audio": {"Points": [{"co": {"Y": -1, "X": 1}, "interpolation": 2}]}, "effects": [], "location_x": {"Points": [{"co": {"Y": 0, "X": 1}, "interpolation": 2}]}, "waveform": false, "title": "taxi_start.mp4", "image": "/home/robsen/.openshot_qt/thumbnail/LGW3TZJV4Q.png", "gravity": 4, "perspective_c2_x": {"Points": [{"co": {"Y": -1, "X": 1}, "interpolation": 2}]}, "perspective_c1_y": {"Points": [{"co": {"Y": -1, "X": 1}, "interpolation": 2}]}, "crop_height": {"Points": [{"co": {"Y": -1, "X": 1}, "interpolation": 2}]}, "crop_x": {"Points": [{"co": {"Y": 0, "X": 1}, "interpolation": 2}]}, "start": 0, "scale": 1, "shear_y": {"Points": [{"co": {"Y": 0, "X": 1}, "interpolation": 2}]}, "display": 0, "volume": {"Points": [{"co": {"Y": 1, "X": 1}, "interpolation": 2}]}, "channel_mapping": {"Points": [{"co": {"Y": -1, "X": 1}, "interpolation": 2}]}, "anchor": 0, "duration": 15.0, "perspective_c3_y": {"Points": [{"co": {"Y": -1, "X": 1}, "interpolation": 2}]}, "shear_x": {"Points": [{"co": {"Y": 0, "X": 1}, "interpolation": 2}]}, "perspective_c4_x": {"Points": [{"co": {"Y": -1, "X": 1}, "interpolation": 2}]}, "location_y": {"Points": [{"co": {"Y": 0, "X": 1}, "interpolation": 2}]}, "scale_x": {"Points": [{"co": {"Y": 1, "X": 1}, "interpolation": 2}]}, "layer": 0, "perspective_c2_y": {"Points": [{"co": {"Y": -1, "X": 1}, "interpolation": 2}]}, "perspective_c1_x": {"Points": [{"co": {"Y": -1, "X": 1}, "interpolation": 2}]}, "perspective_c4_y": {"Points": [{"co": {"Y": -1, "X": 1}, "interpolation": 2}]}, "reader": {"audio_bit_rate": 0, "has_single_image": false, "vcodec": "h264", "has_video": true, "type": "FFmpegReader", "video_length": "375", "audio_timebase": {"den": 1, "num": 1}, "path": "/home/robsen/Dropbox/Workdir/Repo/SuesseRache-HH-Taxi/taxi_start.mp4", "width": 1920, "has_audio": false, "video_bit_rate": 147692, "channel_layout": 4, "height": 1080, "display_ratio": {"den": 9, "num": 16}, "interlaced_frame": false, "duration": 15.0, "sample_rate": 0, "pixel_format": 0, "video_timebase": {"den": 12800, "num": 1}, "file_size": "276924", "top_field_first": true, "pixel_ratio": {"den": 1, "num": 1}, "acodec": "", "audio_stream_index": -1, "video_stream_index": 0, "channels": 0, "fps": {"den": 1, "num": 25}}, "channel_filter": {"Points": [{"co": {"Y": -1, "X": 1}, "interpolation": 2}]}, "file_id": "LGW3TZJV4Q", "time": {"Points": [{"co": {"Y": 1, "X": 1}, "interpolation": 2}]}}, {"alpha": {"Points": [{"co": {"Y": 1, "X": 1}, "interpolation": 2}]}, "rotation": {"Points": [{"co": {"Y": 0, "X": 1}, "interpolation": 2}]}, "scale_y": {"Points": [{"co": {"Y": 1, "X": 1}, "interpolation": 2}]}, "crop_y": {"Points": [{"co": {"Y": 0, "X": 1}, "interpolation": 2}]}, "perspective_c3_x": {"Points": [{"co": {"Y": -1, "X": 1}, "interpolation": 2}]}, "end": 31.317333221435547, "crop_width": {"Points": [{"co": {"Y": -1, "X": 1}, "interpolation": 2}]}, "position": 21.76, "id": "627XQDJ3EP", "wave_color": {"green": {"Points": [{"handle_right": {"Y": 0, "X": 0.5}, "co": {"Y": 123, "X": 1}, "handle_left": {"Y": 1, "X": 0.5}, "handle_type": 0, "interpolation": 0}]}, "blue": {"Points": [{"handle_right": {"Y": 0, "X": 0.5}, "co": {"Y": 255, "X": 1}, "handle_left": {"Y": 1, "X": 0.5}, "handle_type": 0, "interpolation": 0}]}, "alpha": {"Points": [{"handle_right": {"Y": 0, "X": 0.5}, "co": {"Y": 255, "X": 1}, "handle_left": {"Y": 1, "X": 0.5}, "handle_type": 0, "interpolation": 0}]}, "red": {"Points": [{"handle_right": {"Y": 0, "X": 0.5}, "co": {"Y": 0, "X": 1}, "handle_left": {"Y": 1, "X": 0.5}, "handle_type": 0, "interpolation": 0}]}}, "has_video": {"Points": [{"co": {"Y": -1, "X": 1}, "interpolation": 2}]}, "has_audio": {"Points": [{"co": {"Y": -1, "X": 1}, "interpolation": 2}]}, "effects": [], "location_x": {"Points": [{"co": {"Y": 0, "X": 1}, "interpolation": 2}]}, "waveform": false, "title": "TE_SR_Taxi.mp4", "image": "/home/robsen/.openshot_qt/thumbnail/Z3LOYBY1PL.png", "gravity": 4, "perspective_c2_x": {"Points": [{"co": {"Y": -1, "X": 1}, "interpolation": 2}]}, "perspective_c1_y": {"Points": [{"co": {"Y": -1, "X": 1}, "interpolation": 2}]}, "crop_height": {"Points": [{"co": {"Y": -1, "X": 1}, "interpolation": 2}]}, "crop_x": {"Points": [{"co": {"Y": 0, "X": 1}, "interpolation": 2}]}, "start": 0, "scale": 1, "shear_y": {"Points": [{"co": {"Y": 0, "X": 1}, "interpolation": 2}]}, "display": 0, "volume": {"Points": [{"co": {"Y": 1, "X": 1}, "interpolation": 2}]}, "channel_mapping": {"Points": [{"co": {"Y": -1, "X": 1}, "interpolation": 2}]}, "anchor": 0, "duration": 31.317333221435547, "perspective_c3_y": {"Points": [{"co": {"Y": -1, "X": 1}, "interpolation": 2}]}, "shear_x": {"Points": [{"co": {"Y": 0, "X": 1}, "interpolation": 2}]}, "perspective_c4_x": {"Points": [{"co": {"Y": -1, "X": 1}, "interpolation": 2}]}, "location_y": {"Points": [{"co": {"Y": 0, "X": 1}, "interpolation": 2}]}, "scale_x": {"Points": [{"co": {"Y": 1, "X": 1}, "interpolation": 2}]}, "layer": 1, "perspective_c2_y": {"Points": [{"co": {"Y": -1, "X": 1}, "interpolation": 2}]}, "perspective_c1_x": {"Points": [{"co": {"Y": -1, "X": 1}, "interpolation": 2}]}, "perspective_c4_y": {"Points": [{"co": {"Y": -1, "X": 1}, "interpolation": 2}]}, "reader": {"audio_bit_rate": 189375, "has_single_image": false, "vcodec": "h264", "has_video": true, "type": "FFmpegReader", "video_length": "937", "audio_timebase": {"den": 48000, "num": 1}, "path": "/home/robsen/Dropbox/Workdir/Repo/SuesseRache-HH-Taxi/TE_SR_Taxi.mp4", "width": 1920, "has_audio": true, "video_bit_rate": 32091692, "channel_layout": 3, "height": 1080, "display_ratio": {"den": 9, "num": 16}, "interlaced_frame": false, "duration": 31.317333221435547, "sample_rate": 48000, "pixel_format": 0, "video_timebase": {"den": 29970, "num": 1}, "file_size": "125628279", "top_field_first": true, "pixel_ratio": {"den": 1, "num": 1}, "acodec": "aac", "audio_stream_index": 1, "video_stream_index": 0, "channels": 2, "fps": {"den": 100, "num": 2997}}, "channel_filter": {"Points": [{"co": {"Y": -1, "X": 1}, "interpolation": 2}]}, "file_id": "Z3LOYBY1PL", "time": {"Points": [{"co": {"Y": 1, "X": 1}, "interpolation": 2}]}}], "value": {"alpha": {"Points": [{"co": {"Y": 1, "X": 1}, "interpolation": 2}, {"handle_right": {"Y": 0, "X": 0.5}, "co": {"Y": 0, "X": 1}, "handle_left": {"Y": 1, "X": 0.5}, "handle_type": 0, "interpolation": 0}, {"handle_right": {"Y": 0, "X": 0.5}, "co": {"Y": 1, "X": 73}, "handle_left": {"Y": 1, "X": 0.5}, "handle_type": 0, "interpolation": 0}]}, "rotation": {"Points": [{"co": {"Y": 0, "X": 1}, "interpolation": 2}]}, "scale_y": {"Points": [{"co": {"Y": 1, "X": 1}, "interpolation": 2}]}, "crop_y": {"Points": [{"co": {"Y": 0, "X": 1}, "interpolation": 2}]}, "perspective_c3_x": {"Points": [{"co": {"Y": -1, "X": 1}, "interpolation": 2}]}, "end": 15, "crop_width": {"Points": [{"co": {"Y": -1, "X": 1}, "interpolation": 2}]}, "position": 53.075, "id": "PJWPMFXKV3", "wave_color": {"green": {"Points": [{"handle_right": {"Y": 0, "X": 0.5}, "co": {"Y": 123, "X": 1}, "handle_left": {"Y": 1, "X": 0.5}, "handle_type": 0, "interpolation": 0}]}, "blue": {"Points": [{"handle_right": {"Y": 0, "X": 0.5}, "co": {"Y": 255, "X": 1}, "handle_left": {"Y": 1, "X": 0.5}, "handle_type": 0, "interpolation": 0}]}, "alpha": {"Points": [{"handle_right": {"Y": 0, "X": 0.5}, "co": {"Y": 255, "X": 1}, "handle_left": {"Y": 1, "X": 0.5}, "handle_type": 0, "interpolation": 0}]}, "red": {"Points": [{"handle_right": {"Y": 0, "X": 0.5}, "co": {"Y": 0, "X": 1}, "handle_left": {"Y": 1, "X": 0.5}, "handle_type": 0, "interpolation": 0}]}}, "has_video": {"Points": [{"co": {"Y": -1, "X": 1}, "interpolation": 2}]}, "has_audio": {"Points": [{"co": {"Y": -1, "X": 1}, "interpolation": 2}]}, "effects": [], "location_x": {"Points": [{"co": {"Y": 0, "X": 1}, "interpolation": 2}]}, "waveform": false, "title": "arrow.mp4", "image": "/home/robsen/.openshot_qt/thumbnail/X22V56NF57.png", "gravity": 4, "scale_x": {"Points": [{"co": {"Y": 1, "X": 1}, "interpolation": 2}]}, "perspective_c1_y": {"Points": [{"co": {"Y": -1, "X": 1}, "interpolation": 2}]}, "crop_height": {"Points": [{"co": {"Y": -1, "X": 1}, "interpolation": 2}]}, "crop_x": {"Points": [{"co": {"Y": 0, "X": 1}, "interpolation": 2}]}, "start": 0, "scale": 1, "shear_y": {"Points": [{"co": {"Y": 0, "X": 1}, "interpolation": 2}]}, "display": 0, "volume": {"Points": [{"co": {"Y": 1, "X": 1}, "interpolation": 2}]}, "channel_mapping": {"Points": [{"co": {"Y": -1, "X": 1}, "interpolation": 2}]}, "anchor": 0, "duration": 15.0, "perspective_c3_y": {"Points": [{"co": {"Y": -1, "X": 1}, "interpolation": 2}]}, "shear_x": {"Points": [{"co": {"Y": 0, "X": 1}, "interpolation": 2}]}, "perspective_c4_x": {"Points": [{"co": {"Y": -1, "X": 1}, "interpolation": 2}]}, "location_y": {"Points": [{"co": {"Y": 0, "X": 1}, "interpolation": 2}]}, "perspective_c2_x": {"Points": [{"co": {"Y": -1, "X": 1}, "interpolation": 2}]}, "layer": 2, "perspective_c2_y": {"Points": [{"co": {"Y": -1, "X": 1}, "interpolation": 2}]}, "perspective_c1_x": {"Points": [{"co": {"Y": -1, "X": 1}, "interpolation": 2}]}, "perspective_c4_y": {"Points": [{"co": {"Y": -1, "X": 1}, "interpolation": 2}]}, "reader": {"audio_bit_rate": 0, "has_single_image": false, "has_video": true, "type": "FFmpegReader", "video_length": "375", "audio_timebase": {"den": 1, "num": 1}, "path": "/home/robsen/Dropbox/Workdir/Repo/SuesseRache-HH-Taxi/arrow.mp4", "width": 1920, "has_audio": false, "video_bit_rate": 83079, "channel_layout": 4, "height": 1080, "display_ratio": {"den": 9, "num": 16}, "interlaced_frame": false, "video_timebase": {"den": 12800, "num": 1}, "duration": 15.0, "sample_rate": 0, "pixel_format": 0, "fps": {"den": 1, "num": 25}, "file_size": "155774", "top_field_first": true, "pixel_ratio": {"den": 1, "num": 1}, "acodec": "", "audio_stream_index": -1, "video_stream_index": 0, "channels": 0, "vcodec": "h264"}, "channel_filter": {"Points": [{"co": {"Y": -1, "X": 1}, "interpolation": 2}]}, "file_id": "X22V56NF57", "time": {"Points": [{"co": {"Y": 1, "X": 1}, "interpolation": 2}]}}, "key": ["clips"], "partial": false, "type": "insert"}, {"old_values": {"alpha": {"Points": [{"co": {"Y": 1, "X": 1}, "interpolation": 2}]}, "rotation": {"Points": [{"co": {"Y": 0, "X": 1}, "interpolation": 2}]}, "scale_y": {"Points": [{"co": {"Y": 1, "X": 1}, "interpolation": 2}]}, "crop_y": {"Points": [{"co": {"Y": 0, "X": 1}, "interpolation": 2}]}, "perspective_c3_x": {"Points": [{"co": {"Y": -1, "X": 1}, "interpolation": 2}]}, "end": 15.0, "crop_width": {"Points": [{"co": {"Y": -1, "X": 1}, "interpolation": 2}]}, "position": 62.88, "id": "PJWPMFXKV3", "wave_color": {"green": {"Points": [{"handle_right": {"Y": 0, "X": 0.5}, "co": {"Y": 123, "X": 1}, "handle_left": {"Y": 1, "X": 0.5}, "handle_type": 0, "interpolation": 0}]}, "blue": {"Points": [{"handle_right": {"Y": 0, "X": 0.5}, "co": {"Y": 255, "X": 1}, "handle_left": {"Y": 1, "X": 0.5}, "handle_type": 0, "interpolation": 0}]}, "alpha": {"Points": [{"handle_right": {"Y": 0, "X": 0.5}, "co": {"Y": 255, "X": 1}, "handle_left": {"Y": 1, "X": 0.5}, "handle_type": 0, "interpolation": 0}]}, "red": {"Points": [{"handle_right": {"Y": 0, "X": 0.5}, "co": {"Y": 0, "X": 1}, "handle_left": {"Y": 1, "X": 0.5}, "handle_type": 0, "interpolation": 0}]}}, "has_video": {"Points": [{"co": {"Y": -1, "X": 1}, "interpolation": 2}]}, "has_audio": {"Points": [{"co": {"Y": -1, "X": 1}, "interpolation": 2}]}, "effects": [], "location_x": {"Points": [{"co": {"Y": 0, "X": 1}, "interpolation": 2}]}, "waveform": false, "title": "arrow.mp4", "image": "/home/robsen/.openshot_qt/thumbnail/X22V56NF57.png", "gravity": 4, "scale_x": {"Points": [{"co": {"Y": 1, "X": 1}, "interpolation": 2}]}, "perspective_c1_y": {"Points": [{"co": {"Y": -1, "X": 1}, "interpolation": 2}]}, "crop_height": {"Points": [{"co": {"Y": -1, "X": 1}, "interpolation": 2}]}, "crop_x": {"Points": [{"co": {"Y": 0, "X": 1}, "interpolation": 2}]}, "start": 0, "scale": 1, "shear_y": {"Points": [{"co": {"Y": 0, "X": 1}, "interpolation": 2}]}, "display": 0, "volume": {"Points": [{"co": {"Y": 1, "X": 1}, "interpolation": 2}]}, "channel_mapping": {"Points": [{"co": {"Y": -1, "X": 1}, "interpolation": 2}]}, "anchor": 0, "duration": 15.0, "perspective_c3_y": {"Points": [{"co": {"Y": -1, "X": 1}, "interpolation": 2}]}, "shear_x": {"Points": [{"co": {"Y": 0, "X": 1}, "interpolation": 2}]}, "perspective_c4_x": {"Points": [{"co": {"Y": -1, "X": 1}, "interpolation": 2}]}, "location_y": {"Points": [{"co": {"Y": 0, "X": 1}, "interpolation": 2}]}, "perspective_c2_x": {"Points": [{"co": {"Y": -1, "X": 1}, "interpolation": 2}]}, "layer": 2, "perspective_c2_y": {"Points": [{"co": {"Y": -1, "X": 1}, "interpolation": 2}]}, "perspective_c1_x": {"Points": [{"co": {"Y": -1, "X": 1}, "interpolation": 2}]}, "perspective_c4_y": {"Points": [{"co": {"Y": -1, "X": 1}, "interpolation": 2}]}, "reader": {"audio_bit_rate": 0, "has_single_image": false, "vcodec": "h264", "has_video": true, "type": "FFmpegReader", "video_length": "375", "audio_timebase": {"den": 1, "num": 1}, "path": "/home/robsen/Dropbox/Workdir/Repo/SuesseRache-HH-Taxi/arrow.mp4", "width": 1920, "has_audio": false, "video_bit_rate": 83079, "channel_layout": 4, "height": 1080, "display_ratio": {"den": 9, "num": 16}, "interlaced_frame": false, "duration": 15.0, "sample_rate": 0, "pixel_format": 0, "video_timebase": {"den": 12800, "num": 1}, "file_size": "155774", "top_field_first": true, "pixel_ratio": {"den": 1, "num": 1}, "acodec": "", "audio_stream_index": -1, "video_stream_index": 0, "channels": 0, "fps": {"den": 1, "num": 25}}, "channel_filter": {"Points": [{"co": {"Y": -1, "X": 1}, "interpolation": 2}]}, "file_id": "X22V56NF57", "time": {"Points": [{"co": {"Y": 1, "X": 1}, "interpolation": 2}]}}, "value": {"id": "PJWPMFXKV3", "start": 0, "end": 15, "position": 63.04, "layer": 1, "image": "/home/robsen/.openshot_qt/thumbnail/X22V56NF57.png"}, "key": ["clips", {"id": "PJWPMFXKV3"}], "partial": false, "type": "update"}, {"old_values": {"alpha": {"Points": [{"co": {"Y": 1, "X": 1}, "interpolation": 2}]}, "rotation": {"Points": [{"co": {"Y": 0, "X": 1}, "interpolation": 2}]}, "scale_y": {"Points": [{"co": {"Y": 1, "X": 1}, "interpolation": 2}]}, "crop_y": {"Points": [{"co": {"Y": 0, "X": 1}, "interpolation": 2}]}, "perspective_c3_x": {"Points": [{"co": {"Y": -1, "X": 1}, "interpolation": 2}]}, "end": 15, "crop_width": {"Points": [{"co": {"Y": -1, "X": 1}, "interpolation": 2}]}, "position": 63.04, "id": "PJWPMFXKV3", "wave_color": {"green": {"Points": [{"handle_right": {"Y": 0, "X": 0.5}, "co": {"Y": 123, "X": 1}, "handle_left": {"Y": 1, "X": 0.5}, "handle_type": 0, "interpolation": 0}]}, "blue": {"Points": [{"handle_right": {"Y": 0, "X": 0.5}, "co": {"Y": 255, "X": 1}, "handle_left": {"Y": 1, "X": 0.5}, "handle_type": 0, "interpolation": 0}]}, "alpha": {"Points": [{"handle_right": {"Y": 0, "X": 0.5}, "co": {"Y": 255, "X": 1}, "handle_left": {"Y": 1, "X": 0.5}, "handle_type": 0, "interpolation": 0}]}, "red": {"Points": [{"handle_right": {"Y": 0, "X": 0.5}, "co": {"Y": 0, "X": 1}, "handle_left": {"Y": 1, "X": 0.5}, "handle_type": 0, "interpolation": 0}]}}, "has_video": {"Points": [{"co": {"Y": -1, "X": 1}, "interpolation": 2}]}, "has_audio": {"Points": [{"co": {"Y": -1, "X": 1}, "interpolation": 2}]}, "effects": [], "location_x": {"Points": [{"co": {"Y": 0, "X": 1}, "interpolation": 2}]}, "waveform": false, "title": "arrow.mp4", "image": "/home/robsen/.openshot_qt/thumbnail/X22V56NF57.png", "gravity": 4, "perspective_c2_x": {"Points": [{"co": {"Y": -1, "X": 1}, "interpolation": 2}]}, "perspective_c1_y": {"Points": [{"co": {"Y": -1, "X": 1}, "interpolation": 2}]}, "crop_height": {"Points": [{"co": {"Y": -1, "X": 1}, "interpolation": 2}]}, "crop_x": {"Points": [{"co": {"Y": 0, "X": 1}, "interpolation": 2}]}, "start": 0, "scale": 1, "shear_y": {"Points": [{"co": {"Y": 0, "X": 1}, "interpolation": 2}]}, "display": 0, "volume": {"Points": [{"co": {"Y": 1, "X": 1}, "interpolation": 2}]}, "channel_mapping": {"Points": [{"co": {"Y": -1, "X": 1}, "interpolation": 2}]}, "anchor": 0, "duration": 15.0, "perspective_c3_y": {"Points": [{"co": {"Y": -1, "X": 1}, "interpolation": 2}]}, "shear_x": {"Points": [{"co": {"Y": 0, "X": 1}, "interpolation": 2}]}, "perspective_c4_x": {"Points": [{"co": {"Y": -1, "X": 1}, "interpolation": 2}]}, "location_y": {"Points": [{"co": {"Y": 0, "X": 1}, "interpolation": 2}]}, "scale_x": {"Points": [{"co": {"Y": 1, "X": 1}, "interpolation": 2}]}, "layer": 1, "perspective_c2_y": {"Points": [{"co": {"Y": -1, "X": 1}, "interpolation": 2}]}, "perspective_c1_x": {"Points": [{"co": {"Y": -1, "X": 1}, "interpolation": 2}]}, "perspective_c4_y": {"Points": [{"co": {"Y": -1, "X": 1}, "interpolation": 2}]}, "reader": {"audio_bit_rate": 0, "has_single_image": false, "vcodec": "h264", "has_video": true, "type": "FFmpegReader", "video_length": "375", "audio_timebase": {"den": 1, "num": 1}, "path": "/home/robsen/Dropbox/Workdir/Repo/SuesseRache-HH-Taxi/arrow.mp4", "width": 1920, "has_audio": false, "video_bit_rate": 83079, "channel_layout": 4, "height": 1080, "display_ratio": {"den": 9, "num": 16}, "interlaced_frame": false, "duration": 15.0, "sample_rate": 0, "pixel_format": 0, "video_timebase": {"den": 12800, "num": 1}, "file_size": "155774", "top_field_first": true, "pixel_ratio": {"den": 1, "num": 1}, "acodec": "", "audio_stream_index": -1, "video_stream_index": 0, "channels": 0, "fps": {"den": 1, "num": 25}}, "channel_filter": {"Points": [{"co": {"Y": -1, "X": 1}, "interpolation": 2}]}, "file_id": "X22V56NF57", "time": {"Points": [{"co": {"Y": 1, "X": 1}, "interpolation": 2}]}}, "value": {"id": "PJWPMFXKV3", "start": 0, "end": 15, "position": 53.075, "layer": 2, "image": "/home/robsen/.openshot_qt/thumbnail/X22V56NF57.png"}, "key": ["clips", {"id": "PJWPMFXKV3"}], "partial": false, "type": "update"}, {"old_values": {"start": 0, "type": "Mask", "contrast": {"Points": [{"co": {"Y": 3, "X": 1}, "interpolation": 2}]}, "layer": 0, "replace_image": false, "title": "Transition", "end": 2.039999999999999, "reader": {"audio_bit_rate": 0, "has_single_image": true, "vcodec": "", "has_video": true, "type": "QtImageReader", "video_length": "2592000", "audio_timebase": {"den": 1, "num": 1}, "path": "/usr/lib/python3/dist-packages/openshot_qt/transitions/common/fade.svg", "width": 720, "has_audio": false, "video_bit_rate": 0, "channel_layout": 4, "height": 576, "display_ratio": {"den": 4, "num": 5}, "interlaced_frame": false, "duration": 86400, "sample_rate": 0, "pixel_format": -1, "video_timebase": {"den": 30, "num": 1}, "file_size": "1658880", "top_field_first": true, "pixel_ratio": {"den": 1, "num": 1}, "acodec": "", "audio_stream_index": -1, "video_stream_index": -1, "channels": 0, "fps": {"den": 1, "num": 30}}, "brightness": {"Points": [{"handle_right": {"Y": 0, "X": 0.5}, "co": {"Y": 1, "X": 1}, "handle_left": {"Y": 1, "X": 0.5}, "handle_type": 0, "interpolation": 0}, {"handle_right": {"Y": 0, "X": 0.5}, "co": {"Y": -1, "X": 50}, "handle_left": {"Y": 1, "X": 0.5}, "handle_type": 0, "interpolation": 0}]}, "id": "5NBS5H99MA", "position": 21.76}, "value": null, "key": ["effects", {"id": "5NBS5H99MA"}], "partial": false, "type": "delete"}, {"old_values": {"alpha": {"Points": [{"co": {"Y": 1, "X": 1}, "interpolation": 2}]}, "rotation": {"Points": [{"co": {"Y": 0, "X": 1}, "interpolation": 2}]}, "scale_y": {"Points": [{"co": {"Y": 1, "X": 1}, "interpolation": 2}]}, "crop_y": {"Points": [{"co": {"Y": 0, "X": 1}, "interpolation": 2}]}, "perspective_c3_x": {"Points": [{"co": {"Y": -1, "X": 1}, "interpolation": 2}]}, "end": 15, "crop_width": {"Points": [{"co": {"Y": -1, "X": 1}, "interpolation": 2}]}, "position": 8.8, "id": "0AEDFYGQ7J", "wave_color": {"green": {"Points": [{"handle_right": {"Y": 0, "X": 0.5}, "co": {"Y": 123, "X": 1}, "handle_left": {"Y": 1, "X": 0.5}, "handle_type": 0, "interpolation": 0}]}, "blue": {"Points": [{"handle_right": {"Y": 0, "X": 0.5}, "co": {"Y": 255, "X": 1}, "handle_left": {"Y": 1, "X": 0.5}, "handle_type": 0, "interpolation": 0}]}, "alpha": {"Points": [{"handle_right": {"Y": 0, "X": 0.5}, "co": {"Y": 255, "X": 1}, "handle_left": {"Y": 1, "X": 0.5}, "handle_type": 0, "interpolation": 0}]}, "red": {"Points": [{"handle_right": {"Y": 0, "X": 0.5}, "co": {"Y": 0, "X": 1}, "handle_left": {"Y": 1, "X": 0.5}, "handle_type": 0, "interpolation": 0}]}}, "has_video": {"Points": [{"co": {"Y": -1, "X": 1}, "interpolation": 2}]}, "has_audio": {"Points": [{"co": {"Y": -1, "X": 1}, "interpolation": 2}]}, "effects": [], "location_x": {"Points": [{"co": {"Y": 0, "X": 1}, "interpolation": 2}]}, "waveform": false, "title": "taxi_start.mp4", "image": "/home/robsen/.openshot_qt/thumbnail/LGW3TZJV4Q.png", "gravity": 4, "perspective_c2_x": {"Points": [{"co": {"Y": -1, "X": 1}, "interpolation": 2}]}, "perspective_c1_y": {"Points": [{"co": {"Y": -1, "X": 1}, "interpolation": 2}]}, "crop_height": {"Points": [{"co": {"Y": -1, "X": 1}, "interpolation": 2}]}, "crop_x": {"Points": [{"co": {"Y": 0, "X": 1}, "interpolation": 2}]}, "start": 0, "scale": 1, "shear_y": {"Points": [{"co": {"Y": 0, "X": 1}, "interpolation": 2}]}, "display": 0, "volume": {"Points": [{"co": {"Y": 1, "X": 1}, "interpolation": 2}]}, "channel_mapping": {"Points": [{"co": {"Y": -1, "X": 1}, "interpolation": 2}]}, "anchor": 0, "duration": 15.0, "perspective_c3_y": {"Points": [{"co": {"Y": -1, "X": 1}, "interpolation": 2}]}, "shear_x": {"Points": [{"co": {"Y": 0, "X": 1}, "interpolation": 2}]}, "perspective_c4_x": {"Points": [{"co": {"Y": -1, "X": 1}, "interpolation": 2}]}, "location_y": {"Points": [{"co": {"Y": 0, "X": 1}, "interpolation": 2}]}, "scale_x": {"Points": [{"co": {"Y": 1, "X": 1}, "interpolation": 2}]}, "layer": 0, "perspective_c2_y": {"Points": [{"co": {"Y": -1, "X": 1}, "interpolation": 2}]}, "perspective_c1_x": {"Points": [{"co": {"Y": -1, "X": 1}, "interpolation": 2}]}, "perspective_c4_y": {"Points": [{"co": {"Y": -1, "X": 1}, "interpolation": 2}]}, "reader": {"audio_bit_rate": 0, "has_single_image": false, "vcodec": "h264", "has_video": true, "type": "FFmpegReader", "video_length": "375", "audio_timebase": {"den": 1, "num": 1}, "path": "/home/robsen/Dropbox/Workdir/Repo/SuesseRache-HH-Taxi/taxi_start.mp4", "width": 1920, "has_audio": false, "video_bit_rate": 147692, "channel_layout": 4, "height": 1080, "display_ratio": {"den": 9, "num": 16}, "interlaced_frame": false, "duration": 15.0, "sample_rate": 0, "pixel_format": 0, "video_timebase": {"den": 12800, "num": 1}, "file_size": "276924", "top_field_first": true, "pixel_ratio": {"den": 1, "num": 1}, "acodec": "", "audio_stream_index": -1, "video_stream_index": 0, "channels": 0, "fps": {"den": 1, "num": 25}}, "channel_filter": {"Points": [{"co": {"Y": -1, "X": 1}, "interpolation": 2}]}, "file_id": "LGW3TZJV4Q", "time": {"Points": [{"co": {"Y": 1, "X": 1}, "interpolation": 2}]}}, "value": {"alpha": {"Points": [{"co": {"Y": 1, "X": 1}, "interpolation": 2}, {"handle_right": {"Y": 0, "X": 0.5}, "co": {"Y": 1, "X": 289}, "handle_left": {"Y": 1, "X": 0.5}, "handle_type": 0, "interpolation": 0}, {"handle_right": {"Y": 0, "X": 0.5}, "co": {"Y": 0, "X": 361}, "handle_left": {"Y": 1, "X": 0.5}, "handle_type": 0, "interpolation": 0}]}, "rotation": {"Points": [{"co": {"Y": 0, "X": 1}, "interpolation": 2}]}, "scale_y": {"Points": [{"co": {"Y": 1, "X": 1}, "interpolation": 2}]}, "crop_y": {"Points": [{"co": {"Y": 0, "X": 1}, "interpolation": 2}]}, "crop_width": {"Points": [{"co": {"Y": -1, "X": 1}, "interpolation": 2}]}, "end": 15, "perspective_c3_x": {"Points": [{"co": {"Y": -1, "X": 1}, "interpolation": 2}]}, "position": 8.8, "id": "0AEDFYGQ7J", "wave_color": {"green": {"Points": [{"handle_right": {"Y": 0, "X": 0.5}, "co": {"Y": 123, "X": 1}, "handle_left": {"Y": 1, "X": 0.5}, "handle_type": 0, "interpolation": 0}]}, "blue": {"Points": [{"handle_right": {"Y": 0, "X": 0.5}, "co": {"Y": 255, "X": 1}, "handle_left": {"Y": 1, "X": 0.5}, "handle_type": 0, "interpolation": 0}]}, "alpha": {"Points": [{"handle_right": {"Y": 0, "X": 0.5}, "co": {"Y": 255, "X": 1}, "handle_left": {"Y": 1, "X": 0.5}, "handle_type": 0, "interpolation": 0}]}, "red": {"Points": [{"handle_right": {"Y": 0, "X": 0.5}, "co": {"Y": 0, "X": 1}, "handle_left": {"Y": 1, "X": 0.5}, "handle_type": 0, "interpolation": 0}]}}, "has_video": {"Points": [{"co": {"Y": -1, "X": 1}, "interpolation": 2}]}, "has_audio": {"Points": [{"co": {"Y": -1, "X": 1}, "interpolation": 2}]}, "effects": [], "location_x": {"Points": [{"co": {"Y": 0, "X": 1}, "interpolation": 2}]}, "waveform": false, "title": "taxi_start.mp4", "image": "/home/robsen/.openshot_qt/thumbnail/LGW3TZJV4Q.png", "gravity": 4, "scale_x": {"Points": [{"co": {"Y": 1, "X": 1}, "interpolation": 2}]}, "perspective_c1_y": {"Points": [{"co": {"Y": -1, "X": 1}, "interpolation": 2}]}, "crop_height": {"Points": [{"co": {"Y": -1, "X": 1}, "interpolation": 2}]}, "crop_x": {"Points": [{"co": {"Y": 0, "X": 1}, "interpolation": 2}]}, "start": 0, "scale": 1, "shear_y": {"Points": [{"co": {"Y": 0, "X": 1}, "interpolation": 2}]}, "display": 0, "volume": {"Points": [{"co": {"Y": 1, "X": 1}, "interpolation": 2}]}, "channel_mapping": {"Points": [{"co": {"Y": -1, "X": 1}, "interpolation": 2}]}, "anchor": 0, "duration": 15.0, "perspective_c3_y": {"Points": [{"co": {"Y": -1, "X": 1}, "interpolation": 2}]}, "shear_x": {"Points": [{"co": {"Y": 0, "X": 1}, "interpolation": 2}]}, "perspective_c4_x": {"Points": [{"co": {"Y": -1, "X": 1}, "interpolation": 2}]}, "location_y": {"Points": [{"co": {"Y": 0, "X": 1}, "interpolation": 2}]}, "perspective_c2_x": {"Points": [{"co": {"Y": -1, "X": 1}, "interpolation": 2}]}, "layer": 0, "perspective_c2_y": {"Points": [{"co": {"Y": -1, "X": 1}, "interpolation": 2}]}, "perspective_c1_x": {"Points": [{"co": {"Y": -1, "X": 1}, "interpolation": 2}]}, "perspective_c4_y": {"Points": [{"co": {"Y": -1, "X": 1}, "interpolation": 2}]}, "channel_filter": {"Points": [{"co": {"Y": -1, "X": 1}, "interpolation": 2}]}, "time": {"Points": [{"co": {"Y": 1, "X": 1}, "interpolation": 2}]}, "file_id": "LGW3TZJV4Q"}, "key": ["clips", {"id": "0AEDFYGQ7J"}], "partial": false, "type": "update"}, {"old_values": {"alpha": {"Points": [{"co": {"Y": 1, "X": 1}, "interpolation": 2}, {"handle_right": {"Y": 0, "X": 0.5}, "co": {"Y": 1, "X": 289}, "handle_left": {"Y": 1, "X": 0.5}, "handle_type": 0, "interpolation": 0}, {"handle_right": {"Y": 0, "X": 0.5}, "co": {"Y": 0, "X": 361}, "handle_left": {"Y": 1, "X": 0.5}, "handle_type": 0, "interpolation": 0}]}, "rotation": {"Points": [{"co": {"Y": 0, "X": 1}, "interpolation": 2}]}, "scale_y": {"Points": [{"co": {"Y": 1, "X": 1}, "interpolation": 2}]}, "crop_y": {"Points": [{"co": {"Y": 0, "X": 1}, "interpolation": 2}]}, "perspective_c3_x": {"Points": [{"co": {"Y": -1, "X": 1}, "interpolation": 2}]}, "end": 15, "crop_width": {"Points": [{"co": {"Y": -1, "X": 1}, "interpolation": 2}]}, "position": 8.8, "id": "0AEDFYGQ7J", "wave_color": {"green": {"Points": [{"handle_right": {"Y": 0, "X": 0.5}, "co": {"Y": 123, "X": 1}, "handle_left": {"Y": 1, "X": 0.5}, "handle_type": 0, "interpolation": 0}]}, "blue": {"Points": [{"handle_right": {"Y": 0, "X": 0.5}, "co": {"Y": 255, "X": 1}, "handle_left": {"Y": 1, "X": 0.5}, "handle_type": 0, "interpolation": 0}]}, "alpha": {"Points": [{"handle_right": {"Y": 0, "X": 0.5}, "co": {"Y": 255, "X": 1}, "handle_left": {"Y": 1, "X": 0.5}, "handle_type": 0, "interpolation": 0}]}, "red": {"Points": [{"handle_right": {"Y": 0, "X": 0.5}, "co": {"Y": 0, "X": 1}, "handle_left": {"Y": 1, "X": 0.5}, "handle_type": 0, "interpolation": 0}]}}, "has_video": {"Points": [{"co": {"Y": -1, "X": 1}, "interpolation": 2}]}, "has_audio": {"Points": [{"co": {"Y": -1, "X": 1}, "interpolation": 2}]}, "effects": [], "location_x": {"Points": [{"co": {"Y": 0, "X": 1}, "interpolation": 2}]}, "waveform": false, "title": "taxi_start.mp4", "image": "/home/robsen/.openshot_qt/thumbnail/LGW3TZJV4Q.png", "gravity": 4, "perspective_c2_x": {"Points": [{"co": {"Y": -1, "X": 1}, "interpolation": 2}]}, "perspective_c1_y": {"Points": [{"co": {"Y": -1, "X": 1}, "interpolation": 2}]}, "crop_height": {"Points": [{"co": {"Y": -1, "X": 1}, "interpolation": 2}]}, "crop_x": {"Points": [{"co": {"Y": 0, "X": 1}, "interpolation": 2}]}, "start": 0, "scale": 1, "shear_y": {"Points": [{"co": {"Y": 0, "X": 1}, "interpolation": 2}]}, "display": 0, "volume": {"Points": [{"co": {"Y": 1, "X": 1}, "interpolation": 2}]}, "channel_mapping": {"Points": [{"co": {"Y": -1, "X": 1}, "interpolation": 2}]}, "anchor": 0, "duration": 15.0, "perspective_c3_y": {"Points": [{"co": {"Y": -1, "X": 1}, "interpolation": 2}]}, "shear_x": {"Points": [{"co": {"Y": 0, "X": 1}, "interpolation": 2}]}, "perspective_c4_x": {"Points": [{"co": {"Y": -1, "X": 1}, "interpolation": 2}]}, "location_y": {"Points": [{"co": {"Y": 0, "X": 1}, "interpolation": 2}]}, "scale_x": {"Points": [{"co": {"Y": 1, "X": 1}, "interpolation": 2}]}, "layer": 0, "perspective_c2_y": {"Points": [{"co": {"Y": -1, "X": 1}, "interpolation": 2}]}, "perspective_c1_x": {"Points": [{"co": {"Y": -1, "X": 1}, "interpolation": 2}]}, "perspective_c4_y": {"Points": [{"co": {"Y": -1, "X": 1}, "interpolation": 2}]}, "reader": {"audio_bit_rate": 0, "has_single_image": false, "vcodec": "h264", "has_video": true, "type": "FFmpegReader", "video_length": "375", "audio_timebase": {"den": 1, "num": 1}, "path": "/home/robsen/Dropbox/Workdir/Repo/SuesseRache-HH-Taxi/taxi_start.mp4", "width": 1920, "has_audio": false, "video_bit_rate": 147692, "channel_layout": 4, "height": 1080, "display_ratio": {"den": 9, "num": 16}, "interlaced_frame": false, "duration": 15.0, "sample_rate": 0, "pixel_format": 0, "video_timebase": {"den": 12800, "num": 1}, "file_size": "276924", "top_field_first": true, "pixel_ratio": {"den": 1, "num": 1}, "acodec": "", "audio_stream_index": -1, "video_stream_index": 0, "channels": 0, "fps": {"den": 1, "num": 25}}, "channel_filter": {"Points": [{"co": {"Y": -1, "X": 1}, "interpolation": 2}]}, "file_id": "LGW3TZJV4Q", "time": {"Points": [{"co": {"Y": 1, "X": 1}, "interpolation": 2}]}}, "value": {"alpha": {"Points": [{"co": {"Y": 1, "X": 1}, "interpolation": 2}, {"handle_right": {"Y": 0, "X": 0.5}, "co": {"Y": 1, "X": 289}, "handle_left": {"Y": 1, "X": 0.5}, "handle_type": 0, "interpolation": 0}, {"handle_right": {"Y": 0, "X": 0.5}, "co": {"Y": 0, "X": 361}, "handle_left": {"Y": 1, "X": 0.5}, "handle_type": 0, "interpolation": 0}, {"handle_right": {"Y": 0, "X": 0.5}, "co": {"Y": 0, "X": 1}, "handle_left": {"Y": 1, "X": 0.5}, "handle_type": 0, "interpolation": 0}, {"handle_right": {"Y": 0, "X": 0.5}, "co": {"Y": 1, "X": 73}, "handle_left": {"Y": 1, "X": 0.5}, "handle_type": 0, "interpolation": 0}]}, "rotation": {"Points": [{"co": {"Y": 0, "X": 1}, "interpolation": 2}]}, "scale_y": {"Points": [{"co": {"Y": 1, "X": 1}, "interpolation": 2}]}, "crop_y": {"Points": [{"co": {"Y": 0, "X": 1}, "interpolation": 2}]}, "crop_width": {"Points": [{"co": {"Y": -1, "X": 1}, "interpolation": 2}]}, "end": 15, "perspective_c3_x": {"Points": [{"co": {"Y": -1, "X": 1}, "interpolation": 2}]}, "position": 8.8, "id": "0AEDFYGQ7J", "wave_color": {"green": {"Points": [{"handle_right": {"Y": 0, "X": 0.5}, "co": {"Y": 123, "X": 1}, "handle_left": {"Y": 1, "X": 0.5}, "handle_type": 0, "interpolation": 0}]}, "blue": {"Points": [{"handle_right": {"Y": 0, "X": 0.5}, "co": {"Y": 255, "X": 1}, "handle_left": {"Y": 1, "X": 0.5}, "handle_type": 0, "interpolation": 0}]}, "alpha": {"Points": [{"handle_right": {"Y": 0, "X": 0.5}, "co": {"Y": 255, "X": 1}, "handle_left": {"Y": 1, "X": 0.5}, "handle_type": 0, "interpolation": 0}]}, "red": {"Points": [{"handle_right": {"Y": 0, "X": 0.5}, "co": {"Y": 0, "X": 1}, "handle_left": {"Y": 1, "X": 0.5}, "handle_type": 0, "interpolation": 0}]}}, "has_video": {"Points": [{"co": {"Y": -1, "X": 1}, "interpolation": 2}]}, "has_audio": {"Points": [{"co": {"Y": -1, "X": 1}, "interpolation": 2}]}, "effects": [], "location_x": {"Points": [{"co": {"Y": 0, "X": 1}, "interpolation": 2}]}, "waveform": false, "title": "taxi_start.mp4", "image": "/home/robsen/.openshot_qt/thumbnail/LGW3TZJV4Q.png", "gravity": 4, "scale_x": {"Points": [{"co": {"Y": 1, "X": 1}, "interpolation": 2}]}, "perspective_c1_y": {"Points": [{"co": {"Y": -1, "X": 1}, "interpolation": 2}]}, "crop_height": {"Points": [{"co": {"Y": -1, "X": 1}, "interpolation": 2}]}, "crop_x": {"Points": [{"co": {"Y": 0, "X": 1}, "interpolation": 2}]}, "start": 0, "scale": 1, "shear_y": {"Points": [{"co": {"Y": 0, "X": 1}, "interpolation": 2}]}, "display": 0, "volume": {"Points": [{"co": {"Y": 1, "X": 1}, "interpolation": 2}]}, "channel_mapping": {"Points": [{"co": {"Y": -1, "X": 1}, "interpolation": 2}]}, "anchor": 0, "duration": 15.0, "perspective_c3_y": {"Points": [{"co": {"Y": -1, "X": 1}, "interpolation": 2}]}, "shear_x": {"Points": [{"co": {"Y": 0, "X": 1}, "interpolation": 2}]}, "perspective_c4_x": {"Points": [{"co": {"Y": -1, "X": 1}, "interpolation": 2}]}, "location_y": {"Points": [{"co": {"Y": 0, "X": 1}, "interpolation": 2}]}, "perspective_c2_x": {"Points": [{"co": {"Y": -1, "X": 1}, "interpolation": 2}]}, "layer": 0, "perspective_c2_y": {"Points": [{"co": {"Y": -1, "X": 1}, "interpolation": 2}]}, "perspective_c1_x": {"Points": [{"co": {"Y": -1, "X": 1}, "interpolation": 2}]}, "perspective_c4_y": {"Points": [{"co": {"Y": -1, "X": 1}, "interpolation": 2}]}, "channel_filter": {"Points": [{"co": {"Y": -1, "X": 1}, "interpolation": 2}]}, "time": {"Points": [{"co": {"Y": 1, "X": 1}, "interpolation": 2}]}, "file_id": "LGW3TZJV4Q"}, "key": ["clips", {"id": "0AEDFYGQ7J"}], "partial": false, "type": "update"}, {"old_values": {"alpha": {"Points": [{"co": {"Y": 1, "X": 1}, "interpolation": 2}]}, "rotation": {"Points": [{"co": {"Y": 0, "X": 1}, "interpolation": 2}]}, "scale_y": {"Points": [{"co": {"Y": 1, "X": 1}, "interpolation": 2}]}, "crop_y": {"Points": [{"co": {"Y": 0, "X": 1}, "interpolation": 2}]}, "perspective_c3_x": {"Points": [{"co": {"Y": -1, "X": 1}, "interpolation": 2}]}, "end": 15, "crop_width": {"Points": [{"co": {"Y": -1, "X": 1}, "interpolation": 2}]}, "position": 53.075, "id": "PJWPMFXKV3", "wave_color": {"green": {"Points": [{"handle_right": {"Y": 0, "X": 0.5}, "co": {"Y": 123, "X": 1}, "handle_left": {"Y": 1, "X": 0.5}, "handle_type": 0, "interpolation": 0}]}, "blue": {"Points": [{"handle_right": {"Y": 0, "X": 0.5}, "co": {"Y": 255, "X": 1}, "handle_left": {"Y": 1, "X": 0.5}, "handle_type": 0, "interpolation": 0}]}, "alpha": {"Points": [{"handle_right": {"Y": 0, "X": 0.5}, "co": {"Y": 255, "X": 1}, "handle_left": {"Y": 1, "X": 0.5}, "handle_type": 0, "interpolation": 0}]}, "red": {"Points": [{"handle_right": {"Y": 0, "X": 0.5}, "co": {"Y": 0, "X": 1}, "handle_left": {"Y": 1, "X": 0.5}, "handle_type": 0, "interpolation": 0}]}}, "has_video": {"Points": [{"co": {"Y": -1, "X": 1}, "interpolation": 2}]}, "has_audio": {"Points": [{"co": {"Y": -1, "X": 1}, "interpolation": 2}]}, "effects": [], "location_x": {"Points": [{"co": {"Y": 0, "X": 1}, "interpolation": 2}]}, "waveform": false, "title": "arrow.mp4", "image": "/home/robsen/.openshot_qt/thumbnail/X22V56NF57.png", "gravity": 4, "perspective_c2_x": {"Points": [{"co": {"Y": -1, "X": 1}, "interpolation": 2}]}, "perspective_c1_y": {"Points": [{"co": {"Y": -1, "X": 1}, "interpolation": 2}]}, "crop_height": {"Points": [{"co": {"Y": -1, "X": 1}, "interpolation": 2}]}, "crop_x": {"Points": [{"co": {"Y": 0, "X": 1}, "interpolation": 2}]}, "start": 0, "scale": 1, "shear_y": {"Points": [{"co": {"Y": 0, "X": 1}, "interpolation": 2}]}, "display": 0, "volume": {"Points": [{"co": {"Y": 1, "X": 1}, "interpolation": 2}]}, "channel_mapping": {"Points": [{"co": {"Y": -1, "X": 1}, "interpolation": 2}]}, "anchor": 0, "duration": 15.0, "perspective_c3_y": {"Points": [{"co": {"Y": -1, "X": 1}, "interpolation": 2}]}, "shear_x": {"Points": [{"co": {"Y": 0, "X": 1}, "interpolation": 2}]}, "perspective_c4_x": {"Points": [{"co": {"Y": -1, "X": 1}, "interpolation": 2}]}, "location_y": {"Points": [{"co": {"Y": 0, "X": 1}, "interpolation": 2}]}, "scale_x": {"Points": [{"co": {"Y": 1, "X": 1}, "interpolation": 2}]}, "layer": 2, "perspective_c2_y": {"Points": [{"co": {"Y": -1, "X": 1}, "interpolation": 2}]}, "perspective_c1_x": {"Points": [{"co": {"Y": -1, "X": 1}, "interpolation": 2}]}, "perspective_c4_y": {"Points": [{"co": {"Y": -1, "X": 1}, "interpolation": 2}]}, "reader": {"audio_bit_rate": 0, "has_single_image": false, "vcodec": "h264", "has_video": true, "type": "FFmpegReader", "video_length": "375", "audio_timebase": {"den": 1, "num": 1}, "path": "/home/robsen/Dropbox/Workdir/Repo/SuesseRache-HH-Taxi/arrow.mp4", "width": 1920, "has_audio": false, "video_bit_rate": 83079, "channel_layout": 4, "height": 1080, "display_ratio": {"den": 9, "num": 16}, "interlaced_frame": false, "duration": 15.0, "sample_rate": 0, "pixel_format": 0, "video_timebase": {"den": 12800, "num": 1}, "file_size": "155774", "top_field_first": true, "pixel_ratio": {"den": 1, "num": 1}, "acodec": "", "audio_stream_index": -1, "video_stream_index": 0, "channels": 0, "fps": {"den": 1, "num": 25}}, "channel_filter": {"Points": [{"co": {"Y": -1, "X": 1}, "interpolation": 2}]}, "file_id": "X22V56NF57", "time": {"Points": [{"co": {"Y": 1, "X": 1}, "interpolation": 2}]}}, "value": {"alpha": {"Points": [{"co": {"Y": 1, "X": 1}, "interpolation": 2}, {"handle_right": {"Y": 0, "X": 0.5}, "co": {"Y": 0, "X": 1}, "handle_left": {"Y": 1, "X": 0.5}, "handle_type": 0, "interpolation": 0}, {"handle_right": {"Y": 0, "X": 0.5}, "co": {"Y": 1, "X": 73}, "handle_left": {"Y": 1, "X": 0.5}, "handle_type": 0, "interpolation": 0}]}, "rotation": {"Points": [{"co": {"Y": 0, "X": 1}, "interpolation": 2}]}, "scale_y": {"Points": [{"co": {"Y": 1, "X": 1}, "interpolation": 2}]}, "crop_y": {"Points": [{"co": {"Y": 0, "X": 1}, "interpolation": 2}]}, "crop_width": {"Points": [{"co": {"Y": -1, "X": 1}, "interpolation": 2}]}, "end": 15, "perspective_c3_x": {"Points": [{"co": {"Y": -1, "X": 1}, "interpolation": 2}]}, "position": 53.075, "id": "PJWPMFXKV3", "wave_color": {"green": {"Points": [{"handle_right": {"Y": 0, "X": 0.5}, "co": {"Y": 123, "X": 1}, "handle_left": {"Y": 1, "X": 0.5}, "handle_type": 0, "interpolation": 0}]}, "blue": {"Points": [{"handle_right": {"Y": 0, "X": 0.5}, "co": {"Y": 255, "X": 1}, "handle_left": {"Y": 1, "X": 0.5}, "handle_type": 0, "interpolation": 0}]}, "alpha": {"Points": [{"handle_right": {"Y": 0, "X": 0.5}, "co": {"Y": 255, "X": 1}, "handle_left": {"Y": 1, "X": 0.5}, "handle_type": 0, "interpolation": 0}]}, "red": {"Points": [{"handle_right": {"Y": 0, "X": 0.5}, "co": {"Y": 0, "X": 1}, "handle_left": {"Y": 1, "X": 0.5}, "handle_type": 0, "interpolation": 0}]}}, "has_video": {"Points": [{"co": {"Y": -1, "X": 1}, "interpolation": 2}]}, "has_audio": {"Points": [{"co": {"Y": -1, "X": 1}, "interpolation": 2}]}, "effects": [], "location_x": {"Points": [{"co": {"Y": 0, "X": 1}, "interpolation": 2}]}, "waveform": false, "title": "arrow.mp4", "image": "/home/robsen/.openshot_qt/thumbnail/X22V56NF57.png", "gravity": 4, "scale_x": {"Points": [{"co": {"Y": 1, "X": 1}, "interpolation": 2}]}, "perspective_c1_y": {"Points": [{"co": {"Y": -1, "X": 1}, "interpolation": 2}]}, "crop_height": {"Points": [{"co": {"Y": -1, "X": 1}, "interpolation": 2}]}, "crop_x": {"Points": [{"co": {"Y": 0, "X": 1}, "interpolation": 2}]}, "start": 0, "scale": 1, "shear_y": {"Points": [{"co": {"Y": 0, "X": 1}, "interpolation": 2}]}, "display": 0, "volume": {"Points": [{"co": {"Y": 1, "X": 1}, "interpolation": 2}]}, "channel_mapping": {"Points": [{"co": {"Y": -1, "X": 1}, "interpolation": 2}]}, "anchor": 0, "duration": 15.0, "perspective_c3_y": {"Points": [{"co": {"Y": -1, "X": 1}, "interpolation": 2}]}, "shear_x": {"Points": [{"co": {"Y": 0, "X": 1}, "interpolation": 2}]}, "perspective_c4_x": {"Points": [{"co": {"Y": -1, "X": 1}, "interpolation": 2}]}, "location_y": {"Points": [{"co": {"Y": 0, "X": 1}, "interpolation": 2}]}, "perspective_c2_x": {"Points": [{"co": {"Y": -1, "X": 1}, "interpolation": 2}]}, "layer": 2, "perspective_c2_y": {"Points": [{"co": {"Y": -1, "X": 1}, "interpolation": 2}]}, "perspective_c1_x": {"Points": [{"co": {"Y": -1, "X": 1}, "interpolation": 2}]}, "perspective_c4_y": {"Points": [{"co": {"Y": -1, "X": 1}, "interpolation": 2}]}, "channel_filter": {"Points": [{"co": {"Y": -1, "X": 1}, "interpolation": 2}]}, "time": {"Points": [{"co": {"Y": 1, "X": 1}, "interpolation": 2}]}, "file_id": "X22V56NF57"}, "key": ["clips", {"id": "PJWPMFXKV3"}], "partial": false, "type": "update"}]}, "key": ["history"], "partial": false, "type": "update"}, {"old_values": null, "value": {"redo": [], "undo": [{"old_values": [{"number": 0, "label": "Spur 1", "id": "UBOPYJIV1S", "y": 0}, {"number": 1, "label": "Spur 2", "id": "SHY16ICR2M", "y": 0}], "value": {"number": 2, "y": 0, "label": "", "id": "E44ZNJSI3Z", "lock": false}, "key": ["layers"], "partial": false, "type": "insert"}, {"old_values": [], "value": {"audio_bit_rate": 0, "has_single_image": false, "media_type": "video", "id": "LGW3TZJV4Q", "type": "FFmpegReader", "has_video": true, "video_length": "375", "audio_timebase": {"den": 1, "num": 1}, "path": "/home/robsen/Dropbox/Workdir/Repo/SuesseRache-HH-Taxi/taxi_start.mp4", "width": 1920, "has_audio": false, "video_bit_rate": 147692, "channel_layout": 4, "height": 1080, "vcodec": "h264", "display_ratio": {"den": 9, "num": 16}, "interlaced_frame": false, "duration": 15, "sample_rate": 0, "pixel_format": 0, "video_timebase": {"den": 12800, "num": 1}, "file_size": "276924", "top_field_first": true, "pixel_ratio": {"den": 1, "num": 1}, "acodec": "", "audio_stream_index": -1, "video_stream_index": 0, "channels": 0, "fps": {"den": 1, "num": 25}}, "key": ["files"], "partial": false, "type": "insert"}, {"old_values": [{"audio_bit_rate": 0, "has_single_image": false, "media_type": "video", "id": "LGW3TZJV4Q", "type": "FFmpegReader", "has_video": true, "video_length": "375", "audio_timebase": {"den": 1, "num": 1}, "path": "/home/robsen/Dropbox/Workdir/Repo/SuesseRache-HH-Taxi/taxi_start.mp4", "width": 1920, "has_audio": false, "video_bit_rate": 147692, "channel_layout": 4, "height": 1080, "vcodec": "h264", "display_ratio": {"den": 9, "num": 16}, "interlaced_frame": false, "duration": 15, "sample_rate": 0, "pixel_format": 0, "video_timebase": {"den": 12800, "num": 1}, "file_size": "276924", "top_field_first": true, "pixel_ratio": {"den": 1, "num": 1}, "acodec": "", "audio_stream_index": -1, "video_stream_index": 0, "channels": 0, "fps": {"den": 1, "num": 25}}], "value": {"audio_bit_rate": 189375, "has_single_image": false, "media_type": "video", "id": "Z3LOYBY1PL", "type": "FFmpegReader", "has_video": true, "video_length": "937", "audio_timebase": {"den": 48000, "num": 1}, "path": "/home/robsen/Dropbox/Workdir/Repo/SuesseRache-HH-Taxi/TE_SR_Taxi.mp4", "width": 1920, "has_audio": true, "video_bit_rate": 32091692, "channel_layout": 3, "height": 1080, "vcodec": "h264", "display_ratio": {"den": 9, "num": 16}, "interlaced_frame": false, "duration": 31.317333221435547, "sample_rate": 48000, "pixel_format": 0, "video_timebase": {"den": 29970, "num": 1}, "file_size": "125628279", "top_field_first": true, "pixel_ratio": {"den": 1, "num": 1}, "acodec": "aac", "audio_stream_index": 1, "video_stream_index": 0, "channels": 2, "fps": {"den": 100, "num": 2997}}, "key": ["files"], "partial": false, "type": "insert"}, {"old_values": [{"audio_bit_rate": 0, "has_single_image": false, "media_type": "video", "id": "LGW3TZJV4Q", "type": "FFmpegReader", "has_video": true, "video_length": "375", "audio_timebase": {"den": 1, "num": 1}, "path": "/home/robsen/Dropbox/Workdir/Repo/SuesseRache-HH-Taxi/taxi_start.mp4", "width": 1920, "has_audio": false, "video_bit_rate": 147692, "channel_layout": 4, "height": 1080, "vcodec": "h264", "display_ratio": {"den": 9, "num": 16}, "interlaced_frame": false, "duration": 15, "sample_rate": 0, "pixel_format": 0, "video_timebase": {"den": 12800, "num": 1}, "file_size": "276924", "top_field_first": true, "pixel_ratio": {"den": 1, "num": 1}, "acodec": "", "audio_stream_index": -1, "video_stream_index": 0, "channels": 0, "fps": {"den": 1, "num": 25}}, {"audio_bit_rate": 189375, "has_single_image": false, "media_type": "video", "id": "Z3LOYBY1PL", "type": "FFmpegReader", "has_video": true, "video_length": "937", "audio_timebase": {"den": 48000, "num": 1}, "path": "/home/robsen/Dropbox/Workdir/Repo/SuesseRache-HH-Taxi/TE_SR_Taxi.mp4", "width": 1920, "has_audio": true, "video_bit_rate": 32091692, "channel_layout": 3, "height": 1080, "vcodec": "h264", "display_ratio": {"den": 9, "num": 16}, "interlaced_frame": false, "duration": 31.317333221435547, "sample_rate": 48000, "pixel_format": 0, "video_timebase": {"den": 29970, "num": 1}, "file_size": "125628279", "top_field_first": true, "pixel_ratio": {"den": 1, "num": 1}, "acodec": "aac", "audio_stream_index": 1, "video_stream_index": 0, "channels": 2, "fps": {"den": 100, "num": 2997}}], "value": {"audio_bit_rate": 0, "has_single_image": false, "media_type": "video", "id": "X22V56NF57", "type": "FFmpegReader", "has_video": true, "video_length": "375", "audio_timebase": {"den": 1, "num": 1}, "path": "/home/robsen/Dropbox/Workdir/Repo/SuesseRache-HH-Taxi/arrow.mp4", "width": 1920, "has_audio": false, "video_bit_rate": 83079, "channel_layout": 4, "height": 1080, "vcodec": "h264", "display_ratio": {"den": 9, "num": 16}, "interlaced_frame": false, "duration": 15, "sample_rate": 0, "pixel_format": 0, "video_timebase": {"den": 12800, "num": 1}, "file_size": "155774", "top_field_first": true, "pixel_ratio": {"den": 1, "num": 1}, "acodec": "", "audio_stream_index": -1, "video_stream_index": 0, "channels": 0, "fps": {"den": 1, "num": 25}}, "key": ["files"], "partial": false, "type": "insert"}, {"old_values": [], "value": {"alpha": {"Points": [{"co": {"Y": 1, "X": 1}, "interpolation": 2}, {"handle_right": {"Y": 0, "X": 0.5}, "co": {"Y": 1, "X": 289}, "handle_left": {"Y": 1, "X": 0.5}, "handle_type": 0, "interpolation": 0}, {"handle_right": {"Y": 0, "X": 0.5}, "co": {"Y": 0, "X": 361}, "handle_left": {"Y": 1, "X": 0.5}, "handle_type": 0, "interpolation": 0}, {"handle_right": {"Y": 0, "X": 0.5}, "co": {"Y": 0, "X": 1}, "handle_left": {"Y": 1, "X": 0.5}, "handle_type": 0, "interpolation": 0}, {"handle_right": {"Y": 0, "X": 0.5}, "co": {"Y": 1, "X": 73}, "handle_left": {"Y": 1, "X": 0.5}, "handle_type": 0, "interpolation": 0}]}, "rotation": {"Points": [{"co": {"Y": 0, "X": 1}, "interpolation": 2}]}, "scale_y": {"Points": [{"co": {"Y": 1, "X": 1}, "interpolation": 2}]}, "crop_y": {"Points": [{"co": {"Y": 0, "X": 1}, "interpolation": 2}]}, "perspective_c3_x": {"Points": [{"co": {"Y": -1, "X": 1}, "interpolation": 2}]}, "end": 15, "crop_width": {"Points": [{"co": {"Y": -1, "X": 1}, "interpolation": 2}]}, "position": 8.8, "id": "0AEDFYGQ7J", "wave_color": {"green": {"Points": [{"handle_right": {"Y": 0, "X": 0.5}, "co": {"Y": 123, "X": 1}, "handle_left": {"Y": 1, "X": 0.5}, "handle_type": 0, "interpolation": 0}]}, "blue": {"Points": [{"handle_right": {"Y": 0, "X": 0.5}, "co": {"Y": 255, "X": 1}, "handle_left": {"Y": 1, "X": 0.5}, "handle_type": 0, "interpolation": 0}]}, "alpha": {"Points": [{"handle_right": {"Y": 0, "X": 0.5}, "co": {"Y": 255, "X": 1}, "handle_left": {"Y": 1, "X": 0.5}, "handle_type": 0, "interpolation": 0}]}, "red": {"Points": [{"handle_right": {"Y": 0, "X": 0.5}, "co": {"Y": 0, "X": 1}, "handle_left": {"Y": 1, "X": 0.5}, "handle_type": 0, "interpolation": 0}]}}, "has_video": {"Points": [{"co": {"Y": -1, "X": 1}, "interpolation": 2}]}, "has_audio": {"Points": [{"co": {"Y": -1, "X": 1}, "interpolation": 2}]}, "effects": [], "location_x": {"Points": [{"co": {"Y": 0, "X": 1}, "interpolation": 2}]}, "waveform": false, "title": "taxi_start.mp4", "image": "/home/robsen/.openshot_qt/thumbnail/LGW3TZJV4Q.png", "gravity": 4, "scale_x": {"Points": [{"co": {"Y": 1, "X": 1}, "interpolation": 2}]}, "perspective_c1_y": {"Points": [{"co": {"Y": -1, "X": 1}, "interpolation": 2}]}, "crop_height": {"Points": [{"co": {"Y": -1, "X": 1}, "interpolation": 2}]}, "crop_x": {"Points": [{"co": {"Y": 0, "X": 1}, "interpolation": 2}]}, "start": 0, "scale": 1, "shear_y": {"Points": [{"co": {"Y": 0, "X": 1}, "interpolation": 2}]}, "display": 0, "volume": {"Points": [{"co": {"Y": 1, "X": 1}, "interpolation": 2}]}, "channel_mapping": {"Points": [{"co": {"Y": -1, "X": 1}, "interpolation": 2}]}, "anchor": 0, "duration": 15.0, "perspective_c3_y": {"Points": [{"co": {"Y": -1, "X": 1}, "interpolation": 2}]}, "shear_x": {"Points": [{"co": {"Y": 0, "X": 1}, "interpolation": 2}]}, "perspective_c4_x": {"Points": [{"co": {"Y": -1, "X": 1}, "interpolation": 2}]}, "location_y": {"Points": [{"co": {"Y": 0, "X": 1}, "interpolation": 2}]}, "perspective_c2_x": {"Points": [{"co": {"Y": -1, "X": 1}, "interpolation": 2}]}, "layer": 0, "perspective_c2_y": {"Points": [{"co": {"Y": -1, "X": 1}, "interpolation": 2}]}, "perspective_c1_x": {"Points": [{"co": {"Y": -1, "X": 1}, "interpolation": 2}]}, "perspective_c4_y": {"Points": [{"co": {"Y": -1, "X": 1}, "interpolation": 2}]}, "reader": {"audio_bit_rate": 0, "has_single_image": false, "has_video": true, "type": "FFmpegReader", "video_length": "375", "audio_timebase": {"den": 1, "num": 1}, "path": "/home/robsen/Dropbox/Workdir/Repo/SuesseRache-HH-Taxi/taxi_start.mp4", "width": 1920, "has_audio": false, "video_bit_rate": 147692, "channel_layout": 4, "height": 1080, "display_ratio": {"den": 9, "num": 16}, "interlaced_frame": false, "video_timebase": {"den": 12800, "num": 1}, "duration": 15.0, "sample_rate": 0, "pixel_format": 0, "fps": {"den": 1, "num": 25}, "file_size": "276924", "top_field_first": true, "pixel_ratio": {"den": 1, "num": 1}, "acodec": "", "audio_stream_index": -1, "video_stream_index": 0, "channels": 0, "vcodec": "h264"}, "channel_filter": {"Points": [{"co": {"Y": -1, "X": 1}, "interpolation": 2}]}, "file_id": "LGW3TZJV4Q", "time": {"Points": [{"co": {"Y": 1, "X": 1}, "interpolation": 2}]}}, "key": ["clips"], "partial": false, "type": "insert"}, {"old_values": null, "value": {"id": "0AEDFYGQ7J", "start": 0, "end": 15, "position": 8.8, "layer": 0, "image": "/home/robsen/.openshot_qt/thumbnail/LGW3TZJV4Q.png"}, "key": ["clips", {"id": "0AEDFYGQ7J"}], "partial": false, "type": "update"}, {"old_values": null, "value": {"id": "0AEDFYGQ7J", "start": 0, "end": 15, "position": 8.8, "layer": 0, "image": "/home/robsen/.openshot_qt/thumbnail/LGW3TZJV4Q.png"}, "key": ["clips", {"id": "0AEDFYGQ7J"}], "partial": false, "type": "update"}, {"old_values": [{"alpha": {"Points": [{"co": {"Y": 1, "X": 1}, "interpolation": 2}]}, "rotation": {"Points": [{"co": {"Y": 0, "X": 1}, "interpolation": 2}]}, "scale_y": {"Points": [{"co": {"Y": 1, "X": 1}, "interpolation": 2}]}, "crop_y": {"Points": [{"co": {"Y": 0, "X": 1}, "interpolation": 2}]}, "perspective_c3_x": {"Points": [{"co": {"Y": -1, "X": 1}, "interpolation": 2}]}, "end": 15, "crop_width": {"Points": [{"co": {"Y": -1, "X": 1}, "interpolation": 2}]}, "position": 8.8, "id": "0AEDFYGQ7J", "wave_color": {"green": {"Points": [{"handle_right": {"Y": 0, "X": 0.5}, "co": {"Y": 123, "X": 1}, "handle_left": {"Y": 1, "X": 0.5}, "handle_type": 0, "interpolation": 0}]}, "blue": {"Points": [{"handle_right": {"Y": 0, "X": 0.5}, "co": {"Y": 255, "X": 1}, "handle_left": {"Y": 1, "X": 0.5}, "handle_type": 0, "interpolation": 0}]}, "alpha": {"Points": [{"handle_right": {"Y": 0, "X": 0.5}, "co": {"Y": 255, "X": 1}, "handle_left": {"Y": 1, "X": 0.5}, "handle_type": 0, "interpolation": 0}]}, "red": {"Points": [{"handle_right": {"Y": 0, "X": 0.5}, "co": {"Y": 0, "X": 1}, "handle_left": {"Y": 1, "X": 0.5}, "handle_type": 0, "interpolation": 0}]}}, "has_video": {"Points": [{"co": {"Y": -1, "X": 1}, "interpolation": 2}]}, "has_audio": {"Points": [{"co": {"Y": -1, "X": 1}, "interpolation": 2}]}, "effects": [], "location_x": {"Points": [{"co": {"Y": 0, "X": 1}, "interpolation": 2}]}, "waveform": false, "title": "taxi_start.mp4", "image": "/home/robsen/.openshot_qt/thumbnail/LGW3TZJV4Q.png", "gravity": 4, "perspective_c2_x": {"Points": [{"co": {"Y": -1, "X": 1}, "interpolation": 2}]}, "perspective_c1_y": {"Points": [{"co": {"Y": -1, "X": 1}, "interpolation": 2}]}, "crop_height": {"Points": [{"co": {"Y": -1, "X": 1}, "interpolation": 2}]}, "crop_x": {"Points": [{"co": {"Y": 0, "X": 1}, "interpolation": 2}]}, "start": 0, "scale": 1, "shear_y": {"Points": [{"co": {"Y": 0, "X": 1}, "interpolation": 2}]}, "display": 0, "volume": {"Points": [{"co": {"Y": 1, "X": 1}, "interpolation": 2}]}, "channel_mapping": {"Points": [{"co": {"Y": -1, "X": 1}, "interpolation": 2}]}, "anchor": 0, "duration": 15.0, "perspective_c3_y": {"Points": [{"co": {"Y": -1, "X": 1}, "interpolation": 2}]}, "shear_x": {"Points": [{"co": {"Y": 0, "X": 1}, "interpolation": 2}]}, "perspective_c4_x": {"Points": [{"co": {"Y": -1, "X": 1}, "interpolation": 2}]}, "location_y": {"Points": [{"co": {"Y": 0, "X": 1}, "interpolation": 2}]}, "scale_x": {"Points": [{"co": {"Y": 1, "X": 1}, "interpolation": 2}]}, "layer": 0, "perspective_c2_y": {"Points": [{"co": {"Y": -1, "X": 1}, "interpolation": 2}]}, "perspective_c1_x": {"Points": [{"co": {"Y": -1, "X": 1}, "interpolation": 2}]}, "perspective_c4_y": {"Points": [{"co": {"Y": -1, "X": 1}, "interpolation": 2}]}, "reader": {"audio_bit_rate": 0, "has_single_image": false, "vcodec": "h264", "has_video": true, "type": "FFmpegReader", "video_length": "375", "audio_timebase": {"den": 1, "num": 1}, "path": "/home/robsen/Dropbox/Workdir/Repo/SuesseRache-HH-Taxi/taxi_start.mp4", "width": 1920, "has_audio": false, "video_bit_rate": 147692, "channel_layout": 4, "height": 1080, "display_ratio": {"den": 9, "num": 16}, "interlaced_frame": false, "duration": 15.0, "sample_rate": 0, "pixel_format": 0, "video_timebase": {"den": 12800, "num": 1}, "file_size": "276924", "top_field_first": true, "pixel_ratio": {"den": 1, "num": 1}, "acodec": "", "audio_stream_index": -1, "video_stream_index": 0, "channels": 0, "fps": {"den": 1, "num": 25}}, "channel_filter": {"Points": [{"co": {"Y": -1, "X": 1}, "interpolation": 2}]}, "file_id": "LGW3TZJV4Q", "time": {"Points": [{"co": {"Y": 1, "X": 1}, "interpolation": 2}]}}], "value": {"alpha": {"Points": [{"co": {"Y": 1, "X": 1}, "interpolation": 2}]}, "rotation": {"Points": [{"co": {"Y": 0, "X": 1}, "interpolation": 2}]}, "scale_y": {"Points": [{"co": {"Y": 1, "X": 1}, "interpolation": 2}]}, "crop_y": {"Points": [{"co": {"Y": 0, "X": 1}, "interpolation": 2}]}, "perspective_c3_x": {"Points": [{"co": {"Y": -1, "X": 1}, "interpolation": 2}]}, "end": 31.317333221435547, "crop_width": {"Points": [{"co": {"Y": -1, "X": 1}, "interpolation": 2}]}, "position": 21.76, "id": "627XQDJ3EP", "wave_color": {"green": {"Points": [{"handle_right": {"Y": 0, "X": 0.5}, "co": {"Y": 123, "X": 1}, "handle_left": {"Y": 1, "X": 0.5}, "handle_type": 0, "interpolation": 0}]}, "blue": {"Points": [{"handle_right": {"Y": 0, "X": 0.5}, "co": {"Y": 255, "X": 1}, "handle_left": {"Y": 1, "X": 0.5}, "handle_type": 0, "interpolation": 0}]}, "alpha": {"Points": [{"handle_right": {"Y": 0, "X": 0.5}, "co": {"Y": 255, "X": 1}, "handle_left": {"Y": 1, "X": 0.5}, "handle_type": 0, "interpolation": 0}]}, "red": {"Points": [{"handle_right": {"Y": 0, "X": 0.5}, "co": {"Y": 0, "X": 1}, "handle_left": {"Y": 1, "X": 0.5}, "handle_type": 0, "interpolation": 0}]}}, "has_video": {"Points": [{"co": {"Y": -1, "X": 1}, "interpolation": 2}]}, "has_audio": {"Points": [{"co": {"Y": -1, "X": 1}, "interpolation": 2}]}, "effects": [], "location_x": {"Points": [{"co": {"Y": 0, "X": 1}, "interpolation": 2}]}, "waveform": false, "title": "TE_SR_Taxi.mp4", "image": "/home/robsen/.openshot_qt/thumbnail/Z3LOYBY1PL.png", "gravity": 4, "scale_x": {"Points": [{"co": {"Y": 1, "X": 1}, "interpolation": 2}]}, "perspective_c1_y": {"Points": [{"co": {"Y": -1, "X": 1}, "interpolation": 2}]}, "crop_height": {"Points": [{"co": {"Y": -1, "X": 1}, "interpolation": 2}]}, "crop_x": {"Points": [{"co": {"Y": 0, "X": 1}, "interpolation": 2}]}, "start": 0, "scale": 1, "shear_y": {"Points": [{"co": {"Y": 0, "X": 1}, "interpolation": 2}]}, "display": 0, "volume": {"Points": [{"co": {"Y": 1, "X": 1}, "interpolation": 2}]}, "channel_mapping": {"Points": [{"co": {"Y": -1, "X": 1}, "interpolation": 2}]}, "anchor": 0, "duration": 31.317333221435547, "perspective_c3_y": {"Points": [{"co": {"Y": -1, "X": 1}, "interpolation": 2}]}, "shear_x": {"Points": [{"co": {"Y": 0, "X": 1}, "interpolation": 2}]}, "perspective_c4_x": {"Points": [{"co": {"Y": -1, "X": 1}, "interpolation": 2}]}, "location_y": {"Points": [{"co": {"Y": 0, "X": 1}, "interpolation": 2}]}, "perspective_c2_x": {"Points": [{"co": {"Y": -1, "X": 1}, "interpolation": 2}]}, "layer": 1, "perspective_c2_y": {"Points": [{"co": {"Y": -1, "X": 1}, "interpolation": 2}]}, "perspective_c1_x": {"Points": [{"co": {"Y": -1, "X": 1}, "interpolation": 2}]}, "perspective_c4_y": {"Points": [{"co": {"Y": -1, "X": 1}, "interpolation": 2}]}, "reader": {"audio_bit_rate": 189375, "has_single_image": false, "has_video": true, "type": "FFmpegReader", "video_length": "937", "audio_timebase": {"den": 48000, "num": 1}, "path": "/home/robsen/Dropbox/Workdir/Repo/SuesseRache-HH-Taxi/TE_SR_Taxi.mp4", "width": 1920, "has_audio": true, "video_bit_rate": 32091692, "channel_layout": 3, "height": 1080, "display_ratio": {"den": 9, "num": 16}, "interlaced_frame": false, "video_timebase": {"den": 29970, "num": 1}, "duration": 31.317333221435547, "sample_rate": 48000, "pixel_format": 0, "fps": {"den": 100, "num": 2997}, "file_size": "125628279", "top_field_first": true, "pixel_ratio": {"den": 1, "num": 1}, "acodec": "aac", "audio_stream_index": 1, "video_stream_index": 0, "channels": 2, "vcodec": "h264"}, "channel_filter": {"Points": [{"co": {"Y": -1, "X": 1}, "interpolation": 2}]}, "file_id": "Z3LOYBY1PL", "time": {"Points": [{"co": {"Y": 1, "X": 1}, "interpolation": 2}]}}, "key": ["clips"], "partial": false, "type": "insert"}, {"old_values": {"alpha": {"Points": [{"co": {"Y": 1, "X": 1}, "interpolation": 2}]}, "rotation": {"Points": [{"co": {"Y": 0, "X": 1}, "interpolation": 2}]}, "scale_y": {"Points": [{"co": {"Y": 1, "X": 1}, "interpolation": 2}]}, "crop_y": {"Points": [{"co": {"Y": 0, "X": 1}, "interpolation": 2}]}, "perspective_c3_x": {"Points": [{"co": {"Y": -1, "X": 1}, "interpolation": 2}]}, "end": 31.317333221435547, "crop_width": {"Points": [{"co": {"Y": -1, "X": 1}, "interpolation": 2}]}, "position": 18.88, "id": "627XQDJ3EP", "wave_color": {"green": {"Points": [{"handle_right": {"Y": 0, "X": 0.5}, "co": {"Y": 123, "X": 1}, "handle_left": {"Y": 1, "X": 0.5}, "handle_type": 0, "interpolation": 0}]}, "blue": {"Points": [{"handle_right": {"Y": 0, "X": 0.5}, "co": {"Y": 255, "X": 1}, "handle_left": {"Y": 1, "X": 0.5}, "handle_type": 0, "interpolation": 0}]}, "alpha": {"Points": [{"handle_right": {"Y": 0, "X": 0.5}, "co": {"Y": 255, "X": 1}, "handle_left": {"Y": 1, "X": 0.5}, "handle_type": 0, "interpolation": 0}]}, "red": {"Points": [{"handle_right": {"Y": 0, "X": 0.5}, "co": {"Y": 0, "X": 1}, "handle_left": {"Y": 1, "X": 0.5}, "handle_type": 0, "interpolation": 0}]}}, "has_video": {"Points": [{"co": {"Y": -1, "X": 1}, "interpolation": 2}]}, "has_audio": {"Points": [{"co": {"Y": -1, "X": 1}, "interpolation": 2}]}, "effects": [], "location_x": {"Points": [{"co": {"Y": 0, "X": 1}, "interpolation": 2}]}, "waveform": false, "title": "TE_SR_Taxi.mp4", "image": "/home/robsen/.openshot_qt/thumbnail/Z3LOYBY1PL.png", "gravity": 4, "scale_x": {"Points": [{"co": {"Y": 1, "X": 1}, "interpolation": 2}]}, "perspective_c1_y": {"Points": [{"co": {"Y": -1, "X": 1}, "interpolation": 2}]}, "crop_height": {"Points": [{"co": {"Y": -1, "X": 1}, "interpolation": 2}]}, "crop_x": {"Points": [{"co": {"Y": 0, "X": 1}, "interpolation": 2}]}, "start": 0, "scale": 1, "shear_y": {"Points": [{"co": {"Y": 0, "X": 1}, "interpolation": 2}]}, "display": 0, "volume": {"Points": [{"co": {"Y": 1, "X": 1}, "interpolation": 2}]}, "channel_mapping": {"Points": [{"co": {"Y": -1, "X": 1}, "interpolation": 2}]}, "anchor": 0, "duration": 31.317333221435547, "perspective_c3_y": {"Points": [{"co": {"Y": -1, "X": 1}, "interpolation": 2}]}, "shear_x": {"Points": [{"co": {"Y": 0, "X": 1}, "interpolation": 2}]}, "perspective_c4_x": {"Points": [{"co": {"Y": -1, "X": 1}, "interpolation": 2}]}, "location_y": {"Points": [{"co": {"Y": 0, "X": 1}, "interpolation": 2}]}, "perspective_c2_x": {"Points": [{"co": {"Y": -1, "X": 1}, "interpolation": 2}]}, "layer": 2, "perspective_c2_y": {"Points": [{"co": {"Y": -1, "X": 1}, "interpolation": 2}]}, "perspective_c1_x": {"Points": [{"co": {"Y": -1, "X": 1}, "interpolation": 2}]}, "perspective_c4_y": {"Points": [{"co": {"Y": -1, "X": 1}, "interpolation": 2}]}, "reader": {"audio_bit_rate": 189375, "has_single_image": false, "vcodec": "h264", "has_video": true, "type": "FFmpegReader", "video_length": "937", "audio_timebase": {"den": 48000, "num": 1}, "path": "/home/robsen/Dropbox/Workdir/Repo/SuesseRache-HH-Taxi/TE_SR_Taxi.mp4", "width": 1920, "has_audio": true, "video_bit_rate": 32091692, "channel_layout": 3, "height": 1080, "display_ratio": {"den": 9, "num": 16}, "interlaced_frame": false, "duration": 31.317333221435547, "sample_rate": 48000, "pixel_format": 0, "video_timebase": {"den": 29970, "num": 1}, "file_size": "125628279", "top_field_first": true, "pixel_ratio": {"den": 1, "num": 1}, "acodec": "aac", "audio_stream_index": 1, "video_stream_index": 0, "channels": 2, "fps": {"den": 100, "num": 2997}}, "channel_filter": {"Points": [{"co": {"Y": -1, "X": 1}, "interpolation": 2}]}, "file_id": "Z3LOYBY1PL", "time": {"Points": [{"co": {"Y": 1, "X": 1}, "interpolation": 2}]}}, "value": {"id": "627XQDJ3EP", "start": 0, "end": 31.317333221435547, "position": 21.76, "layer": 0, "image": "/home/robsen/.openshot_qt/thumbnail/Z3LOYBY1PL.png"}, "key": ["clips", {"id": "627XQDJ3EP"}], "partial": false, "type": "update"}, {"old_values": [], "value": {"start": 0, "type": "Mask", "contrast": {"Points": [{"co": {"Y": 3, "X": 1}, "interpolation": 2}]}, "layer": 0, "replace_image": false, "title": "Transition", "end": 2.039999999999999, "reader": {"audio_bit_rate": 0, "has_single_image": true, "has_video": true, "type": "QtImageReader", "video_length": "2592000", "audio_timebase": {"den": 1, "num": 1}, "path": "/usr/lib/python3/dist-packages/openshot_qt/transitions/common/fade.svg", "width": 720, "has_audio": false, "video_bit_rate": 0, "channel_layout": 4, "height": 576, "display_ratio": {"den": 4, "num": 5}, "interlaced_frame": false, "video_timebase": {"den": 30, "num": 1}, "duration": 86400, "sample_rate": 0, "pixel_format": -1, "fps": {"den": 1, "num": 30}, "file_size": "1658880", "top_field_first": true, "pixel_ratio": {"den": 1, "num": 1}, "acodec": "", "audio_stream_index": -1, "video_stream_index": -1, "channels": 0, "vcodec": ""}, "brightness": {"Points": [{"handle_right": {"Y": 0, "X": 0.5}, "co": {"Y": 1, "X": 1}, "handle_left": {"Y": 1, "X": 0.5}, "handle_type": 0, "interpolation": 0}, {"handle_right": {"Y": 0, "X": 0.5}, "co": {"Y": -1, "X": 50}, "handle_left": {"Y": 1, "X": 0.5}, "handle_type": 0, "interpolation": 0}]}, "id": "5NBS5H99MA", "position": 21.76}, "key": ["effects"], "partial": false, "type": "insert"}, {"old_values": {"alpha": {"Points": [{"co": {"Y": 1, "X": 1}, "interpolation": 2}]}, "rotation": {"Points": [{"co": {"Y": 0, "X": 1}, "interpolation": 2}]}, "scale_y": {"Points": [{"co": {"Y": 1, "X": 1}, "interpolation": 2}]}, "crop_y": {"Points": [{"co": {"Y": 0, "X": 1}, "interpolation": 2}]}, "perspective_c3_x": {"Points": [{"co": {"Y": -1, "X": 1}, "interpolation": 2}]}, "end": 31.317333221435547, "crop_width": {"Points": [{"co": {"Y": -1, "X": 1}, "interpolation": 2}]}, "position": 21.76, "id": "627XQDJ3EP", "wave_color": {"green": {"Points": [{"handle_right": {"Y": 0, "X": 0.5}, "co": {"Y": 123, "X": 1}, "handle_left": {"Y": 1, "X": 0.5}, "handle_type": 0, "interpolation": 0}]}, "blue": {"Points": [{"handle_right": {"Y": 0, "X": 0.5}, "co": {"Y": 255, "X": 1}, "handle_left": {"Y": 1, "X": 0.5}, "handle_type": 0, "interpolation": 0}]}, "alpha": {"Points": [{"handle_right": {"Y": 0, "X": 0.5}, "co": {"Y": 255, "X": 1}, "handle_left": {"Y": 1, "X": 0.5}, "handle_type": 0, "interpolation": 0}]}, "red": {"Points": [{"handle_right": {"Y": 0, "X": 0.5}, "co": {"Y": 0, "X": 1}, "handle_left": {"Y": 1, "X": 0.5}, "handle_type": 0, "interpolation": 0}]}}, "has_video": {"Points": [{"co": {"Y": -1, "X": 1}, "interpolation": 2}]}, "has_audio": {"Points": [{"co": {"Y": -1, "X": 1}, "interpolation": 2}]}, "effects": [], "location_x": {"Points": [{"co": {"Y": 0, "X": 1}, "interpolation": 2}]}, "waveform": false, "title": "TE_SR_Taxi.mp4", "image": "/home/robsen/.openshot_qt/thumbnail/Z3LOYBY1PL.png", "gravity": 4, "perspective_c2_x": {"Points": [{"co": {"Y": -1, "X": 1}, "interpolation": 2}]}, "perspective_c1_y": {"Points": [{"co": {"Y": -1, "X": 1}, "interpolation": 2}]}, "crop_height": {"Points": [{"co": {"Y": -1, "X": 1}, "interpolation": 2}]}, "crop_x": {"Points": [{"co": {"Y": 0, "X": 1}, "interpolation": 2}]}, "start": 0, "scale": 1, "shear_y": {"Points": [{"co": {"Y": 0, "X": 1}, "interpolation": 2}]}, "display": 0, "volume": {"Points": [{"co": {"Y": 1, "X": 1}, "interpolation": 2}]}, "channel_mapping": {"Points": [{"co": {"Y": -1, "X": 1}, "interpolation": 2}]}, "anchor": 0, "duration": 31.317333221435547, "perspective_c3_y": {"Points": [{"co": {"Y": -1, "X": 1}, "interpolation": 2}]}, "shear_x": {"Points": [{"co": {"Y": 0, "X": 1}, "interpolation": 2}]}, "perspective_c4_x": {"Points": [{"co": {"Y": -1, "X": 1}, "interpolation": 2}]}, "location_y": {"Points": [{"co": {"Y": 0, "X": 1}, "interpolation": 2}]}, "scale_x": {"Points": [{"co": {"Y": 1, "X": 1}, "interpolation": 2}]}, "layer": 0, "perspective_c2_y": {"Points": [{"co": {"Y": -1, "X": 1}, "interpolation": 2}]}, "perspective_c1_x": {"Points": [{"co": {"Y": -1, "X": 1}, "interpolation": 2}]}, "perspective_c4_y": {"Points": [{"co": {"Y": -1, "X": 1}, "interpolation": 2}]}, "reader": {"audio_bit_rate": 189375, "has_single_image": false, "vcodec": "h264", "has_video": true, "type": "FFmpegReader", "video_length": "937", "audio_timebase": {"den": 48000, "num": 1}, "path": "/home/robsen/Dropbox/Workdir/Repo/SuesseRache-HH-Taxi/TE_SR_Taxi.mp4", "width": 1920, "has_audio": true, "video_bit_rate": 32091692, "channel_layout": 3, "height": 1080, "display_ratio": {"den": 9, "num": 16}, "interlaced_frame": false, "duration": 31.317333221435547, "sample_rate": 48000, "pixel_format": 0, "video_timebase": {"den": 29970, "num": 1}, "file_size": "125628279", "top_field_first": true, "pixel_ratio": {"den": 1, "num": 1}, "acodec": "aac", "audio_stream_index": 1, "video_stream_index": 0, "channels": 2, "fps": {"den": 100, "num": 2997}}, "channel_filter": {"Points": [{"co": {"Y": -1, "X": 1}, "interpolation": 2}]}, "file_id": "Z3LOYBY1PL", "time": {"Points": [{"co": {"Y": 1, "X": 1}, "interpolation": 2}]}}, "value": {"id": "627XQDJ3EP", "start": 0, "end": 31.317333221435547, "position": 21.76, "layer": 1, "image": "/home/robsen/.openshot_qt/thumbnail/Z3LOYBY1PL.png"}, "key": ["clips", {"id": "627XQDJ3EP"}], "partial": false, "type": "update"}, {"old_values": [{"alpha": {"Points": [{"co": {"Y": 1, "X": 1}, "interpolation": 2}]}, "rotation": {"Points": [{"co": {"Y": 0, "X": 1}, "interpolation": 2}]}, "scale_y": {"Points": [{"co": {"Y": 1, "X": 1}, "interpolation": 2}]}, "crop_y": {"Points": [{"co": {"Y": 0, "X": 1}, "interpolation": 2}]}, "perspective_c3_x": {"Points": [{"co": {"Y": -1, "X": 1}, "interpolation": 2}]}, "end": 15, "crop_width": {"Points": [{"co": {"Y": -1, "X": 1}, "interpolation": 2}]}, "position": 8.8, "id": "0AEDFYGQ7J", "wave_color": {"green": {"Points": [{"handle_right": {"Y": 0, "X": 0.5}, "co": {"Y": 123, "X": 1}, "handle_left": {"Y": 1, "X": 0.5}, "handle_type": 0, "interpolation": 0}]}, "blue": {"Points": [{"handle_right": {"Y": 0, "X": 0.5}, "co": {"Y": 255, "X": 1}, "handle_left": {"Y": 1, "X": 0.5}, "handle_type": 0, "interpolation": 0}]}, "alpha": {"Points": [{"handle_right": {"Y": 0, "X": 0.5}, "co": {"Y": 255, "X": 1}, "handle_left": {"Y": 1, "X": 0.5}, "handle_type": 0, "interpolation": 0}]}, "red": {"Points": [{"handle_right": {"Y": 0, "X": 0.5}, "co": {"Y": 0, "X": 1}, "handle_left": {"Y": 1, "X": 0.5}, "handle_type": 0, "interpolation": 0}]}}, "has_video": {"Points": [{"co": {"Y": -1, "X": 1}, "interpolation": 2}]}, "has_audio": {"Points": [{"co": {"Y": -1, "X": 1}, "interpolation": 2}]}, "effects": [], "location_x": {"Points": [{"co": {"Y": 0, "X": 1}, "interpolation": 2}]}, "waveform": false, "title": "taxi_start.mp4", "image": "/home/robsen/.openshot_qt/thumbnail/LGW3TZJV4Q.png", "gravity": 4, "perspective_c2_x": {"Points": [{"co": {"Y": -1, "X": 1}, "interpolation": 2}]}, "perspective_c1_y": {"Points": [{"co": {"Y": -1, "X": 1}, "interpolation": 2}]}, "crop_height": {"Points": [{"co": {"Y": -1, "X": 1}, "interpolation": 2}]}, "crop_x": {"Points": [{"co": {"Y": 0, "X": 1}, "interpolation": 2}]}, "start": 0, "scale": 1, "shear_y": {"Points": [{"co": {"Y": 0, "X": 1}, "interpolation": 2}]}, "display": 0, "volume": {"Points": [{"co": {"Y": 1, "X": 1}, "interpolation": 2}]}, "channel_mapping": {"Points": [{"co": {"Y": -1, "X": 1}, "interpolation": 2}]}, "anchor": 0, "duration": 15.0, "perspective_c3_y": {"Points": [{"co": {"Y": -1, "X": 1}, "interpolation": 2}]}, "shear_x": {"Points": [{"co": {"Y": 0, "X": 1}, "interpolation": 2}]}, "perspective_c4_x": {"Points": [{"co": {"Y": -1, "X": 1}, "interpolation": 2}]}, "location_y": {"Points": [{"co": {"Y": 0, "X": 1}, "interpolation": 2}]}, "scale_x": {"Points": [{"co": {"Y": 1, "X": 1}, "interpolation": 2}]}, "layer": 0, "perspective_c2_y": {"Points": [{"co": {"Y": -1, "X": 1}, "interpolation": 2}]}, "perspective_c1_x": {"Points": [{"co": {"Y": -1, "X": 1}, "interpolation": 2}]}, "perspective_c4_y": {"Points": [{"co": {"Y": -1, "X": 1}, "interpolation": 2}]}, "reader": {"audio_bit_rate": 0, "has_single_image": false, "vcodec": "h264", "has_video": true, "type": "FFmpegReader", "video_length": "375", "audio_timebase": {"den": 1, "num": 1}, "path": "/home/robsen/Dropbox/Workdir/Repo/SuesseRache-HH-Taxi/taxi_start.mp4", "width": 1920, "has_audio": false, "video_bit_rate": 147692, "channel_layout": 4, "height": 1080, "display_ratio": {"den": 9, "num": 16}, "interlaced_frame": false, "duration": 15.0, "sample_rate": 0, "pixel_format": 0, "video_timebase": {"den": 12800, "num": 1}, "file_size": "276924", "top_field_first": true, "pixel_ratio": {"den": 1, "num": 1}, "acodec": "", "audio_stream_index": -1, "video_stream_index": 0, "channels": 0, "fps": {"den": 1, "num": 25}}, "channel_filter": {"Points": [{"co": {"Y": -1, "X": 1}, "interpolation": 2}]}, "file_id": "LGW3TZJV4Q", "time": {"Points": [{"co": {"Y": 1, "X": 1}, "interpolation": 2}]}}, {"alpha": {"Points": [{"co": {"Y": 1, "X": 1}, "interpolation": 2}]}, "rotation": {"Points": [{"co": {"Y": 0, "X": 1}, "interpolation": 2}]}, "scale_y": {"Points": [{"co": {"Y": 1, "X": 1}, "interpolation": 2}]}, "crop_y": {"Points": [{"co": {"Y": 0, "X": 1}, "interpolation": 2}]}, "perspective_c3_x": {"Points": [{"co": {"Y": -1, "X": 1}, "interpolation": 2}]}, "end": 31.317333221435547, "crop_width": {"Points": [{"co": {"Y": -1, "X": 1}, "interpolation": 2}]}, "position": 21.76, "id": "627XQDJ3EP", "wave_color": {"green": {"Points": [{"handle_right": {"Y": 0, "X": 0.5}, "co": {"Y": 123, "X": 1}, "handle_left": {"Y": 1, "X": 0.5}, "handle_type": 0, "interpolation": 0}]}, "blue": {"Points": [{"handle_right": {"Y": 0, "X": 0.5}, "co": {"Y": 255, "X": 1}, "handle_left": {"Y": 1, "X": 0.5}, "handle_type": 0, "interpolation": 0}]}, "alpha": {"Points": [{"handle_right": {"Y": 0, "X": 0.5}, "co": {"Y": 255, "X": 1}, "handle_left": {"Y": 1, "X": 0.5}, "handle_type": 0, "interpolation": 0}]}, "red": {"Points": [{"handle_right": {"Y": 0, "X": 0.5}, "co": {"Y": 0, "X": 1}, "handle_left": {"Y": 1, "X": 0.5}, "handle_type": 0, "interpolation": 0}]}}, "has_video": {"Points": [{"co": {"Y": -1, "X": 1}, "interpolation": 2}]}, "has_audio": {"Points": [{"co": {"Y": -1, "X": 1}, "interpolation": 2}]}, "effects": [], "location_x": {"Points": [{"co": {"Y": 0, "X": 1}, "interpolation": 2}]}, "waveform": false, "title": "TE_SR_Taxi.mp4", "image": "/home/robsen/.openshot_qt/thumbnail/Z3LOYBY1PL.png", "gravity": 4, "perspective_c2_x": {"Points": [{"co": {"Y": -1, "X": 1}, "interpolation": 2}]}, "perspective_c1_y": {"Points": [{"co": {"Y": -1, "X": 1}, "interpolation": 2}]}, "crop_height": {"Points": [{"co": {"Y": -1, "X": 1}, "interpolation": 2}]}, "crop_x": {"Points": [{"co": {"Y": 0, "X": 1}, "interpolation": 2}]}, "start": 0, "scale": 1, "shear_y": {"Points": [{"co": {"Y": 0, "X": 1}, "interpolation": 2}]}, "display": 0, "volume": {"Points": [{"co": {"Y": 1, "X": 1}, "interpolation": 2}]}, "channel_mapping": {"Points": [{"co": {"Y": -1, "X": 1}, "interpolation": 2}]}, "anchor": 0, "duration": 31.317333221435547, "perspective_c3_y": {"Points": [{"co": {"Y": -1, "X": 1}, "interpolation": 2}]}, "shear_x": {"Points": [{"co": {"Y": 0, "X": 1}, "interpolation": 2}]}, "perspective_c4_x": {"Points": [{"co": {"Y": -1, "X": 1}, "interpolation": 2}]}, "location_y": {"Points": [{"co": {"Y": 0, "X": 1}, "interpolation": 2}]}, "scale_x": {"Points": [{"co": {"Y": 1, "X": 1}, "interpolation": 2}]}, "layer": 1, "perspective_c2_y": {"Points": [{"co": {"Y": -1, "X": 1}, "interpolation": 2}]}, "perspective_c1_x": {"Points": [{"co": {"Y": -1, "X": 1}, "interpolation": 2}]}, "perspective_c4_y": {"Points": [{"co": {"Y": -1, "X": 1}, "interpolation": 2}]}, "reader": {"audio_bit_rate": 189375, "has_single_image": false, "vcodec": "h264", "has_video": true, "type": "FFmpegReader", "video_length": "937", "audio_timebase": {"den": 48000, "num": 1}, "path": "/home/robsen/Dropbox/Workdir/Repo/SuesseRache-HH-Taxi/TE_SR_Taxi.mp4", "width": 1920, "has_audio": true, "video_bit_rate": 32091692, "channel_layout": 3, "height": 1080, "display_ratio": {"den": 9, "num": 16}, "interlaced_frame": false, "duration": 31.317333221435547, "sample_rate": 48000, "pixel_format": 0, "video_timebase": {"den": 29970, "num": 1}, "file_size": "125628279", "top_field_first": true, "pixel_ratio": {"den": 1, "num": 1}, "acodec": "aac", "audio_stream_index": 1, "video_stream_index": 0, "channels": 2, "fps": {"den": 100, "num": 2997}}, "channel_filter": {"Points": [{"co": {"Y": -1, "X": 1}, "interpolation": 2}]}, "file_id": "Z3LOYBY1PL", "time": {"Points": [{"co": {"Y": 1, "X": 1}, "interpolation": 2}]}}], "value": {"alpha": {"Points": [{"co": {"Y": 1, "X": 1}, "interpolation": 2}, {"handle_right": {"Y": 0, "X": 0.5}, "co": {"Y": 0, "X": 1}, "handle_left": {"Y": 1, "X": 0.5}, "handle_type": 0, "interpolation": 0}, {"handle_right": {"Y": 0, "X": 0.5}, "co": {"Y": 1, "X": 73}, "handle_left": {"Y": 1, "X": 0.5}, "handle_type": 0, "interpolation": 0}]}, "rotation": {"Points": [{"co": {"Y": 0, "X": 1}, "interpolation": 2}]}, "scale_y": {"Points": [{"co": {"Y": 1, "X": 1}, "interpolation": 2}]}, "crop_y": {"Points": [{"co": {"Y": 0, "X": 1}, "interpolation": 2}]}, "perspective_c3_x": {"Points": [{"co": {"Y": -1, "X": 1}, "interpolation": 2}]}, "end": 15, "crop_width": {"Points": [{"co": {"Y": -1, "X": 1}, "interpolation": 2}]}, "position": 53.075, "id": "PJWPMFXKV3", "wave_color": {"green": {"Points": [{"handle_right": {"Y": 0, "X": 0.5}, "co": {"Y": 123, "X": 1}, "handle_left": {"Y": 1, "X": 0.5}, "handle_type": 0, "interpolation": 0}]}, "blue": {"Points": [{"handle_right": {"Y": 0, "X": 0.5}, "co": {"Y": 255, "X": 1}, "handle_left": {"Y": 1, "X": 0.5}, "handle_type": 0, "interpolation": 0}]}, "alpha": {"Points": [{"handle_right": {"Y": 0, "X": 0.5}, "co": {"Y": 255, "X": 1}, "handle_left": {"Y": 1, "X": 0.5}, "handle_type": 0, "interpolation": 0}]}, "red": {"Points": [{"handle_right": {"Y": 0, "X": 0.5}, "co": {"Y": 0, "X": 1}, "handle_left": {"Y": 1, "X": 0.5}, "handle_type": 0, "interpolation": 0}]}}, "has_video": {"Points": [{"co": {"Y": -1, "X": 1}, "interpolation": 2}]}, "has_audio": {"Points": [{"co": {"Y": -1, "X": 1}, "interpolation": 2}]}, "effects": [], "location_x": {"Points": [{"co": {"Y": 0, "X": 1}, "interpolation": 2}]}, "waveform": false, "title": "arrow.mp4", "image": "/home/robsen/.openshot_qt/thumbnail/X22V56NF57.png", "gravity": 4, "scale_x": {"Points": [{"co": {"Y": 1, "X": 1}, "interpolation": 2}]}, "perspective_c1_y": {"Points": [{"co": {"Y": -1, "X": 1}, "interpolation": 2}]}, "crop_height": {"Points": [{"co": {"Y": -1, "X": 1}, "interpolation": 2}]}, "crop_x": {"Points": [{"co": {"Y": 0, "X": 1}, "interpolation": 2}]}, "start": 0, "scale": 1, "shear_y": {"Points": [{"co": {"Y": 0, "X": 1}, "interpolation": 2}]}, "display": 0, "volume": {"Points": [{"co": {"Y": 1, "X": 1}, "interpolation": 2}]}, "channel_mapping": {"Points": [{"co": {"Y": -1, "X": 1}, "interpolation": 2}]}, "anchor": 0, "duration": 15.0, "perspective_c3_y": {"Points": [{"co": {"Y": -1, "X": 1}, "interpolation": 2}]}, "shear_x": {"Points": [{"co": {"Y": 0, "X": 1}, "interpolation": 2}]}, "perspective_c4_x": {"Points": [{"co": {"Y": -1, "X": 1}, "interpolation": 2}]}, "location_y": {"Points": [{"co": {"Y": 0, "X": 1}, "interpolation": 2}]}, "perspective_c2_x": {"Points": [{"co": {"Y": -1, "X": 1}, "interpolation": 2}]}, "layer": 2, "perspective_c2_y": {"Points": [{"co": {"Y": -1, "X": 1}, "interpolation": 2}]}, "perspective_c1_x": {"Points": [{"co": {"Y": -1, "X": 1}, "interpolation": 2}]}, "perspective_c4_y": {"Points": [{"co": {"Y": -1, "X": 1}, "interpolation": 2}]}, "reader": {"audio_bit_rate": 0, "has_single_image": false, "has_video": true, "type": "FFmpegReader", "video_length": "375", "audio_timebase": {"den": 1, "num": 1}, "path": "/home/robsen/Dropbox/Workdir/Repo/SuesseRache-HH-Taxi/arrow.mp4", "width": 1920, "has_audio": false, "video_bit_rate": 83079, "channel_layout": 4, "height": 1080, "display_ratio": {"den": 9, "num": 16}, "interlaced_frame": false, "video_timebase": {"den": 12800, "num": 1}, "duration": 15.0, "sample_rate": 0, "pixel_format": 0, "fps": {"den": 1, "num": 25}, "file_size": "155774", "top_field_first": true, "pixel_ratio": {"den": 1, "num": 1}, "acodec": "", "audio_stream_index": -1, "video_stream_index": 0, "channels": 0, "vcodec": "h264"}, "channel_filter": {"Points": [{"co": {"Y": -1, "X": 1}, "interpolation": 2}]}, "file_id": "X22V56NF57", "time": {"Points": [{"co": {"Y": 1, "X": 1}, "interpolation": 2}]}}, "key": ["clips"], "partial": false, "type": "insert"}, {"old_values": {"alpha": {"Points": [{"co": {"Y": 1, "X": 1}, "interpolation": 2}]}, "rotation": {"Points": [{"co": {"Y": 0, "X": 1}, "interpolation": 2}]}, "scale_y": {"Points": [{"co": {"Y": 1, "X": 1}, "interpolation": 2}]}, "crop_y": {"Points": [{"co": {"Y": 0, "X": 1}, "interpolation": 2}]}, "perspective_c3_x": {"Points": [{"co": {"Y": -1, "X": 1}, "interpolation": 2}]}, "end": 15.0, "crop_width": {"Points": [{"co": {"Y": -1, "X": 1}, "interpolation": 2}]}, "position": 62.88, "id": "PJWPMFXKV3", "wave_color": {"green": {"Points": [{"handle_right": {"Y": 0, "X": 0.5}, "co": {"Y": 123, "X": 1}, "handle_left": {"Y": 1, "X": 0.5}, "handle_type": 0, "interpolation": 0}]}, "blue": {"Points": [{"handle_right": {"Y": 0, "X": 0.5}, "co": {"Y": 255, "X": 1}, "handle_left": {"Y": 1, "X": 0.5}, "handle_type": 0, "interpolation": 0}]}, "alpha": {"Points": [{"handle_right": {"Y": 0, "X": 0.5}, "co": {"Y": 255, "X": 1}, "handle_left": {"Y": 1, "X": 0.5}, "handle_type": 0, "interpolation": 0}]}, "red": {"Points": [{"handle_right": {"Y": 0, "X": 0.5}, "co": {"Y": 0, "X": 1}, "handle_left": {"Y": 1, "X": 0.5}, "handle_type": 0, "interpolation": 0}]}}, "has_video": {"Points": [{"co": {"Y": -1, "X": 1}, "interpolation": 2}]}, "has_audio": {"Points": [{"co": {"Y": -1, "X": 1}, "interpolation": 2}]}, "effects": [], "location_x": {"Points": [{"co": {"Y": 0, "X": 1}, "interpolation": 2}]}, "waveform": false, "title": "arrow.mp4", "image": "/home/robsen/.openshot_qt/thumbnail/X22V56NF57.png", "gravity": 4, "scale_x": {"Points": [{"co": {"Y": 1, "X": 1}, "interpolation": 2}]}, "perspective_c1_y": {"Points": [{"co": {"Y": -1, "X": 1}, "interpolation": 2}]}, "crop_height": {"Points": [{"co": {"Y": -1, "X": 1}, "interpolation": 2}]}, "crop_x": {"Points": [{"co": {"Y": 0, "X": 1}, "interpolation": 2}]}, "start": 0, "scale": 1, "shear_y": {"Points": [{"co": {"Y": 0, "X": 1}, "interpolation": 2}]}, "display": 0, "volume": {"Points": [{"co": {"Y": 1, "X": 1}, "interpolation": 2}]}, "channel_mapping": {"Points": [{"co": {"Y": -1, "X": 1}, "interpolation": 2}]}, "anchor": 0, "duration": 15.0, "perspective_c3_y": {"Points": [{"co": {"Y": -1, "X": 1}, "interpolation": 2}]}, "shear_x": {"Points": [{"co": {"Y": 0, "X": 1}, "interpolation": 2}]}, "perspective_c4_x": {"Points": [{"co": {"Y": -1, "X": 1}, "interpolation": 2}]}, "location_y": {"Points": [{"co": {"Y": 0, "X": 1}, "interpolation": 2}]}, "perspective_c2_x": {"Points": [{"co": {"Y": -1, "X": 1}, "interpolation": 2}]}, "layer": 2, "perspective_c2_y": {"Points": [{"co": {"Y": -1, "X": 1}, "interpolation": 2}]}, "perspective_c1_x": {"Points": [{"co": {"Y": -1, "X": 1}, "interpolation": 2}]}, "perspective_c4_y": {"Points": [{"co": {"Y": -1, "X": 1}, "interpolation": 2}]}, "reader": {"audio_bit_rate": 0, "has_single_image": false, "vcodec": "h264", "has_video": true, "type": "FFmpegReader", "video_length": "375", "audio_timebase": {"den": 1, "num": 1}, "path": "/home/robsen/Dropbox/Workdir/Repo/SuesseRache-HH-Taxi/arrow.mp4", "width": 1920, "has_audio": false, "video_bit_rate": 83079, "channel_layout": 4, "height": 1080, "display_ratio": {"den": 9, "num": 16}, "interlaced_frame": false, "duration": 15.0, "sample_rate": 0, "pixel_format": 0, "video_timebase": {"den": 12800, "num": 1}, "file_size": "155774", "top_field_first": true, "pixel_ratio": {"den": 1, "num": 1}, "acodec": "", "audio_stream_index": -1, "video_stream_index": 0, "channels": 0, "fps": {"den": 1, "num": 25}}, "channel_filter": {"Points": [{"co": {"Y": -1, "X": 1}, "interpolation": 2}]}, "file_id": "X22V56NF57", "time": {"Points": [{"co": {"Y": 1, "X": 1}, "interpolation": 2}]}}, "value": {"id": "PJWPMFXKV3", "start": 0, "end": 15, "position": 63.04, "layer": 1, "image": "/home/robsen/.openshot_qt/thumbnail/X22V56NF57.png"}, "key": ["clips", {"id": "PJWPMFXKV3"}], "partial": false, "type": "update"}, {"old_values": {"alpha": {"Points": [{"co": {"Y": 1, "X": 1}, "interpolation": 2}]}, "rotation": {"Points": [{"co": {"Y": 0, "X": 1}, "interpolation": 2}]}, "scale_y": {"Points": [{"co": {"Y": 1, "X": 1}, "interpolation": 2}]}, "crop_y": {"Points": [{"co": {"Y": 0, "X": 1}, "interpolation": 2}]}, "perspective_c3_x": {"Points": [{"co": {"Y": -1, "X": 1}, "interpolation": 2}]}, "end": 15, "crop_width": {"Points": [{"co": {"Y": -1, "X": 1}, "interpolation": 2}]}, "position": 63.04, "id": "PJWPMFXKV3", "wave_color": {"green": {"Points": [{"handle_right": {"Y": 0, "X": 0.5}, "co": {"Y": 123, "X": 1}, "handle_left": {"Y": 1, "X": 0.5}, "handle_type": 0, "interpolation": 0}]}, "blue": {"Points": [{"handle_right": {"Y": 0, "X": 0.5}, "co": {"Y": 255, "X": 1}, "handle_left": {"Y": 1, "X": 0.5}, "handle_type": 0, "interpolation": 0}]}, "alpha": {"Points": [{"handle_right": {"Y": 0, "X": 0.5}, "co": {"Y": 255, "X": 1}, "handle_left": {"Y": 1, "X": 0.5}, "handle_type": 0, "interpolation": 0}]}, "red": {"Points": [{"handle_right": {"Y": 0, "X": 0.5}, "co": {"Y": 0, "X": 1}, "handle_left": {"Y": 1, "X": 0.5}, "handle_type": 0, "interpolation": 0}]}}, "has_video": {"Points": [{"co": {"Y": -1, "X": 1}, "interpolation": 2}]}, "has_audio": {"Points": [{"co": {"Y": -1, "X": 1}, "interpolation": 2}]}, "effects": [], "location_x": {"Points": [{"co": {"Y": 0, "X": 1}, "interpolation": 2}]}, "waveform": false, "title": "arrow.mp4", "image": "/home/robsen/.openshot_qt/thumbnail/X22V56NF57.png", "gravity": 4, "perspective_c2_x": {"Points": [{"co": {"Y": -1, "X": 1}, "interpolation": 2}]}, "perspective_c1_y": {"Points": [{"co": {"Y": -1, "X": 1}, "interpolation": 2}]}, "crop_height": {"Points": [{"co": {"Y": -1, "X": 1}, "interpolation": 2}]}, "crop_x": {"Points": [{"co": {"Y": 0, "X": 1}, "interpolation": 2}]}, "start": 0, "scale": 1, "shear_y": {"Points": [{"co": {"Y": 0, "X": 1}, "interpolation": 2}]}, "display": 0, "volume": {"Points": [{"co": {"Y": 1, "X": 1}, "interpolation": 2}]}, "channel_mapping": {"Points": [{"co": {"Y": -1, "X": 1}, "interpolation": 2}]}, "anchor": 0, "duration": 15.0, "perspective_c3_y": {"Points": [{"co": {"Y": -1, "X": 1}, "interpolation": 2}]}, "shear_x": {"Points": [{"co": {"Y": 0, "X": 1}, "interpolation": 2}]}, "perspective_c4_x": {"Points": [{"co": {"Y": -1, "X": 1}, "interpolation": 2}]}, "location_y": {"Points": [{"co": {"Y": 0, "X": 1}, "interpolation": 2}]}, "scale_x": {"Points": [{"co": {"Y": 1, "X": 1}, "interpolation": 2}]}, "layer": 1, "perspective_c2_y": {"Points": [{"co": {"Y": -1, "X": 1}, "interpolation": 2}]}, "perspective_c1_x": {"Points": [{"co": {"Y": -1, "X": 1}, "interpolation": 2}]}, "perspective_c4_y": {"Points": [{"co": {"Y": -1, "X": 1}, "interpolation": 2}]}, "reader": {"audio_bit_rate": 0, "has_single_image": false, "vcodec": "h264", "has_video": true, "type": "FFmpegReader", "video_length": "375", "audio_timebase": {"den": 1, "num": 1}, "path": "/home/robsen/Dropbox/Workdir/Repo/SuesseRache-HH-Taxi/arrow.mp4", "width": 1920, "has_audio": false, "video_bit_rate": 83079, "channel_layout": 4, "height": 1080, "display_ratio": {"den": 9, "num": 16}, "interlaced_frame": false, "duration": 15.0, "sample_rate": 0, "pixel_format": 0, "video_timebase": {"den": 12800, "num": 1}, "file_size": "155774", "top_field_first": true, "pixel_ratio": {"den": 1, "num": 1}, "acodec": "", "audio_stream_index": -1, "video_stream_index": 0, "channels": 0, "fps": {"den": 1, "num": 25}}, "channel_filter": {"Points": [{"co": {"Y": -1, "X": 1}, "interpolation": 2}]}, "file_id": "X22V56NF57", "time": {"Points": [{"co": {"Y": 1, "X": 1}, "interpolation": 2}]}}, "value": {"id": "PJWPMFXKV3", "start": 0, "end": 15, "position": 53.075, "layer": 2, "image": "/home/robsen/.openshot_qt/thumbnail/X22V56NF57.png"}, "key": ["clips", {"id": "PJWPMFXKV3"}], "partial": false, "type": "update"}, {"old_values": {"start": 0, "type": "Mask", "contrast": {"Points": [{"co": {"Y": 3, "X": 1}, "interpolation": 2}]}, "layer": 0, "replace_image": false, "title": "Transition", "end": 2.039999999999999, "reader": {"audio_bit_rate": 0, "has_single_image": true, "vcodec": "", "has_video": true, "type": "QtImageReader", "video_length": "2592000", "audio_timebase": {"den": 1, "num": 1}, "path": "/usr/lib/python3/dist-packages/openshot_qt/transitions/common/fade.svg", "width": 720, "has_audio": false, "video_bit_rate": 0, "channel_layout": 4, "height": 576, "display_ratio": {"den": 4, "num": 5}, "interlaced_frame": false, "duration": 86400, "sample_rate": 0, "pixel_format": -1, "video_timebase": {"den": 30, "num": 1}, "file_size": "1658880", "top_field_first": true, "pixel_ratio": {"den": 1, "num": 1}, "acodec": "", "audio_stream_index": -1, "video_stream_index": -1, "channels": 0, "fps": {"den": 1, "num": 30}}, "brightness": {"Points": [{"handle_right": {"Y": 0, "X": 0.5}, "co": {"Y": 1, "X": 1}, "handle_left": {"Y": 1, "X": 0.5}, "handle_type": 0, "interpolation": 0}, {"handle_right": {"Y": 0, "X": 0.5}, "co": {"Y": -1, "X": 50}, "handle_left": {"Y": 1, "X": 0.5}, "handle_type": 0, "interpolation": 0}]}, "id": "5NBS5H99MA", "position": 21.76}, "value": null, "key": ["effects", {"id": "5NBS5H99MA"}], "partial": false, "type": "delete"}, {"old_values": {"alpha": {"Points": [{"co": {"Y": 1, "X": 1}, "interpolation": 2}]}, "rotation": {"Points": [{"co": {"Y": 0, "X": 1}, "interpolation": 2}]}, "scale_y": {"Points": [{"co": {"Y": 1, "X": 1}, "interpolation": 2}]}, "crop_y": {"Points": [{"co": {"Y": 0, "X": 1}, "interpolation": 2}]}, "perspective_c3_x": {"Points": [{"co": {"Y": -1, "X": 1}, "interpolation": 2}]}, "end": 15, "crop_width": {"Points": [{"co": {"Y": -1, "X": 1}, "interpolation": 2}]}, "position": 8.8, "id": "0AEDFYGQ7J", "wave_color": {"green": {"Points": [{"handle_right": {"Y": 0, "X": 0.5}, "co": {"Y": 123, "X": 1}, "handle_left": {"Y": 1, "X": 0.5}, "handle_type": 0, "interpolation": 0}]}, "blue": {"Points": [{"handle_right": {"Y": 0, "X": 0.5}, "co": {"Y": 255, "X": 1}, "handle_left": {"Y": 1, "X": 0.5}, "handle_type": 0, "interpolation": 0}]}, "alpha": {"Points": [{"handle_right": {"Y": 0, "X": 0.5}, "co": {"Y": 255, "X": 1}, "handle_left": {"Y": 1, "X": 0.5}, "handle_type": 0, "interpolation": 0}]}, "red": {"Points": [{"handle_right": {"Y": 0, "X": 0.5}, "co": {"Y": 0, "X": 1}, "handle_left": {"Y": 1, "X": 0.5}, "handle_type": 0, "interpolation": 0}]}}, "has_video": {"Points": [{"co": {"Y": -1, "X": 1}, "interpolation": 2}]}, "has_audio": {"Points": [{"co": {"Y": -1, "X": 1}, "interpolation": 2}]}, "effects": [], "location_x": {"Points": [{"co": {"Y": 0, "X": 1}, "interpolation": 2}]}, "waveform": false, "title": "taxi_start.mp4", "image": "/home/robsen/.openshot_qt/thumbnail/LGW3TZJV4Q.png", "gravity": 4, "perspective_c2_x": {"Points": [{"co": {"Y": -1, "X": 1}, "interpolation": 2}]}, "perspective_c1_y": {"Points": [{"co": {"Y": -1, "X": 1}, "interpolation": 2}]}, "crop_height": {"Points": [{"co": {"Y": -1, "X": 1}, "interpolation": 2}]}, "crop_x": {"Points": [{"co": {"Y": 0, "X": 1}, "interpolation": 2}]}, "start": 0, "scale": 1, "shear_y": {"Points": [{"co": {"Y": 0, "X": 1}, "interpolation": 2}]}, "display": 0, "volume": {"Points": [{"co": {"Y": 1, "X": 1}, "interpolation": 2}]}, "channel_mapping": {"Points": [{"co": {"Y": -1, "X": 1}, "interpolation": 2}]}, "anchor": 0, "duration": 15.0, "perspective_c3_y": {"Points": [{"co": {"Y": -1, "X": 1}, "interpolation": 2}]}, "shear_x": {"Points": [{"co": {"Y": 0, "X": 1}, "interpolation": 2}]}, "perspective_c4_x": {"Points": [{"co": {"Y": -1, "X": 1}, "interpolation": 2}]}, "location_y": {"Points": [{"co": {"Y": 0, "X": 1}, "interpolation": 2}]}, "scale_x": {"Points": [{"co": {"Y": 1, "X": 1}, "interpolation": 2}]}, "layer": 0, "perspective_c2_y": {"Points": [{"co": {"Y": -1, "X": 1}, "interpolation": 2}]}, "perspective_c1_x": {"Points": [{"co": {"Y": -1, "X": 1}, "interpolation": 2}]}, "perspective_c4_y": {"Points": [{"co": {"Y": -1, "X": 1}, "interpolation": 2}]}, "reader": {"audio_bit_rate": 0, "has_single_image": false, "vcodec": "h264", "has_video": true, "type": "FFmpegReader", "video_length": "375", "audio_timebase": {"den": 1, "num": 1}, "path": "/home/robsen/Dropbox/Workdir/Repo/SuesseRache-HH-Taxi/taxi_start.mp4", "width": 1920, "has_audio": false, "video_bit_rate": 147692, "channel_layout": 4, "height": 1080, "display_ratio": {"den": 9, "num": 16}, "interlaced_frame": false, "duration": 15.0, "sample_rate": 0, "pixel_format": 0, "video_timebase": {"den": 12800, "num": 1}, "file_size": "276924", "top_field_first": true, "pixel_ratio": {"den": 1, "num": 1}, "acodec": "", "audio_stream_index": -1, "video_stream_index": 0, "channels": 0, "fps": {"den": 1, "num": 25}}, "channel_filter": {"Points": [{"co": {"Y": -1, "X": 1}, "interpolation": 2}]}, "file_id": "LGW3TZJV4Q", "time": {"Points": [{"co": {"Y": 1, "X": 1}, "interpolation": 2}]}}, "value": {"alpha": {"Points": [{"co": {"Y": 1, "X": 1}, "interpolation": 2}, {"handle_right": {"Y": 0, "X": 0.5}, "co": {"Y": 1, "X": 289}, "handle_left": {"Y": 1, "X": 0.5}, "handle_type": 0, "interpolation": 0}, {"handle_right": {"Y": 0, "X": 0.5}, "co": {"Y": 0, "X": 361}, "handle_left": {"Y": 1, "X": 0.5}, "handle_type": 0, "interpolation": 0}]}, "rotation": {"Points": [{"co": {"Y": 0, "X": 1}, "interpolation": 2}]}, "scale_y": {"Points": [{"co": {"Y": 1, "X": 1}, "interpolation": 2}]}, "crop_y": {"Points": [{"co": {"Y": 0, "X": 1}, "interpolation": 2}]}, "crop_width": {"Points": [{"co": {"Y": -1, "X": 1}, "interpolation": 2}]}, "end": 15, "perspective_c3_x": {"Points": [{"co": {"Y": -1, "X": 1}, "interpolation": 2}]}, "position": 8.8, "id": "0AEDFYGQ7J", "wave_color": {"green": {"Points": [{"handle_right": {"Y": 0, "X": 0.5}, "co": {"Y": 123, "X": 1}, "handle_left": {"Y": 1, "X": 0.5}, "handle_type": 0, "interpolation": 0}]}, "blue": {"Points": [{"handle_right": {"Y": 0, "X": 0.5}, "co": {"Y": 255, "X": 1}, "handle_left": {"Y": 1, "X": 0.5}, "handle_type": 0, "interpolation": 0}]}, "alpha": {"Points": [{"handle_right": {"Y": 0, "X": 0.5}, "co": {"Y": 255, "X": 1}, "handle_left": {"Y": 1, "X": 0.5}, "handle_type": 0, "interpolation": 0}]}, "red": {"Points": [{"handle_right": {"Y": 0, "X": 0.5}, "co": {"Y": 0, "X": 1}, "handle_left": {"Y": 1, "X": 0.5}, "handle_type": 0, "interpolation": 0}]}}, "has_video": {"Points": [{"co": {"Y": -1, "X": 1}, "interpolation": 2}]}, "has_audio": {"Points": [{"co": {"Y": -1, "X": 1}, "interpolation": 2}]}, "effects": [], "location_x": {"Points": [{"co": {"Y": 0, "X": 1}, "interpolation": 2}]}, "waveform": false, "title": "taxi_start.mp4", "image": "/home/robsen/.openshot_qt/thumbnail/LGW3TZJV4Q.png", "gravity": 4, "scale_x": {"Points": [{"co": {"Y": 1, "X": 1}, "interpolation": 2}]}, "perspective_c1_y": {"Points": [{"co": {"Y": -1, "X": 1}, "interpolation": 2}]}, "crop_height": {"Points": [{"co": {"Y": -1, "X": 1}, "interpolation": 2}]}, "crop_x": {"Points": [{"co": {"Y": 0, "X": 1}, "interpolation": 2}]}, "start": 0, "scale": 1, "shear_y": {"Points": [{"co": {"Y": 0, "X": 1}, "interpolation": 2}]}, "display": 0, "volume": {"Points": [{"co": {"Y": 1, "X": 1}, "interpolation": 2}]}, "channel_mapping": {"Points": [{"co": {"Y": -1, "X": 1}, "interpolation": 2}]}, "anchor": 0, "duration": 15.0, "perspective_c3_y": {"Points": [{"co": {"Y": -1, "X": 1}, "interpolation": 2}]}, "shear_x": {"Points": [{"co": {"Y": 0, "X": 1}, "interpolation": 2}]}, "perspective_c4_x": {"Points": [{"co": {"Y": -1, "X": 1}, "interpolation": 2}]}, "location_y": {"Points": [{"co": {"Y": 0, "X": 1}, "interpolation": 2}]}, "perspective_c2_x": {"Points": [{"co": {"Y": -1, "X": 1}, "interpolation": 2}]}, "layer": 0, "perspective_c2_y": {"Points": [{"co": {"Y": -1, "X": 1}, "interpolation": 2}]}, "perspective_c1_x": {"Points": [{"co": {"Y": -1, "X": 1}, "interpolation": 2}]}, "perspective_c4_y": {"Points": [{"co": {"Y": -1, "X": 1}, "interpolation": 2}]}, "channel_filter": {"Points": [{"co": {"Y": -1, "X": 1}, "interpolation": 2}]}, "time": {"Points": [{"co": {"Y": 1, "X": 1}, "interpolation": 2}]}, "file_id": "LGW3TZJV4Q"}, "key": ["clips", {"id": "0AEDFYGQ7J"}], "partial": false, "type": "update"}, {"old_values": {"alpha": {"Points": [{"co": {"Y": 1, "X": 1}, "interpolation": 2}, {"handle_right": {"Y": 0, "X": 0.5}, "co": {"Y": 1, "X": 289}, "handle_left": {"Y": 1, "X": 0.5}, "handle_type": 0, "interpolation": 0}, {"handle_right": {"Y": 0, "X": 0.5}, "co": {"Y": 0, "X": 361}, "handle_left": {"Y": 1, "X": 0.5}, "handle_type": 0, "interpolation": 0}]}, "rotation": {"Points": [{"co": {"Y": 0, "X": 1}, "interpolation": 2}]}, "scale_y": {"Points": [{"co": {"Y": 1, "X": 1}, "interpolation": 2}]}, "crop_y": {"Points": [{"co": {"Y": 0, "X": 1}, "interpolation": 2}]}, "perspective_c3_x": {"Points": [{"co": {"Y": -1, "X": 1}, "interpolation": 2}]}, "end": 15, "crop_width": {"Points": [{"co": {"Y": -1, "X": 1}, "interpolation": 2}]}, "position": 8.8, "id": "0AEDFYGQ7J", "wave_color": {"green": {"Points": [{"handle_right": {"Y": 0, "X": 0.5}, "co": {"Y": 123, "X": 1}, "handle_left": {"Y": 1, "X": 0.5}, "handle_type": 0, "interpolation": 0}]}, "blue": {"Points": [{"handle_right": {"Y": 0, "X": 0.5}, "co": {"Y": 255, "X": 1}, "handle_left": {"Y": 1, "X": 0.5}, "handle_type": 0, "interpolation": 0}]}, "alpha": {"Points": [{"handle_right": {"Y": 0, "X": 0.5}, "co": {"Y": 255, "X": 1}, "handle_left": {"Y": 1, "X": 0.5}, "handle_type": 0, "interpolation": 0}]}, "red": {"Points": [{"handle_right": {"Y": 0, "X": 0.5}, "co": {"Y": 0, "X": 1}, "handle_left": {"Y": 1, "X": 0.5}, "handle_type": 0, "interpolation": 0}]}}, "has_video": {"Points": [{"co": {"Y": -1, "X": 1}, "interpolation": 2}]}, "has_audio": {"Points": [{"co": {"Y": -1, "X": 1}, "interpolation": 2}]}, "effects": [], "location_x": {"Points": [{"co": {"Y": 0, "X": 1}, "interpolation": 2}]}, "waveform": false, "title": "taxi_start.mp4", "image": "/home/robsen/.openshot_qt/thumbnail/LGW3TZJV4Q.png", "gravity": 4, "perspective_c2_x": {"Points": [{"co": {"Y": -1, "X": 1}, "interpolation": 2}]}, "perspective_c1_y": {"Points": [{"co": {"Y": -1, "X": 1}, "interpolation": 2}]}, "crop_height": {"Points": [{"co": {"Y": -1, "X": 1}, "interpolation": 2}]}, "crop_x": {"Points": [{"co": {"Y": 0, "X": 1}, "interpolation": 2}]}, "start": 0, "scale": 1, "shear_y": {"Points": [{"co": {"Y": 0, "X": 1}, "interpolation": 2}]}, "display": 0, "volume": {"Points": [{"co": {"Y": 1, "X": 1}, "interpolation": 2}]}, "channel_mapping": {"Points": [{"co": {"Y": -1, "X": 1}, "interpolation": 2}]}, "anchor": 0, "duration": 15.0, "perspective_c3_y": {"Points": [{"co": {"Y": -1, "X": 1}, "interpolation": 2}]}, "shear_x": {"Points": [{"co": {"Y": 0, "X": 1}, "interpolation": 2}]}, "perspective_c4_x": {"Points": [{"co": {"Y": -1, "X": 1}, "interpolation": 2}]}, "location_y": {"Points": [{"co": {"Y": 0, "X": 1}, "interpolation": 2}]}, "scale_x": {"Points": [{"co": {"Y": 1, "X": 1}, "interpolation": 2}]}, "layer": 0, "perspective_c2_y": {"Points": [{"co": {"Y": -1, "X": 1}, "interpolation": 2}]}, "perspective_c1_x": {"Points": [{"co": {"Y": -1, "X": 1}, "interpolation": 2}]}, "perspective_c4_y": {"Points": [{"co": {"Y": -1, "X": 1}, "interpolation": 2}]}, "reader": {"audio_bit_rate": 0, "has_single_image": false, "vcodec": "h264", "has_video": true, "type": "FFmpegReader", "video_length": "375", "audio_timebase": {"den": 1, "num": 1}, "path": "/home/robsen/Dropbox/Workdir/Repo/SuesseRache-HH-Taxi/taxi_start.mp4", "width": 1920, "has_audio": false, "video_bit_rate": 147692, "channel_layout": 4, "height": 1080, "display_ratio": {"den": 9, "num": 16}, "interlaced_frame": false, "duration": 15.0, "sample_rate": 0, "pixel_format": 0, "video_timebase": {"den": 12800, "num": 1}, "file_size": "276924", "top_field_first": true, "pixel_ratio": {"den": 1, "num": 1}, "acodec": "", "audio_stream_index": -1, "video_stream_index": 0, "channels": 0, "fps": {"den": 1, "num": 25}}, "channel_filter": {"Points": [{"co": {"Y": -1, "X": 1}, "interpolation": 2}]}, "file_id": "LGW3TZJV4Q", "time": {"Points": [{"co": {"Y": 1, "X": 1}, "interpolation": 2}]}}, "value": {"alpha": {"Points": [{"co": {"Y": 1, "X": 1}, "interpolation": 2}, {"handle_right": {"Y": 0, "X": 0.5}, "co": {"Y": 1, "X": 289}, "handle_left": {"Y": 1, "X": 0.5}, "handle_type": 0, "interpolation": 0}, {"handle_right": {"Y": 0, "X": 0.5}, "co": {"Y": 0, "X": 361}, "handle_left": {"Y": 1, "X": 0.5}, "handle_type": 0, "interpolation": 0}, {"handle_right": {"Y": 0, "X": 0.5}, "co": {"Y": 0, "X": 1}, "handle_left": {"Y": 1, "X": 0.5}, "handle_type": 0, "interpolation": 0}, {"handle_right": {"Y": 0, "X": 0.5}, "co": {"Y": 1, "X": 73}, "handle_left": {"Y": 1, "X": 0.5}, "handle_type": 0, "interpolation": 0}]}, "rotation": {"Points": [{"co": {"Y": 0, "X": 1}, "interpolation": 2}]}, "scale_y": {"Points": [{"co": {"Y": 1, "X": 1}, "interpolation": 2}]}, "crop_y": {"Points": [{"co": {"Y": 0, "X": 1}, "interpolation": 2}]}, "crop_width": {"Points": [{"co": {"Y": -1, "X": 1}, "interpolation": 2}]}, "end": 15, "perspective_c3_x": {"Points": [{"co": {"Y": -1, "X": 1}, "interpolation": 2}]}, "position": 8.8, "id": "0AEDFYGQ7J", "wave_color": {"green": {"Points": [{"handle_right": {"Y": 0, "X": 0.5}, "co": {"Y": 123, "X": 1}, "handle_left": {"Y": 1, "X": 0.5}, "handle_type": 0, "interpolation": 0}]}, "blue": {"Points": [{"handle_right": {"Y": 0, "X": 0.5}, "co": {"Y": 255, "X": 1}, "handle_left": {"Y": 1, "X": 0.5}, "handle_type": 0, "interpolation": 0}]}, "alpha": {"Points": [{"handle_right": {"Y": 0, "X": 0.5}, "co": {"Y": 255, "X": 1}, "handle_left": {"Y": 1, "X": 0.5}, "handle_type": 0, "interpolation": 0}]}, "red": {"Points": [{"handle_right": {"Y": 0, "X": 0.5}, "co": {"Y": 0, "X": 1}, "handle_left": {"Y": 1, "X": 0.5}, "handle_type": 0, "interpolation": 0}]}}, "has_video": {"Points": [{"co": {"Y": -1, "X": 1}, "interpolation": 2}]}, "has_audio": {"Points": [{"co": {"Y": -1, "X": 1}, "interpolation": 2}]}, "effects": [], "location_x": {"Points": [{"co": {"Y": 0, "X": 1}, "interpolation": 2}]}, "waveform": false, "title": "taxi_start.mp4", "image": "/home/robsen/.openshot_qt/thumbnail/LGW3TZJV4Q.png", "gravity": 4, "scale_x": {"Points": [{"co": {"Y": 1, "X": 1}, "interpolation": 2}]}, "perspective_c1_y": {"Points": [{"co": {"Y": -1, "X": 1}, "interpolation": 2}]}, "crop_height": {"Points": [{"co": {"Y": -1, "X": 1}, "interpolation": 2}]}, "crop_x": {"Points": [{"co": {"Y": 0, "X": 1}, "interpolation": 2}]}, "start": 0, "scale": 1, "shear_y": {"Points": [{"co": {"Y": 0, "X": 1}, "interpolation": 2}]}, "display": 0, "volume": {"Points": [{"co": {"Y": 1, "X": 1}, "interpolation": 2}]}, "channel_mapping": {"Points": [{"co": {"Y": -1, "X": 1}, "interpolation": 2}]}, "anchor": 0, "duration": 15.0, "perspective_c3_y": {"Points": [{"co": {"Y": -1, "X": 1}, "interpolation": 2}]}, "shear_x": {"Points": [{"co": {"Y": 0, "X": 1}, "interpolation": 2}]}, "perspective_c4_x": {"Points": [{"co": {"Y": -1, "X": 1}, "interpolation": 2}]}, "location_y": {"Points": [{"co": {"Y": 0, "X": 1}, "interpolation": 2}]}, "perspective_c2_x": {"Points": [{"co": {"Y": -1, "X": 1}, "interpolation": 2}]}, "layer": 0, "perspective_c2_y": {"Points": [{"co": {"Y": -1, "X": 1}, "interpolation": 2}]}, "perspective_c1_x": {"Points": [{"co": {"Y": -1, "X": 1}, "interpolation": 2}]}, "perspective_c4_y": {"Points": [{"co": {"Y": -1, "X": 1}, "interpolation": 2}]}, "channel_filter": {"Points": [{"co": {"Y": -1, "X": 1}, "interpolation": 2}]}, "time": {"Points": [{"co": {"Y": 1, "X": 1}, "interpolation": 2}]}, "file_id": "LGW3TZJV4Q"}, "key": ["clips", {"id": "0AEDFYGQ7J"}], "partial": false, "type": "update"}, {"old_values": {"alpha": {"Points": [{"co": {"Y": 1, "X": 1}, "interpolation": 2}]}, "rotation": {"Points": [{"co": {"Y": 0, "X": 1}, "interpolation": 2}]}, "scale_y": {"Points": [{"co": {"Y": 1, "X": 1}, "interpolation": 2}]}, "crop_y": {"Points": [{"co": {"Y": 0, "X": 1}, "interpolation": 2}]}, "perspective_c3_x": {"Points": [{"co": {"Y": -1, "X": 1}, "interpolation": 2}]}, "end": 15, "crop_width": {"Points": [{"co": {"Y": -1, "X": 1}, "interpolation": 2}]}, "position": 53.075, "id": "PJWPMFXKV3", "wave_color": {"green": {"Points": [{"handle_right": {"Y": 0, "X": 0.5}, "co": {"Y": 123, "X": 1}, "handle_left": {"Y": 1, "X": 0.5}, "handle_type": 0, "interpolation": 0}]}, "blue": {"Points": [{"handle_right": {"Y": 0, "X": 0.5}, "co": {"Y": 255, "X": 1}, "handle_left": {"Y": 1, "X": 0.5}, "handle_type": 0, "interpolation": 0}]}, "alpha": {"Points": [{"handle_right": {"Y": 0, "X": 0.5}, "co": {"Y": 255, "X": 1}, "handle_left": {"Y": 1, "X": 0.5}, "handle_type": 0, "interpolation": 0}]}, "red": {"Points": [{"handle_right": {"Y": 0, "X": 0.5}, "co": {"Y": 0, "X": 1}, "handle_left": {"Y": 1, "X": 0.5}, "handle_type": 0, "interpolation": 0}]}}, "has_video": {"Points": [{"co": {"Y": -1, "X": 1}, "interpolation": 2}]}, "has_audio": {"Points": [{"co": {"Y": -1, "X": 1}, "interpolation": 2}]}, "effects": [], "location_x": {"Points": [{"co": {"Y": 0, "X": 1}, "interpolation": 2}]}, "waveform": false, "title": "arrow.mp4", "image": "/home/robsen/.openshot_qt/thumbnail/X22V56NF57.png", "gravity": 4, "perspective_c2_x": {"Points": [{"co": {"Y": -1, "X": 1}, "interpolation": 2}]}, "perspective_c1_y": {"Points": [{"co": {"Y": -1, "X": 1}, "interpolation": 2}]}, "crop_height": {"Points": [{"co": {"Y": -1, "X": 1}, "interpolation": 2}]}, "crop_x": {"Points": [{"co": {"Y": 0, "X": 1}, "interpolation": 2}]}, "start": 0, "scale": 1, "shear_y": {"Points": [{"co": {"Y": 0, "X": 1}, "interpolation": 2}]}, "display": 0, "volume": {"Points": [{"co": {"Y": 1, "X": 1}, "interpolation": 2}]}, "channel_mapping": {"Points": [{"co": {"Y": -1, "X": 1}, "interpolation": 2}]}, "anchor": 0, "duration": 15.0, "perspective_c3_y": {"Points": [{"co": {"Y": -1, "X": 1}, "interpolation": 2}]}, "shear_x": {"Points": [{"co": {"Y": 0, "X": 1}, "interpolation": 2}]}, "perspective_c4_x": {"Points": [{"co": {"Y": -1, "X": 1}, "interpolation": 2}]}, "location_y": {"Points": [{"co": {"Y": 0, "X": 1}, "interpolation": 2}]}, "scale_x": {"Points": [{"co": {"Y": 1, "X": 1}, "interpolation": 2}]}, "layer": 2, "perspective_c2_y": {"Points": [{"co": {"Y": -1, "X": 1}, "interpolation": 2}]}, "perspective_c1_x": {"Points": [{"co": {"Y": -1, "X": 1}, "interpolation": 2}]}, "perspective_c4_y": {"Points": [{"co": {"Y": -1, "X": 1}, "interpolation": 2}]}, "reader": {"audio_bit_rate": 0, "has_single_image": false, "vcodec": "h264", "has_video": true, "type": "FFmpegReader", "video_length": "375", "audio_timebase": {"den": 1, "num": 1}, "path": "/home/robsen/Dropbox/Workdir/Repo/SuesseRache-HH-Taxi/arrow.mp4", "width": 1920, "has_audio": false, "video_bit_rate": 83079, "channel_layout": 4, "height": 1080, "display_ratio": {"den": 9, "num": 16}, "interlaced_frame": false, "duration": 15.0, "sample_rate": 0, "pixel_format": 0, "video_timebase": {"den": 12800, "num": 1}, "file_size": "155774", "top_field_first": true, "pixel_ratio": {"den": 1, "num": 1}, "acodec": "", "audio_stream_index": -1, "video_stream_index": 0, "channels": 0, "fps": {"den": 1, "num": 25}}, "channel_filter": {"Points": [{"co": {"Y": -1, "X": 1}, "interpolation": 2}]}, "file_id": "X22V56NF57", "time": {"Points": [{"co": {"Y": 1, "X": 1}, "interpolation": 2}]}}, "value": {"alpha": {"Points": [{"co": {"Y": 1, "X": 1}, "interpolation": 2}, {"handle_right": {"Y": 0, "X": 0.5}, "co": {"Y": 0, "X": 1}, "handle_left": {"Y": 1, "X": 0.5}, "handle_type": 0, "interpolation": 0}, {"handle_right": {"Y": 0, "X": 0.5}, "co": {"Y": 1, "X": 73}, "handle_left": {"Y": 1, "X": 0.5}, "handle_type": 0, "interpolation": 0}]}, "rotation": {"Points": [{"co": {"Y": 0, "X": 1}, "interpolation": 2}]}, "scale_y": {"Points": [{"co": {"Y": 1, "X": 1}, "interpolation": 2}]}, "crop_y": {"Points": [{"co": {"Y": 0, "X": 1}, "interpolation": 2}]}, "crop_width": {"Points": [{"co": {"Y": -1, "X": 1}, "interpolation": 2}]}, "end": 15, "perspective_c3_x": {"Points": [{"co": {"Y": -1, "X": 1}, "interpolation": 2}]}, "position": 53.075, "id": "PJWPMFXKV3", "wave_color": {"green": {"Points": [{"handle_right": {"Y": 0, "X": 0.5}, "co": {"Y": 123, "X": 1}, "handle_left": {"Y": 1, "X": 0.5}, "handle_type": 0, "interpolation": 0}]}, "blue": {"Points": [{"handle_right": {"Y": 0, "X": 0.5}, "co": {"Y": 255, "X": 1}, "handle_left": {"Y": 1, "X": 0.5}, "handle_type": 0, "interpolation": 0}]}, "alpha": {"Points": [{"handle_right": {"Y": 0, "X": 0.5}, "co": {"Y": 255, "X": 1}, "handle_left": {"Y": 1, "X": 0.5}, "handle_type": 0, "interpolation": 0}]}, "red": {"Points": [{"handle_right": {"Y": 0, "X": 0.5}, "co": {"Y": 0, "X": 1}, "handle_left": {"Y": 1, "X": 0.5}, "handle_type": 0, "interpolation": 0}]}}, "has_video": {"Points": [{"co": {"Y": -1, "X": 1}, "interpolation": 2}]}, "has_audio": {"Points": [{"co": {"Y": -1, "X": 1}, "interpolation": 2}]}, "effects": [], "location_x": {"Points": [{"co": {"Y": 0, "X": 1}, "interpolation": 2}]}, "waveform": false, "title": "arrow.mp4", "image": "/home/robsen/.openshot_qt/thumbnail/X22V56NF57.png", "gravity": 4, "scale_x": {"Points": [{"co": {"Y": 1, "X": 1}, "interpolation": 2}]}, "perspective_c1_y": {"Points": [{"co": {"Y": -1, "X": 1}, "interpolation": 2}]}, "crop_height": {"Points": [{"co": {"Y": -1, "X": 1}, "interpolation": 2}]}, "crop_x": {"Points": [{"co": {"Y": 0, "X": 1}, "interpolation": 2}]}, "start": 0, "scale": 1, "shear_y": {"Points": [{"co": {"Y": 0, "X": 1}, "interpolation": 2}]}, "display": 0, "volume": {"Points": [{"co": {"Y": 1, "X": 1}, "interpolation": 2}]}, "channel_mapping": {"Points": [{"co": {"Y": -1, "X": 1}, "interpolation": 2}]}, "anchor": 0, "duration": 15.0, "perspective_c3_y": {"Points": [{"co": {"Y": -1, "X": 1}, "interpolation": 2}]}, "shear_x": {"Points": [{"co": {"Y": 0, "X": 1}, "interpolation": 2}]}, "perspective_c4_x": {"Points": [{"co": {"Y": -1, "X": 1}, "interpolation": 2}]}, "location_y": {"Points": [{"co": {"Y": 0, "X": 1}, "interpolation": 2}]}, "perspective_c2_x": {"Points": [{"co": {"Y": -1, "X": 1}, "interpolation": 2}]}, "layer": 2, "perspective_c2_y": {"Points": [{"co": {"Y": -1, "X": 1}, "interpolation": 2}]}, "perspective_c1_x": {"Points": [{"co": {"Y": -1, "X": 1}, "interpolation": 2}]}, "perspective_c4_y": {"Points": [{"co": {"Y": -1, "X": 1}, "interpolation": 2}]}, "channel_filter": {"Points": [{"co": {"Y": -1, "X": 1}, "interpolation": 2}]}, "time": {"Points": [{"co": {"Y": 1, "X": 1}, "interpolation": 2}]}, "file_id": "X22V56NF57"}, "key": ["clips", {"id": "PJWPMFXKV3"}], "partial": false, "type": "update"}]}, "key": ["history"], "partial": false, "type": "update"}, {"old_values": null, "value": {"redo": [], "undo": [{"old_values": [{"number": 0, "label": "Spur 1", "id": "UBOPYJIV1S", "y": 0}, {"number": 1, "label": "Spur 2", "id": "SHY16ICR2M", "y": 0}], "value": {"number": 2, "y": 0, "label": "", "id": "E44ZNJSI3Z", "lock": false}, "key": ["layers"], "partial": false, "type": "insert"}, {"old_values": [], "value": {"audio_bit_rate": 0, "has_single_image": false, "media_type": "video", "id": "LGW3TZJV4Q", "type": "FFmpegReader", "has_video": true, "video_length": "375", "audio_timebase": {"den": 1, "num": 1}, "path": "/home/robsen/Dropbox/Workdir/Repo/SuesseRache-HH-Taxi/taxi_start.mp4", "width": 1920, "has_audio": false, "video_bit_rate": 147692, "channel_layout": 4, "height": 1080, "vcodec": "h264", "display_ratio": {"den": 9, "num": 16}, "interlaced_frame": false, "duration": 15, "sample_rate": 0, "pixel_format": 0, "video_timebase": {"den": 12800, "num": 1}, "file_size": "276924", "top_field_first": true, "pixel_ratio": {"den": 1, "num": 1}, "acodec": "", "audio_stream_index": -1, "video_stream_index": 0, "channels": 0, "fps": {"den": 1, "num": 25}}, "key": ["files"], "partial": false, "type": "insert"}, {"old_values": [{"audio_bit_rate": 0, "has_single_image": false, "media_type": "video", "id": "LGW3TZJV4Q", "type": "FFmpegReader", "has_video": true, "video_length": "375", "audio_timebase": {"den": 1, "num": 1}, "path": "/home/robsen/Dropbox/Workdir/Repo/SuesseRache-HH-Taxi/taxi_start.mp4", "width": 1920, "has_audio": false, "video_bit_rate": 147692, "channel_layout": 4, "height": 1080, "vcodec": "h264", "display_ratio": {"den": 9, "num": 16}, "interlaced_frame": false, "duration": 15, "sample_rate": 0, "pixel_format": 0, "video_timebase": {"den": 12800, "num": 1}, "file_size": "276924", "top_field_first": true, "pixel_ratio": {"den": 1, "num": 1}, "acodec": "", "audio_stream_index": -1, "video_stream_index": 0, "channels": 0, "fps": {"den": 1, "num": 25}}], "value": {"audio_bit_rate": 189375, "has_single_image": false, "media_type": "video", "id": "Z3LOYBY1PL", "type": "FFmpegReader", "has_video": true, "video_length": "937", "audio_timebase": {"den": 48000, "num": 1}, "path": "/home/robsen/Dropbox/Workdir/Repo/SuesseRache-HH-Taxi/TE_SR_Taxi.mp4", "width": 1920, "has_audio": true, "video_bit_rate": 32091692, "channel_layout": 3, "height": 1080, "vcodec": "h264", "display_ratio": {"den": 9, "num": 16}, "interlaced_frame": false, "duration": 31.317333221435547, "sample_rate": 48000, "pixel_format": 0, "video_timebase": {"den": 29970, "num": 1}, "file_size": "125628279", "top_field_first": true, "pixel_ratio": {"den": 1, "num": 1}, "acodec": "aac", "audio_stream_index": 1, "video_stream_index": 0, "channels": 2, "fps": {"den": 100, "num": 2997}}, "key": ["files"], "partial": false, "type": "insert"}, {"old_values": [{"audio_bit_rate": 0, "has_single_image": false, "media_type": "video", "id": "LGW3TZJV4Q", "type": "FFmpegReader", "has_video": true, "video_length": "375", "audio_timebase": {"den": 1, "num": 1}, "path": "/home/robsen/Dropbox/Workdir/Repo/SuesseRache-HH-Taxi/taxi_start.mp4", "width": 1920, "has_audio": false, "video_bit_rate": 147692, "channel_layout": 4, "height": 1080, "vcodec": "h264", "display_ratio": {"den": 9, "num": 16}, "interlaced_frame": false, "duration": 15, "sample_rate": 0, "pixel_format": 0, "video_timebase": {"den": 12800, "num": 1}, "file_size": "276924", "top_field_first": true, "pixel_ratio": {"den": 1, "num": 1}, "acodec": "", "audio_stream_index": -1, "video_stream_index": 0, "channels": 0, "fps": {"den": 1, "num": 25}}, {"audio_bit_rate": 189375, "has_single_image": false, "media_type": "video", "id": "Z3LOYBY1PL", "type": "FFmpegReader", "has_video": true, "video_length": "937", "audio_timebase": {"den": 48000, "num": 1}, "path": "/home/robsen/Dropbox/Workdir/Repo/SuesseRache-HH-Taxi/TE_SR_Taxi.mp4", "width": 1920, "has_audio": true, "video_bit_rate": 32091692, "channel_layout": 3, "height": 1080, "vcodec": "h264", "display_ratio": {"den": 9, "num": 16}, "interlaced_frame": false, "duration": 31.317333221435547, "sample_rate": 48000, "pixel_format": 0, "video_timebase": {"den": 29970, "num": 1}, "file_size": "125628279", "top_field_first": true, "pixel_ratio": {"den": 1, "num": 1}, "acodec": "aac", "audio_stream_index": 1, "video_stream_index": 0, "channels": 2, "fps": {"den": 100, "num": 2997}}], "value": {"audio_bit_rate": 0, "has_single_image": false, "media_type": "video", "id": "X22V56NF57", "type": "FFmpegReader", "has_video": true, "video_length": "375", "audio_timebase": {"den": 1, "num": 1}, "path": "/home/robsen/Dropbox/Workdir/Repo/SuesseRache-HH-Taxi/arrow.mp4", "width": 1920, "has_audio": false, "video_bit_rate": 83079, "channel_layout": 4, "height": 1080, "vcodec": "h264", "display_ratio": {"den": 9, "num": 16}, "interlaced_frame": false, "duration": 15, "sample_rate": 0, "pixel_format": 0, "video_timebase": {"den": 12800, "num": 1}, "file_size": "155774", "top_field_first": true, "pixel_ratio": {"den": 1, "num": 1}, "acodec": "", "audio_stream_index": -1, "video_stream_index": 0, "channels": 0, "fps": {"den": 1, "num": 25}}, "key": ["files"], "partial": false, "type": "insert"}, {"old_values": [], "value": {"alpha": {"Points": [{"co": {"Y": 1, "X": 1}, "interpolation": 2}, {"handle_right": {"Y": 0, "X": 0.5}, "co": {"Y": 1, "X": 289}, "handle_left": {"Y": 1, "X": 0.5}, "handle_type": 0, "interpolation": 0}, {"handle_right": {"Y": 0, "X": 0.5}, "co": {"Y": 0, "X": 361}, "handle_left": {"Y": 1, "X": 0.5}, "handle_type": 0, "interpolation": 0}, {"handle_right": {"Y": 0, "X": 0.5}, "co": {"Y": 0, "X": 1}, "handle_left": {"Y": 1, "X": 0.5}, "handle_type": 0, "interpolation": 0}, {"handle_right": {"Y": 0, "X": 0.5}, "co": {"Y": 1, "X": 73}, "handle_left": {"Y": 1, "X": 0.5}, "handle_type": 0, "interpolation": 0}]}, "rotation": {"Points": [{"co": {"Y": 0, "X": 1}, "interpolation": 2}]}, "scale_y": {"Points": [{"co": {"Y": 1, "X": 1}, "interpolation": 2}]}, "crop_y": {"Points": [{"co": {"Y": 0, "X": 1}, "interpolation": 2}]}, "perspective_c3_x": {"Points": [{"co": {"Y": -1, "X": 1}, "interpolation": 2}]}, "end": 15, "crop_width": {"Points": [{"co": {"Y": -1, "X": 1}, "interpolation": 2}]}, "position": 8.8, "id": "0AEDFYGQ7J", "wave_color": {"green": {"Points": [{"handle_right": {"Y": 0, "X": 0.5}, "co": {"Y": 123, "X": 1}, "handle_left": {"Y": 1, "X": 0.5}, "handle_type": 0, "interpolation": 0}]}, "blue": {"Points": [{"handle_right": {"Y": 0, "X": 0.5}, "co": {"Y": 255, "X": 1}, "handle_left": {"Y": 1, "X": 0.5}, "handle_type": 0, "interpolation": 0}]}, "alpha": {"Points": [{"handle_right": {"Y": 0, "X": 0.5}, "co": {"Y": 255, "X": 1}, "handle_left": {"Y": 1, "X": 0.5}, "handle_type": 0, "interpolation": 0}]}, "red": {"Points": [{"handle_right": {"Y": 0, "X": 0.5}, "co": {"Y": 0, "X": 1}, "handle_left": {"Y": 1, "X": 0.5}, "handle_type": 0, "interpolation": 0}]}}, "has_video": {"Points": [{"co": {"Y": -1, "X": 1}, "interpolation": 2}]}, "has_audio": {"Points": [{"co": {"Y": -1, "X": 1}, "interpolation": 2}]}, "effects": [], "location_x": {"Points": [{"co": {"Y": 0, "X": 1}, "interpolation": 2}]}, "waveform": false, "title": "taxi_start.mp4", "image": "/home/robsen/.openshot_qt/thumbnail/LGW3TZJV4Q.png", "gravity": 4, "scale_x": {"Points": [{"co": {"Y": 1, "X": 1}, "interpolation": 2}]}, "perspective_c1_y": {"Points": [{"co": {"Y": -1, "X": 1}, "interpolation": 2}]}, "crop_height": {"Points": [{"co": {"Y": -1, "X": 1}, "interpolation": 2}]}, "crop_x": {"Points": [{"co": {"Y": 0, "X": 1}, "interpolation": 2}]}, "start": 0, "scale": 1, "shear_y": {"Points": [{"co": {"Y": 0, "X": 1}, "interpolation": 2}]}, "display": 0, "volume": {"Points": [{"co": {"Y": 1, "X": 1}, "interpolation": 2}]}, "channel_mapping": {"Points": [{"co": {"Y": -1, "X": 1}, "interpolation": 2}]}, "anchor": 0, "duration": 15.0, "perspective_c3_y": {"Points": [{"co": {"Y": -1, "X": 1}, "interpolation": 2}]}, "shear_x": {"Points": [{"co": {"Y": 0, "X": 1}, "interpolation": 2}]}, "perspective_c4_x": {"Points": [{"co": {"Y": -1, "X": 1}, "interpolation": 2}]}, "location_y": {"Points": [{"co": {"Y": 0, "X": 1}, "interpolation": 2}]}, "perspective_c2_x": {"Points": [{"co": {"Y": -1, "X": 1}, "interpolation": 2}]}, "layer": 0, "perspective_c2_y": {"Points": [{"co": {"Y": -1, "X": 1}, "interpolation": 2}]}, "perspective_c1_x": {"Points": [{"co": {"Y": -1, "X": 1}, "interpolation": 2}]}, "perspective_c4_y": {"Points": [{"co": {"Y": -1, "X": 1}, "interpolation": 2}]}, "reader": {"audio_bit_rate": 0, "has_single_image": false, "has_video": true, "type": "FFmpegReader", "video_length": "375", "audio_timebase": {"den": 1, "num": 1}, "path": "/home/robsen/Dropbox/Workdir/Repo/SuesseRache-HH-Taxi/taxi_start.mp4", "width": 1920, "has_audio": false, "video_bit_rate": 147692, "channel_layout": 4, "height": 1080, "display_ratio": {"den": 9, "num": 16}, "interlaced_frame": false, "video_timebase": {"den": 12800, "num": 1}, "duration": 15.0, "sample_rate": 0, "pixel_format": 0, "fps": {"den": 1, "num": 25}, "file_size": "276924", "top_field_first": true, "pixel_ratio": {"den": 1, "num": 1}, "acodec": "", "audio_stream_index": -1, "video_stream_index": 0, "channels": 0, "vcodec": "h264"}, "channel_filter": {"Points": [{"co": {"Y": -1, "X": 1}, "interpolation": 2}]}, "file_id": "LGW3TZJV4Q", "time": {"Points": [{"co": {"Y": 1, "X": 1}, "interpolation": 2}]}}, "key": ["clips"], "partial": false, "type": "insert"}, {"old_values": null, "value": {"id": "0AEDFYGQ7J", "start": 0, "end": 15, "position": 8.8, "layer": 0, "image": "/home/robsen/.openshot_qt/thumbnail/LGW3TZJV4Q.png"}, "key": ["clips", {"id": "0AEDFYGQ7J"}], "partial": false, "type": "update"}, {"old_values": null, "value": {"id": "0AEDFYGQ7J", "start": 0, "end": 15, "position": 8.8, "layer": 0, "image": "/home/robsen/.openshot_qt/thumbnail/LGW3TZJV4Q.png"}, "key": ["clips", {"id": "0AEDFYGQ7J"}], "partial": false, "type": "update"}, {"old_values": [{"alpha": {"Points": [{"co": {"Y": 1, "X": 1}, "interpolation": 2}]}, "rotation": {"Points": [{"co": {"Y": 0, "X": 1}, "interpolation": 2}]}, "scale_y": {"Points": [{"co": {"Y": 1, "X": 1}, "interpolation": 2}]}, "crop_y": {"Points": [{"co": {"Y": 0, "X": 1}, "interpolation": 2}]}, "perspective_c3_x": {"Points": [{"co": {"Y": -1, "X": 1}, "interpolation": 2}]}, "end": 15, "crop_width": {"Points": [{"co": {"Y": -1, "X": 1}, "interpolation": 2}]}, "position": 8.8, "id": "0AEDFYGQ7J", "wave_color": {"green": {"Points": [{"handle_right": {"Y": 0, "X": 0.5}, "co": {"Y": 123, "X": 1}, "handle_left": {"Y": 1, "X": 0.5}, "handle_type": 0, "interpolation": 0}]}, "blue": {"Points": [{"handle_right": {"Y": 0, "X": 0.5}, "co": {"Y": 255, "X": 1}, "handle_left": {"Y": 1, "X": 0.5}, "handle_type": 0, "interpolation": 0}]}, "alpha": {"Points": [{"handle_right": {"Y": 0, "X": 0.5}, "co": {"Y": 255, "X": 1}, "handle_left": {"Y": 1, "X": 0.5}, "handle_type": 0, "interpolation": 0}]}, "red": {"Points": [{"handle_right": {"Y": 0, "X": 0.5}, "co": {"Y": 0, "X": 1}, "handle_left": {"Y": 1, "X": 0.5}, "handle_type": 0, "interpolation": 0}]}}, "has_video": {"Points": [{"co": {"Y": -1, "X": 1}, "interpolation": 2}]}, "has_audio": {"Points": [{"co": {"Y": -1, "X": 1}, "interpolation": 2}]}, "effects": [], "location_x": {"Points": [{"co": {"Y": 0, "X": 1}, "interpolation": 2}]}, "waveform": false, "title": "taxi_start.mp4", "image": "/home/robsen/.openshot_qt/thumbnail/LGW3TZJV4Q.png", "gravity": 4, "perspective_c2_x": {"Points": [{"co": {"Y": -1, "X": 1}, "interpolation": 2}]}, "perspective_c1_y": {"Points": [{"co": {"Y": -1, "X": 1}, "interpolation": 2}]}, "crop_height": {"Points": [{"co": {"Y": -1, "X": 1}, "interpolation": 2}]}, "crop_x": {"Points": [{"co": {"Y": 0, "X": 1}, "interpolation": 2}]}, "start": 0, "scale": 1, "shear_y": {"Points": [{"co": {"Y": 0, "X": 1}, "interpolation": 2}]}, "display": 0, "volume": {"Points": [{"co": {"Y": 1, "X": 1}, "interpolation": 2}]}, "channel_mapping": {"Points": [{"co": {"Y": -1, "X": 1}, "interpolation": 2}]}, "anchor": 0, "duration": 15.0, "perspective_c3_y": {"Points": [{"co": {"Y": -1, "X": 1}, "interpolation": 2}]}, "shear_x": {"Points": [{"co": {"Y": 0, "X": 1}, "interpolation": 2}]}, "perspective_c4_x": {"Points": [{"co": {"Y": -1, "X": 1}, "interpolation": 2}]}, "location_y": {"Points": [{"co": {"Y": 0, "X": 1}, "interpolation": 2}]}, "scale_x": {"Points": [{"co": {"Y": 1, "X": 1}, "interpolation": 2}]}, "layer": 0, "perspective_c2_y": {"Points": [{"co": {"Y": -1, "X": 1}, "interpolation": 2}]}, "perspective_c1_x": {"Points": [{"co": {"Y": -1, "X": 1}, "interpolation": 2}]}, "perspective_c4_y": {"Points": [{"co": {"Y": -1, "X": 1}, "interpolation": 2}]}, "reader": {"audio_bit_rate": 0, "has_single_image": false, "vcodec": "h264", "has_video": true, "type": "FFmpegReader", "video_length": "375", "audio_timebase": {"den": 1, "num": 1}, "path": "/home/robsen/Dropbox/Workdir/Repo/SuesseRache-HH-Taxi/taxi_start.mp4", "width": 1920, "has_audio": false, "video_bit_rate": 147692, "channel_layout": 4, "height": 1080, "display_ratio": {"den": 9, "num": 16}, "interlaced_frame": false, "duration": 15.0, "sample_rate": 0, "pixel_format": 0, "video_timebase": {"den": 12800, "num": 1}, "file_size": "276924", "top_field_first": true, "pixel_ratio": {"den": 1, "num": 1}, "acodec": "", "audio_stream_index": -1, "video_stream_index": 0, "channels": 0, "fps": {"den": 1, "num": 25}}, "channel_filter": {"Points": [{"co": {"Y": -1, "X": 1}, "interpolation": 2}]}, "file_id": "LGW3TZJV4Q", "time": {"Points": [{"co": {"Y": 1, "X": 1}, "interpolation": 2}]}}], "value": {"alpha": {"Points": [{"co": {"Y": 1, "X": 1}, "interpolation": 2}]}, "rotation": {"Points": [{"co": {"Y": 0, "X": 1}, "interpolation": 2}]}, "scale_y": {"Points": [{"co": {"Y": 1, "X": 1}, "interpolation": 2}]}, "crop_y": {"Points": [{"co": {"Y": 0, "X": 1}, "interpolation": 2}]}, "perspective_c3_x": {"Points": [{"co": {"Y": -1, "X": 1}, "interpolation": 2}]}, "end": 31.317333221435547, "crop_width": {"Points": [{"co": {"Y": -1, "X": 1}, "interpolation": 2}]}, "position": 21.76, "id": "627XQDJ3EP", "wave_color": {"green": {"Points": [{"handle_right": {"Y": 0, "X": 0.5}, "co": {"Y": 123, "X": 1}, "handle_left": {"Y": 1, "X": 0.5}, "handle_type": 0, "interpolation": 0}]}, "blue": {"Points": [{"handle_right": {"Y": 0, "X": 0.5}, "co": {"Y": 255, "X": 1}, "handle_left": {"Y": 1, "X": 0.5}, "handle_type": 0, "interpolation": 0}]}, "alpha": {"Points": [{"handle_right": {"Y": 0, "X": 0.5}, "co": {"Y": 255, "X": 1}, "handle_left": {"Y": 1, "X": 0.5}, "handle_type": 0, "interpolation": 0}]}, "red": {"Points": [{"handle_right": {"Y": 0, "X": 0.5}, "co": {"Y": 0, "X": 1}, "handle_left": {"Y": 1, "X": 0.5}, "handle_type": 0, "interpolation": 0}]}}, "has_video": {"Points": [{"co": {"Y": -1, "X": 1}, "interpolation": 2}]}, "has_audio": {"Points": [{"co": {"Y": -1, "X": 1}, "interpolation": 2}]}, "effects": [], "location_x": {"Points": [{"co": {"Y": 0, "X": 1}, "interpolation": 2}]}, "waveform": false, "title": "TE_SR_Taxi.mp4", "image": "/home/robsen/.openshot_qt/thumbnail/Z3LOYBY1PL.png", "gravity": 4, "scale_x": {"Points": [{"co": {"Y": 1, "X": 1}, "interpolation": 2}]}, "perspective_c1_y": {"Points": [{"co": {"Y": -1, "X": 1}, "interpolation": 2}]}, "crop_height": {"Points": [{"co": {"Y": -1, "X": 1}, "interpolation": 2}]}, "crop_x": {"Points": [{"co": {"Y": 0, "X": 1}, "interpolation": 2}]}, "start": 0, "scale": 1, "shear_y": {"Points": [{"co": {"Y": 0, "X": 1}, "interpolation": 2}]}, "display": 0, "volume": {"Points": [{"co": {"Y": 1, "X": 1}, "interpolation": 2}]}, "channel_mapping": {"Points": [{"co": {"Y": -1, "X": 1}, "interpolation": 2}]}, "anchor": 0, "duration": 31.317333221435547, "perspective_c3_y": {"Points": [{"co": {"Y": -1, "X": 1}, "interpolation": 2}]}, "shear_x": {"Points": [{"co": {"Y": 0, "X": 1}, "interpolation": 2}]}, "perspective_c4_x": {"Points": [{"co": {"Y": -1, "X": 1}, "interpolation": 2}]}, "location_y": {"Points": [{"co": {"Y": 0, "X": 1}, "interpolation": 2}]}, "perspective_c2_x": {"Points": [{"co": {"Y": -1, "X": 1}, "interpolation": 2}]}, "layer": 1, "perspective_c2_y": {"Points": [{"co": {"Y": -1, "X": 1}, "interpolation": 2}]}, "perspective_c1_x": {"Points": [{"co": {"Y": -1, "X": 1}, "interpolation": 2}]}, "perspective_c4_y": {"Points": [{"co": {"Y": -1, "X": 1}, "interpolation": 2}]}, "reader": {"audio_bit_rate": 189375, "has_single_image": false, "has_video": true, "type": "FFmpegReader", "video_length": "937", "audio_timebase": {"den": 48000, "num": 1}, "path": "/home/robsen/Dropbox/Workdir/Repo/SuesseRache-HH-Taxi/TE_SR_Taxi.mp4", "width": 1920, "has_audio": true, "video_bit_rate": 32091692, "channel_layout": 3, "height": 1080, "display_ratio": {"den": 9, "num": 16}, "interlaced_frame": false, "video_timebase": {"den": 29970, "num": 1}, "duration": 31.317333221435547, "sample_rate": 48000, "pixel_format": 0, "fps": {"den": 100, "num": 2997}, "file_size": "125628279", "top_field_first": true, "pixel_ratio": {"den": 1, "num": 1}, "acodec": "aac", "audio_stream_index": 1, "video_stream_index": 0, "channels": 2, "vcodec": "h264"}, "channel_filter": {"Points": [{"co": {"Y": -1, "X": 1}, "interpolation": 2}]}, "file_id": "Z3LOYBY1PL", "time": {"Points": [{"co": {"Y": 1, "X": 1}, "interpolation": 2}]}}, "key": ["clips"], "partial": false, "type": "insert"}, {"old_values": {"alpha": {"Points": [{"co": {"Y": 1, "X": 1}, "interpolation": 2}]}, "rotation": {"Points": [{"co": {"Y": 0, "X": 1}, "interpolation": 2}]}, "scale_y": {"Points": [{"co": {"Y": 1, "X": 1}, "interpolation": 2}]}, "crop_y": {"Points": [{"co": {"Y": 0, "X": 1}, "interpolation": 2}]}, "perspective_c3_x": {"Points": [{"co": {"Y": -1, "X": 1}, "interpolation": 2}]}, "end": 31.317333221435547, "crop_width": {"Points": [{"co": {"Y": -1, "X": 1}, "interpolation": 2}]}, "position": 18.88, "id": "627XQDJ3EP", "wave_color": {"green": {"Points": [{"handle_right": {"Y": 0, "X": 0.5}, "co": {"Y": 123, "X": 1}, "handle_left": {"Y": 1, "X": 0.5}, "handle_type": 0, "interpolation": 0}]}, "blue": {"Points": [{"handle_right": {"Y": 0, "X": 0.5}, "co": {"Y": 255, "X": 1}, "handle_left": {"Y": 1, "X": 0.5}, "handle_type": 0, "interpolation": 0}]}, "alpha": {"Points": [{"handle_right": {"Y": 0, "X": 0.5}, "co": {"Y": 255, "X": 1}, "handle_left": {"Y": 1, "X": 0.5}, "handle_type": 0, "interpolation": 0}]}, "red": {"Points": [{"handle_right": {"Y": 0, "X": 0.5}, "co": {"Y": 0, "X": 1}, "handle_left": {"Y": 1, "X": 0.5}, "handle_type": 0, "interpolation": 0}]}}, "has_video": {"Points": [{"co": {"Y": -1, "X": 1}, "interpolation": 2}]}, "has_audio": {"Points": [{"co": {"Y": -1, "X": 1}, "interpolation": 2}]}, "effects": [], "location_x": {"Points": [{"co": {"Y": 0, "X": 1}, "interpolation": 2}]}, "waveform": false, "title": "TE_SR_Taxi.mp4", "image": "/home/robsen/.openshot_qt/thumbnail/Z3LOYBY1PL.png", "gravity": 4, "scale_x": {"Points": [{"co": {"Y": 1, "X": 1}, "interpolation": 2}]}, "perspective_c1_y": {"Points": [{"co": {"Y": -1, "X": 1}, "interpolation": 2}]}, "crop_height": {"Points": [{"co": {"Y": -1, "X": 1}, "interpolation": 2}]}, "crop_x": {"Points": [{"co": {"Y": 0, "X": 1}, "interpolation": 2}]}, "start": 0, "scale": 1, "shear_y": {"Points": [{"co": {"Y": 0, "X": 1}, "interpolation": 2}]}, "display": 0, "volume": {"Points": [{"co": {"Y": 1, "X": 1}, "interpolation": 2}]}, "channel_mapping": {"Points": [{"co": {"Y": -1, "X": 1}, "interpolation": 2}]}, "anchor": 0, "duration": 31.317333221435547, "perspective_c3_y": {"Points": [{"co": {"Y": -1, "X": 1}, "interpolation": 2}]}, "shear_x": {"Points": [{"co": {"Y": 0, "X": 1}, "interpolation": 2}]}, "perspective_c4_x": {"Points": [{"co": {"Y": -1, "X": 1}, "interpolation": 2}]}, "location_y": {"Points": [{"co": {"Y": 0, "X": 1}, "interpolation": 2}]}, "perspective_c2_x": {"Points": [{"co": {"Y": -1, "X": 1}, "interpolation": 2}]}, "layer": 2, "perspective_c2_y": {"Points": [{"co": {"Y": -1, "X": 1}, "interpolation": 2}]}, "perspective_c1_x": {"Points": [{"co": {"Y": -1, "X": 1}, "interpolation": 2}]}, "perspective_c4_y": {"Points": [{"co": {"Y": -1, "X": 1}, "interpolation": 2}]}, "reader": {"audio_bit_rate": 189375, "has_single_image": false, "vcodec": "h264", "has_video": true, "type": "FFmpegReader", "video_length": "937", "audio_timebase": {"den": 48000, "num": 1}, "path": "/home/robsen/Dropbox/Workdir/Repo/SuesseRache-HH-Taxi/TE_SR_Taxi.mp4", "width": 1920, "has_audio": true, "video_bit_rate": 32091692, "channel_layout": 3, "height": 1080, "display_ratio": {"den": 9, "num": 16}, "interlaced_frame": false, "duration": 31.317333221435547, "sample_rate": 48000, "pixel_format": 0, "video_timebase": {"den": 29970, "num": 1}, "file_size": "125628279", "top_field_first": true, "pixel_ratio": {"den": 1, "num": 1}, "acodec": "aac", "audio_stream_index": 1, "video_stream_index": 0, "channels": 2, "fps": {"den": 100, "num": 2997}}, "channel_filter": {"Points": [{"co": {"Y": -1, "X": 1}, "interpolation": 2}]}, "file_id": "Z3LOYBY1PL", "time": {"Points": [{"co": {"Y": 1, "X": 1}, "interpolation": 2}]}}, "value": {"id": "627XQDJ3EP", "start": 0, "end": 31.317333221435547, "position": 21.76, "layer": 0, "image": "/home/robsen/.openshot_qt/thumbnail/Z3LOYBY1PL.png"}, "key": ["clips", {"id": "627XQDJ3EP"}], "partial": false, "type": "update"}, {"old_values": [], "value": {"start": 0, "type": "Mask", "contrast": {"Points": [{"co": {"Y": 3, "X": 1}, "interpolation": 2}]}, "layer": 0, "replace_image": false, "title": "Transition", "end": 2.039999999999999, "reader": {"audio_bit_rate": 0, "has_single_image": true, "has_video": true, "type": "QtImageReader", "video_length": "2592000", "audio_timebase": {"den": 1, "num": 1}, "path": "/usr/lib/python3/dist-packages/openshot_qt/transitions/common/fade.svg", "width": 720, "has_audio": false, "video_bit_rate": 0, "channel_layout": 4, "height": 576, "display_ratio": {"den": 4, "num": 5}, "interlaced_frame": false, "video_timebase": {"den": 30, "num": 1}, "duration": 86400, "sample_rate": 0, "pixel_format": -1, "fps": {"den": 1, "num": 30}, "file_size": "1658880", "top_field_first": true, "pixel_ratio": {"den": 1, "num": 1}, "acodec": "", "audio_stream_index": -1, "video_stream_index": -1, "channels": 0, "vcodec": ""}, "brightness": {"Points": [{"handle_right": {"Y": 0, "X": 0.5}, "co": {"Y": 1, "X": 1}, "handle_left": {"Y": 1, "X": 0.5}, "handle_type": 0, "interpolation": 0}, {"handle_right": {"Y": 0, "X": 0.5}, "co": {"Y": -1, "X": 50}, "handle_left": {"Y": 1, "X": 0.5}, "handle_type": 0, "interpolation": 0}]}, "id": "5NBS5H99MA", "position": 21.76}, "key": ["effects"], "partial": false, "type": "insert"}, {"old_values": {"alpha": {"Points": [{"co": {"Y": 1, "X": 1}, "interpolation": 2}]}, "rotation": {"Points": [{"co": {"Y": 0, "X": 1}, "interpolation": 2}]}, "scale_y": {"Points": [{"co": {"Y": 1, "X": 1}, "interpolation": 2}]}, "crop_y": {"Points": [{"co": {"Y": 0, "X": 1}, "interpolation": 2}]}, "perspective_c3_x": {"Points": [{"co": {"Y": -1, "X": 1}, "interpolation": 2}]}, "end": 31.317333221435547, "crop_width": {"Points": [{"co": {"Y": -1, "X": 1}, "interpolation": 2}]}, "position": 21.76, "id": "627XQDJ3EP", "wave_color": {"green": {"Points": [{"handle_right": {"Y": 0, "X": 0.5}, "co": {"Y": 123, "X": 1}, "handle_left": {"Y": 1, "X": 0.5}, "handle_type": 0, "interpolation": 0}]}, "blue": {"Points": [{"handle_right": {"Y": 0, "X": 0.5}, "co": {"Y": 255, "X": 1}, "handle_left": {"Y": 1, "X": 0.5}, "handle_type": 0, "interpolation": 0}]}, "alpha": {"Points": [{"handle_right": {"Y": 0, "X": 0.5}, "co": {"Y": 255, "X": 1}, "handle_left": {"Y": 1, "X": 0.5}, "handle_type": 0, "interpolation": 0}]}, "red": {"Points": [{"handle_right": {"Y": 0, "X": 0.5}, "co": {"Y": 0, "X": 1}, "handle_left": {"Y": 1, "X": 0.5}, "handle_type": 0, "interpolation": 0}]}}, "has_video": {"Points": [{"co": {"Y": -1, "X": 1}, "interpolation": 2}]}, "has_audio": {"Points": [{"co": {"Y": -1, "X": 1}, "interpolation": 2}]}, "effects": [], "location_x": {"Points": [{"co": {"Y": 0, "X": 1}, "interpolation": 2}]}, "waveform": false, "title": "TE_SR_Taxi.mp4", "image": "/home/robsen/.openshot_qt/thumbnail/Z3LOYBY1PL.png", "gravity": 4, "perspective_c2_x": {"Points": [{"co": {"Y": -1, "X": 1}, "interpolation": 2}]}, "perspective_c1_y": {"Points": [{"co": {"Y": -1, "X": 1}, "interpolation": 2}]}, "crop_height": {"Points": [{"co": {"Y": -1, "X": 1}, "interpolation": 2}]}, "crop_x": {"Points": [{"co": {"Y": 0, "X": 1}, "interpolation": 2}]}, "start": 0, "scale": 1, "shear_y": {"Points": [{"co": {"Y": 0, "X": 1}, "interpolation": 2}]}, "display": 0, "volume": {"Points": [{"co": {"Y": 1, "X": 1}, "interpolation": 2}]}, "channel_mapping": {"Points": [{"co": {"Y": -1, "X": 1}, "interpolation": 2}]}, "anchor": 0, "duration": 31.317333221435547, "perspective_c3_y": {"Points": [{"co": {"Y": -1, "X": 1}, "interpolation": 2}]}, "shear_x": {"Points": [{"co": {"Y": 0, "X": 1}, "interpolation": 2}]}, "perspective_c4_x": {"Points": [{"co": {"Y": -1, "X": 1}, "interpolation": 2}]}, "location_y": {"Points": [{"co": {"Y": 0, "X": 1}, "interpolation": 2}]}, "scale_x": {"Points": [{"co": {"Y": 1, "X": 1}, "interpolation": 2}]}, "layer": 0, "perspective_c2_y": {"Points": [{"co": {"Y": -1, "X": 1}, "interpolation": 2}]}, "perspective_c1_x": {"Points": [{"co": {"Y": -1, "X": 1}, "interpolation": 2}]}, "perspective_c4_y": {"Points": [{"co": {"Y": -1, "X": 1}, "interpolation": 2}]}, "reader": {"audio_bit_rate": 189375, "has_single_image": false, "vcodec": "h264", "has_video": true, "type": "FFmpegReader", "video_length": "937", "audio_timebase": {"den": 48000, "num": 1}, "path": "/home/robsen/Dropbox/Workdir/Repo/SuesseRache-HH-Taxi/TE_SR_Taxi.mp4", "width": 1920, "has_audio": true, "video_bit_rate": 32091692, "channel_layout": 3, "height": 1080, "display_ratio": {"den": 9, "num": 16}, "interlaced_frame": false, "duration": 31.317333221435547, "sample_rate": 48000, "pixel_format": 0, "video_timebase": {"den": 29970, "num": 1}, "file_size": "125628279", "top_field_first": true, "pixel_ratio": {"den": 1, "num": 1}, "acodec": "aac", "audio_stream_index": 1, "video_stream_index": 0, "channels": 2, "fps": {"den": 100, "num": 2997}}, "channel_filter": {"Points": [{"co": {"Y": -1, "X": 1}, "interpolation": 2}]}, "file_id": "Z3LOYBY1PL", "time": {"Points": [{"co": {"Y": 1, "X": 1}, "interpolation": 2}]}}, "value": {"id": "627XQDJ3EP", "start": 0, "end": 31.317333221435547, "position": 21.76, "layer": 1, "image": "/home/robsen/.openshot_qt/thumbnail/Z3LOYBY1PL.png"}, "key": ["clips", {"id": "627XQDJ3EP"}], "partial": false, "type": "update"}, {"old_values": [{"alpha": {"Points": [{"co": {"Y": 1, "X": 1}, "interpolation": 2}]}, "rotation": {"Points": [{"co": {"Y": 0, "X": 1}, "interpolation": 2}]}, "scale_y": {"Points": [{"co": {"Y": 1, "X": 1}, "interpolation": 2}]}, "crop_y": {"Points": [{"co": {"Y": 0, "X": 1}, "interpolation": 2}]}, "perspective_c3_x": {"Points": [{"co": {"Y": -1, "X": 1}, "interpolation": 2}]}, "end": 15, "crop_width": {"Points": [{"co": {"Y": -1, "X": 1}, "interpolation": 2}]}, "position": 8.8, "id": "0AEDFYGQ7J", "wave_color": {"green": {"Points": [{"handle_right": {"Y": 0, "X": 0.5}, "co": {"Y": 123, "X": 1}, "handle_left": {"Y": 1, "X": 0.5}, "handle_type": 0, "interpolation": 0}]}, "blue": {"Points": [{"handle_right": {"Y": 0, "X": 0.5}, "co": {"Y": 255, "X": 1}, "handle_left": {"Y": 1, "X": 0.5}, "handle_type": 0, "interpolation": 0}]}, "alpha": {"Points": [{"handle_right": {"Y": 0, "X": 0.5}, "co": {"Y": 255, "X": 1}, "handle_left": {"Y": 1, "X": 0.5}, "handle_type": 0, "interpolation": 0}]}, "red": {"Points": [{"handle_right": {"Y": 0, "X": 0.5}, "co": {"Y": 0, "X": 1}, "handle_left": {"Y": 1, "X": 0.5}, "handle_type": 0, "interpolation": 0}]}}, "has_video": {"Points": [{"co": {"Y": -1, "X": 1}, "interpolation": 2}]}, "has_audio": {"Points": [{"co": {"Y": -1, "X": 1}, "interpolation": 2}]}, "effects": [], "location_x": {"Points": [{"co": {"Y": 0, "X": 1}, "interpolation": 2}]}, "waveform": false, "title": "taxi_start.mp4", "image": "/home/robsen/.openshot_qt/thumbnail/LGW3TZJV4Q.png", "gravity": 4, "perspective_c2_x": {"Points": [{"co": {"Y": -1, "X": 1}, "interpolation": 2}]}, "perspective_c1_y": {"Points": [{"co": {"Y": -1, "X": 1}, "interpolation": 2}]}, "crop_height": {"Points": [{"co": {"Y": -1, "X": 1}, "interpolation": 2}]}, "crop_x": {"Points": [{"co": {"Y": 0, "X": 1}, "interpolation": 2}]}, "start": 0, "scale": 1, "shear_y": {"Points": [{"co": {"Y": 0, "X": 1}, "interpolation": 2}]}, "display": 0, "volume": {"Points": [{"co": {"Y": 1, "X": 1}, "interpolation": 2}]}, "channel_mapping": {"Points": [{"co": {"Y": -1, "X": 1}, "interpolation": 2}]}, "anchor": 0, "duration": 15.0, "perspective_c3_y": {"Points": [{"co": {"Y": -1, "X": 1}, "interpolation": 2}]}, "shear_x": {"Points": [{"co": {"Y": 0, "X": 1}, "interpolation": 2}]}, "perspective_c4_x": {"Points": [{"co": {"Y": -1, "X": 1}, "interpolation": 2}]}, "location_y": {"Points": [{"co": {"Y": 0, "X": 1}, "interpolation": 2}]}, "scale_x": {"Points": [{"co": {"Y": 1, "X": 1}, "interpolation": 2}]}, "layer": 0, "perspective_c2_y": {"Points": [{"co": {"Y": -1, "X": 1}, "interpolation": 2}]}, "perspective_c1_x": {"Points": [{"co": {"Y": -1, "X": 1}, "interpolation": 2}]}, "perspective_c4_y": {"Points": [{"co": {"Y": -1, "X": 1}, "interpolation": 2}]}, "reader": {"audio_bit_rate": 0, "has_single_image": false, "vcodec": "h264", "has_video": true, "type": "FFmpegReader", "video_length": "375", "audio_timebase": {"den": 1, "num": 1}, "path": "/home/robsen/Dropbox/Workdir/Repo/SuesseRache-HH-Taxi/taxi_start.mp4", "width": 1920, "has_audio": false, "video_bit_rate": 147692, "channel_layout": 4, "height": 1080, "display_ratio": {"den": 9, "num": 16}, "interlaced_frame": false, "duration": 15.0, "sample_rate": 0, "pixel_format": 0, "video_timebase": {"den": 12800, "num": 1}, "file_size": "276924", "top_field_first": true, "pixel_ratio": {"den": 1, "num": 1}, "acodec": "", "audio_stream_index": -1, "video_stream_index": 0, "channels": 0, "fps": {"den": 1, "num": 25}}, "channel_filter": {"Points": [{"co": {"Y": -1, "X": 1}, "interpolation": 2}]}, "file_id": "LGW3TZJV4Q", "time": {"Points": [{"co": {"Y": 1, "X": 1}, "interpolation": 2}]}}, {"alpha": {"Points": [{"co": {"Y": 1, "X": 1}, "interpolation": 2}]}, "rotation": {"Points": [{"co": {"Y": 0, "X": 1}, "interpolation": 2}]}, "scale_y": {"Points": [{"co": {"Y": 1, "X": 1}, "interpolation": 2}]}, "crop_y": {"Points": [{"co": {"Y": 0, "X": 1}, "interpolation": 2}]}, "perspective_c3_x": {"Points": [{"co": {"Y": -1, "X": 1}, "interpolation": 2}]}, "end": 31.317333221435547, "crop_width": {"Points": [{"co": {"Y": -1, "X": 1}, "interpolation": 2}]}, "position": 21.76, "id": "627XQDJ3EP", "wave_color": {"green": {"Points": [{"handle_right": {"Y": 0, "X": 0.5}, "co": {"Y": 123, "X": 1}, "handle_left": {"Y": 1, "X": 0.5}, "handle_type": 0, "interpolation": 0}]}, "blue": {"Points": [{"handle_right": {"Y": 0, "X": 0.5}, "co": {"Y": 255, "X": 1}, "handle_left": {"Y": 1, "X": 0.5}, "handle_type": 0, "interpolation": 0}]}, "alpha": {"Points": [{"handle_right": {"Y": 0, "X": 0.5}, "co": {"Y": 255, "X": 1}, "handle_left": {"Y": 1, "X": 0.5}, "handle_type": 0, "interpolation": 0}]}, "red": {"Points": [{"handle_right": {"Y": 0, "X": 0.5}, "co": {"Y": 0, "X": 1}, "handle_left": {"Y": 1, "X": 0.5}, "handle_type": 0, "interpolation": 0}]}}, "has_video": {"Points": [{"co": {"Y": -1, "X": 1}, "interpolation": 2}]}, "has_audio": {"Points": [{"co": {"Y": -1, "X": 1}, "interpolation": 2}]}, "effects": [], "location_x": {"Points": [{"co": {"Y": 0, "X": 1}, "interpolation": 2}]}, "waveform": false, "title": "TE_SR_Taxi.mp4", "image": "/home/robsen/.openshot_qt/thumbnail/Z3LOYBY1PL.png", "gravity": 4, "perspective_c2_x": {"Points": [{"co": {"Y": -1, "X": 1}, "interpolation": 2}]}, "perspective_c1_y": {"Points": [{"co": {"Y": -1, "X": 1}, "interpolation": 2}]}, "crop_height": {"Points": [{"co": {"Y": -1, "X": 1}, "interpolation": 2}]}, "crop_x": {"Points": [{"co": {"Y": 0, "X": 1}, "interpolation": 2}]}, "start": 0, "scale": 1, "shear_y": {"Points": [{"co": {"Y": 0, "X": 1}, "interpolation": 2}]}, "display": 0, "volume": {"Points": [{"co": {"Y": 1, "X": 1}, "interpolation": 2}]}, "channel_mapping": {"Points": [{"co": {"Y": -1, "X": 1}, "interpolation": 2}]}, "anchor": 0, "duration": 31.317333221435547, "perspective_c3_y": {"Points": [{"co": {"Y": -1, "X": 1}, "interpolation": 2}]}, "shear_x": {"Points": [{"co": {"Y": 0, "X": 1}, "interpolation": 2}]}, "perspective_c4_x": {"Points": [{"co": {"Y": -1, "X": 1}, "interpolation": 2}]}, "location_y": {"Points": [{"co": {"Y": 0, "X": 1}, "interpolation": 2}]}, "scale_x": {"Points": [{"co": {"Y": 1, "X": 1}, "interpolation": 2}]}, "layer": 1, "perspective_c2_y": {"Points": [{"co": {"Y": -1, "X": 1}, "interpolation": 2}]}, "perspective_c1_x": {"Points": [{"co": {"Y": -1, "X": 1}, "interpolation": 2}]}, "perspective_c4_y": {"Points": [{"co": {"Y": -1, "X": 1}, "interpolation": 2}]}, "reader": {"audio_bit_rate": 189375, "has_single_image": false, "vcodec": "h264", "has_video": true, "type": "FFmpegReader", "video_length": "937", "audio_timebase": {"den": 48000, "num": 1}, "path": "/home/robsen/Dropbox/Workdir/Repo/SuesseRache-HH-Taxi/TE_SR_Taxi.mp4", "width": 1920, "has_audio": true, "video_bit_rate": 32091692, "channel_layout": 3, "height": 1080, "display_ratio": {"den": 9, "num": 16}, "interlaced_frame": false, "duration": 31.317333221435547, "sample_rate": 48000, "pixel_format": 0, "video_timebase": {"den": 29970, "num": 1}, "file_size": "125628279", "top_field_first": true, "pixel_ratio": {"den": 1, "num": 1}, "acodec": "aac", "audio_stream_index": 1, "video_stream_index": 0, "channels": 2, "fps": {"den": 100, "num": 2997}}, "channel_filter": {"Points": [{"co": {"Y": -1, "X": 1}, "interpolation": 2}]}, "file_id": "Z3LOYBY1PL", "time": {"Points": [{"co": {"Y": 1, "X": 1}, "interpolation": 2}]}}], "value": {"alpha": {"Points": [{"co": {"Y": 1, "X": 1}, "interpolation": 2}, {"handle_right": {"Y": 0, "X": 0.5}, "co": {"Y": 0, "X": 1}, "handle_left": {"Y": 1, "X": 0.5}, "handle_type": 0, "interpolation": 0}, {"handle_right": {"Y": 0, "X": 0.5}, "co": {"Y": 1, "X": 73}, "handle_left": {"Y": 1, "X": 0.5}, "handle_type": 0, "interpolation": 0}]}, "rotation": {"Points": [{"co": {"Y": 0, "X": 1}, "interpolation": 2}]}, "scale_y": {"Points": [{"co": {"Y": 1, "X": 1}, "interpolation": 2}]}, "crop_y": {"Points": [{"co": {"Y": 0, "X": 1}, "interpolation": 2}]}, "perspective_c3_x": {"Points": [{"co": {"Y": -1, "X": 1}, "interpolation": 2}]}, "end": 15, "crop_width": {"Points": [{"co": {"Y": -1, "X": 1}, "interpolation": 2}]}, "position": 53.075, "id": "PJWPMFXKV3", "wave_color": {"green": {"Points": [{"handle_right": {"Y": 0, "X": 0.5}, "co": {"Y": 123, "X": 1}, "handle_left": {"Y": 1, "X": 0.5}, "handle_type": 0, "interpolation": 0}]}, "blue": {"Points": [{"handle_right": {"Y": 0, "X": 0.5}, "co": {"Y": 255, "X": 1}, "handle_left": {"Y": 1, "X": 0.5}, "handle_type": 0, "interpolation": 0}]}, "alpha": {"Points": [{"handle_right": {"Y": 0, "X": 0.5}, "co": {"Y": 255, "X": 1}, "handle_left": {"Y": 1, "X": 0.5}, "handle_type": 0, "interpolation": 0}]}, "red": {"Points": [{"handle_right": {"Y": 0, "X": 0.5}, "co": {"Y": 0, "X": 1}, "handle_left": {"Y": 1, "X": 0.5}, "handle_type": 0, "interpolation": 0}]}}, "has_video": {"Points": [{"co": {"Y": -1, "X": 1}, "interpolation": 2}]}, "has_audio": {"Points": [{"co": {"Y": -1, "X": 1}, "interpolation": 2}]}, "effects": [], "location_x": {"Points": [{"co": {"Y": 0, "X": 1}, "interpolation": 2}]}, "waveform": false, "title": "arrow.mp4", "image": "/home/robsen/.openshot_qt/thumbnail/X22V56NF57.png", "gravity": 4, "scale_x": {"Points": [{"co": {"Y": 1, "X": 1}, "interpolation": 2}]}, "perspective_c1_y": {"Points": [{"co": {"Y": -1, "X": 1}, "interpolation": 2}]}, "crop_height": {"Points": [{"co": {"Y": -1, "X": 1}, "interpolation": 2}]}, "crop_x": {"Points": [{"co": {"Y": 0, "X": 1}, "interpolation": 2}]}, "start": 0, "scale": 1, "shear_y": {"Points": [{"co": {"Y": 0, "X": 1}, "interpolation": 2}]}, "display": 0, "volume": {"Points": [{"co": {"Y": 1, "X": 1}, "interpolation": 2}]}, "channel_mapping": {"Points": [{"co": {"Y": -1, "X": 1}, "interpolation": 2}]}, "anchor": 0, "duration": 15.0, "perspective_c3_y": {"Points": [{"co": {"Y": -1, "X": 1}, "interpolation": 2}]}, "shear_x": {"Points": [{"co": {"Y": 0, "X": 1}, "interpolation": 2}]}, "perspective_c4_x": {"Points": [{"co": {"Y": -1, "X": 1}, "interpolation": 2}]}, "location_y": {"Points": [{"co": {"Y": 0, "X": 1}, "interpolation": 2}]}, "perspective_c2_x": {"Points": [{"co": {"Y": -1, "X": 1}, "interpolation": 2}]}, "layer": 2, "perspective_c2_y": {"Points": [{"co": {"Y": -1, "X": 1}, "interpolation": 2}]}, "perspective_c1_x": {"Points": [{"co": {"Y": -1, "X": 1}, "interpolation": 2}]}, "perspective_c4_y": {"Points": [{"co": {"Y": -1, "X": 1}, "interpolation": 2}]}, "reader": {"audio_bit_rate": 0, "has_single_image": false, "has_video": true, "type": "FFmpegReader", "video_length": "375", "audio_timebase": {"den": 1, "num": 1}, "path": "/home/robsen/Dropbox/Workdir/Repo/SuesseRache-HH-Taxi/arrow.mp4", "width": 1920, "has_audio": false, "video_bit_rate": 83079, "channel_layout": 4, "height": 1080, "display_ratio": {"den": 9, "num": 16}, "interlaced_frame": false, "video_timebase": {"den": 12800, "num": 1}, "duration": 15.0, "sample_rate": 0, "pixel_format": 0, "fps": {"den": 1, "num": 25}, "file_size": "155774", "top_field_first": true, "pixel_ratio": {"den": 1, "num": 1}, "acodec": "", "audio_stream_index": -1, "video_stream_index": 0, "channels": 0, "vcodec": "h264"}, "channel_filter": {"Points": [{"co": {"Y": -1, "X": 1}, "interpolation": 2}]}, "file_id": "X22V56NF57", "time": {"Points": [{"co": {"Y": 1, "X": 1}, "interpolation": 2}]}}, "key": ["clips"], "partial": false, "type": "insert"}, {"old_values": {"alpha": {"Points": [{"co": {"Y": 1, "X": 1}, "interpolation": 2}]}, "rotation": {"Points": [{"co": {"Y": 0, "X": 1}, "interpolation": 2}]}, "scale_y": {"Points": [{"co": {"Y": 1, "X": 1}, "interpolation": 2}]}, "crop_y": {"Points": [{"co": {"Y": 0, "X": 1}, "interpolation": 2}]}, "perspective_c3_x": {"Points": [{"co": {"Y": -1, "X": 1}, "interpolation": 2}]}, "end": 15.0, "crop_width": {"Points": [{"co": {"Y": -1, "X": 1}, "interpolation": 2}]}, "position": 62.88, "id": "PJWPMFXKV3", "wave_color": {"green": {"Points": [{"handle_right": {"Y": 0, "X": 0.5}, "co": {"Y": 123, "X": 1}, "handle_left": {"Y": 1, "X": 0.5}, "handle_type": 0, "interpolation": 0}]}, "blue": {"Points": [{"handle_right": {"Y": 0, "X": 0.5}, "co": {"Y": 255, "X": 1}, "handle_left": {"Y": 1, "X": 0.5}, "handle_type": 0, "interpolation": 0}]}, "alpha": {"Points": [{"handle_right": {"Y": 0, "X": 0.5}, "co": {"Y": 255, "X": 1}, "handle_left": {"Y": 1, "X": 0.5}, "handle_type": 0, "interpolation": 0}]}, "red": {"Points": [{"handle_right": {"Y": 0, "X": 0.5}, "co": {"Y": 0, "X": 1}, "handle_left": {"Y": 1, "X": 0.5}, "handle_type": 0, "interpolation": 0}]}}, "has_video": {"Points": [{"co": {"Y": -1, "X": 1}, "interpolation": 2}]}, "has_audio": {"Points": [{"co": {"Y": -1, "X": 1}, "interpolation": 2}]}, "effects": [], "location_x": {"Points": [{"co": {"Y": 0, "X": 1}, "interpolation": 2}]}, "waveform": false, "title": "arrow.mp4", "image": "/home/robsen/.openshot_qt/thumbnail/X22V56NF57.png", "gravity": 4, "scale_x": {"Points": [{"co": {"Y": 1, "X": 1}, "interpolation": 2}]}, "perspective_c1_y": {"Points": [{"co": {"Y": -1, "X": 1}, "interpolation": 2}]}, "crop_height": {"Points": [{"co": {"Y": -1, "X": 1}, "interpolation": 2}]}, "crop_x": {"Points": [{"co": {"Y": 0, "X": 1}, "interpolation": 2}]}, "start": 0, "scale": 1, "shear_y": {"Points": [{"co": {"Y": 0, "X": 1}, "interpolation": 2}]}, "display": 0, "volume": {"Points": [{"co": {"Y": 1, "X": 1}, "interpolation": 2}]}, "channel_mapping": {"Points": [{"co": {"Y": -1, "X": 1}, "interpolation": 2}]}, "anchor": 0, "duration": 15.0, "perspective_c3_y": {"Points": [{"co": {"Y": -1, "X": 1}, "interpolation": 2}]}, "shear_x": {"Points": [{"co": {"Y": 0, "X": 1}, "interpolation": 2}]}, "perspective_c4_x": {"Points": [{"co": {"Y": -1, "X": 1}, "interpolation": 2}]}, "location_y": {"Points": [{"co": {"Y": 0, "X": 1}, "interpolation": 2}]}, "perspective_c2_x": {"Points": [{"co": {"Y": -1, "X": 1}, "interpolation": 2}]}, "layer": 2, "perspective_c2_y": {"Points": [{"co": {"Y": -1, "X": 1}, "interpolation": 2}]}, "perspective_c1_x": {"Points": [{"co": {"Y": -1, "X": 1}, "interpolation": 2}]}, "perspective_c4_y": {"Points": [{"co": {"Y": -1, "X": 1}, "interpolation": 2}]}, "reader": {"audio_bit_rate": 0, "has_single_image": false, "vcodec": "h264", "has_video": true, "type": "FFmpegReader", "video_length": "375", "audio_timebase": {"den": 1, "num": 1}, "path": "/home/robsen/Dropbox/Workdir/Repo/SuesseRache-HH-Taxi/arrow.mp4", "width": 1920, "has_audio": false, "video_bit_rate": 83079, "channel_layout": 4, "height": 1080, "display_ratio": {"den": 9, "num": 16}, "interlaced_frame": false, "duration": 15.0, "sample_rate": 0, "pixel_format": 0, "video_timebase": {"den": 12800, "num": 1}, "file_size": "155774", "top_field_first": true, "pixel_ratio": {"den": 1, "num": 1}, "acodec": "", "audio_stream_index": -1, "video_stream_index": 0, "channels": 0, "fps": {"den": 1, "num": 25}}, "channel_filter": {"Points": [{"co": {"Y": -1, "X": 1}, "interpolation": 2}]}, "file_id": "X22V56NF57", "time": {"Points": [{"co": {"Y": 1, "X": 1}, "interpolation": 2}]}}, "value": {"id": "PJWPMFXKV3", "start": 0, "end": 15, "position": 63.04, "layer": 1, "image": "/home/robsen/.openshot_qt/thumbnail/X22V56NF57.png"}, "key": ["clips", {"id": "PJWPMFXKV3"}], "partial": false, "type": "update"}, {"old_values": {"alpha": {"Points": [{"co": {"Y": 1, "X": 1}, "interpolation": 2}]}, "rotation": {"Points": [{"co": {"Y": 0, "X": 1}, "interpolation": 2}]}, "scale_y": {"Points": [{"co": {"Y": 1, "X": 1}, "interpolation": 2}]}, "crop_y": {"Points": [{"co": {"Y": 0, "X": 1}, "interpolation": 2}]}, "perspective_c3_x": {"Points": [{"co": {"Y": -1, "X": 1}, "interpolation": 2}]}, "end": 15, "crop_width": {"Points": [{"co": {"Y": -1, "X": 1}, "interpolation": 2}]}, "position": 63.04, "id": "PJWPMFXKV3", "wave_color": {"green": {"Points": [{"handle_right": {"Y": 0, "X": 0.5}, "co": {"Y": 123, "X": 1}, "handle_left": {"Y": 1, "X": 0.5}, "handle_type": 0, "interpolation": 0}]}, "blue": {"Points": [{"handle_right": {"Y": 0, "X": 0.5}, "co": {"Y": 255, "X": 1}, "handle_left": {"Y": 1, "X": 0.5}, "handle_type": 0, "interpolation": 0}]}, "alpha": {"Points": [{"handle_right": {"Y": 0, "X": 0.5}, "co": {"Y": 255, "X": 1}, "handle_left": {"Y": 1, "X": 0.5}, "handle_type": 0, "interpolation": 0}]}, "red": {"Points": [{"handle_right": {"Y": 0, "X": 0.5}, "co": {"Y": 0, "X": 1}, "handle_left": {"Y": 1, "X": 0.5}, "handle_type": 0, "interpolation": 0}]}}, "has_video": {"Points": [{"co": {"Y": -1, "X": 1}, "interpolation": 2}]}, "has_audio": {"Points": [{"co": {"Y": -1, "X": 1}, "interpolation": 2}]}, "effects": [], "location_x": {"Points": [{"co": {"Y": 0, "X": 1}, "interpolation": 2}]}, "waveform": false, "title": "arrow.mp4", "image": "/home/robsen/.openshot_qt/thumbnail/X22V56NF57.png", "gravity": 4, "perspective_c2_x": {"Points": [{"co": {"Y": -1, "X": 1}, "interpolation": 2}]}, "perspective_c1_y": {"Points": [{"co": {"Y": -1, "X": 1}, "interpolation": 2}]}, "crop_height": {"Points": [{"co": {"Y": -1, "X": 1}, "interpolation": 2}]}, "crop_x": {"Points": [{"co": {"Y": 0, "X": 1}, "interpolation": 2}]}, "start": 0, "scale": 1, "shear_y": {"Points": [{"co": {"Y": 0, "X": 1}, "interpolation": 2}]}, "display": 0, "volume": {"Points": [{"co": {"Y": 1, "X": 1}, "interpolation": 2}]}, "channel_mapping": {"Points": [{"co": {"Y": -1, "X": 1}, "interpolation": 2}]}, "anchor": 0, "duration": 15.0, "perspective_c3_y": {"Points": [{"co": {"Y": -1, "X": 1}, "interpolation": 2}]}, "shear_x": {"Points": [{"co": {"Y": 0, "X": 1}, "interpolation": 2}]}, "perspective_c4_x": {"Points": [{"co": {"Y": -1, "X": 1}, "interpolation": 2}]}, "location_y": {"Points": [{"co": {"Y": 0, "X": 1}, "interpolation": 2}]}, "scale_x": {"Points": [{"co": {"Y": 1, "X": 1}, "interpolation": 2}]}, "layer": 1, "perspective_c2_y": {"Points": [{"co": {"Y": -1, "X": 1}, "interpolation": 2}]}, "perspective_c1_x": {"Points": [{"co": {"Y": -1, "X": 1}, "interpolation": 2}]}, "perspective_c4_y": {"Points": [{"co": {"Y": -1, "X": 1}, "interpolation": 2}]}, "reader": {"audio_bit_rate": 0, "has_single_image": false, "vcodec": "h264", "has_video": true, "type": "FFmpegReader", "video_length": "375", "audio_timebase": {"den": 1, "num": 1}, "path": "/home/robsen/Dropbox/Workdir/Repo/SuesseRache-HH-Taxi/arrow.mp4", "width": 1920, "has_audio": false, "video_bit_rate": 83079, "channel_layout": 4, "height": 1080, "display_ratio": {"den": 9, "num": 16}, "interlaced_frame": false, "duration": 15.0, "sample_rate": 0, "pixel_format": 0, "video_timebase": {"den": 12800, "num": 1}, "file_size": "155774", "top_field_first": true, "pixel_ratio": {"den": 1, "num": 1}, "acodec": "", "audio_stream_index": -1, "video_stream_index": 0, "channels": 0, "fps": {"den": 1, "num": 25}}, "channel_filter": {"Points": [{"co": {"Y": -1, "X": 1}, "interpolation": 2}]}, "file_id": "X22V56NF57", "time": {"Points": [{"co": {"Y": 1, "X": 1}, "interpolation": 2}]}}, "value": {"id": "PJWPMFXKV3", "start": 0, "end": 15, "position": 53.075, "layer": 2, "image": "/home/robsen/.openshot_qt/thumbnail/X22V56NF57.png"}, "key": ["clips", {"id": "PJWPMFXKV3"}], "partial": false, "type": "update"}, {"old_values": {"start": 0, "type": "Mask", "contrast": {"Points": [{"co": {"Y": 3, "X": 1}, "interpolation": 2}]}, "layer": 0, "replace_image": false, "title": "Transition", "end": 2.039999999999999, "reader": {"audio_bit_rate": 0, "has_single_image": true, "vcodec": "", "has_video": true, "type": "QtImageReader", "video_length": "2592000", "audio_timebase": {"den": 1, "num": 1}, "path": "/usr/lib/python3/dist-packages/openshot_qt/transitions/common/fade.svg", "width": 720, "has_audio": false, "video_bit_rate": 0, "channel_layout": 4, "height": 576, "display_ratio": {"den": 4, "num": 5}, "interlaced_frame": false, "duration": 86400, "sample_rate": 0, "pixel_format": -1, "video_timebase": {"den": 30, "num": 1}, "file_size": "1658880", "top_field_first": true, "pixel_ratio": {"den": 1, "num": 1}, "acodec": "", "audio_stream_index": -1, "video_stream_index": -1, "channels": 0, "fps": {"den": 1, "num": 30}}, "brightness": {"Points": [{"handle_right": {"Y": 0, "X": 0.5}, "co": {"Y": 1, "X": 1}, "handle_left": {"Y": 1, "X": 0.5}, "handle_type": 0, "interpolation": 0}, {"handle_right": {"Y": 0, "X": 0.5}, "co": {"Y": -1, "X": 50}, "handle_left": {"Y": 1, "X": 0.5}, "handle_type": 0, "interpolation": 0}]}, "id": "5NBS5H99MA", "position": 21.76}, "value": null, "key": ["effects", {"id": "5NBS5H99MA"}], "partial": false, "type": "delete"}, {"old_values": {"alpha": {"Points": [{"co": {"Y": 1, "X": 1}, "interpolation": 2}]}, "rotation": {"Points": [{"co": {"Y": 0, "X": 1}, "interpolation": 2}]}, "scale_y": {"Points": [{"co": {"Y": 1, "X": 1}, "interpolation": 2}]}, "crop_y": {"Points": [{"co": {"Y": 0, "X": 1}, "interpolation": 2}]}, "perspective_c3_x": {"Points": [{"co": {"Y": -1, "X": 1}, "interpolation": 2}]}, "end": 15, "crop_width": {"Points": [{"co": {"Y": -1, "X": 1}, "interpolation": 2}]}, "position": 8.8, "id": "0AEDFYGQ7J", "wave_color": {"green": {"Points": [{"handle_right": {"Y": 0, "X": 0.5}, "co": {"Y": 123, "X": 1}, "handle_left": {"Y": 1, "X": 0.5}, "handle_type": 0, "interpolation": 0}]}, "blue": {"Points": [{"handle_right": {"Y": 0, "X": 0.5}, "co": {"Y": 255, "X": 1}, "handle_left": {"Y": 1, "X": 0.5}, "handle_type": 0, "interpolation": 0}]}, "alpha": {"Points": [{"handle_right": {"Y": 0, "X": 0.5}, "co": {"Y": 255, "X": 1}, "handle_left": {"Y": 1, "X": 0.5}, "handle_type": 0, "interpolation": 0}]}, "red": {"Points": [{"handle_right": {"Y": 0, "X": 0.5}, "co": {"Y": 0, "X": 1}, "handle_left": {"Y": 1, "X": 0.5}, "handle_type": 0, "interpolation": 0}]}}, "has_video": {"Points": [{"co": {"Y": -1, "X": 1}, "interpolation": 2}]}, "has_audio": {"Points": [{"co": {"Y": -1, "X": 1}, "interpolation": 2}]}, "effects": [], "location_x": {"Points": [{"co": {"Y": 0, "X": 1}, "interpolation": 2}]}, "waveform": false, "title": "taxi_start.mp4", "image": "/home/robsen/.openshot_qt/thumbnail/LGW3TZJV4Q.png", "gravity": 4, "perspective_c2_x": {"Points": [{"co": {"Y": -1, "X": 1}, "interpolation": 2}]}, "perspective_c1_y": {"Points": [{"co": {"Y": -1, "X": 1}, "interpolation": 2}]}, "crop_height": {"Points": [{"co": {"Y": -1, "X": 1}, "interpolation": 2}]}, "crop_x": {"Points": [{"co": {"Y": 0, "X": 1}, "interpolation": 2}]}, "start": 0, "scale": 1, "shear_y": {"Points": [{"co": {"Y": 0, "X": 1}, "interpolation": 2}]}, "display": 0, "volume": {"Points": [{"co": {"Y": 1, "X": 1}, "interpolation": 2}]}, "channel_mapping": {"Points": [{"co": {"Y": -1, "X": 1}, "interpolation": 2}]}, "anchor": 0, "duration": 15.0, "perspective_c3_y": {"Points": [{"co": {"Y": -1, "X": 1}, "interpolation": 2}]}, "shear_x": {"Points": [{"co": {"Y": 0, "X": 1}, "interpolation": 2}]}, "perspective_c4_x": {"Points": [{"co": {"Y": -1, "X": 1}, "interpolation": 2}]}, "location_y": {"Points": [{"co": {"Y": 0, "X": 1}, "interpolation": 2}]}, "scale_x": {"Points": [{"co": {"Y": 1, "X": 1}, "interpolation": 2}]}, "layer": 0, "perspective_c2_y": {"Points": [{"co": {"Y": -1, "X": 1}, "interpolation": 2}]}, "perspective_c1_x": {"Points": [{"co": {"Y": -1, "X": 1}, "interpolation": 2}]}, "perspective_c4_y": {"Points": [{"co": {"Y": -1, "X": 1}, "interpolation": 2}]}, "reader": {"audio_bit_rate": 0, "has_single_image": false, "vcodec": "h264", "has_video": true, "type": "FFmpegReader", "video_length": "375", "audio_timebase": {"den": 1, "num": 1}, "path": "/home/robsen/Dropbox/Workdir/Repo/SuesseRache-HH-Taxi/taxi_start.mp4", "width": 1920, "has_audio": false, "video_bit_rate": 147692, "channel_layout": 4, "height": 1080, "display_ratio": {"den": 9, "num": 16}, "interlaced_frame": false, "duration": 15.0, "sample_rate": 0, "pixel_format": 0, "video_timebase": {"den": 12800, "num": 1}, "file_size": "276924", "top_field_first": true, "pixel_ratio": {"den": 1, "num": 1}, "acodec": "", "audio_stream_index": -1, "video_stream_index": 0, "channels": 0, "fps": {"den": 1, "num": 25}}, "channel_filter": {"Points": [{"co": {"Y": -1, "X": 1}, "interpolation": 2}]}, "file_id": "LGW3TZJV4Q", "time": {"Points": [{"co": {"Y": 1, "X": 1}, "interpolation": 2}]}}, "value": {"alpha": {"Points": [{"co": {"Y": 1, "X": 1}, "interpolation": 2}, {"handle_right": {"Y": 0, "X": 0.5}, "co": {"Y": 1, "X": 289}, "handle_left": {"Y": 1, "X": 0.5}, "handle_type": 0, "interpolation": 0}, {"handle_right": {"Y": 0, "X": 0.5}, "co": {"Y": 0, "X": 361}, "handle_left": {"Y": 1, "X": 0.5}, "handle_type": 0, "interpolation": 0}]}, "rotation": {"Points": [{"co": {"Y": 0, "X": 1}, "interpolation": 2}]}, "scale_y": {"Points": [{"co": {"Y": 1, "X": 1}, "interpolation": 2}]}, "crop_y": {"Points": [{"co": {"Y": 0, "X": 1}, "interpolation": 2}]}, "crop_width": {"Points": [{"co": {"Y": -1, "X": 1}, "interpolation": 2}]}, "end": 15, "perspective_c3_x": {"Points": [{"co": {"Y": -1, "X": 1}, "interpolation": 2}]}, "position": 8.8, "id": "0AEDFYGQ7J", "wave_color": {"green": {"Points": [{"handle_right": {"Y": 0, "X": 0.5}, "co": {"Y": 123, "X": 1}, "handle_left": {"Y": 1, "X": 0.5}, "handle_type": 0, "interpolation": 0}]}, "blue": {"Points": [{"handle_right": {"Y": 0, "X": 0.5}, "co": {"Y": 255, "X": 1}, "handle_left": {"Y": 1, "X": 0.5}, "handle_type": 0, "interpolation": 0}]}, "alpha": {"Points": [{"handle_right": {"Y": 0, "X": 0.5}, "co": {"Y": 255, "X": 1}, "handle_left": {"Y": 1, "X": 0.5}, "handle_type": 0, "interpolation": 0}]}, "red": {"Points": [{"handle_right": {"Y": 0, "X": 0.5}, "co": {"Y": 0, "X": 1}, "handle_left": {"Y": 1, "X": 0.5}, "handle_type": 0, "interpolation": 0}]}}, "has_video": {"Points": [{"co": {"Y": -1, "X": 1}, "interpolation": 2}]}, "has_audio": {"Points": [{"co": {"Y": -1, "X": 1}, "interpolation": 2}]}, "effects": [], "location_x": {"Points": [{"co": {"Y": 0, "X": 1}, "interpolation": 2}]}, "waveform": false, "title": "taxi_start.mp4", "image": "/home/robsen/.openshot_qt/thumbnail/LGW3TZJV4Q.png", "gravity": 4, "scale_x": {"Points": [{"co": {"Y": 1, "X": 1}, "interpolation": 2}]}, "perspective_c1_y": {"Points": [{"co": {"Y": -1, "X": 1}, "interpolation": 2}]}, "crop_height": {"Points": [{"co": {"Y": -1, "X": 1}, "interpolation": 2}]}, "crop_x": {"Points": [{"co": {"Y": 0, "X": 1}, "interpolation": 2}]}, "start": 0, "scale": 1, "shear_y": {"Points": [{"co": {"Y": 0, "X": 1}, "interpolation": 2}]}, "display": 0, "volume": {"Points": [{"co": {"Y": 1, "X": 1}, "interpolation": 2}]}, "channel_mapping": {"Points": [{"co": {"Y": -1, "X": 1}, "interpolation": 2}]}, "anchor": 0, "duration": 15.0, "perspective_c3_y": {"Points": [{"co": {"Y": -1, "X": 1}, "interpolation": 2}]}, "shear_x": {"Points": [{"co": {"Y": 0, "X": 1}, "interpolation": 2}]}, "perspective_c4_x": {"Points": [{"co": {"Y": -1, "X": 1}, "interpolation": 2}]}, "location_y": {"Points": [{"co": {"Y": 0, "X": 1}, "interpolation": 2}]}, "perspective_c2_x": {"Points": [{"co": {"Y": -1, "X": 1}, "interpolation": 2}]}, "layer": 0, "perspective_c2_y": {"Points": [{"co": {"Y": -1, "X": 1}, "interpolation": 2}]}, "perspective_c1_x": {"Points": [{"co": {"Y": -1, "X": 1}, "interpolation": 2}]}, "perspective_c4_y": {"Points": [{"co": {"Y": -1, "X": 1}, "interpolation": 2}]}, "channel_filter": {"Points": [{"co": {"Y": -1, "X": 1}, "interpolation": 2}]}, "time": {"Points": [{"co": {"Y": 1, "X": 1}, "interpolation": 2}]}, "file_id": "LGW3TZJV4Q"}, "key": ["clips", {"id": "0AEDFYGQ7J"}], "partial": false, "type": "update"}, {"old_values": {"alpha": {"Points": [{"co": {"Y": 1, "X": 1}, "interpolation": 2}, {"handle_right": {"Y": 0, "X": 0.5}, "co": {"Y": 1, "X": 289}, "handle_left": {"Y": 1, "X": 0.5}, "handle_type": 0, "interpolation": 0}, {"handle_right": {"Y": 0, "X": 0.5}, "co": {"Y": 0, "X": 361}, "handle_left": {"Y": 1, "X": 0.5}, "handle_type": 0, "interpolation": 0}]}, "rotation": {"Points": [{"co": {"Y": 0, "X": 1}, "interpolation": 2}]}, "scale_y": {"Points": [{"co": {"Y": 1, "X": 1}, "interpolation": 2}]}, "crop_y": {"Points": [{"co": {"Y": 0, "X": 1}, "interpolation": 2}]}, "perspective_c3_x": {"Points": [{"co": {"Y": -1, "X": 1}, "interpolation": 2}]}, "end": 15, "crop_width": {"Points": [{"co": {"Y": -1, "X": 1}, "interpolation": 2}]}, "position": 8.8, "id": "0AEDFYGQ7J", "wave_color": {"green": {"Points": [{"handle_right": {"Y": 0, "X": 0.5}, "co": {"Y": 123, "X": 1}, "handle_left": {"Y": 1, "X": 0.5}, "handle_type": 0, "interpolation": 0}]}, "blue": {"Points": [{"handle_right": {"Y": 0, "X": 0.5}, "co": {"Y": 255, "X": 1}, "handle_left": {"Y": 1, "X": 0.5}, "handle_type": 0, "interpolation": 0}]}, "alpha": {"Points": [{"handle_right": {"Y": 0, "X": 0.5}, "co": {"Y": 255, "X": 1}, "handle_left": {"Y": 1, "X": 0.5}, "handle_type": 0, "interpolation": 0}]}, "red": {"Points": [{"handle_right": {"Y": 0, "X": 0.5}, "co": {"Y": 0, "X": 1}, "handle_left": {"Y": 1, "X": 0.5}, "handle_type": 0, "interpolation": 0}]}}, "has_video": {"Points": [{"co": {"Y": -1, "X": 1}, "interpolation": 2}]}, "has_audio": {"Points": [{"co": {"Y": -1, "X": 1}, "interpolation": 2}]}, "effects": [], "location_x": {"Points": [{"co": {"Y": 0, "X": 1}, "interpolation": 2}]}, "waveform": false, "title": "taxi_start.mp4", "image": "/home/robsen/.openshot_qt/thumbnail/LGW3TZJV4Q.png", "gravity": 4, "perspective_c2_x": {"Points": [{"co": {"Y": -1, "X": 1}, "interpolation": 2}]}, "perspective_c1_y": {"Points": [{"co": {"Y": -1, "X": 1}, "interpolation": 2}]}, "crop_height": {"Points": [{"co": {"Y": -1, "X": 1}, "interpolation": 2}]}, "crop_x": {"Points": [{"co": {"Y": 0, "X": 1}, "interpolation": 2}]}, "start": 0, "scale": 1, "shear_y": {"Points": [{"co": {"Y": 0, "X": 1}, "interpolation": 2}]}, "display": 0, "volume": {"Points": [{"co": {"Y": 1, "X": 1}, "interpolation": 2}]}, "channel_mapping": {"Points": [{"co": {"Y": -1, "X": 1}, "interpolation": 2}]}, "anchor": 0, "duration": 15.0, "perspective_c3_y": {"Points": [{"co": {"Y": -1, "X": 1}, "interpolation": 2}]}, "shear_x": {"Points": [{"co": {"Y": 0, "X": 1}, "interpolation": 2}]}, "perspective_c4_x": {"Points": [{"co": {"Y": -1, "X": 1}, "interpolation": 2}]}, "location_y": {"Points": [{"co": {"Y": 0, "X": 1}, "interpolation": 2}]}, "scale_x": {"Points": [{"co": {"Y": 1, "X": 1}, "interpolation": 2}]}, "layer": 0, "perspective_c2_y": {"Points": [{"co": {"Y": -1, "X": 1}, "interpolation": 2}]}, "perspective_c1_x": {"Points": [{"co": {"Y": -1, "X": 1}, "interpolation": 2}]}, "perspective_c4_y": {"Points": [{"co": {"Y": -1, "X": 1}, "interpolation": 2}]}, "reader": {"audio_bit_rate": 0, "has_single_image": false, "vcodec": "h264", "has_video": true, "type": "FFmpegReader", "video_length": "375", "audio_timebase": {"den": 1, "num": 1}, "path": "/home/robsen/Dropbox/Workdir/Repo/SuesseRache-HH-Taxi/taxi_start.mp4", "width": 1920, "has_audio": false, "video_bit_rate": 147692, "channel_layout": 4, "height": 1080, "display_ratio": {"den": 9, "num": 16}, "interlaced_frame": false, "duration": 15.0, "sample_rate": 0, "pixel_format": 0, "video_timebase": {"den": 12800, "num": 1}, "file_size": "276924", "top_field_first": true, "pixel_ratio": {"den": 1, "num": 1}, "acodec": "", "audio_stream_index": -1, "video_stream_index": 0, "channels": 0, "fps": {"den": 1, "num": 25}}, "channel_filter": {"Points": [{"co": {"Y": -1, "X": 1}, "interpolation": 2}]}, "file_id": "LGW3TZJV4Q", "time": {"Points": [{"co": {"Y": 1, "X": 1}, "interpolation": 2}]}}, "value": {"alpha": {"Points": [{"co": {"Y": 1, "X": 1}, "interpolation": 2}, {"handle_right": {"Y": 0, "X": 0.5}, "co": {"Y": 1, "X": 289}, "handle_left": {"Y": 1, "X": 0.5}, "handle_type": 0, "interpolation": 0}, {"handle_right": {"Y": 0, "X": 0.5}, "co": {"Y": 0, "X": 361}, "handle_left": {"Y": 1, "X": 0.5}, "handle_type": 0, "interpolation": 0}, {"handle_right": {"Y": 0, "X": 0.5}, "co": {"Y": 0, "X": 1}, "handle_left": {"Y": 1, "X": 0.5}, "handle_type": 0, "interpolation": 0}, {"handle_right": {"Y": 0, "X": 0.5}, "co": {"Y": 1, "X": 73}, "handle_left": {"Y": 1, "X": 0.5}, "handle_type": 0, "interpolation": 0}]}, "rotation": {"Points": [{"co": {"Y": 0, "X": 1}, "interpolation": 2}]}, "scale_y": {"Points": [{"co": {"Y": 1, "X": 1}, "interpolation": 2}]}, "crop_y": {"Points": [{"co": {"Y": 0, "X": 1}, "interpolation": 2}]}, "crop_width": {"Points": [{"co": {"Y": -1, "X": 1}, "interpolation": 2}]}, "end": 15, "perspective_c3_x": {"Points": [{"co": {"Y": -1, "X": 1}, "interpolation": 2}]}, "position": 8.8, "id": "0AEDFYGQ7J", "wave_color": {"green": {"Points": [{"handle_right": {"Y": 0, "X": 0.5}, "co": {"Y": 123, "X": 1}, "handle_left": {"Y": 1, "X": 0.5}, "handle_type": 0, "interpolation": 0}]}, "blue": {"Points": [{"handle_right": {"Y": 0, "X": 0.5}, "co": {"Y": 255, "X": 1}, "handle_left": {"Y": 1, "X": 0.5}, "handle_type": 0, "interpolation": 0}]}, "alpha": {"Points": [{"handle_right": {"Y": 0, "X": 0.5}, "co": {"Y": 255, "X": 1}, "handle_left": {"Y": 1, "X": 0.5}, "handle_type": 0, "interpolation": 0}]}, "red": {"Points": [{"handle_right": {"Y": 0, "X": 0.5}, "co": {"Y": 0, "X": 1}, "handle_left": {"Y": 1, "X": 0.5}, "handle_type": 0, "interpolation": 0}]}}, "has_video": {"Points": [{"co": {"Y": -1, "X": 1}, "interpolation": 2}]}, "has_audio": {"Points": [{"co": {"Y": -1, "X": 1}, "interpolation": 2}]}, "effects": [], "location_x": {"Points": [{"co": {"Y": 0, "X": 1}, "interpolation": 2}]}, "waveform": false, "title": "taxi_start.mp4", "image": "/home/robsen/.openshot_qt/thumbnail/LGW3TZJV4Q.png", "gravity": 4, "scale_x": {"Points": [{"co": {"Y": 1, "X": 1}, "interpolation": 2}]}, "perspective_c1_y": {"Points": [{"co": {"Y": -1, "X": 1}, "interpolation": 2}]}, "crop_height": {"Points": [{"co": {"Y": -1, "X": 1}, "interpolation": 2}]}, "crop_x": {"Points": [{"co": {"Y": 0, "X": 1}, "interpolation": 2}]}, "start": 0, "scale": 1, "shear_y": {"Points": [{"co": {"Y": 0, "X": 1}, "interpolation": 2}]}, "display": 0, "volume": {"Points": [{"co": {"Y": 1, "X": 1}, "interpolation": 2}]}, "channel_mapping": {"Points": [{"co": {"Y": -1, "X": 1}, "interpolation": 2}]}, "anchor": 0, "duration": 15.0, "perspective_c3_y": {"Points": [{"co": {"Y": -1, "X": 1}, "interpolation": 2}]}, "shear_x": {"Points": [{"co": {"Y": 0, "X": 1}, "interpolation": 2}]}, "perspective_c4_x": {"Points": [{"co": {"Y": -1, "X": 1}, "interpolation": 2}]}, "location_y": {"Points": [{"co": {"Y": 0, "X": 1}, "interpolation": 2}]}, "perspective_c2_x": {"Points": [{"co": {"Y": -1, "X": 1}, "interpolation": 2}]}, "layer": 0, "perspective_c2_y": {"Points": [{"co": {"Y": -1, "X": 1}, "interpolation": 2}]}, "perspective_c1_x": {"Points": [{"co": {"Y": -1, "X": 1}, "interpolation": 2}]}, "perspective_c4_y": {"Points": [{"co": {"Y": -1, "X": 1}, "interpolation": 2}]}, "channel_filter": {"Points": [{"co": {"Y": -1, "X": 1}, "interpolation": 2}]}, "time": {"Points": [{"co": {"Y": 1, "X": 1}, "interpolation": 2}]}, "file_id": "LGW3TZJV4Q"}, "key": ["clips", {"id": "0AEDFYGQ7J"}], "partial": false, "type": "update"}, {"old_values": {"alpha": {"Points": [{"co": {"Y": 1, "X": 1}, "interpolation": 2}]}, "rotation": {"Points": [{"co": {"Y": 0, "X": 1}, "interpolation": 2}]}, "scale_y": {"Points": [{"co": {"Y": 1, "X": 1}, "interpolation": 2}]}, "crop_y": {"Points": [{"co": {"Y": 0, "X": 1}, "interpolation": 2}]}, "perspective_c3_x": {"Points": [{"co": {"Y": -1, "X": 1}, "interpolation": 2}]}, "end": 15, "crop_width": {"Points": [{"co": {"Y": -1, "X": 1}, "interpolation": 2}]}, "position": 53.075, "id": "PJWPMFXKV3", "wave_color": {"green": {"Points": [{"handle_right": {"Y": 0, "X": 0.5}, "co": {"Y": 123, "X": 1}, "handle_left": {"Y": 1, "X": 0.5}, "handle_type": 0, "interpolation": 0}]}, "blue": {"Points": [{"handle_right": {"Y": 0, "X": 0.5}, "co": {"Y": 255, "X": 1}, "handle_left": {"Y": 1, "X": 0.5}, "handle_type": 0, "interpolation": 0}]}, "alpha": {"Points": [{"handle_right": {"Y": 0, "X": 0.5}, "co": {"Y": 255, "X": 1}, "handle_left": {"Y": 1, "X": 0.5}, "handle_type": 0, "interpolation": 0}]}, "red": {"Points": [{"handle_right": {"Y": 0, "X": 0.5}, "co": {"Y": 0, "X": 1}, "handle_left": {"Y": 1, "X": 0.5}, "handle_type": 0, "interpolation": 0}]}}, "has_video": {"Points": [{"co": {"Y": -1, "X": 1}, "interpolation": 2}]}, "has_audio": {"Points": [{"co": {"Y": -1, "X": 1}, "interpolation": 2}]}, "effects": [], "location_x": {"Points": [{"co": {"Y": 0, "X": 1}, "interpolation": 2}]}, "waveform": false, "title": "arrow.mp4", "image": "/home/robsen/.openshot_qt/thumbnail/X22V56NF57.png", "gravity": 4, "perspective_c2_x": {"Points": [{"co": {"Y": -1, "X": 1}, "interpolation": 2}]}, "perspective_c1_y": {"Points": [{"co": {"Y": -1, "X": 1}, "interpolation": 2}]}, "crop_height": {"Points": [{"co": {"Y": -1, "X": 1}, "interpolation": 2}]}, "crop_x": {"Points": [{"co": {"Y": 0, "X": 1}, "interpolation": 2}]}, "start": 0, "scale": 1, "shear_y": {"Points": [{"co": {"Y": 0, "X": 1}, "interpolation": 2}]}, "display": 0, "volume": {"Points": [{"co": {"Y": 1, "X": 1}, "interpolation": 2}]}, "channel_mapping": {"Points": [{"co": {"Y": -1, "X": 1}, "interpolation": 2}]}, "anchor": 0, "duration": 15.0, "perspective_c3_y": {"Points": [{"co": {"Y": -1, "X": 1}, "interpolation": 2}]}, "shear_x": {"Points": [{"co": {"Y": 0, "X": 1}, "interpolation": 2}]}, "perspective_c4_x": {"Points": [{"co": {"Y": -1, "X": 1}, "interpolation": 2}]}, "location_y": {"Points": [{"co": {"Y": 0, "X": 1}, "interpolation": 2}]}, "scale_x": {"Points": [{"co": {"Y": 1, "X": 1}, "interpolation": 2}]}, "layer": 2, "perspective_c2_y": {"Points": [{"co": {"Y": -1, "X": 1}, "interpolation": 2}]}, "perspective_c1_x": {"Points": [{"co": {"Y": -1, "X": 1}, "interpolation": 2}]}, "perspective_c4_y": {"Points": [{"co": {"Y": -1, "X": 1}, "interpolation": 2}]}, "reader": {"audio_bit_rate": 0, "has_single_image": false, "vcodec": "h264", "has_video": true, "type": "FFmpegReader", "video_length": "375", "audio_timebase": {"den": 1, "num": 1}, "path": "/home/robsen/Dropbox/Workdir/Repo/SuesseRache-HH-Taxi/arrow.mp4", "width": 1920, "has_audio": false, "video_bit_rate": 83079, "channel_layout": 4, "height": 1080, "display_ratio": {"den": 9, "num": 16}, "interlaced_frame": false, "duration": 15.0, "sample_rate": 0, "pixel_format": 0, "video_timebase": {"den": 12800, "num": 1}, "file_size": "155774", "top_field_first": true, "pixel_ratio": {"den": 1, "num": 1}, "acodec": "", "audio_stream_index": -1, "video_stream_index": 0, "channels": 0, "fps": {"den": 1, "num": 25}}, "channel_filter": {"Points": [{"co": {"Y": -1, "X": 1}, "interpolation": 2}]}, "file_id": "X22V56NF57", "time": {"Points": [{"co": {"Y": 1, "X": 1}, "interpolation": 2}]}}, "value": {"alpha": {"Points": [{"co": {"Y": 1, "X": 1}, "interpolation": 2}, {"handle_right": {"Y": 0, "X": 0.5}, "co": {"Y": 0, "X": 1}, "handle_left": {"Y": 1, "X": 0.5}, "handle_type": 0, "interpolation": 0}, {"handle_right": {"Y": 0, "X": 0.5}, "co": {"Y": 1, "X": 73}, "handle_left": {"Y": 1, "X": 0.5}, "handle_type": 0, "interpolation": 0}]}, "rotation": {"Points": [{"co": {"Y": 0, "X": 1}, "interpolation": 2}]}, "scale_y": {"Points": [{"co": {"Y": 1, "X": 1}, "interpolation": 2}]}, "crop_y": {"Points": [{"co": {"Y": 0, "X": 1}, "interpolation": 2}]}, "crop_width": {"Points": [{"co": {"Y": -1, "X": 1}, "interpolation": 2}]}, "end": 15, "perspective_c3_x": {"Points": [{"co": {"Y": -1, "X": 1}, "interpolation": 2}]}, "position": 53.075, "id": "PJWPMFXKV3", "wave_color": {"green": {"Points": [{"handle_right": {"Y": 0, "X": 0.5}, "co": {"Y": 123, "X": 1}, "handle_left": {"Y": 1, "X": 0.5}, "handle_type": 0, "interpolation": 0}]}, "blue": {"Points": [{"handle_right": {"Y": 0, "X": 0.5}, "co": {"Y": 255, "X": 1}, "handle_left": {"Y": 1, "X": 0.5}, "handle_type": 0, "interpolation": 0}]}, "alpha": {"Points": [{"handle_right": {"Y": 0, "X": 0.5}, "co": {"Y": 255, "X": 1}, "handle_left": {"Y": 1, "X": 0.5}, "handle_type": 0, "interpolation": 0}]}, "red": {"Points": [{"handle_right": {"Y": 0, "X": 0.5}, "co": {"Y": 0, "X": 1}, "handle_left": {"Y": 1, "X": 0.5}, "handle_type": 0, "interpolation": 0}]}}, "has_video": {"Points": [{"co": {"Y": -1, "X": 1}, "interpolation": 2}]}, "has_audio": {"Points": [{"co": {"Y": -1, "X": 1}, "interpolation": 2}]}, "effects": [], "location_x": {"Points": [{"co": {"Y": 0, "X": 1}, "interpolation": 2}]}, "waveform": false, "title": "arrow.mp4", "image": "/home/robsen/.openshot_qt/thumbnail/X22V56NF57.png", "gravity": 4, "scale_x": {"Points": [{"co": {"Y": 1, "X": 1}, "interpolation": 2}]}, "perspective_c1_y": {"Points": [{"co": {"Y": -1, "X": 1}, "interpolation": 2}]}, "crop_height": {"Points": [{"co": {"Y": -1, "X": 1}, "interpolation": 2}]}, "crop_x": {"Points": [{"co": {"Y": 0, "X": 1}, "interpolation": 2}]}, "start": 0, "scale": 1, "shear_y": {"Points": [{"co": {"Y": 0, "X": 1}, "interpolation": 2}]}, "display": 0, "volume": {"Points": [{"co": {"Y": 1, "X": 1}, "interpolation": 2}]}, "channel_mapping": {"Points": [{"co": {"Y": -1, "X": 1}, "interpolation": 2}]}, "anchor": 0, "duration": 15.0, "perspective_c3_y": {"Points": [{"co": {"Y": -1, "X": 1}, "interpolation": 2}]}, "shear_x": {"Points": [{"co": {"Y": 0, "X": 1}, "interpolation": 2}]}, "perspective_c4_x": {"Points": [{"co": {"Y": -1, "X": 1}, "interpolation": 2}]}, "location_y": {"Points": [{"co": {"Y": 0, "X": 1}, "interpolation": 2}]}, "perspective_c2_x": {"Points": [{"co": {"Y": -1, "X": 1}, "interpolation": 2}]}, "layer": 2, "perspective_c2_y": {"Points": [{"co": {"Y": -1, "X": 1}, "interpolation": 2}]}, "perspective_c1_x": {"Points": [{"co": {"Y": -1, "X": 1}, "interpolation": 2}]}, "perspective_c4_y": {"Points": [{"co": {"Y": -1, "X": 1}, "interpolation": 2}]}, "channel_filter": {"Points": [{"co": {"Y": -1, "X": 1}, "interpolation": 2}]}, "time": {"Points": [{"co": {"Y": 1, "X": 1}, "interpolation": 2}]}, "file_id": "X22V56NF57"}, "key": ["clips", {"id": "PJWPMFXKV3"}], "partial": false, "type": "update"}]}, "key": ["history"], "partial": false, "type": "update"}, {"old_values": null, "value": {"redo": [], "undo": [{"old_values": [{"number": 0, "label": "Spur 1", "id": "UBOPYJIV1S", "y": 0}, {"number": 1, "label": "Spur 2", "id": "SHY16ICR2M", "y": 0}], "value": {"number": 2, "y": 0, "label": "", "id": "E44ZNJSI3Z", "lock": false}, "key": ["layers"], "partial": false, "type": "insert"}, {"old_values": [], "value": {"audio_bit_rate": 0, "has_single_image": false, "media_type": "video", "id": "LGW3TZJV4Q", "type": "FFmpegReader", "has_video": true, "video_length": "375", "audio_timebase": {"den": 1, "num": 1}, "path": "/home/robsen/Dropbox/Workdir/Repo/SuesseRache-HH-Taxi/taxi_start.mp4", "width": 1920, "has_audio": false, "video_bit_rate": 147692, "channel_layout": 4, "height": 1080, "vcodec": "h264", "display_ratio": {"den": 9, "num": 16}, "interlaced_frame": false, "duration": 15, "sample_rate": 0, "pixel_format": 0, "video_timebase": {"den": 12800, "num": 1}, "file_size": "276924", "top_field_first": true, "pixel_ratio": {"den": 1, "num": 1}, "acodec": "", "audio_stream_index": -1, "video_stream_index": 0, "channels": 0, "fps": {"den": 1, "num": 25}}, "key": ["files"], "partial": false, "type": "insert"}, {"old_values": [{"audio_bit_rate": 0, "has_single_image": false, "media_type": "video", "id": "LGW3TZJV4Q", "type": "FFmpegReader", "has_video": true, "video_length": "375", "audio_timebase": {"den": 1, "num": 1}, "path": "/home/robsen/Dropbox/Workdir/Repo/SuesseRache-HH-Taxi/taxi_start.mp4", "width": 1920, "has_audio": false, "video_bit_rate": 147692, "channel_layout": 4, "height": 1080, "vcodec": "h264", "display_ratio": {"den": 9, "num": 16}, "interlaced_frame": false, "duration": 15, "sample_rate": 0, "pixel_format": 0, "video_timebase": {"den": 12800, "num": 1}, "file_size": "276924", "top_field_first": true, "pixel_ratio": {"den": 1, "num": 1}, "acodec": "", "audio_stream_index": -1, "video_stream_index": 0, "channels": 0, "fps": {"den": 1, "num": 25}}], "value": {"audio_bit_rate": 189375, "has_single_image": false, "media_type": "video", "id": "Z3LOYBY1PL", "type": "FFmpegReader", "has_video": true, "video_length": "937", "audio_timebase": {"den": 48000, "num": 1}, "path": "/home/robsen/Dropbox/Workdir/Repo/SuesseRache-HH-Taxi/TE_SR_Taxi.mp4", "width": 1920, "has_audio": true, "video_bit_rate": 32091692, "channel_layout": 3, "height": 1080, "vcodec": "h264", "display_ratio": {"den": 9, "num": 16}, "interlaced_frame": false, "duration": 31.317333221435547, "sample_rate": 48000, "pixel_format": 0, "video_timebase": {"den": 29970, "num": 1}, "file_size": "125628279", "top_field_first": true, "pixel_ratio": {"den": 1, "num": 1}, "acodec": "aac", "audio_stream_index": 1, "video_stream_index": 0, "channels": 2, "fps": {"den": 100, "num": 2997}}, "key": ["files"], "partial": false, "type": "insert"}, {"old_values": [{"audio_bit_rate": 0, "has_single_image": false, "media_type": "video", "id": "LGW3TZJV4Q", "type": "FFmpegReader", "has_video": true, "video_length": "375", "audio_timebase": {"den": 1, "num": 1}, "path": "/home/robsen/Dropbox/Workdir/Repo/SuesseRache-HH-Taxi/taxi_start.mp4", "width": 1920, "has_audio": false, "video_bit_rate": 147692, "channel_layout": 4, "height": 1080, "vcodec": "h264", "display_ratio": {"den": 9, "num": 16}, "interlaced_frame": false, "duration": 15, "sample_rate": 0, "pixel_format": 0, "video_timebase": {"den": 12800, "num": 1}, "file_size": "276924", "top_field_first": true, "pixel_ratio": {"den": 1, "num": 1}, "acodec": "", "audio_stream_index": -1, "video_stream_index": 0, "channels": 0, "fps": {"den": 1, "num": 25}}, {"audio_bit_rate": 189375, "has_single_image": false, "media_type": "video", "id": "Z3LOYBY1PL", "type": "FFmpegReader", "has_video": true, "video_length": "937", "audio_timebase": {"den": 48000, "num": 1}, "path": "/home/robsen/Dropbox/Workdir/Repo/SuesseRache-HH-Taxi/TE_SR_Taxi.mp4", "width": 1920, "has_audio": true, "video_bit_rate": 32091692, "channel_layout": 3, "height": 1080, "vcodec": "h264", "display_ratio": {"den": 9, "num": 16}, "interlaced_frame": false, "duration": 31.317333221435547, "sample_rate": 48000, "pixel_format": 0, "video_timebase": {"den": 29970, "num": 1}, "file_size": "125628279", "top_field_first": true, "pixel_ratio": {"den": 1, "num": 1}, "acodec": "aac", "audio_stream_index": 1, "video_stream_index": 0, "channels": 2, "fps": {"den": 100, "num": 2997}}], "value": {"audio_bit_rate": 0, "has_single_image": false, "media_type": "video", "id": "X22V56NF57", "type": "FFmpegReader", "has_video": true, "video_length": "375", "audio_timebase": {"den": 1, "num": 1}, "path": "/home/robsen/Dropbox/Workdir/Repo/SuesseRache-HH-Taxi/arrow.mp4", "width": 1920, "has_audio": false, "video_bit_rate": 83079, "channel_layout": 4, "height": 1080, "vcodec": "h264", "display_ratio": {"den": 9, "num": 16}, "interlaced_frame": false, "duration": 15, "sample_rate": 0, "pixel_format": 0, "video_timebase": {"den": 12800, "num": 1}, "file_size": "155774", "top_field_first": true, "pixel_ratio": {"den": 1, "num": 1}, "acodec": "", "audio_stream_index": -1, "video_stream_index": 0, "channels": 0, "fps": {"den": 1, "num": 25}}, "key": ["files"], "partial": false, "type": "insert"}, {"old_values": [], "value": {"alpha": {"Points": [{"co": {"Y": 1, "X": 1}, "interpolation": 2}, {"handle_right": {"Y": 0, "X": 0.5}, "co": {"Y": 1, "X": 289}, "handle_left": {"Y": 1, "X": 0.5}, "handle_type": 0, "interpolation": 0}, {"handle_right": {"Y": 0, "X": 0.5}, "co": {"Y": 0, "X": 361}, "handle_left": {"Y": 1, "X": 0.5}, "handle_type": 0, "interpolation": 0}, {"handle_right": {"Y": 0, "X": 0.5}, "co": {"Y": 0, "X": 1}, "handle_left": {"Y": 1, "X": 0.5}, "handle_type": 0, "interpolation": 0}, {"handle_right": {"Y": 0, "X": 0.5}, "co": {"Y": 1, "X": 73}, "handle_left": {"Y": 1, "X": 0.5}, "handle_type": 0, "interpolation": 0}]}, "rotation": {"Points": [{"co": {"Y": 0, "X": 1}, "interpolation": 2}]}, "scale_y": {"Points": [{"co": {"Y": 1, "X": 1}, "interpolation": 2}]}, "crop_y": {"Points": [{"co": {"Y": 0, "X": 1}, "interpolation": 2}]}, "perspective_c3_x": {"Points": [{"co": {"Y": -1, "X": 1}, "interpolation": 2}]}, "end": 15, "crop_width": {"Points": [{"co": {"Y": -1, "X": 1}, "interpolation": 2}]}, "position": 8.8, "id": "0AEDFYGQ7J", "wave_color": {"green": {"Points": [{"handle_right": {"Y": 0, "X": 0.5}, "co": {"Y": 123, "X": 1}, "handle_left": {"Y": 1, "X": 0.5}, "handle_type": 0, "interpolation": 0}]}, "blue": {"Points": [{"handle_right": {"Y": 0, "X": 0.5}, "co": {"Y": 255, "X": 1}, "handle_left": {"Y": 1, "X": 0.5}, "handle_type": 0, "interpolation": 0}]}, "alpha": {"Points": [{"handle_right": {"Y": 0, "X": 0.5}, "co": {"Y": 255, "X": 1}, "handle_left": {"Y": 1, "X": 0.5}, "handle_type": 0, "interpolation": 0}]}, "red": {"Points": [{"handle_right": {"Y": 0, "X": 0.5}, "co": {"Y": 0, "X": 1}, "handle_left": {"Y": 1, "X": 0.5}, "handle_type": 0, "interpolation": 0}]}}, "has_video": {"Points": [{"co": {"Y": -1, "X": 1}, "interpolation": 2}]}, "has_audio": {"Points": [{"co": {"Y": -1, "X": 1}, "interpolation": 2}]}, "effects": [], "location_x": {"Points": [{"co": {"Y": 0, "X": 1}, "interpolation": 2}]}, "waveform": false, "title": "taxi_start.mp4", "image": "/home/robsen/.openshot_qt/thumbnail/LGW3TZJV4Q.png", "gravity": 4, "scale_x": {"Points": [{"co": {"Y": 1, "X": 1}, "interpolation": 2}]}, "perspective_c1_y": {"Points": [{"co": {"Y": -1, "X": 1}, "interpolation": 2}]}, "crop_height": {"Points": [{"co": {"Y": -1, "X": 1}, "interpolation": 2}]}, "crop_x": {"Points": [{"co": {"Y": 0, "X": 1}, "interpolation": 2}]}, "start": 0, "scale": 1, "shear_y": {"Points": [{"co": {"Y": 0, "X": 1}, "interpolation": 2}]}, "display": 0, "volume": {"Points": [{"co": {"Y": 1, "X": 1}, "interpolation": 2}]}, "channel_mapping": {"Points": [{"co": {"Y": -1, "X": 1}, "interpolation": 2}]}, "anchor": 0, "duration": 15.0, "perspective_c3_y": {"Points": [{"co": {"Y": -1, "X": 1}, "interpolation": 2}]}, "shear_x": {"Points": [{"co": {"Y": 0, "X": 1}, "interpolation": 2}]}, "perspective_c4_x": {"Points": [{"co": {"Y": -1, "X": 1}, "interpolation": 2}]}, "location_y": {"Points": [{"co": {"Y": 0, "X": 1}, "interpolation": 2}]}, "perspective_c2_x": {"Points": [{"co": {"Y": -1, "X": 1}, "interpolation": 2}]}, "layer": 0, "perspective_c2_y": {"Points": [{"co": {"Y": -1, "X": 1}, "interpolation": 2}]}, "perspective_c1_x": {"Points": [{"co": {"Y": -1, "X": 1}, "interpolation": 2}]}, "perspective_c4_y": {"Points": [{"co": {"Y": -1, "X": 1}, "interpolation": 2}]}, "reader": {"audio_bit_rate": 0, "has_single_image": false, "has_video": true, "type": "FFmpegReader", "video_length": "375", "audio_timebase": {"den": 1, "num": 1}, "path": "/home/robsen/Dropbox/Workdir/Repo/SuesseRache-HH-Taxi/taxi_start.mp4", "width": 1920, "has_audio": false, "video_bit_rate": 147692, "channel_layout": 4, "height": 1080, "display_ratio": {"den": 9, "num": 16}, "interlaced_frame": false, "video_timebase": {"den": 12800, "num": 1}, "duration": 15.0, "sample_rate": 0, "pixel_format": 0, "fps": {"den": 1, "num": 25}, "file_size": "276924", "top_field_first": true, "pixel_ratio": {"den": 1, "num": 1}, "acodec": "", "audio_stream_index": -1, "video_stream_index": 0, "channels": 0, "vcodec": "h264"}, "channel_filter": {"Points": [{"co": {"Y": -1, "X": 1}, "interpolation": 2}]}, "file_id": "LGW3TZJV4Q", "time": {"Points": [{"co": {"Y": 1, "X": 1}, "interpolation": 2}]}}, "key": ["clips"], "partial": false, "type": "insert"}, {"old_values": null, "value": {"id": "0AEDFYGQ7J", "start": 0, "end": 15, "position": 8.8, "layer": 0, "image": "/home/robsen/.openshot_qt/thumbnail/LGW3TZJV4Q.png"}, "key": ["clips", {"id": "0AEDFYGQ7J"}], "partial": false, "type": "update"}, {"old_values": null, "value": {"id": "0AEDFYGQ7J", "start": 0, "end": 15, "position": 8.8, "layer": 0, "image": "/home/robsen/.openshot_qt/thumbnail/LGW3TZJV4Q.png"}, "key": ["clips", {"id": "0AEDFYGQ7J"}], "partial": false, "type": "update"}, {"old_values": [{"alpha": {"Points": [{"co": {"Y": 1, "X": 1}, "interpolation": 2}]}, "rotation": {"Points": [{"co": {"Y": 0, "X": 1}, "interpolation": 2}]}, "scale_y": {"Points": [{"co": {"Y": 1, "X": 1}, "interpolation": 2}]}, "crop_y": {"Points": [{"co": {"Y": 0, "X": 1}, "interpolation": 2}]}, "perspective_c3_x": {"Points": [{"co": {"Y": -1, "X": 1}, "interpolation": 2}]}, "end": 15, "crop_width": {"Points": [{"co": {"Y": -1, "X": 1}, "interpolation": 2}]}, "position": 8.8, "id": "0AEDFYGQ7J", "wave_color": {"green": {"Points": [{"handle_right": {"Y": 0, "X": 0.5}, "co": {"Y": 123, "X": 1}, "handle_left": {"Y": 1, "X": 0.5}, "handle_type": 0, "interpolation": 0}]}, "blue": {"Points": [{"handle_right": {"Y": 0, "X": 0.5}, "co": {"Y": 255, "X": 1}, "handle_left": {"Y": 1, "X": 0.5}, "handle_type": 0, "interpolation": 0}]}, "alpha": {"Points": [{"handle_right": {"Y": 0, "X": 0.5}, "co": {"Y": 255, "X": 1}, "handle_left": {"Y": 1, "X": 0.5}, "handle_type": 0, "interpolation": 0}]}, "red": {"Points": [{"handle_right": {"Y": 0, "X": 0.5}, "co": {"Y": 0, "X": 1}, "handle_left": {"Y": 1, "X": 0.5}, "handle_type": 0, "interpolation": 0}]}}, "has_video": {"Points": [{"co": {"Y": -1, "X": 1}, "interpolation": 2}]}, "has_audio": {"Points": [{"co": {"Y": -1, "X": 1}, "interpolation": 2}]}, "effects": [], "location_x": {"Points": [{"co": {"Y": 0, "X": 1}, "interpolation": 2}]}, "waveform": false, "title": "taxi_start.mp4", "image": "/home/robsen/.openshot_qt/thumbnail/LGW3TZJV4Q.png", "gravity": 4, "perspective_c2_x": {"Points": [{"co": {"Y": -1, "X": 1}, "interpolation": 2}]}, "perspective_c1_y": {"Points": [{"co": {"Y": -1, "X": 1}, "interpolation": 2}]}, "crop_height": {"Points": [{"co": {"Y": -1, "X": 1}, "interpolation": 2}]}, "crop_x": {"Points": [{"co": {"Y": 0, "X": 1}, "interpolation": 2}]}, "start": 0, "scale": 1, "shear_y": {"Points": [{"co": {"Y": 0, "X": 1}, "interpolation": 2}]}, "display": 0, "volume": {"Points": [{"co": {"Y": 1, "X": 1}, "interpolation": 2}]}, "channel_mapping": {"Points": [{"co": {"Y": -1, "X": 1}, "interpolation": 2}]}, "anchor": 0, "duration": 15.0, "perspective_c3_y": {"Points": [{"co": {"Y": -1, "X": 1}, "interpolation": 2}]}, "shear_x": {"Points": [{"co": {"Y": 0, "X": 1}, "interpolation": 2}]}, "perspective_c4_x": {"Points": [{"co": {"Y": -1, "X": 1}, "interpolation": 2}]}, "location_y": {"Points": [{"co": {"Y": 0, "X": 1}, "interpolation": 2}]}, "scale_x": {"Points": [{"co": {"Y": 1, "X": 1}, "interpolation": 2}]}, "layer": 0, "perspective_c2_y": {"Points": [{"co": {"Y": -1, "X": 1}, "interpolation": 2}]}, "perspective_c1_x": {"Points": [{"co": {"Y": -1, "X": 1}, "interpolation": 2}]}, "perspective_c4_y": {"Points": [{"co": {"Y": -1, "X": 1}, "interpolation": 2}]}, "reader": {"audio_bit_rate": 0, "has_single_image": false, "vcodec": "h264", "has_video": true, "type": "FFmpegReader", "video_length": "375", "audio_timebase": {"den": 1, "num": 1}, "path": "/home/robsen/Dropbox/Workdir/Repo/SuesseRache-HH-Taxi/taxi_start.mp4", "width": 1920, "has_audio": false, "video_bit_rate": 147692, "channel_layout": 4, "height": 1080, "display_ratio": {"den": 9, "num": 16}, "interlaced_frame": false, "duration": 15.0, "sample_rate": 0, "pixel_format": 0, "video_timebase": {"den": 12800, "num": 1}, "file_size": "276924", "top_field_first": true, "pixel_ratio": {"den": 1, "num": 1}, "acodec": "", "audio_stream_index": -1, "video_stream_index": 0, "channels": 0, "fps": {"den": 1, "num": 25}}, "channel_filter": {"Points": [{"co": {"Y": -1, "X": 1}, "interpolation": 2}]}, "file_id": "LGW3TZJV4Q", "time": {"Points": [{"co": {"Y": 1, "X": 1}, "interpolation": 2}]}}], "value": {"alpha": {"Points": [{"co": {"Y": 1, "X": 1}, "interpolation": 2}]}, "rotation": {"Points": [{"co": {"Y": 0, "X": 1}, "interpolation": 2}]}, "scale_y": {"Points": [{"co": {"Y": 1, "X": 1}, "interpolation": 2}]}, "crop_y": {"Points": [{"co": {"Y": 0, "X": 1}, "interpolation": 2}]}, "perspective_c3_x": {"Points": [{"co": {"Y": -1, "X": 1}, "interpolation": 2}]}, "end": 31.317333221435547, "crop_width": {"Points": [{"co": {"Y": -1, "X": 1}, "interpolation": 2}]}, "position": 21.76, "id": "627XQDJ3EP", "wave_color": {"green": {"Points": [{"handle_right": {"Y": 0, "X": 0.5}, "co": {"Y": 123, "X": 1}, "handle_left": {"Y": 1, "X": 0.5}, "handle_type": 0, "interpolation": 0}]}, "blue": {"Points": [{"handle_right": {"Y": 0, "X": 0.5}, "co": {"Y": 255, "X": 1}, "handle_left": {"Y": 1, "X": 0.5}, "handle_type": 0, "interpolation": 0}]}, "alpha": {"Points": [{"handle_right": {"Y": 0, "X": 0.5}, "co": {"Y": 255, "X": 1}, "handle_left": {"Y": 1, "X": 0.5}, "handle_type": 0, "interpolation": 0}]}, "red": {"Points": [{"handle_right": {"Y": 0, "X": 0.5}, "co": {"Y": 0, "X": 1}, "handle_left": {"Y": 1, "X": 0.5}, "handle_type": 0, "interpolation": 0}]}}, "has_video": {"Points": [{"co": {"Y": -1, "X": 1}, "interpolation": 2}]}, "has_audio": {"Points": [{"co": {"Y": -1, "X": 1}, "interpolation": 2}]}, "effects": [], "location_x": {"Points": [{"co": {"Y": 0, "X": 1}, "interpolation": 2}]}, "waveform": false, "title": "TE_SR_Taxi.mp4", "image": "/home/robsen/.openshot_qt/thumbnail/Z3LOYBY1PL.png", "gravity": 4, "scale_x": {"Points": [{"co": {"Y": 1, "X": 1}, "interpolation": 2}]}, "perspective_c1_y": {"Points": [{"co": {"Y": -1, "X": 1}, "interpolation": 2}]}, "crop_height": {"Points": [{"co": {"Y": -1, "X": 1}, "interpolation": 2}]}, "crop_x": {"Points": [{"co": {"Y": 0, "X": 1}, "interpolation": 2}]}, "start": 0, "scale": 1, "shear_y": {"Points": [{"co": {"Y": 0, "X": 1}, "interpolation": 2}]}, "display": 0, "volume": {"Points": [{"co": {"Y": 1, "X": 1}, "interpolation": 2}]}, "channel_mapping": {"Points": [{"co": {"Y": -1, "X": 1}, "interpolation": 2}]}, "anchor": 0, "duration": 31.317333221435547, "perspective_c3_y": {"Points": [{"co": {"Y": -1, "X": 1}, "interpolation": 2}]}, "shear_x": {"Points": [{"co": {"Y": 0, "X": 1}, "interpolation": 2}]}, "perspective_c4_x": {"Points": [{"co": {"Y": -1, "X": 1}, "interpolation": 2}]}, "location_y": {"Points": [{"co": {"Y": 0, "X": 1}, "interpolation": 2}]}, "perspective_c2_x": {"Points": [{"co": {"Y": -1, "X": 1}, "interpolation": 2}]}, "layer": 1, "perspective_c2_y": {"Points": [{"co": {"Y": -1, "X": 1}, "interpolation": 2}]}, "perspective_c1_x": {"Points": [{"co": {"Y": -1, "X": 1}, "interpolation": 2}]}, "perspective_c4_y": {"Points": [{"co": {"Y": -1, "X": 1}, "interpolation": 2}]}, "reader": {"audio_bit_rate": 189375, "has_single_image": false, "has_video": true, "type": "FFmpegReader", "video_length": "937", "audio_timebase": {"den": 48000, "num": 1}, "path": "/home/robsen/Dropbox/Workdir/Repo/SuesseRache-HH-Taxi/TE_SR_Taxi.mp4", "width": 1920, "has_audio": true, "video_bit_rate": 32091692, "channel_layout": 3, "height": 1080, "display_ratio": {"den": 9, "num": 16}, "interlaced_frame": false, "video_timebase": {"den": 29970, "num": 1}, "duration": 31.317333221435547, "sample_rate": 48000, "pixel_format": 0, "fps": {"den": 100, "num": 2997}, "file_size": "125628279", "top_field_first": true, "pixel_ratio": {"den": 1, "num": 1}, "acodec": "aac", "audio_stream_index": 1, "video_stream_index": 0, "channels": 2, "vcodec": "h264"}, "channel_filter": {"Points": [{"co": {"Y": -1, "X": 1}, "interpolation": 2}]}, "file_id": "Z3LOYBY1PL", "time": {"Points": [{"co": {"Y": 1, "X": 1}, "interpolation": 2}]}}, "key": ["clips"], "partial": false, "type": "insert"}, {"old_values": {"alpha": {"Points": [{"co": {"Y": 1, "X": 1}, "interpolation": 2}]}, "rotation": {"Points": [{"co": {"Y": 0, "X": 1}, "interpolation": 2}]}, "scale_y": {"Points": [{"co": {"Y": 1, "X": 1}, "interpolation": 2}]}, "crop_y": {"Points": [{"co": {"Y": 0, "X": 1}, "interpolation": 2}]}, "perspective_c3_x": {"Points": [{"co": {"Y": -1, "X": 1}, "interpolation": 2}]}, "end": 31.317333221435547, "crop_width": {"Points": [{"co": {"Y": -1, "X": 1}, "interpolation": 2}]}, "position": 18.88, "id": "627XQDJ3EP", "wave_color": {"green": {"Points": [{"handle_right": {"Y": 0, "X": 0.5}, "co": {"Y": 123, "X": 1}, "handle_left": {"Y": 1, "X": 0.5}, "handle_type": 0, "interpolation": 0}]}, "blue": {"Points": [{"handle_right": {"Y": 0, "X": 0.5}, "co": {"Y": 255, "X": 1}, "handle_left": {"Y": 1, "X": 0.5}, "handle_type": 0, "interpolation": 0}]}, "alpha": {"Points": [{"handle_right": {"Y": 0, "X": 0.5}, "co": {"Y": 255, "X": 1}, "handle_left": {"Y": 1, "X": 0.5}, "handle_type": 0, "interpolation": 0}]}, "red": {"Points": [{"handle_right": {"Y": 0, "X": 0.5}, "co": {"Y": 0, "X": 1}, "handle_left": {"Y": 1, "X": 0.5}, "handle_type": 0, "interpolation": 0}]}}, "has_video": {"Points": [{"co": {"Y": -1, "X": 1}, "interpolation": 2}]}, "has_audio": {"Points": [{"co": {"Y": -1, "X": 1}, "interpolation": 2}]}, "effects": [], "location_x": {"Points": [{"co": {"Y": 0, "X": 1}, "interpolation": 2}]}, "waveform": false, "title": "TE_SR_Taxi.mp4", "image": "/home/robsen/.openshot_qt/thumbnail/Z3LOYBY1PL.png", "gravity": 4, "scale_x": {"Points": [{"co": {"Y": 1, "X": 1}, "interpolation": 2}]}, "perspective_c1_y": {"Points": [{"co": {"Y": -1, "X": 1}, "interpolation": 2}]}, "crop_height": {"Points": [{"co": {"Y": -1, "X": 1}, "interpolation": 2}]}, "crop_x": {"Points": [{"co": {"Y": 0, "X": 1}, "interpolation": 2}]}, "start": 0, "scale": 1, "shear_y": {"Points": [{"co": {"Y": 0, "X": 1}, "interpolation": 2}]}, "display": 0, "volume": {"Points": [{"co": {"Y": 1, "X": 1}, "interpolation": 2}]}, "channel_mapping": {"Points": [{"co": {"Y": -1, "X": 1}, "interpolation": 2}]}, "anchor": 0, "duration": 31.317333221435547, "perspective_c3_y": {"Points": [{"co": {"Y": -1, "X": 1}, "interpolation": 2}]}, "shear_x": {"Points": [{"co": {"Y": 0, "X": 1}, "interpolation": 2}]}, "perspective_c4_x": {"Points": [{"co": {"Y": -1, "X": 1}, "interpolation": 2}]}, "location_y": {"Points": [{"co": {"Y": 0, "X": 1}, "interpolation": 2}]}, "perspective_c2_x": {"Points": [{"co": {"Y": -1, "X": 1}, "interpolation": 2}]}, "layer": 2, "perspective_c2_y": {"Points": [{"co": {"Y": -1, "X": 1}, "interpolation": 2}]}, "perspective_c1_x": {"Points": [{"co": {"Y": -1, "X": 1}, "interpolation": 2}]}, "perspective_c4_y": {"Points": [{"co": {"Y": -1, "X": 1}, "interpolation": 2}]}, "reader": {"audio_bit_rate": 189375, "has_single_image": false, "vcodec": "h264", "has_video": true, "type": "FFmpegReader", "video_length": "937", "audio_timebase": {"den": 48000, "num": 1}, "path": "/home/robsen/Dropbox/Workdir/Repo/SuesseRache-HH-Taxi/TE_SR_Taxi.mp4", "width": 1920, "has_audio": true, "video_bit_rate": 32091692, "channel_layout": 3, "height": 1080, "display_ratio": {"den": 9, "num": 16}, "interlaced_frame": false, "duration": 31.317333221435547, "sample_rate": 48000, "pixel_format": 0, "video_timebase": {"den": 29970, "num": 1}, "file_size": "125628279", "top_field_first": true, "pixel_ratio": {"den": 1, "num": 1}, "acodec": "aac", "audio_stream_index": 1, "video_stream_index": 0, "channels": 2, "fps": {"den": 100, "num": 2997}}, "channel_filter": {"Points": [{"co": {"Y": -1, "X": 1}, "interpolation": 2}]}, "file_id": "Z3LOYBY1PL", "time": {"Points": [{"co": {"Y": 1, "X": 1}, "interpolation": 2}]}}, "value": {"id": "627XQDJ3EP", "start": 0, "end": 31.317333221435547, "position": 21.76, "layer": 0, "image": "/home/robsen/.openshot_qt/thumbnail/Z3LOYBY1PL.png"}, "key": ["clips", {"id": "627XQDJ3EP"}], "partial": false, "type": "update"}, {"old_values": [], "value": {"start": 0, "type": "Mask", "contrast": {"Points": [{"co": {"Y": 3, "X": 1}, "interpolation": 2}]}, "layer": 0, "replace_image": false, "title": "Transition", "end": 2.039999999999999, "reader": {"audio_bit_rate": 0, "has_single_image": true, "has_video": true, "type": "QtImageReader", "video_length": "2592000", "audio_timebase": {"den": 1, "num": 1}, "path": "/usr/lib/python3/dist-packages/openshot_qt/transitions/common/fade.svg", "width": 720, "has_audio": false, "video_bit_rate": 0, "channel_layout": 4, "height": 576, "display_ratio": {"den": 4, "num": 5}, "interlaced_frame": false, "video_timebase": {"den": 30, "num": 1}, "duration": 86400, "sample_rate": 0, "pixel_format": -1, "fps": {"den": 1, "num": 30}, "file_size": "1658880", "top_field_first": true, "pixel_ratio": {"den": 1, "num": 1}, "acodec": "", "audio_stream_index": -1, "video_stream_index": -1, "channels": 0, "vcodec": ""}, "brightness": {"Points": [{"handle_right": {"Y": 0, "X": 0.5}, "co": {"Y": 1, "X": 1}, "handle_left": {"Y": 1, "X": 0.5}, "handle_type": 0, "interpolation": 0}, {"handle_right": {"Y": 0, "X": 0.5}, "co": {"Y": -1, "X": 50}, "handle_left": {"Y": 1, "X": 0.5}, "handle_type": 0, "interpolation": 0}]}, "id": "5NBS5H99MA", "position": 21.76}, "key": ["effects"], "partial": false, "type": "insert"}, {"old_values": {"alpha": {"Points": [{"co": {"Y": 1, "X": 1}, "interpolation": 2}]}, "rotation": {"Points": [{"co": {"Y": 0, "X": 1}, "interpolation": 2}]}, "scale_y": {"Points": [{"co": {"Y": 1, "X": 1}, "interpolation": 2}]}, "crop_y": {"Points": [{"co": {"Y": 0, "X": 1}, "interpolation": 2}]}, "perspective_c3_x": {"Points": [{"co": {"Y": -1, "X": 1}, "interpolation": 2}]}, "end": 31.317333221435547, "crop_width": {"Points": [{"co": {"Y": -1, "X": 1}, "interpolation": 2}]}, "position": 21.76, "id": "627XQDJ3EP", "wave_color": {"green": {"Points": [{"handle_right": {"Y": 0, "X": 0.5}, "co": {"Y": 123, "X": 1}, "handle_left": {"Y": 1, "X": 0.5}, "handle_type": 0, "interpolation": 0}]}, "blue": {"Points": [{"handle_right": {"Y": 0, "X": 0.5}, "co": {"Y": 255, "X": 1}, "handle_left": {"Y": 1, "X": 0.5}, "handle_type": 0, "interpolation": 0}]}, "alpha": {"Points": [{"handle_right": {"Y": 0, "X": 0.5}, "co": {"Y": 255, "X": 1}, "handle_left": {"Y": 1, "X": 0.5}, "handle_type": 0, "interpolation": 0}]}, "red": {"Points": [{"handle_right": {"Y": 0, "X": 0.5}, "co": {"Y": 0, "X": 1}, "handle_left": {"Y": 1, "X": 0.5}, "handle_type": 0, "interpolation": 0}]}}, "has_video": {"Points": [{"co": {"Y": -1, "X": 1}, "interpolation": 2}]}, "has_audio": {"Points": [{"co": {"Y": -1, "X": 1}, "interpolation": 2}]}, "effects": [], "location_x": {"Points": [{"co": {"Y": 0, "X": 1}, "interpolation": 2}]}, "waveform": false, "title": "TE_SR_Taxi.mp4", "image": "/home/robsen/.openshot_qt/thumbnail/Z3LOYBY1PL.png", "gravity": 4, "perspective_c2_x": {"Points": [{"co": {"Y": -1, "X": 1}, "interpolation": 2}]}, "perspective_c1_y": {"Points": [{"co": {"Y": -1, "X": 1}, "interpolation": 2}]}, "crop_height": {"Points": [{"co": {"Y": -1, "X": 1}, "interpolation": 2}]}, "crop_x": {"Points": [{"co": {"Y": 0, "X": 1}, "interpolation": 2}]}, "start": 0, "scale": 1, "shear_y": {"Points": [{"co": {"Y": 0, "X": 1}, "interpolation": 2}]}, "display": 0, "volume": {"Points": [{"co": {"Y": 1, "X": 1}, "interpolation": 2}]}, "channel_mapping": {"Points": [{"co": {"Y": -1, "X": 1}, "interpolation": 2}]}, "anchor": 0, "duration": 31.317333221435547, "perspective_c3_y": {"Points": [{"co": {"Y": -1, "X": 1}, "interpolation": 2}]}, "shear_x": {"Points": [{"co": {"Y": 0, "X": 1}, "interpolation": 2}]}, "perspective_c4_x": {"Points": [{"co": {"Y": -1, "X": 1}, "interpolation": 2}]}, "location_y": {"Points": [{"co": {"Y": 0, "X": 1}, "interpolation": 2}]}, "scale_x": {"Points": [{"co": {"Y": 1, "X": 1}, "interpolation": 2}]}, "layer": 0, "perspective_c2_y": {"Points": [{"co": {"Y": -1, "X": 1}, "interpolation": 2}]}, "perspective_c1_x": {"Points": [{"co": {"Y": -1, "X": 1}, "interpolation": 2}]}, "perspective_c4_y": {"Points": [{"co": {"Y": -1, "X": 1}, "interpolation": 2}]}, "reader": {"audio_bit_rate": 189375, "has_single_image": false, "vcodec": "h264", "has_video": true, "type": "FFmpegReader", "video_length": "937", "audio_timebase": {"den": 48000, "num": 1}, "path": "/home/robsen/Dropbox/Workdir/Repo/SuesseRache-HH-Taxi/TE_SR_Taxi.mp4", "width": 1920, "has_audio": true, "video_bit_rate": 32091692, "channel_layout": 3, "height": 1080, "display_ratio": {"den": 9, "num": 16}, "interlaced_frame": false, "duration": 31.317333221435547, "sample_rate": 48000, "pixel_format": 0, "video_timebase": {"den": 29970, "num": 1}, "file_size": "125628279", "top_field_first": true, "pixel_ratio": {"den": 1, "num": 1}, "acodec": "aac", "audio_stream_index": 1, "video_stream_index": 0, "channels": 2, "fps": {"den": 100, "num": 2997}}, "channel_filter": {"Points": [{"co": {"Y": -1, "X": 1}, "interpolation": 2}]}, "file_id": "Z3LOYBY1PL", "time": {"Points": [{"co": {"Y": 1, "X": 1}, "interpolation": 2}]}}, "value": {"id": "627XQDJ3EP", "start": 0, "end": 31.317333221435547, "position": 21.76, "layer": 1, "image": "/home/robsen/.openshot_qt/thumbnail/Z3LOYBY1PL.png"}, "key": ["clips", {"id": "627XQDJ3EP"}], "partial": false, "type": "update"}, {"old_values": [{"alpha": {"Points": [{"co": {"Y": 1, "X": 1}, "interpolation": 2}]}, "rotation": {"Points": [{"co": {"Y": 0, "X": 1}, "interpolation": 2}]}, "scale_y": {"Points": [{"co": {"Y": 1, "X": 1}, "interpolation": 2}]}, "crop_y": {"Points": [{"co": {"Y": 0, "X": 1}, "interpolation": 2}]}, "perspective_c3_x": {"Points": [{"co": {"Y": -1, "X": 1}, "interpolation": 2}]}, "end": 15, "crop_width": {"Points": [{"co": {"Y": -1, "X": 1}, "interpolation": 2}]}, "position": 8.8, "id": "0AEDFYGQ7J", "wave_color": {"green": {"Points": [{"handle_right": {"Y": 0, "X": 0.5}, "co": {"Y": 123, "X": 1}, "handle_left": {"Y": 1, "X": 0.5}, "handle_type": 0, "interpolation": 0}]}, "blue": {"Points": [{"handle_right": {"Y": 0, "X": 0.5}, "co": {"Y": 255, "X": 1}, "handle_left": {"Y": 1, "X": 0.5}, "handle_type": 0, "interpolation": 0}]}, "alpha": {"Points": [{"handle_right": {"Y": 0, "X": 0.5}, "co": {"Y": 255, "X": 1}, "handle_left": {"Y": 1, "X": 0.5}, "handle_type": 0, "interpolation": 0}]}, "red": {"Points": [{"handle_right": {"Y": 0, "X": 0.5}, "co": {"Y": 0, "X": 1}, "handle_left": {"Y": 1, "X": 0.5}, "handle_type": 0, "interpolation": 0}]}}, "has_video": {"Points": [{"co": {"Y": -1, "X": 1}, "interpolation": 2}]}, "has_audio": {"Points": [{"co": {"Y": -1, "X": 1}, "interpolation": 2}]}, "effects": [], "location_x": {"Points": [{"co": {"Y": 0, "X": 1}, "interpolation": 2}]}, "waveform": false, "title": "taxi_start.mp4", "image": "/home/robsen/.openshot_qt/thumbnail/LGW3TZJV4Q.png", "gravity": 4, "perspective_c2_x": {"Points": [{"co": {"Y": -1, "X": 1}, "interpolation": 2}]}, "perspective_c1_y": {"Points": [{"co": {"Y": -1, "X": 1}, "interpolation": 2}]}, "crop_height": {"Points": [{"co": {"Y": -1, "X": 1}, "interpolation": 2}]}, "crop_x": {"Points": [{"co": {"Y": 0, "X": 1}, "interpolation": 2}]}, "start": 0, "scale": 1, "shear_y": {"Points": [{"co": {"Y": 0, "X": 1}, "interpolation": 2}]}, "display": 0, "volume": {"Points": [{"co": {"Y": 1, "X": 1}, "interpolation": 2}]}, "channel_mapping": {"Points": [{"co": {"Y": -1, "X": 1}, "interpolation": 2}]}, "anchor": 0, "duration": 15.0, "perspective_c3_y": {"Points": [{"co": {"Y": -1, "X": 1}, "interpolation": 2}]}, "shear_x": {"Points": [{"co": {"Y": 0, "X": 1}, "interpolation": 2}]}, "perspective_c4_x": {"Points": [{"co": {"Y": -1, "X": 1}, "interpolation": 2}]}, "location_y": {"Points": [{"co": {"Y": 0, "X": 1}, "interpolation": 2}]}, "scale_x": {"Points": [{"co": {"Y": 1, "X": 1}, "interpolation": 2}]}, "layer": 0, "perspective_c2_y": {"Points": [{"co": {"Y": -1, "X": 1}, "interpolation": 2}]}, "perspective_c1_x": {"Points": [{"co": {"Y": -1, "X": 1}, "interpolation": 2}]}, "perspective_c4_y": {"Points": [{"co": {"Y": -1, "X": 1}, "interpolation": 2}]}, "reader": {"audio_bit_rate": 0, "has_single_image": false, "vcodec": "h264", "has_video": true, "type": "FFmpegReader", "video_length": "375", "audio_timebase": {"den": 1, "num": 1}, "path": "/home/robsen/Dropbox/Workdir/Repo/SuesseRache-HH-Taxi/taxi_start.mp4", "width": 1920, "has_audio": false, "video_bit_rate": 147692, "channel_layout": 4, "height": 1080, "display_ratio": {"den": 9, "num": 16}, "interlaced_frame": false, "duration": 15.0, "sample_rate": 0, "pixel_format": 0, "video_timebase": {"den": 12800, "num": 1}, "file_size": "276924", "top_field_first": true, "pixel_ratio": {"den": 1, "num": 1}, "acodec": "", "audio_stream_index": -1, "video_stream_index": 0, "channels": 0, "fps": {"den": 1, "num": 25}}, "channel_filter": {"Points": [{"co": {"Y": -1, "X": 1}, "interpolation": 2}]}, "file_id": "LGW3TZJV4Q", "time": {"Points": [{"co": {"Y": 1, "X": 1}, "interpolation": 2}]}}, {"alpha": {"Points": [{"co": {"Y": 1, "X": 1}, "interpolation": 2}]}, "rotation": {"Points": [{"co": {"Y": 0, "X": 1}, "interpolation": 2}]}, "scale_y": {"Points": [{"co": {"Y": 1, "X": 1}, "interpolation": 2}]}, "crop_y": {"Points": [{"co": {"Y": 0, "X": 1}, "interpolation": 2}]}, "perspective_c3_x": {"Points": [{"co": {"Y": -1, "X": 1}, "interpolation": 2}]}, "end": 31.317333221435547, "crop_width": {"Points": [{"co": {"Y": -1, "X": 1}, "interpolation": 2}]}, "position": 21.76, "id": "627XQDJ3EP", "wave_color": {"green": {"Points": [{"handle_right": {"Y": 0, "X": 0.5}, "co": {"Y": 123, "X": 1}, "handle_left": {"Y": 1, "X": 0.5}, "handle_type": 0, "interpolation": 0}]}, "blue": {"Points": [{"handle_right": {"Y": 0, "X": 0.5}, "co": {"Y": 255, "X": 1}, "handle_left": {"Y": 1, "X": 0.5}, "handle_type": 0, "interpolation": 0}]}, "alpha": {"Points": [{"handle_right": {"Y": 0, "X": 0.5}, "co": {"Y": 255, "X": 1}, "handle_left": {"Y": 1, "X": 0.5}, "handle_type": 0, "interpolation": 0}]}, "red": {"Points": [{"handle_right": {"Y": 0, "X": 0.5}, "co": {"Y": 0, "X": 1}, "handle_left": {"Y": 1, "X": 0.5}, "handle_type": 0, "interpolation": 0}]}}, "has_video": {"Points": [{"co": {"Y": -1, "X": 1}, "interpolation": 2}]}, "has_audio": {"Points": [{"co": {"Y": -1, "X": 1}, "interpolation": 2}]}, "effects": [], "location_x": {"Points": [{"co": {"Y": 0, "X": 1}, "interpolation": 2}]}, "waveform": false, "title": "TE_SR_Taxi.mp4", "image": "/home/robsen/.openshot_qt/thumbnail/Z3LOYBY1PL.png", "gravity": 4, "perspective_c2_x": {"Points": [{"co": {"Y": -1, "X": 1}, "interpolation": 2}]}, "perspective_c1_y": {"Points": [{"co": {"Y": -1, "X": 1}, "interpolation": 2}]}, "crop_height": {"Points": [{"co": {"Y": -1, "X": 1}, "interpolation": 2}]}, "crop_x": {"Points": [{"co": {"Y": 0, "X": 1}, "interpolation": 2}]}, "start": 0, "scale": 1, "shear_y": {"Points": [{"co": {"Y": 0, "X": 1}, "interpolation": 2}]}, "display": 0, "volume": {"Points": [{"co": {"Y": 1, "X": 1}, "interpolation": 2}]}, "channel_mapping": {"Points": [{"co": {"Y": -1, "X": 1}, "interpolation": 2}]}, "anchor": 0, "duration": 31.317333221435547, "perspective_c3_y": {"Points": [{"co": {"Y": -1, "X": 1}, "interpolation": 2}]}, "shear_x": {"Points": [{"co": {"Y": 0, "X": 1}, "interpolation": 2}]}, "perspective_c4_x": {"Points": [{"co": {"Y": -1, "X": 1}, "interpolation": 2}]}, "location_y": {"Points": [{"co": {"Y": 0, "X": 1}, "interpolation": 2}]}, "scale_x": {"Points": [{"co": {"Y": 1, "X": 1}, "interpolation": 2}]}, "layer": 1, "perspective_c2_y": {"Points": [{"co": {"Y": -1, "X": 1}, "interpolation": 2}]}, "perspective_c1_x": {"Points": [{"co": {"Y": -1, "X": 1}, "interpolation": 2}]}, "perspective_c4_y": {"Points": [{"co": {"Y": -1, "X": 1}, "interpolation": 2}]}, "reader": {"audio_bit_rate": 189375, "has_single_image": false, "vcodec": "h264", "has_video": true, "type": "FFmpegReader", "video_length": "937", "audio_timebase": {"den": 48000, "num": 1}, "path": "/home/robsen/Dropbox/Workdir/Repo/SuesseRache-HH-Taxi/TE_SR_Taxi.mp4", "width": 1920, "has_audio": true, "video_bit_rate": 32091692, "channel_layout": 3, "height": 1080, "display_ratio": {"den": 9, "num": 16}, "interlaced_frame": false, "duration": 31.317333221435547, "sample_rate": 48000, "pixel_format": 0, "video_timebase": {"den": 29970, "num": 1}, "file_size": "125628279", "top_field_first": true, "pixel_ratio": {"den": 1, "num": 1}, "acodec": "aac", "audio_stream_index": 1, "video_stream_index": 0, "channels": 2, "fps": {"den": 100, "num": 2997}}, "channel_filter": {"Points": [{"co": {"Y": -1, "X": 1}, "interpolation": 2}]}, "file_id": "Z3LOYBY1PL", "time": {"Points": [{"co": {"Y": 1, "X": 1}, "interpolation": 2}]}}], "value": {"alpha": {"Points": [{"co": {"Y": 1, "X": 1}, "interpolation": 2}, {"handle_right": {"Y": 0, "X": 0.5}, "co": {"Y": 0, "X": 1}, "handle_left": {"Y": 1, "X": 0.5}, "handle_type": 0, "interpolation": 0}, {"handle_right": {"Y": 0, "X": 0.5}, "co": {"Y": 1, "X": 73}, "handle_left": {"Y": 1, "X": 0.5}, "handle_type": 0, "interpolation": 0}]}, "rotation": {"Points": [{"co": {"Y": 0, "X": 1}, "interpolation": 2}]}, "scale_y": {"Points": [{"co": {"Y": 1, "X": 1}, "interpolation": 2}]}, "crop_y": {"Points": [{"co": {"Y": 0, "X": 1}, "interpolation": 2}]}, "perspective_c3_x": {"Points": [{"co": {"Y": -1, "X": 1}, "interpolation": 2}]}, "end": 15, "crop_width": {"Points": [{"co": {"Y": -1, "X": 1}, "interpolation": 2}]}, "position": 53.075, "id": "PJWPMFXKV3", "wave_color": {"green": {"Points": [{"handle_right": {"Y": 0, "X": 0.5}, "co": {"Y": 123, "X": 1}, "handle_left": {"Y": 1, "X": 0.5}, "handle_type": 0, "interpolation": 0}]}, "blue": {"Points": [{"handle_right": {"Y": 0, "X": 0.5}, "co": {"Y": 255, "X": 1}, "handle_left": {"Y": 1, "X": 0.5}, "handle_type": 0, "interpolation": 0}]}, "alpha": {"Points": [{"handle_right": {"Y": 0, "X": 0.5}, "co": {"Y": 255, "X": 1}, "handle_left": {"Y": 1, "X": 0.5}, "handle_type": 0, "interpolation": 0}]}, "red": {"Points": [{"handle_right": {"Y": 0, "X": 0.5}, "co": {"Y": 0, "X": 1}, "handle_left": {"Y": 1, "X": 0.5}, "handle_type": 0, "interpolation": 0}]}}, "has_video": {"Points": [{"co": {"Y": -1, "X": 1}, "interpolation": 2}]}, "has_audio": {"Points": [{"co": {"Y": -1, "X": 1}, "interpolation": 2}]}, "effects": [], "location_x": {"Points": [{"co": {"Y": 0, "X": 1}, "interpolation": 2}]}, "waveform": false, "title": "arrow.mp4", "image": "/home/robsen/.openshot_qt/thumbnail/X22V56NF57.png", "gravity": 4, "scale_x": {"Points": [{"co": {"Y": 1, "X": 1}, "interpolation": 2}]}, "perspective_c1_y": {"Points": [{"co": {"Y": -1, "X": 1}, "interpolation": 2}]}, "crop_height": {"Points": [{"co": {"Y": -1, "X": 1}, "interpolation": 2}]}, "crop_x": {"Points": [{"co": {"Y": 0, "X": 1}, "interpolation": 2}]}, "start": 0, "scale": 1, "shear_y": {"Points": [{"co": {"Y": 0, "X": 1}, "interpolation": 2}]}, "display": 0, "volume": {"Points": [{"co": {"Y": 1, "X": 1}, "interpolation": 2}]}, "channel_mapping": {"Points": [{"co": {"Y": -1, "X": 1}, "interpolation": 2}]}, "anchor": 0, "duration": 15.0, "perspective_c3_y": {"Points": [{"co": {"Y": -1, "X": 1}, "interpolation": 2}]}, "shear_x": {"Points": [{"co": {"Y": 0, "X": 1}, "interpolation": 2}]}, "perspective_c4_x": {"Points": [{"co": {"Y": -1, "X": 1}, "interpolation": 2}]}, "location_y": {"Points": [{"co": {"Y": 0, "X": 1}, "interpolation": 2}]}, "perspective_c2_x": {"Points": [{"co": {"Y": -1, "X": 1}, "interpolation": 2}]}, "layer": 2, "perspective_c2_y": {"Points": [{"co": {"Y": -1, "X": 1}, "interpolation": 2}]}, "perspective_c1_x": {"Points": [{"co": {"Y": -1, "X": 1}, "interpolation": 2}]}, "perspective_c4_y": {"Points": [{"co": {"Y": -1, "X": 1}, "interpolation": 2}]}, "reader": {"audio_bit_rate": 0, "has_single_image": false, "has_video": true, "type": "FFmpegReader", "video_length": "375", "audio_timebase": {"den": 1, "num": 1}, "path": "/home/robsen/Dropbox/Workdir/Repo/SuesseRache-HH-Taxi/arrow.mp4", "width": 1920, "has_audio": false, "video_bit_rate": 83079, "channel_layout": 4, "height": 1080, "display_ratio": {"den": 9, "num": 16}, "interlaced_frame": false, "video_timebase": {"den": 12800, "num": 1}, "duration": 15.0, "sample_rate": 0, "pixel_format": 0, "fps": {"den": 1, "num": 25}, "file_size": "155774", "top_field_first": true, "pixel_ratio": {"den": 1, "num": 1}, "acodec": "", "audio_stream_index": -1, "video_stream_index": 0, "channels": 0, "vcodec": "h264"}, "channel_filter": {"Points": [{"co": {"Y": -1, "X": 1}, "interpolation": 2}]}, "file_id": "X22V56NF57", "time": {"Points": [{"co": {"Y": 1, "X": 1}, "interpolation": 2}]}}, "key": ["clips"], "partial": false, "type": "insert"}, {"old_values": {"alpha": {"Points": [{"co": {"Y": 1, "X": 1}, "interpolation": 2}]}, "rotation": {"Points": [{"co": {"Y": 0, "X": 1}, "interpolation": 2}]}, "scale_y": {"Points": [{"co": {"Y": 1, "X": 1}, "interpolation": 2}]}, "crop_y": {"Points": [{"co": {"Y": 0, "X": 1}, "interpolation": 2}]}, "perspective_c3_x": {"Points": [{"co": {"Y": -1, "X": 1}, "interpolation": 2}]}, "end": 15.0, "crop_width": {"Points": [{"co": {"Y": -1, "X": 1}, "interpolation": 2}]}, "position": 62.88, "id": "PJWPMFXKV3", "wave_color": {"green": {"Points": [{"handle_right": {"Y": 0, "X": 0.5}, "co": {"Y": 123, "X": 1}, "handle_left": {"Y": 1, "X": 0.5}, "handle_type": 0, "interpolation": 0}]}, "blue": {"Points": [{"handle_right": {"Y": 0, "X": 0.5}, "co": {"Y": 255, "X": 1}, "handle_left": {"Y": 1, "X": 0.5}, "handle_type": 0, "interpolation": 0}]}, "alpha": {"Points": [{"handle_right": {"Y": 0, "X": 0.5}, "co": {"Y": 255, "X": 1}, "handle_left": {"Y": 1, "X": 0.5}, "handle_type": 0, "interpolation": 0}]}, "red": {"Points": [{"handle_right": {"Y": 0, "X": 0.5}, "co": {"Y": 0, "X": 1}, "handle_left": {"Y": 1, "X": 0.5}, "handle_type": 0, "interpolation": 0}]}}, "has_video": {"Points": [{"co": {"Y": -1, "X": 1}, "interpolation": 2}]}, "has_audio": {"Points": [{"co": {"Y": -1, "X": 1}, "interpolation": 2}]}, "effects": [], "location_x": {"Points": [{"co": {"Y": 0, "X": 1}, "interpolation": 2}]}, "waveform": false, "title": "arrow.mp4", "image": "/home/robsen/.openshot_qt/thumbnail/X22V56NF57.png", "gravity": 4, "scale_x": {"Points": [{"co": {"Y": 1, "X": 1}, "interpolation": 2}]}, "perspective_c1_y": {"Points": [{"co": {"Y": -1, "X": 1}, "interpolation": 2}]}, "crop_height": {"Points": [{"co": {"Y": -1, "X": 1}, "interpolation": 2}]}, "crop_x": {"Points": [{"co": {"Y": 0, "X": 1}, "interpolation": 2}]}, "start": 0, "scale": 1, "shear_y": {"Points": [{"co": {"Y": 0, "X": 1}, "interpolation": 2}]}, "display": 0, "volume": {"Points": [{"co": {"Y": 1, "X": 1}, "interpolation": 2}]}, "channel_mapping": {"Points": [{"co": {"Y": -1, "X": 1}, "interpolation": 2}]}, "anchor": 0, "duration": 15.0, "perspective_c3_y": {"Points": [{"co": {"Y": -1, "X": 1}, "interpolation": 2}]}, "shear_x": {"Points": [{"co": {"Y": 0, "X": 1}, "interpolation": 2}]}, "perspective_c4_x": {"Points": [{"co": {"Y": -1, "X": 1}, "interpolation": 2}]}, "location_y": {"Points": [{"co": {"Y": 0, "X": 1}, "interpolation": 2}]}, "perspective_c2_x": {"Points": [{"co": {"Y": -1, "X": 1}, "interpolation": 2}]}, "layer": 2, "perspective_c2_y": {"Points": [{"co": {"Y": -1, "X": 1}, "interpolation": 2}]}, "perspective_c1_x": {"Points": [{"co": {"Y": -1, "X": 1}, "interpolation": 2}]}, "perspective_c4_y": {"Points": [{"co": {"Y": -1, "X": 1}, "interpolation": 2}]}, "reader": {"audio_bit_rate": 0, "has_single_image": false, "vcodec": "h264", "has_video": true, "type": "FFmpegReader", "video_length": "375", "audio_timebase": {"den": 1, "num": 1}, "path": "/home/robsen/Dropbox/Workdir/Repo/SuesseRache-HH-Taxi/arrow.mp4", "width": 1920, "has_audio": false, "video_bit_rate": 83079, "channel_layout": 4, "height": 1080, "display_ratio": {"den": 9, "num": 16}, "interlaced_frame": false, "duration": 15.0, "sample_rate": 0, "pixel_format": 0, "video_timebase": {"den": 12800, "num": 1}, "file_size": "155774", "top_field_first": true, "pixel_ratio": {"den": 1, "num": 1}, "acodec": "", "audio_stream_index": -1, "video_stream_index": 0, "channels": 0, "fps": {"den": 1, "num": 25}}, "channel_filter": {"Points": [{"co": {"Y": -1, "X": 1}, "interpolation": 2}]}, "file_id": "X22V56NF57", "time": {"Points": [{"co": {"Y": 1, "X": 1}, "interpolation": 2}]}}, "value": {"id": "PJWPMFXKV3", "start": 0, "end": 15, "position": 63.04, "layer": 1, "image": "/home/robsen/.openshot_qt/thumbnail/X22V56NF57.png"}, "key": ["clips", {"id": "PJWPMFXKV3"}], "partial": false, "type": "update"}, {"old_values": {"alpha": {"Points": [{"co": {"Y": 1, "X": 1}, "interpolation": 2}]}, "rotation": {"Points": [{"co": {"Y": 0, "X": 1}, "interpolation": 2}]}, "scale_y": {"Points": [{"co": {"Y": 1, "X": 1}, "interpolation": 2}]}, "crop_y": {"Points": [{"co": {"Y": 0, "X": 1}, "interpolation": 2}]}, "perspective_c3_x": {"Points": [{"co": {"Y": -1, "X": 1}, "interpolation": 2}]}, "end": 15, "crop_width": {"Points": [{"co": {"Y": -1, "X": 1}, "interpolation": 2}]}, "position": 63.04, "id": "PJWPMFXKV3", "wave_color": {"green": {"Points": [{"handle_right": {"Y": 0, "X": 0.5}, "co": {"Y": 123, "X": 1}, "handle_left": {"Y": 1, "X": 0.5}, "handle_type": 0, "interpolation": 0}]}, "blue": {"Points": [{"handle_right": {"Y": 0, "X": 0.5}, "co": {"Y": 255, "X": 1}, "handle_left": {"Y": 1, "X": 0.5}, "handle_type": 0, "interpolation": 0}]}, "alpha": {"Points": [{"handle_right": {"Y": 0, "X": 0.5}, "co": {"Y": 255, "X": 1}, "handle_left": {"Y": 1, "X": 0.5}, "handle_type": 0, "interpolation": 0}]}, "red": {"Points": [{"handle_right": {"Y": 0, "X": 0.5}, "co": {"Y": 0, "X": 1}, "handle_left": {"Y": 1, "X": 0.5}, "handle_type": 0, "interpolation": 0}]}}, "has_video": {"Points": [{"co": {"Y": -1, "X": 1}, "interpolation": 2}]}, "has_audio": {"Points": [{"co": {"Y": -1, "X": 1}, "interpolation": 2}]}, "effects": [], "location_x": {"Points": [{"co": {"Y": 0, "X": 1}, "interpolation": 2}]}, "waveform": false, "title": "arrow.mp4", "image": "/home/robsen/.openshot_qt/thumbnail/X22V56NF57.png", "gravity": 4, "perspective_c2_x": {"Points": [{"co": {"Y": -1, "X": 1}, "interpolation": 2}]}, "perspective_c1_y": {"Points": [{"co": {"Y": -1, "X": 1}, "interpolation": 2}]}, "crop_height": {"Points": [{"co": {"Y": -1, "X": 1}, "interpolation": 2}]}, "crop_x": {"Points": [{"co": {"Y": 0, "X": 1}, "interpolation": 2}]}, "start": 0, "scale": 1, "shear_y": {"Points": [{"co": {"Y": 0, "X": 1}, "interpolation": 2}]}, "display": 0, "volume": {"Points": [{"co": {"Y": 1, "X": 1}, "interpolation": 2}]}, "channel_mapping": {"Points": [{"co": {"Y": -1, "X": 1}, "interpolation": 2}]}, "anchor": 0, "duration": 15.0, "perspective_c3_y": {"Points": [{"co": {"Y": -1, "X": 1}, "interpolation": 2}]}, "shear_x": {"Points": [{"co": {"Y": 0, "X": 1}, "interpolation": 2}]}, "perspective_c4_x": {"Points": [{"co": {"Y": -1, "X": 1}, "interpolation": 2}]}, "location_y": {"Points": [{"co": {"Y": 0, "X": 1}, "interpolation": 2}]}, "scale_x": {"Points": [{"co": {"Y": 1, "X": 1}, "interpolation": 2}]}, "layer": 1, "perspective_c2_y": {"Points": [{"co": {"Y": -1, "X": 1}, "interpolation": 2}]}, "perspective_c1_x": {"Points": [{"co": {"Y": -1, "X": 1}, "interpolation": 2}]}, "perspective_c4_y": {"Points": [{"co": {"Y": -1, "X": 1}, "interpolation": 2}]}, "reader": {"audio_bit_rate": 0, "has_single_image": false, "vcodec": "h264", "has_video": true, "type": "FFmpegReader", "video_length": "375", "audio_timebase": {"den": 1, "num": 1}, "path": "/home/robsen/Dropbox/Workdir/Repo/SuesseRache-HH-Taxi/arrow.mp4", "width": 1920, "has_audio": false, "video_bit_rate": 83079, "channel_layout": 4, "height": 1080, "display_ratio": {"den": 9, "num": 16}, "interlaced_frame": false, "duration": 15.0, "sample_rate": 0, "pixel_format": 0, "video_timebase": {"den": 12800, "num": 1}, "file_size": "155774", "top_field_first": true, "pixel_ratio": {"den": 1, "num": 1}, "acodec": "", "audio_stream_index": -1, "video_stream_index": 0, "channels": 0, "fps": {"den": 1, "num": 25}}, "channel_filter": {"Points": [{"co": {"Y": -1, "X": 1}, "interpolation": 2}]}, "file_id": "X22V56NF57", "time": {"Points": [{"co": {"Y": 1, "X": 1}, "interpolation": 2}]}}, "value": {"id": "PJWPMFXKV3", "start": 0, "end": 15, "position": 53.075, "layer": 2, "image": "/home/robsen/.openshot_qt/thumbnail/X22V56NF57.png"}, "key": ["clips", {"id": "PJWPMFXKV3"}], "partial": false, "type": "update"}, {"old_values": {"start": 0, "type": "Mask", "contrast": {"Points": [{"co": {"Y": 3, "X": 1}, "interpolation": 2}]}, "layer": 0, "replace_image": false, "title": "Transition", "end": 2.039999999999999, "reader": {"audio_bit_rate": 0, "has_single_image": true, "vcodec": "", "has_video": true, "type": "QtImageReader", "video_length": "2592000", "audio_timebase": {"den": 1, "num": 1}, "path": "/usr/lib/python3/dist-packages/openshot_qt/transitions/common/fade.svg", "width": 720, "has_audio": false, "video_bit_rate": 0, "channel_layout": 4, "height": 576, "display_ratio": {"den": 4, "num": 5}, "interlaced_frame": false, "duration": 86400, "sample_rate": 0, "pixel_format": -1, "video_timebase": {"den": 30, "num": 1}, "file_size": "1658880", "top_field_first": true, "pixel_ratio": {"den": 1, "num": 1}, "acodec": "", "audio_stream_index": -1, "video_stream_index": -1, "channels": 0, "fps": {"den": 1, "num": 30}}, "brightness": {"Points": [{"handle_right": {"Y": 0, "X": 0.5}, "co": {"Y": 1, "X": 1}, "handle_left": {"Y": 1, "X": 0.5}, "handle_type": 0, "interpolation": 0}, {"handle_right": {"Y": 0, "X": 0.5}, "co": {"Y": -1, "X": 50}, "handle_left": {"Y": 1, "X": 0.5}, "handle_type": 0, "interpolation": 0}]}, "id": "5NBS5H99MA", "position": 21.76}, "value": null, "key": ["effects", {"id": "5NBS5H99MA"}], "partial": false, "type": "delete"}, {"old_values": {"alpha": {"Points": [{"co": {"Y": 1, "X": 1}, "interpolation": 2}]}, "rotation": {"Points": [{"co": {"Y": 0, "X": 1}, "interpolation": 2}]}, "scale_y": {"Points": [{"co": {"Y": 1, "X": 1}, "interpolation": 2}]}, "crop_y": {"Points": [{"co": {"Y": 0, "X": 1}, "interpolation": 2}]}, "perspective_c3_x": {"Points": [{"co": {"Y": -1, "X": 1}, "interpolation": 2}]}, "end": 15, "crop_width": {"Points": [{"co": {"Y": -1, "X": 1}, "interpolation": 2}]}, "position": 8.8, "id": "0AEDFYGQ7J", "wave_color": {"green": {"Points": [{"handle_right": {"Y": 0, "X": 0.5}, "co": {"Y": 123, "X": 1}, "handle_left": {"Y": 1, "X": 0.5}, "handle_type": 0, "interpolation": 0}]}, "blue": {"Points": [{"handle_right": {"Y": 0, "X": 0.5}, "co": {"Y": 255, "X": 1}, "handle_left": {"Y": 1, "X": 0.5}, "handle_type": 0, "interpolation": 0}]}, "alpha": {"Points": [{"handle_right": {"Y": 0, "X": 0.5}, "co": {"Y": 255, "X": 1}, "handle_left": {"Y": 1, "X": 0.5}, "handle_type": 0, "interpolation": 0}]}, "red": {"Points": [{"handle_right": {"Y": 0, "X": 0.5}, "co": {"Y": 0, "X": 1}, "handle_left": {"Y": 1, "X": 0.5}, "handle_type": 0, "interpolation": 0}]}}, "has_video": {"Points": [{"co": {"Y": -1, "X": 1}, "interpolation": 2}]}, "has_audio": {"Points": [{"co": {"Y": -1, "X": 1}, "interpolation": 2}]}, "effects": [], "location_x": {"Points": [{"co": {"Y": 0, "X": 1}, "interpolation": 2}]}, "waveform": false, "title": "taxi_start.mp4", "image": "/home/robsen/.openshot_qt/thumbnail/LGW3TZJV4Q.png", "gravity": 4, "perspective_c2_x": {"Points": [{"co": {"Y": -1, "X": 1}, "interpolation": 2}]}, "perspective_c1_y": {"Points": [{"co": {"Y": -1, "X": 1}, "interpolation": 2}]}, "crop_height": {"Points": [{"co": {"Y": -1, "X": 1}, "interpolation": 2}]}, "crop_x": {"Points": [{"co": {"Y": 0, "X": 1}, "interpolation": 2}]}, "start": 0, "scale": 1, "shear_y": {"Points": [{"co": {"Y": 0, "X": 1}, "interpolation": 2}]}, "display": 0, "volume": {"Points": [{"co": {"Y": 1, "X": 1}, "interpolation": 2}]}, "channel_mapping": {"Points": [{"co": {"Y": -1, "X": 1}, "interpolation": 2}]}, "anchor": 0, "duration": 15.0, "perspective_c3_y": {"Points": [{"co": {"Y": -1, "X": 1}, "interpolation": 2}]}, "shear_x": {"Points": [{"co": {"Y": 0, "X": 1}, "interpolation": 2}]}, "perspective_c4_x": {"Points": [{"co": {"Y": -1, "X": 1}, "interpolation": 2}]}, "location_y": {"Points": [{"co": {"Y": 0, "X": 1}, "interpolation": 2}]}, "scale_x": {"Points": [{"co": {"Y": 1, "X": 1}, "interpolation": 2}]}, "layer": 0, "perspective_c2_y": {"Points": [{"co": {"Y": -1, "X": 1}, "interpolation": 2}]}, "perspective_c1_x": {"Points": [{"co": {"Y": -1, "X": 1}, "interpolation": 2}]}, "perspective_c4_y": {"Points": [{"co": {"Y": -1, "X": 1}, "interpolation": 2}]}, "reader": {"audio_bit_rate": 0, "has_single_image": false, "vcodec": "h264", "has_video": true, "type": "FFmpegReader", "video_length": "375", "audio_timebase": {"den": 1, "num": 1}, "path": "/home/robsen/Dropbox/Workdir/Repo/SuesseRache-HH-Taxi/taxi_start.mp4", "width": 1920, "has_audio": false, "video_bit_rate": 147692, "channel_layout": 4, "height": 1080, "display_ratio": {"den": 9, "num": 16}, "interlaced_frame": false, "duration": 15.0, "sample_rate": 0, "pixel_format": 0, "video_timebase": {"den": 12800, "num": 1}, "file_size": "276924", "top_field_first": true, "pixel_ratio": {"den": 1, "num": 1}, "acodec": "", "audio_stream_index": -1, "video_stream_index": 0, "channels": 0, "fps": {"den": 1, "num": 25}}, "channel_filter": {"Points": [{"co": {"Y": -1, "X": 1}, "interpolation": 2}]}, "file_id": "LGW3TZJV4Q", "time": {"Points": [{"co": {"Y": 1, "X": 1}, "interpolation": 2}]}}, "value": {"alpha": {"Points": [{"co": {"Y": 1, "X": 1}, "interpolation": 2}, {"handle_right": {"Y": 0, "X": 0.5}, "co": {"Y": 1, "X": 289}, "handle_left": {"Y": 1, "X": 0.5}, "handle_type": 0, "interpolation": 0}, {"handle_right": {"Y": 0, "X": 0.5}, "co": {"Y": 0, "X": 361}, "handle_left": {"Y": 1, "X": 0.5}, "handle_type": 0, "interpolation": 0}]}, "rotation": {"Points": [{"co": {"Y": 0, "X": 1}, "interpolation": 2}]}, "scale_y": {"Points": [{"co": {"Y": 1, "X": 1}, "interpolation": 2}]}, "crop_y": {"Points": [{"co": {"Y": 0, "X": 1}, "interpolation": 2}]}, "crop_width": {"Points": [{"co": {"Y": -1, "X": 1}, "interpolation": 2}]}, "end": 15, "perspective_c3_x": {"Points": [{"co": {"Y": -1, "X": 1}, "interpolation": 2}]}, "position": 8.8, "id": "0AEDFYGQ7J", "wave_color": {"green": {"Points": [{"handle_right": {"Y": 0, "X": 0.5}, "co": {"Y": 123, "X": 1}, "handle_left": {"Y": 1, "X": 0.5}, "handle_type": 0, "interpolation": 0}]}, "blue": {"Points": [{"handle_right": {"Y": 0, "X": 0.5}, "co": {"Y": 255, "X": 1}, "handle_left": {"Y": 1, "X": 0.5}, "handle_type": 0, "interpolation": 0}]}, "alpha": {"Points": [{"handle_right": {"Y": 0, "X": 0.5}, "co": {"Y": 255, "X": 1}, "handle_left": {"Y": 1, "X": 0.5}, "handle_type": 0, "interpolation": 0}]}, "red": {"Points": [{"handle_right": {"Y": 0, "X": 0.5}, "co": {"Y": 0, "X": 1}, "handle_left": {"Y": 1, "X": 0.5}, "handle_type": 0, "interpolation": 0}]}}, "has_video": {"Points": [{"co": {"Y": -1, "X": 1}, "interpolation": 2}]}, "has_audio": {"Points": [{"co": {"Y": -1, "X": 1}, "interpolation": 2}]}, "effects": [], "location_x": {"Points": [{"co": {"Y": 0, "X": 1}, "interpolation": 2}]}, "waveform": false, "title": "taxi_start.mp4", "image": "/home/robsen/.openshot_qt/thumbnail/LGW3TZJV4Q.png", "gravity": 4, "scale_x": {"Points": [{"co": {"Y": 1, "X": 1}, "interpolation": 2}]}, "perspective_c1_y": {"Points": [{"co": {"Y": -1, "X": 1}, "interpolation": 2}]}, "crop_height": {"Points": [{"co": {"Y": -1, "X": 1}, "interpolation": 2}]}, "crop_x": {"Points": [{"co": {"Y": 0, "X": 1}, "interpolation": 2}]}, "start": 0, "scale": 1, "shear_y": {"Points": [{"co": {"Y": 0, "X": 1}, "interpolation": 2}]}, "display": 0, "volume": {"Points": [{"co": {"Y": 1, "X": 1}, "interpolation": 2}]}, "channel_mapping": {"Points": [{"co": {"Y": -1, "X": 1}, "interpolation": 2}]}, "anchor": 0, "duration": 15.0, "perspective_c3_y": {"Points": [{"co": {"Y": -1, "X": 1}, "interpolation": 2}]}, "shear_x": {"Points": [{"co": {"Y": 0, "X": 1}, "interpolation": 2}]}, "perspective_c4_x": {"Points": [{"co": {"Y": -1, "X": 1}, "interpolation": 2}]}, "location_y": {"Points": [{"co": {"Y": 0, "X": 1}, "interpolation": 2}]}, "perspective_c2_x": {"Points": [{"co": {"Y": -1, "X": 1}, "interpolation": 2}]}, "layer": 0, "perspective_c2_y": {"Points": [{"co": {"Y": -1, "X": 1}, "interpolation": 2}]}, "perspective_c1_x": {"Points": [{"co": {"Y": -1, "X": 1}, "interpolation": 2}]}, "perspective_c4_y": {"Points": [{"co": {"Y": -1, "X": 1}, "interpolation": 2}]}, "channel_filter": {"Points": [{"co": {"Y": -1, "X": 1}, "interpolation": 2}]}, "time": {"Points": [{"co": {"Y": 1, "X": 1}, "interpolation": 2}]}, "file_id": "LGW3TZJV4Q"}, "key": ["clips", {"id": "0AEDFYGQ7J"}], "partial": false, "type": "update"}, {"old_values": {"alpha": {"Points": [{"co": {"Y": 1, "X": 1}, "interpolation": 2}, {"handle_right": {"Y": 0, "X": 0.5}, "co": {"Y": 1, "X": 289}, "handle_left": {"Y": 1, "X": 0.5}, "handle_type": 0, "interpolation": 0}, {"handle_right": {"Y": 0, "X": 0.5}, "co": {"Y": 0, "X": 361}, "handle_left": {"Y": 1, "X": 0.5}, "handle_type": 0, "interpolation": 0}]}, "rotation": {"Points": [{"co": {"Y": 0, "X": 1}, "interpolation": 2}]}, "scale_y": {"Points": [{"co": {"Y": 1, "X": 1}, "interpolation": 2}]}, "crop_y": {"Points": [{"co": {"Y": 0, "X": 1}, "interpolation": 2}]}, "perspective_c3_x": {"Points": [{"co": {"Y": -1, "X": 1}, "interpolation": 2}]}, "end": 15, "crop_width": {"Points": [{"co": {"Y": -1, "X": 1}, "interpolation": 2}]}, "position": 8.8, "id": "0AEDFYGQ7J", "wave_color": {"green": {"Points": [{"handle_right": {"Y": 0, "X": 0.5}, "co": {"Y": 123, "X": 1}, "handle_left": {"Y": 1, "X": 0.5}, "handle_type": 0, "interpolation": 0}]}, "blue": {"Points": [{"handle_right": {"Y": 0, "X": 0.5}, "co": {"Y": 255, "X": 1}, "handle_left": {"Y": 1, "X": 0.5}, "handle_type": 0, "interpolation": 0}]}, "alpha": {"Points": [{"handle_right": {"Y": 0, "X": 0.5}, "co": {"Y": 255, "X": 1}, "handle_left": {"Y": 1, "X": 0.5}, "handle_type": 0, "interpolation": 0}]}, "red": {"Points": [{"handle_right": {"Y": 0, "X": 0.5}, "co": {"Y": 0, "X": 1}, "handle_left": {"Y": 1, "X": 0.5}, "handle_type": 0, "interpolation": 0}]}}, "has_video": {"Points": [{"co": {"Y": -1, "X": 1}, "interpolation": 2}]}, "has_audio": {"Points": [{"co": {"Y": -1, "X": 1}, "interpolation": 2}]}, "effects": [], "location_x": {"Points": [{"co": {"Y": 0, "X": 1}, "interpolation": 2}]}, "waveform": false, "title": "taxi_start.mp4", "image": "/home/robsen/.openshot_qt/thumbnail/LGW3TZJV4Q.png", "gravity": 4, "perspective_c2_x": {"Points": [{"co": {"Y": -1, "X": 1}, "interpolation": 2}]}, "perspective_c1_y": {"Points": [{"co": {"Y": -1, "X": 1}, "interpolation": 2}]}, "crop_height": {"Points": [{"co": {"Y": -1, "X": 1}, "interpolation": 2}]}, "crop_x": {"Points": [{"co": {"Y": 0, "X": 1}, "interpolation": 2}]}, "start": 0, "scale": 1, "shear_y": {"Points": [{"co": {"Y": 0, "X": 1}, "interpolation": 2}]}, "display": 0, "volume": {"Points": [{"co": {"Y": 1, "X": 1}, "interpolation": 2}]}, "channel_mapping": {"Points": [{"co": {"Y": -1, "X": 1}, "interpolation": 2}]}, "anchor": 0, "duration": 15.0, "perspective_c3_y": {"Points": [{"co": {"Y": -1, "X": 1}, "interpolation": 2}]}, "shear_x": {"Points": [{"co": {"Y": 0, "X": 1}, "interpolation": 2}]}, "perspective_c4_x": {"Points": [{"co": {"Y": -1, "X": 1}, "interpolation": 2}]}, "location_y": {"Points": [{"co": {"Y": 0, "X": 1}, "interpolation": 2}]}, "scale_x": {"Points": [{"co": {"Y": 1, "X": 1}, "interpolation": 2}]}, "layer": 0, "perspective_c2_y": {"Points": [{"co": {"Y": -1, "X": 1}, "interpolation": 2}]}, "perspective_c1_x": {"Points": [{"co": {"Y": -1, "X": 1}, "interpolation": 2}]}, "perspective_c4_y": {"Points": [{"co": {"Y": -1, "X": 1}, "interpolation": 2}]}, "reader": {"audio_bit_rate": 0, "has_single_image": false, "vcodec": "h264", "has_video": true, "type": "FFmpegReader", "video_length": "375", "audio_timebase": {"den": 1, "num": 1}, "path": "/home/robsen/Dropbox/Workdir/Repo/SuesseRache-HH-Taxi/taxi_start.mp4", "width": 1920, "has_audio": false, "video_bit_rate": 147692, "channel_layout": 4, "height": 1080, "display_ratio": {"den": 9, "num": 16}, "interlaced_frame": false, "duration": 15.0, "sample_rate": 0, "pixel_format": 0, "video_timebase": {"den": 12800, "num": 1}, "file_size": "276924", "top_field_first": true, "pixel_ratio": {"den": 1, "num": 1}, "acodec": "", "audio_stream_index": -1, "video_stream_index": 0, "channels": 0, "fps": {"den": 1, "num": 25}}, "channel_filter": {"Points": [{"co": {"Y": -1, "X": 1}, "interpolation": 2}]}, "file_id": "LGW3TZJV4Q", "time": {"Points": [{"co": {"Y": 1, "X": 1}, "interpolation": 2}]}}, "value": {"alpha": {"Points": [{"co": {"Y": 1, "X": 1}, "interpolation": 2}, {"handle_right": {"Y": 0, "X": 0.5}, "co": {"Y": 1, "X": 289}, "handle_left": {"Y": 1, "X": 0.5}, "handle_type": 0, "interpolation": 0}, {"handle_right": {"Y": 0, "X": 0.5}, "co": {"Y": 0, "X": 361}, "handle_left": {"Y": 1, "X": 0.5}, "handle_type": 0, "interpolation": 0}, {"handle_right": {"Y": 0, "X": 0.5}, "co": {"Y": 0, "X": 1}, "handle_left": {"Y": 1, "X": 0.5}, "handle_type": 0, "interpolation": 0}, {"handle_right": {"Y": 0, "X": 0.5}, "co": {"Y": 1, "X": 73}, "handle_left": {"Y": 1, "X": 0.5}, "handle_type": 0, "interpolation": 0}]}, "rotation": {"Points": [{"co": {"Y": 0, "X": 1}, "interpolation": 2}]}, "scale_y": {"Points": [{"co": {"Y": 1, "X": 1}, "interpolation": 2}]}, "crop_y": {"Points": [{"co": {"Y": 0, "X": 1}, "interpolation": 2}]}, "crop_width": {"Points": [{"co": {"Y": -1, "X": 1}, "interpolation": 2}]}, "end": 15, "perspective_c3_x": {"Points": [{"co": {"Y": -1, "X": 1}, "interpolation": 2}]}, "position": 8.8, "id": "0AEDFYGQ7J", "wave_color": {"green": {"Points": [{"handle_right": {"Y": 0, "X": 0.5}, "co": {"Y": 123, "X": 1}, "handle_left": {"Y": 1, "X": 0.5}, "handle_type": 0, "interpolation": 0}]}, "blue": {"Points": [{"handle_right": {"Y": 0, "X": 0.5}, "co": {"Y": 255, "X": 1}, "handle_left": {"Y": 1, "X": 0.5}, "handle_type": 0, "interpolation": 0}]}, "alpha": {"Points": [{"handle_right": {"Y": 0, "X": 0.5}, "co": {"Y": 255, "X": 1}, "handle_left": {"Y": 1, "X": 0.5}, "handle_type": 0, "interpolation": 0}]}, "red": {"Points": [{"handle_right": {"Y": 0, "X": 0.5}, "co": {"Y": 0, "X": 1}, "handle_left": {"Y": 1, "X": 0.5}, "handle_type": 0, "interpolation": 0}]}}, "has_video": {"Points": [{"co": {"Y": -1, "X": 1}, "interpolation": 2}]}, "has_audio": {"Points": [{"co": {"Y": -1, "X": 1}, "interpolation": 2}]}, "effects": [], "location_x": {"Points": [{"co": {"Y": 0, "X": 1}, "interpolation": 2}]}, "waveform": false, "title": "taxi_start.mp4", "image": "/home/robsen/.openshot_qt/thumbnail/LGW3TZJV4Q.png", "gravity": 4, "scale_x": {"Points": [{"co": {"Y": 1, "X": 1}, "interpolation": 2}]}, "perspective_c1_y": {"Points": [{"co": {"Y": -1, "X": 1}, "interpolation": 2}]}, "crop_height": {"Points": [{"co": {"Y": -1, "X": 1}, "interpolation": 2}]}, "crop_x": {"Points": [{"co": {"Y": 0, "X": 1}, "interpolation": 2}]}, "start": 0, "scale": 1, "shear_y": {"Points": [{"co": {"Y": 0, "X": 1}, "interpolation": 2}]}, "display": 0, "volume": {"Points": [{"co": {"Y": 1, "X": 1}, "interpolation": 2}]}, "channel_mapping": {"Points": [{"co": {"Y": -1, "X": 1}, "interpolation": 2}]}, "anchor": 0, "duration": 15.0, "perspective_c3_y": {"Points": [{"co": {"Y": -1, "X": 1}, "interpolation": 2}]}, "shear_x": {"Points": [{"co": {"Y": 0, "X": 1}, "interpolation": 2}]}, "perspective_c4_x": {"Points": [{"co": {"Y": -1, "X": 1}, "interpolation": 2}]}, "location_y": {"Points": [{"co": {"Y": 0, "X": 1}, "interpolation": 2}]}, "perspective_c2_x": {"Points": [{"co": {"Y": -1, "X": 1}, "interpolation": 2}]}, "layer": 0, "perspective_c2_y": {"Points": [{"co": {"Y": -1, "X": 1}, "interpolation": 2}]}, "perspective_c1_x": {"Points": [{"co": {"Y": -1, "X": 1}, "interpolation": 2}]}, "perspective_c4_y": {"Points": [{"co": {"Y": -1, "X": 1}, "interpolation": 2}]}, "channel_filter": {"Points": [{"co": {"Y": -1, "X": 1}, "interpolation": 2}]}, "time": {"Points": [{"co": {"Y": 1, "X": 1}, "interpolation": 2}]}, "file_id": "LGW3TZJV4Q"}, "key": ["clips", {"id": "0AEDFYGQ7J"}], "partial": false, "type": "update"}, {"old_values": {"alpha": {"Points": [{"co": {"Y": 1, "X": 1}, "interpolation": 2}]}, "rotation": {"Points": [{"co": {"Y": 0, "X": 1}, "interpolation": 2}]}, "scale_y": {"Points": [{"co": {"Y": 1, "X": 1}, "interpolation": 2}]}, "crop_y": {"Points": [{"co": {"Y": 0, "X": 1}, "interpolation": 2}]}, "perspective_c3_x": {"Points": [{"co": {"Y": -1, "X": 1}, "interpolation": 2}]}, "end": 15, "crop_width": {"Points": [{"co": {"Y": -1, "X": 1}, "interpolation": 2}]}, "position": 53.075, "id": "PJWPMFXKV3", "wave_color": {"green": {"Points": [{"handle_right": {"Y": 0, "X": 0.5}, "co": {"Y": 123, "X": 1}, "handle_left": {"Y": 1, "X": 0.5}, "handle_type": 0, "interpolation": 0}]}, "blue": {"Points": [{"handle_right": {"Y": 0, "X": 0.5}, "co": {"Y": 255, "X": 1}, "handle_left": {"Y": 1, "X": 0.5}, "handle_type": 0, "interpolation": 0}]}, "alpha": {"Points": [{"handle_right": {"Y": 0, "X": 0.5}, "co": {"Y": 255, "X": 1}, "handle_left": {"Y": 1, "X": 0.5}, "handle_type": 0, "interpolation": 0}]}, "red": {"Points": [{"handle_right": {"Y": 0, "X": 0.5}, "co": {"Y": 0, "X": 1}, "handle_left": {"Y": 1, "X": 0.5}, "handle_type": 0, "interpolation": 0}]}}, "has_video": {"Points": [{"co": {"Y": -1, "X": 1}, "interpolation": 2}]}, "has_audio": {"Points": [{"co": {"Y": -1, "X": 1}, "interpolation": 2}]}, "effects": [], "location_x": {"Points": [{"co": {"Y": 0, "X": 1}, "interpolation": 2}]}, "waveform": false, "title": "arrow.mp4", "image": "/home/robsen/.openshot_qt/thumbnail/X22V56NF57.png", "gravity": 4, "perspective_c2_x": {"Points": [{"co": {"Y": -1, "X": 1}, "interpolation": 2}]}, "perspective_c1_y": {"Points": [{"co": {"Y": -1, "X": 1}, "interpolation": 2}]}, "crop_height": {"Points": [{"co": {"Y": -1, "X": 1}, "interpolation": 2}]}, "crop_x": {"Points": [{"co": {"Y": 0, "X": 1}, "interpolation": 2}]}, "start": 0, "scale": 1, "shear_y": {"Points": [{"co": {"Y": 0, "X": 1}, "interpolation": 2}]}, "display": 0, "volume": {"Points": [{"co": {"Y": 1, "X": 1}, "interpolation": 2}]}, "channel_mapping": {"Points": [{"co": {"Y": -1, "X": 1}, "interpolation": 2}]}, "anchor": 0, "duration": 15.0, "perspective_c3_y": {"Points": [{"co": {"Y": -1, "X": 1}, "interpolation": 2}]}, "shear_x": {"Points": [{"co": {"Y": 0, "X": 1}, "interpolation": 2}]}, "perspective_c4_x": {"Points": [{"co": {"Y": -1, "X": 1}, "interpolation": 2}]}, "location_y": {"Points": [{"co": {"Y": 0, "X": 1}, "interpolation": 2}]}, "scale_x": {"Points": [{"co": {"Y": 1, "X": 1}, "interpolation": 2}]}, "layer": 2, "perspective_c2_y": {"Points": [{"co": {"Y": -1, "X": 1}, "interpolation": 2}]}, "perspective_c1_x": {"Points": [{"co": {"Y": -1, "X": 1}, "interpolation": 2}]}, "perspective_c4_y": {"Points": [{"co": {"Y": -1, "X": 1}, "interpolation": 2}]}, "reader": {"audio_bit_rate": 0, "has_single_image": false, "vcodec": "h264", "has_video": true, "type": "FFmpegReader", "video_length": "375", "audio_timebase": {"den": 1, "num": 1}, "path": "/home/robsen/Dropbox/Workdir/Repo/SuesseRache-HH-Taxi/arrow.mp4", "width": 1920, "has_audio": false, "video_bit_rate": 83079, "channel_layout": 4, "height": 1080, "display_ratio": {"den": 9, "num": 16}, "interlaced_frame": false, "duration": 15.0, "sample_rate": 0, "pixel_format": 0, "video_timebase": {"den": 12800, "num": 1}, "file_size": "155774", "top_field_first": true, "pixel_ratio": {"den": 1, "num": 1}, "acodec": "", "audio_stream_index": -1, "video_stream_index": 0, "channels": 0, "fps": {"den": 1, "num": 25}}, "channel_filter": {"Points": [{"co": {"Y": -1, "X": 1}, "interpolation": 2}]}, "file_id": "X22V56NF57", "time": {"Points": [{"co": {"Y": 1, "X": 1}, "interpolation": 2}]}}, "value": {"alpha": {"Points": [{"co": {"Y": 1, "X": 1}, "interpolation": 2}, {"handle_right": {"Y": 0, "X": 0.5}, "co": {"Y": 0, "X": 1}, "handle_left": {"Y": 1, "X": 0.5}, "handle_type": 0, "interpolation": 0}, {"handle_right": {"Y": 0, "X": 0.5}, "co": {"Y": 1, "X": 73}, "handle_left": {"Y": 1, "X": 0.5}, "handle_type": 0, "interpolation": 0}]}, "rotation": {"Points": [{"co": {"Y": 0, "X": 1}, "interpolation": 2}]}, "scale_y": {"Points": [{"co": {"Y": 1, "X": 1}, "interpolation": 2}]}, "crop_y": {"Points": [{"co": {"Y": 0, "X": 1}, "interpolation": 2}]}, "crop_width": {"Points": [{"co": {"Y": -1, "X": 1}, "interpolation": 2}]}, "end": 15, "perspective_c3_x": {"Points": [{"co": {"Y": -1, "X": 1}, "interpolation": 2}]}, "position": 53.075, "id": "PJWPMFXKV3", "wave_color": {"green": {"Points": [{"handle_right": {"Y": 0, "X": 0.5}, "co": {"Y": 123, "X": 1}, "handle_left": {"Y": 1, "X": 0.5}, "handle_type": 0, "interpolation": 0}]}, "blue": {"Points": [{"handle_right": {"Y": 0, "X": 0.5}, "co": {"Y": 255, "X": 1}, "handle_left": {"Y": 1, "X": 0.5}, "handle_type": 0, "interpolation": 0}]}, "alpha": {"Points": [{"handle_right": {"Y": 0, "X": 0.5}, "co": {"Y": 255, "X": 1}, "handle_left": {"Y": 1, "X": 0.5}, "handle_type": 0, "interpolation": 0}]}, "red": {"Points": [{"handle_right": {"Y": 0, "X": 0.5}, "co": {"Y": 0, "X": 1}, "handle_left": {"Y": 1, "X": 0.5}, "handle_type": 0, "interpolation": 0}]}}, "has_video": {"Points": [{"co": {"Y": -1, "X": 1}, "interpolation": 2}]}, "has_audio": {"Points": [{"co": {"Y": -1, "X": 1}, "interpolation": 2}]}, "effects": [], "location_x": {"Points": [{"co": {"Y": 0, "X": 1}, "interpolation": 2}]}, "waveform": false, "title": "arrow.mp4", "image": "/home/robsen/.openshot_qt/thumbnail/X22V56NF57.png", "gravity": 4, "scale_x": {"Points": [{"co": {"Y": 1, "X": 1}, "interpolation": 2}]}, "perspective_c1_y": {"Points": [{"co": {"Y": -1, "X": 1}, "interpolation": 2}]}, "crop_height": {"Points": [{"co": {"Y": -1, "X": 1}, "interpolation": 2}]}, "crop_x": {"Points": [{"co": {"Y": 0, "X": 1}, "interpolation": 2}]}, "start": 0, "scale": 1, "shear_y": {"Points": [{"co": {"Y": 0, "X": 1}, "interpolation": 2}]}, "display": 0, "volume": {"Points": [{"co": {"Y": 1, "X": 1}, "interpolation": 2}]}, "channel_mapping": {"Points": [{"co": {"Y": -1, "X": 1}, "interpolation": 2}]}, "anchor": 0, "duration": 15.0, "perspective_c3_y": {"Points": [{"co": {"Y": -1, "X": 1}, "interpolation": 2}]}, "shear_x": {"Points": [{"co": {"Y": 0, "X": 1}, "interpolation": 2}]}, "perspective_c4_x": {"Points": [{"co": {"Y": -1, "X": 1}, "interpolation": 2}]}, "location_y": {"Points": [{"co": {"Y": 0, "X": 1}, "interpolation": 2}]}, "perspective_c2_x": {"Points": [{"co": {"Y": -1, "X": 1}, "interpolation": 2}]}, "layer": 2, "perspective_c2_y": {"Points": [{"co": {"Y": -1, "X": 1}, "interpolation": 2}]}, "perspective_c1_x": {"Points": [{"co": {"Y": -1, "X": 1}, "interpolation": 2}]}, "perspective_c4_y": {"Points": [{"co": {"Y": -1, "X": 1}, "interpolation": 2}]}, "channel_filter": {"Points": [{"co": {"Y": -1, "X": 1}, "interpolation": 2}]}, "time": {"Points": [{"co": {"Y": 1, "X": 1}, "interpolation": 2}]}, "file_id": "X22V56NF57"}, "key": ["clips", {"id": "PJWPMFXKV3"}], "partial": false, "type": "update"}]}, "key": ["history"], "partial": false, "type": "update"}, {"old_values": null, "value": {"redo": [], "undo": [{"old_values": [{"number": 0, "label": "Spur 1", "id": "UBOPYJIV1S", "y": 0}, {"number": 1, "label": "Spur 2", "id": "SHY16ICR2M", "y": 0}], "value": {"number": 2, "y": 0, "label": "", "id": "E44ZNJSI3Z", "lock": false}, "key": ["layers"], "partial": false, "type": "insert"}, {"old_values": [], "value": {"audio_bit_rate": 0, "has_single_image": false, "media_type": "video", "id": "LGW3TZJV4Q", "type": "FFmpegReader", "has_video": true, "video_length": "375", "audio_timebase": {"den": 1, "num": 1}, "path": "/home/robsen/Dropbox/Workdir/Repo/SuesseRache-HH-Taxi/taxi_start.mp4", "width": 1920, "has_audio": false, "video_bit_rate": 147692, "channel_layout": 4, "height": 1080, "vcodec": "h264", "display_ratio": {"den": 9, "num": 16}, "interlaced_frame": false, "duration": 15, "sample_rate": 0, "pixel_format": 0, "video_timebase": {"den": 12800, "num": 1}, "file_size": "276924", "top_field_first": true, "pixel_ratio": {"den": 1, "num": 1}, "acodec": "", "audio_stream_index": -1, "video_stream_index": 0, "channels": 0, "fps": {"den": 1, "num": 25}}, "key": ["files"], "partial": false, "type": "insert"}, {"old_values": [{"audio_bit_rate": 0, "has_single_image": false, "media_type": "video", "id": "LGW3TZJV4Q", "type": "FFmpegReader", "has_video": true, "video_length": "375", "audio_timebase": {"den": 1, "num": 1}, "path": "/home/robsen/Dropbox/Workdir/Repo/SuesseRache-HH-Taxi/taxi_start.mp4", "width": 1920, "has_audio": false, "video_bit_rate": 147692, "channel_layout": 4, "height": 1080, "vcodec": "h264", "display_ratio": {"den": 9, "num": 16}, "interlaced_frame": false, "duration": 15, "sample_rate": 0, "pixel_format": 0, "video_timebase": {"den": 12800, "num": 1}, "file_size": "276924", "top_field_first": true, "pixel_ratio": {"den": 1, "num": 1}, "acodec": "", "audio_stream_index": -1, "video_stream_index": 0, "channels": 0, "fps": {"den": 1, "num": 25}}], "value": {"audio_bit_rate": 189375, "has_single_image": false, "media_type": "video", "id": "Z3LOYBY1PL", "type": "FFmpegReader", "has_video": true, "video_length": "937", "audio_timebase": {"den": 48000, "num": 1}, "path": "/home/robsen/Dropbox/Workdir/Repo/SuesseRache-HH-Taxi/TE_SR_Taxi.mp4", "width": 1920, "has_audio": true, "video_bit_rate": 32091692, "channel_layout": 3, "height": 1080, "vcodec": "h264", "display_ratio": {"den": 9, "num": 16}, "interlaced_frame": false, "duration": 31.317333221435547, "sample_rate": 48000, "pixel_format": 0, "video_timebase": {"den": 29970, "num": 1}, "file_size": "125628279", "top_field_first": true, "pixel_ratio": {"den": 1, "num": 1}, "acodec": "aac", "audio_stream_index": 1, "video_stream_index": 0, "channels": 2, "fps": {"den": 100, "num": 2997}}, "key": ["files"], "partial": false, "type": "insert"}, {"old_values": [{"audio_bit_rate": 0, "has_single_image": false, "media_type": "video", "id": "LGW3TZJV4Q", "type": "FFmpegReader", "has_video": true, "video_length": "375", "audio_timebase": {"den": 1, "num": 1}, "path": "/home/robsen/Dropbox/Workdir/Repo/SuesseRache-HH-Taxi/taxi_start.mp4", "width": 1920, "has_audio": false, "video_bit_rate": 147692, "channel_layout": 4, "height": 1080, "vcodec": "h264", "display_ratio": {"den": 9, "num": 16}, "interlaced_frame": false, "duration": 15, "sample_rate": 0, "pixel_format": 0, "video_timebase": {"den": 12800, "num": 1}, "file_size": "276924", "top_field_first": true, "pixel_ratio": {"den": 1, "num": 1}, "acodec": "", "audio_stream_index": -1, "video_stream_index": 0, "channels": 0, "fps": {"den": 1, "num": 25}}, {"audio_bit_rate": 189375, "has_single_image": false, "media_type": "video", "id": "Z3LOYBY1PL", "type": "FFmpegReader", "has_video": true, "video_length": "937", "audio_timebase": {"den": 48000, "num": 1}, "path": "/home/robsen/Dropbox/Workdir/Repo/SuesseRache-HH-Taxi/TE_SR_Taxi.mp4", "width": 1920, "has_audio": true, "video_bit_rate": 32091692, "channel_layout": 3, "height": 1080, "vcodec": "h264", "display_ratio": {"den": 9, "num": 16}, "interlaced_frame": false, "duration": 31.317333221435547, "sample_rate": 48000, "pixel_format": 0, "video_timebase": {"den": 29970, "num": 1}, "file_size": "125628279", "top_field_first": true, "pixel_ratio": {"den": 1, "num": 1}, "acodec": "aac", "audio_stream_index": 1, "video_stream_index": 0, "channels": 2, "fps": {"den": 100, "num": 2997}}], "value": {"audio_bit_rate": 0, "has_single_image": false, "media_type": "video", "id": "X22V56NF57", "type": "FFmpegReader", "has_video": true, "video_length": "375", "audio_timebase": {"den": 1, "num": 1}, "path": "/home/robsen/Dropbox/Workdir/Repo/SuesseRache-HH-Taxi/arrow.mp4", "width": 1920, "has_audio": false, "video_bit_rate": 83079, "channel_layout": 4, "height": 1080, "vcodec": "h264", "display_ratio": {"den": 9, "num": 16}, "interlaced_frame": false, "duration": 15, "sample_rate": 0, "pixel_format": 0, "video_timebase": {"den": 12800, "num": 1}, "file_size": "155774", "top_field_first": true, "pixel_ratio": {"den": 1, "num": 1}, "acodec": "", "audio_stream_index": -1, "video_stream_index": 0, "channels": 0, "fps": {"den": 1, "num": 25}}, "key": ["files"], "partial": false, "type": "insert"}, {"old_values": [], "value": {"alpha": {"Points": [{"co": {"Y": 1, "X": 1}, "interpolation": 2}, {"handle_right": {"Y": 0, "X": 0.5}, "co": {"Y": 1, "X": 289}, "handle_left": {"Y": 1, "X": 0.5}, "handle_type": 0, "interpolation": 0}, {"handle_right": {"Y": 0, "X": 0.5}, "co": {"Y": 0, "X": 361}, "handle_left": {"Y": 1, "X": 0.5}, "handle_type": 0, "interpolation": 0}, {"handle_right": {"Y": 0, "X": 0.5}, "co": {"Y": 0, "X": 1}, "handle_left": {"Y": 1, "X": 0.5}, "handle_type": 0, "interpolation": 0}, {"handle_right": {"Y": 0, "X": 0.5}, "co": {"Y": 1, "X": 73}, "handle_left": {"Y": 1, "X": 0.5}, "handle_type": 0, "interpolation": 0}]}, "rotation": {"Points": [{"co": {"Y": 0, "X": 1}, "interpolation": 2}]}, "scale_y": {"Points": [{"co": {"Y": 1, "X": 1}, "interpolation": 2}]}, "crop_y": {"Points": [{"co": {"Y": 0, "X": 1}, "interpolation": 2}]}, "perspective_c3_x": {"Points": [{"co": {"Y": -1, "X": 1}, "interpolation": 2}]}, "end": 15, "crop_width": {"Points": [{"co": {"Y": -1, "X": 1}, "interpolation": 2}]}, "position": 8.8, "id": "0AEDFYGQ7J", "wave_color": {"green": {"Points": [{"handle_right": {"Y": 0, "X": 0.5}, "co": {"Y": 123, "X": 1}, "handle_left": {"Y": 1, "X": 0.5}, "handle_type": 0, "interpolation": 0}]}, "blue": {"Points": [{"handle_right": {"Y": 0, "X": 0.5}, "co": {"Y": 255, "X": 1}, "handle_left": {"Y": 1, "X": 0.5}, "handle_type": 0, "interpolation": 0}]}, "alpha": {"Points": [{"handle_right": {"Y": 0, "X": 0.5}, "co": {"Y": 255, "X": 1}, "handle_left": {"Y": 1, "X": 0.5}, "handle_type": 0, "interpolation": 0}]}, "red": {"Points": [{"handle_right": {"Y": 0, "X": 0.5}, "co": {"Y": 0, "X": 1}, "handle_left": {"Y": 1, "X": 0.5}, "handle_type": 0, "interpolation": 0}]}}, "has_video": {"Points": [{"co": {"Y": -1, "X": 1}, "interpolation": 2}]}, "has_audio": {"Points": [{"co": {"Y": -1, "X": 1}, "interpolation": 2}]}, "effects": [], "location_x": {"Points": [{"co": {"Y": 0, "X": 1}, "interpolation": 2}]}, "waveform": false, "title": "taxi_start.mp4", "image": "/home/robsen/.openshot_qt/thumbnail/LGW3TZJV4Q.png", "gravity": 4, "scale_x": {"Points": [{"co": {"Y": 1, "X": 1}, "interpolation": 2}]}, "perspective_c1_y": {"Points": [{"co": {"Y": -1, "X": 1}, "interpolation": 2}]}, "crop_height": {"Points": [{"co": {"Y": -1, "X": 1}, "interpolation": 2}]}, "crop_x": {"Points": [{"co": {"Y": 0, "X": 1}, "interpolation": 2}]}, "start": 0, "scale": 1, "shear_y": {"Points": [{"co": {"Y": 0, "X": 1}, "interpolation": 2}]}, "display": 0, "volume": {"Points": [{"co": {"Y": 1, "X": 1}, "interpolation": 2}]}, "channel_mapping": {"Points": [{"co": {"Y": -1, "X": 1}, "interpolation": 2}]}, "anchor": 0, "duration": 15.0, "perspective_c3_y": {"Points": [{"co": {"Y": -1, "X": 1}, "interpolation": 2}]}, "shear_x": {"Points": [{"co": {"Y": 0, "X": 1}, "interpolation": 2}]}, "perspective_c4_x": {"Points": [{"co": {"Y": -1, "X": 1}, "interpolation": 2}]}, "location_y": {"Points": [{"co": {"Y": 0, "X": 1}, "interpolation": 2}]}, "perspective_c2_x": {"Points": [{"co": {"Y": -1, "X": 1}, "interpolation": 2}]}, "layer": 0, "perspective_c2_y": {"Points": [{"co": {"Y": -1, "X": 1}, "interpolation": 2}]}, "perspective_c1_x": {"Points": [{"co": {"Y": -1, "X": 1}, "interpolation": 2}]}, "perspective_c4_y": {"Points": [{"co": {"Y": -1, "X": 1}, "interpolation": 2}]}, "reader": {"audio_bit_rate": 0, "has_single_image": false, "has_video": true, "type": "FFmpegReader", "video_length": "375", "audio_timebase": {"den": 1, "num": 1}, "path": "/home/robsen/Dropbox/Workdir/Repo/SuesseRache-HH-Taxi/taxi_start.mp4", "width": 1920, "has_audio": false, "video_bit_rate": 147692, "channel_layout": 4, "height": 1080, "display_ratio": {"den": 9, "num": 16}, "interlaced_frame": false, "video_timebase": {"den": 12800, "num": 1}, "duration": 15.0, "sample_rate": 0, "pixel_format": 0, "fps": {"den": 1, "num": 25}, "file_size": "276924", "top_field_first": true, "pixel_ratio": {"den": 1, "num": 1}, "acodec": "", "audio_stream_index": -1, "video_stream_index": 0, "channels": 0, "vcodec": "h264"}, "channel_filter": {"Points": [{"co": {"Y": -1, "X": 1}, "interpolation": 2}]}, "file_id": "LGW3TZJV4Q", "time": {"Points": [{"co": {"Y": 1, "X": 1}, "interpolation": 2}]}}, "key": ["clips"], "partial": false, "type": "insert"}, {"old_values": null, "value": {"id": "0AEDFYGQ7J", "start": 0, "end": 15, "position": 8.8, "layer": 0, "image": "/home/robsen/.openshot_qt/thumbnail/LGW3TZJV4Q.png"}, "key": ["clips", {"id": "0AEDFYGQ7J"}], "partial": false, "type": "update"}, {"old_values": null, "value": {"id": "0AEDFYGQ7J", "start": 0, "end": 15, "position": 8.8, "layer": 0, "image": "/home/robsen/.openshot_qt/thumbnail/LGW3TZJV4Q.png"}, "key": ["clips", {"id": "0AEDFYGQ7J"}], "partial": false, "type": "update"}, {"old_values": [{"alpha": {"Points": [{"co": {"Y": 1, "X": 1}, "interpolation": 2}]}, "rotation": {"Points": [{"co": {"Y": 0, "X": 1}, "interpolation": 2}]}, "scale_y": {"Points": [{"co": {"Y": 1, "X": 1}, "interpolation": 2}]}, "crop_y": {"Points": [{"co": {"Y": 0, "X": 1}, "interpolation": 2}]}, "perspective_c3_x": {"Points": [{"co": {"Y": -1, "X": 1}, "interpolation": 2}]}, "end": 15, "crop_width": {"Points": [{"co": {"Y": -1, "X": 1}, "interpolation": 2}]}, "position": 8.8, "id": "0AEDFYGQ7J", "wave_color": {"green": {"Points": [{"handle_right": {"Y": 0, "X": 0.5}, "co": {"Y": 123, "X": 1}, "handle_left": {"Y": 1, "X": 0.5}, "handle_type": 0, "interpolation": 0}]}, "blue": {"Points": [{"handle_right": {"Y": 0, "X": 0.5}, "co": {"Y": 255, "X": 1}, "handle_left": {"Y": 1, "X": 0.5}, "handle_type": 0, "interpolation": 0}]}, "alpha": {"Points": [{"handle_right": {"Y": 0, "X": 0.5}, "co": {"Y": 255, "X": 1}, "handle_left": {"Y": 1, "X": 0.5}, "handle_type": 0, "interpolation": 0}]}, "red": {"Points": [{"handle_right": {"Y": 0, "X": 0.5}, "co": {"Y": 0, "X": 1}, "handle_left": {"Y": 1, "X": 0.5}, "handle_type": 0, "interpolation": 0}]}}, "has_video": {"Points": [{"co": {"Y": -1, "X": 1}, "interpolation": 2}]}, "has_audio": {"Points": [{"co": {"Y": -1, "X": 1}, "interpolation": 2}]}, "effects": [], "location_x": {"Points": [{"co": {"Y": 0, "X": 1}, "interpolation": 2}]}, "waveform": false, "title": "taxi_start.mp4", "image": "/home/robsen/.openshot_qt/thumbnail/LGW3TZJV4Q.png", "gravity": 4, "perspective_c2_x": {"Points": [{"co": {"Y": -1, "X": 1}, "interpolation": 2}]}, "perspective_c1_y": {"Points": [{"co": {"Y": -1, "X": 1}, "interpolation": 2}]}, "crop_height": {"Points": [{"co": {"Y": -1, "X": 1}, "interpolation": 2}]}, "crop_x": {"Points": [{"co": {"Y": 0, "X": 1}, "interpolation": 2}]}, "start": 0, "scale": 1, "shear_y": {"Points": [{"co": {"Y": 0, "X": 1}, "interpolation": 2}]}, "display": 0, "volume": {"Points": [{"co": {"Y": 1, "X": 1}, "interpolation": 2}]}, "channel_mapping": {"Points": [{"co": {"Y": -1, "X": 1}, "interpolation": 2}]}, "anchor": 0, "duration": 15.0, "perspective_c3_y": {"Points": [{"co": {"Y": -1, "X": 1}, "interpolation": 2}]}, "shear_x": {"Points": [{"co": {"Y": 0, "X": 1}, "interpolation": 2}]}, "perspective_c4_x": {"Points": [{"co": {"Y": -1, "X": 1}, "interpolation": 2}]}, "location_y": {"Points": [{"co": {"Y": 0, "X": 1}, "interpolation": 2}]}, "scale_x": {"Points": [{"co": {"Y": 1, "X": 1}, "interpolation": 2}]}, "layer": 0, "perspective_c2_y": {"Points": [{"co": {"Y": -1, "X": 1}, "interpolation": 2}]}, "perspective_c1_x": {"Points": [{"co": {"Y": -1, "X": 1}, "interpolation": 2}]}, "perspective_c4_y": {"Points": [{"co": {"Y": -1, "X": 1}, "interpolation": 2}]}, "reader": {"audio_bit_rate": 0, "has_single_image": false, "vcodec": "h264", "has_video": true, "type": "FFmpegReader", "video_length": "375", "audio_timebase": {"den": 1, "num": 1}, "path": "/home/robsen/Dropbox/Workdir/Repo/SuesseRache-HH-Taxi/taxi_start.mp4", "width": 1920, "has_audio": false, "video_bit_rate": 147692, "channel_layout": 4, "height": 1080, "display_ratio": {"den": 9, "num": 16}, "interlaced_frame": false, "duration": 15.0, "sample_rate": 0, "pixel_format": 0, "video_timebase": {"den": 12800, "num": 1}, "file_size": "276924", "top_field_first": true, "pixel_ratio": {"den": 1, "num": 1}, "acodec": "", "audio_stream_index": -1, "video_stream_index": 0, "channels": 0, "fps": {"den": 1, "num": 25}}, "channel_filter": {"Points": [{"co": {"Y": -1, "X": 1}, "interpolation": 2}]}, "file_id": "LGW3TZJV4Q", "time": {"Points": [{"co": {"Y": 1, "X": 1}, "interpolation": 2}]}}], "value": {"alpha": {"Points": [{"co": {"Y": 1, "X": 1}, "interpolation": 2}]}, "rotation": {"Points": [{"co": {"Y": 0, "X": 1}, "interpolation": 2}]}, "scale_y": {"Points": [{"co": {"Y": 1, "X": 1}, "interpolation": 2}]}, "crop_y": {"Points": [{"co": {"Y": 0, "X": 1}, "interpolation": 2}]}, "perspective_c3_x": {"Points": [{"co": {"Y": -1, "X": 1}, "interpolation": 2}]}, "end": 31.317333221435547, "crop_width": {"Points": [{"co": {"Y": -1, "X": 1}, "interpolation": 2}]}, "position": 21.76, "id": "627XQDJ3EP", "wave_color": {"green": {"Points": [{"handle_right": {"Y": 0, "X": 0.5}, "co": {"Y": 123, "X": 1}, "handle_left": {"Y": 1, "X": 0.5}, "handle_type": 0, "interpolation": 0}]}, "blue": {"Points": [{"handle_right": {"Y": 0, "X": 0.5}, "co": {"Y": 255, "X": 1}, "handle_left": {"Y": 1, "X": 0.5}, "handle_type": 0, "interpolation": 0}]}, "alpha": {"Points": [{"handle_right": {"Y": 0, "X": 0.5}, "co": {"Y": 255, "X": 1}, "handle_left": {"Y": 1, "X": 0.5}, "handle_type": 0, "interpolation": 0}]}, "red": {"Points": [{"handle_right": {"Y": 0, "X": 0.5}, "co": {"Y": 0, "X": 1}, "handle_left": {"Y": 1, "X": 0.5}, "handle_type": 0, "interpolation": 0}]}}, "has_video": {"Points": [{"co": {"Y": -1, "X": 1}, "interpolation": 2}]}, "has_audio": {"Points": [{"co": {"Y": -1, "X": 1}, "interpolation": 2}]}, "effects": [], "location_x": {"Points": [{"co": {"Y": 0, "X": 1}, "interpolation": 2}]}, "waveform": false, "title": "TE_SR_Taxi.mp4", "image": "/home/robsen/.openshot_qt/thumbnail/Z3LOYBY1PL.png", "gravity": 4, "scale_x": {"Points": [{"co": {"Y": 1, "X": 1}, "interpolation": 2}]}, "perspective_c1_y": {"Points": [{"co": {"Y": -1, "X": 1}, "interpolation": 2}]}, "crop_height": {"Points": [{"co": {"Y": -1, "X": 1}, "interpolation": 2}]}, "crop_x": {"Points": [{"co": {"Y": 0, "X": 1}, "interpolation": 2}]}, "start": 0, "scale": 1, "shear_y": {"Points": [{"co": {"Y": 0, "X": 1}, "interpolation": 2}]}, "display": 0, "volume": {"Points": [{"co": {"Y": 1, "X": 1}, "interpolation": 2}]}, "channel_mapping": {"Points": [{"co": {"Y": -1, "X": 1}, "interpolation": 2}]}, "anchor": 0, "duration": 31.317333221435547, "perspective_c3_y": {"Points": [{"co": {"Y": -1, "X": 1}, "interpolation": 2}]}, "shear_x": {"Points": [{"co": {"Y": 0, "X": 1}, "interpolation": 2}]}, "perspective_c4_x": {"Points": [{"co": {"Y": -1, "X": 1}, "interpolation": 2}]}, "location_y": {"Points": [{"co": {"Y": 0, "X": 1}, "interpolation": 2}]}, "perspective_c2_x": {"Points": [{"co": {"Y": -1, "X": 1}, "interpolation": 2}]}, "layer": 1, "perspective_c2_y": {"Points": [{"co": {"Y": -1, "X": 1}, "interpolation": 2}]}, "perspective_c1_x": {"Points": [{"co": {"Y": -1, "X": 1}, "interpolation": 2}]}, "perspective_c4_y": {"Points": [{"co": {"Y": -1, "X": 1}, "interpolation": 2}]}, "reader": {"audio_bit_rate": 189375, "has_single_image": false, "has_video": true, "type": "FFmpegReader", "video_length": "937", "audio_timebase": {"den": 48000, "num": 1}, "path": "/home/robsen/Dropbox/Workdir/Repo/SuesseRache-HH-Taxi/TE_SR_Taxi.mp4", "width": 1920, "has_audio": true, "video_bit_rate": 32091692, "channel_layout": 3, "height": 1080, "display_ratio": {"den": 9, "num": 16}, "interlaced_frame": false, "video_timebase": {"den": 29970, "num": 1}, "duration": 31.317333221435547, "sample_rate": 48000, "pixel_format": 0, "fps": {"den": 100, "num": 2997}, "file_size": "125628279", "top_field_first": true, "pixel_ratio": {"den": 1, "num": 1}, "acodec": "aac", "audio_stream_index": 1, "video_stream_index": 0, "channels": 2, "vcodec": "h264"}, "channel_filter": {"Points": [{"co": {"Y": -1, "X": 1}, "interpolation": 2}]}, "file_id": "Z3LOYBY1PL", "time": {"Points": [{"co": {"Y": 1, "X": 1}, "interpolation": 2}]}}, "key": ["clips"], "partial": false, "type": "insert"}, {"old_values": {"alpha": {"Points": [{"co": {"Y": 1, "X": 1}, "interpolation": 2}]}, "rotation": {"Points": [{"co": {"Y": 0, "X": 1}, "interpolation": 2}]}, "scale_y": {"Points": [{"co": {"Y": 1, "X": 1}, "interpolation": 2}]}, "crop_y": {"Points": [{"co": {"Y": 0, "X": 1}, "interpolation": 2}]}, "perspective_c3_x": {"Points": [{"co": {"Y": -1, "X": 1}, "interpolation": 2}]}, "end": 31.317333221435547, "crop_width": {"Points": [{"co": {"Y": -1, "X": 1}, "interpolation": 2}]}, "position": 18.88, "id": "627XQDJ3EP", "wave_color": {"green": {"Points": [{"handle_right": {"Y": 0, "X": 0.5}, "co": {"Y": 123, "X": 1}, "handle_left": {"Y": 1, "X": 0.5}, "handle_type": 0, "interpolation": 0}]}, "blue": {"Points": [{"handle_right": {"Y": 0, "X": 0.5}, "co": {"Y": 255, "X": 1}, "handle_left": {"Y": 1, "X": 0.5}, "handle_type": 0, "interpolation": 0}]}, "alpha": {"Points": [{"handle_right": {"Y": 0, "X": 0.5}, "co": {"Y": 255, "X": 1}, "handle_left": {"Y": 1, "X": 0.5}, "handle_type": 0, "interpolation": 0}]}, "red": {"Points": [{"handle_right": {"Y": 0, "X": 0.5}, "co": {"Y": 0, "X": 1}, "handle_left": {"Y": 1, "X": 0.5}, "handle_type": 0, "interpolation": 0}]}}, "has_video": {"Points": [{"co": {"Y": -1, "X": 1}, "interpolation": 2}]}, "has_audio": {"Points": [{"co": {"Y": -1, "X": 1}, "interpolation": 2}]}, "effects": [], "location_x": {"Points": [{"co": {"Y": 0, "X": 1}, "interpolation": 2}]}, "waveform": false, "title": "TE_SR_Taxi.mp4", "image": "/home/robsen/.openshot_qt/thumbnail/Z3LOYBY1PL.png", "gravity": 4, "scale_x": {"Points": [{"co": {"Y": 1, "X": 1}, "interpolation": 2}]}, "perspective_c1_y": {"Points": [{"co": {"Y": -1, "X": 1}, "interpolation": 2}]}, "crop_height": {"Points": [{"co": {"Y": -1, "X": 1}, "interpolation": 2}]}, "crop_x": {"Points": [{"co": {"Y": 0, "X": 1}, "interpolation": 2}]}, "start": 0, "scale": 1, "shear_y": {"Points": [{"co": {"Y": 0, "X": 1}, "interpolation": 2}]}, "display": 0, "volume": {"Points": [{"co": {"Y": 1, "X": 1}, "interpolation": 2}]}, "channel_mapping": {"Points": [{"co": {"Y": -1, "X": 1}, "interpolation": 2}]}, "anchor": 0, "duration": 31.317333221435547, "perspective_c3_y": {"Points": [{"co": {"Y": -1, "X": 1}, "interpolation": 2}]}, "shear_x": {"Points": [{"co": {"Y": 0, "X": 1}, "interpolation": 2}]}, "perspective_c4_x": {"Points": [{"co": {"Y": -1, "X": 1}, "interpolation": 2}]}, "location_y": {"Points": [{"co": {"Y": 0, "X": 1}, "interpolation": 2}]}, "perspective_c2_x": {"Points": [{"co": {"Y": -1, "X": 1}, "interpolation": 2}]}, "layer": 2, "perspective_c2_y": {"Points": [{"co": {"Y": -1, "X": 1}, "interpolation": 2}]}, "perspective_c1_x": {"Points": [{"co": {"Y": -1, "X": 1}, "interpolation": 2}]}, "perspective_c4_y": {"Points": [{"co": {"Y": -1, "X": 1}, "interpolation": 2}]}, "reader": {"audio_bit_rate": 189375, "has_single_image": false, "vcodec": "h264", "has_video": true, "type": "FFmpegReader", "video_length": "937", "audio_timebase": {"den": 48000, "num": 1}, "path": "/home/robsen/Dropbox/Workdir/Repo/SuesseRache-HH-Taxi/TE_SR_Taxi.mp4", "width": 1920, "has_audio": true, "video_bit_rate": 32091692, "channel_layout": 3, "height": 1080, "display_ratio": {"den": 9, "num": 16}, "interlaced_frame": false, "duration": 31.317333221435547, "sample_rate": 48000, "pixel_format": 0, "video_timebase": {"den": 29970, "num": 1}, "file_size": "125628279", "top_field_first": true, "pixel_ratio": {"den": 1, "num": 1}, "acodec": "aac", "audio_stream_index": 1, "video_stream_index": 0, "channels": 2, "fps": {"den": 100, "num": 2997}}, "channel_filter": {"Points": [{"co": {"Y": -1, "X": 1}, "interpolation": 2}]}, "file_id": "Z3LOYBY1PL", "time": {"Points": [{"co": {"Y": 1, "X": 1}, "interpolation": 2}]}}, "value": {"id": "627XQDJ3EP", "start": 0, "end": 31.317333221435547, "position": 21.76, "layer": 0, "image": "/home/robsen/.openshot_qt/thumbnail/Z3LOYBY1PL.png"}, "key": ["clips", {"id": "627XQDJ3EP"}], "partial": false, "type": "update"}, {"old_values": [], "value": {"start": 0, "type": "Mask", "contrast": {"Points": [{"co": {"Y": 3, "X": 1}, "interpolation": 2}]}, "layer": 0, "replace_image": false, "title": "Transition", "end": 2.039999999999999, "reader": {"audio_bit_rate": 0, "has_single_image": true, "has_video": true, "type": "QtImageReader", "video_length": "2592000", "audio_timebase": {"den": 1, "num": 1}, "path": "/usr/lib/python3/dist-packages/openshot_qt/transitions/common/fade.svg", "width": 720, "has_audio": false, "video_bit_rate": 0, "channel_layout": 4, "height": 576, "display_ratio": {"den": 4, "num": 5}, "interlaced_frame": false, "video_timebase": {"den": 30, "num": 1}, "duration": 86400, "sample_rate": 0, "pixel_format": -1, "fps": {"den": 1, "num": 30}, "file_size": "1658880", "top_field_first": true, "pixel_ratio": {"den": 1, "num": 1}, "acodec": "", "audio_stream_index": -1, "video_stream_index": -1, "channels": 0, "vcodec": ""}, "brightness": {"Points": [{"handle_right": {"Y": 0, "X": 0.5}, "co": {"Y": 1, "X": 1}, "handle_left": {"Y": 1, "X": 0.5}, "handle_type": 0, "interpolation": 0}, {"handle_right": {"Y": 0, "X": 0.5}, "co": {"Y": -1, "X": 50}, "handle_left": {"Y": 1, "X": 0.5}, "handle_type": 0, "interpolation": 0}]}, "id": "5NBS5H99MA", "position": 21.76}, "key": ["effects"], "partial": false, "type": "insert"}, {"old_values": {"alpha": {"Points": [{"co": {"Y": 1, "X": 1}, "interpolation": 2}]}, "rotation": {"Points": [{"co": {"Y": 0, "X": 1}, "interpolation": 2}]}, "scale_y": {"Points": [{"co": {"Y": 1, "X": 1}, "interpolation": 2}]}, "crop_y": {"Points": [{"co": {"Y": 0, "X": 1}, "interpolation": 2}]}, "perspective_c3_x": {"Points": [{"co": {"Y": -1, "X": 1}, "interpolation": 2}]}, "end": 31.317333221435547, "crop_width": {"Points": [{"co": {"Y": -1, "X": 1}, "interpolation": 2}]}, "position": 21.76, "id": "627XQDJ3EP", "wave_color": {"green": {"Points": [{"handle_right": {"Y": 0, "X": 0.5}, "co": {"Y": 123, "X": 1}, "handle_left": {"Y": 1, "X": 0.5}, "handle_type": 0, "interpolation": 0}]}, "blue": {"Points": [{"handle_right": {"Y": 0, "X": 0.5}, "co": {"Y": 255, "X": 1}, "handle_left": {"Y": 1, "X": 0.5}, "handle_type": 0, "interpolation": 0}]}, "alpha": {"Points": [{"handle_right": {"Y": 0, "X": 0.5}, "co": {"Y": 255, "X": 1}, "handle_left": {"Y": 1, "X": 0.5}, "handle_type": 0, "interpolation": 0}]}, "red": {"Points": [{"handle_right": {"Y": 0, "X": 0.5}, "co": {"Y": 0, "X": 1}, "handle_left": {"Y": 1, "X": 0.5}, "handle_type": 0, "interpolation": 0}]}}, "has_video": {"Points": [{"co": {"Y": -1, "X": 1}, "interpolation": 2}]}, "has_audio": {"Points": [{"co": {"Y": -1, "X": 1}, "interpolation": 2}]}, "effects": [], "location_x": {"Points": [{"co": {"Y": 0, "X": 1}, "interpolation": 2}]}, "waveform": false, "title": "TE_SR_Taxi.mp4", "image": "/home/robsen/.openshot_qt/thumbnail/Z3LOYBY1PL.png", "gravity": 4, "perspective_c2_x": {"Points": [{"co": {"Y": -1, "X": 1}, "interpolation": 2}]}, "perspective_c1_y": {"Points": [{"co": {"Y": -1, "X": 1}, "interpolation": 2}]}, "crop_height": {"Points": [{"co": {"Y": -1, "X": 1}, "interpolation": 2}]}, "crop_x": {"Points": [{"co": {"Y": 0, "X": 1}, "interpolation": 2}]}, "start": 0, "scale": 1, "shear_y": {"Points": [{"co": {"Y": 0, "X": 1}, "interpolation": 2}]}, "display": 0, "volume": {"Points": [{"co": {"Y": 1, "X": 1}, "interpolation": 2}]}, "channel_mapping": {"Points": [{"co": {"Y": -1, "X": 1}, "interpolation": 2}]}, "anchor": 0, "duration": 31.317333221435547, "perspective_c3_y": {"Points": [{"co": {"Y": -1, "X": 1}, "interpolation": 2}]}, "shear_x": {"Points": [{"co": {"Y": 0, "X": 1}, "interpolation": 2}]}, "perspective_c4_x": {"Points": [{"co": {"Y": -1, "X": 1}, "interpolation": 2}]}, "location_y": {"Points": [{"co": {"Y": 0, "X": 1}, "interpolation": 2}]}, "scale_x": {"Points": [{"co": {"Y": 1, "X": 1}, "interpolation": 2}]}, "layer": 0, "perspective_c2_y": {"Points": [{"co": {"Y": -1, "X": 1}, "interpolation": 2}]}, "perspective_c1_x": {"Points": [{"co": {"Y": -1, "X": 1}, "interpolation": 2}]}, "perspective_c4_y": {"Points": [{"co": {"Y": -1, "X": 1}, "interpolation": 2}]}, "reader": {"audio_bit_rate": 189375, "has_single_image": false, "vcodec": "h264", "has_video": true, "type": "FFmpegReader", "video_length": "937", "audio_timebase": {"den": 48000, "num": 1}, "path": "/home/robsen/Dropbox/Workdir/Repo/SuesseRache-HH-Taxi/TE_SR_Taxi.mp4", "width": 1920, "has_audio": true, "video_bit_rate": 32091692, "channel_layout": 3, "height": 1080, "display_ratio": {"den": 9, "num": 16}, "interlaced_frame": false, "duration": 31.317333221435547, "sample_rate": 48000, "pixel_format": 0, "video_timebase": {"den": 29970, "num": 1}, "file_size": "125628279", "top_field_first": true, "pixel_ratio": {"den": 1, "num": 1}, "acodec": "aac", "audio_stream_index": 1, "video_stream_index": 0, "channels": 2, "fps": {"den": 100, "num": 2997}}, "channel_filter": {"Points": [{"co": {"Y": -1, "X": 1}, "interpolation": 2}]}, "file_id": "Z3LOYBY1PL", "time": {"Points": [{"co": {"Y": 1, "X": 1}, "interpolation": 2}]}}, "value": {"id": "627XQDJ3EP", "start": 0, "end": 31.317333221435547, "position": 21.76, "layer": 1, "image": "/home/robsen/.openshot_qt/thumbnail/Z3LOYBY1PL.png"}, "key": ["clips", {"id": "627XQDJ3EP"}], "partial": false, "type": "update"}, {"old_values": [{"alpha": {"Points": [{"co": {"Y": 1, "X": 1}, "interpolation": 2}]}, "rotation": {"Points": [{"co": {"Y": 0, "X": 1}, "interpolation": 2}]}, "scale_y": {"Points": [{"co": {"Y": 1, "X": 1}, "interpolation": 2}]}, "crop_y": {"Points": [{"co": {"Y": 0, "X": 1}, "interpolation": 2}]}, "perspective_c3_x": {"Points": [{"co": {"Y": -1, "X": 1}, "interpolation": 2}]}, "end": 15, "crop_width": {"Points": [{"co": {"Y": -1, "X": 1}, "interpolation": 2}]}, "position": 8.8, "id": "0AEDFYGQ7J", "wave_color": {"green": {"Points": [{"handle_right": {"Y": 0, "X": 0.5}, "co": {"Y": 123, "X": 1}, "handle_left": {"Y": 1, "X": 0.5}, "handle_type": 0, "interpolation": 0}]}, "blue": {"Points": [{"handle_right": {"Y": 0, "X": 0.5}, "co": {"Y": 255, "X": 1}, "handle_left": {"Y": 1, "X": 0.5}, "handle_type": 0, "interpolation": 0}]}, "alpha": {"Points": [{"handle_right": {"Y": 0, "X": 0.5}, "co": {"Y": 255, "X": 1}, "handle_left": {"Y": 1, "X": 0.5}, "handle_type": 0, "interpolation": 0}]}, "red": {"Points": [{"handle_right": {"Y": 0, "X": 0.5}, "co": {"Y": 0, "X": 1}, "handle_left": {"Y": 1, "X": 0.5}, "handle_type": 0, "interpolation": 0}]}}, "has_video": {"Points": [{"co": {"Y": -1, "X": 1}, "interpolation": 2}]}, "has_audio": {"Points": [{"co": {"Y": -1, "X": 1}, "interpolation": 2}]}, "effects": [], "location_x": {"Points": [{"co": {"Y": 0, "X": 1}, "interpolation": 2}]}, "waveform": false, "title": "taxi_start.mp4", "image": "/home/robsen/.openshot_qt/thumbnail/LGW3TZJV4Q.png", "gravity": 4, "perspective_c2_x": {"Points": [{"co": {"Y": -1, "X": 1}, "interpolation": 2}]}, "perspective_c1_y": {"Points": [{"co": {"Y": -1, "X": 1}, "interpolation": 2}]}, "crop_height": {"Points": [{"co": {"Y": -1, "X": 1}, "interpolation": 2}]}, "crop_x": {"Points": [{"co": {"Y": 0, "X": 1}, "interpolation": 2}]}, "start": 0, "scale": 1, "shear_y": {"Points": [{"co": {"Y": 0, "X": 1}, "interpolation": 2}]}, "display": 0, "volume": {"Points": [{"co": {"Y": 1, "X": 1}, "interpolation": 2}]}, "channel_mapping": {"Points": [{"co": {"Y": -1, "X": 1}, "interpolation": 2}]}, "anchor": 0, "duration": 15.0, "perspective_c3_y": {"Points": [{"co": {"Y": -1, "X": 1}, "interpolation": 2}]}, "shear_x": {"Points": [{"co": {"Y": 0, "X": 1}, "interpolation": 2}]}, "perspective_c4_x": {"Points": [{"co": {"Y": -1, "X": 1}, "interpolation": 2}]}, "location_y": {"Points": [{"co": {"Y": 0, "X": 1}, "interpolation": 2}]}, "scale_x": {"Points": [{"co": {"Y": 1, "X": 1}, "interpolation": 2}]}, "layer": 0, "perspective_c2_y": {"Points": [{"co": {"Y": -1, "X": 1}, "interpolation": 2}]}, "perspective_c1_x": {"Points": [{"co": {"Y": -1, "X": 1}, "interpolation": 2}]}, "perspective_c4_y": {"Points": [{"co": {"Y": -1, "X": 1}, "interpolation": 2}]}, "reader": {"audio_bit_rate": 0, "has_single_image": false, "vcodec": "h264", "has_video": true, "type": "FFmpegReader", "video_length": "375", "audio_timebase": {"den": 1, "num": 1}, "path": "/home/robsen/Dropbox/Workdir/Repo/SuesseRache-HH-Taxi/taxi_start.mp4", "width": 1920, "has_audio": false, "video_bit_rate": 147692, "channel_layout": 4, "height": 1080, "display_ratio": {"den": 9, "num": 16}, "interlaced_frame": false, "duration": 15.0, "sample_rate": 0, "pixel_format": 0, "video_timebase": {"den": 12800, "num": 1}, "file_size": "276924", "top_field_first": true, "pixel_ratio": {"den": 1, "num": 1}, "acodec": "", "audio_stream_index": -1, "video_stream_index": 0, "channels": 0, "fps": {"den": 1, "num": 25}}, "channel_filter": {"Points": [{"co": {"Y": -1, "X": 1}, "interpolation": 2}]}, "file_id": "LGW3TZJV4Q", "time": {"Points": [{"co": {"Y": 1, "X": 1}, "interpolation": 2}]}}, {"alpha": {"Points": [{"co": {"Y": 1, "X": 1}, "interpolation": 2}]}, "rotation": {"Points": [{"co": {"Y": 0, "X": 1}, "interpolation": 2}]}, "scale_y": {"Points": [{"co": {"Y": 1, "X": 1}, "interpolation": 2}]}, "crop_y": {"Points": [{"co": {"Y": 0, "X": 1}, "interpolation": 2}]}, "perspective_c3_x": {"Points": [{"co": {"Y": -1, "X": 1}, "interpolation": 2}]}, "end": 31.317333221435547, "crop_width": {"Points": [{"co": {"Y": -1, "X": 1}, "interpolation": 2}]}, "position": 21.76, "id": "627XQDJ3EP", "wave_color": {"green": {"Points": [{"handle_right": {"Y": 0, "X": 0.5}, "co": {"Y": 123, "X": 1}, "handle_left": {"Y": 1, "X": 0.5}, "handle_type": 0, "interpolation": 0}]}, "blue": {"Points": [{"handle_right": {"Y": 0, "X": 0.5}, "co": {"Y": 255, "X": 1}, "handle_left": {"Y": 1, "X": 0.5}, "handle_type": 0, "interpolation": 0}]}, "alpha": {"Points": [{"handle_right": {"Y": 0, "X": 0.5}, "co": {"Y": 255, "X": 1}, "handle_left": {"Y": 1, "X": 0.5}, "handle_type": 0, "interpolation": 0}]}, "red": {"Points": [{"handle_right": {"Y": 0, "X": 0.5}, "co": {"Y": 0, "X": 1}, "handle_left": {"Y": 1, "X": 0.5}, "handle_type": 0, "interpolation": 0}]}}, "has_video": {"Points": [{"co": {"Y": -1, "X": 1}, "interpolation": 2}]}, "has_audio": {"Points": [{"co": {"Y": -1, "X": 1}, "interpolation": 2}]}, "effects": [], "location_x": {"Points": [{"co": {"Y": 0, "X": 1}, "interpolation": 2}]}, "waveform": false, "title": "TE_SR_Taxi.mp4", "image": "/home/robsen/.openshot_qt/thumbnail/Z3LOYBY1PL.png", "gravity": 4, "perspective_c2_x": {"Points": [{"co": {"Y": -1, "X": 1}, "interpolation": 2}]}, "perspective_c1_y": {"Points": [{"co": {"Y": -1, "X": 1}, "interpolation": 2}]}, "crop_height": {"Points": [{"co": {"Y": -1, "X": 1}, "interpolation": 2}]}, "crop_x": {"Points": [{"co": {"Y": 0, "X": 1}, "interpolation": 2}]}, "start": 0, "scale": 1, "shear_y": {"Points": [{"co": {"Y": 0, "X": 1}, "interpolation": 2}]}, "display": 0, "volume": {"Points": [{"co": {"Y": 1, "X": 1}, "interpolation": 2}]}, "channel_mapping": {"Points": [{"co": {"Y": -1, "X": 1}, "interpolation": 2}]}, "anchor": 0, "duration": 31.317333221435547, "perspective_c3_y": {"Points": [{"co": {"Y": -1, "X": 1}, "interpolation": 2}]}, "shear_x": {"Points": [{"co": {"Y": 0, "X": 1}, "interpolation": 2}]}, "perspective_c4_x": {"Points": [{"co": {"Y": -1, "X": 1}, "interpolation": 2}]}, "location_y": {"Points": [{"co": {"Y": 0, "X": 1}, "interpolation": 2}]}, "scale_x": {"Points": [{"co": {"Y": 1, "X": 1}, "interpolation": 2}]}, "layer": 1, "perspective_c2_y": {"Points": [{"co": {"Y": -1, "X": 1}, "interpolation": 2}]}, "perspective_c1_x": {"Points": [{"co": {"Y": -1, "X": 1}, "interpolation": 2}]}, "perspective_c4_y": {"Points": [{"co": {"Y": -1, "X": 1}, "interpolation": 2}]}, "reader": {"audio_bit_rate": 189375, "has_single_image": false, "vcodec": "h264", "has_video": true, "type": "FFmpegReader", "video_length": "937", "audio_timebase": {"den": 48000, "num": 1}, "path": "/home/robsen/Dropbox/Workdir/Repo/SuesseRache-HH-Taxi/TE_SR_Taxi.mp4", "width": 1920, "has_audio": true, "video_bit_rate": 32091692, "channel_layout": 3, "height": 1080, "display_ratio": {"den": 9, "num": 16}, "interlaced_frame": false, "duration": 31.317333221435547, "sample_rate": 48000, "pixel_format": 0, "video_timebase": {"den": 29970, "num": 1}, "file_size": "125628279", "top_field_first": true, "pixel_ratio": {"den": 1, "num": 1}, "acodec": "aac", "audio_stream_index": 1, "video_stream_index": 0, "channels": 2, "fps": {"den": 100, "num": 2997}}, "channel_filter": {"Points": [{"co": {"Y": -1, "X": 1}, "interpolation": 2}]}, "file_id": "Z3LOYBY1PL", "time": {"Points": [{"co": {"Y": 1, "X": 1}, "interpolation": 2}]}}], "value": {"alpha": {"Points": [{"co": {"Y": 1, "X": 1}, "interpolation": 2}, {"handle_right": {"Y": 0, "X": 0.5}, "co": {"Y": 0, "X": 1}, "handle_left": {"Y": 1, "X": 0.5}, "handle_type": 0, "interpolation": 0}, {"handle_right": {"Y": 0, "X": 0.5}, "co": {"Y": 1, "X": 73}, "handle_left": {"Y": 1, "X": 0.5}, "handle_type": 0, "interpolation": 0}]}, "rotation": {"Points": [{"co": {"Y": 0, "X": 1}, "interpolation": 2}]}, "scale_y": {"Points": [{"co": {"Y": 1, "X": 1}, "interpolation": 2}]}, "crop_y": {"Points": [{"co": {"Y": 0, "X": 1}, "interpolation": 2}]}, "perspective_c3_x": {"Points": [{"co": {"Y": -1, "X": 1}, "interpolation": 2}]}, "end": 15, "crop_width": {"Points": [{"co": {"Y": -1, "X": 1}, "interpolation": 2}]}, "position": 53.075, "id": "PJWPMFXKV3", "wave_color": {"green": {"Points": [{"handle_right": {"Y": 0, "X": 0.5}, "co": {"Y": 123, "X": 1}, "handle_left": {"Y": 1, "X": 0.5}, "handle_type": 0, "interpolation": 0}]}, "blue": {"Points": [{"handle_right": {"Y": 0, "X": 0.5}, "co": {"Y": 255, "X": 1}, "handle_left": {"Y": 1, "X": 0.5}, "handle_type": 0, "interpolation": 0}]}, "alpha": {"Points": [{"handle_right": {"Y": 0, "X": 0.5}, "co": {"Y": 255, "X": 1}, "handle_left": {"Y": 1, "X": 0.5}, "handle_type": 0, "interpolation": 0}]}, "red": {"Points": [{"handle_right": {"Y": 0, "X": 0.5}, "co": {"Y": 0, "X": 1}, "handle_left": {"Y": 1, "X": 0.5}, "handle_type": 0, "interpolation": 0}]}}, "has_video": {"Points": [{"co": {"Y": -1, "X": 1}, "interpolation": 2}]}, "has_audio": {"Points": [{"co": {"Y": -1, "X": 1}, "interpolation": 2}]}, "effects": [], "location_x": {"Points": [{"co": {"Y": 0, "X": 1}, "interpolation": 2}]}, "waveform": false, "title": "arrow.mp4", "image": "/home/robsen/.openshot_qt/thumbnail/X22V56NF57.png", "gravity": 4, "scale_x": {"Points": [{"co": {"Y": 1, "X": 1}, "interpolation": 2}]}, "perspective_c1_y": {"Points": [{"co": {"Y": -1, "X": 1}, "interpolation": 2}]}, "crop_height": {"Points": [{"co": {"Y": -1, "X": 1}, "interpolation": 2}]}, "crop_x": {"Points": [{"co": {"Y": 0, "X": 1}, "interpolation": 2}]}, "start": 0, "scale": 1, "shear_y": {"Points": [{"co": {"Y": 0, "X": 1}, "interpolation": 2}]}, "display": 0, "volume": {"Points": [{"co": {"Y": 1, "X": 1}, "interpolation": 2}]}, "channel_mapping": {"Points": [{"co": {"Y": -1, "X": 1}, "interpolation": 2}]}, "anchor": 0, "duration": 15.0, "perspective_c3_y": {"Points": [{"co": {"Y": -1, "X": 1}, "interpolation": 2}]}, "shear_x": {"Points": [{"co": {"Y": 0, "X": 1}, "interpolation": 2}]}, "perspective_c4_x": {"Points": [{"co": {"Y": -1, "X": 1}, "interpolation": 2}]}, "location_y": {"Points": [{"co": {"Y": 0, "X": 1}, "interpolation": 2}]}, "perspective_c2_x": {"Points": [{"co": {"Y": -1, "X": 1}, "interpolation": 2}]}, "layer": 2, "perspective_c2_y": {"Points": [{"co": {"Y": -1, "X": 1}, "interpolation": 2}]}, "perspective_c1_x": {"Points": [{"co": {"Y": -1, "X": 1}, "interpolation": 2}]}, "perspective_c4_y": {"Points": [{"co": {"Y": -1, "X": 1}, "interpolation": 2}]}, "reader": {"audio_bit_rate": 0, "has_single_image": false, "has_video": true, "type": "FFmpegReader", "video_length": "375", "audio_timebase": {"den": 1, "num": 1}, "path": "/home/robsen/Dropbox/Workdir/Repo/SuesseRache-HH-Taxi/arrow.mp4", "width": 1920, "has_audio": false, "video_bit_rate": 83079, "channel_layout": 4, "height": 1080, "display_ratio": {"den": 9, "num": 16}, "interlaced_frame": false, "video_timebase": {"den": 12800, "num": 1}, "duration": 15.0, "sample_rate": 0, "pixel_format": 0, "fps": {"den": 1, "num": 25}, "file_size": "155774", "top_field_first": true, "pixel_ratio": {"den": 1, "num": 1}, "acodec": "", "audio_stream_index": -1, "video_stream_index": 0, "channels": 0, "vcodec": "h264"}, "channel_filter": {"Points": [{"co": {"Y": -1, "X": 1}, "interpolation": 2}]}, "file_id": "X22V56NF57", "time": {"Points": [{"co": {"Y": 1, "X": 1}, "interpolation": 2}]}}, "key": ["clips"], "partial": false, "type": "insert"}, {"old_values": {"alpha": {"Points": [{"co": {"Y": 1, "X": 1}, "interpolation": 2}]}, "rotation": {"Points": [{"co": {"Y": 0, "X": 1}, "interpolation": 2}]}, "scale_y": {"Points": [{"co": {"Y": 1, "X": 1}, "interpolation": 2}]}, "crop_y": {"Points": [{"co": {"Y": 0, "X": 1}, "interpolation": 2}]}, "perspective_c3_x": {"Points": [{"co": {"Y": -1, "X": 1}, "interpolation": 2}]}, "end": 15.0, "crop_width": {"Points": [{"co": {"Y": -1, "X": 1}, "interpolation": 2}]}, "position": 62.88, "id": "PJWPMFXKV3", "wave_color": {"green": {"Points": [{"handle_right": {"Y": 0, "X": 0.5}, "co": {"Y": 123, "X": 1}, "handle_left": {"Y": 1, "X": 0.5}, "handle_type": 0, "interpolation": 0}]}, "blue": {"Points": [{"handle_right": {"Y": 0, "X": 0.5}, "co": {"Y": 255, "X": 1}, "handle_left": {"Y": 1, "X": 0.5}, "handle_type": 0, "interpolation": 0}]}, "alpha": {"Points": [{"handle_right": {"Y": 0, "X": 0.5}, "co": {"Y": 255, "X": 1}, "handle_left": {"Y": 1, "X": 0.5}, "handle_type": 0, "interpolation": 0}]}, "red": {"Points": [{"handle_right": {"Y": 0, "X": 0.5}, "co": {"Y": 0, "X": 1}, "handle_left": {"Y": 1, "X": 0.5}, "handle_type": 0, "interpolation": 0}]}}, "has_video": {"Points": [{"co": {"Y": -1, "X": 1}, "interpolation": 2}]}, "has_audio": {"Points": [{"co": {"Y": -1, "X": 1}, "interpolation": 2}]}, "effects": [], "location_x": {"Points": [{"co": {"Y": 0, "X": 1}, "interpolation": 2}]}, "waveform": false, "title": "arrow.mp4", "image": "/home/robsen/.openshot_qt/thumbnail/X22V56NF57.png", "gravity": 4, "scale_x": {"Points": [{"co": {"Y": 1, "X": 1}, "interpolation": 2}]}, "perspective_c1_y": {"Points": [{"co": {"Y": -1, "X": 1}, "interpolation": 2}]}, "crop_height": {"Points": [{"co": {"Y": -1, "X": 1}, "interpolation": 2}]}, "crop_x": {"Points": [{"co": {"Y": 0, "X": 1}, "interpolation": 2}]}, "start": 0, "scale": 1, "shear_y": {"Points": [{"co": {"Y": 0, "X": 1}, "interpolation": 2}]}, "display": 0, "volume": {"Points": [{"co": {"Y": 1, "X": 1}, "interpolation": 2}]}, "channel_mapping": {"Points": [{"co": {"Y": -1, "X": 1}, "interpolation": 2}]}, "anchor": 0, "duration": 15.0, "perspective_c3_y": {"Points": [{"co": {"Y": -1, "X": 1}, "interpolation": 2}]}, "shear_x": {"Points": [{"co": {"Y": 0, "X": 1}, "interpolation": 2}]}, "perspective_c4_x": {"Points": [{"co": {"Y": -1, "X": 1}, "interpolation": 2}]}, "location_y": {"Points": [{"co": {"Y": 0, "X": 1}, "interpolation": 2}]}, "perspective_c2_x": {"Points": [{"co": {"Y": -1, "X": 1}, "interpolation": 2}]}, "layer": 2, "perspective_c2_y": {"Points": [{"co": {"Y": -1, "X": 1}, "interpolation": 2}]}, "perspective_c1_x": {"Points": [{"co": {"Y": -1, "X": 1}, "interpolation": 2}]}, "perspective_c4_y": {"Points": [{"co": {"Y": -1, "X": 1}, "interpolation": 2}]}, "reader": {"audio_bit_rate": 0, "has_single_image": false, "vcodec": "h264", "has_video": true, "type": "FFmpegReader", "video_length": "375", "audio_timebase": {"den": 1, "num": 1}, "path": "/home/robsen/Dropbox/Workdir/Repo/SuesseRache-HH-Taxi/arrow.mp4", "width": 1920, "has_audio": false, "video_bit_rate": 83079, "channel_layout": 4, "height": 1080, "display_ratio": {"den": 9, "num": 16}, "interlaced_frame": false, "duration": 15.0, "sample_rate": 0, "pixel_format": 0, "video_timebase": {"den": 12800, "num": 1}, "file_size": "155774", "top_field_first": true, "pixel_ratio": {"den": 1, "num": 1}, "acodec": "", "audio_stream_index": -1, "video_stream_index": 0, "channels": 0, "fps": {"den": 1, "num": 25}}, "channel_filter": {"Points": [{"co": {"Y": -1, "X": 1}, "interpolation": 2}]}, "file_id": "X22V56NF57", "time": {"Points": [{"co": {"Y": 1, "X": 1}, "interpolation": 2}]}}, "value": {"id": "PJWPMFXKV3", "start": 0, "end": 15, "position": 63.04, "layer": 1, "image": "/home/robsen/.openshot_qt/thumbnail/X22V56NF57.png"}, "key": ["clips", {"id": "PJWPMFXKV3"}], "partial": false, "type": "update"}, {"old_values": {"alpha": {"Points": [{"co": {"Y": 1, "X": 1}, "interpolation": 2}]}, "rotation": {"Points": [{"co": {"Y": 0, "X": 1}, "interpolation": 2}]}, "scale_y": {"Points": [{"co": {"Y": 1, "X": 1}, "interpolation": 2}]}, "crop_y": {"Points": [{"co": {"Y": 0, "X": 1}, "interpolation": 2}]}, "perspective_c3_x": {"Points": [{"co": {"Y": -1, "X": 1}, "interpolation": 2}]}, "end": 15, "crop_width": {"Points": [{"co": {"Y": -1, "X": 1}, "interpolation": 2}]}, "position": 63.04, "id": "PJWPMFXKV3", "wave_color": {"green": {"Points": [{"handle_right": {"Y": 0, "X": 0.5}, "co": {"Y": 123, "X": 1}, "handle_left": {"Y": 1, "X": 0.5}, "handle_type": 0, "interpolation": 0}]}, "blue": {"Points": [{"handle_right": {"Y": 0, "X": 0.5}, "co": {"Y": 255, "X": 1}, "handle_left": {"Y": 1, "X": 0.5}, "handle_type": 0, "interpolation": 0}]}, "alpha": {"Points": [{"handle_right": {"Y": 0, "X": 0.5}, "co": {"Y": 255, "X": 1}, "handle_left": {"Y": 1, "X": 0.5}, "handle_type": 0, "interpolation": 0}]}, "red": {"Points": [{"handle_right": {"Y": 0, "X": 0.5}, "co": {"Y": 0, "X": 1}, "handle_left": {"Y": 1, "X": 0.5}, "handle_type": 0, "interpolation": 0}]}}, "has_video": {"Points": [{"co": {"Y": -1, "X": 1}, "interpolation": 2}]}, "has_audio": {"Points": [{"co": {"Y": -1, "X": 1}, "interpolation": 2}]}, "effects": [], "location_x": {"Points": [{"co": {"Y": 0, "X": 1}, "interpolation": 2}]}, "waveform": false, "title": "arrow.mp4", "image": "/home/robsen/.openshot_qt/thumbnail/X22V56NF57.png", "gravity": 4, "perspective_c2_x": {"Points": [{"co": {"Y": -1, "X": 1}, "interpolation": 2}]}, "perspective_c1_y": {"Points": [{"co": {"Y": -1, "X": 1}, "interpolation": 2}]}, "crop_height": {"Points": [{"co": {"Y": -1, "X": 1}, "interpolation": 2}]}, "crop_x": {"Points": [{"co": {"Y": 0, "X": 1}, "interpolation": 2}]}, "start": 0, "scale": 1, "shear_y": {"Points": [{"co": {"Y": 0, "X": 1}, "interpolation": 2}]}, "display": 0, "volume": {"Points": [{"co": {"Y": 1, "X": 1}, "interpolation": 2}]}, "channel_mapping": {"Points": [{"co": {"Y": -1, "X": 1}, "interpolation": 2}]}, "anchor": 0, "duration": 15.0, "perspective_c3_y": {"Points": [{"co": {"Y": -1, "X": 1}, "interpolation": 2}]}, "shear_x": {"Points": [{"co": {"Y": 0, "X": 1}, "interpolation": 2}]}, "perspective_c4_x": {"Points": [{"co": {"Y": -1, "X": 1}, "interpolation": 2}]}, "location_y": {"Points": [{"co": {"Y": 0, "X": 1}, "interpolation": 2}]}, "scale_x": {"Points": [{"co": {"Y": 1, "X": 1}, "interpolation": 2}]}, "layer": 1, "perspective_c2_y": {"Points": [{"co": {"Y": -1, "X": 1}, "interpolation": 2}]}, "perspective_c1_x": {"Points": [{"co": {"Y": -1, "X": 1}, "interpolation": 2}]}, "perspective_c4_y": {"Points": [{"co": {"Y": -1, "X": 1}, "interpolation": 2}]}, "reader": {"audio_bit_rate": 0, "has_single_image": false, "vcodec": "h264", "has_video": true, "type": "FFmpegReader", "video_length": "375", "audio_timebase": {"den": 1, "num": 1}, "path": "/home/robsen/Dropbox/Workdir/Repo/SuesseRache-HH-Taxi/arrow.mp4", "width": 1920, "has_audio": false, "video_bit_rate": 83079, "channel_layout": 4, "height": 1080, "display_ratio": {"den": 9, "num": 16}, "interlaced_frame": false, "duration": 15.0, "sample_rate": 0, "pixel_format": 0, "video_timebase": {"den": 12800, "num": 1}, "file_size": "155774", "top_field_first": true, "pixel_ratio": {"den": 1, "num": 1}, "acodec": "", "audio_stream_index": -1, "video_stream_index": 0, "channels": 0, "fps": {"den": 1, "num": 25}}, "channel_filter": {"Points": [{"co": {"Y": -1, "X": 1}, "interpolation": 2}]}, "file_id": "X22V56NF57", "time": {"Points": [{"co": {"Y": 1, "X": 1}, "interpolation": 2}]}}, "value": {"id": "PJWPMFXKV3", "start": 0, "end": 15, "position": 53.075, "layer": 2, "image": "/home/robsen/.openshot_qt/thumbnail/X22V56NF57.png"}, "key": ["clips", {"id": "PJWPMFXKV3"}], "partial": false, "type": "update"}, {"old_values": {"start": 0, "type": "Mask", "contrast": {"Points": [{"co": {"Y": 3, "X": 1}, "interpolation": 2}]}, "layer": 0, "replace_image": false, "title": "Transition", "end": 2.039999999999999, "reader": {"audio_bit_rate": 0, "has_single_image": true, "vcodec": "", "has_video": true, "type": "QtImageReader", "video_length": "2592000", "audio_timebase": {"den": 1, "num": 1}, "path": "/usr/lib/python3/dist-packages/openshot_qt/transitions/common/fade.svg", "width": 720, "has_audio": false, "video_bit_rate": 0, "channel_layout": 4, "height": 576, "display_ratio": {"den": 4, "num": 5}, "interlaced_frame": false, "duration": 86400, "sample_rate": 0, "pixel_format": -1, "video_timebase": {"den": 30, "num": 1}, "file_size": "1658880", "top_field_first": true, "pixel_ratio": {"den": 1, "num": 1}, "acodec": "", "audio_stream_index": -1, "video_stream_index": -1, "channels": 0, "fps": {"den": 1, "num": 30}}, "brightness": {"Points": [{"handle_right": {"Y": 0, "X": 0.5}, "co": {"Y": 1, "X": 1}, "handle_left": {"Y": 1, "X": 0.5}, "handle_type": 0, "interpolation": 0}, {"handle_right": {"Y": 0, "X": 0.5}, "co": {"Y": -1, "X": 50}, "handle_left": {"Y": 1, "X": 0.5}, "handle_type": 0, "interpolation": 0}]}, "id": "5NBS5H99MA", "position": 21.76}, "value": null, "key": ["effects", {"id": "5NBS5H99MA"}], "partial": false, "type": "delete"}, {"old_values": {"alpha": {"Points": [{"co": {"Y": 1, "X": 1}, "interpolation": 2}]}, "rotation": {"Points": [{"co": {"Y": 0, "X": 1}, "interpolation": 2}]}, "scale_y": {"Points": [{"co": {"Y": 1, "X": 1}, "interpolation": 2}]}, "crop_y": {"Points": [{"co": {"Y": 0, "X": 1}, "interpolation": 2}]}, "perspective_c3_x": {"Points": [{"co": {"Y": -1, "X": 1}, "interpolation": 2}]}, "end": 15, "crop_width": {"Points": [{"co": {"Y": -1, "X": 1}, "interpolation": 2}]}, "position": 8.8, "id": "0AEDFYGQ7J", "wave_color": {"green": {"Points": [{"handle_right": {"Y": 0, "X": 0.5}, "co": {"Y": 123, "X": 1}, "handle_left": {"Y": 1, "X": 0.5}, "handle_type": 0, "interpolation": 0}]}, "blue": {"Points": [{"handle_right": {"Y": 0, "X": 0.5}, "co": {"Y": 255, "X": 1}, "handle_left": {"Y": 1, "X": 0.5}, "handle_type": 0, "interpolation": 0}]}, "alpha": {"Points": [{"handle_right": {"Y": 0, "X": 0.5}, "co": {"Y": 255, "X": 1}, "handle_left": {"Y": 1, "X": 0.5}, "handle_type": 0, "interpolation": 0}]}, "red": {"Points": [{"handle_right": {"Y": 0, "X": 0.5}, "co": {"Y": 0, "X": 1}, "handle_left": {"Y": 1, "X": 0.5}, "handle_type": 0, "interpolation": 0}]}}, "has_video": {"Points": [{"co": {"Y": -1, "X": 1}, "interpolation": 2}]}, "has_audio": {"Points": [{"co": {"Y": -1, "X": 1}, "interpolation": 2}]}, "effects": [], "location_x": {"Points": [{"co": {"Y": 0, "X": 1}, "interpolation": 2}]}, "waveform": false, "title": "taxi_start.mp4", "image": "/home/robsen/.openshot_qt/thumbnail/LGW3TZJV4Q.png", "gravity": 4, "perspective_c2_x": {"Points": [{"co": {"Y": -1, "X": 1}, "interpolation": 2}]}, "perspective_c1_y": {"Points": [{"co": {"Y": -1, "X": 1}, "interpolation": 2}]}, "crop_height": {"Points": [{"co": {"Y": -1, "X": 1}, "interpolation": 2}]}, "crop_x": {"Points": [{"co": {"Y": 0, "X": 1}, "interpolation": 2}]}, "start": 0, "scale": 1, "shear_y": {"Points": [{"co": {"Y": 0, "X": 1}, "interpolation": 2}]}, "display": 0, "volume": {"Points": [{"co": {"Y": 1, "X": 1}, "interpolation": 2}]}, "channel_mapping": {"Points": [{"co": {"Y": -1, "X": 1}, "interpolation": 2}]}, "anchor": 0, "duration": 15.0, "perspective_c3_y": {"Points": [{"co": {"Y": -1, "X": 1}, "interpolation": 2}]}, "shear_x": {"Points": [{"co": {"Y": 0, "X": 1}, "interpolation": 2}]}, "perspective_c4_x": {"Points": [{"co": {"Y": -1, "X": 1}, "interpolation": 2}]}, "location_y": {"Points": [{"co": {"Y": 0, "X": 1}, "interpolation": 2}]}, "scale_x": {"Points": [{"co": {"Y": 1, "X": 1}, "interpolation": 2}]}, "layer": 0, "perspective_c2_y": {"Points": [{"co": {"Y": -1, "X": 1}, "interpolation": 2}]}, "perspective_c1_x": {"Points": [{"co": {"Y": -1, "X": 1}, "interpolation": 2}]}, "perspective_c4_y": {"Points": [{"co": {"Y": -1, "X": 1}, "interpolation": 2}]}, "reader": {"audio_bit_rate": 0, "has_single_image": false, "vcodec": "h264", "has_video": true, "type": "FFmpegReader", "video_length": "375", "audio_timebase": {"den": 1, "num": 1}, "path": "/home/robsen/Dropbox/Workdir/Repo/SuesseRache-HH-Taxi/taxi_start.mp4", "width": 1920, "has_audio": false, "video_bit_rate": 147692, "channel_layout": 4, "height": 1080, "display_ratio": {"den": 9, "num": 16}, "interlaced_frame": false, "duration": 15.0, "sample_rate": 0, "pixel_format": 0, "video_timebase": {"den": 12800, "num": 1}, "file_size": "276924", "top_field_first": true, "pixel_ratio": {"den": 1, "num": 1}, "acodec": "", "audio_stream_index": -1, "video_stream_index": 0, "channels": 0, "fps": {"den": 1, "num": 25}}, "channel_filter": {"Points": [{"co": {"Y": -1, "X": 1}, "interpolation": 2}]}, "file_id": "LGW3TZJV4Q", "time": {"Points": [{"co": {"Y": 1, "X": 1}, "interpolation": 2}]}}, "value": {"alpha": {"Points": [{"co": {"Y": 1, "X": 1}, "interpolation": 2}, {"handle_right": {"Y": 0, "X": 0.5}, "co": {"Y": 1, "X": 289}, "handle_left": {"Y": 1, "X": 0.5}, "handle_type": 0, "interpolation": 0}, {"handle_right": {"Y": 0, "X": 0.5}, "co": {"Y": 0, "X": 361}, "handle_left": {"Y": 1, "X": 0.5}, "handle_type": 0, "interpolation": 0}]}, "rotation": {"Points": [{"co": {"Y": 0, "X": 1}, "interpolation": 2}]}, "scale_y": {"Points": [{"co": {"Y": 1, "X": 1}, "interpolation": 2}]}, "crop_y": {"Points": [{"co": {"Y": 0, "X": 1}, "interpolation": 2}]}, "crop_width": {"Points": [{"co": {"Y": -1, "X": 1}, "interpolation": 2}]}, "end": 15, "perspective_c3_x": {"Points": [{"co": {"Y": -1, "X": 1}, "interpolation": 2}]}, "position": 8.8, "id": "0AEDFYGQ7J", "wave_color": {"green": {"Points": [{"handle_right": {"Y": 0, "X": 0.5}, "co": {"Y": 123, "X": 1}, "handle_left": {"Y": 1, "X": 0.5}, "handle_type": 0, "interpolation": 0}]}, "blue": {"Points": [{"handle_right": {"Y": 0, "X": 0.5}, "co": {"Y": 255, "X": 1}, "handle_left": {"Y": 1, "X": 0.5}, "handle_type": 0, "interpolation": 0}]}, "alpha": {"Points": [{"handle_right": {"Y": 0, "X": 0.5}, "co": {"Y": 255, "X": 1}, "handle_left": {"Y": 1, "X": 0.5}, "handle_type": 0, "interpolation": 0}]}, "red": {"Points": [{"handle_right": {"Y": 0, "X": 0.5}, "co": {"Y": 0, "X": 1}, "handle_left": {"Y": 1, "X": 0.5}, "handle_type": 0, "interpolation": 0}]}}, "has_video": {"Points": [{"co": {"Y": -1, "X": 1}, "interpolation": 2}]}, "has_audio": {"Points": [{"co": {"Y": -1, "X": 1}, "interpolation": 2}]}, "effects": [], "location_x": {"Points": [{"co": {"Y": 0, "X": 1}, "interpolation": 2}]}, "waveform": false, "title": "taxi_start.mp4", "image": "/home/robsen/.openshot_qt/thumbnail/LGW3TZJV4Q.png", "gravity": 4, "scale_x": {"Points": [{"co": {"Y": 1, "X": 1}, "interpolation": 2}]}, "perspective_c1_y": {"Points": [{"co": {"Y": -1, "X": 1}, "interpolation": 2}]}, "crop_height": {"Points": [{"co": {"Y": -1, "X": 1}, "interpolation": 2}]}, "crop_x": {"Points": [{"co": {"Y": 0, "X": 1}, "interpolation": 2}]}, "start": 0, "scale": 1, "shear_y": {"Points": [{"co": {"Y": 0, "X": 1}, "interpolation": 2}]}, "display": 0, "volume": {"Points": [{"co": {"Y": 1, "X": 1}, "interpolation": 2}]}, "channel_mapping": {"Points": [{"co": {"Y": -1, "X": 1}, "interpolation": 2}]}, "anchor": 0, "duration": 15.0, "perspective_c3_y": {"Points": [{"co": {"Y": -1, "X": 1}, "interpolation": 2}]}, "shear_x": {"Points": [{"co": {"Y": 0, "X": 1}, "interpolation": 2}]}, "perspective_c4_x": {"Points": [{"co": {"Y": -1, "X": 1}, "interpolation": 2}]}, "location_y": {"Points": [{"co": {"Y": 0, "X": 1}, "interpolation": 2}]}, "perspective_c2_x": {"Points": [{"co": {"Y": -1, "X": 1}, "interpolation": 2}]}, "layer": 0, "perspective_c2_y": {"Points": [{"co": {"Y": -1, "X": 1}, "interpolation": 2}]}, "perspective_c1_x": {"Points": [{"co": {"Y": -1, "X": 1}, "interpolation": 2}]}, "perspective_c4_y": {"Points": [{"co": {"Y": -1, "X": 1}, "interpolation": 2}]}, "channel_filter": {"Points": [{"co": {"Y": -1, "X": 1}, "interpolation": 2}]}, "time": {"Points": [{"co": {"Y": 1, "X": 1}, "interpolation": 2}]}, "file_id": "LGW3TZJV4Q"}, "key": ["clips", {"id": "0AEDFYGQ7J"}], "partial": false, "type": "update"}, {"old_values": {"alpha": {"Points": [{"co": {"Y": 1, "X": 1}, "interpolation": 2}, {"handle_right": {"Y": 0, "X": 0.5}, "co": {"Y": 1, "X": 289}, "handle_left": {"Y": 1, "X": 0.5}, "handle_type": 0, "interpolation": 0}, {"handle_right": {"Y": 0, "X": 0.5}, "co": {"Y": 0, "X": 361}, "handle_left": {"Y": 1, "X": 0.5}, "handle_type": 0, "interpolation": 0}]}, "rotation": {"Points": [{"co": {"Y": 0, "X": 1}, "interpolation": 2}]}, "scale_y": {"Points": [{"co": {"Y": 1, "X": 1}, "interpolation": 2}]}, "crop_y": {"Points": [{"co": {"Y": 0, "X": 1}, "interpolation": 2}]}, "perspective_c3_x": {"Points": [{"co": {"Y": -1, "X": 1}, "interpolation": 2}]}, "end": 15, "crop_width": {"Points": [{"co": {"Y": -1, "X": 1}, "interpolation": 2}]}, "position": 8.8, "id": "0AEDFYGQ7J", "wave_color": {"green": {"Points": [{"handle_right": {"Y": 0, "X": 0.5}, "co": {"Y": 123, "X": 1}, "handle_left": {"Y": 1, "X": 0.5}, "handle_type": 0, "interpolation": 0}]}, "blue": {"Points": [{"handle_right": {"Y": 0, "X": 0.5}, "co": {"Y": 255, "X": 1}, "handle_left": {"Y": 1, "X": 0.5}, "handle_type": 0, "interpolation": 0}]}, "alpha": {"Points": [{"handle_right": {"Y": 0, "X": 0.5}, "co": {"Y": 255, "X": 1}, "handle_left": {"Y": 1, "X": 0.5}, "handle_type": 0, "interpolation": 0}]}, "red": {"Points": [{"handle_right": {"Y": 0, "X": 0.5}, "co": {"Y": 0, "X": 1}, "handle_left": {"Y": 1, "X": 0.5}, "handle_type": 0, "interpolation": 0}]}}, "has_video": {"Points": [{"co": {"Y": -1, "X": 1}, "interpolation": 2}]}, "has_audio": {"Points": [{"co": {"Y": -1, "X": 1}, "interpolation": 2}]}, "effects": [], "location_x": {"Points": [{"co": {"Y": 0, "X": 1}, "interpolation": 2}]}, "waveform": false, "title": "taxi_start.mp4", "image": "/home/robsen/.openshot_qt/thumbnail/LGW3TZJV4Q.png", "gravity": 4, "perspective_c2_x": {"Points": [{"co": {"Y": -1, "X": 1}, "interpolation": 2}]}, "perspective_c1_y": {"Points": [{"co": {"Y": -1, "X": 1}, "interpolation": 2}]}, "crop_height": {"Points": [{"co": {"Y": -1, "X": 1}, "interpolation": 2}]}, "crop_x": {"Points": [{"co": {"Y": 0, "X": 1}, "interpolation": 2}]}, "start": 0, "scale": 1, "shear_y": {"Points": [{"co": {"Y": 0, "X": 1}, "interpolation": 2}]}, "display": 0, "volume": {"Points": [{"co": {"Y": 1, "X": 1}, "interpolation": 2}]}, "channel_mapping": {"Points": [{"co": {"Y": -1, "X": 1}, "interpolation": 2}]}, "anchor": 0, "duration": 15.0, "perspective_c3_y": {"Points": [{"co": {"Y": -1, "X": 1}, "interpolation": 2}]}, "shear_x": {"Points": [{"co": {"Y": 0, "X": 1}, "interpolation": 2}]}, "perspective_c4_x": {"Points": [{"co": {"Y": -1, "X": 1}, "interpolation": 2}]}, "location_y": {"Points": [{"co": {"Y": 0, "X": 1}, "interpolation": 2}]}, "scale_x": {"Points": [{"co": {"Y": 1, "X": 1}, "interpolation": 2}]}, "layer": 0, "perspective_c2_y": {"Points": [{"co": {"Y": -1, "X": 1}, "interpolation": 2}]}, "perspective_c1_x": {"Points": [{"co": {"Y": -1, "X": 1}, "interpolation": 2}]}, "perspective_c4_y": {"Points": [{"co": {"Y": -1, "X": 1}, "interpolation": 2}]}, "reader": {"audio_bit_rate": 0, "has_single_image": false, "vcodec": "h264", "has_video": true, "type": "FFmpegReader", "video_length": "375", "audio_timebase": {"den": 1, "num": 1}, "path": "/home/robsen/Dropbox/Workdir/Repo/SuesseRache-HH-Taxi/taxi_start.mp4", "width": 1920, "has_audio": false, "video_bit_rate": 147692, "channel_layout": 4, "height": 1080, "display_ratio": {"den": 9, "num": 16}, "interlaced_frame": false, "duration": 15.0, "sample_rate": 0, "pixel_format": 0, "video_timebase": {"den": 12800, "num": 1}, "file_size": "276924", "top_field_first": true, "pixel_ratio": {"den": 1, "num": 1}, "acodec": "", "audio_stream_index": -1, "video_stream_index": 0, "channels": 0, "fps": {"den": 1, "num": 25}}, "channel_filter": {"Points": [{"co": {"Y": -1, "X": 1}, "interpolation": 2}]}, "file_id": "LGW3TZJV4Q", "time": {"Points": [{"co": {"Y": 1, "X": 1}, "interpolation": 2}]}}, "value": {"alpha": {"Points": [{"co": {"Y": 1, "X": 1}, "interpolation": 2}, {"handle_right": {"Y": 0, "X": 0.5}, "co": {"Y": 1, "X": 289}, "handle_left": {"Y": 1, "X": 0.5}, "handle_type": 0, "interpolation": 0}, {"handle_right": {"Y": 0, "X": 0.5}, "co": {"Y": 0, "X": 361}, "handle_left": {"Y": 1, "X": 0.5}, "handle_type": 0, "interpolation": 0}, {"handle_right": {"Y": 0, "X": 0.5}, "co": {"Y": 0, "X": 1}, "handle_left": {"Y": 1, "X": 0.5}, "handle_type": 0, "interpolation": 0}, {"handle_right": {"Y": 0, "X": 0.5}, "co": {"Y": 1, "X": 73}, "handle_left": {"Y": 1, "X": 0.5}, "handle_type": 0, "interpolation": 0}]}, "rotation": {"Points": [{"co": {"Y": 0, "X": 1}, "interpolation": 2}]}, "scale_y": {"Points": [{"co": {"Y": 1, "X": 1}, "interpolation": 2}]}, "crop_y": {"Points": [{"co": {"Y": 0, "X": 1}, "interpolation": 2}]}, "crop_width": {"Points": [{"co": {"Y": -1, "X": 1}, "interpolation": 2}]}, "end": 15, "perspective_c3_x": {"Points": [{"co": {"Y": -1, "X": 1}, "interpolation": 2}]}, "position": 8.8, "id": "0AEDFYGQ7J", "wave_color": {"green": {"Points": [{"handle_right": {"Y": 0, "X": 0.5}, "co": {"Y": 123, "X": 1}, "handle_left": {"Y": 1, "X": 0.5}, "handle_type": 0, "interpolation": 0}]}, "blue": {"Points": [{"handle_right": {"Y": 0, "X": 0.5}, "co": {"Y": 255, "X": 1}, "handle_left": {"Y": 1, "X": 0.5}, "handle_type": 0, "interpolation": 0}]}, "alpha": {"Points": [{"handle_right": {"Y": 0, "X": 0.5}, "co": {"Y": 255, "X": 1}, "handle_left": {"Y": 1, "X": 0.5}, "handle_type": 0, "interpolation": 0}]}, "red": {"Points": [{"handle_right": {"Y": 0, "X": 0.5}, "co": {"Y": 0, "X": 1}, "handle_left": {"Y": 1, "X": 0.5}, "handle_type": 0, "interpolation": 0}]}}, "has_video": {"Points": [{"co": {"Y": -1, "X": 1}, "interpolation": 2}]}, "has_audio": {"Points": [{"co": {"Y": -1, "X": 1}, "interpolation": 2}]}, "effects": [], "location_x": {"Points": [{"co": {"Y": 0, "X": 1}, "interpolation": 2}]}, "waveform": false, "title": "taxi_start.mp4", "image": "/home/robsen/.openshot_qt/thumbnail/LGW3TZJV4Q.png", "gravity": 4, "scale_x": {"Points": [{"co": {"Y": 1, "X": 1}, "interpolation": 2}]}, "perspective_c1_y": {"Points": [{"co": {"Y": -1, "X": 1}, "interpolation": 2}]}, "crop_height": {"Points": [{"co": {"Y": -1, "X": 1}, "interpolation": 2}]}, "crop_x": {"Points": [{"co": {"Y": 0, "X": 1}, "interpolation": 2}]}, "start": 0, "scale": 1, "shear_y": {"Points": [{"co": {"Y": 0, "X": 1}, "interpolation": 2}]}, "display": 0, "volume": {"Points": [{"co": {"Y": 1, "X": 1}, "interpolation": 2}]}, "channel_mapping": {"Points": [{"co": {"Y": -1, "X": 1}, "interpolation": 2}]}, "anchor": 0, "duration": 15.0, "perspective_c3_y": {"Points": [{"co": {"Y": -1, "X": 1}, "interpolation": 2}]}, "shear_x": {"Points": [{"co": {"Y": 0, "X": 1}, "interpolation": 2}]}, "perspective_c4_x": {"Points": [{"co": {"Y": -1, "X": 1}, "interpolation": 2}]}, "location_y": {"Points": [{"co": {"Y": 0, "X": 1}, "interpolation": 2}]}, "perspective_c2_x": {"Points": [{"co": {"Y": -1, "X": 1}, "interpolation": 2}]}, "layer": 0, "perspective_c2_y": {"Points": [{"co": {"Y": -1, "X": 1}, "interpolation": 2}]}, "perspective_c1_x": {"Points": [{"co": {"Y": -1, "X": 1}, "interpolation": 2}]}, "perspective_c4_y": {"Points": [{"co": {"Y": -1, "X": 1}, "interpolation": 2}]}, "channel_filter": {"Points": [{"co": {"Y": -1, "X": 1}, "interpolation": 2}]}, "time": {"Points": [{"co": {"Y": 1, "X": 1}, "interpolation": 2}]}, "file_id": "LGW3TZJV4Q"}, "key": ["clips", {"id": "0AEDFYGQ7J"}], "partial": false, "type": "update"}, {"old_values": {"alpha": {"Points": [{"co": {"Y": 1, "X": 1}, "interpolation": 2}]}, "rotation": {"Points": [{"co": {"Y": 0, "X": 1}, "interpolation": 2}]}, "scale_y": {"Points": [{"co": {"Y": 1, "X": 1}, "interpolation": 2}]}, "crop_y": {"Points": [{"co": {"Y": 0, "X": 1}, "interpolation": 2}]}, "perspective_c3_x": {"Points": [{"co": {"Y": -1, "X": 1}, "interpolation": 2}]}, "end": 15, "crop_width": {"Points": [{"co": {"Y": -1, "X": 1}, "interpolation": 2}]}, "position": 53.075, "id": "PJWPMFXKV3", "wave_color": {"green": {"Points": [{"handle_right": {"Y": 0, "X": 0.5}, "co": {"Y": 123, "X": 1}, "handle_left": {"Y": 1, "X": 0.5}, "handle_type": 0, "interpolation": 0}]}, "blue": {"Points": [{"handle_right": {"Y": 0, "X": 0.5}, "co": {"Y": 255, "X": 1}, "handle_left": {"Y": 1, "X": 0.5}, "handle_type": 0, "interpolation": 0}]}, "alpha": {"Points": [{"handle_right": {"Y": 0, "X": 0.5}, "co": {"Y": 255, "X": 1}, "handle_left": {"Y": 1, "X": 0.5}, "handle_type": 0, "interpolation": 0}]}, "red": {"Points": [{"handle_right": {"Y": 0, "X": 0.5}, "co": {"Y": 0, "X": 1}, "handle_left": {"Y": 1, "X": 0.5}, "handle_type": 0, "interpolation": 0}]}}, "has_video": {"Points": [{"co": {"Y": -1, "X": 1}, "interpolation": 2}]}, "has_audio": {"Points": [{"co": {"Y": -1, "X": 1}, "interpolation": 2}]}, "effects": [], "location_x": {"Points": [{"co": {"Y": 0, "X": 1}, "interpolation": 2}]}, "waveform": false, "title": "arrow.mp4", "image": "/home/robsen/.openshot_qt/thumbnail/X22V56NF57.png", "gravity": 4, "perspective_c2_x": {"Points": [{"co": {"Y": -1, "X": 1}, "interpolation": 2}]}, "perspective_c1_y": {"Points": [{"co": {"Y": -1, "X": 1}, "interpolation": 2}]}, "crop_height": {"Points": [{"co": {"Y": -1, "X": 1}, "interpolation": 2}]}, "crop_x": {"Points": [{"co": {"Y": 0, "X": 1}, "interpolation": 2}]}, "start": 0, "scale": 1, "shear_y": {"Points": [{"co": {"Y": 0, "X": 1}, "interpolation": 2}]}, "display": 0, "volume": {"Points": [{"co": {"Y": 1, "X": 1}, "interpolation": 2}]}, "channel_mapping": {"Points": [{"co": {"Y": -1, "X": 1}, "interpolation": 2}]}, "anchor": 0, "duration": 15.0, "perspective_c3_y": {"Points": [{"co": {"Y": -1, "X": 1}, "interpolation": 2}]}, "shear_x": {"Points": [{"co": {"Y": 0, "X": 1}, "interpolation": 2}]}, "perspective_c4_x": {"Points": [{"co": {"Y": -1, "X": 1}, "interpolation": 2}]}, "location_y": {"Points": [{"co": {"Y": 0, "X": 1}, "interpolation": 2}]}, "scale_x": {"Points": [{"co": {"Y": 1, "X": 1}, "interpolation": 2}]}, "layer": 2, "perspective_c2_y": {"Points": [{"co": {"Y": -1, "X": 1}, "interpolation": 2}]}, "perspective_c1_x": {"Points": [{"co": {"Y": -1, "X": 1}, "interpolation": 2}]}, "perspective_c4_y": {"Points": [{"co": {"Y": -1, "X": 1}, "interpolation": 2}]}, "reader": {"audio_bit_rate": 0, "has_single_image": false, "vcodec": "h264", "has_video": true, "type": "FFmpegReader", "video_length": "375", "audio_timebase": {"den": 1, "num": 1}, "path": "/home/robsen/Dropbox/Workdir/Repo/SuesseRache-HH-Taxi/arrow.mp4", "width": 1920, "has_audio": false, "video_bit_rate": 83079, "channel_layout": 4, "height": 1080, "display_ratio": {"den": 9, "num": 16}, "interlaced_frame": false, "duration": 15.0, "sample_rate": 0, "pixel_format": 0, "video_timebase": {"den": 12800, "num": 1}, "file_size": "155774", "top_field_first": true, "pixel_ratio": {"den": 1, "num": 1}, "acodec": "", "audio_stream_index": -1, "video_stream_index": 0, "channels": 0, "fps": {"den": 1, "num": 25}}, "channel_filter": {"Points": [{"co": {"Y": -1, "X": 1}, "interpolation": 2}]}, "file_id": "X22V56NF57", "time": {"Points": [{"co": {"Y": 1, "X": 1}, "interpolation": 2}]}}, "value": {"alpha": {"Points": [{"co": {"Y": 1, "X": 1}, "interpolation": 2}, {"handle_right": {"Y": 0, "X": 0.5}, "co": {"Y": 0, "X": 1}, "handle_left": {"Y": 1, "X": 0.5}, "handle_type": 0, "interpolation": 0}, {"handle_right": {"Y": 0, "X": 0.5}, "co": {"Y": 1, "X": 73}, "handle_left": {"Y": 1, "X": 0.5}, "handle_type": 0, "interpolation": 0}]}, "rotation": {"Points": [{"co": {"Y": 0, "X": 1}, "interpolation": 2}]}, "scale_y": {"Points": [{"co": {"Y": 1, "X": 1}, "interpolation": 2}]}, "crop_y": {"Points": [{"co": {"Y": 0, "X": 1}, "interpolation": 2}]}, "crop_width": {"Points": [{"co": {"Y": -1, "X": 1}, "interpolation": 2}]}, "end": 15, "perspective_c3_x": {"Points": [{"co": {"Y": -1, "X": 1}, "interpolation": 2}]}, "position": 53.075, "id": "PJWPMFXKV3", "wave_color": {"green": {"Points": [{"handle_right": {"Y": 0, "X": 0.5}, "co": {"Y": 123, "X": 1}, "handle_left": {"Y": 1, "X": 0.5}, "handle_type": 0, "interpolation": 0}]}, "blue": {"Points": [{"handle_right": {"Y": 0, "X": 0.5}, "co": {"Y": 255, "X": 1}, "handle_left": {"Y": 1, "X": 0.5}, "handle_type": 0, "interpolation": 0}]}, "alpha": {"Points": [{"handle_right": {"Y": 0, "X": 0.5}, "co": {"Y": 255, "X": 1}, "handle_left": {"Y": 1, "X": 0.5}, "handle_type": 0, "interpolation": 0}]}, "red": {"Points": [{"handle_right": {"Y": 0, "X": 0.5}, "co": {"Y": 0, "X": 1}, "handle_left": {"Y": 1, "X": 0.5}, "handle_type": 0, "interpolation": 0}]}}, "has_video": {"Points": [{"co": {"Y": -1, "X": 1}, "interpolation": 2}]}, "has_audio": {"Points": [{"co": {"Y": -1, "X": 1}, "interpolation": 2}]}, "effects": [], "location_x": {"Points": [{"co": {"Y": 0, "X": 1}, "interpolation": 2}]}, "waveform": false, "title": "arrow.mp4", "image": "/home/robsen/.openshot_qt/thumbnail/X22V56NF57.png", "gravity": 4, "scale_x": {"Points": [{"co": {"Y": 1, "X": 1}, "interpolation": 2}]}, "perspective_c1_y": {"Points": [{"co": {"Y": -1, "X": 1}, "interpolation": 2}]}, "crop_height": {"Points": [{"co": {"Y": -1, "X": 1}, "interpolation": 2}]}, "crop_x": {"Points": [{"co": {"Y": 0, "X": 1}, "interpolation": 2}]}, "start": 0, "scale": 1, "shear_y": {"Points": [{"co": {"Y": 0, "X": 1}, "interpolation": 2}]}, "display": 0, "volume": {"Points": [{"co": {"Y": 1, "X": 1}, "interpolation": 2}]}, "channel_mapping": {"Points": [{"co": {"Y": -1, "X": 1}, "interpolation": 2}]}, "anchor": 0, "duration": 15.0, "perspective_c3_y": {"Points": [{"co": {"Y": -1, "X": 1}, "interpolation": 2}]}, "shear_x": {"Points": [{"co": {"Y": 0, "X": 1}, "interpolation": 2}]}, "perspective_c4_x": {"Points": [{"co": {"Y": -1, "X": 1}, "interpolation": 2}]}, "location_y": {"Points": [{"co": {"Y": 0, "X": 1}, "interpolation": 2}]}, "perspective_c2_x": {"Points": [{"co": {"Y": -1, "X": 1}, "interpolation": 2}]}, "layer": 2, "perspective_c2_y": {"Points": [{"co": {"Y": -1, "X": 1}, "interpolation": 2}]}, "perspective_c1_x": {"Points": [{"co": {"Y": -1, "X": 1}, "interpolation": 2}]}, "perspective_c4_y": {"Points": [{"co": {"Y": -1, "X": 1}, "interpolation": 2}]}, "channel_filter": {"Points": [{"co": {"Y": -1, "X": 1}, "interpolation": 2}]}, "time": {"Points": [{"co": {"Y": 1, "X": 1}, "interpolation": 2}]}, "file_id": "X22V56NF57"}, "key": ["clips", {"id": "PJWPMFXKV3"}], "partial": false, "type": "update"}]}, "key": ["history"], "partial": false, "type": "update"}, {"old_values": null, "value": {"redo": [], "undo": [{"old_values": [{"number": 0, "label": "Spur 1", "id": "UBOPYJIV1S", "y": 0}, {"number": 1, "label": "Spur 2", "id": "SHY16ICR2M", "y": 0}], "value": {"number": 2, "y": 0, "label": "", "id": "E44ZNJSI3Z", "lock": false}, "key": ["layers"], "partial": false, "type": "insert"}, {"old_values": [], "value": {"audio_bit_rate": 0, "has_single_image": false, "media_type": "video", "id": "LGW3TZJV4Q", "type": "FFmpegReader", "has_video": true, "video_length": "375", "audio_timebase": {"den": 1, "num": 1}, "path": "/home/robsen/Dropbox/Workdir/Repo/SuesseRache-HH-Taxi/taxi_start.mp4", "width": 1920, "has_audio": false, "video_bit_rate": 147692, "channel_layout": 4, "height": 1080, "vcodec": "h264", "display_ratio": {"den": 9, "num": 16}, "interlaced_frame": false, "duration": 15, "sample_rate": 0, "pixel_format": 0, "video_timebase": {"den": 12800, "num": 1}, "file_size": "276924", "top_field_first": true, "pixel_ratio": {"den": 1, "num": 1}, "acodec": "", "audio_stream_index": -1, "video_stream_index": 0, "channels": 0, "fps": {"den": 1, "num": 25}}, "key": ["files"], "partial": false, "type": "insert"}, {"old_values": [{"audio_bit_rate": 0, "has_single_image": false, "media_type": "video", "id": "LGW3TZJV4Q", "type": "FFmpegReader", "has_video": true, "video_length": "375", "audio_timebase": {"den": 1, "num": 1}, "path": "/home/robsen/Dropbox/Workdir/Repo/SuesseRache-HH-Taxi/taxi_start.mp4", "width": 1920, "has_audio": false, "video_bit_rate": 147692, "channel_layout": 4, "height": 1080, "vcodec": "h264", "display_ratio": {"den": 9, "num": 16}, "interlaced_frame": false, "duration": 15, "sample_rate": 0, "pixel_format": 0, "video_timebase": {"den": 12800, "num": 1}, "file_size": "276924", "top_field_first": true, "pixel_ratio": {"den": 1, "num": 1}, "acodec": "", "audio_stream_index": -1, "video_stream_index": 0, "channels": 0, "fps": {"den": 1, "num": 25}}], "value": {"audio_bit_rate": 189375, "has_single_image": false, "media_type": "video", "id": "Z3LOYBY1PL", "type": "FFmpegReader", "has_video": true, "video_length": "937", "audio_timebase": {"den": 48000, "num": 1}, "path": "/home/robsen/Dropbox/Workdir/Repo/SuesseRache-HH-Taxi/TE_SR_Taxi.mp4", "width": 1920, "has_audio": true, "video_bit_rate": 32091692, "channel_layout": 3, "height": 1080, "vcodec": "h264", "display_ratio": {"den": 9, "num": 16}, "interlaced_frame": false, "duration": 31.317333221435547, "sample_rate": 48000, "pixel_format": 0, "video_timebase": {"den": 29970, "num": 1}, "file_size": "125628279", "top_field_first": true, "pixel_ratio": {"den": 1, "num": 1}, "acodec": "aac", "audio_stream_index": 1, "video_stream_index": 0, "channels": 2, "fps": {"den": 100, "num": 2997}}, "key": ["files"], "partial": false, "type": "insert"}, {"old_values": [{"audio_bit_rate": 0, "has_single_image": false, "media_type": "video", "id": "LGW3TZJV4Q", "type": "FFmpegReader", "has_video": true, "video_length": "375", "audio_timebase": {"den": 1, "num": 1}, "path": "/home/robsen/Dropbox/Workdir/Repo/SuesseRache-HH-Taxi/taxi_start.mp4", "width": 1920, "has_audio": false, "video_bit_rate": 147692, "channel_layout": 4, "height": 1080, "vcodec": "h264", "display_ratio": {"den": 9, "num": 16}, "interlaced_frame": false, "duration": 15, "sample_rate": 0, "pixel_format": 0, "video_timebase": {"den": 12800, "num": 1}, "file_size": "276924", "top_field_first": true, "pixel_ratio": {"den": 1, "num": 1}, "acodec": "", "audio_stream_index": -1, "video_stream_index": 0, "channels": 0, "fps": {"den": 1, "num": 25}}, {"audio_bit_rate": 189375, "has_single_image": false, "media_type": "video", "id": "Z3LOYBY1PL", "type": "FFmpegReader", "has_video": true, "video_length": "937", "audio_timebase": {"den": 48000, "num": 1}, "path": "/home/robsen/Dropbox/Workdir/Repo/SuesseRache-HH-Taxi/TE_SR_Taxi.mp4", "width": 1920, "has_audio": true, "video_bit_rate": 32091692, "channel_layout": 3, "height": 1080, "vcodec": "h264", "display_ratio": {"den": 9, "num": 16}, "interlaced_frame": false, "duration": 31.317333221435547, "sample_rate": 48000, "pixel_format": 0, "video_timebase": {"den": 29970, "num": 1}, "file_size": "125628279", "top_field_first": true, "pixel_ratio": {"den": 1, "num": 1}, "acodec": "aac", "audio_stream_index": 1, "video_stream_index": 0, "channels": 2, "fps": {"den": 100, "num": 2997}}], "value": {"audio_bit_rate": 0, "has_single_image": false, "media_type": "video", "id": "X22V56NF57", "type": "FFmpegReader", "has_video": true, "video_length": "375", "audio_timebase": {"den": 1, "num": 1}, "path": "/home/robsen/Dropbox/Workdir/Repo/SuesseRache-HH-Taxi/arrow.mp4", "width": 1920, "has_audio": false, "video_bit_rate": 83079, "channel_layout": 4, "height": 1080, "vcodec": "h264", "display_ratio": {"den": 9, "num": 16}, "interlaced_frame": false, "duration": 15, "sample_rate": 0, "pixel_format": 0, "video_timebase": {"den": 12800, "num": 1}, "file_size": "155774", "top_field_first": true, "pixel_ratio": {"den": 1, "num": 1}, "acodec": "", "audio_stream_index": -1, "video_stream_index": 0, "channels": 0, "fps": {"den": 1, "num": 25}}, "key": ["files"], "partial": false, "type": "insert"}, {"old_values": [], "value": {"alpha": {"Points": [{"co": {"Y": 1, "X": 1}, "interpolation": 2}, {"handle_right": {"Y": 0, "X": 0.5}, "co": {"Y": 1, "X": 289}, "handle_left": {"Y": 1, "X": 0.5}, "handle_type": 0, "interpolation": 0}, {"handle_right": {"Y": 0, "X": 0.5}, "co": {"Y": 0, "X": 361}, "handle_left": {"Y": 1, "X": 0.5}, "handle_type": 0, "interpolation": 0}, {"handle_right": {"Y": 0, "X": 0.5}, "co": {"Y": 0, "X": 1}, "handle_left": {"Y": 1, "X": 0.5}, "handle_type": 0, "interpolation": 0}, {"handle_right": {"Y": 0, "X": 0.5}, "co": {"Y": 1, "X": 73}, "handle_left": {"Y": 1, "X": 0.5}, "handle_type": 0, "interpolation": 0}]}, "rotation": {"Points": [{"co": {"Y": 0, "X": 1}, "interpolation": 2}]}, "scale_y": {"Points": [{"co": {"Y": 1, "X": 1}, "interpolation": 2}]}, "crop_y": {"Points": [{"co": {"Y": 0, "X": 1}, "interpolation": 2}]}, "perspective_c3_x": {"Points": [{"co": {"Y": -1, "X": 1}, "interpolation": 2}]}, "end": 15, "crop_width": {"Points": [{"co": {"Y": -1, "X": 1}, "interpolation": 2}]}, "position": 8.8, "id": "0AEDFYGQ7J", "wave_color": {"green": {"Points": [{"handle_right": {"Y": 0, "X": 0.5}, "co": {"Y": 123, "X": 1}, "handle_left": {"Y": 1, "X": 0.5}, "handle_type": 0, "interpolation": 0}]}, "blue": {"Points": [{"handle_right": {"Y": 0, "X": 0.5}, "co": {"Y": 255, "X": 1}, "handle_left": {"Y": 1, "X": 0.5}, "handle_type": 0, "interpolation": 0}]}, "alpha": {"Points": [{"handle_right": {"Y": 0, "X": 0.5}, "co": {"Y": 255, "X": 1}, "handle_left": {"Y": 1, "X": 0.5}, "handle_type": 0, "interpolation": 0}]}, "red": {"Points": [{"handle_right": {"Y": 0, "X": 0.5}, "co": {"Y": 0, "X": 1}, "handle_left": {"Y": 1, "X": 0.5}, "handle_type": 0, "interpolation": 0}]}}, "has_video": {"Points": [{"co": {"Y": -1, "X": 1}, "interpolation": 2}]}, "has_audio": {"Points": [{"co": {"Y": -1, "X": 1}, "interpolation": 2}]}, "effects": [], "location_x": {"Points": [{"co": {"Y": 0, "X": 1}, "interpolation": 2}]}, "waveform": false, "title": "taxi_start.mp4", "image": "/home/robsen/.openshot_qt/thumbnail/LGW3TZJV4Q.png", "gravity": 4, "scale_x": {"Points": [{"co": {"Y": 1, "X": 1}, "interpolation": 2}]}, "perspective_c1_y": {"Points": [{"co": {"Y": -1, "X": 1}, "interpolation": 2}]}, "crop_height": {"Points": [{"co": {"Y": -1, "X": 1}, "interpolation": 2}]}, "crop_x": {"Points": [{"co": {"Y": 0, "X": 1}, "interpolation": 2}]}, "start": 0, "scale": 1, "shear_y": {"Points": [{"co": {"Y": 0, "X": 1}, "interpolation": 2}]}, "display": 0, "volume": {"Points": [{"co": {"Y": 1, "X": 1}, "interpolation": 2}]}, "channel_mapping": {"Points": [{"co": {"Y": -1, "X": 1}, "interpolation": 2}]}, "anchor": 0, "duration": 15.0, "perspective_c3_y": {"Points": [{"co": {"Y": -1, "X": 1}, "interpolation": 2}]}, "shear_x": {"Points": [{"co": {"Y": 0, "X": 1}, "interpolation": 2}]}, "perspective_c4_x": {"Points": [{"co": {"Y": -1, "X": 1}, "interpolation": 2}]}, "location_y": {"Points": [{"co": {"Y": 0, "X": 1}, "interpolation": 2}]}, "perspective_c2_x": {"Points": [{"co": {"Y": -1, "X": 1}, "interpolation": 2}]}, "layer": 0, "perspective_c2_y": {"Points": [{"co": {"Y": -1, "X": 1}, "interpolation": 2}]}, "perspective_c1_x": {"Points": [{"co": {"Y": -1, "X": 1}, "interpolation": 2}]}, "perspective_c4_y": {"Points": [{"co": {"Y": -1, "X": 1}, "interpolation": 2}]}, "reader": {"audio_bit_rate": 0, "has_single_image": false, "has_video": true, "type": "FFmpegReader", "video_length": "375", "audio_timebase": {"den": 1, "num": 1}, "path": "/home/robsen/Dropbox/Workdir/Repo/SuesseRache-HH-Taxi/taxi_start.mp4", "width": 1920, "has_audio": false, "video_bit_rate": 147692, "channel_layout": 4, "height": 1080, "display_ratio": {"den": 9, "num": 16}, "interlaced_frame": false, "video_timebase": {"den": 12800, "num": 1}, "duration": 15.0, "sample_rate": 0, "pixel_format": 0, "fps": {"den": 1, "num": 25}, "file_size": "276924", "top_field_first": true, "pixel_ratio": {"den": 1, "num": 1}, "acodec": "", "audio_stream_index": -1, "video_stream_index": 0, "channels": 0, "vcodec": "h264"}, "channel_filter": {"Points": [{"co": {"Y": -1, "X": 1}, "interpolation": 2}]}, "file_id": "LGW3TZJV4Q", "time": {"Points": [{"co": {"Y": 1, "X": 1}, "interpolation": 2}]}}, "key": ["clips"], "partial": false, "type": "insert"}, {"old_values": null, "value": {"id": "0AEDFYGQ7J", "start": 0, "end": 15, "position": 8.8, "layer": 0, "image": "/home/robsen/.openshot_qt/thumbnail/LGW3TZJV4Q.png"}, "key": ["clips", {"id": "0AEDFYGQ7J"}], "partial": false, "type": "update"}, {"old_values": null, "value": {"id": "0AEDFYGQ7J", "start": 0, "end": 15, "position": 8.8, "layer": 0, "image": "/home/robsen/.openshot_qt/thumbnail/LGW3TZJV4Q.png"}, "key": ["clips", {"id": "0AEDFYGQ7J"}], "partial": false, "type": "update"}, {"old_values": [{"alpha": {"Points": [{"co": {"Y": 1, "X": 1}, "interpolation": 2}]}, "rotation": {"Points": [{"co": {"Y": 0, "X": 1}, "interpolation": 2}]}, "scale_y": {"Points": [{"co": {"Y": 1, "X": 1}, "interpolation": 2}]}, "crop_y": {"Points": [{"co": {"Y": 0, "X": 1}, "interpolation": 2}]}, "perspective_c3_x": {"Points": [{"co": {"Y": -1, "X": 1}, "interpolation": 2}]}, "end": 15, "crop_width": {"Points": [{"co": {"Y": -1, "X": 1}, "interpolation": 2}]}, "position": 8.8, "id": "0AEDFYGQ7J", "wave_color": {"green": {"Points": [{"handle_right": {"Y": 0, "X": 0.5}, "co": {"Y": 123, "X": 1}, "handle_left": {"Y": 1, "X": 0.5}, "handle_type": 0, "interpolation": 0}]}, "blue": {"Points": [{"handle_right": {"Y": 0, "X": 0.5}, "co": {"Y": 255, "X": 1}, "handle_left": {"Y": 1, "X": 0.5}, "handle_type": 0, "interpolation": 0}]}, "alpha": {"Points": [{"handle_right": {"Y": 0, "X": 0.5}, "co": {"Y": 255, "X": 1}, "handle_left": {"Y": 1, "X": 0.5}, "handle_type": 0, "interpolation": 0}]}, "red": {"Points": [{"handle_right": {"Y": 0, "X": 0.5}, "co": {"Y": 0, "X": 1}, "handle_left": {"Y": 1, "X": 0.5}, "handle_type": 0, "interpolation": 0}]}}, "has_video": {"Points": [{"co": {"Y": -1, "X": 1}, "interpolation": 2}]}, "has_audio": {"Points": [{"co": {"Y": -1, "X": 1}, "interpolation": 2}]}, "effects": [], "location_x": {"Points": [{"co": {"Y": 0, "X": 1}, "interpolation": 2}]}, "waveform": false, "title": "taxi_start.mp4", "image": "/home/robsen/.openshot_qt/thumbnail/LGW3TZJV4Q.png", "gravity": 4, "perspective_c2_x": {"Points": [{"co": {"Y": -1, "X": 1}, "interpolation": 2}]}, "perspective_c1_y": {"Points": [{"co": {"Y": -1, "X": 1}, "interpolation": 2}]}, "crop_height": {"Points": [{"co": {"Y": -1, "X": 1}, "interpolation": 2}]}, "crop_x": {"Points": [{"co": {"Y": 0, "X": 1}, "interpolation": 2}]}, "start": 0, "scale": 1, "shear_y": {"Points": [{"co": {"Y": 0, "X": 1}, "interpolation": 2}]}, "display": 0, "volume": {"Points": [{"co": {"Y": 1, "X": 1}, "interpolation": 2}]}, "channel_mapping": {"Points": [{"co": {"Y": -1, "X": 1}, "interpolation": 2}]}, "anchor": 0, "duration": 15.0, "perspective_c3_y": {"Points": [{"co": {"Y": -1, "X": 1}, "interpolation": 2}]}, "shear_x": {"Points": [{"co": {"Y": 0, "X": 1}, "interpolation": 2}]}, "perspective_c4_x": {"Points": [{"co": {"Y": -1, "X": 1}, "interpolation": 2}]}, "location_y": {"Points": [{"co": {"Y": 0, "X": 1}, "interpolation": 2}]}, "scale_x": {"Points": [{"co": {"Y": 1, "X": 1}, "interpolation": 2}]}, "layer": 0, "perspective_c2_y": {"Points": [{"co": {"Y": -1, "X": 1}, "interpolation": 2}]}, "perspective_c1_x": {"Points": [{"co": {"Y": -1, "X": 1}, "interpolation": 2}]}, "perspective_c4_y": {"Points": [{"co": {"Y": -1, "X": 1}, "interpolation": 2}]}, "reader": {"audio_bit_rate": 0, "has_single_image": false, "vcodec": "h264", "has_video": true, "type": "FFmpegReader", "video_length": "375", "audio_timebase": {"den": 1, "num": 1}, "path": "/home/robsen/Dropbox/Workdir/Repo/SuesseRache-HH-Taxi/taxi_start.mp4", "width": 1920, "has_audio": false, "video_bit_rate": 147692, "channel_layout": 4, "height": 1080, "display_ratio": {"den": 9, "num": 16}, "interlaced_frame": false, "duration": 15.0, "sample_rate": 0, "pixel_format": 0, "video_timebase": {"den": 12800, "num": 1}, "file_size": "276924", "top_field_first": true, "pixel_ratio": {"den": 1, "num": 1}, "acodec": "", "audio_stream_index": -1, "video_stream_index": 0, "channels": 0, "fps": {"den": 1, "num": 25}}, "channel_filter": {"Points": [{"co": {"Y": -1, "X": 1}, "interpolation": 2}]}, "file_id": "LGW3TZJV4Q", "time": {"Points": [{"co": {"Y": 1, "X": 1}, "interpolation": 2}]}}], "value": {"alpha": {"Points": [{"co": {"Y": 1, "X": 1}, "interpolation": 2}]}, "rotation": {"Points": [{"co": {"Y": 0, "X": 1}, "interpolation": 2}]}, "scale_y": {"Points": [{"co": {"Y": 1, "X": 1}, "interpolation": 2}]}, "crop_y": {"Points": [{"co": {"Y": 0, "X": 1}, "interpolation": 2}]}, "perspective_c3_x": {"Points": [{"co": {"Y": -1, "X": 1}, "interpolation": 2}]}, "end": 31.317333221435547, "crop_width": {"Points": [{"co": {"Y": -1, "X": 1}, "interpolation": 2}]}, "position": 21.76, "id": "627XQDJ3EP", "wave_color": {"green": {"Points": [{"handle_right": {"Y": 0, "X": 0.5}, "co": {"Y": 123, "X": 1}, "handle_left": {"Y": 1, "X": 0.5}, "handle_type": 0, "interpolation": 0}]}, "blue": {"Points": [{"handle_right": {"Y": 0, "X": 0.5}, "co": {"Y": 255, "X": 1}, "handle_left": {"Y": 1, "X": 0.5}, "handle_type": 0, "interpolation": 0}]}, "alpha": {"Points": [{"handle_right": {"Y": 0, "X": 0.5}, "co": {"Y": 255, "X": 1}, "handle_left": {"Y": 1, "X": 0.5}, "handle_type": 0, "interpolation": 0}]}, "red": {"Points": [{"handle_right": {"Y": 0, "X": 0.5}, "co": {"Y": 0, "X": 1}, "handle_left": {"Y": 1, "X": 0.5}, "handle_type": 0, "interpolation": 0}]}}, "has_video": {"Points": [{"co": {"Y": -1, "X": 1}, "interpolation": 2}]}, "has_audio": {"Points": [{"co": {"Y": -1, "X": 1}, "interpolation": 2}]}, "effects": [], "location_x": {"Points": [{"co": {"Y": 0, "X": 1}, "interpolation": 2}]}, "waveform": false, "title": "TE_SR_Taxi.mp4", "image": "/home/robsen/.openshot_qt/thumbnail/Z3LOYBY1PL.png", "gravity": 4, "scale_x": {"Points": [{"co": {"Y": 1, "X": 1}, "interpolation": 2}]}, "perspective_c1_y": {"Points": [{"co": {"Y": -1, "X": 1}, "interpolation": 2}]}, "crop_height": {"Points": [{"co": {"Y": -1, "X": 1}, "interpolation": 2}]}, "crop_x": {"Points": [{"co": {"Y": 0, "X": 1}, "interpolation": 2}]}, "start": 0, "scale": 1, "shear_y": {"Points": [{"co": {"Y": 0, "X": 1}, "interpolation": 2}]}, "display": 0, "volume": {"Points": [{"co": {"Y": 1, "X": 1}, "interpolation": 2}]}, "channel_mapping": {"Points": [{"co": {"Y": -1, "X": 1}, "interpolation": 2}]}, "anchor": 0, "duration": 31.317333221435547, "perspective_c3_y": {"Points": [{"co": {"Y": -1, "X": 1}, "interpolation": 2}]}, "shear_x": {"Points": [{"co": {"Y": 0, "X": 1}, "interpolation": 2}]}, "perspective_c4_x": {"Points": [{"co": {"Y": -1, "X": 1}, "interpolation": 2}]}, "location_y": {"Points": [{"co": {"Y": 0, "X": 1}, "interpolation": 2}]}, "perspective_c2_x": {"Points": [{"co": {"Y": -1, "X": 1}, "interpolation": 2}]}, "layer": 1, "perspective_c2_y": {"Points": [{"co": {"Y": -1, "X": 1}, "interpolation": 2}]}, "perspective_c1_x": {"Points": [{"co": {"Y": -1, "X": 1}, "interpolation": 2}]}, "perspective_c4_y": {"Points": [{"co": {"Y": -1, "X": 1}, "interpolation": 2}]}, "reader": {"audio_bit_rate": 189375, "has_single_image": false, "has_video": true, "type": "FFmpegReader", "video_length": "937", "audio_timebase": {"den": 48000, "num": 1}, "path": "/home/robsen/Dropbox/Workdir/Repo/SuesseRache-HH-Taxi/TE_SR_Taxi.mp4", "width": 1920, "has_audio": true, "video_bit_rate": 32091692, "channel_layout": 3, "height": 1080, "display_ratio": {"den": 9, "num": 16}, "interlaced_frame": false, "video_timebase": {"den": 29970, "num": 1}, "duration": 31.317333221435547, "sample_rate": 48000, "pixel_format": 0, "fps": {"den": 100, "num": 2997}, "file_size": "125628279", "top_field_first": true, "pixel_ratio": {"den": 1, "num": 1}, "acodec": "aac", "audio_stream_index": 1, "video_stream_index": 0, "channels": 2, "vcodec": "h264"}, "channel_filter": {"Points": [{"co": {"Y": -1, "X": 1}, "interpolation": 2}]}, "file_id": "Z3LOYBY1PL", "time": {"Points": [{"co": {"Y": 1, "X": 1}, "interpolation": 2}]}}, "key": ["clips"], "partial": false, "type": "insert"}, {"old_values": {"alpha": {"Points": [{"co": {"Y": 1, "X": 1}, "interpolation": 2}]}, "rotation": {"Points": [{"co": {"Y": 0, "X": 1}, "interpolation": 2}]}, "scale_y": {"Points": [{"co": {"Y": 1, "X": 1}, "interpolation": 2}]}, "crop_y": {"Points": [{"co": {"Y": 0, "X": 1}, "interpolation": 2}]}, "perspective_c3_x": {"Points": [{"co": {"Y": -1, "X": 1}, "interpolation": 2}]}, "end": 31.317333221435547, "crop_width": {"Points": [{"co": {"Y": -1, "X": 1}, "interpolation": 2}]}, "position": 18.88, "id": "627XQDJ3EP", "wave_color": {"green": {"Points": [{"handle_right": {"Y": 0, "X": 0.5}, "co": {"Y": 123, "X": 1}, "handle_left": {"Y": 1, "X": 0.5}, "handle_type": 0, "interpolation": 0}]}, "blue": {"Points": [{"handle_right": {"Y": 0, "X": 0.5}, "co": {"Y": 255, "X": 1}, "handle_left": {"Y": 1, "X": 0.5}, "handle_type": 0, "interpolation": 0}]}, "alpha": {"Points": [{"handle_right": {"Y": 0, "X": 0.5}, "co": {"Y": 255, "X": 1}, "handle_left": {"Y": 1, "X": 0.5}, "handle_type": 0, "interpolation": 0}]}, "red": {"Points": [{"handle_right": {"Y": 0, "X": 0.5}, "co": {"Y": 0, "X": 1}, "handle_left": {"Y": 1, "X": 0.5}, "handle_type": 0, "interpolation": 0}]}}, "has_video": {"Points": [{"co": {"Y": -1, "X": 1}, "interpolation": 2}]}, "has_audio": {"Points": [{"co": {"Y": -1, "X": 1}, "interpolation": 2}]}, "effects": [], "location_x": {"Points": [{"co": {"Y": 0, "X": 1}, "interpolation": 2}]}, "waveform": false, "title": "TE_SR_Taxi.mp4", "image": "/home/robsen/.openshot_qt/thumbnail/Z3LOYBY1PL.png", "gravity": 4, "scale_x": {"Points": [{"co": {"Y": 1, "X": 1}, "interpolation": 2}]}, "perspective_c1_y": {"Points": [{"co": {"Y": -1, "X": 1}, "interpolation": 2}]}, "crop_height": {"Points": [{"co": {"Y": -1, "X": 1}, "interpolation": 2}]}, "crop_x": {"Points": [{"co": {"Y": 0, "X": 1}, "interpolation": 2}]}, "start": 0, "scale": 1, "shear_y": {"Points": [{"co": {"Y": 0, "X": 1}, "interpolation": 2}]}, "display": 0, "volume": {"Points": [{"co": {"Y": 1, "X": 1}, "interpolation": 2}]}, "channel_mapping": {"Points": [{"co": {"Y": -1, "X": 1}, "interpolation": 2}]}, "anchor": 0, "duration": 31.317333221435547, "perspective_c3_y": {"Points": [{"co": {"Y": -1, "X": 1}, "interpolation": 2}]}, "shear_x": {"Points": [{"co": {"Y": 0, "X": 1}, "interpolation": 2}]}, "perspective_c4_x": {"Points": [{"co": {"Y": -1, "X": 1}, "interpolation": 2}]}, "location_y": {"Points": [{"co": {"Y": 0, "X": 1}, "interpolation": 2}]}, "perspective_c2_x": {"Points": [{"co": {"Y": -1, "X": 1}, "interpolation": 2}]}, "layer": 2, "perspective_c2_y": {"Points": [{"co": {"Y": -1, "X": 1}, "interpolation": 2}]}, "perspective_c1_x": {"Points": [{"co": {"Y": -1, "X": 1}, "interpolation": 2}]}, "perspective_c4_y": {"Points": [{"co": {"Y": -1, "X": 1}, "interpolation": 2}]}, "reader": {"audio_bit_rate": 189375, "has_single_image": false, "vcodec": "h264", "has_video": true, "type": "FFmpegReader", "video_length": "937", "audio_timebase": {"den": 48000, "num": 1}, "path": "/home/robsen/Dropbox/Workdir/Repo/SuesseRache-HH-Taxi/TE_SR_Taxi.mp4", "width": 1920, "has_audio": true, "video_bit_rate": 32091692, "channel_layout": 3, "height": 1080, "display_ratio": {"den": 9, "num": 16}, "interlaced_frame": false, "duration": 31.317333221435547, "sample_rate": 48000, "pixel_format": 0, "video_timebase": {"den": 29970, "num": 1}, "file_size": "125628279", "top_field_first": true, "pixel_ratio": {"den": 1, "num": 1}, "acodec": "aac", "audio_stream_index": 1, "video_stream_index": 0, "channels": 2, "fps": {"den": 100, "num": 2997}}, "channel_filter": {"Points": [{"co": {"Y": -1, "X": 1}, "interpolation": 2}]}, "file_id": "Z3LOYBY1PL", "time": {"Points": [{"co": {"Y": 1, "X": 1}, "interpolation": 2}]}}, "value": {"id": "627XQDJ3EP", "start": 0, "end": 31.317333221435547, "position": 21.76, "layer": 0, "image": "/home/robsen/.openshot_qt/thumbnail/Z3LOYBY1PL.png"}, "key": ["clips", {"id": "627XQDJ3EP"}], "partial": false, "type": "update"}, {"old_values": [], "value": {"start": 0, "type": "Mask", "contrast": {"Points": [{"co": {"Y": 3, "X": 1}, "interpolation": 2}]}, "layer": 0, "replace_image": false, "title": "Transition", "end": 2.039999999999999, "reader": {"audio_bit_rate": 0, "has_single_image": true, "has_video": true, "type": "QtImageReader", "video_length": "2592000", "audio_timebase": {"den": 1, "num": 1}, "path": "/usr/lib/python3/dist-packages/openshot_qt/transitions/common/fade.svg", "width": 720, "has_audio": false, "video_bit_rate": 0, "channel_layout": 4, "height": 576, "display_ratio": {"den": 4, "num": 5}, "interlaced_frame": false, "video_timebase": {"den": 30, "num": 1}, "duration": 86400, "sample_rate": 0, "pixel_format": -1, "fps": {"den": 1, "num": 30}, "file_size": "1658880", "top_field_first": true, "pixel_ratio": {"den": 1, "num": 1}, "acodec": "", "audio_stream_index": -1, "video_stream_index": -1, "channels": 0, "vcodec": ""}, "brightness": {"Points": [{"handle_right": {"Y": 0, "X": 0.5}, "co": {"Y": 1, "X": 1}, "handle_left": {"Y": 1, "X": 0.5}, "handle_type": 0, "interpolation": 0}, {"handle_right": {"Y": 0, "X": 0.5}, "co": {"Y": -1, "X": 50}, "handle_left": {"Y": 1, "X": 0.5}, "handle_type": 0, "interpolation": 0}]}, "id": "5NBS5H99MA", "position": 21.76}, "key": ["effects"], "partial": false, "type": "insert"}, {"old_values": {"alpha": {"Points": [{"co": {"Y": 1, "X": 1}, "interpolation": 2}]}, "rotation": {"Points": [{"co": {"Y": 0, "X": 1}, "interpolation": 2}]}, "scale_y": {"Points": [{"co": {"Y": 1, "X": 1}, "interpolation": 2}]}, "crop_y": {"Points": [{"co": {"Y": 0, "X": 1}, "interpolation": 2}]}, "perspective_c3_x": {"Points": [{"co": {"Y": -1, "X": 1}, "interpolation": 2}]}, "end": 31.317333221435547, "crop_width": {"Points": [{"co": {"Y": -1, "X": 1}, "interpolation": 2}]}, "position": 21.76, "id": "627XQDJ3EP", "wave_color": {"green": {"Points": [{"handle_right": {"Y": 0, "X": 0.5}, "co": {"Y": 123, "X": 1}, "handle_left": {"Y": 1, "X": 0.5}, "handle_type": 0, "interpolation": 0}]}, "blue": {"Points": [{"handle_right": {"Y": 0, "X": 0.5}, "co": {"Y": 255, "X": 1}, "handle_left": {"Y": 1, "X": 0.5}, "handle_type": 0, "interpolation": 0}]}, "alpha": {"Points": [{"handle_right": {"Y": 0, "X": 0.5}, "co": {"Y": 255, "X": 1}, "handle_left": {"Y": 1, "X": 0.5}, "handle_type": 0, "interpolation": 0}]}, "red": {"Points": [{"handle_right": {"Y": 0, "X": 0.5}, "co": {"Y": 0, "X": 1}, "handle_left": {"Y": 1, "X": 0.5}, "handle_type": 0, "interpolation": 0}]}}, "has_video": {"Points": [{"co": {"Y": -1, "X": 1}, "interpolation": 2}]}, "has_audio": {"Points": [{"co": {"Y": -1, "X": 1}, "interpolation": 2}]}, "effects": [], "location_x": {"Points": [{"co": {"Y": 0, "X": 1}, "interpolation": 2}]}, "waveform": false, "title": "TE_SR_Taxi.mp4", "image": "/home/robsen/.openshot_qt/thumbnail/Z3LOYBY1PL.png", "gravity": 4, "perspective_c2_x": {"Points": [{"co": {"Y": -1, "X": 1}, "interpolation": 2}]}, "perspective_c1_y": {"Points": [{"co": {"Y": -1, "X": 1}, "interpolation": 2}]}, "crop_height": {"Points": [{"co": {"Y": -1, "X": 1}, "interpolation": 2}]}, "crop_x": {"Points": [{"co": {"Y": 0, "X": 1}, "interpolation": 2}]}, "start": 0, "scale": 1, "shear_y": {"Points": [{"co": {"Y": 0, "X": 1}, "interpolation": 2}]}, "display": 0, "volume": {"Points": [{"co": {"Y": 1, "X": 1}, "interpolation": 2}]}, "channel_mapping": {"Points": [{"co": {"Y": -1, "X": 1}, "interpolation": 2}]}, "anchor": 0, "duration": 31.317333221435547, "perspective_c3_y": {"Points": [{"co": {"Y": -1, "X": 1}, "interpolation": 2}]}, "shear_x": {"Points": [{"co": {"Y": 0, "X": 1}, "interpolation": 2}]}, "perspective_c4_x": {"Points": [{"co": {"Y": -1, "X": 1}, "interpolation": 2}]}, "location_y": {"Points": [{"co": {"Y": 0, "X": 1}, "interpolation": 2}]}, "scale_x": {"Points": [{"co": {"Y": 1, "X": 1}, "interpolation": 2}]}, "layer": 0, "perspective_c2_y": {"Points": [{"co": {"Y": -1, "X": 1}, "interpolation": 2}]}, "perspective_c1_x": {"Points": [{"co": {"Y": -1, "X": 1}, "interpolation": 2}]}, "perspective_c4_y": {"Points": [{"co": {"Y": -1, "X": 1}, "interpolation": 2}]}, "reader": {"audio_bit_rate": 189375, "has_single_image": false, "vcodec": "h264", "has_video": true, "type": "FFmpegReader", "video_length": "937", "audio_timebase": {"den": 48000, "num": 1}, "path": "/home/robsen/Dropbox/Workdir/Repo/SuesseRache-HH-Taxi/TE_SR_Taxi.mp4", "width": 1920, "has_audio": true, "video_bit_rate": 32091692, "channel_layout": 3, "height": 1080, "display_ratio": {"den": 9, "num": 16}, "interlaced_frame": false, "duration": 31.317333221435547, "sample_rate": 48000, "pixel_format": 0, "video_timebase": {"den": 29970, "num": 1}, "file_size": "125628279", "top_field_first": true, "pixel_ratio": {"den": 1, "num": 1}, "acodec": "aac", "audio_stream_index": 1, "video_stream_index": 0, "channels": 2, "fps": {"den": 100, "num": 2997}}, "channel_filter": {"Points": [{"co": {"Y": -1, "X": 1}, "interpolation": 2}]}, "file_id": "Z3LOYBY1PL", "time": {"Points": [{"co": {"Y": 1, "X": 1}, "interpolation": 2}]}}, "value": {"id": "627XQDJ3EP", "start": 0, "end": 31.317333221435547, "position": 21.76, "layer": 1, "image": "/home/robsen/.openshot_qt/thumbnail/Z3LOYBY1PL.png"}, "key": ["clips", {"id": "627XQDJ3EP"}], "partial": false, "type": "update"}, {"old_values": [{"alpha": {"Points": [{"co": {"Y": 1, "X": 1}, "interpolation": 2}]}, "rotation": {"Points": [{"co": {"Y": 0, "X": 1}, "interpolation": 2}]}, "scale_y": {"Points": [{"co": {"Y": 1, "X": 1}, "interpolation": 2}]}, "crop_y": {"Points": [{"co": {"Y": 0, "X": 1}, "interpolation": 2}]}, "perspective_c3_x": {"Points": [{"co": {"Y": -1, "X": 1}, "interpolation": 2}]}, "end": 15, "crop_width": {"Points": [{"co": {"Y": -1, "X": 1}, "interpolation": 2}]}, "position": 8.8, "id": "0AEDFYGQ7J", "wave_color": {"green": {"Points": [{"handle_right": {"Y": 0, "X": 0.5}, "co": {"Y": 123, "X": 1}, "handle_left": {"Y": 1, "X": 0.5}, "handle_type": 0, "interpolation": 0}]}, "blue": {"Points": [{"handle_right": {"Y": 0, "X": 0.5}, "co": {"Y": 255, "X": 1}, "handle_left": {"Y": 1, "X": 0.5}, "handle_type": 0, "interpolation": 0}]}, "alpha": {"Points": [{"handle_right": {"Y": 0, "X": 0.5}, "co": {"Y": 255, "X": 1}, "handle_left": {"Y": 1, "X": 0.5}, "handle_type": 0, "interpolation": 0}]}, "red": {"Points": [{"handle_right": {"Y": 0, "X": 0.5}, "co": {"Y": 0, "X": 1}, "handle_left": {"Y": 1, "X": 0.5}, "handle_type": 0, "interpolation": 0}]}}, "has_video": {"Points": [{"co": {"Y": -1, "X": 1}, "interpolation": 2}]}, "has_audio": {"Points": [{"co": {"Y": -1, "X": 1}, "interpolation": 2}]}, "effects": [], "location_x": {"Points": [{"co": {"Y": 0, "X": 1}, "interpolation": 2}]}, "waveform": false, "title": "taxi_start.mp4", "image": "/home/robsen/.openshot_qt/thumbnail/LGW3TZJV4Q.png", "gravity": 4, "perspective_c2_x": {"Points": [{"co": {"Y": -1, "X": 1}, "interpolation": 2}]}, "perspective_c1_y": {"Points": [{"co": {"Y": -1, "X": 1}, "interpolation": 2}]}, "crop_height": {"Points": [{"co": {"Y": -1, "X": 1}, "interpolation": 2}]}, "crop_x": {"Points": [{"co": {"Y": 0, "X": 1}, "interpolation": 2}]}, "start": 0, "scale": 1, "shear_y": {"Points": [{"co": {"Y": 0, "X": 1}, "interpolation": 2}]}, "display": 0, "volume": {"Points": [{"co": {"Y": 1, "X": 1}, "interpolation": 2}]}, "channel_mapping": {"Points": [{"co": {"Y": -1, "X": 1}, "interpolation": 2}]}, "anchor": 0, "duration": 15.0, "perspective_c3_y": {"Points": [{"co": {"Y": -1, "X": 1}, "interpolation": 2}]}, "shear_x": {"Points": [{"co": {"Y": 0, "X": 1}, "interpolation": 2}]}, "perspective_c4_x": {"Points": [{"co": {"Y": -1, "X": 1}, "interpolation": 2}]}, "location_y": {"Points": [{"co": {"Y": 0, "X": 1}, "interpolation": 2}]}, "scale_x": {"Points": [{"co": {"Y": 1, "X": 1}, "interpolation": 2}]}, "layer": 0, "perspective_c2_y": {"Points": [{"co": {"Y": -1, "X": 1}, "interpolation": 2}]}, "perspective_c1_x": {"Points": [{"co": {"Y": -1, "X": 1}, "interpolation": 2}]}, "perspective_c4_y": {"Points": [{"co": {"Y": -1, "X": 1}, "interpolation": 2}]}, "reader": {"audio_bit_rate": 0, "has_single_image": false, "vcodec": "h264", "has_video": true, "type": "FFmpegReader", "video_length": "375", "audio_timebase": {"den": 1, "num": 1}, "path": "/home/robsen/Dropbox/Workdir/Repo/SuesseRache-HH-Taxi/taxi_start.mp4", "width": 1920, "has_audio": false, "video_bit_rate": 147692, "channel_layout": 4, "height": 1080, "display_ratio": {"den": 9, "num": 16}, "interlaced_frame": false, "duration": 15.0, "sample_rate": 0, "pixel_format": 0, "video_timebase": {"den": 12800, "num": 1}, "file_size": "276924", "top_field_first": true, "pixel_ratio": {"den": 1, "num": 1}, "acodec": "", "audio_stream_index": -1, "video_stream_index": 0, "channels": 0, "fps": {"den": 1, "num": 25}}, "channel_filter": {"Points": [{"co": {"Y": -1, "X": 1}, "interpolation": 2}]}, "file_id": "LGW3TZJV4Q", "time": {"Points": [{"co": {"Y": 1, "X": 1}, "interpolation": 2}]}}, {"alpha": {"Points": [{"co": {"Y": 1, "X": 1}, "interpolation": 2}]}, "rotation": {"Points": [{"co": {"Y": 0, "X": 1}, "interpolation": 2}]}, "scale_y": {"Points": [{"co": {"Y": 1, "X": 1}, "interpolation": 2}]}, "crop_y": {"Points": [{"co": {"Y": 0, "X": 1}, "interpolation": 2}]}, "perspective_c3_x": {"Points": [{"co": {"Y": -1, "X": 1}, "interpolation": 2}]}, "end": 31.317333221435547, "crop_width": {"Points": [{"co": {"Y": -1, "X": 1}, "interpolation": 2}]}, "position": 21.76, "id": "627XQDJ3EP", "wave_color": {"green": {"Points": [{"handle_right": {"Y": 0, "X": 0.5}, "co": {"Y": 123, "X": 1}, "handle_left": {"Y": 1, "X": 0.5}, "handle_type": 0, "interpolation": 0}]}, "blue": {"Points": [{"handle_right": {"Y": 0, "X": 0.5}, "co": {"Y": 255, "X": 1}, "handle_left": {"Y": 1, "X": 0.5}, "handle_type": 0, "interpolation": 0}]}, "alpha": {"Points": [{"handle_right": {"Y": 0, "X": 0.5}, "co": {"Y": 255, "X": 1}, "handle_left": {"Y": 1, "X": 0.5}, "handle_type": 0, "interpolation": 0}]}, "red": {"Points": [{"handle_right": {"Y": 0, "X": 0.5}, "co": {"Y": 0, "X": 1}, "handle_left": {"Y": 1, "X": 0.5}, "handle_type": 0, "interpolation": 0}]}}, "has_video": {"Points": [{"co": {"Y": -1, "X": 1}, "interpolation": 2}]}, "has_audio": {"Points": [{"co": {"Y": -1, "X": 1}, "interpolation": 2}]}, "effects": [], "location_x": {"Points": [{"co": {"Y": 0, "X": 1}, "interpolation": 2}]}, "waveform": false, "title": "TE_SR_Taxi.mp4", "image": "/home/robsen/.openshot_qt/thumbnail/Z3LOYBY1PL.png", "gravity": 4, "perspective_c2_x": {"Points": [{"co": {"Y": -1, "X": 1}, "interpolation": 2}]}, "perspective_c1_y": {"Points": [{"co": {"Y": -1, "X": 1}, "interpolation": 2}]}, "crop_height": {"Points": [{"co": {"Y": -1, "X": 1}, "interpolation": 2}]}, "crop_x": {"Points": [{"co": {"Y": 0, "X": 1}, "interpolation": 2}]}, "start": 0, "scale": 1, "shear_y": {"Points": [{"co": {"Y": 0, "X": 1}, "interpolation": 2}]}, "display": 0, "volume": {"Points": [{"co": {"Y": 1, "X": 1}, "interpolation": 2}]}, "channel_mapping": {"Points": [{"co": {"Y": -1, "X": 1}, "interpolation": 2}]}, "anchor": 0, "duration": 31.317333221435547, "perspective_c3_y": {"Points": [{"co": {"Y": -1, "X": 1}, "interpolation": 2}]}, "shear_x": {"Points": [{"co": {"Y": 0, "X": 1}, "interpolation": 2}]}, "perspective_c4_x": {"Points": [{"co": {"Y": -1, "X": 1}, "interpolation": 2}]}, "location_y": {"Points": [{"co": {"Y": 0, "X": 1}, "interpolation": 2}]}, "scale_x": {"Points": [{"co": {"Y": 1, "X": 1}, "interpolation": 2}]}, "layer": 1, "perspective_c2_y": {"Points": [{"co": {"Y": -1, "X": 1}, "interpolation": 2}]}, "perspective_c1_x": {"Points": [{"co": {"Y": -1, "X": 1}, "interpolation": 2}]}, "perspective_c4_y": {"Points": [{"co": {"Y": -1, "X": 1}, "interpolation": 2}]}, "reader": {"audio_bit_rate": 189375, "has_single_image": false, "vcodec": "h264", "has_video": true, "type": "FFmpegReader", "video_length": "937", "audio_timebase": {"den": 48000, "num": 1}, "path": "/home/robsen/Dropbox/Workdir/Repo/SuesseRache-HH-Taxi/TE_SR_Taxi.mp4", "width": 1920, "has_audio": true, "video_bit_rate": 32091692, "channel_layout": 3, "height": 1080, "display_ratio": {"den": 9, "num": 16}, "interlaced_frame": false, "duration": 31.317333221435547, "sample_rate": 48000, "pixel_format": 0, "video_timebase": {"den": 29970, "num": 1}, "file_size": "125628279", "top_field_first": true, "pixel_ratio": {"den": 1, "num": 1}, "acodec": "aac", "audio_stream_index": 1, "video_stream_index": 0, "channels": 2, "fps": {"den": 100, "num": 2997}}, "channel_filter": {"Points": [{"co": {"Y": -1, "X": 1}, "interpolation": 2}]}, "file_id": "Z3LOYBY1PL", "time": {"Points": [{"co": {"Y": 1, "X": 1}, "interpolation": 2}]}}], "value": {"alpha": {"Points": [{"co": {"Y": 1, "X": 1}, "interpolation": 2}, {"handle_right": {"Y": 0, "X": 0.5}, "co": {"Y": 0, "X": 1}, "handle_left": {"Y": 1, "X": 0.5}, "handle_type": 0, "interpolation": 0}, {"handle_right": {"Y": 0, "X": 0.5}, "co": {"Y": 1, "X": 73}, "handle_left": {"Y": 1, "X": 0.5}, "handle_type": 0, "interpolation": 0}]}, "rotation": {"Points": [{"co": {"Y": 0, "X": 1}, "interpolation": 2}]}, "scale_y": {"Points": [{"co": {"Y": 1, "X": 1}, "interpolation": 2}]}, "crop_y": {"Points": [{"co": {"Y": 0, "X": 1}, "interpolation": 2}]}, "perspective_c3_x": {"Points": [{"co": {"Y": -1, "X": 1}, "interpolation": 2}]}, "end": 15, "crop_width": {"Points": [{"co": {"Y": -1, "X": 1}, "interpolation": 2}]}, "position": 53.075, "id": "PJWPMFXKV3", "wave_color": {"green": {"Points": [{"handle_right": {"Y": 0, "X": 0.5}, "co": {"Y": 123, "X": 1}, "handle_left": {"Y": 1, "X": 0.5}, "handle_type": 0, "interpolation": 0}]}, "blue": {"Points": [{"handle_right": {"Y": 0, "X": 0.5}, "co": {"Y": 255, "X": 1}, "handle_left": {"Y": 1, "X": 0.5}, "handle_type": 0, "interpolation": 0}]}, "alpha": {"Points": [{"handle_right": {"Y": 0, "X": 0.5}, "co": {"Y": 255, "X": 1}, "handle_left": {"Y": 1, "X": 0.5}, "handle_type": 0, "interpolation": 0}]}, "red": {"Points": [{"handle_right": {"Y": 0, "X": 0.5}, "co": {"Y": 0, "X": 1}, "handle_left": {"Y": 1, "X": 0.5}, "handle_type": 0, "interpolation": 0}]}}, "has_video": {"Points": [{"co": {"Y": -1, "X": 1}, "interpolation": 2}]}, "has_audio": {"Points": [{"co": {"Y": -1, "X": 1}, "interpolation": 2}]}, "effects": [], "location_x": {"Points": [{"co": {"Y": 0, "X": 1}, "interpolation": 2}]}, "waveform": false, "title": "arrow.mp4", "image": "/home/robsen/.openshot_qt/thumbnail/X22V56NF57.png", "gravity": 4, "scale_x": {"Points": [{"co": {"Y": 1, "X": 1}, "interpolation": 2}]}, "perspective_c1_y": {"Points": [{"co": {"Y": -1, "X": 1}, "interpolation": 2}]}, "crop_height": {"Points": [{"co": {"Y": -1, "X": 1}, "interpolation": 2}]}, "crop_x": {"Points": [{"co": {"Y": 0, "X": 1}, "interpolation": 2}]}, "start": 0, "scale": 1, "shear_y": {"Points": [{"co": {"Y": 0, "X": 1}, "interpolation": 2}]}, "display": 0, "volume": {"Points": [{"co": {"Y": 1, "X": 1}, "interpolation": 2}]}, "channel_mapping": {"Points": [{"co": {"Y": -1, "X": 1}, "interpolation": 2}]}, "anchor": 0, "duration": 15.0, "perspective_c3_y": {"Points": [{"co": {"Y": -1, "X": 1}, "interpolation": 2}]}, "shear_x": {"Points": [{"co": {"Y": 0, "X": 1}, "interpolation": 2}]}, "perspective_c4_x": {"Points": [{"co": {"Y": -1, "X": 1}, "interpolation": 2}]}, "location_y": {"Points": [{"co": {"Y": 0, "X": 1}, "interpolation": 2}]}, "perspective_c2_x": {"Points": [{"co": {"Y": -1, "X": 1}, "interpolation": 2}]}, "layer": 2, "perspective_c2_y": {"Points": [{"co": {"Y": -1, "X": 1}, "interpolation": 2}]}, "perspective_c1_x": {"Points": [{"co": {"Y": -1, "X": 1}, "interpolation": 2}]}, "perspective_c4_y": {"Points": [{"co": {"Y": -1, "X": 1}, "interpolation": 2}]}, "reader": {"audio_bit_rate": 0, "has_single_image": false, "has_video": true, "type": "FFmpegReader", "video_length": "375", "audio_timebase": {"den": 1, "num": 1}, "path": "/home/robsen/Dropbox/Workdir/Repo/SuesseRache-HH-Taxi/arrow.mp4", "width": 1920, "has_audio": false, "video_bit_rate": 83079, "channel_layout": 4, "height": 1080, "display_ratio": {"den": 9, "num": 16}, "interlaced_frame": false, "video_timebase": {"den": 12800, "num": 1}, "duration": 15.0, "sample_rate": 0, "pixel_format": 0, "fps": {"den": 1, "num": 25}, "file_size": "155774", "top_field_first": true, "pixel_ratio": {"den": 1, "num": 1}, "acodec": "", "audio_stream_index": -1, "video_stream_index": 0, "channels": 0, "vcodec": "h264"}, "channel_filter": {"Points": [{"co": {"Y": -1, "X": 1}, "interpolation": 2}]}, "file_id": "X22V56NF57", "time": {"Points": [{"co": {"Y": 1, "X": 1}, "interpolation": 2}]}}, "key": ["clips"], "partial": false, "type": "insert"}, {"old_values": {"alpha": {"Points": [{"co": {"Y": 1, "X": 1}, "interpolation": 2}]}, "rotation": {"Points": [{"co": {"Y": 0, "X": 1}, "interpolation": 2}]}, "scale_y": {"Points": [{"co": {"Y": 1, "X": 1}, "interpolation": 2}]}, "crop_y": {"Points": [{"co": {"Y": 0, "X": 1}, "interpolation": 2}]}, "perspective_c3_x": {"Points": [{"co": {"Y": -1, "X": 1}, "interpolation": 2}]}, "end": 15.0, "crop_width": {"Points": [{"co": {"Y": -1, "X": 1}, "interpolation": 2}]}, "position": 62.88, "id": "PJWPMFXKV3", "wave_color": {"green": {"Points": [{"handle_right": {"Y": 0, "X": 0.5}, "co": {"Y": 123, "X": 1}, "handle_left": {"Y": 1, "X": 0.5}, "handle_type": 0, "interpolation": 0}]}, "blue": {"Points": [{"handle_right": {"Y": 0, "X": 0.5}, "co": {"Y": 255, "X": 1}, "handle_left": {"Y": 1, "X": 0.5}, "handle_type": 0, "interpolation": 0}]}, "alpha": {"Points": [{"handle_right": {"Y": 0, "X": 0.5}, "co": {"Y": 255, "X": 1}, "handle_left": {"Y": 1, "X": 0.5}, "handle_type": 0, "interpolation": 0}]}, "red": {"Points": [{"handle_right": {"Y": 0, "X": 0.5}, "co": {"Y": 0, "X": 1}, "handle_left": {"Y": 1, "X": 0.5}, "handle_type": 0, "interpolation": 0}]}}, "has_video": {"Points": [{"co": {"Y": -1, "X": 1}, "interpolation": 2}]}, "has_audio": {"Points": [{"co": {"Y": -1, "X": 1}, "interpolation": 2}]}, "effects": [], "location_x": {"Points": [{"co": {"Y": 0, "X": 1}, "interpolation": 2}]}, "waveform": false, "title": "arrow.mp4", "image": "/home/robsen/.openshot_qt/thumbnail/X22V56NF57.png", "gravity": 4, "scale_x": {"Points": [{"co": {"Y": 1, "X": 1}, "interpolation": 2}]}, "perspective_c1_y": {"Points": [{"co": {"Y": -1, "X": 1}, "interpolation": 2}]}, "crop_height": {"Points": [{"co": {"Y": -1, "X": 1}, "interpolation": 2}]}, "crop_x": {"Points": [{"co": {"Y": 0, "X": 1}, "interpolation": 2}]}, "start": 0, "scale": 1, "shear_y": {"Points": [{"co": {"Y": 0, "X": 1}, "interpolation": 2}]}, "display": 0, "volume": {"Points": [{"co": {"Y": 1, "X": 1}, "interpolation": 2}]}, "channel_mapping": {"Points": [{"co": {"Y": -1, "X": 1}, "interpolation": 2}]}, "anchor": 0, "duration": 15.0, "perspective_c3_y": {"Points": [{"co": {"Y": -1, "X": 1}, "interpolation": 2}]}, "shear_x": {"Points": [{"co": {"Y": 0, "X": 1}, "interpolation": 2}]}, "perspective_c4_x": {"Points": [{"co": {"Y": -1, "X": 1}, "interpolation": 2}]}, "location_y": {"Points": [{"co": {"Y": 0, "X": 1}, "interpolation": 2}]}, "perspective_c2_x": {"Points": [{"co": {"Y": -1, "X": 1}, "interpolation": 2}]}, "layer": 2, "perspective_c2_y": {"Points": [{"co": {"Y": -1, "X": 1}, "interpolation": 2}]}, "perspective_c1_x": {"Points": [{"co": {"Y": -1, "X": 1}, "interpolation": 2}]}, "perspective_c4_y": {"Points": [{"co": {"Y": -1, "X": 1}, "interpolation": 2}]}, "reader": {"audio_bit_rate": 0, "has_single_image": false, "vcodec": "h264", "has_video": true, "type": "FFmpegReader", "video_length": "375", "audio_timebase": {"den": 1, "num": 1}, "path": "/home/robsen/Dropbox/Workdir/Repo/SuesseRache-HH-Taxi/arrow.mp4", "width": 1920, "has_audio": false, "video_bit_rate": 83079, "channel_layout": 4, "height": 1080, "display_ratio": {"den": 9, "num": 16}, "interlaced_frame": false, "duration": 15.0, "sample_rate": 0, "pixel_format": 0, "video_timebase": {"den": 12800, "num": 1}, "file_size": "155774", "top_field_first": true, "pixel_ratio": {"den": 1, "num": 1}, "acodec": "", "audio_stream_index": -1, "video_stream_index": 0, "channels": 0, "fps": {"den": 1, "num": 25}}, "channel_filter": {"Points": [{"co": {"Y": -1, "X": 1}, "interpolation": 2}]}, "file_id": "X22V56NF57", "time": {"Points": [{"co": {"Y": 1, "X": 1}, "interpolation": 2}]}}, "value": {"id": "PJWPMFXKV3", "start": 0, "end": 15, "position": 63.04, "layer": 1, "image": "/home/robsen/.openshot_qt/thumbnail/X22V56NF57.png"}, "key": ["clips", {"id": "PJWPMFXKV3"}], "partial": false, "type": "update"}, {"old_values": {"alpha": {"Points": [{"co": {"Y": 1, "X": 1}, "interpolation": 2}]}, "rotation": {"Points": [{"co": {"Y": 0, "X": 1}, "interpolation": 2}]}, "scale_y": {"Points": [{"co": {"Y": 1, "X": 1}, "interpolation": 2}]}, "crop_y": {"Points": [{"co": {"Y": 0, "X": 1}, "interpolation": 2}]}, "perspective_c3_x": {"Points": [{"co": {"Y": -1, "X": 1}, "interpolation": 2}]}, "end": 15, "crop_width": {"Points": [{"co": {"Y": -1, "X": 1}, "interpolation": 2}]}, "position": 63.04, "id": "PJWPMFXKV3", "wave_color": {"green": {"Points": [{"handle_right": {"Y": 0, "X": 0.5}, "co": {"Y": 123, "X": 1}, "handle_left": {"Y": 1, "X": 0.5}, "handle_type": 0, "interpolation": 0}]}, "blue": {"Points": [{"handle_right": {"Y": 0, "X": 0.5}, "co": {"Y": 255, "X": 1}, "handle_left": {"Y": 1, "X": 0.5}, "handle_type": 0, "interpolation": 0}]}, "alpha": {"Points": [{"handle_right": {"Y": 0, "X": 0.5}, "co": {"Y": 255, "X": 1}, "handle_left": {"Y": 1, "X": 0.5}, "handle_type": 0, "interpolation": 0}]}, "red": {"Points": [{"handle_right": {"Y": 0, "X": 0.5}, "co": {"Y": 0, "X": 1}, "handle_left": {"Y": 1, "X": 0.5}, "handle_type": 0, "interpolation": 0}]}}, "has_video": {"Points": [{"co": {"Y": -1, "X": 1}, "interpolation": 2}]}, "has_audio": {"Points": [{"co": {"Y": -1, "X": 1}, "interpolation": 2}]}, "effects": [], "location_x": {"Points": [{"co": {"Y": 0, "X": 1}, "interpolation": 2}]}, "waveform": false, "title": "arrow.mp4", "image": "/home/robsen/.openshot_qt/thumbnail/X22V56NF57.png", "gravity": 4, "perspective_c2_x": {"Points": [{"co": {"Y": -1, "X": 1}, "interpolation": 2}]}, "perspective_c1_y": {"Points": [{"co": {"Y": -1, "X": 1}, "interpolation": 2}]}, "crop_height": {"Points": [{"co": {"Y": -1, "X": 1}, "interpolation": 2}]}, "crop_x": {"Points": [{"co": {"Y": 0, "X": 1}, "interpolation": 2}]}, "start": 0, "scale": 1, "shear_y": {"Points": [{"co": {"Y": 0, "X": 1}, "interpolation": 2}]}, "display": 0, "volume": {"Points": [{"co": {"Y": 1, "X": 1}, "interpolation": 2}]}, "channel_mapping": {"Points": [{"co": {"Y": -1, "X": 1}, "interpolation": 2}]}, "anchor": 0, "duration": 15.0, "perspective_c3_y": {"Points": [{"co": {"Y": -1, "X": 1}, "interpolation": 2}]}, "shear_x": {"Points": [{"co": {"Y": 0, "X": 1}, "interpolation": 2}]}, "perspective_c4_x": {"Points": [{"co": {"Y": -1, "X": 1}, "interpolation": 2}]}, "location_y": {"Points": [{"co": {"Y": 0, "X": 1}, "interpolation": 2}]}, "scale_x": {"Points": [{"co": {"Y": 1, "X": 1}, "interpolation": 2}]}, "layer": 1, "perspective_c2_y": {"Points": [{"co": {"Y": -1, "X": 1}, "interpolation": 2}]}, "perspective_c1_x": {"Points": [{"co": {"Y": -1, "X": 1}, "interpolation": 2}]}, "perspective_c4_y": {"Points": [{"co": {"Y": -1, "X": 1}, "interpolation": 2}]}, "reader": {"audio_bit_rate": 0, "has_single_image": false, "vcodec": "h264", "has_video": true, "type": "FFmpegReader", "video_length": "375", "audio_timebase": {"den": 1, "num": 1}, "path": "/home/robsen/Dropbox/Workdir/Repo/SuesseRache-HH-Taxi/arrow.mp4", "width": 1920, "has_audio": false, "video_bit_rate": 83079, "channel_layout": 4, "height": 1080, "display_ratio": {"den": 9, "num": 16}, "interlaced_frame": false, "duration": 15.0, "sample_rate": 0, "pixel_format": 0, "video_timebase": {"den": 12800, "num": 1}, "file_size": "155774", "top_field_first": true, "pixel_ratio": {"den": 1, "num": 1}, "acodec": "", "audio_stream_index": -1, "video_stream_index": 0, "channels": 0, "fps": {"den": 1, "num": 25}}, "channel_filter": {"Points": [{"co": {"Y": -1, "X": 1}, "interpolation": 2}]}, "file_id": "X22V56NF57", "time": {"Points": [{"co": {"Y": 1, "X": 1}, "interpolation": 2}]}}, "value": {"id": "PJWPMFXKV3", "start": 0, "end": 15, "position": 53.075, "layer": 2, "image": "/home/robsen/.openshot_qt/thumbnail/X22V56NF57.png"}, "key": ["clips", {"id": "PJWPMFXKV3"}], "partial": false, "type": "update"}, {"old_values": {"start": 0, "type": "Mask", "contrast": {"Points": [{"co": {"Y": 3, "X": 1}, "interpolation": 2}]}, "layer": 0, "replace_image": false, "title": "Transition", "end": 2.039999999999999, "reader": {"audio_bit_rate": 0, "has_single_image": true, "vcodec": "", "has_video": true, "type": "QtImageReader", "video_length": "2592000", "audio_timebase": {"den": 1, "num": 1}, "path": "/usr/lib/python3/dist-packages/openshot_qt/transitions/common/fade.svg", "width": 720, "has_audio": false, "video_bit_rate": 0, "channel_layout": 4, "height": 576, "display_ratio": {"den": 4, "num": 5}, "interlaced_frame": false, "duration": 86400, "sample_rate": 0, "pixel_format": -1, "video_timebase": {"den": 30, "num": 1}, "file_size": "1658880", "top_field_first": true, "pixel_ratio": {"den": 1, "num": 1}, "acodec": "", "audio_stream_index": -1, "video_stream_index": -1, "channels": 0, "fps": {"den": 1, "num": 30}}, "brightness": {"Points": [{"handle_right": {"Y": 0, "X": 0.5}, "co": {"Y": 1, "X": 1}, "handle_left": {"Y": 1, "X": 0.5}, "handle_type": 0, "interpolation": 0}, {"handle_right": {"Y": 0, "X": 0.5}, "co": {"Y": -1, "X": 50}, "handle_left": {"Y": 1, "X": 0.5}, "handle_type": 0, "interpolation": 0}]}, "id": "5NBS5H99MA", "position": 21.76}, "value": null, "key": ["effects", {"id": "5NBS5H99MA"}], "partial": false, "type": "delete"}, {"old_values": {"alpha": {"Points": [{"co": {"Y": 1, "X": 1}, "interpolation": 2}]}, "rotation": {"Points": [{"co": {"Y": 0, "X": 1}, "interpolation": 2}]}, "scale_y": {"Points": [{"co": {"Y": 1, "X": 1}, "interpolation": 2}]}, "crop_y": {"Points": [{"co": {"Y": 0, "X": 1}, "interpolation": 2}]}, "perspective_c3_x": {"Points": [{"co": {"Y": -1, "X": 1}, "interpolation": 2}]}, "end": 15, "crop_width": {"Points": [{"co": {"Y": -1, "X": 1}, "interpolation": 2}]}, "position": 8.8, "id": "0AEDFYGQ7J", "wave_color": {"green": {"Points": [{"handle_right": {"Y": 0, "X": 0.5}, "co": {"Y": 123, "X": 1}, "handle_left": {"Y": 1, "X": 0.5}, "handle_type": 0, "interpolation": 0}]}, "blue": {"Points": [{"handle_right": {"Y": 0, "X": 0.5}, "co": {"Y": 255, "X": 1}, "handle_left": {"Y": 1, "X": 0.5}, "handle_type": 0, "interpolation": 0}]}, "alpha": {"Points": [{"handle_right": {"Y": 0, "X": 0.5}, "co": {"Y": 255, "X": 1}, "handle_left": {"Y": 1, "X": 0.5}, "handle_type": 0, "interpolation": 0}]}, "red": {"Points": [{"handle_right": {"Y": 0, "X": 0.5}, "co": {"Y": 0, "X": 1}, "handle_left": {"Y": 1, "X": 0.5}, "handle_type": 0, "interpolation": 0}]}}, "has_video": {"Points": [{"co": {"Y": -1, "X": 1}, "interpolation": 2}]}, "has_audio": {"Points": [{"co": {"Y": -1, "X": 1}, "interpolation": 2}]}, "effects": [], "location_x": {"Points": [{"co": {"Y": 0, "X": 1}, "interpolation": 2}]}, "waveform": false, "title": "taxi_start.mp4", "image": "/home/robsen/.openshot_qt/thumbnail/LGW3TZJV4Q.png", "gravity": 4, "perspective_c2_x": {"Points": [{"co": {"Y": -1, "X": 1}, "interpolation": 2}]}, "perspective_c1_y": {"Points": [{"co": {"Y": -1, "X": 1}, "interpolation": 2}]}, "crop_height": {"Points": [{"co": {"Y": -1, "X": 1}, "interpolation": 2}]}, "crop_x": {"Points": [{"co": {"Y": 0, "X": 1}, "interpolation": 2}]}, "start": 0, "scale": 1, "shear_y": {"Points": [{"co": {"Y": 0, "X": 1}, "interpolation": 2}]}, "display": 0, "volume": {"Points": [{"co": {"Y": 1, "X": 1}, "interpolation": 2}]}, "channel_mapping": {"Points": [{"co": {"Y": -1, "X": 1}, "interpolation": 2}]}, "anchor": 0, "duration": 15.0, "perspective_c3_y": {"Points": [{"co": {"Y": -1, "X": 1}, "interpolation": 2}]}, "shear_x": {"Points": [{"co": {"Y": 0, "X": 1}, "interpolation": 2}]}, "perspective_c4_x": {"Points": [{"co": {"Y": -1, "X": 1}, "interpolation": 2}]}, "location_y": {"Points": [{"co": {"Y": 0, "X": 1}, "interpolation": 2}]}, "scale_x": {"Points": [{"co": {"Y": 1, "X": 1}, "interpolation": 2}]}, "layer": 0, "perspective_c2_y": {"Points": [{"co": {"Y": -1, "X": 1}, "interpolation": 2}]}, "perspective_c1_x": {"Points": [{"co": {"Y": -1, "X": 1}, "interpolation": 2}]}, "perspective_c4_y": {"Points": [{"co": {"Y": -1, "X": 1}, "interpolation": 2}]}, "reader": {"audio_bit_rate": 0, "has_single_image": false, "vcodec": "h264", "has_video": true, "type": "FFmpegReader", "video_length": "375", "audio_timebase": {"den": 1, "num": 1}, "path": "/home/robsen/Dropbox/Workdir/Repo/SuesseRache-HH-Taxi/taxi_start.mp4", "width": 1920, "has_audio": false, "video_bit_rate": 147692, "channel_layout": 4, "height": 1080, "display_ratio": {"den": 9, "num": 16}, "interlaced_frame": false, "duration": 15.0, "sample_rate": 0, "pixel_format": 0, "video_timebase": {"den": 12800, "num": 1}, "file_size": "276924", "top_field_first": true, "pixel_ratio": {"den": 1, "num": 1}, "acodec": "", "audio_stream_index": -1, "video_stream_index": 0, "channels": 0, "fps": {"den": 1, "num": 25}}, "channel_filter": {"Points": [{"co": {"Y": -1, "X": 1}, "interpolation": 2}]}, "file_id": "LGW3TZJV4Q", "time": {"Points": [{"co": {"Y": 1, "X": 1}, "interpolation": 2}]}}, "value": {"alpha": {"Points": [{"co": {"Y": 1, "X": 1}, "interpolation": 2}, {"handle_right": {"Y": 0, "X": 0.5}, "co": {"Y": 1, "X": 289}, "handle_left": {"Y": 1, "X": 0.5}, "handle_type": 0, "interpolation": 0}, {"handle_right": {"Y": 0, "X": 0.5}, "co": {"Y": 0, "X": 361}, "handle_left": {"Y": 1, "X": 0.5}, "handle_type": 0, "interpolation": 0}]}, "rotation": {"Points": [{"co": {"Y": 0, "X": 1}, "interpolation": 2}]}, "scale_y": {"Points": [{"co": {"Y": 1, "X": 1}, "interpolation": 2}]}, "crop_y": {"Points": [{"co": {"Y": 0, "X": 1}, "interpolation": 2}]}, "crop_width": {"Points": [{"co": {"Y": -1, "X": 1}, "interpolation": 2}]}, "end": 15, "perspective_c3_x": {"Points": [{"co": {"Y": -1, "X": 1}, "interpolation": 2}]}, "position": 8.8, "id": "0AEDFYGQ7J", "wave_color": {"green": {"Points": [{"handle_right": {"Y": 0, "X": 0.5}, "co": {"Y": 123, "X": 1}, "handle_left": {"Y": 1, "X": 0.5}, "handle_type": 0, "interpolation": 0}]}, "blue": {"Points": [{"handle_right": {"Y": 0, "X": 0.5}, "co": {"Y": 255, "X": 1}, "handle_left": {"Y": 1, "X": 0.5}, "handle_type": 0, "interpolation": 0}]}, "alpha": {"Points": [{"handle_right": {"Y": 0, "X": 0.5}, "co": {"Y": 255, "X": 1}, "handle_left": {"Y": 1, "X": 0.5}, "handle_type": 0, "interpolation": 0}]}, "red": {"Points": [{"handle_right": {"Y": 0, "X": 0.5}, "co": {"Y": 0, "X": 1}, "handle_left": {"Y": 1, "X": 0.5}, "handle_type": 0, "interpolation": 0}]}}, "has_video": {"Points": [{"co": {"Y": -1, "X": 1}, "interpolation": 2}]}, "has_audio": {"Points": [{"co": {"Y": -1, "X": 1}, "interpolation": 2}]}, "effects": [], "location_x": {"Points": [{"co": {"Y": 0, "X": 1}, "interpolation": 2}]}, "waveform": false, "title": "taxi_start.mp4", "image": "/home/robsen/.openshot_qt/thumbnail/LGW3TZJV4Q.png", "gravity": 4, "scale_x": {"Points": [{"co": {"Y": 1, "X": 1}, "interpolation": 2}]}, "perspective_c1_y": {"Points": [{"co": {"Y": -1, "X": 1}, "interpolation": 2}]}, "crop_height": {"Points": [{"co": {"Y": -1, "X": 1}, "interpolation": 2}]}, "crop_x": {"Points": [{"co": {"Y": 0, "X": 1}, "interpolation": 2}]}, "start": 0, "scale": 1, "shear_y": {"Points": [{"co": {"Y": 0, "X": 1}, "interpolation": 2}]}, "display": 0, "volume": {"Points": [{"co": {"Y": 1, "X": 1}, "interpolation": 2}]}, "channel_mapping": {"Points": [{"co": {"Y": -1, "X": 1}, "interpolation": 2}]}, "anchor": 0, "duration": 15.0, "perspective_c3_y": {"Points": [{"co": {"Y": -1, "X": 1}, "interpolation": 2}]}, "shear_x": {"Points": [{"co": {"Y": 0, "X": 1}, "interpolation": 2}]}, "perspective_c4_x": {"Points": [{"co": {"Y": -1, "X": 1}, "interpolation": 2}]}, "location_y": {"Points": [{"co": {"Y": 0, "X": 1}, "interpolation": 2}]}, "perspective_c2_x": {"Points": [{"co": {"Y": -1, "X": 1}, "interpolation": 2}]}, "layer": 0, "perspective_c2_y": {"Points": [{"co": {"Y": -1, "X": 1}, "interpolation": 2}]}, "perspective_c1_x": {"Points": [{"co": {"Y": -1, "X": 1}, "interpolation": 2}]}, "perspective_c4_y": {"Points": [{"co": {"Y": -1, "X": 1}, "interpolation": 2}]}, "channel_filter": {"Points": [{"co": {"Y": -1, "X": 1}, "interpolation": 2}]}, "time": {"Points": [{"co": {"Y": 1, "X": 1}, "interpolation": 2}]}, "file_id": "LGW3TZJV4Q"}, "key": ["clips", {"id": "0AEDFYGQ7J"}], "partial": false, "type": "update"}, {"old_values": {"alpha": {"Points": [{"co": {"Y": 1, "X": 1}, "interpolation": 2}, {"handle_right": {"Y": 0, "X": 0.5}, "co": {"Y": 1, "X": 289}, "handle_left": {"Y": 1, "X": 0.5}, "handle_type": 0, "interpolation": 0}, {"handle_right": {"Y": 0, "X": 0.5}, "co": {"Y": 0, "X": 361}, "handle_left": {"Y": 1, "X": 0.5}, "handle_type": 0, "interpolation": 0}]}, "rotation": {"Points": [{"co": {"Y": 0, "X": 1}, "interpolation": 2}]}, "scale_y": {"Points": [{"co": {"Y": 1, "X": 1}, "interpolation": 2}]}, "crop_y": {"Points": [{"co": {"Y": 0, "X": 1}, "interpolation": 2}]}, "perspective_c3_x": {"Points": [{"co": {"Y": -1, "X": 1}, "interpolation": 2}]}, "end": 15, "crop_width": {"Points": [{"co": {"Y": -1, "X": 1}, "interpolation": 2}]}, "position": 8.8, "id": "0AEDFYGQ7J", "wave_color": {"green": {"Points": [{"handle_right": {"Y": 0, "X": 0.5}, "co": {"Y": 123, "X": 1}, "handle_left": {"Y": 1, "X": 0.5}, "handle_type": 0, "interpolation": 0}]}, "blue": {"Points": [{"handle_right": {"Y": 0, "X": 0.5}, "co": {"Y": 255, "X": 1}, "handle_left": {"Y": 1, "X": 0.5}, "handle_type": 0, "interpolation": 0}]}, "alpha": {"Points": [{"handle_right": {"Y": 0, "X": 0.5}, "co": {"Y": 255, "X": 1}, "handle_left": {"Y": 1, "X": 0.5}, "handle_type": 0, "interpolation": 0}]}, "red": {"Points": [{"handle_right": {"Y": 0, "X": 0.5}, "co": {"Y": 0, "X": 1}, "handle_left": {"Y": 1, "X": 0.5}, "handle_type": 0, "interpolation": 0}]}}, "has_video": {"Points": [{"co": {"Y": -1, "X": 1}, "interpolation": 2}]}, "has_audio": {"Points": [{"co": {"Y": -1, "X": 1}, "interpolation": 2}]}, "effects": [], "location_x": {"Points": [{"co": {"Y": 0, "X": 1}, "interpolation": 2}]}, "waveform": false, "title": "taxi_start.mp4", "image": "/home/robsen/.openshot_qt/thumbnail/LGW3TZJV4Q.png", "gravity": 4, "perspective_c2_x": {"Points": [{"co": {"Y": -1, "X": 1}, "interpolation": 2}]}, "perspective_c1_y": {"Points": [{"co": {"Y": -1, "X": 1}, "interpolation": 2}]}, "crop_height": {"Points": [{"co": {"Y": -1, "X": 1}, "interpolation": 2}]}, "crop_x": {"Points": [{"co": {"Y": 0, "X": 1}, "interpolation": 2}]}, "start": 0, "scale": 1, "shear_y": {"Points": [{"co": {"Y": 0, "X": 1}, "interpolation": 2}]}, "display": 0, "volume": {"Points": [{"co": {"Y": 1, "X": 1}, "interpolation": 2}]}, "channel_mapping": {"Points": [{"co": {"Y": -1, "X": 1}, "interpolation": 2}]}, "anchor": 0, "duration": 15.0, "perspective_c3_y": {"Points": [{"co": {"Y": -1, "X": 1}, "interpolation": 2}]}, "shear_x": {"Points": [{"co": {"Y": 0, "X": 1}, "interpolation": 2}]}, "perspective_c4_x": {"Points": [{"co": {"Y": -1, "X": 1}, "interpolation": 2}]}, "location_y": {"Points": [{"co": {"Y": 0, "X": 1}, "interpolation": 2}]}, "scale_x": {"Points": [{"co": {"Y": 1, "X": 1}, "interpolation": 2}]}, "layer": 0, "perspective_c2_y": {"Points": [{"co": {"Y": -1, "X": 1}, "interpolation": 2}]}, "perspective_c1_x": {"Points": [{"co": {"Y": -1, "X": 1}, "interpolation": 2}]}, "perspective_c4_y": {"Points": [{"co": {"Y": -1, "X": 1}, "interpolation": 2}]}, "reader": {"audio_bit_rate": 0, "has_single_image": false, "vcodec": "h264", "has_video": true, "type": "FFmpegReader", "video_length": "375", "audio_timebase": {"den": 1, "num": 1}, "path": "/home/robsen/Dropbox/Workdir/Repo/SuesseRache-HH-Taxi/taxi_start.mp4", "width": 1920, "has_audio": false, "video_bit_rate": 147692, "channel_layout": 4, "height": 1080, "display_ratio": {"den": 9, "num": 16}, "interlaced_frame": false, "duration": 15.0, "sample_rate": 0, "pixel_format": 0, "video_timebase": {"den": 12800, "num": 1}, "file_size": "276924", "top_field_first": true, "pixel_ratio": {"den": 1, "num": 1}, "acodec": "", "audio_stream_index": -1, "video_stream_index": 0, "channels": 0, "fps": {"den": 1, "num": 25}}, "channel_filter": {"Points": [{"co": {"Y": -1, "X": 1}, "interpolation": 2}]}, "file_id": "LGW3TZJV4Q", "time": {"Points": [{"co": {"Y": 1, "X": 1}, "interpolation": 2}]}}, "value": {"alpha": {"Points": [{"co": {"Y": 1, "X": 1}, "interpolation": 2}, {"handle_right": {"Y": 0, "X": 0.5}, "co": {"Y": 1, "X": 289}, "handle_left": {"Y": 1, "X": 0.5}, "handle_type": 0, "interpolation": 0}, {"handle_right": {"Y": 0, "X": 0.5}, "co": {"Y": 0, "X": 361}, "handle_left": {"Y": 1, "X": 0.5}, "handle_type": 0, "interpolation": 0}, {"handle_right": {"Y": 0, "X": 0.5}, "co": {"Y": 0, "X": 1}, "handle_left": {"Y": 1, "X": 0.5}, "handle_type": 0, "interpolation": 0}, {"handle_right": {"Y": 0, "X": 0.5}, "co": {"Y": 1, "X": 73}, "handle_left": {"Y": 1, "X": 0.5}, "handle_type": 0, "interpolation": 0}]}, "rotation": {"Points": [{"co": {"Y": 0, "X": 1}, "interpolation": 2}]}, "scale_y": {"Points": [{"co": {"Y": 1, "X": 1}, "interpolation": 2}]}, "crop_y": {"Points": [{"co": {"Y": 0, "X": 1}, "interpolation": 2}]}, "crop_width": {"Points": [{"co": {"Y": -1, "X": 1}, "interpolation": 2}]}, "end": 15, "perspective_c3_x": {"Points": [{"co": {"Y": -1, "X": 1}, "interpolation": 2}]}, "position": 8.8, "id": "0AEDFYGQ7J", "wave_color": {"green": {"Points": [{"handle_right": {"Y": 0, "X": 0.5}, "co": {"Y": 123, "X": 1}, "handle_left": {"Y": 1, "X": 0.5}, "handle_type": 0, "interpolation": 0}]}, "blue": {"Points": [{"handle_right": {"Y": 0, "X": 0.5}, "co": {"Y": 255, "X": 1}, "handle_left": {"Y": 1, "X": 0.5}, "handle_type": 0, "interpolation": 0}]}, "alpha": {"Points": [{"handle_right": {"Y": 0, "X": 0.5}, "co": {"Y": 255, "X": 1}, "handle_left": {"Y": 1, "X": 0.5}, "handle_type": 0, "interpolation": 0}]}, "red": {"Points": [{"handle_right": {"Y": 0, "X": 0.5}, "co": {"Y": 0, "X": 1}, "handle_left": {"Y": 1, "X": 0.5}, "handle_type": 0, "interpolation": 0}]}}, "has_video": {"Points": [{"co": {"Y": -1, "X": 1}, "interpolation": 2}]}, "has_audio": {"Points": [{"co": {"Y": -1, "X": 1}, "interpolation": 2}]}, "effects": [], "location_x": {"Points": [{"co": {"Y": 0, "X": 1}, "interpolation": 2}]}, "waveform": false, "title": "taxi_start.mp4", "image": "/home/robsen/.openshot_qt/thumbnail/LGW3TZJV4Q.png", "gravity": 4, "scale_x": {"Points": [{"co": {"Y": 1, "X": 1}, "interpolation": 2}]}, "perspective_c1_y": {"Points": [{"co": {"Y": -1, "X": 1}, "interpolation": 2}]}, "crop_height": {"Points": [{"co": {"Y": -1, "X": 1}, "interpolation": 2}]}, "crop_x": {"Points": [{"co": {"Y": 0, "X": 1}, "interpolation": 2}]}, "start": 0, "scale": 1, "shear_y": {"Points": [{"co": {"Y": 0, "X": 1}, "interpolation": 2}]}, "display": 0, "volume": {"Points": [{"co": {"Y": 1, "X": 1}, "interpolation": 2}]}, "channel_mapping": {"Points": [{"co": {"Y": -1, "X": 1}, "interpolation": 2}]}, "anchor": 0, "duration": 15.0, "perspective_c3_y": {"Points": [{"co": {"Y": -1, "X": 1}, "interpolation": 2}]}, "shear_x": {"Points": [{"co": {"Y": 0, "X": 1}, "interpolation": 2}]}, "perspective_c4_x": {"Points": [{"co": {"Y": -1, "X": 1}, "interpolation": 2}]}, "location_y": {"Points": [{"co": {"Y": 0, "X": 1}, "interpolation": 2}]}, "perspective_c2_x": {"Points": [{"co": {"Y": -1, "X": 1}, "interpolation": 2}]}, "layer": 0, "perspective_c2_y": {"Points": [{"co": {"Y": -1, "X": 1}, "interpolation": 2}]}, "perspective_c1_x": {"Points": [{"co": {"Y": -1, "X": 1}, "interpolation": 2}]}, "perspective_c4_y": {"Points": [{"co": {"Y": -1, "X": 1}, "interpolation": 2}]}, "channel_filter": {"Points": [{"co": {"Y": -1, "X": 1}, "interpolation": 2}]}, "time": {"Points": [{"co": {"Y": 1, "X": 1}, "interpolation": 2}]}, "file_id": "LGW3TZJV4Q"}, "key": ["clips", {"id": "0AEDFYGQ7J"}], "partial": false, "type": "update"}, {"old_values": {"alpha": {"Points": [{"co": {"Y": 1, "X": 1}, "interpolation": 2}]}, "rotation": {"Points": [{"co": {"Y": 0, "X": 1}, "interpolation": 2}]}, "scale_y": {"Points": [{"co": {"Y": 1, "X": 1}, "interpolation": 2}]}, "crop_y": {"Points": [{"co": {"Y": 0, "X": 1}, "interpolation": 2}]}, "perspective_c3_x": {"Points": [{"co": {"Y": -1, "X": 1}, "interpolation": 2}]}, "end": 15, "crop_width": {"Points": [{"co": {"Y": -1, "X": 1}, "interpolation": 2}]}, "position": 53.075, "id": "PJWPMFXKV3", "wave_color": {"green": {"Points": [{"handle_right": {"Y": 0, "X": 0.5}, "co": {"Y": 123, "X": 1}, "handle_left": {"Y": 1, "X": 0.5}, "handle_type": 0, "interpolation": 0}]}, "blue": {"Points": [{"handle_right": {"Y": 0, "X": 0.5}, "co": {"Y": 255, "X": 1}, "handle_left": {"Y": 1, "X": 0.5}, "handle_type": 0, "interpolation": 0}]}, "alpha": {"Points": [{"handle_right": {"Y": 0, "X": 0.5}, "co": {"Y": 255, "X": 1}, "handle_left": {"Y": 1, "X": 0.5}, "handle_type": 0, "interpolation": 0}]}, "red": {"Points": [{"handle_right": {"Y": 0, "X": 0.5}, "co": {"Y": 0, "X": 1}, "handle_left": {"Y": 1, "X": 0.5}, "handle_type": 0, "interpolation": 0}]}}, "has_video": {"Points": [{"co": {"Y": -1, "X": 1}, "interpolation": 2}]}, "has_audio": {"Points": [{"co": {"Y": -1, "X": 1}, "interpolation": 2}]}, "effects": [], "location_x": {"Points": [{"co": {"Y": 0, "X": 1}, "interpolation": 2}]}, "waveform": false, "title": "arrow.mp4", "image": "/home/robsen/.openshot_qt/thumbnail/X22V56NF57.png", "gravity": 4, "perspective_c2_x": {"Points": [{"co": {"Y": -1, "X": 1}, "interpolation": 2}]}, "perspective_c1_y": {"Points": [{"co": {"Y": -1, "X": 1}, "interpolation": 2}]}, "crop_height": {"Points": [{"co": {"Y": -1, "X": 1}, "interpolation": 2}]}, "crop_x": {"Points": [{"co": {"Y": 0, "X": 1}, "interpolation": 2}]}, "start": 0, "scale": 1, "shear_y": {"Points": [{"co": {"Y": 0, "X": 1}, "interpolation": 2}]}, "display": 0, "volume": {"Points": [{"co": {"Y": 1, "X": 1}, "interpolation": 2}]}, "channel_mapping": {"Points": [{"co": {"Y": -1, "X": 1}, "interpolation": 2}]}, "anchor": 0, "duration": 15.0, "perspective_c3_y": {"Points": [{"co": {"Y": -1, "X": 1}, "interpolation": 2}]}, "shear_x": {"Points": [{"co": {"Y": 0, "X": 1}, "interpolation": 2}]}, "perspective_c4_x": {"Points": [{"co": {"Y": -1, "X": 1}, "interpolation": 2}]}, "location_y": {"Points": [{"co": {"Y": 0, "X": 1}, "interpolation": 2}]}, "scale_x": {"Points": [{"co": {"Y": 1, "X": 1}, "interpolation": 2}]}, "layer": 2, "perspective_c2_y": {"Points": [{"co": {"Y": -1, "X": 1}, "interpolation": 2}]}, "perspective_c1_x": {"Points": [{"co": {"Y": -1, "X": 1}, "interpolation": 2}]}, "perspective_c4_y": {"Points": [{"co": {"Y": -1, "X": 1}, "interpolation": 2}]}, "reader": {"audio_bit_rate": 0, "has_single_image": false, "vcodec": "h264", "has_video": true, "type": "FFmpegReader", "video_length": "375", "audio_timebase": {"den": 1, "num": 1}, "path": "/home/robsen/Dropbox/Workdir/Repo/SuesseRache-HH-Taxi/arrow.mp4", "width": 1920, "has_audio": false, "video_bit_rate": 83079, "channel_layout": 4, "height": 1080, "display_ratio": {"den": 9, "num": 16}, "interlaced_frame": false, "duration": 15.0, "sample_rate": 0, "pixel_format": 0, "video_timebase": {"den": 12800, "num": 1}, "file_size": "155774", "top_field_first": true, "pixel_ratio": {"den": 1, "num": 1}, "acodec": "", "audio_stream_index": -1, "video_stream_index": 0, "channels": 0, "fps": {"den": 1, "num": 25}}, "channel_filter": {"Points": [{"co": {"Y": -1, "X": 1}, "interpolation": 2}]}, "file_id": "X22V56NF57", "time": {"Points": [{"co": {"Y": 1, "X": 1}, "interpolation": 2}]}}, "value": {"alpha": {"Points": [{"co": {"Y": 1, "X": 1}, "interpolation": 2}, {"handle_right": {"Y": 0, "X": 0.5}, "co": {"Y": 0, "X": 1}, "handle_left": {"Y": 1, "X": 0.5}, "handle_type": 0, "interpolation": 0}, {"handle_right": {"Y": 0, "X": 0.5}, "co": {"Y": 1, "X": 73}, "handle_left": {"Y": 1, "X": 0.5}, "handle_type": 0, "interpolation": 0}]}, "rotation": {"Points": [{"co": {"Y": 0, "X": 1}, "interpolation": 2}]}, "scale_y": {"Points": [{"co": {"Y": 1, "X": 1}, "interpolation": 2}]}, "crop_y": {"Points": [{"co": {"Y": 0, "X": 1}, "interpolation": 2}]}, "crop_width": {"Points": [{"co": {"Y": -1, "X": 1}, "interpolation": 2}]}, "end": 15, "perspective_c3_x": {"Points": [{"co": {"Y": -1, "X": 1}, "interpolation": 2}]}, "position": 53.075, "id": "PJWPMFXKV3", "wave_color": {"green": {"Points": [{"handle_right": {"Y": 0, "X": 0.5}, "co": {"Y": 123, "X": 1}, "handle_left": {"Y": 1, "X": 0.5}, "handle_type": 0, "interpolation": 0}]}, "blue": {"Points": [{"handle_right": {"Y": 0, "X": 0.5}, "co": {"Y": 255, "X": 1}, "handle_left": {"Y": 1, "X": 0.5}, "handle_type": 0, "interpolation": 0}]}, "alpha": {"Points": [{"handle_right": {"Y": 0, "X": 0.5}, "co": {"Y": 255, "X": 1}, "handle_left": {"Y": 1, "X": 0.5}, "handle_type": 0, "interpolation": 0}]}, "red": {"Points": [{"handle_right": {"Y": 0, "X": 0.5}, "co": {"Y": 0, "X": 1}, "handle_left": {"Y": 1, "X": 0.5}, "handle_type": 0, "interpolation": 0}]}}, "has_video": {"Points": [{"co": {"Y": -1, "X": 1}, "interpolation": 2}]}, "has_audio": {"Points": [{"co": {"Y": -1, "X": 1}, "interpolation": 2}]}, "effects": [], "location_x": {"Points": [{"co": {"Y": 0, "X": 1}, "interpolation": 2}]}, "waveform": false, "title": "arrow.mp4", "image": "/home/robsen/.openshot_qt/thumbnail/X22V56NF57.png", "gravity": 4, "scale_x": {"Points": [{"co": {"Y": 1, "X": 1}, "interpolation": 2}]}, "perspective_c1_y": {"Points": [{"co": {"Y": -1, "X": 1}, "interpolation": 2}]}, "crop_height": {"Points": [{"co": {"Y": -1, "X": 1}, "interpolation": 2}]}, "crop_x": {"Points": [{"co": {"Y": 0, "X": 1}, "interpolation": 2}]}, "start": 0, "scale": 1, "shear_y": {"Points": [{"co": {"Y": 0, "X": 1}, "interpolation": 2}]}, "display": 0, "volume": {"Points": [{"co": {"Y": 1, "X": 1}, "interpolation": 2}]}, "channel_mapping": {"Points": [{"co": {"Y": -1, "X": 1}, "interpolation": 2}]}, "anchor": 0, "duration": 15.0, "perspective_c3_y": {"Points": [{"co": {"Y": -1, "X": 1}, "interpolation": 2}]}, "shear_x": {"Points": [{"co": {"Y": 0, "X": 1}, "interpolation": 2}]}, "perspective_c4_x": {"Points": [{"co": {"Y": -1, "X": 1}, "interpolation": 2}]}, "location_y": {"Points": [{"co": {"Y": 0, "X": 1}, "interpolation": 2}]}, "perspective_c2_x": {"Points": [{"co": {"Y": -1, "X": 1}, "interpolation": 2}]}, "layer": 2, "perspective_c2_y": {"Points": [{"co": {"Y": -1, "X": 1}, "interpolation": 2}]}, "perspective_c1_x": {"Points": [{"co": {"Y": -1, "X": 1}, "interpolation": 2}]}, "perspective_c4_y": {"Points": [{"co": {"Y": -1, "X": 1}, "interpolation": 2}]}, "channel_filter": {"Points": [{"co": {"Y": -1, "X": 1}, "interpolation": 2}]}, "time": {"Points": [{"co": {"Y": 1, "X": 1}, "interpolation": 2}]}, "file_id": "X22V56NF57"}, "key": ["clips", {"id": "PJWPMFXKV3"}], "partial": false, "type": "update"}]}, "key": ["history"], "partial": false, "type": "update"}, {"old_values": {"alpha": {"Points": [{"co": {"Y": 1, "X": 1}, "interpolation": 2}, {"handle_right": {"Y": 0, "X": 0.5}, "co": {"Y": 1, "X": 289}, "handle_left": {"Y": 1, "X": 0.5}, "handle_type": 0, "interpolation": 0}, {"handle_right": {"Y": 0, "X": 0.5}, "co": {"Y": 0, "X": 361}, "handle_left": {"Y": 1, "X": 0.5}, "handle_type": 0, "interpolation": 0}, {"handle_right": {"Y": 0, "X": 0.5}, "co": {"Y": 0, "X": 1}, "handle_left": {"Y": 1, "X": 0.5}, "handle_type": 0, "interpolation": 0}, {"handle_right": {"Y": 0, "X": 0.5}, "co": {"Y": 1, "X": 73}, "handle_left": {"Y": 1, "X": 0.5}, "handle_type": 0, "interpolation": 0}]}, "rotation": {"Points": [{"co": {"Y": 0, "X": 1}, "interpolation": 2}]}, "scale_y": {"Points": [{"co": {"Y": 1, "X": 1}, "interpolation": 2}]}, "crop_y": {"Points": [{"co": {"Y": 0, "X": 1}, "interpolation": 2}]}, "perspective_c3_x": {"Points": [{"co": {"Y": -1, "X": 1}, "interpolation": 2}]}, "end": 15, "crop_width": {"Points": [{"co": {"Y": -1, "X": 1}, "interpolation": 2}]}, "position": 8.8, "id": "0AEDFYGQ7J", "wave_color": {"green": {"Points": [{"handle_right": {"Y": 0, "X": 0.5}, "co": {"Y": 123, "X": 1}, "handle_left": {"Y": 1, "X": 0.5}, "handle_type": 0, "interpolation": 0}]}, "blue": {"Points": [{"handle_right": {"Y": 0, "X": 0.5}, "co": {"Y": 255, "X": 1}, "handle_left": {"Y": 1, "X": 0.5}, "handle_type": 0, "interpolation": 0}]}, "alpha": {"Points": [{"handle_right": {"Y": 0, "X": 0.5}, "co": {"Y": 255, "X": 1}, "handle_left": {"Y": 1, "X": 0.5}, "handle_type": 0, "interpolation": 0}]}, "red": {"Points": [{"handle_right": {"Y": 0, "X": 0.5}, "co": {"Y": 0, "X": 1}, "handle_left": {"Y": 1, "X": 0.5}, "handle_type": 0, "interpolation": 0}]}}, "has_video": {"Points": [{"co": {"Y": -1, "X": 1}, "interpolation": 2}]}, "has_audio": {"Points": [{"co": {"Y": -1, "X": 1}, "interpolation": 2}]}, "effects": [], "location_x": {"Points": [{"co": {"Y": 0, "X": 1}, "interpolation": 2}]}, "waveform": false, "title": "taxi_start.mp4", "image": "/home/robsen/.openshot_qt/thumbnail/LGW3TZJV4Q.png", "gravity": 4, "scale_x": {"Points": [{"co": {"Y": 1, "X": 1}, "interpolation": 2}]}, "perspective_c1_y": {"Points": [{"co": {"Y": -1, "X": 1}, "interpolation": 2}]}, "crop_height": {"Points": [{"co": {"Y": -1, "X": 1}, "interpolation": 2}]}, "crop_x": {"Points": [{"co": {"Y": 0, "X": 1}, "interpolation": 2}]}, "start": 0, "scale": 1, "shear_y": {"Points": [{"co": {"Y": 0, "X": 1}, "interpolation": 2}]}, "display": 0, "volume": {"Points": [{"co": {"Y": 1, "X": 1}, "interpolation": 2}]}, "channel_mapping": {"Points": [{"co": {"Y": -1, "X": 1}, "interpolation": 2}]}, "anchor": 0, "duration": 15.0, "perspective_c3_y": {"Points": [{"co": {"Y": -1, "X": 1}, "interpolation": 2}]}, "shear_x": {"Points": [{"co": {"Y": 0, "X": 1}, "interpolation": 2}]}, "perspective_c4_x": {"Points": [{"co": {"Y": -1, "X": 1}, "interpolation": 2}]}, "location_y": {"Points": [{"co": {"Y": 0, "X": 1}, "interpolation": 2}]}, "perspective_c2_x": {"Points": [{"co": {"Y": -1, "X": 1}, "interpolation": 2}]}, "layer": 0, "perspective_c2_y": {"Points": [{"co": {"Y": -1, "X": 1}, "interpolation": 2}]}, "perspective_c1_x": {"Points": [{"co": {"Y": -1, "X": 1}, "interpolation": 2}]}, "perspective_c4_y": {"Points": [{"co": {"Y": -1, "X": 1}, "interpolation": 2}]}, "reader": {"audio_bit_rate": 0, "has_single_image": false, "has_video": true, "type": "FFmpegReader", "video_length": "375", "audio_timebase": {"den": 1, "num": 1}, "path": "/home/robsen/Dropbox/Workdir/Repo/SuesseRache-HH-Taxi/taxi_start.mp4", "width": 1920, "has_audio": false, "video_bit_rate": 147692, "channel_layout": 4, "height": 1080, "display_ratio": {"den": 9, "num": 16}, "interlaced_frame": false, "video_timebase": {"den": 12800, "num": 1}, "duration": 15.0, "sample_rate": 0, "pixel_format": 0, "fps": {"den": 1, "num": 25}, "file_size": "276924", "top_field_first": true, "pixel_ratio": {"den": 1, "num": 1}, "acodec": "", "audio_stream_index": -1, "video_stream_index": 0, "channels": 0, "vcodec": "h264"}, "channel_filter": {"Points": [{"co": {"Y": -1, "X": 1}, "interpolation": 2}]}, "file_id": "LGW3TZJV4Q", "time": {"Points": [{"co": {"Y": 1, "X": 1}, "interpolation": 2}]}}, "value": {"position": 0.0}, "key": ["clips", {"id": "0AEDFYGQ7J"}], "partial": false, "type": "update"}, {"old_values": {"alpha": {"Points": [{"co": {"Y": 1, "X": 1}, "interpolation": 2}]}, "rotation": {"Points": [{"co": {"Y": 0, "X": 1}, "interpolation": 2}]}, "scale_y": {"Points": [{"co": {"Y": 1, "X": 1}, "interpolation": 2}]}, "crop_y": {"Points": [{"co": {"Y": 0, "X": 1}, "interpolation": 2}]}, "perspective_c3_x": {"Points": [{"co": {"Y": -1, "X": 1}, "interpolation": 2}]}, "end": 31.317333221435547, "crop_width": {"Points": [{"co": {"Y": -1, "X": 1}, "interpolation": 2}]}, "position": 21.76, "id": "627XQDJ3EP", "wave_color": {"green": {"Points": [{"handle_right": {"Y": 0, "X": 0.5}, "co": {"Y": 123, "X": 1}, "handle_left": {"Y": 1, "X": 0.5}, "handle_type": 0, "interpolation": 0}]}, "blue": {"Points": [{"handle_right": {"Y": 0, "X": 0.5}, "co": {"Y": 255, "X": 1}, "handle_left": {"Y": 1, "X": 0.5}, "handle_type": 0, "interpolation": 0}]}, "alpha": {"Points": [{"handle_right": {"Y": 0, "X": 0.5}, "co": {"Y": 255, "X": 1}, "handle_left": {"Y": 1, "X": 0.5}, "handle_type": 0, "interpolation": 0}]}, "red": {"Points": [{"handle_right": {"Y": 0, "X": 0.5}, "co": {"Y": 0, "X": 1}, "handle_left": {"Y": 1, "X": 0.5}, "handle_type": 0, "interpolation": 0}]}}, "has_video": {"Points": [{"co": {"Y": -1, "X": 1}, "interpolation": 2}]}, "has_audio": {"Points": [{"co": {"Y": -1, "X": 1}, "interpolation": 2}]}, "effects": [], "location_x": {"Points": [{"co": {"Y": 0, "X": 1}, "interpolation": 2}]}, "waveform": false, "title": "TE_SR_Taxi.mp4", "image": "/home/robsen/.openshot_qt/thumbnail/Z3LOYBY1PL.png", "gravity": 4, "scale_x": {"Points": [{"co": {"Y": 1, "X": 1}, "interpolation": 2}]}, "perspective_c1_y": {"Points": [{"co": {"Y": -1, "X": 1}, "interpolation": 2}]}, "crop_height": {"Points": [{"co": {"Y": -1, "X": 1}, "interpolation": 2}]}, "crop_x": {"Points": [{"co": {"Y": 0, "X": 1}, "interpolation": 2}]}, "start": 0, "scale": 1, "shear_y": {"Points": [{"co": {"Y": 0, "X": 1}, "interpolation": 2}]}, "display": 0, "volume": {"Points": [{"co": {"Y": 1, "X": 1}, "interpolation": 2}]}, "channel_mapping": {"Points": [{"co": {"Y": -1, "X": 1}, "interpolation": 2}]}, "anchor": 0, "duration": 31.317333221435547, "perspective_c3_y": {"Points": [{"co": {"Y": -1, "X": 1}, "interpolation": 2}]}, "shear_x": {"Points": [{"co": {"Y": 0, "X": 1}, "interpolation": 2}]}, "perspective_c4_x": {"Points": [{"co": {"Y": -1, "X": 1}, "interpolation": 2}]}, "location_y": {"Points": [{"co": {"Y": 0, "X": 1}, "interpolation": 2}]}, "perspective_c2_x": {"Points": [{"co": {"Y": -1, "X": 1}, "interpolation": 2}]}, "layer": 1, "perspective_c2_y": {"Points": [{"co": {"Y": -1, "X": 1}, "interpolation": 2}]}, "perspective_c1_x": {"Points": [{"co": {"Y": -1, "X": 1}, "interpolation": 2}]}, "perspective_c4_y": {"Points": [{"co": {"Y": -1, "X": 1}, "interpolation": 2}]}, "reader": {"audio_bit_rate": 189375, "has_single_image": false, "has_video": true, "type": "FFmpegReader", "video_length": "937", "audio_timebase": {"den": 48000, "num": 1}, "path": "/home/robsen/Dropbox/Workdir/Repo/SuesseRache-HH-Taxi/TE_SR_Taxi.mp4", "width": 1920, "has_audio": true, "video_bit_rate": 32091692, "channel_layout": 3, "height": 1080, "display_ratio": {"den": 9, "num": 16}, "interlaced_frame": false, "video_timebase": {"den": 29970, "num": 1}, "duration": 31.317333221435547, "sample_rate": 48000, "pixel_format": 0, "fps": {"den": 100, "num": 2997}, "file_size": "125628279", "top_field_first": true, "pixel_ratio": {"den": 1, "num": 1}, "acodec": "aac", "audio_stream_index": 1, "video_stream_index": 0, "channels": 2, "vcodec": "h264"}, "channel_filter": {"Points": [{"co": {"Y": -1, "X": 1}, "interpolation": 2}]}, "file_id": "Z3LOYBY1PL", "time": {"Points": [{"co": {"Y": 1, "X": 1}, "interpolation": 2}]}}, "value": {"id": "627XQDJ3EP", "start": 0, "end": 31.317333221435547, "position": 12.96, "layer": 1, "image": "/home/robsen/.openshot_qt/thumbnail/Z3LOYBY1PL.png"}, "key": ["clips", {"id": "627XQDJ3EP"}], "partial": false, "type": "update"}, {"old_values": null, "value": {"id": "PJWPMFXKV3", "start": 0, "end": 15, "position": 41.395, "layer": 2, "image": "/home/robsen/.openshot_qt/thumbnail/X22V56NF57.png"}, "key": ["clips", {"id": "PJWPMFXKV3"}], "partial": false, "type": "update"}, {"old_values": null, "value": {"id": "PJWPMFXKV3", "start": 0, "end": 15, "position": 41.395, "layer": 2, "image": "/home/robsen/.openshot_qt/thumbnail/X22V56NF57.png"}, "key": ["clips", {"id": "PJWPMFXKV3"}], "partial": false, "type": "update"}, {"old_values": null, "value": {"id": "PJWPMFXKV3", "start": 0, "end": 15, "position": 41.395, "layer": 2, "image": "/home/robsen/.openshot_qt/thumbnail/X22V56NF57.png"}, "key": ["clips", {"id": "PJWPMFXKV3"}], "partial": false, "type": "update"}, {"old_values": null, "value": {"id": "PJWPMFXKV3", "start": 0, "end": 15, "position": 41.395, "layer": 2, "image": "/home/robsen/.openshot_qt/thumbnail/X22V56NF57.png"}, "key": ["clips", {"id": "PJWPMFXKV3"}], "partial": false, "type": "update"}, {"old_values": {"alpha": {"Points": [{"co": {"Y": 1, "X": 1}, "interpolation": 2}, {"handle_right": {"Y": 0, "X": 0.5}, "co": {"Y": 1, "X": 289}, "handle_left": {"Y": 1, "X": 0.5}, "handle_type": 0, "interpolation": 0}, {"handle_right": {"Y": 0, "X": 0.5}, "co": {"Y": 0, "X": 361}, "handle_left": {"Y": 1, "X": 0.5}, "handle_type": 0, "interpolation": 0}, {"handle_right": {"Y": 0, "X": 0.5}, "co": {"Y": 0, "X": 1}, "handle_left": {"Y": 1, "X": 0.5}, "handle_type": 0, "interpolation": 0}, {"handle_right": {"Y": 0, "X": 0.5}, "co": {"Y": 1, "X": 73}, "handle_left": {"Y": 1, "X": 0.5}, "handle_type": 0, "interpolation": 0}]}, "rotation": {"Points": [{"co": {"Y": 0, "X": 1}, "interpolation": 2}]}, "scale_y": {"Points": [{"co": {"Y": 1, "X": 1}, "interpolation": 2}]}, "crop_y": {"Points": [{"co": {"Y": 0, "X": 1}, "interpolation": 2}]}, "perspective_c3_x": {"Points": [{"co": {"Y": -1, "X": 1}, "interpolation": 2}]}, "end": 15, "crop_width": {"Points": [{"co": {"Y": -1, "X": 1}, "interpolation": 2}]}, "position": 0.0, "id": "0AEDFYGQ7J", "wave_color": {"green": {"Points": [{"handle_right": {"Y": 0, "X": 0.5}, "co": {"Y": 123, "X": 1}, "handle_left": {"Y": 1, "X": 0.5}, "handle_type": 0, "interpolation": 0}]}, "blue": {"Points": [{"handle_right": {"Y": 0, "X": 0.5}, "co": {"Y": 255, "X": 1}, "handle_left": {"Y": 1, "X": 0.5}, "handle_type": 0, "interpolation": 0}]}, "alpha": {"Points": [{"handle_right": {"Y": 0, "X": 0.5}, "co": {"Y": 255, "X": 1}, "handle_left": {"Y": 1, "X": 0.5}, "handle_type": 0, "interpolation": 0}]}, "red": {"Points": [{"handle_right": {"Y": 0, "X": 0.5}, "co": {"Y": 0, "X": 1}, "handle_left": {"Y": 1, "X": 0.5}, "handle_type": 0, "interpolation": 0}]}}, "has_video": {"Points": [{"co": {"Y": -1, "X": 1}, "interpolation": 2}]}, "has_audio": {"Points": [{"co": {"Y": -1, "X": 1}, "interpolation": 2}]}, "effects": [], "location_x": {"Points": [{"co": {"Y": 0, "X": 1}, "interpolation": 2}]}, "waveform": false, "title": "taxi_start.mp4", "image": "/home/robsen/.openshot_qt/thumbnail/LGW3TZJV4Q.png", "gravity": 4, "scale_x": {"Points": [{"co": {"Y": 1, "X": 1}, "interpolation": 2}]}, "perspective_c1_y": {"Points": [{"co": {"Y": -1, "X": 1}, "interpolation": 2}]}, "crop_height": {"Points": [{"co": {"Y": -1, "X": 1}, "interpolation": 2}]}, "crop_x": {"Points": [{"co": {"Y": 0, "X": 1}, "interpolation": 2}]}, "start": 0, "scale": 1, "shear_y": {"Points": [{"co": {"Y": 0, "X": 1}, "interpolation": 2}]}, "display": 0, "volume": {"Points": [{"co": {"Y": 1, "X": 1}, "interpolation": 2}]}, "channel_mapping": {"Points": [{"co": {"Y": -1, "X": 1}, "interpolation": 2}]}, "anchor": 0, "duration": 15.0, "perspective_c3_y": {"Points": [{"co": {"Y": -1, "X": 1}, "interpolation": 2}]}, "shear_x": {"Points": [{"co": {"Y": 0, "X": 1}, "interpolation": 2}]}, "perspective_c4_x": {"Points": [{"co": {"Y": -1, "X": 1}, "interpolation": 2}]}, "location_y": {"Points": [{"co": {"Y": 0, "X": 1}, "interpolation": 2}]}, "perspective_c2_x": {"Points": [{"co": {"Y": -1, "X": 1}, "interpolation": 2}]}, "layer": 0, "perspective_c2_y": {"Points": [{"co": {"Y": -1, "X": 1}, "interpolation": 2}]}, "perspective_c1_x": {"Points": [{"co": {"Y": -1, "X": 1}, "interpolation": 2}]}, "perspective_c4_y": {"Points": [{"co": {"Y": -1, "X": 1}, "interpolation": 2}]}, "reader": {"audio_bit_rate": 0, "has_single_image": false, "has_video": true, "type": "FFmpegReader", "video_length": "375", "audio_timebase": {"den": 1, "num": 1}, "path": "/home/robsen/Dropbox/Workdir/Repo/SuesseRache-HH-Taxi/taxi_start.mp4", "width": 1920, "has_audio": false, "video_bit_rate": 147692, "channel_layout": 4, "height": 1080, "display_ratio": {"den": 9, "num": 16}, "interlaced_frame": false, "video_timebase": {"den": 12800, "num": 1}, "duration": 15.0, "sample_rate": 0, "pixel_format": 0, "fps": {"den": 1, "num": 25}, "file_size": "276924", "top_field_first": true, "pixel_ratio": {"den": 1, "num": 1}, "acodec": "", "audio_stream_index": -1, "video_stream_index": 0, "channels": 0, "vcodec": "h264"}, "channel_filter": {"Points": [{"co": {"Y": -1, "X": 1}, "interpolation": 2}]}, "file_id": "LGW3TZJV4Q", "time": {"Points": [{"co": {"Y": 1, "X": 1}, "interpolation": 2}]}}, "value": {"end": 5.0}, "key": ["clips", {"id": "0AEDFYGQ7J"}], "partial": false, "type": "update"}, {"old_values": {"alpha": {"Points": [{"co": {"Y": 1, "X": 1}, "interpolation": 2}]}, "rotation": {"Points": [{"co": {"Y": 0, "X": 1}, "interpolation": 2}]}, "scale_y": {"Points": [{"co": {"Y": 1, "X": 1}, "interpolation": 2}]}, "crop_y": {"Points": [{"co": {"Y": 0, "X": 1}, "interpolation": 2}]}, "perspective_c3_x": {"Points": [{"co": {"Y": -1, "X": 1}, "interpolation": 2}]}, "end": 31.317333221435547, "crop_width": {"Points": [{"co": {"Y": -1, "X": 1}, "interpolation": 2}]}, "position": 12.96, "id": "627XQDJ3EP", "wave_color": {"green": {"Points": [{"handle_right": {"Y": 0, "X": 0.5}, "co": {"Y": 123, "X": 1}, "handle_left": {"Y": 1, "X": 0.5}, "handle_type": 0, "interpolation": 0}]}, "blue": {"Points": [{"handle_right": {"Y": 0, "X": 0.5}, "co": {"Y": 255, "X": 1}, "handle_left": {"Y": 1, "X": 0.5}, "handle_type": 0, "interpolation": 0}]}, "alpha": {"Points": [{"handle_right": {"Y": 0, "X": 0.5}, "co": {"Y": 255, "X": 1}, "handle_left": {"Y": 1, "X": 0.5}, "handle_type": 0, "interpolation": 0}]}, "red": {"Points": [{"handle_right": {"Y": 0, "X": 0.5}, "co": {"Y": 0, "X": 1}, "handle_left": {"Y": 1, "X": 0.5}, "handle_type": 0, "interpolation": 0}]}}, "has_video": {"Points": [{"co": {"Y": -1, "X": 1}, "interpolation": 2}]}, "has_audio": {"Points": [{"co": {"Y": -1, "X": 1}, "interpolation": 2}]}, "effects": [], "location_x": {"Points": [{"co": {"Y": 0, "X": 1}, "interpolation": 2}]}, "waveform": false, "title": "TE_SR_Taxi.mp4", "image": "/home/robsen/.openshot_qt/thumbnail/Z3LOYBY1PL.png", "gravity": 4, "scale_x": {"Points": [{"co": {"Y": 1, "X": 1}, "interpolation": 2}]}, "perspective_c1_y": {"Points": [{"co": {"Y": -1, "X": 1}, "interpolation": 2}]}, "crop_height": {"Points": [{"co": {"Y": -1, "X": 1}, "interpolation": 2}]}, "crop_x": {"Points": [{"co": {"Y": 0, "X": 1}, "interpolation": 2}]}, "start": 0, "scale": 1, "shear_y": {"Points": [{"co": {"Y": 0, "X": 1}, "interpolation": 2}]}, "display": 0, "volume": {"Points": [{"co": {"Y": 1, "X": 1}, "interpolation": 2}]}, "channel_mapping": {"Points": [{"co": {"Y": -1, "X": 1}, "interpolation": 2}]}, "anchor": 0, "duration": 31.317333221435547, "perspective_c3_y": {"Points": [{"co": {"Y": -1, "X": 1}, "interpolation": 2}]}, "shear_x": {"Points": [{"co": {"Y": 0, "X": 1}, "interpolation": 2}]}, "perspective_c4_x": {"Points": [{"co": {"Y": -1, "X": 1}, "interpolation": 2}]}, "location_y": {"Points": [{"co": {"Y": 0, "X": 1}, "interpolation": 2}]}, "perspective_c2_x": {"Points": [{"co": {"Y": -1, "X": 1}, "interpolation": 2}]}, "layer": 1, "perspective_c2_y": {"Points": [{"co": {"Y": -1, "X": 1}, "interpolation": 2}]}, "perspective_c1_x": {"Points": [{"co": {"Y": -1, "X": 1}, "interpolation": 2}]}, "perspective_c4_y": {"Points": [{"co": {"Y": -1, "X": 1}, "interpolation": 2}]}, "reader": {"audio_bit_rate": 189375, "has_single_image": false, "has_video": true, "type": "FFmpegReader", "video_length": "937", "audio_timebase": {"den": 48000, "num": 1}, "path": "/home/robsen/Dropbox/Workdir/Repo/SuesseRache-HH-Taxi/TE_SR_Taxi.mp4", "width": 1920, "has_audio": true, "video_bit_rate": 32091692, "channel_layout": 3, "height": 1080, "display_ratio": {"den": 9, "num": 16}, "interlaced_frame": false, "video_timebase": {"den": 29970, "num": 1}, "duration": 31.317333221435547, "sample_rate": 48000, "pixel_format": 0, "fps": {"den": 100, "num": 2997}, "file_size": "125628279", "top_field_first": true, "pixel_ratio": {"den": 1, "num": 1}, "acodec": "aac", "audio_stream_index": 1, "video_stream_index": 0, "channels": 2, "vcodec": "h264"}, "channel_filter": {"Points": [{"co": {"Y": -1, "X": 1}, "interpolation": 2}]}, "file_id": "Z3LOYBY1PL", "time": {"Points": [{"co": {"Y": 1, "X": 1}, "interpolation": 2}]}}, "value": {"id": "627XQDJ3EP", "start": 0, "end": 31.317333221435547, "position": 3.375, "layer": 1, "image": "/home/robsen/.openshot_qt/thumbnail/Z3LOYBY1PL.png"}, "key": ["clips", {"id": "627XQDJ3EP"}], "partial": false, "type": "update"}, {"old_values": {"alpha": {"Points": [{"co": {"Y": 1, "X": 1}, "interpolation": 2}]}, "rotation": {"Points": [{"co": {"Y": 0, "X": 1}, "interpolation": 2}]}, "scale_y": {"Points": [{"co": {"Y": 1, "X": 1}, "interpolation": 2}]}, "crop_y": {"Points": [{"co": {"Y": 0, "X": 1}, "interpolation": 2}]}, "perspective_c3_x": {"Points": [{"co": {"Y": -1, "X": 1}, "interpolation": 2}]}, "end": 31.317333221435547, "crop_width": {"Points": [{"co": {"Y": -1, "X": 1}, "interpolation": 2}]}, "position": 3.375, "id": "627XQDJ3EP", "wave_color": {"green": {"Points": [{"handle_right": {"Y": 0, "X": 0.5}, "co": {"Y": 123, "X": 1}, "handle_left": {"Y": 1, "X": 0.5}, "handle_type": 0, "interpolation": 0}]}, "blue": {"Points": [{"handle_right": {"Y": 0, "X": 0.5}, "co": {"Y": 255, "X": 1}, "handle_left": {"Y": 1, "X": 0.5}, "handle_type": 0, "interpolation": 0}]}, "alpha": {"Points": [{"handle_right": {"Y": 0, "X": 0.5}, "co": {"Y": 255, "X": 1}, "handle_left": {"Y": 1, "X": 0.5}, "handle_type": 0, "interpolation": 0}]}, "red": {"Points": [{"handle_right": {"Y": 0, "X": 0.5}, "co": {"Y": 0, "X": 1}, "handle_left": {"Y": 1, "X": 0.5}, "handle_type": 0, "interpolation": 0}]}}, "has_video": {"Points": [{"co": {"Y": -1, "X": 1}, "interpolation": 2}]}, "has_audio": {"Points": [{"co": {"Y": -1, "X": 1}, "interpolation": 2}]}, "effects": [], "location_x": {"Points": [{"co": {"Y": 0, "X": 1}, "interpolation": 2}]}, "waveform": false, "title": "TE_SR_Taxi.mp4", "image": "/home/robsen/.openshot_qt/thumbnail/Z3LOYBY1PL.png", "gravity": 4, "scale_x": {"Points": [{"co": {"Y": 1, "X": 1}, "interpolation": 2}]}, "perspective_c1_y": {"Points": [{"co": {"Y": -1, "X": 1}, "interpolation": 2}]}, "crop_height": {"Points": [{"co": {"Y": -1, "X": 1}, "interpolation": 2}]}, "crop_x": {"Points": [{"co": {"Y": 0, "X": 1}, "interpolation": 2}]}, "start": 0, "scale": 1, "shear_y": {"Points": [{"co": {"Y": 0, "X": 1}, "interpolation": 2}]}, "display": 0, "volume": {"Points": [{"co": {"Y": 1, "X": 1}, "interpolation": 2}]}, "channel_mapping": {"Points": [{"co": {"Y": -1, "X": 1}, "interpolation": 2}]}, "anchor": 0, "duration": 31.317333221435547, "perspective_c3_y": {"Points": [{"co": {"Y": -1, "X": 1}, "interpolation": 2}]}, "shear_x": {"Points": [{"co": {"Y": 0, "X": 1}, "interpolation": 2}]}, "perspective_c4_x": {"Points": [{"co": {"Y": -1, "X": 1}, "interpolation": 2}]}, "location_y": {"Points": [{"co": {"Y": 0, "X": 1}, "interpolation": 2}]}, "perspective_c2_x": {"Points": [{"co": {"Y": -1, "X": 1}, "interpolation": 2}]}, "layer": 1, "perspective_c2_y": {"Points": [{"co": {"Y": -1, "X": 1}, "interpolation": 2}]}, "perspective_c1_x": {"Points": [{"co": {"Y": -1, "X": 1}, "interpolation": 2}]}, "perspective_c4_y": {"Points": [{"co": {"Y": -1, "X": 1}, "interpolation": 2}]}, "reader": {"audio_bit_rate": 189375, "has_single_image": false, "has_video": true, "type": "FFmpegReader", "video_length": "937", "audio_timebase": {"den": 48000, "num": 1}, "path": "/home/robsen/Dropbox/Workdir/Repo/SuesseRache-HH-Taxi/TE_SR_Taxi.mp4", "width": 1920, "has_audio": true, "video_bit_rate": 32091692, "channel_layout": 3, "height": 1080, "display_ratio": {"den": 9, "num": 16}, "interlaced_frame": false, "video_timebase": {"den": 29970, "num": 1}, "duration": 31.317333221435547, "sample_rate": 48000, "pixel_format": 0, "fps": {"den": 100, "num": 2997}, "file_size": "125628279", "top_field_first": true, "pixel_ratio": {"den": 1, "num": 1}, "acodec": "aac", "audio_stream_index": 1, "video_stream_index": 0, "channels": 2, "vcodec": "h264"}, "channel_filter": {"Points": [{"co": {"Y": -1, "X": 1}, "interpolation": 2}]}, "file_id": "Z3LOYBY1PL", "time": {"Points": [{"co": {"Y": 1, "X": 1}, "interpolation": 2}]}}, "value": {"id": "627XQDJ3EP", "start": 0, "end": 31.317333221435547, "position": 3.375, "layer": 1, "image": "/home/robsen/.openshot_qt/thumbnail/Z3LOYBY1PL.png"}, "key": ["clips", {"id": "627XQDJ3EP"}], "partial": false, "type": "update"}, {"old_values": null, "value": {"id": "PJWPMFXKV3", "start": 0, "end": 15, "position": 32.755, "layer": 2, "image": "/home/robsen/.openshot_qt/thumbnail/X22V56NF57.png"}, "key": ["clips", {"id": "PJWPMFXKV3"}], "partial": false, "type": "update"}, {"old_values": null, "value": {"id": "PJWPMFXKV3", "start": 0, "end": 15, "position": 32.755, "layer": 2, "image": "/home/robsen/.openshot_qt/thumbnail/X22V56NF57.png"}, "key": ["clips", {"id": "PJWPMFXKV3"}], "partial": false, "type": "update"}, {"old_values": null, "value": {"id": "PJWPMFXKV3", "start": 0, "end": 15, "position": 32.755, "layer": 2, "image": "/home/robsen/.openshot_qt/thumbnail/X22V56NF57.png"}, "key": ["clips", {"id": "PJWPMFXKV3"}], "partial": false, "type": "update"}, {"old_values": {"alpha": {"Points": [{"co": {"Y": 1, "X": 1}, "interpolation": 2}, {"handle_right": {"Y": 0, "X": 0.5}, "co": {"Y": 0, "X": 1}, "handle_left": {"Y": 1, "X": 0.5}, "handle_type": 0, "interpolation": 0}, {"handle_right": {"Y": 0, "X": 0.5}, "co": {"Y": 1, "X": 73}, "handle_left": {"Y": 1, "X": 0.5}, "handle_type": 0, "interpolation": 0}]}, "rotation": {"Points": [{"co": {"Y": 0, "X": 1}, "interpolation": 2}]}, "scale_y": {"Points": [{"co": {"Y": 1, "X": 1}, "interpolation": 2}]}, "crop_y": {"Points": [{"co": {"Y": 0, "X": 1}, "interpolation": 2}]}, "perspective_c3_x": {"Points": [{"co": {"Y": -1, "X": 1}, "interpolation": 2}]}, "end": 15, "crop_width": {"Points": [{"co": {"Y": -1, "X": 1}, "interpolation": 2}]}, "position": 32.755, "id": "PJWPMFXKV3", "wave_color": {"green": {"Points": [{"handle_right": {"Y": 0, "X": 0.5}, "co": {"Y": 123, "X": 1}, "handle_left": {"Y": 1, "X": 0.5}, "handle_type": 0, "interpolation": 0}]}, "blue": {"Points": [{"handle_right": {"Y": 0, "X": 0.5}, "co": {"Y": 255, "X": 1}, "handle_left": {"Y": 1, "X": 0.5}, "handle_type": 0, "interpolation": 0}]}, "alpha": {"Points": [{"handle_right": {"Y": 0, "X": 0.5}, "co": {"Y": 255, "X": 1}, "handle_left": {"Y": 1, "X": 0.5}, "handle_type": 0, "interpolation": 0}]}, "red": {"Points": [{"handle_right": {"Y": 0, "X": 0.5}, "co": {"Y": 0, "X": 1}, "handle_left": {"Y": 1, "X": 0.5}, "handle_type": 0, "interpolation": 0}]}}, "has_video": {"Points": [{"co": {"Y": -1, "X": 1}, "interpolation": 2}]}, "has_audio": {"Points": [{"co": {"Y": -1, "X": 1}, "interpolation": 2}]}, "effects": [], "location_x": {"Points": [{"co": {"Y": 0, "X": 1}, "interpolation": 2}]}, "waveform": false, "title": "arrow.mp4", "image": "/home/robsen/.openshot_qt/thumbnail/X22V56NF57.png", "gravity": 4, "scale_x": {"Points": [{"co": {"Y": 1, "X": 1}, "interpolation": 2}]}, "perspective_c1_y": {"Points": [{"co": {"Y": -1, "X": 1}, "interpolation": 2}]}, "crop_height": {"Points": [{"co": {"Y": -1, "X": 1}, "interpolation": 2}]}, "crop_x": {"Points": [{"co": {"Y": 0, "X": 1}, "interpolation": 2}]}, "start": 0, "scale": 1, "shear_y": {"Points": [{"co": {"Y": 0, "X": 1}, "interpolation": 2}]}, "display": 0, "volume": {"Points": [{"co": {"Y": 1, "X": 1}, "interpolation": 2}]}, "channel_mapping": {"Points": [{"co": {"Y": -1, "X": 1}, "interpolation": 2}]}, "anchor": 0, "duration": 15.0, "perspective_c3_y": {"Points": [{"co": {"Y": -1, "X": 1}, "interpolation": 2}]}, "shear_x": {"Points": [{"co": {"Y": 0, "X": 1}, "interpolation": 2}]}, "perspective_c4_x": {"Points": [{"co": {"Y": -1, "X": 1}, "interpolation": 2}]}, "location_y": {"Points": [{"co": {"Y": 0, "X": 1}, "interpolation": 2}]}, "perspective_c2_x": {"Points": [{"co": {"Y": -1, "X": 1}, "interpolation": 2}]}, "layer": 2, "perspective_c2_y": {"Points": [{"co": {"Y": -1, "X": 1}, "interpolation": 2}]}, "perspective_c1_x": {"Points": [{"co": {"Y": -1, "X": 1}, "interpolation": 2}]}, "perspective_c4_y": {"Points": [{"co": {"Y": -1, "X": 1}, "interpolation": 2}]}, "reader": {"audio_bit_rate": 0, "has_single_image": false, "has_video": true, "type": "FFmpegReader", "video_length": "375", "audio_timebase": {"den": 1, "num": 1}, "path": "/home/robsen/Dropbox/Workdir/Repo/SuesseRache-HH-Taxi/arrow.mp4", "width": 1920, "has_audio": false, "video_bit_rate": 83079, "channel_layout": 4, "height": 1080, "display_ratio": {"den": 9, "num": 16}, "interlaced_frame": false, "video_timebase": {"den": 12800, "num": 1}, "duration": 15.0, "sample_rate": 0, "pixel_format": 0, "fps": {"den": 1, "num": 25}, "file_size": "155774", "top_field_first": true, "pixel_ratio": {"den": 1, "num": 1}, "acodec": "", "audio_stream_index": -1, "video_stream_index": 0, "channels": 0, "vcodec": "h264"}, "channel_filter": {"Points": [{"co": {"Y": -1, "X": 1}, "interpolation": 2}]}, "file_id": "X22V56NF57", "time": {"Points": [{"co": {"Y": 1, "X": 1}, "interpolation": 2}]}}, "value": {"end": 5.0}, "key": ["clips", {"id": "PJWPMFXKV3"}], "partial": false, "type": "update"}, {"old_values": {"alpha": {"Points": [{"co": {"Y": 1, "X": 1}, "interpolation": 2}, {"handle_right": {"Y": 0, "X": 0.5}, "co": {"Y": 0, "X": 1}, "handle_left": {"Y": 1, "X": 0.5}, "handle_type": 0, "interpolation": 0}, {"handle_right": {"Y": 0, "X": 0.5}, "co": {"Y": 1, "X": 73}, "handle_left": {"Y": 1, "X": 0.5}, "handle_type": 0, "interpolation": 0}]}, "rotation": {"Points": [{"co": {"Y": 0, "X": 1}, "interpolation": 2}]}, "scale_y": {"Points": [{"co": {"Y": 1, "X": 1}, "interpolation": 2}]}, "crop_y": {"Points": [{"co": {"Y": 0, "X": 1}, "interpolation": 2}]}, "perspective_c3_x": {"Points": [{"co": {"Y": -1, "X": 1}, "interpolation": 2}]}, "end": 5.0, "crop_width": {"Points": [{"co": {"Y": -1, "X": 1}, "interpolation": 2}]}, "position": 32.755, "id": "PJWPMFXKV3", "wave_color": {"green": {"Points": [{"handle_right": {"Y": 0, "X": 0.5}, "co": {"Y": 123, "X": 1}, "handle_left": {"Y": 1, "X": 0.5}, "handle_type": 0, "interpolation": 0}]}, "blue": {"Points": [{"handle_right": {"Y": 0, "X": 0.5}, "co": {"Y": 255, "X": 1}, "handle_left": {"Y": 1, "X": 0.5}, "handle_type": 0, "interpolation": 0}]}, "alpha": {"Points": [{"handle_right": {"Y": 0, "X": 0.5}, "co": {"Y": 255, "X": 1}, "handle_left": {"Y": 1, "X": 0.5}, "handle_type": 0, "interpolation": 0}]}, "red": {"Points": [{"handle_right": {"Y": 0, "X": 0.5}, "co": {"Y": 0, "X": 1}, "handle_left": {"Y": 1, "X": 0.5}, "handle_type": 0, "interpolation": 0}]}}, "has_video": {"Points": [{"co": {"Y": -1, "X": 1}, "interpolation": 2}]}, "has_audio": {"Points": [{"co": {"Y": -1, "X": 1}, "interpolation": 2}]}, "effects": [], "location_x": {"Points": [{"co": {"Y": 0, "X": 1}, "interpolation": 2}]}, "waveform": false, "title": "arrow.mp4", "image": "/home/robsen/.openshot_qt/thumbnail/X22V56NF57.png", "gravity": 4, "scale_x": {"Points": [{"co": {"Y": 1, "X": 1}, "interpolation": 2}]}, "perspective_c1_y": {"Points": [{"co": {"Y": -1, "X": 1}, "interpolation": 2}]}, "crop_height": {"Points": [{"co": {"Y": -1, "X": 1}, "interpolation": 2}]}, "crop_x": {"Points": [{"co": {"Y": 0, "X": 1}, "interpolation": 2}]}, "start": 0, "scale": 1, "shear_y": {"Points": [{"co": {"Y": 0, "X": 1}, "interpolation": 2}]}, "display": 0, "volume": {"Points": [{"co": {"Y": 1, "X": 1}, "interpolation": 2}]}, "channel_mapping": {"Points": [{"co": {"Y": -1, "X": 1}, "interpolation": 2}]}, "anchor": 0, "duration": 15.0, "perspective_c3_y": {"Points": [{"co": {"Y": -1, "X": 1}, "interpolation": 2}]}, "shear_x": {"Points": [{"co": {"Y": 0, "X": 1}, "interpolation": 2}]}, "perspective_c4_x": {"Points": [{"co": {"Y": -1, "X": 1}, "interpolation": 2}]}, "location_y": {"Points": [{"co": {"Y": 0, "X": 1}, "interpolation": 2}]}, "perspective_c2_x": {"Points": [{"co": {"Y": -1, "X": 1}, "interpolation": 2}]}, "layer": 2, "perspective_c2_y": {"Points": [{"co": {"Y": -1, "X": 1}, "interpolation": 2}]}, "perspective_c1_x": {"Points": [{"co": {"Y": -1, "X": 1}, "interpolation": 2}]}, "perspective_c4_y": {"Points": [{"co": {"Y": -1, "X": 1}, "interpolation": 2}]}, "reader": {"audio_bit_rate": 0, "has_single_image": false, "has_video": true, "type": "FFmpegReader", "video_length": "375", "audio_timebase": {"den": 1, "num": 1}, "path": "/home/robsen/Dropbox/Workdir/Repo/SuesseRache-HH-Taxi/arrow.mp4", "width": 1920, "has_audio": false, "video_bit_rate": 83079, "channel_layout": 4, "height": 1080, "display_ratio": {"den": 9, "num": 16}, "interlaced_frame": false, "video_timebase": {"den": 12800, "num": 1}, "duration": 15.0, "sample_rate": 0, "pixel_format": 0, "fps": {"den": 1, "num": 25}, "file_size": "155774", "top_field_first": true, "pixel_ratio": {"den": 1, "num": 1}, "acodec": "", "audio_stream_index": -1, "video_stream_index": 0, "channels": 0, "vcodec": "h264"}, "channel_filter": {"Points": [{"co": {"Y": -1, "X": 1}, "interpolation": 2}]}, "file_id": "X22V56NF57", "time": {"Points": [{"co": {"Y": 1, "X": 1}, "interpolation": 2}]}}, "value": {"id": "PJWPMFXKV3", "start": 0, "end": 5, "position": 29.89, "layer": 2, "image": "/home/robsen/.openshot_qt/thumbnail/X22V56NF57.png"}, "key": ["clips", {"id": "PJWPMFXKV3"}], "partial": false, "type": "update"}]}, "old_values": null, "partial": false, "key": ["history"], "type": "update"}, {"value": {"redo": [], "undo": [{"old_values": null, "value": {"redo": [], "undo": [{"old_values": [{"number": 0, "label": "Spur 1", "id": "UBOPYJIV1S", "y": 0}, {"number": 1, "label": "Spur 2", "id": "SHY16ICR2M", "y": 0}], "value": {"number": 2, "y": 0, "label": "", "id": "E44ZNJSI3Z", "lock": false}, "key": ["layers"], "partial": false, "type": "insert"}, {"old_values": [], "value": {"audio_bit_rate": 0, "has_single_image": false, "media_type": "video", "id": "LGW3TZJV4Q", "type": "FFmpegReader", "has_video": true, "video_length": "375", "audio_timebase": {"den": 1, "num": 1}, "path": "/home/robsen/Dropbox/Workdir/Repo/SuesseRache-HH-Taxi/taxi_start.mp4", "width": 1920, "has_audio": false, "video_bit_rate": 147692, "channel_layout": 4, "height": 1080, "vcodec": "h264", "display_ratio": {"den": 9, "num": 16}, "interlaced_frame": false, "duration": 15, "sample_rate": 0, "pixel_format": 0, "video_timebase": {"den": 12800, "num": 1}, "file_size": "276924", "top_field_first": true, "pixel_ratio": {"den": 1, "num": 1}, "acodec": "", "audio_stream_index": -1, "video_stream_index": 0, "channels": 0, "fps": {"den": 1, "num": 25}}, "key": ["files"], "partial": false, "type": "insert"}, {"old_values": [{"audio_bit_rate": 0, "has_single_image": false, "media_type": "video", "id": "LGW3TZJV4Q", "type": "FFmpegReader", "has_video": true, "video_length": "375", "audio_timebase": {"den": 1, "num": 1}, "path": "/home/robsen/Dropbox/Workdir/Repo/SuesseRache-HH-Taxi/taxi_start.mp4", "width": 1920, "has_audio": false, "video_bit_rate": 147692, "channel_layout": 4, "height": 1080, "vcodec": "h264", "display_ratio": {"den": 9, "num": 16}, "interlaced_frame": false, "duration": 15, "sample_rate": 0, "pixel_format": 0, "video_timebase": {"den": 12800, "num": 1}, "file_size": "276924", "top_field_first": true, "pixel_ratio": {"den": 1, "num": 1}, "acodec": "", "audio_stream_index": -1, "video_stream_index": 0, "channels": 0, "fps": {"den": 1, "num": 25}}], "value": {"audio_bit_rate": 189375, "has_single_image": false, "media_type": "video", "id": "Z3LOYBY1PL", "type": "FFmpegReader", "has_video": true, "video_length": "937", "audio_timebase": {"den": 48000, "num": 1}, "path": "/home/robsen/Dropbox/Workdir/Repo/SuesseRache-HH-Taxi/TE_SR_Taxi.mp4", "width": 1920, "has_audio": true, "video_bit_rate": 32091692, "channel_layout": 3, "height": 1080, "vcodec": "h264", "display_ratio": {"den": 9, "num": 16}, "interlaced_frame": false, "duration": 31.317333221435547, "sample_rate": 48000, "pixel_format": 0, "video_timebase": {"den": 29970, "num": 1}, "file_size": "125628279", "top_field_first": true, "pixel_ratio": {"den": 1, "num": 1}, "acodec": "aac", "audio_stream_index": 1, "video_stream_index": 0, "channels": 2, "fps": {"den": 100, "num": 2997}}, "key": ["files"], "partial": false, "type": "insert"}, {"old_values": [{"audio_bit_rate": 0, "has_single_image": false, "media_type": "video", "id": "LGW3TZJV4Q", "type": "FFmpegReader", "has_video": true, "video_length": "375", "audio_timebase": {"den": 1, "num": 1}, "path": "/home/robsen/Dropbox/Workdir/Repo/SuesseRache-HH-Taxi/taxi_start.mp4", "width": 1920, "has_audio": false, "video_bit_rate": 147692, "channel_layout": 4, "height": 1080, "vcodec": "h264", "display_ratio": {"den": 9, "num": 16}, "interlaced_frame": false, "duration": 15, "sample_rate": 0, "pixel_format": 0, "video_timebase": {"den": 12800, "num": 1}, "file_size": "276924", "top_field_first": true, "pixel_ratio": {"den": 1, "num": 1}, "acodec": "", "audio_stream_index": -1, "video_stream_index": 0, "channels": 0, "fps": {"den": 1, "num": 25}}, {"audio_bit_rate": 189375, "has_single_image": false, "media_type": "video", "id": "Z3LOYBY1PL", "type": "FFmpegReader", "has_video": true, "video_length": "937", "audio_timebase": {"den": 48000, "num": 1}, "path": "/home/robsen/Dropbox/Workdir/Repo/SuesseRache-HH-Taxi/TE_SR_Taxi.mp4", "width": 1920, "has_audio": true, "video_bit_rate": 32091692, "channel_layout": 3, "height": 1080, "vcodec": "h264", "display_ratio": {"den": 9, "num": 16}, "interlaced_frame": false, "duration": 31.317333221435547, "sample_rate": 48000, "pixel_format": 0, "video_timebase": {"den": 29970, "num": 1}, "file_size": "125628279", "top_field_first": true, "pixel_ratio": {"den": 1, "num": 1}, "acodec": "aac", "audio_stream_index": 1, "video_stream_index": 0, "channels": 2, "fps": {"den": 100, "num": 2997}}], "value": {"audio_bit_rate": 0, "has_single_image": false, "media_type": "video", "id": "X22V56NF57", "type": "FFmpegReader", "has_video": true, "video_length": "375", "audio_timebase": {"den": 1, "num": 1}, "path": "/home/robsen/Dropbox/Workdir/Repo/SuesseRache-HH-Taxi/arrow.mp4", "width": 1920, "has_audio": false, "video_bit_rate": 83079, "channel_layout": 4, "height": 1080, "vcodec": "h264", "display_ratio": {"den": 9, "num": 16}, "interlaced_frame": false, "duration": 15, "sample_rate": 0, "pixel_format": 0, "video_timebase": {"den": 12800, "num": 1}, "file_size": "155774", "top_field_first": true, "pixel_ratio": {"den": 1, "num": 1}, "acodec": "", "audio_stream_index": -1, "video_stream_index": 0, "channels": 0, "fps": {"den": 1, "num": 25}}, "key": ["files"], "partial": false, "type": "insert"}, {"old_values": [], "value": {"alpha": {"Points": [{"co": {"Y": 1, "X": 1}, "interpolation": 2}, {"handle_right": {"Y": 0, "X": 0.5}, "co": {"Y": 1, "X": 289}, "handle_left": {"Y": 1, "X": 0.5}, "handle_type": 0, "interpolation": 0}, {"handle_right": {"Y": 0, "X": 0.5}, "co": {"Y": 0, "X": 361}, "handle_left": {"Y": 1, "X": 0.5}, "handle_type": 0, "interpolation": 0}, {"handle_right": {"Y": 0, "X": 0.5}, "co": {"Y": 0, "X": 1}, "handle_left": {"Y": 1, "X": 0.5}, "handle_type": 0, "interpolation": 0}, {"handle_right": {"Y": 0, "X": 0.5}, "co": {"Y": 1, "X": 73}, "handle_left": {"Y": 1, "X": 0.5}, "handle_type": 0, "interpolation": 0}]}, "rotation": {"Points": [{"co": {"Y": 0, "X": 1}, "interpolation": 2}]}, "scale_y": {"Points": [{"co": {"Y": 1, "X": 1}, "interpolation": 2}]}, "crop_y": {"Points": [{"co": {"Y": 0, "X": 1}, "interpolation": 2}]}, "perspective_c3_x": {"Points": [{"co": {"Y": -1, "X": 1}, "interpolation": 2}]}, "end": 15, "crop_width": {"Points": [{"co": {"Y": -1, "X": 1}, "interpolation": 2}]}, "position": 8.8, "id": "0AEDFYGQ7J", "wave_color": {"green": {"Points": [{"handle_right": {"Y": 0, "X": 0.5}, "co": {"Y": 123, "X": 1}, "handle_left": {"Y": 1, "X": 0.5}, "handle_type": 0, "interpolation": 0}]}, "blue": {"Points": [{"handle_right": {"Y": 0, "X": 0.5}, "co": {"Y": 255, "X": 1}, "handle_left": {"Y": 1, "X": 0.5}, "handle_type": 0, "interpolation": 0}]}, "alpha": {"Points": [{"handle_right": {"Y": 0, "X": 0.5}, "co": {"Y": 255, "X": 1}, "handle_left": {"Y": 1, "X": 0.5}, "handle_type": 0, "interpolation": 0}]}, "red": {"Points": [{"handle_right": {"Y": 0, "X": 0.5}, "co": {"Y": 0, "X": 1}, "handle_left": {"Y": 1, "X": 0.5}, "handle_type": 0, "interpolation": 0}]}}, "has_video": {"Points": [{"co": {"Y": -1, "X": 1}, "interpolation": 2}]}, "has_audio": {"Points": [{"co": {"Y": -1, "X": 1}, "interpolation": 2}]}, "effects": [], "location_x": {"Points": [{"co": {"Y": 0, "X": 1}, "interpolation": 2}]}, "waveform": false, "title": "taxi_start.mp4", "image": "/home/robsen/.openshot_qt/thumbnail/LGW3TZJV4Q.png", "gravity": 4, "scale_x": {"Points": [{"co": {"Y": 1, "X": 1}, "interpolation": 2}]}, "perspective_c1_y": {"Points": [{"co": {"Y": -1, "X": 1}, "interpolation": 2}]}, "crop_height": {"Points": [{"co": {"Y": -1, "X": 1}, "interpolation": 2}]}, "crop_x": {"Points": [{"co": {"Y": 0, "X": 1}, "interpolation": 2}]}, "start": 0, "scale": 1, "shear_y": {"Points": [{"co": {"Y": 0, "X": 1}, "interpolation": 2}]}, "display": 0, "volume": {"Points": [{"co": {"Y": 1, "X": 1}, "interpolation": 2}]}, "channel_mapping": {"Points": [{"co": {"Y": -1, "X": 1}, "interpolation": 2}]}, "anchor": 0, "duration": 15.0, "perspective_c3_y": {"Points": [{"co": {"Y": -1, "X": 1}, "interpolation": 2}]}, "shear_x": {"Points": [{"co": {"Y": 0, "X": 1}, "interpolation": 2}]}, "perspective_c4_x": {"Points": [{"co": {"Y": -1, "X": 1}, "interpolation": 2}]}, "location_y": {"Points": [{"co": {"Y": 0, "X": 1}, "interpolation": 2}]}, "perspective_c2_x": {"Points": [{"co": {"Y": -1, "X": 1}, "interpolation": 2}]}, "layer": 0, "perspective_c2_y": {"Points": [{"co": {"Y": -1, "X": 1}, "interpolation": 2}]}, "perspective_c1_x": {"Points": [{"co": {"Y": -1, "X": 1}, "interpolation": 2}]}, "perspective_c4_y": {"Points": [{"co": {"Y": -1, "X": 1}, "interpolation": 2}]}, "reader": {"audio_bit_rate": 0, "has_single_image": false, "has_video": true, "type": "FFmpegReader", "video_length": "375", "audio_timebase": {"den": 1, "num": 1}, "path": "/home/robsen/Dropbox/Workdir/Repo/SuesseRache-HH-Taxi/taxi_start.mp4", "width": 1920, "has_audio": false, "video_bit_rate": 147692, "channel_layout": 4, "height": 1080, "display_ratio": {"den": 9, "num": 16}, "interlaced_frame": false, "video_timebase": {"den": 12800, "num": 1}, "duration": 15.0, "sample_rate": 0, "pixel_format": 0, "fps": {"den": 1, "num": 25}, "file_size": "276924", "top_field_first": true, "pixel_ratio": {"den": 1, "num": 1}, "acodec": "", "audio_stream_index": -1, "video_stream_index": 0, "channels": 0, "vcodec": "h264"}, "channel_filter": {"Points": [{"co": {"Y": -1, "X": 1}, "interpolation": 2}]}, "file_id": "LGW3TZJV4Q", "time": {"Points": [{"co": {"Y": 1, "X": 1}, "interpolation": 2}]}}, "key": ["clips"], "partial": false, "type": "insert"}, {"old_values": null, "value": {"id": "0AEDFYGQ7J", "start": 0, "end": 15, "position": 8.8, "layer": 0, "image": "/home/robsen/.openshot_qt/thumbnail/LGW3TZJV4Q.png"}, "key": ["clips", {"id": "0AEDFYGQ7J"}], "partial": false, "type": "update"}, {"old_values": null, "value": {"id": "0AEDFYGQ7J", "start": 0, "end": 15, "position": 8.8, "layer": 0, "image": "/home/robsen/.openshot_qt/thumbnail/LGW3TZJV4Q.png"}, "key": ["clips", {"id": "0AEDFYGQ7J"}], "partial": false, "type": "update"}, {"old_values": [{"alpha": {"Points": [{"co": {"Y": 1, "X": 1}, "interpolation": 2}]}, "rotation": {"Points": [{"co": {"Y": 0, "X": 1}, "interpolation": 2}]}, "scale_y": {"Points": [{"co": {"Y": 1, "X": 1}, "interpolation": 2}]}, "crop_y": {"Points": [{"co": {"Y": 0, "X": 1}, "interpolation": 2}]}, "perspective_c3_x": {"Points": [{"co": {"Y": -1, "X": 1}, "interpolation": 2}]}, "end": 15, "crop_width": {"Points": [{"co": {"Y": -1, "X": 1}, "interpolation": 2}]}, "position": 8.8, "id": "0AEDFYGQ7J", "wave_color": {"green": {"Points": [{"handle_right": {"Y": 0, "X": 0.5}, "co": {"Y": 123, "X": 1}, "handle_left": {"Y": 1, "X": 0.5}, "handle_type": 0, "interpolation": 0}]}, "blue": {"Points": [{"handle_right": {"Y": 0, "X": 0.5}, "co": {"Y": 255, "X": 1}, "handle_left": {"Y": 1, "X": 0.5}, "handle_type": 0, "interpolation": 0}]}, "alpha": {"Points": [{"handle_right": {"Y": 0, "X": 0.5}, "co": {"Y": 255, "X": 1}, "handle_left": {"Y": 1, "X": 0.5}, "handle_type": 0, "interpolation": 0}]}, "red": {"Points": [{"handle_right": {"Y": 0, "X": 0.5}, "co": {"Y": 0, "X": 1}, "handle_left": {"Y": 1, "X": 0.5}, "handle_type": 0, "interpolation": 0}]}}, "has_video": {"Points": [{"co": {"Y": -1, "X": 1}, "interpolation": 2}]}, "has_audio": {"Points": [{"co": {"Y": -1, "X": 1}, "interpolation": 2}]}, "effects": [], "location_x": {"Points": [{"co": {"Y": 0, "X": 1}, "interpolation": 2}]}, "waveform": false, "title": "taxi_start.mp4", "image": "/home/robsen/.openshot_qt/thumbnail/LGW3TZJV4Q.png", "gravity": 4, "perspective_c2_x": {"Points": [{"co": {"Y": -1, "X": 1}, "interpolation": 2}]}, "perspective_c1_y": {"Points": [{"co": {"Y": -1, "X": 1}, "interpolation": 2}]}, "crop_height": {"Points": [{"co": {"Y": -1, "X": 1}, "interpolation": 2}]}, "crop_x": {"Points": [{"co": {"Y": 0, "X": 1}, "interpolation": 2}]}, "start": 0, "scale": 1, "shear_y": {"Points": [{"co": {"Y": 0, "X": 1}, "interpolation": 2}]}, "display": 0, "volume": {"Points": [{"co": {"Y": 1, "X": 1}, "interpolation": 2}]}, "channel_mapping": {"Points": [{"co": {"Y": -1, "X": 1}, "interpolation": 2}]}, "anchor": 0, "duration": 15.0, "perspective_c3_y": {"Points": [{"co": {"Y": -1, "X": 1}, "interpolation": 2}]}, "shear_x": {"Points": [{"co": {"Y": 0, "X": 1}, "interpolation": 2}]}, "perspective_c4_x": {"Points": [{"co": {"Y": -1, "X": 1}, "interpolation": 2}]}, "location_y": {"Points": [{"co": {"Y": 0, "X": 1}, "interpolation": 2}]}, "scale_x": {"Points": [{"co": {"Y": 1, "X": 1}, "interpolation": 2}]}, "layer": 0, "perspective_c2_y": {"Points": [{"co": {"Y": -1, "X": 1}, "interpolation": 2}]}, "perspective_c1_x": {"Points": [{"co": {"Y": -1, "X": 1}, "interpolation": 2}]}, "perspective_c4_y": {"Points": [{"co": {"Y": -1, "X": 1}, "interpolation": 2}]}, "reader": {"audio_bit_rate": 0, "has_single_image": false, "vcodec": "h264", "has_video": true, "type": "FFmpegReader", "video_length": "375", "audio_timebase": {"den": 1, "num": 1}, "path": "/home/robsen/Dropbox/Workdir/Repo/SuesseRache-HH-Taxi/taxi_start.mp4", "width": 1920, "has_audio": false, "video_bit_rate": 147692, "channel_layout": 4, "height": 1080, "display_ratio": {"den": 9, "num": 16}, "interlaced_frame": false, "duration": 15.0, "sample_rate": 0, "pixel_format": 0, "video_timebase": {"den": 12800, "num": 1}, "file_size": "276924", "top_field_first": true, "pixel_ratio": {"den": 1, "num": 1}, "acodec": "", "audio_stream_index": -1, "video_stream_index": 0, "channels": 0, "fps": {"den": 1, "num": 25}}, "channel_filter": {"Points": [{"co": {"Y": -1, "X": 1}, "interpolation": 2}]}, "file_id": "LGW3TZJV4Q", "time": {"Points": [{"co": {"Y": 1, "X": 1}, "interpolation": 2}]}}], "value": {"alpha": {"Points": [{"co": {"Y": 1, "X": 1}, "interpolation": 2}]}, "rotation": {"Points": [{"co": {"Y": 0, "X": 1}, "interpolation": 2}]}, "scale_y": {"Points": [{"co": {"Y": 1, "X": 1}, "interpolation": 2}]}, "crop_y": {"Points": [{"co": {"Y": 0, "X": 1}, "interpolation": 2}]}, "perspective_c3_x": {"Points": [{"co": {"Y": -1, "X": 1}, "interpolation": 2}]}, "end": 31.317333221435547, "crop_width": {"Points": [{"co": {"Y": -1, "X": 1}, "interpolation": 2}]}, "position": 21.76, "id": "627XQDJ3EP", "wave_color": {"green": {"Points": [{"handle_right": {"Y": 0, "X": 0.5}, "co": {"Y": 123, "X": 1}, "handle_left": {"Y": 1, "X": 0.5}, "handle_type": 0, "interpolation": 0}]}, "blue": {"Points": [{"handle_right": {"Y": 0, "X": 0.5}, "co": {"Y": 255, "X": 1}, "handle_left": {"Y": 1, "X": 0.5}, "handle_type": 0, "interpolation": 0}]}, "alpha": {"Points": [{"handle_right": {"Y": 0, "X": 0.5}, "co": {"Y": 255, "X": 1}, "handle_left": {"Y": 1, "X": 0.5}, "handle_type": 0, "interpolation": 0}]}, "red": {"Points": [{"handle_right": {"Y": 0, "X": 0.5}, "co": {"Y": 0, "X": 1}, "handle_left": {"Y": 1, "X": 0.5}, "handle_type": 0, "interpolation": 0}]}}, "has_video": {"Points": [{"co": {"Y": -1, "X": 1}, "interpolation": 2}]}, "has_audio": {"Points": [{"co": {"Y": -1, "X": 1}, "interpolation": 2}]}, "effects": [], "location_x": {"Points": [{"co": {"Y": 0, "X": 1}, "interpolation": 2}]}, "waveform": false, "title": "TE_SR_Taxi.mp4", "image": "/home/robsen/.openshot_qt/thumbnail/Z3LOYBY1PL.png", "gravity": 4, "scale_x": {"Points": [{"co": {"Y": 1, "X": 1}, "interpolation": 2}]}, "perspective_c1_y": {"Points": [{"co": {"Y": -1, "X": 1}, "interpolation": 2}]}, "crop_height": {"Points": [{"co": {"Y": -1, "X": 1}, "interpolation": 2}]}, "crop_x": {"Points": [{"co": {"Y": 0, "X": 1}, "interpolation": 2}]}, "start": 0, "scale": 1, "shear_y": {"Points": [{"co": {"Y": 0, "X": 1}, "interpolation": 2}]}, "display": 0, "volume": {"Points": [{"co": {"Y": 1, "X": 1}, "interpolation": 2}]}, "channel_mapping": {"Points": [{"co": {"Y": -1, "X": 1}, "interpolation": 2}]}, "anchor": 0, "duration": 31.317333221435547, "perspective_c3_y": {"Points": [{"co": {"Y": -1, "X": 1}, "interpolation": 2}]}, "shear_x": {"Points": [{"co": {"Y": 0, "X": 1}, "interpolation": 2}]}, "perspective_c4_x": {"Points": [{"co": {"Y": -1, "X": 1}, "interpolation": 2}]}, "location_y": {"Points": [{"co": {"Y": 0, "X": 1}, "interpolation": 2}]}, "perspective_c2_x": {"Points": [{"co": {"Y": -1, "X": 1}, "interpolation": 2}]}, "layer": 1, "perspective_c2_y": {"Points": [{"co": {"Y": -1, "X": 1}, "interpolation": 2}]}, "perspective_c1_x": {"Points": [{"co": {"Y": -1, "X": 1}, "interpolation": 2}]}, "perspective_c4_y": {"Points": [{"co": {"Y": -1, "X": 1}, "interpolation": 2}]}, "reader": {"audio_bit_rate": 189375, "has_single_image": false, "has_video": true, "type": "FFmpegReader", "video_length": "937", "audio_timebase": {"den": 48000, "num": 1}, "path": "/home/robsen/Dropbox/Workdir/Repo/SuesseRache-HH-Taxi/TE_SR_Taxi.mp4", "width": 1920, "has_audio": true, "video_bit_rate": 32091692, "channel_layout": 3, "height": 1080, "display_ratio": {"den": 9, "num": 16}, "interlaced_frame": false, "video_timebase": {"den": 29970, "num": 1}, "duration": 31.317333221435547, "sample_rate": 48000, "pixel_format": 0, "fps": {"den": 100, "num": 2997}, "file_size": "125628279", "top_field_first": true, "pixel_ratio": {"den": 1, "num": 1}, "acodec": "aac", "audio_stream_index": 1, "video_stream_index": 0, "channels": 2, "vcodec": "h264"}, "channel_filter": {"Points": [{"co": {"Y": -1, "X": 1}, "interpolation": 2}]}, "file_id": "Z3LOYBY1PL", "time": {"Points": [{"co": {"Y": 1, "X": 1}, "interpolation": 2}]}}, "key": ["clips"], "partial": false, "type": "insert"}, {"old_values": {"alpha": {"Points": [{"co": {"Y": 1, "X": 1}, "interpolation": 2}]}, "rotation": {"Points": [{"co": {"Y": 0, "X": 1}, "interpolation": 2}]}, "scale_y": {"Points": [{"co": {"Y": 1, "X": 1}, "interpolation": 2}]}, "crop_y": {"Points": [{"co": {"Y": 0, "X": 1}, "interpolation": 2}]}, "perspective_c3_x": {"Points": [{"co": {"Y": -1, "X": 1}, "interpolation": 2}]}, "end": 31.317333221435547, "crop_width": {"Points": [{"co": {"Y": -1, "X": 1}, "interpolation": 2}]}, "position": 18.88, "id": "627XQDJ3EP", "wave_color": {"green": {"Points": [{"handle_right": {"Y": 0, "X": 0.5}, "co": {"Y": 123, "X": 1}, "handle_left": {"Y": 1, "X": 0.5}, "handle_type": 0, "interpolation": 0}]}, "blue": {"Points": [{"handle_right": {"Y": 0, "X": 0.5}, "co": {"Y": 255, "X": 1}, "handle_left": {"Y": 1, "X": 0.5}, "handle_type": 0, "interpolation": 0}]}, "alpha": {"Points": [{"handle_right": {"Y": 0, "X": 0.5}, "co": {"Y": 255, "X": 1}, "handle_left": {"Y": 1, "X": 0.5}, "handle_type": 0, "interpolation": 0}]}, "red": {"Points": [{"handle_right": {"Y": 0, "X": 0.5}, "co": {"Y": 0, "X": 1}, "handle_left": {"Y": 1, "X": 0.5}, "handle_type": 0, "interpolation": 0}]}}, "has_video": {"Points": [{"co": {"Y": -1, "X": 1}, "interpolation": 2}]}, "has_audio": {"Points": [{"co": {"Y": -1, "X": 1}, "interpolation": 2}]}, "effects": [], "location_x": {"Points": [{"co": {"Y": 0, "X": 1}, "interpolation": 2}]}, "waveform": false, "title": "TE_SR_Taxi.mp4", "image": "/home/robsen/.openshot_qt/thumbnail/Z3LOYBY1PL.png", "gravity": 4, "scale_x": {"Points": [{"co": {"Y": 1, "X": 1}, "interpolation": 2}]}, "perspective_c1_y": {"Points": [{"co": {"Y": -1, "X": 1}, "interpolation": 2}]}, "crop_height": {"Points": [{"co": {"Y": -1, "X": 1}, "interpolation": 2}]}, "crop_x": {"Points": [{"co": {"Y": 0, "X": 1}, "interpolation": 2}]}, "start": 0, "scale": 1, "shear_y": {"Points": [{"co": {"Y": 0, "X": 1}, "interpolation": 2}]}, "display": 0, "volume": {"Points": [{"co": {"Y": 1, "X": 1}, "interpolation": 2}]}, "channel_mapping": {"Points": [{"co": {"Y": -1, "X": 1}, "interpolation": 2}]}, "anchor": 0, "duration": 31.317333221435547, "perspective_c3_y": {"Points": [{"co": {"Y": -1, "X": 1}, "interpolation": 2}]}, "shear_x": {"Points": [{"co": {"Y": 0, "X": 1}, "interpolation": 2}]}, "perspective_c4_x": {"Points": [{"co": {"Y": -1, "X": 1}, "interpolation": 2}]}, "location_y": {"Points": [{"co": {"Y": 0, "X": 1}, "interpolation": 2}]}, "perspective_c2_x": {"Points": [{"co": {"Y": -1, "X": 1}, "interpolation": 2}]}, "layer": 2, "perspective_c2_y": {"Points": [{"co": {"Y": -1, "X": 1}, "interpolation": 2}]}, "perspective_c1_x": {"Points": [{"co": {"Y": -1, "X": 1}, "interpolation": 2}]}, "perspective_c4_y": {"Points": [{"co": {"Y": -1, "X": 1}, "interpolation": 2}]}, "reader": {"audio_bit_rate": 189375, "has_single_image": false, "vcodec": "h264", "has_video": true, "type": "FFmpegReader", "video_length": "937", "audio_timebase": {"den": 48000, "num": 1}, "path": "/home/robsen/Dropbox/Workdir/Repo/SuesseRache-HH-Taxi/TE_SR_Taxi.mp4", "width": 1920, "has_audio": true, "video_bit_rate": 32091692, "channel_layout": 3, "height": 1080, "display_ratio": {"den": 9, "num": 16}, "interlaced_frame": false, "duration": 31.317333221435547, "sample_rate": 48000, "pixel_format": 0, "video_timebase": {"den": 29970, "num": 1}, "file_size": "125628279", "top_field_first": true, "pixel_ratio": {"den": 1, "num": 1}, "acodec": "aac", "audio_stream_index": 1, "video_stream_index": 0, "channels": 2, "fps": {"den": 100, "num": 2997}}, "channel_filter": {"Points": [{"co": {"Y": -1, "X": 1}, "interpolation": 2}]}, "file_id": "Z3LOYBY1PL", "time": {"Points": [{"co": {"Y": 1, "X": 1}, "interpolation": 2}]}}, "value": {"id": "627XQDJ3EP", "start": 0, "end": 31.317333221435547, "position": 21.76, "layer": 0, "image": "/home/robsen/.openshot_qt/thumbnail/Z3LOYBY1PL.png"}, "key": ["clips", {"id": "627XQDJ3EP"}], "partial": false, "type": "update"}, {"old_values": [], "value": {"start": 0, "type": "Mask", "contrast": {"Points": [{"co": {"Y": 3, "X": 1}, "interpolation": 2}]}, "layer": 0, "replace_image": false, "title": "Transition", "end": 2.039999999999999, "reader": {"audio_bit_rate": 0, "has_single_image": true, "has_video": true, "type": "QtImageReader", "video_length": "2592000", "audio_timebase": {"den": 1, "num": 1}, "path": "/usr/lib/python3/dist-packages/openshot_qt/transitions/common/fade.svg", "width": 720, "has_audio": false, "video_bit_rate": 0, "channel_layout": 4, "height": 576, "display_ratio": {"den": 4, "num": 5}, "interlaced_frame": false, "video_timebase": {"den": 30, "num": 1}, "duration": 86400, "sample_rate": 0, "pixel_format": -1, "fps": {"den": 1, "num": 30}, "file_size": "1658880", "top_field_first": true, "pixel_ratio": {"den": 1, "num": 1}, "acodec": "", "audio_stream_index": -1, "video_stream_index": -1, "channels": 0, "vcodec": ""}, "brightness": {"Points": [{"handle_right": {"Y": 0, "X": 0.5}, "co": {"Y": 1, "X": 1}, "handle_left": {"Y": 1, "X": 0.5}, "handle_type": 0, "interpolation": 0}, {"handle_right": {"Y": 0, "X": 0.5}, "co": {"Y": -1, "X": 50}, "handle_left": {"Y": 1, "X": 0.5}, "handle_type": 0, "interpolation": 0}]}, "id": "5NBS5H99MA", "position": 21.76}, "key": ["effects"], "partial": false, "type": "insert"}, {"old_values": {"alpha": {"Points": [{"co": {"Y": 1, "X": 1}, "interpolation": 2}]}, "rotation": {"Points": [{"co": {"Y": 0, "X": 1}, "interpolation": 2}]}, "scale_y": {"Points": [{"co": {"Y": 1, "X": 1}, "interpolation": 2}]}, "crop_y": {"Points": [{"co": {"Y": 0, "X": 1}, "interpolation": 2}]}, "perspective_c3_x": {"Points": [{"co": {"Y": -1, "X": 1}, "interpolation": 2}]}, "end": 31.317333221435547, "crop_width": {"Points": [{"co": {"Y": -1, "X": 1}, "interpolation": 2}]}, "position": 21.76, "id": "627XQDJ3EP", "wave_color": {"green": {"Points": [{"handle_right": {"Y": 0, "X": 0.5}, "co": {"Y": 123, "X": 1}, "handle_left": {"Y": 1, "X": 0.5}, "handle_type": 0, "interpolation": 0}]}, "blue": {"Points": [{"handle_right": {"Y": 0, "X": 0.5}, "co": {"Y": 255, "X": 1}, "handle_left": {"Y": 1, "X": 0.5}, "handle_type": 0, "interpolation": 0}]}, "alpha": {"Points": [{"handle_right": {"Y": 0, "X": 0.5}, "co": {"Y": 255, "X": 1}, "handle_left": {"Y": 1, "X": 0.5}, "handle_type": 0, "interpolation": 0}]}, "red": {"Points": [{"handle_right": {"Y": 0, "X": 0.5}, "co": {"Y": 0, "X": 1}, "handle_left": {"Y": 1, "X": 0.5}, "handle_type": 0, "interpolation": 0}]}}, "has_video": {"Points": [{"co": {"Y": -1, "X": 1}, "interpolation": 2}]}, "has_audio": {"Points": [{"co": {"Y": -1, "X": 1}, "interpolation": 2}]}, "effects": [], "location_x": {"Points": [{"co": {"Y": 0, "X": 1}, "interpolation": 2}]}, "waveform": false, "title": "TE_SR_Taxi.mp4", "image": "/home/robsen/.openshot_qt/thumbnail/Z3LOYBY1PL.png", "gravity": 4, "perspective_c2_x": {"Points": [{"co": {"Y": -1, "X": 1}, "interpolation": 2}]}, "perspective_c1_y": {"Points": [{"co": {"Y": -1, "X": 1}, "interpolation": 2}]}, "crop_height": {"Points": [{"co": {"Y": -1, "X": 1}, "interpolation": 2}]}, "crop_x": {"Points": [{"co": {"Y": 0, "X": 1}, "interpolation": 2}]}, "start": 0, "scale": 1, "shear_y": {"Points": [{"co": {"Y": 0, "X": 1}, "interpolation": 2}]}, "display": 0, "volume": {"Points": [{"co": {"Y": 1, "X": 1}, "interpolation": 2}]}, "channel_mapping": {"Points": [{"co": {"Y": -1, "X": 1}, "interpolation": 2}]}, "anchor": 0, "duration": 31.317333221435547, "perspective_c3_y": {"Points": [{"co": {"Y": -1, "X": 1}, "interpolation": 2}]}, "shear_x": {"Points": [{"co": {"Y": 0, "X": 1}, "interpolation": 2}]}, "perspective_c4_x": {"Points": [{"co": {"Y": -1, "X": 1}, "interpolation": 2}]}, "location_y": {"Points": [{"co": {"Y": 0, "X": 1}, "interpolation": 2}]}, "scale_x": {"Points": [{"co": {"Y": 1, "X": 1}, "interpolation": 2}]}, "layer": 0, "perspective_c2_y": {"Points": [{"co": {"Y": -1, "X": 1}, "interpolation": 2}]}, "perspective_c1_x": {"Points": [{"co": {"Y": -1, "X": 1}, "interpolation": 2}]}, "perspective_c4_y": {"Points": [{"co": {"Y": -1, "X": 1}, "interpolation": 2}]}, "reader": {"audio_bit_rate": 189375, "has_single_image": false, "vcodec": "h264", "has_video": true, "type": "FFmpegReader", "video_length": "937", "audio_timebase": {"den": 48000, "num": 1}, "path": "/home/robsen/Dropbox/Workdir/Repo/SuesseRache-HH-Taxi/TE_SR_Taxi.mp4", "width": 1920, "has_audio": true, "video_bit_rate": 32091692, "channel_layout": 3, "height": 1080, "display_ratio": {"den": 9, "num": 16}, "interlaced_frame": false, "duration": 31.317333221435547, "sample_rate": 48000, "pixel_format": 0, "video_timebase": {"den": 29970, "num": 1}, "file_size": "125628279", "top_field_first": true, "pixel_ratio": {"den": 1, "num": 1}, "acodec": "aac", "audio_stream_index": 1, "video_stream_index": 0, "channels": 2, "fps": {"den": 100, "num": 2997}}, "channel_filter": {"Points": [{"co": {"Y": -1, "X": 1}, "interpolation": 2}]}, "file_id": "Z3LOYBY1PL", "time": {"Points": [{"co": {"Y": 1, "X": 1}, "interpolation": 2}]}}, "value": {"id": "627XQDJ3EP", "start": 0, "end": 31.317333221435547, "position": 21.76, "layer": 1, "image": "/home/robsen/.openshot_qt/thumbnail/Z3LOYBY1PL.png"}, "key": ["clips", {"id": "627XQDJ3EP"}], "partial": false, "type": "update"}, {"old_values": [{"alpha": {"Points": [{"co": {"Y": 1, "X": 1}, "interpolation": 2}]}, "rotation": {"Points": [{"co": {"Y": 0, "X": 1}, "interpolation": 2}]}, "scale_y": {"Points": [{"co": {"Y": 1, "X": 1}, "interpolation": 2}]}, "crop_y": {"Points": [{"co": {"Y": 0, "X": 1}, "interpolation": 2}]}, "perspective_c3_x": {"Points": [{"co": {"Y": -1, "X": 1}, "interpolation": 2}]}, "end": 15, "crop_width": {"Points": [{"co": {"Y": -1, "X": 1}, "interpolation": 2}]}, "position": 8.8, "id": "0AEDFYGQ7J", "wave_color": {"green": {"Points": [{"handle_right": {"Y": 0, "X": 0.5}, "co": {"Y": 123, "X": 1}, "handle_left": {"Y": 1, "X": 0.5}, "handle_type": 0, "interpolation": 0}]}, "blue": {"Points": [{"handle_right": {"Y": 0, "X": 0.5}, "co": {"Y": 255, "X": 1}, "handle_left": {"Y": 1, "X": 0.5}, "handle_type": 0, "interpolation": 0}]}, "alpha": {"Points": [{"handle_right": {"Y": 0, "X": 0.5}, "co": {"Y": 255, "X": 1}, "handle_left": {"Y": 1, "X": 0.5}, "handle_type": 0, "interpolation": 0}]}, "red": {"Points": [{"handle_right": {"Y": 0, "X": 0.5}, "co": {"Y": 0, "X": 1}, "handle_left": {"Y": 1, "X": 0.5}, "handle_type": 0, "interpolation": 0}]}}, "has_video": {"Points": [{"co": {"Y": -1, "X": 1}, "interpolation": 2}]}, "has_audio": {"Points": [{"co": {"Y": -1, "X": 1}, "interpolation": 2}]}, "effects": [], "location_x": {"Points": [{"co": {"Y": 0, "X": 1}, "interpolation": 2}]}, "waveform": false, "title": "taxi_start.mp4", "image": "/home/robsen/.openshot_qt/thumbnail/LGW3TZJV4Q.png", "gravity": 4, "perspective_c2_x": {"Points": [{"co": {"Y": -1, "X": 1}, "interpolation": 2}]}, "perspective_c1_y": {"Points": [{"co": {"Y": -1, "X": 1}, "interpolation": 2}]}, "crop_height": {"Points": [{"co": {"Y": -1, "X": 1}, "interpolation": 2}]}, "crop_x": {"Points": [{"co": {"Y": 0, "X": 1}, "interpolation": 2}]}, "start": 0, "scale": 1, "shear_y": {"Points": [{"co": {"Y": 0, "X": 1}, "interpolation": 2}]}, "display": 0, "volume": {"Points": [{"co": {"Y": 1, "X": 1}, "interpolation": 2}]}, "channel_mapping": {"Points": [{"co": {"Y": -1, "X": 1}, "interpolation": 2}]}, "anchor": 0, "duration": 15.0, "perspective_c3_y": {"Points": [{"co": {"Y": -1, "X": 1}, "interpolation": 2}]}, "shear_x": {"Points": [{"co": {"Y": 0, "X": 1}, "interpolation": 2}]}, "perspective_c4_x": {"Points": [{"co": {"Y": -1, "X": 1}, "interpolation": 2}]}, "location_y": {"Points": [{"co": {"Y": 0, "X": 1}, "interpolation": 2}]}, "scale_x": {"Points": [{"co": {"Y": 1, "X": 1}, "interpolation": 2}]}, "layer": 0, "perspective_c2_y": {"Points": [{"co": {"Y": -1, "X": 1}, "interpolation": 2}]}, "perspective_c1_x": {"Points": [{"co": {"Y": -1, "X": 1}, "interpolation": 2}]}, "perspective_c4_y": {"Points": [{"co": {"Y": -1, "X": 1}, "interpolation": 2}]}, "reader": {"audio_bit_rate": 0, "has_single_image": false, "vcodec": "h264", "has_video": true, "type": "FFmpegReader", "video_length": "375", "audio_timebase": {"den": 1, "num": 1}, "path": "/home/robsen/Dropbox/Workdir/Repo/SuesseRache-HH-Taxi/taxi_start.mp4", "width": 1920, "has_audio": false, "video_bit_rate": 147692, "channel_layout": 4, "height": 1080, "display_ratio": {"den": 9, "num": 16}, "interlaced_frame": false, "duration": 15.0, "sample_rate": 0, "pixel_format": 0, "video_timebase": {"den": 12800, "num": 1}, "file_size": "276924", "top_field_first": true, "pixel_ratio": {"den": 1, "num": 1}, "acodec": "", "audio_stream_index": -1, "video_stream_index": 0, "channels": 0, "fps": {"den": 1, "num": 25}}, "channel_filter": {"Points": [{"co": {"Y": -1, "X": 1}, "interpolation": 2}]}, "file_id": "LGW3TZJV4Q", "time": {"Points": [{"co": {"Y": 1, "X": 1}, "interpolation": 2}]}}, {"alpha": {"Points": [{"co": {"Y": 1, "X": 1}, "interpolation": 2}]}, "rotation": {"Points": [{"co": {"Y": 0, "X": 1}, "interpolation": 2}]}, "scale_y": {"Points": [{"co": {"Y": 1, "X": 1}, "interpolation": 2}]}, "crop_y": {"Points": [{"co": {"Y": 0, "X": 1}, "interpolation": 2}]}, "perspective_c3_x": {"Points": [{"co": {"Y": -1, "X": 1}, "interpolation": 2}]}, "end": 31.317333221435547, "crop_width": {"Points": [{"co": {"Y": -1, "X": 1}, "interpolation": 2}]}, "position": 21.76, "id": "627XQDJ3EP", "wave_color": {"green": {"Points": [{"handle_right": {"Y": 0, "X": 0.5}, "co": {"Y": 123, "X": 1}, "handle_left": {"Y": 1, "X": 0.5}, "handle_type": 0, "interpolation": 0}]}, "blue": {"Points": [{"handle_right": {"Y": 0, "X": 0.5}, "co": {"Y": 255, "X": 1}, "handle_left": {"Y": 1, "X": 0.5}, "handle_type": 0, "interpolation": 0}]}, "alpha": {"Points": [{"handle_right": {"Y": 0, "X": 0.5}, "co": {"Y": 255, "X": 1}, "handle_left": {"Y": 1, "X": 0.5}, "handle_type": 0, "interpolation": 0}]}, "red": {"Points": [{"handle_right": {"Y": 0, "X": 0.5}, "co": {"Y": 0, "X": 1}, "handle_left": {"Y": 1, "X": 0.5}, "handle_type": 0, "interpolation": 0}]}}, "has_video": {"Points": [{"co": {"Y": -1, "X": 1}, "interpolation": 2}]}, "has_audio": {"Points": [{"co": {"Y": -1, "X": 1}, "interpolation": 2}]}, "effects": [], "location_x": {"Points": [{"co": {"Y": 0, "X": 1}, "interpolation": 2}]}, "waveform": false, "title": "TE_SR_Taxi.mp4", "image": "/home/robsen/.openshot_qt/thumbnail/Z3LOYBY1PL.png", "gravity": 4, "perspective_c2_x": {"Points": [{"co": {"Y": -1, "X": 1}, "interpolation": 2}]}, "perspective_c1_y": {"Points": [{"co": {"Y": -1, "X": 1}, "interpolation": 2}]}, "crop_height": {"Points": [{"co": {"Y": -1, "X": 1}, "interpolation": 2}]}, "crop_x": {"Points": [{"co": {"Y": 0, "X": 1}, "interpolation": 2}]}, "start": 0, "scale": 1, "shear_y": {"Points": [{"co": {"Y": 0, "X": 1}, "interpolation": 2}]}, "display": 0, "volume": {"Points": [{"co": {"Y": 1, "X": 1}, "interpolation": 2}]}, "channel_mapping": {"Points": [{"co": {"Y": -1, "X": 1}, "interpolation": 2}]}, "anchor": 0, "duration": 31.317333221435547, "perspective_c3_y": {"Points": [{"co": {"Y": -1, "X": 1}, "interpolation": 2}]}, "shear_x": {"Points": [{"co": {"Y": 0, "X": 1}, "interpolation": 2}]}, "perspective_c4_x": {"Points": [{"co": {"Y": -1, "X": 1}, "interpolation": 2}]}, "location_y": {"Points": [{"co": {"Y": 0, "X": 1}, "interpolation": 2}]}, "scale_x": {"Points": [{"co": {"Y": 1, "X": 1}, "interpolation": 2}]}, "layer": 1, "perspective_c2_y": {"Points": [{"co": {"Y": -1, "X": 1}, "interpolation": 2}]}, "perspective_c1_x": {"Points": [{"co": {"Y": -1, "X": 1}, "interpolation": 2}]}, "perspective_c4_y": {"Points": [{"co": {"Y": -1, "X": 1}, "interpolation": 2}]}, "reader": {"audio_bit_rate": 189375, "has_single_image": false, "vcodec": "h264", "has_video": true, "type": "FFmpegReader", "video_length": "937", "audio_timebase": {"den": 48000, "num": 1}, "path": "/home/robsen/Dropbox/Workdir/Repo/SuesseRache-HH-Taxi/TE_SR_Taxi.mp4", "width": 1920, "has_audio": true, "video_bit_rate": 32091692, "channel_layout": 3, "height": 1080, "display_ratio": {"den": 9, "num": 16}, "interlaced_frame": false, "duration": 31.317333221435547, "sample_rate": 48000, "pixel_format": 0, "video_timebase": {"den": 29970, "num": 1}, "file_size": "125628279", "top_field_first": true, "pixel_ratio": {"den": 1, "num": 1}, "acodec": "aac", "audio_stream_index": 1, "video_stream_index": 0, "channels": 2, "fps": {"den": 100, "num": 2997}}, "channel_filter": {"Points": [{"co": {"Y": -1, "X": 1}, "interpolation": 2}]}, "file_id": "Z3LOYBY1PL", "time": {"Points": [{"co": {"Y": 1, "X": 1}, "interpolation": 2}]}}], "value": {"alpha": {"Points": [{"co": {"Y": 1, "X": 1}, "interpolation": 2}, {"handle_right": {"Y": 0, "X": 0.5}, "co": {"Y": 0, "X": 1}, "handle_left": {"Y": 1, "X": 0.5}, "handle_type": 0, "interpolation": 0}, {"handle_right": {"Y": 0, "X": 0.5}, "co": {"Y": 1, "X": 73}, "handle_left": {"Y": 1, "X": 0.5}, "handle_type": 0, "interpolation": 0}]}, "rotation": {"Points": [{"co": {"Y": 0, "X": 1}, "interpolation": 2}]}, "scale_y": {"Points": [{"co": {"Y": 1, "X": 1}, "interpolation": 2}]}, "crop_y": {"Points": [{"co": {"Y": 0, "X": 1}, "interpolation": 2}]}, "perspective_c3_x": {"Points": [{"co": {"Y": -1, "X": 1}, "interpolation": 2}]}, "end": 15, "crop_width": {"Points": [{"co": {"Y": -1, "X": 1}, "interpolation": 2}]}, "position": 53.075, "id": "PJWPMFXKV3", "wave_color": {"green": {"Points": [{"handle_right": {"Y": 0, "X": 0.5}, "co": {"Y": 123, "X": 1}, "handle_left": {"Y": 1, "X": 0.5}, "handle_type": 0, "interpolation": 0}]}, "blue": {"Points": [{"handle_right": {"Y": 0, "X": 0.5}, "co": {"Y": 255, "X": 1}, "handle_left": {"Y": 1, "X": 0.5}, "handle_type": 0, "interpolation": 0}]}, "alpha": {"Points": [{"handle_right": {"Y": 0, "X": 0.5}, "co": {"Y": 255, "X": 1}, "handle_left": {"Y": 1, "X": 0.5}, "handle_type": 0, "interpolation": 0}]}, "red": {"Points": [{"handle_right": {"Y": 0, "X": 0.5}, "co": {"Y": 0, "X": 1}, "handle_left": {"Y": 1, "X": 0.5}, "handle_type": 0, "interpolation": 0}]}}, "has_video": {"Points": [{"co": {"Y": -1, "X": 1}, "interpolation": 2}]}, "has_audio": {"Points": [{"co": {"Y": -1, "X": 1}, "interpolation": 2}]}, "effects": [], "location_x": {"Points": [{"co": {"Y": 0, "X": 1}, "interpolation": 2}]}, "waveform": false, "title": "arrow.mp4", "image": "/home/robsen/.openshot_qt/thumbnail/X22V56NF57.png", "gravity": 4, "scale_x": {"Points": [{"co": {"Y": 1, "X": 1}, "interpolation": 2}]}, "perspective_c1_y": {"Points": [{"co": {"Y": -1, "X": 1}, "interpolation": 2}]}, "crop_height": {"Points": [{"co": {"Y": -1, "X": 1}, "interpolation": 2}]}, "crop_x": {"Points": [{"co": {"Y": 0, "X": 1}, "interpolation": 2}]}, "start": 0, "scale": 1, "shear_y": {"Points": [{"co": {"Y": 0, "X": 1}, "interpolation": 2}]}, "display": 0, "volume": {"Points": [{"co": {"Y": 1, "X": 1}, "interpolation": 2}]}, "channel_mapping": {"Points": [{"co": {"Y": -1, "X": 1}, "interpolation": 2}]}, "anchor": 0, "duration": 15.0, "perspective_c3_y": {"Points": [{"co": {"Y": -1, "X": 1}, "interpolation": 2}]}, "shear_x": {"Points": [{"co": {"Y": 0, "X": 1}, "interpolation": 2}]}, "perspective_c4_x": {"Points": [{"co": {"Y": -1, "X": 1}, "interpolation": 2}]}, "location_y": {"Points": [{"co": {"Y": 0, "X": 1}, "interpolation": 2}]}, "perspective_c2_x": {"Points": [{"co": {"Y": -1, "X": 1}, "interpolation": 2}]}, "layer": 2, "perspective_c2_y": {"Points": [{"co": {"Y": -1, "X": 1}, "interpolation": 2}]}, "perspective_c1_x": {"Points": [{"co": {"Y": -1, "X": 1}, "interpolation": 2}]}, "perspective_c4_y": {"Points": [{"co": {"Y": -1, "X": 1}, "interpolation": 2}]}, "reader": {"audio_bit_rate": 0, "has_single_image": false, "has_video": true, "type": "FFmpegReader", "video_length": "375", "audio_timebase": {"den": 1, "num": 1}, "path": "/home/robsen/Dropbox/Workdir/Repo/SuesseRache-HH-Taxi/arrow.mp4", "width": 1920, "has_audio": false, "video_bit_rate": 83079, "channel_layout": 4, "height": 1080, "display_ratio": {"den": 9, "num": 16}, "interlaced_frame": false, "video_timebase": {"den": 12800, "num": 1}, "duration": 15.0, "sample_rate": 0, "pixel_format": 0, "fps": {"den": 1, "num": 25}, "file_size": "155774", "top_field_first": true, "pixel_ratio": {"den": 1, "num": 1}, "acodec": "", "audio_stream_index": -1, "video_stream_index": 0, "channels": 0, "vcodec": "h264"}, "channel_filter": {"Points": [{"co": {"Y": -1, "X": 1}, "interpolation": 2}]}, "file_id": "X22V56NF57", "time": {"Points": [{"co": {"Y": 1, "X": 1}, "interpolation": 2}]}}, "key": ["clips"], "partial": false, "type": "insert"}, {"old_values": {"alpha": {"Points": [{"co": {"Y": 1, "X": 1}, "interpolation": 2}]}, "rotation": {"Points": [{"co": {"Y": 0, "X": 1}, "interpolation": 2}]}, "scale_y": {"Points": [{"co": {"Y": 1, "X": 1}, "interpolation": 2}]}, "crop_y": {"Points": [{"co": {"Y": 0, "X": 1}, "interpolation": 2}]}, "perspective_c3_x": {"Points": [{"co": {"Y": -1, "X": 1}, "interpolation": 2}]}, "end": 15.0, "crop_width": {"Points": [{"co": {"Y": -1, "X": 1}, "interpolation": 2}]}, "position": 62.88, "id": "PJWPMFXKV3", "wave_color": {"green": {"Points": [{"handle_right": {"Y": 0, "X": 0.5}, "co": {"Y": 123, "X": 1}, "handle_left": {"Y": 1, "X": 0.5}, "handle_type": 0, "interpolation": 0}]}, "blue": {"Points": [{"handle_right": {"Y": 0, "X": 0.5}, "co": {"Y": 255, "X": 1}, "handle_left": {"Y": 1, "X": 0.5}, "handle_type": 0, "interpolation": 0}]}, "alpha": {"Points": [{"handle_right": {"Y": 0, "X": 0.5}, "co": {"Y": 255, "X": 1}, "handle_left": {"Y": 1, "X": 0.5}, "handle_type": 0, "interpolation": 0}]}, "red": {"Points": [{"handle_right": {"Y": 0, "X": 0.5}, "co": {"Y": 0, "X": 1}, "handle_left": {"Y": 1, "X": 0.5}, "handle_type": 0, "interpolation": 0}]}}, "has_video": {"Points": [{"co": {"Y": -1, "X": 1}, "interpolation": 2}]}, "has_audio": {"Points": [{"co": {"Y": -1, "X": 1}, "interpolation": 2}]}, "effects": [], "location_x": {"Points": [{"co": {"Y": 0, "X": 1}, "interpolation": 2}]}, "waveform": false, "title": "arrow.mp4", "image": "/home/robsen/.openshot_qt/thumbnail/X22V56NF57.png", "gravity": 4, "scale_x": {"Points": [{"co": {"Y": 1, "X": 1}, "interpolation": 2}]}, "perspective_c1_y": {"Points": [{"co": {"Y": -1, "X": 1}, "interpolation": 2}]}, "crop_height": {"Points": [{"co": {"Y": -1, "X": 1}, "interpolation": 2}]}, "crop_x": {"Points": [{"co": {"Y": 0, "X": 1}, "interpolation": 2}]}, "start": 0, "scale": 1, "shear_y": {"Points": [{"co": {"Y": 0, "X": 1}, "interpolation": 2}]}, "display": 0, "volume": {"Points": [{"co": {"Y": 1, "X": 1}, "interpolation": 2}]}, "channel_mapping": {"Points": [{"co": {"Y": -1, "X": 1}, "interpolation": 2}]}, "anchor": 0, "duration": 15.0, "perspective_c3_y": {"Points": [{"co": {"Y": -1, "X": 1}, "interpolation": 2}]}, "shear_x": {"Points": [{"co": {"Y": 0, "X": 1}, "interpolation": 2}]}, "perspective_c4_x": {"Points": [{"co": {"Y": -1, "X": 1}, "interpolation": 2}]}, "location_y": {"Points": [{"co": {"Y": 0, "X": 1}, "interpolation": 2}]}, "perspective_c2_x": {"Points": [{"co": {"Y": -1, "X": 1}, "interpolation": 2}]}, "layer": 2, "perspective_c2_y": {"Points": [{"co": {"Y": -1, "X": 1}, "interpolation": 2}]}, "perspective_c1_x": {"Points": [{"co": {"Y": -1, "X": 1}, "interpolation": 2}]}, "perspective_c4_y": {"Points": [{"co": {"Y": -1, "X": 1}, "interpolation": 2}]}, "reader": {"audio_bit_rate": 0, "has_single_image": false, "vcodec": "h264", "has_video": true, "type": "FFmpegReader", "video_length": "375", "audio_timebase": {"den": 1, "num": 1}, "path": "/home/robsen/Dropbox/Workdir/Repo/SuesseRache-HH-Taxi/arrow.mp4", "width": 1920, "has_audio": false, "video_bit_rate": 83079, "channel_layout": 4, "height": 1080, "display_ratio": {"den": 9, "num": 16}, "interlaced_frame": false, "duration": 15.0, "sample_rate": 0, "pixel_format": 0, "video_timebase": {"den": 12800, "num": 1}, "file_size": "155774", "top_field_first": true, "pixel_ratio": {"den": 1, "num": 1}, "acodec": "", "audio_stream_index": -1, "video_stream_index": 0, "channels": 0, "fps": {"den": 1, "num": 25}}, "channel_filter": {"Points": [{"co": {"Y": -1, "X": 1}, "interpolation": 2}]}, "file_id": "X22V56NF57", "time": {"Points": [{"co": {"Y": 1, "X": 1}, "interpolation": 2}]}}, "value": {"id": "PJWPMFXKV3", "start": 0, "end": 15, "position": 63.04, "layer": 1, "image": "/home/robsen/.openshot_qt/thumbnail/X22V56NF57.png"}, "key": ["clips", {"id": "PJWPMFXKV3"}], "partial": false, "type": "update"}, {"old_values": {"alpha": {"Points": [{"co": {"Y": 1, "X": 1}, "interpolation": 2}]}, "rotation": {"Points": [{"co": {"Y": 0, "X": 1}, "interpolation": 2}]}, "scale_y": {"Points": [{"co": {"Y": 1, "X": 1}, "interpolation": 2}]}, "crop_y": {"Points": [{"co": {"Y": 0, "X": 1}, "interpolation": 2}]}, "perspective_c3_x": {"Points": [{"co": {"Y": -1, "X": 1}, "interpolation": 2}]}, "end": 15, "crop_width": {"Points": [{"co": {"Y": -1, "X": 1}, "interpolation": 2}]}, "position": 63.04, "id": "PJWPMFXKV3", "wave_color": {"green": {"Points": [{"handle_right": {"Y": 0, "X": 0.5}, "co": {"Y": 123, "X": 1}, "handle_left": {"Y": 1, "X": 0.5}, "handle_type": 0, "interpolation": 0}]}, "blue": {"Points": [{"handle_right": {"Y": 0, "X": 0.5}, "co": {"Y": 255, "X": 1}, "handle_left": {"Y": 1, "X": 0.5}, "handle_type": 0, "interpolation": 0}]}, "alpha": {"Points": [{"handle_right": {"Y": 0, "X": 0.5}, "co": {"Y": 255, "X": 1}, "handle_left": {"Y": 1, "X": 0.5}, "handle_type": 0, "interpolation": 0}]}, "red": {"Points": [{"handle_right": {"Y": 0, "X": 0.5}, "co": {"Y": 0, "X": 1}, "handle_left": {"Y": 1, "X": 0.5}, "handle_type": 0, "interpolation": 0}]}}, "has_video": {"Points": [{"co": {"Y": -1, "X": 1}, "interpolation": 2}]}, "has_audio": {"Points": [{"co": {"Y": -1, "X": 1}, "interpolation": 2}]}, "effects": [], "location_x": {"Points": [{"co": {"Y": 0, "X": 1}, "interpolation": 2}]}, "waveform": false, "title": "arrow.mp4", "image": "/home/robsen/.openshot_qt/thumbnail/X22V56NF57.png", "gravity": 4, "perspective_c2_x": {"Points": [{"co": {"Y": -1, "X": 1}, "interpolation": 2}]}, "perspective_c1_y": {"Points": [{"co": {"Y": -1, "X": 1}, "interpolation": 2}]}, "crop_height": {"Points": [{"co": {"Y": -1, "X": 1}, "interpolation": 2}]}, "crop_x": {"Points": [{"co": {"Y": 0, "X": 1}, "interpolation": 2}]}, "start": 0, "scale": 1, "shear_y": {"Points": [{"co": {"Y": 0, "X": 1}, "interpolation": 2}]}, "display": 0, "volume": {"Points": [{"co": {"Y": 1, "X": 1}, "interpolation": 2}]}, "channel_mapping": {"Points": [{"co": {"Y": -1, "X": 1}, "interpolation": 2}]}, "anchor": 0, "duration": 15.0, "perspective_c3_y": {"Points": [{"co": {"Y": -1, "X": 1}, "interpolation": 2}]}, "shear_x": {"Points": [{"co": {"Y": 0, "X": 1}, "interpolation": 2}]}, "perspective_c4_x": {"Points": [{"co": {"Y": -1, "X": 1}, "interpolation": 2}]}, "location_y": {"Points": [{"co": {"Y": 0, "X": 1}, "interpolation": 2}]}, "scale_x": {"Points": [{"co": {"Y": 1, "X": 1}, "interpolation": 2}]}, "layer": 1, "perspective_c2_y": {"Points": [{"co": {"Y": -1, "X": 1}, "interpolation": 2}]}, "perspective_c1_x": {"Points": [{"co": {"Y": -1, "X": 1}, "interpolation": 2}]}, "perspective_c4_y": {"Points": [{"co": {"Y": -1, "X": 1}, "interpolation": 2}]}, "reader": {"audio_bit_rate": 0, "has_single_image": false, "vcodec": "h264", "has_video": true, "type": "FFmpegReader", "video_length": "375", "audio_timebase": {"den": 1, "num": 1}, "path": "/home/robsen/Dropbox/Workdir/Repo/SuesseRache-HH-Taxi/arrow.mp4", "width": 1920, "has_audio": false, "video_bit_rate": 83079, "channel_layout": 4, "height": 1080, "display_ratio": {"den": 9, "num": 16}, "interlaced_frame": false, "duration": 15.0, "sample_rate": 0, "pixel_format": 0, "video_timebase": {"den": 12800, "num": 1}, "file_size": "155774", "top_field_first": true, "pixel_ratio": {"den": 1, "num": 1}, "acodec": "", "audio_stream_index": -1, "video_stream_index": 0, "channels": 0, "fps": {"den": 1, "num": 25}}, "channel_filter": {"Points": [{"co": {"Y": -1, "X": 1}, "interpolation": 2}]}, "file_id": "X22V56NF57", "time": {"Points": [{"co": {"Y": 1, "X": 1}, "interpolation": 2}]}}, "value": {"id": "PJWPMFXKV3", "start": 0, "end": 15, "position": 53.075, "layer": 2, "image": "/home/robsen/.openshot_qt/thumbnail/X22V56NF57.png"}, "key": ["clips", {"id": "PJWPMFXKV3"}], "partial": false, "type": "update"}, {"old_values": {"start": 0, "type": "Mask", "contrast": {"Points": [{"co": {"Y": 3, "X": 1}, "interpolation": 2}]}, "layer": 0, "replace_image": false, "title": "Transition", "end": 2.039999999999999, "reader": {"audio_bit_rate": 0, "has_single_image": true, "vcodec": "", "has_video": true, "type": "QtImageReader", "video_length": "2592000", "audio_timebase": {"den": 1, "num": 1}, "path": "/usr/lib/python3/dist-packages/openshot_qt/transitions/common/fade.svg", "width": 720, "has_audio": false, "video_bit_rate": 0, "channel_layout": 4, "height": 576, "display_ratio": {"den": 4, "num": 5}, "interlaced_frame": false, "duration": 86400, "sample_rate": 0, "pixel_format": -1, "video_timebase": {"den": 30, "num": 1}, "file_size": "1658880", "top_field_first": true, "pixel_ratio": {"den": 1, "num": 1}, "acodec": "", "audio_stream_index": -1, "video_stream_index": -1, "channels": 0, "fps": {"den": 1, "num": 30}}, "brightness": {"Points": [{"handle_right": {"Y": 0, "X": 0.5}, "co": {"Y": 1, "X": 1}, "handle_left": {"Y": 1, "X": 0.5}, "handle_type": 0, "interpolation": 0}, {"handle_right": {"Y": 0, "X": 0.5}, "co": {"Y": -1, "X": 50}, "handle_left": {"Y": 1, "X": 0.5}, "handle_type": 0, "interpolation": 0}]}, "id": "5NBS5H99MA", "position": 21.76}, "value": null, "key": ["effects", {"id": "5NBS5H99MA"}], "partial": false, "type": "delete"}, {"old_values": {"alpha": {"Points": [{"co": {"Y": 1, "X": 1}, "interpolation": 2}]}, "rotation": {"Points": [{"co": {"Y": 0, "X": 1}, "interpolation": 2}]}, "scale_y": {"Points": [{"co": {"Y": 1, "X": 1}, "interpolation": 2}]}, "crop_y": {"Points": [{"co": {"Y": 0, "X": 1}, "interpolation": 2}]}, "perspective_c3_x": {"Points": [{"co": {"Y": -1, "X": 1}, "interpolation": 2}]}, "end": 15, "crop_width": {"Points": [{"co": {"Y": -1, "X": 1}, "interpolation": 2}]}, "position": 8.8, "id": "0AEDFYGQ7J", "wave_color": {"green": {"Points": [{"handle_right": {"Y": 0, "X": 0.5}, "co": {"Y": 123, "X": 1}, "handle_left": {"Y": 1, "X": 0.5}, "handle_type": 0, "interpolation": 0}]}, "blue": {"Points": [{"handle_right": {"Y": 0, "X": 0.5}, "co": {"Y": 255, "X": 1}, "handle_left": {"Y": 1, "X": 0.5}, "handle_type": 0, "interpolation": 0}]}, "alpha": {"Points": [{"handle_right": {"Y": 0, "X": 0.5}, "co": {"Y": 255, "X": 1}, "handle_left": {"Y": 1, "X": 0.5}, "handle_type": 0, "interpolation": 0}]}, "red": {"Points": [{"handle_right": {"Y": 0, "X": 0.5}, "co": {"Y": 0, "X": 1}, "handle_left": {"Y": 1, "X": 0.5}, "handle_type": 0, "interpolation": 0}]}}, "has_video": {"Points": [{"co": {"Y": -1, "X": 1}, "interpolation": 2}]}, "has_audio": {"Points": [{"co": {"Y": -1, "X": 1}, "interpolation": 2}]}, "effects": [], "location_x": {"Points": [{"co": {"Y": 0, "X": 1}, "interpolation": 2}]}, "waveform": false, "title": "taxi_start.mp4", "image": "/home/robsen/.openshot_qt/thumbnail/LGW3TZJV4Q.png", "gravity": 4, "perspective_c2_x": {"Points": [{"co": {"Y": -1, "X": 1}, "interpolation": 2}]}, "perspective_c1_y": {"Points": [{"co": {"Y": -1, "X": 1}, "interpolation": 2}]}, "crop_height": {"Points": [{"co": {"Y": -1, "X": 1}, "interpolation": 2}]}, "crop_x": {"Points": [{"co": {"Y": 0, "X": 1}, "interpolation": 2}]}, "start": 0, "scale": 1, "shear_y": {"Points": [{"co": {"Y": 0, "X": 1}, "interpolation": 2}]}, "display": 0, "volume": {"Points": [{"co": {"Y": 1, "X": 1}, "interpolation": 2}]}, "channel_mapping": {"Points": [{"co": {"Y": -1, "X": 1}, "interpolation": 2}]}, "anchor": 0, "duration": 15.0, "perspective_c3_y": {"Points": [{"co": {"Y": -1, "X": 1}, "interpolation": 2}]}, "shear_x": {"Points": [{"co": {"Y": 0, "X": 1}, "interpolation": 2}]}, "perspective_c4_x": {"Points": [{"co": {"Y": -1, "X": 1}, "interpolation": 2}]}, "location_y": {"Points": [{"co": {"Y": 0, "X": 1}, "interpolation": 2}]}, "scale_x": {"Points": [{"co": {"Y": 1, "X": 1}, "interpolation": 2}]}, "layer": 0, "perspective_c2_y": {"Points": [{"co": {"Y": -1, "X": 1}, "interpolation": 2}]}, "perspective_c1_x": {"Points": [{"co": {"Y": -1, "X": 1}, "interpolation": 2}]}, "perspective_c4_y": {"Points": [{"co": {"Y": -1, "X": 1}, "interpolation": 2}]}, "reader": {"audio_bit_rate": 0, "has_single_image": false, "vcodec": "h264", "has_video": true, "type": "FFmpegReader", "video_length": "375", "audio_timebase": {"den": 1, "num": 1}, "path": "/home/robsen/Dropbox/Workdir/Repo/SuesseRache-HH-Taxi/taxi_start.mp4", "width": 1920, "has_audio": false, "video_bit_rate": 147692, "channel_layout": 4, "height": 1080, "display_ratio": {"den": 9, "num": 16}, "interlaced_frame": false, "duration": 15.0, "sample_rate": 0, "pixel_format": 0, "video_timebase": {"den": 12800, "num": 1}, "file_size": "276924", "top_field_first": true, "pixel_ratio": {"den": 1, "num": 1}, "acodec": "", "audio_stream_index": -1, "video_stream_index": 0, "channels": 0, "fps": {"den": 1, "num": 25}}, "channel_filter": {"Points": [{"co": {"Y": -1, "X": 1}, "interpolation": 2}]}, "file_id": "LGW3TZJV4Q", "time": {"Points": [{"co": {"Y": 1, "X": 1}, "interpolation": 2}]}}, "value": {"alpha": {"Points": [{"co": {"Y": 1, "X": 1}, "interpolation": 2}, {"handle_right": {"Y": 0, "X": 0.5}, "co": {"Y": 1, "X": 289}, "handle_left": {"Y": 1, "X": 0.5}, "handle_type": 0, "interpolation": 0}, {"handle_right": {"Y": 0, "X": 0.5}, "co": {"Y": 0, "X": 361}, "handle_left": {"Y": 1, "X": 0.5}, "handle_type": 0, "interpolation": 0}]}, "rotation": {"Points": [{"co": {"Y": 0, "X": 1}, "interpolation": 2}]}, "scale_y": {"Points": [{"co": {"Y": 1, "X": 1}, "interpolation": 2}]}, "crop_y": {"Points": [{"co": {"Y": 0, "X": 1}, "interpolation": 2}]}, "crop_width": {"Points": [{"co": {"Y": -1, "X": 1}, "interpolation": 2}]}, "end": 15, "perspective_c3_x": {"Points": [{"co": {"Y": -1, "X": 1}, "interpolation": 2}]}, "position": 8.8, "id": "0AEDFYGQ7J", "wave_color": {"green": {"Points": [{"handle_right": {"Y": 0, "X": 0.5}, "co": {"Y": 123, "X": 1}, "handle_left": {"Y": 1, "X": 0.5}, "handle_type": 0, "interpolation": 0}]}, "blue": {"Points": [{"handle_right": {"Y": 0, "X": 0.5}, "co": {"Y": 255, "X": 1}, "handle_left": {"Y": 1, "X": 0.5}, "handle_type": 0, "interpolation": 0}]}, "alpha": {"Points": [{"handle_right": {"Y": 0, "X": 0.5}, "co": {"Y": 255, "X": 1}, "handle_left": {"Y": 1, "X": 0.5}, "handle_type": 0, "interpolation": 0}]}, "red": {"Points": [{"handle_right": {"Y": 0, "X": 0.5}, "co": {"Y": 0, "X": 1}, "handle_left": {"Y": 1, "X": 0.5}, "handle_type": 0, "interpolation": 0}]}}, "has_video": {"Points": [{"co": {"Y": -1, "X": 1}, "interpolation": 2}]}, "has_audio": {"Points": [{"co": {"Y": -1, "X": 1}, "interpolation": 2}]}, "effects": [], "location_x": {"Points": [{"co": {"Y": 0, "X": 1}, "interpolation": 2}]}, "waveform": false, "title": "taxi_start.mp4", "image": "/home/robsen/.openshot_qt/thumbnail/LGW3TZJV4Q.png", "gravity": 4, "scale_x": {"Points": [{"co": {"Y": 1, "X": 1}, "interpolation": 2}]}, "perspective_c1_y": {"Points": [{"co": {"Y": -1, "X": 1}, "interpolation": 2}]}, "crop_height": {"Points": [{"co": {"Y": -1, "X": 1}, "interpolation": 2}]}, "crop_x": {"Points": [{"co": {"Y": 0, "X": 1}, "interpolation": 2}]}, "start": 0, "scale": 1, "shear_y": {"Points": [{"co": {"Y": 0, "X": 1}, "interpolation": 2}]}, "display": 0, "volume": {"Points": [{"co": {"Y": 1, "X": 1}, "interpolation": 2}]}, "channel_mapping": {"Points": [{"co": {"Y": -1, "X": 1}, "interpolation": 2}]}, "anchor": 0, "duration": 15.0, "perspective_c3_y": {"Points": [{"co": {"Y": -1, "X": 1}, "interpolation": 2}]}, "shear_x": {"Points": [{"co": {"Y": 0, "X": 1}, "interpolation": 2}]}, "perspective_c4_x": {"Points": [{"co": {"Y": -1, "X": 1}, "interpolation": 2}]}, "location_y": {"Points": [{"co": {"Y": 0, "X": 1}, "interpolation": 2}]}, "perspective_c2_x": {"Points": [{"co": {"Y": -1, "X": 1}, "interpolation": 2}]}, "layer": 0, "perspective_c2_y": {"Points": [{"co": {"Y": -1, "X": 1}, "interpolation": 2}]}, "perspective_c1_x": {"Points": [{"co": {"Y": -1, "X": 1}, "interpolation": 2}]}, "perspective_c4_y": {"Points": [{"co": {"Y": -1, "X": 1}, "interpolation": 2}]}, "channel_filter": {"Points": [{"co": {"Y": -1, "X": 1}, "interpolation": 2}]}, "time": {"Points": [{"co": {"Y": 1, "X": 1}, "interpolation": 2}]}, "file_id": "LGW3TZJV4Q"}, "key": ["clips", {"id": "0AEDFYGQ7J"}], "partial": false, "type": "update"}, {"old_values": {"alpha": {"Points": [{"co": {"Y": 1, "X": 1}, "interpolation": 2}, {"handle_right": {"Y": 0, "X": 0.5}, "co": {"Y": 1, "X": 289}, "handle_left": {"Y": 1, "X": 0.5}, "handle_type": 0, "interpolation": 0}, {"handle_right": {"Y": 0, "X": 0.5}, "co": {"Y": 0, "X": 361}, "handle_left": {"Y": 1, "X": 0.5}, "handle_type": 0, "interpolation": 0}]}, "rotation": {"Points": [{"co": {"Y": 0, "X": 1}, "interpolation": 2}]}, "scale_y": {"Points": [{"co": {"Y": 1, "X": 1}, "interpolation": 2}]}, "crop_y": {"Points": [{"co": {"Y": 0, "X": 1}, "interpolation": 2}]}, "perspective_c3_x": {"Points": [{"co": {"Y": -1, "X": 1}, "interpolation": 2}]}, "end": 15, "crop_width": {"Points": [{"co": {"Y": -1, "X": 1}, "interpolation": 2}]}, "position": 8.8, "id": "0AEDFYGQ7J", "wave_color": {"green": {"Points": [{"handle_right": {"Y": 0, "X": 0.5}, "co": {"Y": 123, "X": 1}, "handle_left": {"Y": 1, "X": 0.5}, "handle_type": 0, "interpolation": 0}]}, "blue": {"Points": [{"handle_right": {"Y": 0, "X": 0.5}, "co": {"Y": 255, "X": 1}, "handle_left": {"Y": 1, "X": 0.5}, "handle_type": 0, "interpolation": 0}]}, "alpha": {"Points": [{"handle_right": {"Y": 0, "X": 0.5}, "co": {"Y": 255, "X": 1}, "handle_left": {"Y": 1, "X": 0.5}, "handle_type": 0, "interpolation": 0}]}, "red": {"Points": [{"handle_right": {"Y": 0, "X": 0.5}, "co": {"Y": 0, "X": 1}, "handle_left": {"Y": 1, "X": 0.5}, "handle_type": 0, "interpolation": 0}]}}, "has_video": {"Points": [{"co": {"Y": -1, "X": 1}, "interpolation": 2}]}, "has_audio": {"Points": [{"co": {"Y": -1, "X": 1}, "interpolation": 2}]}, "effects": [], "location_x": {"Points": [{"co": {"Y": 0, "X": 1}, "interpolation": 2}]}, "waveform": false, "title": "taxi_start.mp4", "image": "/home/robsen/.openshot_qt/thumbnail/LGW3TZJV4Q.png", "gravity": 4, "perspective_c2_x": {"Points": [{"co": {"Y": -1, "X": 1}, "interpolation": 2}]}, "perspective_c1_y": {"Points": [{"co": {"Y": -1, "X": 1}, "interpolation": 2}]}, "crop_height": {"Points": [{"co": {"Y": -1, "X": 1}, "interpolation": 2}]}, "crop_x": {"Points": [{"co": {"Y": 0, "X": 1}, "interpolation": 2}]}, "start": 0, "scale": 1, "shear_y": {"Points": [{"co": {"Y": 0, "X": 1}, "interpolation": 2}]}, "display": 0, "volume": {"Points": [{"co": {"Y": 1, "X": 1}, "interpolation": 2}]}, "channel_mapping": {"Points": [{"co": {"Y": -1, "X": 1}, "interpolation": 2}]}, "anchor": 0, "duration": 15.0, "perspective_c3_y": {"Points": [{"co": {"Y": -1, "X": 1}, "interpolation": 2}]}, "shear_x": {"Points": [{"co": {"Y": 0, "X": 1}, "interpolation": 2}]}, "perspective_c4_x": {"Points": [{"co": {"Y": -1, "X": 1}, "interpolation": 2}]}, "location_y": {"Points": [{"co": {"Y": 0, "X": 1}, "interpolation": 2}]}, "scale_x": {"Points": [{"co": {"Y": 1, "X": 1}, "interpolation": 2}]}, "layer": 0, "perspective_c2_y": {"Points": [{"co": {"Y": -1, "X": 1}, "interpolation": 2}]}, "perspective_c1_x": {"Points": [{"co": {"Y": -1, "X": 1}, "interpolation": 2}]}, "perspective_c4_y": {"Points": [{"co": {"Y": -1, "X": 1}, "interpolation": 2}]}, "reader": {"audio_bit_rate": 0, "has_single_image": false, "vcodec": "h264", "has_video": true, "type": "FFmpegReader", "video_length": "375", "audio_timebase": {"den": 1, "num": 1}, "path": "/home/robsen/Dropbox/Workdir/Repo/SuesseRache-HH-Taxi/taxi_start.mp4", "width": 1920, "has_audio": false, "video_bit_rate": 147692, "channel_layout": 4, "height": 1080, "display_ratio": {"den": 9, "num": 16}, "interlaced_frame": false, "duration": 15.0, "sample_rate": 0, "pixel_format": 0, "video_timebase": {"den": 12800, "num": 1}, "file_size": "276924", "top_field_first": true, "pixel_ratio": {"den": 1, "num": 1}, "acodec": "", "audio_stream_index": -1, "video_stream_index": 0, "channels": 0, "fps": {"den": 1, "num": 25}}, "channel_filter": {"Points": [{"co": {"Y": -1, "X": 1}, "interpolation": 2}]}, "file_id": "LGW3TZJV4Q", "time": {"Points": [{"co": {"Y": 1, "X": 1}, "interpolation": 2}]}}, "value": {"alpha": {"Points": [{"co": {"Y": 1, "X": 1}, "interpolation": 2}, {"handle_right": {"Y": 0, "X": 0.5}, "co": {"Y": 1, "X": 289}, "handle_left": {"Y": 1, "X": 0.5}, "handle_type": 0, "interpolation": 0}, {"handle_right": {"Y": 0, "X": 0.5}, "co": {"Y": 0, "X": 361}, "handle_left": {"Y": 1, "X": 0.5}, "handle_type": 0, "interpolation": 0}, {"handle_right": {"Y": 0, "X": 0.5}, "co": {"Y": 0, "X": 1}, "handle_left": {"Y": 1, "X": 0.5}, "handle_type": 0, "interpolation": 0}, {"handle_right": {"Y": 0, "X": 0.5}, "co": {"Y": 1, "X": 73}, "handle_left": {"Y": 1, "X": 0.5}, "handle_type": 0, "interpolation": 0}]}, "rotation": {"Points": [{"co": {"Y": 0, "X": 1}, "interpolation": 2}]}, "scale_y": {"Points": [{"co": {"Y": 1, "X": 1}, "interpolation": 2}]}, "crop_y": {"Points": [{"co": {"Y": 0, "X": 1}, "interpolation": 2}]}, "crop_width": {"Points": [{"co": {"Y": -1, "X": 1}, "interpolation": 2}]}, "end": 15, "perspective_c3_x": {"Points": [{"co": {"Y": -1, "X": 1}, "interpolation": 2}]}, "position": 8.8, "id": "0AEDFYGQ7J", "wave_color": {"green": {"Points": [{"handle_right": {"Y": 0, "X": 0.5}, "co": {"Y": 123, "X": 1}, "handle_left": {"Y": 1, "X": 0.5}, "handle_type": 0, "interpolation": 0}]}, "blue": {"Points": [{"handle_right": {"Y": 0, "X": 0.5}, "co": {"Y": 255, "X": 1}, "handle_left": {"Y": 1, "X": 0.5}, "handle_type": 0, "interpolation": 0}]}, "alpha": {"Points": [{"handle_right": {"Y": 0, "X": 0.5}, "co": {"Y": 255, "X": 1}, "handle_left": {"Y": 1, "X": 0.5}, "handle_type": 0, "interpolation": 0}]}, "red": {"Points": [{"handle_right": {"Y": 0, "X": 0.5}, "co": {"Y": 0, "X": 1}, "handle_left": {"Y": 1, "X": 0.5}, "handle_type": 0, "interpolation": 0}]}}, "has_video": {"Points": [{"co": {"Y": -1, "X": 1}, "interpolation": 2}]}, "has_audio": {"Points": [{"co": {"Y": -1, "X": 1}, "interpolation": 2}]}, "effects": [], "location_x": {"Points": [{"co": {"Y": 0, "X": 1}, "interpolation": 2}]}, "waveform": false, "title": "taxi_start.mp4", "image": "/home/robsen/.openshot_qt/thumbnail/LGW3TZJV4Q.png", "gravity": 4, "scale_x": {"Points": [{"co": {"Y": 1, "X": 1}, "interpolation": 2}]}, "perspective_c1_y": {"Points": [{"co": {"Y": -1, "X": 1}, "interpolation": 2}]}, "crop_height": {"Points": [{"co": {"Y": -1, "X": 1}, "interpolation": 2}]}, "crop_x": {"Points": [{"co": {"Y": 0, "X": 1}, "interpolation": 2}]}, "start": 0, "scale": 1, "shear_y": {"Points": [{"co": {"Y": 0, "X": 1}, "interpolation": 2}]}, "display": 0, "volume": {"Points": [{"co": {"Y": 1, "X": 1}, "interpolation": 2}]}, "channel_mapping": {"Points": [{"co": {"Y": -1, "X": 1}, "interpolation": 2}]}, "anchor": 0, "duration": 15.0, "perspective_c3_y": {"Points": [{"co": {"Y": -1, "X": 1}, "interpolation": 2}]}, "shear_x": {"Points": [{"co": {"Y": 0, "X": 1}, "interpolation": 2}]}, "perspective_c4_x": {"Points": [{"co": {"Y": -1, "X": 1}, "interpolation": 2}]}, "location_y": {"Points": [{"co": {"Y": 0, "X": 1}, "interpolation": 2}]}, "perspective_c2_x": {"Points": [{"co": {"Y": -1, "X": 1}, "interpolation": 2}]}, "layer": 0, "perspective_c2_y": {"Points": [{"co": {"Y": -1, "X": 1}, "interpolation": 2}]}, "perspective_c1_x": {"Points": [{"co": {"Y": -1, "X": 1}, "interpolation": 2}]}, "perspective_c4_y": {"Points": [{"co": {"Y": -1, "X": 1}, "interpolation": 2}]}, "channel_filter": {"Points": [{"co": {"Y": -1, "X": 1}, "interpolation": 2}]}, "time": {"Points": [{"co": {"Y": 1, "X": 1}, "interpolation": 2}]}, "file_id": "LGW3TZJV4Q"}, "key": ["clips", {"id": "0AEDFYGQ7J"}], "partial": false, "type": "update"}, {"old_values": {"alpha": {"Points": [{"co": {"Y": 1, "X": 1}, "interpolation": 2}]}, "rotation": {"Points": [{"co": {"Y": 0, "X": 1}, "interpolation": 2}]}, "scale_y": {"Points": [{"co": {"Y": 1, "X": 1}, "interpolation": 2}]}, "crop_y": {"Points": [{"co": {"Y": 0, "X": 1}, "interpolation": 2}]}, "perspective_c3_x": {"Points": [{"co": {"Y": -1, "X": 1}, "interpolation": 2}]}, "end": 15, "crop_width": {"Points": [{"co": {"Y": -1, "X": 1}, "interpolation": 2}]}, "position": 53.075, "id": "PJWPMFXKV3", "wave_color": {"green": {"Points": [{"handle_right": {"Y": 0, "X": 0.5}, "co": {"Y": 123, "X": 1}, "handle_left": {"Y": 1, "X": 0.5}, "handle_type": 0, "interpolation": 0}]}, "blue": {"Points": [{"handle_right": {"Y": 0, "X": 0.5}, "co": {"Y": 255, "X": 1}, "handle_left": {"Y": 1, "X": 0.5}, "handle_type": 0, "interpolation": 0}]}, "alpha": {"Points": [{"handle_right": {"Y": 0, "X": 0.5}, "co": {"Y": 255, "X": 1}, "handle_left": {"Y": 1, "X": 0.5}, "handle_type": 0, "interpolation": 0}]}, "red": {"Points": [{"handle_right": {"Y": 0, "X": 0.5}, "co": {"Y": 0, "X": 1}, "handle_left": {"Y": 1, "X": 0.5}, "handle_type": 0, "interpolation": 0}]}}, "has_video": {"Points": [{"co": {"Y": -1, "X": 1}, "interpolation": 2}]}, "has_audio": {"Points": [{"co": {"Y": -1, "X": 1}, "interpolation": 2}]}, "effects": [], "location_x": {"Points": [{"co": {"Y": 0, "X": 1}, "interpolation": 2}]}, "waveform": false, "title": "arrow.mp4", "image": "/home/robsen/.openshot_qt/thumbnail/X22V56NF57.png", "gravity": 4, "perspective_c2_x": {"Points": [{"co": {"Y": -1, "X": 1}, "interpolation": 2}]}, "perspective_c1_y": {"Points": [{"co": {"Y": -1, "X": 1}, "interpolation": 2}]}, "crop_height": {"Points": [{"co": {"Y": -1, "X": 1}, "interpolation": 2}]}, "crop_x": {"Points": [{"co": {"Y": 0, "X": 1}, "interpolation": 2}]}, "start": 0, "scale": 1, "shear_y": {"Points": [{"co": {"Y": 0, "X": 1}, "interpolation": 2}]}, "display": 0, "volume": {"Points": [{"co": {"Y": 1, "X": 1}, "interpolation": 2}]}, "channel_mapping": {"Points": [{"co": {"Y": -1, "X": 1}, "interpolation": 2}]}, "anchor": 0, "duration": 15.0, "perspective_c3_y": {"Points": [{"co": {"Y": -1, "X": 1}, "interpolation": 2}]}, "shear_x": {"Points": [{"co": {"Y": 0, "X": 1}, "interpolation": 2}]}, "perspective_c4_x": {"Points": [{"co": {"Y": -1, "X": 1}, "interpolation": 2}]}, "location_y": {"Points": [{"co": {"Y": 0, "X": 1}, "interpolation": 2}]}, "scale_x": {"Points": [{"co": {"Y": 1, "X": 1}, "interpolation": 2}]}, "layer": 2, "perspective_c2_y": {"Points": [{"co": {"Y": -1, "X": 1}, "interpolation": 2}]}, "perspective_c1_x": {"Points": [{"co": {"Y": -1, "X": 1}, "interpolation": 2}]}, "perspective_c4_y": {"Points": [{"co": {"Y": -1, "X": 1}, "interpolation": 2}]}, "reader": {"audio_bit_rate": 0, "has_single_image": false, "vcodec": "h264", "has_video": true, "type": "FFmpegReader", "video_length": "375", "audio_timebase": {"den": 1, "num": 1}, "path": "/home/robsen/Dropbox/Workdir/Repo/SuesseRache-HH-Taxi/arrow.mp4", "width": 1920, "has_audio": false, "video_bit_rate": 83079, "channel_layout": 4, "height": 1080, "display_ratio": {"den": 9, "num": 16}, "interlaced_frame": false, "duration": 15.0, "sample_rate": 0, "pixel_format": 0, "video_timebase": {"den": 12800, "num": 1}, "file_size": "155774", "top_field_first": true, "pixel_ratio": {"den": 1, "num": 1}, "acodec": "", "audio_stream_index": -1, "video_stream_index": 0, "channels": 0, "fps": {"den": 1, "num": 25}}, "channel_filter": {"Points": [{"co": {"Y": -1, "X": 1}, "interpolation": 2}]}, "file_id": "X22V56NF57", "time": {"Points": [{"co": {"Y": 1, "X": 1}, "interpolation": 2}]}}, "value": {"alpha": {"Points": [{"co": {"Y": 1, "X": 1}, "interpolation": 2}, {"handle_right": {"Y": 0, "X": 0.5}, "co": {"Y": 0, "X": 1}, "handle_left": {"Y": 1, "X": 0.5}, "handle_type": 0, "interpolation": 0}, {"handle_right": {"Y": 0, "X": 0.5}, "co": {"Y": 1, "X": 73}, "handle_left": {"Y": 1, "X": 0.5}, "handle_type": 0, "interpolation": 0}]}, "rotation": {"Points": [{"co": {"Y": 0, "X": 1}, "interpolation": 2}]}, "scale_y": {"Points": [{"co": {"Y": 1, "X": 1}, "interpolation": 2}]}, "crop_y": {"Points": [{"co": {"Y": 0, "X": 1}, "interpolation": 2}]}, "crop_width": {"Points": [{"co": {"Y": -1, "X": 1}, "interpolation": 2}]}, "end": 15, "perspective_c3_x": {"Points": [{"co": {"Y": -1, "X": 1}, "interpolation": 2}]}, "position": 53.075, "id": "PJWPMFXKV3", "wave_color": {"green": {"Points": [{"handle_right": {"Y": 0, "X": 0.5}, "co": {"Y": 123, "X": 1}, "handle_left": {"Y": 1, "X": 0.5}, "handle_type": 0, "interpolation": 0}]}, "blue": {"Points": [{"handle_right": {"Y": 0, "X": 0.5}, "co": {"Y": 255, "X": 1}, "handle_left": {"Y": 1, "X": 0.5}, "handle_type": 0, "interpolation": 0}]}, "alpha": {"Points": [{"handle_right": {"Y": 0, "X": 0.5}, "co": {"Y": 255, "X": 1}, "handle_left": {"Y": 1, "X": 0.5}, "handle_type": 0, "interpolation": 0}]}, "red": {"Points": [{"handle_right": {"Y": 0, "X": 0.5}, "co": {"Y": 0, "X": 1}, "handle_left": {"Y": 1, "X": 0.5}, "handle_type": 0, "interpolation": 0}]}}, "has_video": {"Points": [{"co": {"Y": -1, "X": 1}, "interpolation": 2}]}, "has_audio": {"Points": [{"co": {"Y": -1, "X": 1}, "interpolation": 2}]}, "effects": [], "location_x": {"Points": [{"co": {"Y": 0, "X": 1}, "interpolation": 2}]}, "waveform": false, "title": "arrow.mp4", "image": "/home/robsen/.openshot_qt/thumbnail/X22V56NF57.png", "gravity": 4, "scale_x": {"Points": [{"co": {"Y": 1, "X": 1}, "interpolation": 2}]}, "perspective_c1_y": {"Points": [{"co": {"Y": -1, "X": 1}, "interpolation": 2}]}, "crop_height": {"Points": [{"co": {"Y": -1, "X": 1}, "interpolation": 2}]}, "crop_x": {"Points": [{"co": {"Y": 0, "X": 1}, "interpolation": 2}]}, "start": 0, "scale": 1, "shear_y": {"Points": [{"co": {"Y": 0, "X": 1}, "interpolation": 2}]}, "display": 0, "volume": {"Points": [{"co": {"Y": 1, "X": 1}, "interpolation": 2}]}, "channel_mapping": {"Points": [{"co": {"Y": -1, "X": 1}, "interpolation": 2}]}, "anchor": 0, "duration": 15.0, "perspective_c3_y": {"Points": [{"co": {"Y": -1, "X": 1}, "interpolation": 2}]}, "shear_x": {"Points": [{"co": {"Y": 0, "X": 1}, "interpolation": 2}]}, "perspective_c4_x": {"Points": [{"co": {"Y": -1, "X": 1}, "interpolation": 2}]}, "location_y": {"Points": [{"co": {"Y": 0, "X": 1}, "interpolation": 2}]}, "perspective_c2_x": {"Points": [{"co": {"Y": -1, "X": 1}, "interpolation": 2}]}, "layer": 2, "perspective_c2_y": {"Points": [{"co": {"Y": -1, "X": 1}, "interpolation": 2}]}, "perspective_c1_x": {"Points": [{"co": {"Y": -1, "X": 1}, "interpolation": 2}]}, "perspective_c4_y": {"Points": [{"co": {"Y": -1, "X": 1}, "interpolation": 2}]}, "channel_filter": {"Points": [{"co": {"Y": -1, "X": 1}, "interpolation": 2}]}, "time": {"Points": [{"co": {"Y": 1, "X": 1}, "interpolation": 2}]}, "file_id": "X22V56NF57"}, "key": ["clips", {"id": "PJWPMFXKV3"}], "partial": false, "type": "update"}]}, "key": ["history"], "partial": false, "type": "update"}, {"old_values": null, "value": {"redo": [], "undo": [{"old_values": [{"number": 0, "label": "Spur 1", "id": "UBOPYJIV1S", "y": 0}, {"number": 1, "label": "Spur 2", "id": "SHY16ICR2M", "y": 0}], "value": {"number": 2, "y": 0, "label": "", "id": "E44ZNJSI3Z", "lock": false}, "key": ["layers"], "partial": false, "type": "insert"}, {"old_values": [], "value": {"audio_bit_rate": 0, "has_single_image": false, "media_type": "video", "id": "LGW3TZJV4Q", "type": "FFmpegReader", "has_video": true, "video_length": "375", "audio_timebase": {"den": 1, "num": 1}, "path": "/home/robsen/Dropbox/Workdir/Repo/SuesseRache-HH-Taxi/taxi_start.mp4", "width": 1920, "has_audio": false, "video_bit_rate": 147692, "channel_layout": 4, "height": 1080, "vcodec": "h264", "display_ratio": {"den": 9, "num": 16}, "interlaced_frame": false, "duration": 15, "sample_rate": 0, "pixel_format": 0, "video_timebase": {"den": 12800, "num": 1}, "file_size": "276924", "top_field_first": true, "pixel_ratio": {"den": 1, "num": 1}, "acodec": "", "audio_stream_index": -1, "video_stream_index": 0, "channels": 0, "fps": {"den": 1, "num": 25}}, "key": ["files"], "partial": false, "type": "insert"}, {"old_values": [{"audio_bit_rate": 0, "has_single_image": false, "media_type": "video", "id": "LGW3TZJV4Q", "type": "FFmpegReader", "has_video": true, "video_length": "375", "audio_timebase": {"den": 1, "num": 1}, "path": "/home/robsen/Dropbox/Workdir/Repo/SuesseRache-HH-Taxi/taxi_start.mp4", "width": 1920, "has_audio": false, "video_bit_rate": 147692, "channel_layout": 4, "height": 1080, "vcodec": "h264", "display_ratio": {"den": 9, "num": 16}, "interlaced_frame": false, "duration": 15, "sample_rate": 0, "pixel_format": 0, "video_timebase": {"den": 12800, "num": 1}, "file_size": "276924", "top_field_first": true, "pixel_ratio": {"den": 1, "num": 1}, "acodec": "", "audio_stream_index": -1, "video_stream_index": 0, "channels": 0, "fps": {"den": 1, "num": 25}}], "value": {"audio_bit_rate": 189375, "has_single_image": false, "media_type": "video", "id": "Z3LOYBY1PL", "type": "FFmpegReader", "has_video": true, "video_length": "937", "audio_timebase": {"den": 48000, "num": 1}, "path": "/home/robsen/Dropbox/Workdir/Repo/SuesseRache-HH-Taxi/TE_SR_Taxi.mp4", "width": 1920, "has_audio": true, "video_bit_rate": 32091692, "channel_layout": 3, "height": 1080, "vcodec": "h264", "display_ratio": {"den": 9, "num": 16}, "interlaced_frame": false, "duration": 31.317333221435547, "sample_rate": 48000, "pixel_format": 0, "video_timebase": {"den": 29970, "num": 1}, "file_size": "125628279", "top_field_first": true, "pixel_ratio": {"den": 1, "num": 1}, "acodec": "aac", "audio_stream_index": 1, "video_stream_index": 0, "channels": 2, "fps": {"den": 100, "num": 2997}}, "key": ["files"], "partial": false, "type": "insert"}, {"old_values": [{"audio_bit_rate": 0, "has_single_image": false, "media_type": "video", "id": "LGW3TZJV4Q", "type": "FFmpegReader", "has_video": true, "video_length": "375", "audio_timebase": {"den": 1, "num": 1}, "path": "/home/robsen/Dropbox/Workdir/Repo/SuesseRache-HH-Taxi/taxi_start.mp4", "width": 1920, "has_audio": false, "video_bit_rate": 147692, "channel_layout": 4, "height": 1080, "vcodec": "h264", "display_ratio": {"den": 9, "num": 16}, "interlaced_frame": false, "duration": 15, "sample_rate": 0, "pixel_format": 0, "video_timebase": {"den": 12800, "num": 1}, "file_size": "276924", "top_field_first": true, "pixel_ratio": {"den": 1, "num": 1}, "acodec": "", "audio_stream_index": -1, "video_stream_index": 0, "channels": 0, "fps": {"den": 1, "num": 25}}, {"audio_bit_rate": 189375, "has_single_image": false, "media_type": "video", "id": "Z3LOYBY1PL", "type": "FFmpegReader", "has_video": true, "video_length": "937", "audio_timebase": {"den": 48000, "num": 1}, "path": "/home/robsen/Dropbox/Workdir/Repo/SuesseRache-HH-Taxi/TE_SR_Taxi.mp4", "width": 1920, "has_audio": true, "video_bit_rate": 32091692, "channel_layout": 3, "height": 1080, "vcodec": "h264", "display_ratio": {"den": 9, "num": 16}, "interlaced_frame": false, "duration": 31.317333221435547, "sample_rate": 48000, "pixel_format": 0, "video_timebase": {"den": 29970, "num": 1}, "file_size": "125628279", "top_field_first": true, "pixel_ratio": {"den": 1, "num": 1}, "acodec": "aac", "audio_stream_index": 1, "video_stream_index": 0, "channels": 2, "fps": {"den": 100, "num": 2997}}], "value": {"audio_bit_rate": 0, "has_single_image": false, "media_type": "video", "id": "X22V56NF57", "type": "FFmpegReader", "has_video": true, "video_length": "375", "audio_timebase": {"den": 1, "num": 1}, "path": "/home/robsen/Dropbox/Workdir/Repo/SuesseRache-HH-Taxi/arrow.mp4", "width": 1920, "has_audio": false, "video_bit_rate": 83079, "channel_layout": 4, "height": 1080, "vcodec": "h264", "display_ratio": {"den": 9, "num": 16}, "interlaced_frame": false, "duration": 15, "sample_rate": 0, "pixel_format": 0, "video_timebase": {"den": 12800, "num": 1}, "file_size": "155774", "top_field_first": true, "pixel_ratio": {"den": 1, "num": 1}, "acodec": "", "audio_stream_index": -1, "video_stream_index": 0, "channels": 0, "fps": {"den": 1, "num": 25}}, "key": ["files"], "partial": false, "type": "insert"}, {"old_values": [], "value": {"alpha": {"Points": [{"co": {"Y": 1, "X": 1}, "interpolation": 2}, {"handle_right": {"Y": 0, "X": 0.5}, "co": {"Y": 1, "X": 289}, "handle_left": {"Y": 1, "X": 0.5}, "handle_type": 0, "interpolation": 0}, {"handle_right": {"Y": 0, "X": 0.5}, "co": {"Y": 0, "X": 361}, "handle_left": {"Y": 1, "X": 0.5}, "handle_type": 0, "interpolation": 0}, {"handle_right": {"Y": 0, "X": 0.5}, "co": {"Y": 0, "X": 1}, "handle_left": {"Y": 1, "X": 0.5}, "handle_type": 0, "interpolation": 0}, {"handle_right": {"Y": 0, "X": 0.5}, "co": {"Y": 1, "X": 73}, "handle_left": {"Y": 1, "X": 0.5}, "handle_type": 0, "interpolation": 0}]}, "rotation": {"Points": [{"co": {"Y": 0, "X": 1}, "interpolation": 2}]}, "scale_y": {"Points": [{"co": {"Y": 1, "X": 1}, "interpolation": 2}]}, "crop_y": {"Points": [{"co": {"Y": 0, "X": 1}, "interpolation": 2}]}, "perspective_c3_x": {"Points": [{"co": {"Y": -1, "X": 1}, "interpolation": 2}]}, "end": 15, "crop_width": {"Points": [{"co": {"Y": -1, "X": 1}, "interpolation": 2}]}, "position": 8.8, "id": "0AEDFYGQ7J", "wave_color": {"green": {"Points": [{"handle_right": {"Y": 0, "X": 0.5}, "co": {"Y": 123, "X": 1}, "handle_left": {"Y": 1, "X": 0.5}, "handle_type": 0, "interpolation": 0}]}, "blue": {"Points": [{"handle_right": {"Y": 0, "X": 0.5}, "co": {"Y": 255, "X": 1}, "handle_left": {"Y": 1, "X": 0.5}, "handle_type": 0, "interpolation": 0}]}, "alpha": {"Points": [{"handle_right": {"Y": 0, "X": 0.5}, "co": {"Y": 255, "X": 1}, "handle_left": {"Y": 1, "X": 0.5}, "handle_type": 0, "interpolation": 0}]}, "red": {"Points": [{"handle_right": {"Y": 0, "X": 0.5}, "co": {"Y": 0, "X": 1}, "handle_left": {"Y": 1, "X": 0.5}, "handle_type": 0, "interpolation": 0}]}}, "has_video": {"Points": [{"co": {"Y": -1, "X": 1}, "interpolation": 2}]}, "has_audio": {"Points": [{"co": {"Y": -1, "X": 1}, "interpolation": 2}]}, "effects": [], "location_x": {"Points": [{"co": {"Y": 0, "X": 1}, "interpolation": 2}]}, "waveform": false, "title": "taxi_start.mp4", "image": "/home/robsen/.openshot_qt/thumbnail/LGW3TZJV4Q.png", "gravity": 4, "scale_x": {"Points": [{"co": {"Y": 1, "X": 1}, "interpolation": 2}]}, "perspective_c1_y": {"Points": [{"co": {"Y": -1, "X": 1}, "interpolation": 2}]}, "crop_height": {"Points": [{"co": {"Y": -1, "X": 1}, "interpolation": 2}]}, "crop_x": {"Points": [{"co": {"Y": 0, "X": 1}, "interpolation": 2}]}, "start": 0, "scale": 1, "shear_y": {"Points": [{"co": {"Y": 0, "X": 1}, "interpolation": 2}]}, "display": 0, "volume": {"Points": [{"co": {"Y": 1, "X": 1}, "interpolation": 2}]}, "channel_mapping": {"Points": [{"co": {"Y": -1, "X": 1}, "interpolation": 2}]}, "anchor": 0, "duration": 15.0, "perspective_c3_y": {"Points": [{"co": {"Y": -1, "X": 1}, "interpolation": 2}]}, "shear_x": {"Points": [{"co": {"Y": 0, "X": 1}, "interpolation": 2}]}, "perspective_c4_x": {"Points": [{"co": {"Y": -1, "X": 1}, "interpolation": 2}]}, "location_y": {"Points": [{"co": {"Y": 0, "X": 1}, "interpolation": 2}]}, "perspective_c2_x": {"Points": [{"co": {"Y": -1, "X": 1}, "interpolation": 2}]}, "layer": 0, "perspective_c2_y": {"Points": [{"co": {"Y": -1, "X": 1}, "interpolation": 2}]}, "perspective_c1_x": {"Points": [{"co": {"Y": -1, "X": 1}, "interpolation": 2}]}, "perspective_c4_y": {"Points": [{"co": {"Y": -1, "X": 1}, "interpolation": 2}]}, "reader": {"audio_bit_rate": 0, "has_single_image": false, "has_video": true, "type": "FFmpegReader", "video_length": "375", "audio_timebase": {"den": 1, "num": 1}, "path": "/home/robsen/Dropbox/Workdir/Repo/SuesseRache-HH-Taxi/taxi_start.mp4", "width": 1920, "has_audio": false, "video_bit_rate": 147692, "channel_layout": 4, "height": 1080, "display_ratio": {"den": 9, "num": 16}, "interlaced_frame": false, "video_timebase": {"den": 12800, "num": 1}, "duration": 15.0, "sample_rate": 0, "pixel_format": 0, "fps": {"den": 1, "num": 25}, "file_size": "276924", "top_field_first": true, "pixel_ratio": {"den": 1, "num": 1}, "acodec": "", "audio_stream_index": -1, "video_stream_index": 0, "channels": 0, "vcodec": "h264"}, "channel_filter": {"Points": [{"co": {"Y": -1, "X": 1}, "interpolation": 2}]}, "file_id": "LGW3TZJV4Q", "time": {"Points": [{"co": {"Y": 1, "X": 1}, "interpolation": 2}]}}, "key": ["clips"], "partial": false, "type": "insert"}, {"old_values": null, "value": {"id": "0AEDFYGQ7J", "start": 0, "end": 15, "position": 8.8, "layer": 0, "image": "/home/robsen/.openshot_qt/thumbnail/LGW3TZJV4Q.png"}, "key": ["clips", {"id": "0AEDFYGQ7J"}], "partial": false, "type": "update"}, {"old_values": null, "value": {"id": "0AEDFYGQ7J", "start": 0, "end": 15, "position": 8.8, "layer": 0, "image": "/home/robsen/.openshot_qt/thumbnail/LGW3TZJV4Q.png"}, "key": ["clips", {"id": "0AEDFYGQ7J"}], "partial": false, "type": "update"}, {"old_values": [{"alpha": {"Points": [{"co": {"Y": 1, "X": 1}, "interpolation": 2}]}, "rotation": {"Points": [{"co": {"Y": 0, "X": 1}, "interpolation": 2}]}, "scale_y": {"Points": [{"co": {"Y": 1, "X": 1}, "interpolation": 2}]}, "crop_y": {"Points": [{"co": {"Y": 0, "X": 1}, "interpolation": 2}]}, "perspective_c3_x": {"Points": [{"co": {"Y": -1, "X": 1}, "interpolation": 2}]}, "end": 15, "crop_width": {"Points": [{"co": {"Y": -1, "X": 1}, "interpolation": 2}]}, "position": 8.8, "id": "0AEDFYGQ7J", "wave_color": {"green": {"Points": [{"handle_right": {"Y": 0, "X": 0.5}, "co": {"Y": 123, "X": 1}, "handle_left": {"Y": 1, "X": 0.5}, "handle_type": 0, "interpolation": 0}]}, "blue": {"Points": [{"handle_right": {"Y": 0, "X": 0.5}, "co": {"Y": 255, "X": 1}, "handle_left": {"Y": 1, "X": 0.5}, "handle_type": 0, "interpolation": 0}]}, "alpha": {"Points": [{"handle_right": {"Y": 0, "X": 0.5}, "co": {"Y": 255, "X": 1}, "handle_left": {"Y": 1, "X": 0.5}, "handle_type": 0, "interpolation": 0}]}, "red": {"Points": [{"handle_right": {"Y": 0, "X": 0.5}, "co": {"Y": 0, "X": 1}, "handle_left": {"Y": 1, "X": 0.5}, "handle_type": 0, "interpolation": 0}]}}, "has_video": {"Points": [{"co": {"Y": -1, "X": 1}, "interpolation": 2}]}, "has_audio": {"Points": [{"co": {"Y": -1, "X": 1}, "interpolation": 2}]}, "effects": [], "location_x": {"Points": [{"co": {"Y": 0, "X": 1}, "interpolation": 2}]}, "waveform": false, "title": "taxi_start.mp4", "image": "/home/robsen/.openshot_qt/thumbnail/LGW3TZJV4Q.png", "gravity": 4, "perspective_c2_x": {"Points": [{"co": {"Y": -1, "X": 1}, "interpolation": 2}]}, "perspective_c1_y": {"Points": [{"co": {"Y": -1, "X": 1}, "interpolation": 2}]}, "crop_height": {"Points": [{"co": {"Y": -1, "X": 1}, "interpolation": 2}]}, "crop_x": {"Points": [{"co": {"Y": 0, "X": 1}, "interpolation": 2}]}, "start": 0, "scale": 1, "shear_y": {"Points": [{"co": {"Y": 0, "X": 1}, "interpolation": 2}]}, "display": 0, "volume": {"Points": [{"co": {"Y": 1, "X": 1}, "interpolation": 2}]}, "channel_mapping": {"Points": [{"co": {"Y": -1, "X": 1}, "interpolation": 2}]}, "anchor": 0, "duration": 15.0, "perspective_c3_y": {"Points": [{"co": {"Y": -1, "X": 1}, "interpolation": 2}]}, "shear_x": {"Points": [{"co": {"Y": 0, "X": 1}, "interpolation": 2}]}, "perspective_c4_x": {"Points": [{"co": {"Y": -1, "X": 1}, "interpolation": 2}]}, "location_y": {"Points": [{"co": {"Y": 0, "X": 1}, "interpolation": 2}]}, "scale_x": {"Points": [{"co": {"Y": 1, "X": 1}, "interpolation": 2}]}, "layer": 0, "perspective_c2_y": {"Points": [{"co": {"Y": -1, "X": 1}, "interpolation": 2}]}, "perspective_c1_x": {"Points": [{"co": {"Y": -1, "X": 1}, "interpolation": 2}]}, "perspective_c4_y": {"Points": [{"co": {"Y": -1, "X": 1}, "interpolation": 2}]}, "reader": {"audio_bit_rate": 0, "has_single_image": false, "vcodec": "h264", "has_video": true, "type": "FFmpegReader", "video_length": "375", "audio_timebase": {"den": 1, "num": 1}, "path": "/home/robsen/Dropbox/Workdir/Repo/SuesseRache-HH-Taxi/taxi_start.mp4", "width": 1920, "has_audio": false, "video_bit_rate": 147692, "channel_layout": 4, "height": 1080, "display_ratio": {"den": 9, "num": 16}, "interlaced_frame": false, "duration": 15.0, "sample_rate": 0, "pixel_format": 0, "video_timebase": {"den": 12800, "num": 1}, "file_size": "276924", "top_field_first": true, "pixel_ratio": {"den": 1, "num": 1}, "acodec": "", "audio_stream_index": -1, "video_stream_index": 0, "channels": 0, "fps": {"den": 1, "num": 25}}, "channel_filter": {"Points": [{"co": {"Y": -1, "X": 1}, "interpolation": 2}]}, "file_id": "LGW3TZJV4Q", "time": {"Points": [{"co": {"Y": 1, "X": 1}, "interpolation": 2}]}}], "value": {"alpha": {"Points": [{"co": {"Y": 1, "X": 1}, "interpolation": 2}]}, "rotation": {"Points": [{"co": {"Y": 0, "X": 1}, "interpolation": 2}]}, "scale_y": {"Points": [{"co": {"Y": 1, "X": 1}, "interpolation": 2}]}, "crop_y": {"Points": [{"co": {"Y": 0, "X": 1}, "interpolation": 2}]}, "perspective_c3_x": {"Points": [{"co": {"Y": -1, "X": 1}, "interpolation": 2}]}, "end": 31.317333221435547, "crop_width": {"Points": [{"co": {"Y": -1, "X": 1}, "interpolation": 2}]}, "position": 21.76, "id": "627XQDJ3EP", "wave_color": {"green": {"Points": [{"handle_right": {"Y": 0, "X": 0.5}, "co": {"Y": 123, "X": 1}, "handle_left": {"Y": 1, "X": 0.5}, "handle_type": 0, "interpolation": 0}]}, "blue": {"Points": [{"handle_right": {"Y": 0, "X": 0.5}, "co": {"Y": 255, "X": 1}, "handle_left": {"Y": 1, "X": 0.5}, "handle_type": 0, "interpolation": 0}]}, "alpha": {"Points": [{"handle_right": {"Y": 0, "X": 0.5}, "co": {"Y": 255, "X": 1}, "handle_left": {"Y": 1, "X": 0.5}, "handle_type": 0, "interpolation": 0}]}, "red": {"Points": [{"handle_right": {"Y": 0, "X": 0.5}, "co": {"Y": 0, "X": 1}, "handle_left": {"Y": 1, "X": 0.5}, "handle_type": 0, "interpolation": 0}]}}, "has_video": {"Points": [{"co": {"Y": -1, "X": 1}, "interpolation": 2}]}, "has_audio": {"Points": [{"co": {"Y": -1, "X": 1}, "interpolation": 2}]}, "effects": [], "location_x": {"Points": [{"co": {"Y": 0, "X": 1}, "interpolation": 2}]}, "waveform": false, "title": "TE_SR_Taxi.mp4", "image": "/home/robsen/.openshot_qt/thumbnail/Z3LOYBY1PL.png", "gravity": 4, "scale_x": {"Points": [{"co": {"Y": 1, "X": 1}, "interpolation": 2}]}, "perspective_c1_y": {"Points": [{"co": {"Y": -1, "X": 1}, "interpolation": 2}]}, "crop_height": {"Points": [{"co": {"Y": -1, "X": 1}, "interpolation": 2}]}, "crop_x": {"Points": [{"co": {"Y": 0, "X": 1}, "interpolation": 2}]}, "start": 0, "scale": 1, "shear_y": {"Points": [{"co": {"Y": 0, "X": 1}, "interpolation": 2}]}, "display": 0, "volume": {"Points": [{"co": {"Y": 1, "X": 1}, "interpolation": 2}]}, "channel_mapping": {"Points": [{"co": {"Y": -1, "X": 1}, "interpolation": 2}]}, "anchor": 0, "duration": 31.317333221435547, "perspective_c3_y": {"Points": [{"co": {"Y": -1, "X": 1}, "interpolation": 2}]}, "shear_x": {"Points": [{"co": {"Y": 0, "X": 1}, "interpolation": 2}]}, "perspective_c4_x": {"Points": [{"co": {"Y": -1, "X": 1}, "interpolation": 2}]}, "location_y": {"Points": [{"co": {"Y": 0, "X": 1}, "interpolation": 2}]}, "perspective_c2_x": {"Points": [{"co": {"Y": -1, "X": 1}, "interpolation": 2}]}, "layer": 1, "perspective_c2_y": {"Points": [{"co": {"Y": -1, "X": 1}, "interpolation": 2}]}, "perspective_c1_x": {"Points": [{"co": {"Y": -1, "X": 1}, "interpolation": 2}]}, "perspective_c4_y": {"Points": [{"co": {"Y": -1, "X": 1}, "interpolation": 2}]}, "reader": {"audio_bit_rate": 189375, "has_single_image": false, "has_video": true, "type": "FFmpegReader", "video_length": "937", "audio_timebase": {"den": 48000, "num": 1}, "path": "/home/robsen/Dropbox/Workdir/Repo/SuesseRache-HH-Taxi/TE_SR_Taxi.mp4", "width": 1920, "has_audio": true, "video_bit_rate": 32091692, "channel_layout": 3, "height": 1080, "display_ratio": {"den": 9, "num": 16}, "interlaced_frame": false, "video_timebase": {"den": 29970, "num": 1}, "duration": 31.317333221435547, "sample_rate": 48000, "pixel_format": 0, "fps": {"den": 100, "num": 2997}, "file_size": "125628279", "top_field_first": true, "pixel_ratio": {"den": 1, "num": 1}, "acodec": "aac", "audio_stream_index": 1, "video_stream_index": 0, "channels": 2, "vcodec": "h264"}, "channel_filter": {"Points": [{"co": {"Y": -1, "X": 1}, "interpolation": 2}]}, "file_id": "Z3LOYBY1PL", "time": {"Points": [{"co": {"Y": 1, "X": 1}, "interpolation": 2}]}}, "key": ["clips"], "partial": false, "type": "insert"}, {"old_values": {"alpha": {"Points": [{"co": {"Y": 1, "X": 1}, "interpolation": 2}]}, "rotation": {"Points": [{"co": {"Y": 0, "X": 1}, "interpolation": 2}]}, "scale_y": {"Points": [{"co": {"Y": 1, "X": 1}, "interpolation": 2}]}, "crop_y": {"Points": [{"co": {"Y": 0, "X": 1}, "interpolation": 2}]}, "perspective_c3_x": {"Points": [{"co": {"Y": -1, "X": 1}, "interpolation": 2}]}, "end": 31.317333221435547, "crop_width": {"Points": [{"co": {"Y": -1, "X": 1}, "interpolation": 2}]}, "position": 18.88, "id": "627XQDJ3EP", "wave_color": {"green": {"Points": [{"handle_right": {"Y": 0, "X": 0.5}, "co": {"Y": 123, "X": 1}, "handle_left": {"Y": 1, "X": 0.5}, "handle_type": 0, "interpolation": 0}]}, "blue": {"Points": [{"handle_right": {"Y": 0, "X": 0.5}, "co": {"Y": 255, "X": 1}, "handle_left": {"Y": 1, "X": 0.5}, "handle_type": 0, "interpolation": 0}]}, "alpha": {"Points": [{"handle_right": {"Y": 0, "X": 0.5}, "co": {"Y": 255, "X": 1}, "handle_left": {"Y": 1, "X": 0.5}, "handle_type": 0, "interpolation": 0}]}, "red": {"Points": [{"handle_right": {"Y": 0, "X": 0.5}, "co": {"Y": 0, "X": 1}, "handle_left": {"Y": 1, "X": 0.5}, "handle_type": 0, "interpolation": 0}]}}, "has_video": {"Points": [{"co": {"Y": -1, "X": 1}, "interpolation": 2}]}, "has_audio": {"Points": [{"co": {"Y": -1, "X": 1}, "interpolation": 2}]}, "effects": [], "location_x": {"Points": [{"co": {"Y": 0, "X": 1}, "interpolation": 2}]}, "waveform": false, "title": "TE_SR_Taxi.mp4", "image": "/home/robsen/.openshot_qt/thumbnail/Z3LOYBY1PL.png", "gravity": 4, "scale_x": {"Points": [{"co": {"Y": 1, "X": 1}, "interpolation": 2}]}, "perspective_c1_y": {"Points": [{"co": {"Y": -1, "X": 1}, "interpolation": 2}]}, "crop_height": {"Points": [{"co": {"Y": -1, "X": 1}, "interpolation": 2}]}, "crop_x": {"Points": [{"co": {"Y": 0, "X": 1}, "interpolation": 2}]}, "start": 0, "scale": 1, "shear_y": {"Points": [{"co": {"Y": 0, "X": 1}, "interpolation": 2}]}, "display": 0, "volume": {"Points": [{"co": {"Y": 1, "X": 1}, "interpolation": 2}]}, "channel_mapping": {"Points": [{"co": {"Y": -1, "X": 1}, "interpolation": 2}]}, "anchor": 0, "duration": 31.317333221435547, "perspective_c3_y": {"Points": [{"co": {"Y": -1, "X": 1}, "interpolation": 2}]}, "shear_x": {"Points": [{"co": {"Y": 0, "X": 1}, "interpolation": 2}]}, "perspective_c4_x": {"Points": [{"co": {"Y": -1, "X": 1}, "interpolation": 2}]}, "location_y": {"Points": [{"co": {"Y": 0, "X": 1}, "interpolation": 2}]}, "perspective_c2_x": {"Points": [{"co": {"Y": -1, "X": 1}, "interpolation": 2}]}, "layer": 2, "perspective_c2_y": {"Points": [{"co": {"Y": -1, "X": 1}, "interpolation": 2}]}, "perspective_c1_x": {"Points": [{"co": {"Y": -1, "X": 1}, "interpolation": 2}]}, "perspective_c4_y": {"Points": [{"co": {"Y": -1, "X": 1}, "interpolation": 2}]}, "reader": {"audio_bit_rate": 189375, "has_single_image": false, "vcodec": "h264", "has_video": true, "type": "FFmpegReader", "video_length": "937", "audio_timebase": {"den": 48000, "num": 1}, "path": "/home/robsen/Dropbox/Workdir/Repo/SuesseRache-HH-Taxi/TE_SR_Taxi.mp4", "width": 1920, "has_audio": true, "video_bit_rate": 32091692, "channel_layout": 3, "height": 1080, "display_ratio": {"den": 9, "num": 16}, "interlaced_frame": false, "duration": 31.317333221435547, "sample_rate": 48000, "pixel_format": 0, "video_timebase": {"den": 29970, "num": 1}, "file_size": "125628279", "top_field_first": true, "pixel_ratio": {"den": 1, "num": 1}, "acodec": "aac", "audio_stream_index": 1, "video_stream_index": 0, "channels": 2, "fps": {"den": 100, "num": 2997}}, "channel_filter": {"Points": [{"co": {"Y": -1, "X": 1}, "interpolation": 2}]}, "file_id": "Z3LOYBY1PL", "time": {"Points": [{"co": {"Y": 1, "X": 1}, "interpolation": 2}]}}, "value": {"id": "627XQDJ3EP", "start": 0, "end": 31.317333221435547, "position": 21.76, "layer": 0, "image": "/home/robsen/.openshot_qt/thumbnail/Z3LOYBY1PL.png"}, "key": ["clips", {"id": "627XQDJ3EP"}], "partial": false, "type": "update"}, {"old_values": [], "value": {"start": 0, "type": "Mask", "contrast": {"Points": [{"co": {"Y": 3, "X": 1}, "interpolation": 2}]}, "layer": 0, "replace_image": false, "title": "Transition", "end": 2.039999999999999, "reader": {"audio_bit_rate": 0, "has_single_image": true, "has_video": true, "type": "QtImageReader", "video_length": "2592000", "audio_timebase": {"den": 1, "num": 1}, "path": "/usr/lib/python3/dist-packages/openshot_qt/transitions/common/fade.svg", "width": 720, "has_audio": false, "video_bit_rate": 0, "channel_layout": 4, "height": 576, "display_ratio": {"den": 4, "num": 5}, "interlaced_frame": false, "video_timebase": {"den": 30, "num": 1}, "duration": 86400, "sample_rate": 0, "pixel_format": -1, "fps": {"den": 1, "num": 30}, "file_size": "1658880", "top_field_first": true, "pixel_ratio": {"den": 1, "num": 1}, "acodec": "", "audio_stream_index": -1, "video_stream_index": -1, "channels": 0, "vcodec": ""}, "brightness": {"Points": [{"handle_right": {"Y": 0, "X": 0.5}, "co": {"Y": 1, "X": 1}, "handle_left": {"Y": 1, "X": 0.5}, "handle_type": 0, "interpolation": 0}, {"handle_right": {"Y": 0, "X": 0.5}, "co": {"Y": -1, "X": 50}, "handle_left": {"Y": 1, "X": 0.5}, "handle_type": 0, "interpolation": 0}]}, "id": "5NBS5H99MA", "position": 21.76}, "key": ["effects"], "partial": false, "type": "insert"}, {"old_values": {"alpha": {"Points": [{"co": {"Y": 1, "X": 1}, "interpolation": 2}]}, "rotation": {"Points": [{"co": {"Y": 0, "X": 1}, "interpolation": 2}]}, "scale_y": {"Points": [{"co": {"Y": 1, "X": 1}, "interpolation": 2}]}, "crop_y": {"Points": [{"co": {"Y": 0, "X": 1}, "interpolation": 2}]}, "perspective_c3_x": {"Points": [{"co": {"Y": -1, "X": 1}, "interpolation": 2}]}, "end": 31.317333221435547, "crop_width": {"Points": [{"co": {"Y": -1, "X": 1}, "interpolation": 2}]}, "position": 21.76, "id": "627XQDJ3EP", "wave_color": {"green": {"Points": [{"handle_right": {"Y": 0, "X": 0.5}, "co": {"Y": 123, "X": 1}, "handle_left": {"Y": 1, "X": 0.5}, "handle_type": 0, "interpolation": 0}]}, "blue": {"Points": [{"handle_right": {"Y": 0, "X": 0.5}, "co": {"Y": 255, "X": 1}, "handle_left": {"Y": 1, "X": 0.5}, "handle_type": 0, "interpolation": 0}]}, "alpha": {"Points": [{"handle_right": {"Y": 0, "X": 0.5}, "co": {"Y": 255, "X": 1}, "handle_left": {"Y": 1, "X": 0.5}, "handle_type": 0, "interpolation": 0}]}, "red": {"Points": [{"handle_right": {"Y": 0, "X": 0.5}, "co": {"Y": 0, "X": 1}, "handle_left": {"Y": 1, "X": 0.5}, "handle_type": 0, "interpolation": 0}]}}, "has_video": {"Points": [{"co": {"Y": -1, "X": 1}, "interpolation": 2}]}, "has_audio": {"Points": [{"co": {"Y": -1, "X": 1}, "interpolation": 2}]}, "effects": [], "location_x": {"Points": [{"co": {"Y": 0, "X": 1}, "interpolation": 2}]}, "waveform": false, "title": "TE_SR_Taxi.mp4", "image": "/home/robsen/.openshot_qt/thumbnail/Z3LOYBY1PL.png", "gravity": 4, "perspective_c2_x": {"Points": [{"co": {"Y": -1, "X": 1}, "interpolation": 2}]}, "perspective_c1_y": {"Points": [{"co": {"Y": -1, "X": 1}, "interpolation": 2}]}, "crop_height": {"Points": [{"co": {"Y": -1, "X": 1}, "interpolation": 2}]}, "crop_x": {"Points": [{"co": {"Y": 0, "X": 1}, "interpolation": 2}]}, "start": 0, "scale": 1, "shear_y": {"Points": [{"co": {"Y": 0, "X": 1}, "interpolation": 2}]}, "display": 0, "volume": {"Points": [{"co": {"Y": 1, "X": 1}, "interpolation": 2}]}, "channel_mapping": {"Points": [{"co": {"Y": -1, "X": 1}, "interpolation": 2}]}, "anchor": 0, "duration": 31.317333221435547, "perspective_c3_y": {"Points": [{"co": {"Y": -1, "X": 1}, "interpolation": 2}]}, "shear_x": {"Points": [{"co": {"Y": 0, "X": 1}, "interpolation": 2}]}, "perspective_c4_x": {"Points": [{"co": {"Y": -1, "X": 1}, "interpolation": 2}]}, "location_y": {"Points": [{"co": {"Y": 0, "X": 1}, "interpolation": 2}]}, "scale_x": {"Points": [{"co": {"Y": 1, "X": 1}, "interpolation": 2}]}, "layer": 0, "perspective_c2_y": {"Points": [{"co": {"Y": -1, "X": 1}, "interpolation": 2}]}, "perspective_c1_x": {"Points": [{"co": {"Y": -1, "X": 1}, "interpolation": 2}]}, "perspective_c4_y": {"Points": [{"co": {"Y": -1, "X": 1}, "interpolation": 2}]}, "reader": {"audio_bit_rate": 189375, "has_single_image": false, "vcodec": "h264", "has_video": true, "type": "FFmpegReader", "video_length": "937", "audio_timebase": {"den": 48000, "num": 1}, "path": "/home/robsen/Dropbox/Workdir/Repo/SuesseRache-HH-Taxi/TE_SR_Taxi.mp4", "width": 1920, "has_audio": true, "video_bit_rate": 32091692, "channel_layout": 3, "height": 1080, "display_ratio": {"den": 9, "num": 16}, "interlaced_frame": false, "duration": 31.317333221435547, "sample_rate": 48000, "pixel_format": 0, "video_timebase": {"den": 29970, "num": 1}, "file_size": "125628279", "top_field_first": true, "pixel_ratio": {"den": 1, "num": 1}, "acodec": "aac", "audio_stream_index": 1, "video_stream_index": 0, "channels": 2, "fps": {"den": 100, "num": 2997}}, "channel_filter": {"Points": [{"co": {"Y": -1, "X": 1}, "interpolation": 2}]}, "file_id": "Z3LOYBY1PL", "time": {"Points": [{"co": {"Y": 1, "X": 1}, "interpolation": 2}]}}, "value": {"id": "627XQDJ3EP", "start": 0, "end": 31.317333221435547, "position": 21.76, "layer": 1, "image": "/home/robsen/.openshot_qt/thumbnail/Z3LOYBY1PL.png"}, "key": ["clips", {"id": "627XQDJ3EP"}], "partial": false, "type": "update"}, {"old_values": [{"alpha": {"Points": [{"co": {"Y": 1, "X": 1}, "interpolation": 2}]}, "rotation": {"Points": [{"co": {"Y": 0, "X": 1}, "interpolation": 2}]}, "scale_y": {"Points": [{"co": {"Y": 1, "X": 1}, "interpolation": 2}]}, "crop_y": {"Points": [{"co": {"Y": 0, "X": 1}, "interpolation": 2}]}, "perspective_c3_x": {"Points": [{"co": {"Y": -1, "X": 1}, "interpolation": 2}]}, "end": 15, "crop_width": {"Points": [{"co": {"Y": -1, "X": 1}, "interpolation": 2}]}, "position": 8.8, "id": "0AEDFYGQ7J", "wave_color": {"green": {"Points": [{"handle_right": {"Y": 0, "X": 0.5}, "co": {"Y": 123, "X": 1}, "handle_left": {"Y": 1, "X": 0.5}, "handle_type": 0, "interpolation": 0}]}, "blue": {"Points": [{"handle_right": {"Y": 0, "X": 0.5}, "co": {"Y": 255, "X": 1}, "handle_left": {"Y": 1, "X": 0.5}, "handle_type": 0, "interpolation": 0}]}, "alpha": {"Points": [{"handle_right": {"Y": 0, "X": 0.5}, "co": {"Y": 255, "X": 1}, "handle_left": {"Y": 1, "X": 0.5}, "handle_type": 0, "interpolation": 0}]}, "red": {"Points": [{"handle_right": {"Y": 0, "X": 0.5}, "co": {"Y": 0, "X": 1}, "handle_left": {"Y": 1, "X": 0.5}, "handle_type": 0, "interpolation": 0}]}}, "has_video": {"Points": [{"co": {"Y": -1, "X": 1}, "interpolation": 2}]}, "has_audio": {"Points": [{"co": {"Y": -1, "X": 1}, "interpolation": 2}]}, "effects": [], "location_x": {"Points": [{"co": {"Y": 0, "X": 1}, "interpolation": 2}]}, "waveform": false, "title": "taxi_start.mp4", "image": "/home/robsen/.openshot_qt/thumbnail/LGW3TZJV4Q.png", "gravity": 4, "perspective_c2_x": {"Points": [{"co": {"Y": -1, "X": 1}, "interpolation": 2}]}, "perspective_c1_y": {"Points": [{"co": {"Y": -1, "X": 1}, "interpolation": 2}]}, "crop_height": {"Points": [{"co": {"Y": -1, "X": 1}, "interpolation": 2}]}, "crop_x": {"Points": [{"co": {"Y": 0, "X": 1}, "interpolation": 2}]}, "start": 0, "scale": 1, "shear_y": {"Points": [{"co": {"Y": 0, "X": 1}, "interpolation": 2}]}, "display": 0, "volume": {"Points": [{"co": {"Y": 1, "X": 1}, "interpolation": 2}]}, "channel_mapping": {"Points": [{"co": {"Y": -1, "X": 1}, "interpolation": 2}]}, "anchor": 0, "duration": 15.0, "perspective_c3_y": {"Points": [{"co": {"Y": -1, "X": 1}, "interpolation": 2}]}, "shear_x": {"Points": [{"co": {"Y": 0, "X": 1}, "interpolation": 2}]}, "perspective_c4_x": {"Points": [{"co": {"Y": -1, "X": 1}, "interpolation": 2}]}, "location_y": {"Points": [{"co": {"Y": 0, "X": 1}, "interpolation": 2}]}, "scale_x": {"Points": [{"co": {"Y": 1, "X": 1}, "interpolation": 2}]}, "layer": 0, "perspective_c2_y": {"Points": [{"co": {"Y": -1, "X": 1}, "interpolation": 2}]}, "perspective_c1_x": {"Points": [{"co": {"Y": -1, "X": 1}, "interpolation": 2}]}, "perspective_c4_y": {"Points": [{"co": {"Y": -1, "X": 1}, "interpolation": 2}]}, "reader": {"audio_bit_rate": 0, "has_single_image": false, "vcodec": "h264", "has_video": true, "type": "FFmpegReader", "video_length": "375", "audio_timebase": {"den": 1, "num": 1}, "path": "/home/robsen/Dropbox/Workdir/Repo/SuesseRache-HH-Taxi/taxi_start.mp4", "width": 1920, "has_audio": false, "video_bit_rate": 147692, "channel_layout": 4, "height": 1080, "display_ratio": {"den": 9, "num": 16}, "interlaced_frame": false, "duration": 15.0, "sample_rate": 0, "pixel_format": 0, "video_timebase": {"den": 12800, "num": 1}, "file_size": "276924", "top_field_first": true, "pixel_ratio": {"den": 1, "num": 1}, "acodec": "", "audio_stream_index": -1, "video_stream_index": 0, "channels": 0, "fps": {"den": 1, "num": 25}}, "channel_filter": {"Points": [{"co": {"Y": -1, "X": 1}, "interpolation": 2}]}, "file_id": "LGW3TZJV4Q", "time": {"Points": [{"co": {"Y": 1, "X": 1}, "interpolation": 2}]}}, {"alpha": {"Points": [{"co": {"Y": 1, "X": 1}, "interpolation": 2}]}, "rotation": {"Points": [{"co": {"Y": 0, "X": 1}, "interpolation": 2}]}, "scale_y": {"Points": [{"co": {"Y": 1, "X": 1}, "interpolation": 2}]}, "crop_y": {"Points": [{"co": {"Y": 0, "X": 1}, "interpolation": 2}]}, "perspective_c3_x": {"Points": [{"co": {"Y": -1, "X": 1}, "interpolation": 2}]}, "end": 31.317333221435547, "crop_width": {"Points": [{"co": {"Y": -1, "X": 1}, "interpolation": 2}]}, "position": 21.76, "id": "627XQDJ3EP", "wave_color": {"green": {"Points": [{"handle_right": {"Y": 0, "X": 0.5}, "co": {"Y": 123, "X": 1}, "handle_left": {"Y": 1, "X": 0.5}, "handle_type": 0, "interpolation": 0}]}, "blue": {"Points": [{"handle_right": {"Y": 0, "X": 0.5}, "co": {"Y": 255, "X": 1}, "handle_left": {"Y": 1, "X": 0.5}, "handle_type": 0, "interpolation": 0}]}, "alpha": {"Points": [{"handle_right": {"Y": 0, "X": 0.5}, "co": {"Y": 255, "X": 1}, "handle_left": {"Y": 1, "X": 0.5}, "handle_type": 0, "interpolation": 0}]}, "red": {"Points": [{"handle_right": {"Y": 0, "X": 0.5}, "co": {"Y": 0, "X": 1}, "handle_left": {"Y": 1, "X": 0.5}, "handle_type": 0, "interpolation": 0}]}}, "has_video": {"Points": [{"co": {"Y": -1, "X": 1}, "interpolation": 2}]}, "has_audio": {"Points": [{"co": {"Y": -1, "X": 1}, "interpolation": 2}]}, "effects": [], "location_x": {"Points": [{"co": {"Y": 0, "X": 1}, "interpolation": 2}]}, "waveform": false, "title": "TE_SR_Taxi.mp4", "image": "/home/robsen/.openshot_qt/thumbnail/Z3LOYBY1PL.png", "gravity": 4, "perspective_c2_x": {"Points": [{"co": {"Y": -1, "X": 1}, "interpolation": 2}]}, "perspective_c1_y": {"Points": [{"co": {"Y": -1, "X": 1}, "interpolation": 2}]}, "crop_height": {"Points": [{"co": {"Y": -1, "X": 1}, "interpolation": 2}]}, "crop_x": {"Points": [{"co": {"Y": 0, "X": 1}, "interpolation": 2}]}, "start": 0, "scale": 1, "shear_y": {"Points": [{"co": {"Y": 0, "X": 1}, "interpolation": 2}]}, "display": 0, "volume": {"Points": [{"co": {"Y": 1, "X": 1}, "interpolation": 2}]}, "channel_mapping": {"Points": [{"co": {"Y": -1, "X": 1}, "interpolation": 2}]}, "anchor": 0, "duration": 31.317333221435547, "perspective_c3_y": {"Points": [{"co": {"Y": -1, "X": 1}, "interpolation": 2}]}, "shear_x": {"Points": [{"co": {"Y": 0, "X": 1}, "interpolation": 2}]}, "perspective_c4_x": {"Points": [{"co": {"Y": -1, "X": 1}, "interpolation": 2}]}, "location_y": {"Points": [{"co": {"Y": 0, "X": 1}, "interpolation": 2}]}, "scale_x": {"Points": [{"co": {"Y": 1, "X": 1}, "interpolation": 2}]}, "layer": 1, "perspective_c2_y": {"Points": [{"co": {"Y": -1, "X": 1}, "interpolation": 2}]}, "perspective_c1_x": {"Points": [{"co": {"Y": -1, "X": 1}, "interpolation": 2}]}, "perspective_c4_y": {"Points": [{"co": {"Y": -1, "X": 1}, "interpolation": 2}]}, "reader": {"audio_bit_rate": 189375, "has_single_image": false, "vcodec": "h264", "has_video": true, "type": "FFmpegReader", "video_length": "937", "audio_timebase": {"den": 48000, "num": 1}, "path": "/home/robsen/Dropbox/Workdir/Repo/SuesseRache-HH-Taxi/TE_SR_Taxi.mp4", "width": 1920, "has_audio": true, "video_bit_rate": 32091692, "channel_layout": 3, "height": 1080, "display_ratio": {"den": 9, "num": 16}, "interlaced_frame": false, "duration": 31.317333221435547, "sample_rate": 48000, "pixel_format": 0, "video_timebase": {"den": 29970, "num": 1}, "file_size": "125628279", "top_field_first": true, "pixel_ratio": {"den": 1, "num": 1}, "acodec": "aac", "audio_stream_index": 1, "video_stream_index": 0, "channels": 2, "fps": {"den": 100, "num": 2997}}, "channel_filter": {"Points": [{"co": {"Y": -1, "X": 1}, "interpolation": 2}]}, "file_id": "Z3LOYBY1PL", "time": {"Points": [{"co": {"Y": 1, "X": 1}, "interpolation": 2}]}}], "value": {"alpha": {"Points": [{"co": {"Y": 1, "X": 1}, "interpolation": 2}, {"handle_right": {"Y": 0, "X": 0.5}, "co": {"Y": 0, "X": 1}, "handle_left": {"Y": 1, "X": 0.5}, "handle_type": 0, "interpolation": 0}, {"handle_right": {"Y": 0, "X": 0.5}, "co": {"Y": 1, "X": 73}, "handle_left": {"Y": 1, "X": 0.5}, "handle_type": 0, "interpolation": 0}]}, "rotation": {"Points": [{"co": {"Y": 0, "X": 1}, "interpolation": 2}]}, "scale_y": {"Points": [{"co": {"Y": 1, "X": 1}, "interpolation": 2}]}, "crop_y": {"Points": [{"co": {"Y": 0, "X": 1}, "interpolation": 2}]}, "perspective_c3_x": {"Points": [{"co": {"Y": -1, "X": 1}, "interpolation": 2}]}, "end": 15, "crop_width": {"Points": [{"co": {"Y": -1, "X": 1}, "interpolation": 2}]}, "position": 53.075, "id": "PJWPMFXKV3", "wave_color": {"green": {"Points": [{"handle_right": {"Y": 0, "X": 0.5}, "co": {"Y": 123, "X": 1}, "handle_left": {"Y": 1, "X": 0.5}, "handle_type": 0, "interpolation": 0}]}, "blue": {"Points": [{"handle_right": {"Y": 0, "X": 0.5}, "co": {"Y": 255, "X": 1}, "handle_left": {"Y": 1, "X": 0.5}, "handle_type": 0, "interpolation": 0}]}, "alpha": {"Points": [{"handle_right": {"Y": 0, "X": 0.5}, "co": {"Y": 255, "X": 1}, "handle_left": {"Y": 1, "X": 0.5}, "handle_type": 0, "interpolation": 0}]}, "red": {"Points": [{"handle_right": {"Y": 0, "X": 0.5}, "co": {"Y": 0, "X": 1}, "handle_left": {"Y": 1, "X": 0.5}, "handle_type": 0, "interpolation": 0}]}}, "has_video": {"Points": [{"co": {"Y": -1, "X": 1}, "interpolation": 2}]}, "has_audio": {"Points": [{"co": {"Y": -1, "X": 1}, "interpolation": 2}]}, "effects": [], "location_x": {"Points": [{"co": {"Y": 0, "X": 1}, "interpolation": 2}]}, "waveform": false, "title": "arrow.mp4", "image": "/home/robsen/.openshot_qt/thumbnail/X22V56NF57.png", "gravity": 4, "scale_x": {"Points": [{"co": {"Y": 1, "X": 1}, "interpolation": 2}]}, "perspective_c1_y": {"Points": [{"co": {"Y": -1, "X": 1}, "interpolation": 2}]}, "crop_height": {"Points": [{"co": {"Y": -1, "X": 1}, "interpolation": 2}]}, "crop_x": {"Points": [{"co": {"Y": 0, "X": 1}, "interpolation": 2}]}, "start": 0, "scale": 1, "shear_y": {"Points": [{"co": {"Y": 0, "X": 1}, "interpolation": 2}]}, "display": 0, "volume": {"Points": [{"co": {"Y": 1, "X": 1}, "interpolation": 2}]}, "channel_mapping": {"Points": [{"co": {"Y": -1, "X": 1}, "interpolation": 2}]}, "anchor": 0, "duration": 15.0, "perspective_c3_y": {"Points": [{"co": {"Y": -1, "X": 1}, "interpolation": 2}]}, "shear_x": {"Points": [{"co": {"Y": 0, "X": 1}, "interpolation": 2}]}, "perspective_c4_x": {"Points": [{"co": {"Y": -1, "X": 1}, "interpolation": 2}]}, "location_y": {"Points": [{"co": {"Y": 0, "X": 1}, "interpolation": 2}]}, "perspective_c2_x": {"Points": [{"co": {"Y": -1, "X": 1}, "interpolation": 2}]}, "layer": 2, "perspective_c2_y": {"Points": [{"co": {"Y": -1, "X": 1}, "interpolation": 2}]}, "perspective_c1_x": {"Points": [{"co": {"Y": -1, "X": 1}, "interpolation": 2}]}, "perspective_c4_y": {"Points": [{"co": {"Y": -1, "X": 1}, "interpolation": 2}]}, "reader": {"audio_bit_rate": 0, "has_single_image": false, "has_video": true, "type": "FFmpegReader", "video_length": "375", "audio_timebase": {"den": 1, "num": 1}, "path": "/home/robsen/Dropbox/Workdir/Repo/SuesseRache-HH-Taxi/arrow.mp4", "width": 1920, "has_audio": false, "video_bit_rate": 83079, "channel_layout": 4, "height": 1080, "display_ratio": {"den": 9, "num": 16}, "interlaced_frame": false, "video_timebase": {"den": 12800, "num": 1}, "duration": 15.0, "sample_rate": 0, "pixel_format": 0, "fps": {"den": 1, "num": 25}, "file_size": "155774", "top_field_first": true, "pixel_ratio": {"den": 1, "num": 1}, "acodec": "", "audio_stream_index": -1, "video_stream_index": 0, "channels": 0, "vcodec": "h264"}, "channel_filter": {"Points": [{"co": {"Y": -1, "X": 1}, "interpolation": 2}]}, "file_id": "X22V56NF57", "time": {"Points": [{"co": {"Y": 1, "X": 1}, "interpolation": 2}]}}, "key": ["clips"], "partial": false, "type": "insert"}, {"old_values": {"alpha": {"Points": [{"co": {"Y": 1, "X": 1}, "interpolation": 2}]}, "rotation": {"Points": [{"co": {"Y": 0, "X": 1}, "interpolation": 2}]}, "scale_y": {"Points": [{"co": {"Y": 1, "X": 1}, "interpolation": 2}]}, "crop_y": {"Points": [{"co": {"Y": 0, "X": 1}, "interpolation": 2}]}, "perspective_c3_x": {"Points": [{"co": {"Y": -1, "X": 1}, "interpolation": 2}]}, "end": 15.0, "crop_width": {"Points": [{"co": {"Y": -1, "X": 1}, "interpolation": 2}]}, "position": 62.88, "id": "PJWPMFXKV3", "wave_color": {"green": {"Points": [{"handle_right": {"Y": 0, "X": 0.5}, "co": {"Y": 123, "X": 1}, "handle_left": {"Y": 1, "X": 0.5}, "handle_type": 0, "interpolation": 0}]}, "blue": {"Points": [{"handle_right": {"Y": 0, "X": 0.5}, "co": {"Y": 255, "X": 1}, "handle_left": {"Y": 1, "X": 0.5}, "handle_type": 0, "interpolation": 0}]}, "alpha": {"Points": [{"handle_right": {"Y": 0, "X": 0.5}, "co": {"Y": 255, "X": 1}, "handle_left": {"Y": 1, "X": 0.5}, "handle_type": 0, "interpolation": 0}]}, "red": {"Points": [{"handle_right": {"Y": 0, "X": 0.5}, "co": {"Y": 0, "X": 1}, "handle_left": {"Y": 1, "X": 0.5}, "handle_type": 0, "interpolation": 0}]}}, "has_video": {"Points": [{"co": {"Y": -1, "X": 1}, "interpolation": 2}]}, "has_audio": {"Points": [{"co": {"Y": -1, "X": 1}, "interpolation": 2}]}, "effects": [], "location_x": {"Points": [{"co": {"Y": 0, "X": 1}, "interpolation": 2}]}, "waveform": false, "title": "arrow.mp4", "image": "/home/robsen/.openshot_qt/thumbnail/X22V56NF57.png", "gravity": 4, "scale_x": {"Points": [{"co": {"Y": 1, "X": 1}, "interpolation": 2}]}, "perspective_c1_y": {"Points": [{"co": {"Y": -1, "X": 1}, "interpolation": 2}]}, "crop_height": {"Points": [{"co": {"Y": -1, "X": 1}, "interpolation": 2}]}, "crop_x": {"Points": [{"co": {"Y": 0, "X": 1}, "interpolation": 2}]}, "start": 0, "scale": 1, "shear_y": {"Points": [{"co": {"Y": 0, "X": 1}, "interpolation": 2}]}, "display": 0, "volume": {"Points": [{"co": {"Y": 1, "X": 1}, "interpolation": 2}]}, "channel_mapping": {"Points": [{"co": {"Y": -1, "X": 1}, "interpolation": 2}]}, "anchor": 0, "duration": 15.0, "perspective_c3_y": {"Points": [{"co": {"Y": -1, "X": 1}, "interpolation": 2}]}, "shear_x": {"Points": [{"co": {"Y": 0, "X": 1}, "interpolation": 2}]}, "perspective_c4_x": {"Points": [{"co": {"Y": -1, "X": 1}, "interpolation": 2}]}, "location_y": {"Points": [{"co": {"Y": 0, "X": 1}, "interpolation": 2}]}, "perspective_c2_x": {"Points": [{"co": {"Y": -1, "X": 1}, "interpolation": 2}]}, "layer": 2, "perspective_c2_y": {"Points": [{"co": {"Y": -1, "X": 1}, "interpolation": 2}]}, "perspective_c1_x": {"Points": [{"co": {"Y": -1, "X": 1}, "interpolation": 2}]}, "perspective_c4_y": {"Points": [{"co": {"Y": -1, "X": 1}, "interpolation": 2}]}, "reader": {"audio_bit_rate": 0, "has_single_image": false, "vcodec": "h264", "has_video": true, "type": "FFmpegReader", "video_length": "375", "audio_timebase": {"den": 1, "num": 1}, "path": "/home/robsen/Dropbox/Workdir/Repo/SuesseRache-HH-Taxi/arrow.mp4", "width": 1920, "has_audio": false, "video_bit_rate": 83079, "channel_layout": 4, "height": 1080, "display_ratio": {"den": 9, "num": 16}, "interlaced_frame": false, "duration": 15.0, "sample_rate": 0, "pixel_format": 0, "video_timebase": {"den": 12800, "num": 1}, "file_size": "155774", "top_field_first": true, "pixel_ratio": {"den": 1, "num": 1}, "acodec": "", "audio_stream_index": -1, "video_stream_index": 0, "channels": 0, "fps": {"den": 1, "num": 25}}, "channel_filter": {"Points": [{"co": {"Y": -1, "X": 1}, "interpolation": 2}]}, "file_id": "X22V56NF57", "time": {"Points": [{"co": {"Y": 1, "X": 1}, "interpolation": 2}]}}, "value": {"id": "PJWPMFXKV3", "start": 0, "end": 15, "position": 63.04, "layer": 1, "image": "/home/robsen/.openshot_qt/thumbnail/X22V56NF57.png"}, "key": ["clips", {"id": "PJWPMFXKV3"}], "partial": false, "type": "update"}, {"old_values": {"alpha": {"Points": [{"co": {"Y": 1, "X": 1}, "interpolation": 2}]}, "rotation": {"Points": [{"co": {"Y": 0, "X": 1}, "interpolation": 2}]}, "scale_y": {"Points": [{"co": {"Y": 1, "X": 1}, "interpolation": 2}]}, "crop_y": {"Points": [{"co": {"Y": 0, "X": 1}, "interpolation": 2}]}, "perspective_c3_x": {"Points": [{"co": {"Y": -1, "X": 1}, "interpolation": 2}]}, "end": 15, "crop_width": {"Points": [{"co": {"Y": -1, "X": 1}, "interpolation": 2}]}, "position": 63.04, "id": "PJWPMFXKV3", "wave_color": {"green": {"Points": [{"handle_right": {"Y": 0, "X": 0.5}, "co": {"Y": 123, "X": 1}, "handle_left": {"Y": 1, "X": 0.5}, "handle_type": 0, "interpolation": 0}]}, "blue": {"Points": [{"handle_right": {"Y": 0, "X": 0.5}, "co": {"Y": 255, "X": 1}, "handle_left": {"Y": 1, "X": 0.5}, "handle_type": 0, "interpolation": 0}]}, "alpha": {"Points": [{"handle_right": {"Y": 0, "X": 0.5}, "co": {"Y": 255, "X": 1}, "handle_left": {"Y": 1, "X": 0.5}, "handle_type": 0, "interpolation": 0}]}, "red": {"Points": [{"handle_right": {"Y": 0, "X": 0.5}, "co": {"Y": 0, "X": 1}, "handle_left": {"Y": 1, "X": 0.5}, "handle_type": 0, "interpolation": 0}]}}, "has_video": {"Points": [{"co": {"Y": -1, "X": 1}, "interpolation": 2}]}, "has_audio": {"Points": [{"co": {"Y": -1, "X": 1}, "interpolation": 2}]}, "effects": [], "location_x": {"Points": [{"co": {"Y": 0, "X": 1}, "interpolation": 2}]}, "waveform": false, "title": "arrow.mp4", "image": "/home/robsen/.openshot_qt/thumbnail/X22V56NF57.png", "gravity": 4, "perspective_c2_x": {"Points": [{"co": {"Y": -1, "X": 1}, "interpolation": 2}]}, "perspective_c1_y": {"Points": [{"co": {"Y": -1, "X": 1}, "interpolation": 2}]}, "crop_height": {"Points": [{"co": {"Y": -1, "X": 1}, "interpolation": 2}]}, "crop_x": {"Points": [{"co": {"Y": 0, "X": 1}, "interpolation": 2}]}, "start": 0, "scale": 1, "shear_y": {"Points": [{"co": {"Y": 0, "X": 1}, "interpolation": 2}]}, "display": 0, "volume": {"Points": [{"co": {"Y": 1, "X": 1}, "interpolation": 2}]}, "channel_mapping": {"Points": [{"co": {"Y": -1, "X": 1}, "interpolation": 2}]}, "anchor": 0, "duration": 15.0, "perspective_c3_y": {"Points": [{"co": {"Y": -1, "X": 1}, "interpolation": 2}]}, "shear_x": {"Points": [{"co": {"Y": 0, "X": 1}, "interpolation": 2}]}, "perspective_c4_x": {"Points": [{"co": {"Y": -1, "X": 1}, "interpolation": 2}]}, "location_y": {"Points": [{"co": {"Y": 0, "X": 1}, "interpolation": 2}]}, "scale_x": {"Points": [{"co": {"Y": 1, "X": 1}, "interpolation": 2}]}, "layer": 1, "perspective_c2_y": {"Points": [{"co": {"Y": -1, "X": 1}, "interpolation": 2}]}, "perspective_c1_x": {"Points": [{"co": {"Y": -1, "X": 1}, "interpolation": 2}]}, "perspective_c4_y": {"Points": [{"co": {"Y": -1, "X": 1}, "interpolation": 2}]}, "reader": {"audio_bit_rate": 0, "has_single_image": false, "vcodec": "h264", "has_video": true, "type": "FFmpegReader", "video_length": "375", "audio_timebase": {"den": 1, "num": 1}, "path": "/home/robsen/Dropbox/Workdir/Repo/SuesseRache-HH-Taxi/arrow.mp4", "width": 1920, "has_audio": false, "video_bit_rate": 83079, "channel_layout": 4, "height": 1080, "display_ratio": {"den": 9, "num": 16}, "interlaced_frame": false, "duration": 15.0, "sample_rate": 0, "pixel_format": 0, "video_timebase": {"den": 12800, "num": 1}, "file_size": "155774", "top_field_first": true, "pixel_ratio": {"den": 1, "num": 1}, "acodec": "", "audio_stream_index": -1, "video_stream_index": 0, "channels": 0, "fps": {"den": 1, "num": 25}}, "channel_filter": {"Points": [{"co": {"Y": -1, "X": 1}, "interpolation": 2}]}, "file_id": "X22V56NF57", "time": {"Points": [{"co": {"Y": 1, "X": 1}, "interpolation": 2}]}}, "value": {"id": "PJWPMFXKV3", "start": 0, "end": 15, "position": 53.075, "layer": 2, "image": "/home/robsen/.openshot_qt/thumbnail/X22V56NF57.png"}, "key": ["clips", {"id": "PJWPMFXKV3"}], "partial": false, "type": "update"}, {"old_values": {"start": 0, "type": "Mask", "contrast": {"Points": [{"co": {"Y": 3, "X": 1}, "interpolation": 2}]}, "layer": 0, "replace_image": false, "title": "Transition", "end": 2.039999999999999, "reader": {"audio_bit_rate": 0, "has_single_image": true, "vcodec": "", "has_video": true, "type": "QtImageReader", "video_length": "2592000", "audio_timebase": {"den": 1, "num": 1}, "path": "/usr/lib/python3/dist-packages/openshot_qt/transitions/common/fade.svg", "width": 720, "has_audio": false, "video_bit_rate": 0, "channel_layout": 4, "height": 576, "display_ratio": {"den": 4, "num": 5}, "interlaced_frame": false, "duration": 86400, "sample_rate": 0, "pixel_format": -1, "video_timebase": {"den": 30, "num": 1}, "file_size": "1658880", "top_field_first": true, "pixel_ratio": {"den": 1, "num": 1}, "acodec": "", "audio_stream_index": -1, "video_stream_index": -1, "channels": 0, "fps": {"den": 1, "num": 30}}, "brightness": {"Points": [{"handle_right": {"Y": 0, "X": 0.5}, "co": {"Y": 1, "X": 1}, "handle_left": {"Y": 1, "X": 0.5}, "handle_type": 0, "interpolation": 0}, {"handle_right": {"Y": 0, "X": 0.5}, "co": {"Y": -1, "X": 50}, "handle_left": {"Y": 1, "X": 0.5}, "handle_type": 0, "interpolation": 0}]}, "id": "5NBS5H99MA", "position": 21.76}, "value": null, "key": ["effects", {"id": "5NBS5H99MA"}], "partial": false, "type": "delete"}, {"old_values": {"alpha": {"Points": [{"co": {"Y": 1, "X": 1}, "interpolation": 2}]}, "rotation": {"Points": [{"co": {"Y": 0, "X": 1}, "interpolation": 2}]}, "scale_y": {"Points": [{"co": {"Y": 1, "X": 1}, "interpolation": 2}]}, "crop_y": {"Points": [{"co": {"Y": 0, "X": 1}, "interpolation": 2}]}, "perspective_c3_x": {"Points": [{"co": {"Y": -1, "X": 1}, "interpolation": 2}]}, "end": 15, "crop_width": {"Points": [{"co": {"Y": -1, "X": 1}, "interpolation": 2}]}, "position": 8.8, "id": "0AEDFYGQ7J", "wave_color": {"green": {"Points": [{"handle_right": {"Y": 0, "X": 0.5}, "co": {"Y": 123, "X": 1}, "handle_left": {"Y": 1, "X": 0.5}, "handle_type": 0, "interpolation": 0}]}, "blue": {"Points": [{"handle_right": {"Y": 0, "X": 0.5}, "co": {"Y": 255, "X": 1}, "handle_left": {"Y": 1, "X": 0.5}, "handle_type": 0, "interpolation": 0}]}, "alpha": {"Points": [{"handle_right": {"Y": 0, "X": 0.5}, "co": {"Y": 255, "X": 1}, "handle_left": {"Y": 1, "X": 0.5}, "handle_type": 0, "interpolation": 0}]}, "red": {"Points": [{"handle_right": {"Y": 0, "X": 0.5}, "co": {"Y": 0, "X": 1}, "handle_left": {"Y": 1, "X": 0.5}, "handle_type": 0, "interpolation": 0}]}}, "has_video": {"Points": [{"co": {"Y": -1, "X": 1}, "interpolation": 2}]}, "has_audio": {"Points": [{"co": {"Y": -1, "X": 1}, "interpolation": 2}]}, "effects": [], "location_x": {"Points": [{"co": {"Y": 0, "X": 1}, "interpolation": 2}]}, "waveform": false, "title": "taxi_start.mp4", "image": "/home/robsen/.openshot_qt/thumbnail/LGW3TZJV4Q.png", "gravity": 4, "perspective_c2_x": {"Points": [{"co": {"Y": -1, "X": 1}, "interpolation": 2}]}, "perspective_c1_y": {"Points": [{"co": {"Y": -1, "X": 1}, "interpolation": 2}]}, "crop_height": {"Points": [{"co": {"Y": -1, "X": 1}, "interpolation": 2}]}, "crop_x": {"Points": [{"co": {"Y": 0, "X": 1}, "interpolation": 2}]}, "start": 0, "scale": 1, "shear_y": {"Points": [{"co": {"Y": 0, "X": 1}, "interpolation": 2}]}, "display": 0, "volume": {"Points": [{"co": {"Y": 1, "X": 1}, "interpolation": 2}]}, "channel_mapping": {"Points": [{"co": {"Y": -1, "X": 1}, "interpolation": 2}]}, "anchor": 0, "duration": 15.0, "perspective_c3_y": {"Points": [{"co": {"Y": -1, "X": 1}, "interpolation": 2}]}, "shear_x": {"Points": [{"co": {"Y": 0, "X": 1}, "interpolation": 2}]}, "perspective_c4_x": {"Points": [{"co": {"Y": -1, "X": 1}, "interpolation": 2}]}, "location_y": {"Points": [{"co": {"Y": 0, "X": 1}, "interpolation": 2}]}, "scale_x": {"Points": [{"co": {"Y": 1, "X": 1}, "interpolation": 2}]}, "layer": 0, "perspective_c2_y": {"Points": [{"co": {"Y": -1, "X": 1}, "interpolation": 2}]}, "perspective_c1_x": {"Points": [{"co": {"Y": -1, "X": 1}, "interpolation": 2}]}, "perspective_c4_y": {"Points": [{"co": {"Y": -1, "X": 1}, "interpolation": 2}]}, "reader": {"audio_bit_rate": 0, "has_single_image": false, "vcodec": "h264", "has_video": true, "type": "FFmpegReader", "video_length": "375", "audio_timebase": {"den": 1, "num": 1}, "path": "/home/robsen/Dropbox/Workdir/Repo/SuesseRache-HH-Taxi/taxi_start.mp4", "width": 1920, "has_audio": false, "video_bit_rate": 147692, "channel_layout": 4, "height": 1080, "display_ratio": {"den": 9, "num": 16}, "interlaced_frame": false, "duration": 15.0, "sample_rate": 0, "pixel_format": 0, "video_timebase": {"den": 12800, "num": 1}, "file_size": "276924", "top_field_first": true, "pixel_ratio": {"den": 1, "num": 1}, "acodec": "", "audio_stream_index": -1, "video_stream_index": 0, "channels": 0, "fps": {"den": 1, "num": 25}}, "channel_filter": {"Points": [{"co": {"Y": -1, "X": 1}, "interpolation": 2}]}, "file_id": "LGW3TZJV4Q", "time": {"Points": [{"co": {"Y": 1, "X": 1}, "interpolation": 2}]}}, "value": {"alpha": {"Points": [{"co": {"Y": 1, "X": 1}, "interpolation": 2}, {"handle_right": {"Y": 0, "X": 0.5}, "co": {"Y": 1, "X": 289}, "handle_left": {"Y": 1, "X": 0.5}, "handle_type": 0, "interpolation": 0}, {"handle_right": {"Y": 0, "X": 0.5}, "co": {"Y": 0, "X": 361}, "handle_left": {"Y": 1, "X": 0.5}, "handle_type": 0, "interpolation": 0}]}, "rotation": {"Points": [{"co": {"Y": 0, "X": 1}, "interpolation": 2}]}, "scale_y": {"Points": [{"co": {"Y": 1, "X": 1}, "interpolation": 2}]}, "crop_y": {"Points": [{"co": {"Y": 0, "X": 1}, "interpolation": 2}]}, "crop_width": {"Points": [{"co": {"Y": -1, "X": 1}, "interpolation": 2}]}, "end": 15, "perspective_c3_x": {"Points": [{"co": {"Y": -1, "X": 1}, "interpolation": 2}]}, "position": 8.8, "id": "0AEDFYGQ7J", "wave_color": {"green": {"Points": [{"handle_right": {"Y": 0, "X": 0.5}, "co": {"Y": 123, "X": 1}, "handle_left": {"Y": 1, "X": 0.5}, "handle_type": 0, "interpolation": 0}]}, "blue": {"Points": [{"handle_right": {"Y": 0, "X": 0.5}, "co": {"Y": 255, "X": 1}, "handle_left": {"Y": 1, "X": 0.5}, "handle_type": 0, "interpolation": 0}]}, "alpha": {"Points": [{"handle_right": {"Y": 0, "X": 0.5}, "co": {"Y": 255, "X": 1}, "handle_left": {"Y": 1, "X": 0.5}, "handle_type": 0, "interpolation": 0}]}, "red": {"Points": [{"handle_right": {"Y": 0, "X": 0.5}, "co": {"Y": 0, "X": 1}, "handle_left": {"Y": 1, "X": 0.5}, "handle_type": 0, "interpolation": 0}]}}, "has_video": {"Points": [{"co": {"Y": -1, "X": 1}, "interpolation": 2}]}, "has_audio": {"Points": [{"co": {"Y": -1, "X": 1}, "interpolation": 2}]}, "effects": [], "location_x": {"Points": [{"co": {"Y": 0, "X": 1}, "interpolation": 2}]}, "waveform": false, "title": "taxi_start.mp4", "image": "/home/robsen/.openshot_qt/thumbnail/LGW3TZJV4Q.png", "gravity": 4, "scale_x": {"Points": [{"co": {"Y": 1, "X": 1}, "interpolation": 2}]}, "perspective_c1_y": {"Points": [{"co": {"Y": -1, "X": 1}, "interpolation": 2}]}, "crop_height": {"Points": [{"co": {"Y": -1, "X": 1}, "interpolation": 2}]}, "crop_x": {"Points": [{"co": {"Y": 0, "X": 1}, "interpolation": 2}]}, "start": 0, "scale": 1, "shear_y": {"Points": [{"co": {"Y": 0, "X": 1}, "interpolation": 2}]}, "display": 0, "volume": {"Points": [{"co": {"Y": 1, "X": 1}, "interpolation": 2}]}, "channel_mapping": {"Points": [{"co": {"Y": -1, "X": 1}, "interpolation": 2}]}, "anchor": 0, "duration": 15.0, "perspective_c3_y": {"Points": [{"co": {"Y": -1, "X": 1}, "interpolation": 2}]}, "shear_x": {"Points": [{"co": {"Y": 0, "X": 1}, "interpolation": 2}]}, "perspective_c4_x": {"Points": [{"co": {"Y": -1, "X": 1}, "interpolation": 2}]}, "location_y": {"Points": [{"co": {"Y": 0, "X": 1}, "interpolation": 2}]}, "perspective_c2_x": {"Points": [{"co": {"Y": -1, "X": 1}, "interpolation": 2}]}, "layer": 0, "perspective_c2_y": {"Points": [{"co": {"Y": -1, "X": 1}, "interpolation": 2}]}, "perspective_c1_x": {"Points": [{"co": {"Y": -1, "X": 1}, "interpolation": 2}]}, "perspective_c4_y": {"Points": [{"co": {"Y": -1, "X": 1}, "interpolation": 2}]}, "channel_filter": {"Points": [{"co": {"Y": -1, "X": 1}, "interpolation": 2}]}, "time": {"Points": [{"co": {"Y": 1, "X": 1}, "interpolation": 2}]}, "file_id": "LGW3TZJV4Q"}, "key": ["clips", {"id": "0AEDFYGQ7J"}], "partial": false, "type": "update"}, {"old_values": {"alpha": {"Points": [{"co": {"Y": 1, "X": 1}, "interpolation": 2}, {"handle_right": {"Y": 0, "X": 0.5}, "co": {"Y": 1, "X": 289}, "handle_left": {"Y": 1, "X": 0.5}, "handle_type": 0, "interpolation": 0}, {"handle_right": {"Y": 0, "X": 0.5}, "co": {"Y": 0, "X": 361}, "handle_left": {"Y": 1, "X": 0.5}, "handle_type": 0, "interpolation": 0}]}, "rotation": {"Points": [{"co": {"Y": 0, "X": 1}, "interpolation": 2}]}, "scale_y": {"Points": [{"co": {"Y": 1, "X": 1}, "interpolation": 2}]}, "crop_y": {"Points": [{"co": {"Y": 0, "X": 1}, "interpolation": 2}]}, "perspective_c3_x": {"Points": [{"co": {"Y": -1, "X": 1}, "interpolation": 2}]}, "end": 15, "crop_width": {"Points": [{"co": {"Y": -1, "X": 1}, "interpolation": 2}]}, "position": 8.8, "id": "0AEDFYGQ7J", "wave_color": {"green": {"Points": [{"handle_right": {"Y": 0, "X": 0.5}, "co": {"Y": 123, "X": 1}, "handle_left": {"Y": 1, "X": 0.5}, "handle_type": 0, "interpolation": 0}]}, "blue": {"Points": [{"handle_right": {"Y": 0, "X": 0.5}, "co": {"Y": 255, "X": 1}, "handle_left": {"Y": 1, "X": 0.5}, "handle_type": 0, "interpolation": 0}]}, "alpha": {"Points": [{"handle_right": {"Y": 0, "X": 0.5}, "co": {"Y": 255, "X": 1}, "handle_left": {"Y": 1, "X": 0.5}, "handle_type": 0, "interpolation": 0}]}, "red": {"Points": [{"handle_right": {"Y": 0, "X": 0.5}, "co": {"Y": 0, "X": 1}, "handle_left": {"Y": 1, "X": 0.5}, "handle_type": 0, "interpolation": 0}]}}, "has_video": {"Points": [{"co": {"Y": -1, "X": 1}, "interpolation": 2}]}, "has_audio": {"Points": [{"co": {"Y": -1, "X": 1}, "interpolation": 2}]}, "effects": [], "location_x": {"Points": [{"co": {"Y": 0, "X": 1}, "interpolation": 2}]}, "waveform": false, "title": "taxi_start.mp4", "image": "/home/robsen/.openshot_qt/thumbnail/LGW3TZJV4Q.png", "gravity": 4, "perspective_c2_x": {"Points": [{"co": {"Y": -1, "X": 1}, "interpolation": 2}]}, "perspective_c1_y": {"Points": [{"co": {"Y": -1, "X": 1}, "interpolation": 2}]}, "crop_height": {"Points": [{"co": {"Y": -1, "X": 1}, "interpolation": 2}]}, "crop_x": {"Points": [{"co": {"Y": 0, "X": 1}, "interpolation": 2}]}, "start": 0, "scale": 1, "shear_y": {"Points": [{"co": {"Y": 0, "X": 1}, "interpolation": 2}]}, "display": 0, "volume": {"Points": [{"co": {"Y": 1, "X": 1}, "interpolation": 2}]}, "channel_mapping": {"Points": [{"co": {"Y": -1, "X": 1}, "interpolation": 2}]}, "anchor": 0, "duration": 15.0, "perspective_c3_y": {"Points": [{"co": {"Y": -1, "X": 1}, "interpolation": 2}]}, "shear_x": {"Points": [{"co": {"Y": 0, "X": 1}, "interpolation": 2}]}, "perspective_c4_x": {"Points": [{"co": {"Y": -1, "X": 1}, "interpolation": 2}]}, "location_y": {"Points": [{"co": {"Y": 0, "X": 1}, "interpolation": 2}]}, "scale_x": {"Points": [{"co": {"Y": 1, "X": 1}, "interpolation": 2}]}, "layer": 0, "perspective_c2_y": {"Points": [{"co": {"Y": -1, "X": 1}, "interpolation": 2}]}, "perspective_c1_x": {"Points": [{"co": {"Y": -1, "X": 1}, "interpolation": 2}]}, "perspective_c4_y": {"Points": [{"co": {"Y": -1, "X": 1}, "interpolation": 2}]}, "reader": {"audio_bit_rate": 0, "has_single_image": false, "vcodec": "h264", "has_video": true, "type": "FFmpegReader", "video_length": "375", "audio_timebase": {"den": 1, "num": 1}, "path": "/home/robsen/Dropbox/Workdir/Repo/SuesseRache-HH-Taxi/taxi_start.mp4", "width": 1920, "has_audio": false, "video_bit_rate": 147692, "channel_layout": 4, "height": 1080, "display_ratio": {"den": 9, "num": 16}, "interlaced_frame": false, "duration": 15.0, "sample_rate": 0, "pixel_format": 0, "video_timebase": {"den": 12800, "num": 1}, "file_size": "276924", "top_field_first": true, "pixel_ratio": {"den": 1, "num": 1}, "acodec": "", "audio_stream_index": -1, "video_stream_index": 0, "channels": 0, "fps": {"den": 1, "num": 25}}, "channel_filter": {"Points": [{"co": {"Y": -1, "X": 1}, "interpolation": 2}]}, "file_id": "LGW3TZJV4Q", "time": {"Points": [{"co": {"Y": 1, "X": 1}, "interpolation": 2}]}}, "value": {"alpha": {"Points": [{"co": {"Y": 1, "X": 1}, "interpolation": 2}, {"handle_right": {"Y": 0, "X": 0.5}, "co": {"Y": 1, "X": 289}, "handle_left": {"Y": 1, "X": 0.5}, "handle_type": 0, "interpolation": 0}, {"handle_right": {"Y": 0, "X": 0.5}, "co": {"Y": 0, "X": 361}, "handle_left": {"Y": 1, "X": 0.5}, "handle_type": 0, "interpolation": 0}, {"handle_right": {"Y": 0, "X": 0.5}, "co": {"Y": 0, "X": 1}, "handle_left": {"Y": 1, "X": 0.5}, "handle_type": 0, "interpolation": 0}, {"handle_right": {"Y": 0, "X": 0.5}, "co": {"Y": 1, "X": 73}, "handle_left": {"Y": 1, "X": 0.5}, "handle_type": 0, "interpolation": 0}]}, "rotation": {"Points": [{"co": {"Y": 0, "X": 1}, "interpolation": 2}]}, "scale_y": {"Points": [{"co": {"Y": 1, "X": 1}, "interpolation": 2}]}, "crop_y": {"Points": [{"co": {"Y": 0, "X": 1}, "interpolation": 2}]}, "crop_width": {"Points": [{"co": {"Y": -1, "X": 1}, "interpolation": 2}]}, "end": 15, "perspective_c3_x": {"Points": [{"co": {"Y": -1, "X": 1}, "interpolation": 2}]}, "position": 8.8, "id": "0AEDFYGQ7J", "wave_color": {"green": {"Points": [{"handle_right": {"Y": 0, "X": 0.5}, "co": {"Y": 123, "X": 1}, "handle_left": {"Y": 1, "X": 0.5}, "handle_type": 0, "interpolation": 0}]}, "blue": {"Points": [{"handle_right": {"Y": 0, "X": 0.5}, "co": {"Y": 255, "X": 1}, "handle_left": {"Y": 1, "X": 0.5}, "handle_type": 0, "interpolation": 0}]}, "alpha": {"Points": [{"handle_right": {"Y": 0, "X": 0.5}, "co": {"Y": 255, "X": 1}, "handle_left": {"Y": 1, "X": 0.5}, "handle_type": 0, "interpolation": 0}]}, "red": {"Points": [{"handle_right": {"Y": 0, "X": 0.5}, "co": {"Y": 0, "X": 1}, "handle_left": {"Y": 1, "X": 0.5}, "handle_type": 0, "interpolation": 0}]}}, "has_video": {"Points": [{"co": {"Y": -1, "X": 1}, "interpolation": 2}]}, "has_audio": {"Points": [{"co": {"Y": -1, "X": 1}, "interpolation": 2}]}, "effects": [], "location_x": {"Points": [{"co": {"Y": 0, "X": 1}, "interpolation": 2}]}, "waveform": false, "title": "taxi_start.mp4", "image": "/home/robsen/.openshot_qt/thumbnail/LGW3TZJV4Q.png", "gravity": 4, "scale_x": {"Points": [{"co": {"Y": 1, "X": 1}, "interpolation": 2}]}, "perspective_c1_y": {"Points": [{"co": {"Y": -1, "X": 1}, "interpolation": 2}]}, "crop_height": {"Points": [{"co": {"Y": -1, "X": 1}, "interpolation": 2}]}, "crop_x": {"Points": [{"co": {"Y": 0, "X": 1}, "interpolation": 2}]}, "start": 0, "scale": 1, "shear_y": {"Points": [{"co": {"Y": 0, "X": 1}, "interpolation": 2}]}, "display": 0, "volume": {"Points": [{"co": {"Y": 1, "X": 1}, "interpolation": 2}]}, "channel_mapping": {"Points": [{"co": {"Y": -1, "X": 1}, "interpolation": 2}]}, "anchor": 0, "duration": 15.0, "perspective_c3_y": {"Points": [{"co": {"Y": -1, "X": 1}, "interpolation": 2}]}, "shear_x": {"Points": [{"co": {"Y": 0, "X": 1}, "interpolation": 2}]}, "perspective_c4_x": {"Points": [{"co": {"Y": -1, "X": 1}, "interpolation": 2}]}, "location_y": {"Points": [{"co": {"Y": 0, "X": 1}, "interpolation": 2}]}, "perspective_c2_x": {"Points": [{"co": {"Y": -1, "X": 1}, "interpolation": 2}]}, "layer": 0, "perspective_c2_y": {"Points": [{"co": {"Y": -1, "X": 1}, "interpolation": 2}]}, "perspective_c1_x": {"Points": [{"co": {"Y": -1, "X": 1}, "interpolation": 2}]}, "perspective_c4_y": {"Points": [{"co": {"Y": -1, "X": 1}, "interpolation": 2}]}, "channel_filter": {"Points": [{"co": {"Y": -1, "X": 1}, "interpolation": 2}]}, "time": {"Points": [{"co": {"Y": 1, "X": 1}, "interpolation": 2}]}, "file_id": "LGW3TZJV4Q"}, "key": ["clips", {"id": "0AEDFYGQ7J"}], "partial": false, "type": "update"}, {"old_values": {"alpha": {"Points": [{"co": {"Y": 1, "X": 1}, "interpolation": 2}]}, "rotation": {"Points": [{"co": {"Y": 0, "X": 1}, "interpolation": 2}]}, "scale_y": {"Points": [{"co": {"Y": 1, "X": 1}, "interpolation": 2}]}, "crop_y": {"Points": [{"co": {"Y": 0, "X": 1}, "interpolation": 2}]}, "perspective_c3_x": {"Points": [{"co": {"Y": -1, "X": 1}, "interpolation": 2}]}, "end": 15, "crop_width": {"Points": [{"co": {"Y": -1, "X": 1}, "interpolation": 2}]}, "position": 53.075, "id": "PJWPMFXKV3", "wave_color": {"green": {"Points": [{"handle_right": {"Y": 0, "X": 0.5}, "co": {"Y": 123, "X": 1}, "handle_left": {"Y": 1, "X": 0.5}, "handle_type": 0, "interpolation": 0}]}, "blue": {"Points": [{"handle_right": {"Y": 0, "X": 0.5}, "co": {"Y": 255, "X": 1}, "handle_left": {"Y": 1, "X": 0.5}, "handle_type": 0, "interpolation": 0}]}, "alpha": {"Points": [{"handle_right": {"Y": 0, "X": 0.5}, "co": {"Y": 255, "X": 1}, "handle_left": {"Y": 1, "X": 0.5}, "handle_type": 0, "interpolation": 0}]}, "red": {"Points": [{"handle_right": {"Y": 0, "X": 0.5}, "co": {"Y": 0, "X": 1}, "handle_left": {"Y": 1, "X": 0.5}, "handle_type": 0, "interpolation": 0}]}}, "has_video": {"Points": [{"co": {"Y": -1, "X": 1}, "interpolation": 2}]}, "has_audio": {"Points": [{"co": {"Y": -1, "X": 1}, "interpolation": 2}]}, "effects": [], "location_x": {"Points": [{"co": {"Y": 0, "X": 1}, "interpolation": 2}]}, "waveform": false, "title": "arrow.mp4", "image": "/home/robsen/.openshot_qt/thumbnail/X22V56NF57.png", "gravity": 4, "perspective_c2_x": {"Points": [{"co": {"Y": -1, "X": 1}, "interpolation": 2}]}, "perspective_c1_y": {"Points": [{"co": {"Y": -1, "X": 1}, "interpolation": 2}]}, "crop_height": {"Points": [{"co": {"Y": -1, "X": 1}, "interpolation": 2}]}, "crop_x": {"Points": [{"co": {"Y": 0, "X": 1}, "interpolation": 2}]}, "start": 0, "scale": 1, "shear_y": {"Points": [{"co": {"Y": 0, "X": 1}, "interpolation": 2}]}, "display": 0, "volume": {"Points": [{"co": {"Y": 1, "X": 1}, "interpolation": 2}]}, "channel_mapping": {"Points": [{"co": {"Y": -1, "X": 1}, "interpolation": 2}]}, "anchor": 0, "duration": 15.0, "perspective_c3_y": {"Points": [{"co": {"Y": -1, "X": 1}, "interpolation": 2}]}, "shear_x": {"Points": [{"co": {"Y": 0, "X": 1}, "interpolation": 2}]}, "perspective_c4_x": {"Points": [{"co": {"Y": -1, "X": 1}, "interpolation": 2}]}, "location_y": {"Points": [{"co": {"Y": 0, "X": 1}, "interpolation": 2}]}, "scale_x": {"Points": [{"co": {"Y": 1, "X": 1}, "interpolation": 2}]}, "layer": 2, "perspective_c2_y": {"Points": [{"co": {"Y": -1, "X": 1}, "interpolation": 2}]}, "perspective_c1_x": {"Points": [{"co": {"Y": -1, "X": 1}, "interpolation": 2}]}, "perspective_c4_y": {"Points": [{"co": {"Y": -1, "X": 1}, "interpolation": 2}]}, "reader": {"audio_bit_rate": 0, "has_single_image": false, "vcodec": "h264", "has_video": true, "type": "FFmpegReader", "video_length": "375", "audio_timebase": {"den": 1, "num": 1}, "path": "/home/robsen/Dropbox/Workdir/Repo/SuesseRache-HH-Taxi/arrow.mp4", "width": 1920, "has_audio": false, "video_bit_rate": 83079, "channel_layout": 4, "height": 1080, "display_ratio": {"den": 9, "num": 16}, "interlaced_frame": false, "duration": 15.0, "sample_rate": 0, "pixel_format": 0, "video_timebase": {"den": 12800, "num": 1}, "file_size": "155774", "top_field_first": true, "pixel_ratio": {"den": 1, "num": 1}, "acodec": "", "audio_stream_index": -1, "video_stream_index": 0, "channels": 0, "fps": {"den": 1, "num": 25}}, "channel_filter": {"Points": [{"co": {"Y": -1, "X": 1}, "interpolation": 2}]}, "file_id": "X22V56NF57", "time": {"Points": [{"co": {"Y": 1, "X": 1}, "interpolation": 2}]}}, "value": {"alpha": {"Points": [{"co": {"Y": 1, "X": 1}, "interpolation": 2}, {"handle_right": {"Y": 0, "X": 0.5}, "co": {"Y": 0, "X": 1}, "handle_left": {"Y": 1, "X": 0.5}, "handle_type": 0, "interpolation": 0}, {"handle_right": {"Y": 0, "X": 0.5}, "co": {"Y": 1, "X": 73}, "handle_left": {"Y": 1, "X": 0.5}, "handle_type": 0, "interpolation": 0}]}, "rotation": {"Points": [{"co": {"Y": 0, "X": 1}, "interpolation": 2}]}, "scale_y": {"Points": [{"co": {"Y": 1, "X": 1}, "interpolation": 2}]}, "crop_y": {"Points": [{"co": {"Y": 0, "X": 1}, "interpolation": 2}]}, "crop_width": {"Points": [{"co": {"Y": -1, "X": 1}, "interpolation": 2}]}, "end": 15, "perspective_c3_x": {"Points": [{"co": {"Y": -1, "X": 1}, "interpolation": 2}]}, "position": 53.075, "id": "PJWPMFXKV3", "wave_color": {"green": {"Points": [{"handle_right": {"Y": 0, "X": 0.5}, "co": {"Y": 123, "X": 1}, "handle_left": {"Y": 1, "X": 0.5}, "handle_type": 0, "interpolation": 0}]}, "blue": {"Points": [{"handle_right": {"Y": 0, "X": 0.5}, "co": {"Y": 255, "X": 1}, "handle_left": {"Y": 1, "X": 0.5}, "handle_type": 0, "interpolation": 0}]}, "alpha": {"Points": [{"handle_right": {"Y": 0, "X": 0.5}, "co": {"Y": 255, "X": 1}, "handle_left": {"Y": 1, "X": 0.5}, "handle_type": 0, "interpolation": 0}]}, "red": {"Points": [{"handle_right": {"Y": 0, "X": 0.5}, "co": {"Y": 0, "X": 1}, "handle_left": {"Y": 1, "X": 0.5}, "handle_type": 0, "interpolation": 0}]}}, "has_video": {"Points": [{"co": {"Y": -1, "X": 1}, "interpolation": 2}]}, "has_audio": {"Points": [{"co": {"Y": -1, "X": 1}, "interpolation": 2}]}, "effects": [], "location_x": {"Points": [{"co": {"Y": 0, "X": 1}, "interpolation": 2}]}, "waveform": false, "title": "arrow.mp4", "image": "/home/robsen/.openshot_qt/thumbnail/X22V56NF57.png", "gravity": 4, "scale_x": {"Points": [{"co": {"Y": 1, "X": 1}, "interpolation": 2}]}, "perspective_c1_y": {"Points": [{"co": {"Y": -1, "X": 1}, "interpolation": 2}]}, "crop_height": {"Points": [{"co": {"Y": -1, "X": 1}, "interpolation": 2}]}, "crop_x": {"Points": [{"co": {"Y": 0, "X": 1}, "interpolation": 2}]}, "start": 0, "scale": 1, "shear_y": {"Points": [{"co": {"Y": 0, "X": 1}, "interpolation": 2}]}, "display": 0, "volume": {"Points": [{"co": {"Y": 1, "X": 1}, "interpolation": 2}]}, "channel_mapping": {"Points": [{"co": {"Y": -1, "X": 1}, "interpolation": 2}]}, "anchor": 0, "duration": 15.0, "perspective_c3_y": {"Points": [{"co": {"Y": -1, "X": 1}, "interpolation": 2}]}, "shear_x": {"Points": [{"co": {"Y": 0, "X": 1}, "interpolation": 2}]}, "perspective_c4_x": {"Points": [{"co": {"Y": -1, "X": 1}, "interpolation": 2}]}, "location_y": {"Points": [{"co": {"Y": 0, "X": 1}, "interpolation": 2}]}, "perspective_c2_x": {"Points": [{"co": {"Y": -1, "X": 1}, "interpolation": 2}]}, "layer": 2, "perspective_c2_y": {"Points": [{"co": {"Y": -1, "X": 1}, "interpolation": 2}]}, "perspective_c1_x": {"Points": [{"co": {"Y": -1, "X": 1}, "interpolation": 2}]}, "perspective_c4_y": {"Points": [{"co": {"Y": -1, "X": 1}, "interpolation": 2}]}, "channel_filter": {"Points": [{"co": {"Y": -1, "X": 1}, "interpolation": 2}]}, "time": {"Points": [{"co": {"Y": 1, "X": 1}, "interpolation": 2}]}, "file_id": "X22V56NF57"}, "key": ["clips", {"id": "PJWPMFXKV3"}], "partial": false, "type": "update"}]}, "key": ["history"], "partial": false, "type": "update"}, {"old_values": null, "value": {"redo": [], "undo": [{"old_values": [{"number": 0, "label": "Spur 1", "id": "UBOPYJIV1S", "y": 0}, {"number": 1, "label": "Spur 2", "id": "SHY16ICR2M", "y": 0}], "value": {"number": 2, "y": 0, "label": "", "id": "E44ZNJSI3Z", "lock": false}, "key": ["layers"], "partial": false, "type": "insert"}, {"old_values": [], "value": {"audio_bit_rate": 0, "has_single_image": false, "media_type": "video", "id": "LGW3TZJV4Q", "type": "FFmpegReader", "has_video": true, "video_length": "375", "audio_timebase": {"den": 1, "num": 1}, "path": "/home/robsen/Dropbox/Workdir/Repo/SuesseRache-HH-Taxi/taxi_start.mp4", "width": 1920, "has_audio": false, "video_bit_rate": 147692, "channel_layout": 4, "height": 1080, "vcodec": "h264", "display_ratio": {"den": 9, "num": 16}, "interlaced_frame": false, "duration": 15, "sample_rate": 0, "pixel_format": 0, "video_timebase": {"den": 12800, "num": 1}, "file_size": "276924", "top_field_first": true, "pixel_ratio": {"den": 1, "num": 1}, "acodec": "", "audio_stream_index": -1, "video_stream_index": 0, "channels": 0, "fps": {"den": 1, "num": 25}}, "key": ["files"], "partial": false, "type": "insert"}, {"old_values": [{"audio_bit_rate": 0, "has_single_image": false, "media_type": "video", "id": "LGW3TZJV4Q", "type": "FFmpegReader", "has_video": true, "video_length": "375", "audio_timebase": {"den": 1, "num": 1}, "path": "/home/robsen/Dropbox/Workdir/Repo/SuesseRache-HH-Taxi/taxi_start.mp4", "width": 1920, "has_audio": false, "video_bit_rate": 147692, "channel_layout": 4, "height": 1080, "vcodec": "h264", "display_ratio": {"den": 9, "num": 16}, "interlaced_frame": false, "duration": 15, "sample_rate": 0, "pixel_format": 0, "video_timebase": {"den": 12800, "num": 1}, "file_size": "276924", "top_field_first": true, "pixel_ratio": {"den": 1, "num": 1}, "acodec": "", "audio_stream_index": -1, "video_stream_index": 0, "channels": 0, "fps": {"den": 1, "num": 25}}], "value": {"audio_bit_rate": 189375, "has_single_image": false, "media_type": "video", "id": "Z3LOYBY1PL", "type": "FFmpegReader", "has_video": true, "video_length": "937", "audio_timebase": {"den": 48000, "num": 1}, "path": "/home/robsen/Dropbox/Workdir/Repo/SuesseRache-HH-Taxi/TE_SR_Taxi.mp4", "width": 1920, "has_audio": true, "video_bit_rate": 32091692, "channel_layout": 3, "height": 1080, "vcodec": "h264", "display_ratio": {"den": 9, "num": 16}, "interlaced_frame": false, "duration": 31.317333221435547, "sample_rate": 48000, "pixel_format": 0, "video_timebase": {"den": 29970, "num": 1}, "file_size": "125628279", "top_field_first": true, "pixel_ratio": {"den": 1, "num": 1}, "acodec": "aac", "audio_stream_index": 1, "video_stream_index": 0, "channels": 2, "fps": {"den": 100, "num": 2997}}, "key": ["files"], "partial": false, "type": "insert"}, {"old_values": [{"audio_bit_rate": 0, "has_single_image": false, "media_type": "video", "id": "LGW3TZJV4Q", "type": "FFmpegReader", "has_video": true, "video_length": "375", "audio_timebase": {"den": 1, "num": 1}, "path": "/home/robsen/Dropbox/Workdir/Repo/SuesseRache-HH-Taxi/taxi_start.mp4", "width": 1920, "has_audio": false, "video_bit_rate": 147692, "channel_layout": 4, "height": 1080, "vcodec": "h264", "display_ratio": {"den": 9, "num": 16}, "interlaced_frame": false, "duration": 15, "sample_rate": 0, "pixel_format": 0, "video_timebase": {"den": 12800, "num": 1}, "file_size": "276924", "top_field_first": true, "pixel_ratio": {"den": 1, "num": 1}, "acodec": "", "audio_stream_index": -1, "video_stream_index": 0, "channels": 0, "fps": {"den": 1, "num": 25}}, {"audio_bit_rate": 189375, "has_single_image": false, "media_type": "video", "id": "Z3LOYBY1PL", "type": "FFmpegReader", "has_video": true, "video_length": "937", "audio_timebase": {"den": 48000, "num": 1}, "path": "/home/robsen/Dropbox/Workdir/Repo/SuesseRache-HH-Taxi/TE_SR_Taxi.mp4", "width": 1920, "has_audio": true, "video_bit_rate": 32091692, "channel_layout": 3, "height": 1080, "vcodec": "h264", "display_ratio": {"den": 9, "num": 16}, "interlaced_frame": false, "duration": 31.317333221435547, "sample_rate": 48000, "pixel_format": 0, "video_timebase": {"den": 29970, "num": 1}, "file_size": "125628279", "top_field_first": true, "pixel_ratio": {"den": 1, "num": 1}, "acodec": "aac", "audio_stream_index": 1, "video_stream_index": 0, "channels": 2, "fps": {"den": 100, "num": 2997}}], "value": {"audio_bit_rate": 0, "has_single_image": false, "media_type": "video", "id": "X22V56NF57", "type": "FFmpegReader", "has_video": true, "video_length": "375", "audio_timebase": {"den": 1, "num": 1}, "path": "/home/robsen/Dropbox/Workdir/Repo/SuesseRache-HH-Taxi/arrow.mp4", "width": 1920, "has_audio": false, "video_bit_rate": 83079, "channel_layout": 4, "height": 1080, "vcodec": "h264", "display_ratio": {"den": 9, "num": 16}, "interlaced_frame": false, "duration": 15, "sample_rate": 0, "pixel_format": 0, "video_timebase": {"den": 12800, "num": 1}, "file_size": "155774", "top_field_first": true, "pixel_ratio": {"den": 1, "num": 1}, "acodec": "", "audio_stream_index": -1, "video_stream_index": 0, "channels": 0, "fps": {"den": 1, "num": 25}}, "key": ["files"], "partial": false, "type": "insert"}, {"old_values": [], "value": {"alpha": {"Points": [{"co": {"Y": 1, "X": 1}, "interpolation": 2}, {"handle_right": {"Y": 0, "X": 0.5}, "co": {"Y": 1, "X": 289}, "handle_left": {"Y": 1, "X": 0.5}, "handle_type": 0, "interpolation": 0}, {"handle_right": {"Y": 0, "X": 0.5}, "co": {"Y": 0, "X": 361}, "handle_left": {"Y": 1, "X": 0.5}, "handle_type": 0, "interpolation": 0}, {"handle_right": {"Y": 0, "X": 0.5}, "co": {"Y": 0, "X": 1}, "handle_left": {"Y": 1, "X": 0.5}, "handle_type": 0, "interpolation": 0}, {"handle_right": {"Y": 0, "X": 0.5}, "co": {"Y": 1, "X": 73}, "handle_left": {"Y": 1, "X": 0.5}, "handle_type": 0, "interpolation": 0}]}, "rotation": {"Points": [{"co": {"Y": 0, "X": 1}, "interpolation": 2}]}, "scale_y": {"Points": [{"co": {"Y": 1, "X": 1}, "interpolation": 2}]}, "crop_y": {"Points": [{"co": {"Y": 0, "X": 1}, "interpolation": 2}]}, "perspective_c3_x": {"Points": [{"co": {"Y": -1, "X": 1}, "interpolation": 2}]}, "end": 15, "crop_width": {"Points": [{"co": {"Y": -1, "X": 1}, "interpolation": 2}]}, "position": 8.8, "id": "0AEDFYGQ7J", "wave_color": {"green": {"Points": [{"handle_right": {"Y": 0, "X": 0.5}, "co": {"Y": 123, "X": 1}, "handle_left": {"Y": 1, "X": 0.5}, "handle_type": 0, "interpolation": 0}]}, "blue": {"Points": [{"handle_right": {"Y": 0, "X": 0.5}, "co": {"Y": 255, "X": 1}, "handle_left": {"Y": 1, "X": 0.5}, "handle_type": 0, "interpolation": 0}]}, "alpha": {"Points": [{"handle_right": {"Y": 0, "X": 0.5}, "co": {"Y": 255, "X": 1}, "handle_left": {"Y": 1, "X": 0.5}, "handle_type": 0, "interpolation": 0}]}, "red": {"Points": [{"handle_right": {"Y": 0, "X": 0.5}, "co": {"Y": 0, "X": 1}, "handle_left": {"Y": 1, "X": 0.5}, "handle_type": 0, "interpolation": 0}]}}, "has_video": {"Points": [{"co": {"Y": -1, "X": 1}, "interpolation": 2}]}, "has_audio": {"Points": [{"co": {"Y": -1, "X": 1}, "interpolation": 2}]}, "effects": [], "location_x": {"Points": [{"co": {"Y": 0, "X": 1}, "interpolation": 2}]}, "waveform": false, "title": "taxi_start.mp4", "image": "/home/robsen/.openshot_qt/thumbnail/LGW3TZJV4Q.png", "gravity": 4, "scale_x": {"Points": [{"co": {"Y": 1, "X": 1}, "interpolation": 2}]}, "perspective_c1_y": {"Points": [{"co": {"Y": -1, "X": 1}, "interpolation": 2}]}, "crop_height": {"Points": [{"co": {"Y": -1, "X": 1}, "interpolation": 2}]}, "crop_x": {"Points": [{"co": {"Y": 0, "X": 1}, "interpolation": 2}]}, "start": 0, "scale": 1, "shear_y": {"Points": [{"co": {"Y": 0, "X": 1}, "interpolation": 2}]}, "display": 0, "volume": {"Points": [{"co": {"Y": 1, "X": 1}, "interpolation": 2}]}, "channel_mapping": {"Points": [{"co": {"Y": -1, "X": 1}, "interpolation": 2}]}, "anchor": 0, "duration": 15.0, "perspective_c3_y": {"Points": [{"co": {"Y": -1, "X": 1}, "interpolation": 2}]}, "shear_x": {"Points": [{"co": {"Y": 0, "X": 1}, "interpolation": 2}]}, "perspective_c4_x": {"Points": [{"co": {"Y": -1, "X": 1}, "interpolation": 2}]}, "location_y": {"Points": [{"co": {"Y": 0, "X": 1}, "interpolation": 2}]}, "perspective_c2_x": {"Points": [{"co": {"Y": -1, "X": 1}, "interpolation": 2}]}, "layer": 0, "perspective_c2_y": {"Points": [{"co": {"Y": -1, "X": 1}, "interpolation": 2}]}, "perspective_c1_x": {"Points": [{"co": {"Y": -1, "X": 1}, "interpolation": 2}]}, "perspective_c4_y": {"Points": [{"co": {"Y": -1, "X": 1}, "interpolation": 2}]}, "reader": {"audio_bit_rate": 0, "has_single_image": false, "has_video": true, "type": "FFmpegReader", "video_length": "375", "audio_timebase": {"den": 1, "num": 1}, "path": "/home/robsen/Dropbox/Workdir/Repo/SuesseRache-HH-Taxi/taxi_start.mp4", "width": 1920, "has_audio": false, "video_bit_rate": 147692, "channel_layout": 4, "height": 1080, "display_ratio": {"den": 9, "num": 16}, "interlaced_frame": false, "video_timebase": {"den": 12800, "num": 1}, "duration": 15.0, "sample_rate": 0, "pixel_format": 0, "fps": {"den": 1, "num": 25}, "file_size": "276924", "top_field_first": true, "pixel_ratio": {"den": 1, "num": 1}, "acodec": "", "audio_stream_index": -1, "video_stream_index": 0, "channels": 0, "vcodec": "h264"}, "channel_filter": {"Points": [{"co": {"Y": -1, "X": 1}, "interpolation": 2}]}, "file_id": "LGW3TZJV4Q", "time": {"Points": [{"co": {"Y": 1, "X": 1}, "interpolation": 2}]}}, "key": ["clips"], "partial": false, "type": "insert"}, {"old_values": null, "value": {"id": "0AEDFYGQ7J", "start": 0, "end": 15, "position": 8.8, "layer": 0, "image": "/home/robsen/.openshot_qt/thumbnail/LGW3TZJV4Q.png"}, "key": ["clips", {"id": "0AEDFYGQ7J"}], "partial": false, "type": "update"}, {"old_values": null, "value": {"id": "0AEDFYGQ7J", "start": 0, "end": 15, "position": 8.8, "layer": 0, "image": "/home/robsen/.openshot_qt/thumbnail/LGW3TZJV4Q.png"}, "key": ["clips", {"id": "0AEDFYGQ7J"}], "partial": false, "type": "update"}, {"old_values": [{"alpha": {"Points": [{"co": {"Y": 1, "X": 1}, "interpolation": 2}]}, "rotation": {"Points": [{"co": {"Y": 0, "X": 1}, "interpolation": 2}]}, "scale_y": {"Points": [{"co": {"Y": 1, "X": 1}, "interpolation": 2}]}, "crop_y": {"Points": [{"co": {"Y": 0, "X": 1}, "interpolation": 2}]}, "perspective_c3_x": {"Points": [{"co": {"Y": -1, "X": 1}, "interpolation": 2}]}, "end": 15, "crop_width": {"Points": [{"co": {"Y": -1, "X": 1}, "interpolation": 2}]}, "position": 8.8, "id": "0AEDFYGQ7J", "wave_color": {"green": {"Points": [{"handle_right": {"Y": 0, "X": 0.5}, "co": {"Y": 123, "X": 1}, "handle_left": {"Y": 1, "X": 0.5}, "handle_type": 0, "interpolation": 0}]}, "blue": {"Points": [{"handle_right": {"Y": 0, "X": 0.5}, "co": {"Y": 255, "X": 1}, "handle_left": {"Y": 1, "X": 0.5}, "handle_type": 0, "interpolation": 0}]}, "alpha": {"Points": [{"handle_right": {"Y": 0, "X": 0.5}, "co": {"Y": 255, "X": 1}, "handle_left": {"Y": 1, "X": 0.5}, "handle_type": 0, "interpolation": 0}]}, "red": {"Points": [{"handle_right": {"Y": 0, "X": 0.5}, "co": {"Y": 0, "X": 1}, "handle_left": {"Y": 1, "X": 0.5}, "handle_type": 0, "interpolation": 0}]}}, "has_video": {"Points": [{"co": {"Y": -1, "X": 1}, "interpolation": 2}]}, "has_audio": {"Points": [{"co": {"Y": -1, "X": 1}, "interpolation": 2}]}, "effects": [], "location_x": {"Points": [{"co": {"Y": 0, "X": 1}, "interpolation": 2}]}, "waveform": false, "title": "taxi_start.mp4", "image": "/home/robsen/.openshot_qt/thumbnail/LGW3TZJV4Q.png", "gravity": 4, "perspective_c2_x": {"Points": [{"co": {"Y": -1, "X": 1}, "interpolation": 2}]}, "perspective_c1_y": {"Points": [{"co": {"Y": -1, "X": 1}, "interpolation": 2}]}, "crop_height": {"Points": [{"co": {"Y": -1, "X": 1}, "interpolation": 2}]}, "crop_x": {"Points": [{"co": {"Y": 0, "X": 1}, "interpolation": 2}]}, "start": 0, "scale": 1, "shear_y": {"Points": [{"co": {"Y": 0, "X": 1}, "interpolation": 2}]}, "display": 0, "volume": {"Points": [{"co": {"Y": 1, "X": 1}, "interpolation": 2}]}, "channel_mapping": {"Points": [{"co": {"Y": -1, "X": 1}, "interpolation": 2}]}, "anchor": 0, "duration": 15.0, "perspective_c3_y": {"Points": [{"co": {"Y": -1, "X": 1}, "interpolation": 2}]}, "shear_x": {"Points": [{"co": {"Y": 0, "X": 1}, "interpolation": 2}]}, "perspective_c4_x": {"Points": [{"co": {"Y": -1, "X": 1}, "interpolation": 2}]}, "location_y": {"Points": [{"co": {"Y": 0, "X": 1}, "interpolation": 2}]}, "scale_x": {"Points": [{"co": {"Y": 1, "X": 1}, "interpolation": 2}]}, "layer": 0, "perspective_c2_y": {"Points": [{"co": {"Y": -1, "X": 1}, "interpolation": 2}]}, "perspective_c1_x": {"Points": [{"co": {"Y": -1, "X": 1}, "interpolation": 2}]}, "perspective_c4_y": {"Points": [{"co": {"Y": -1, "X": 1}, "interpolation": 2}]}, "reader": {"audio_bit_rate": 0, "has_single_image": false, "vcodec": "h264", "has_video": true, "type": "FFmpegReader", "video_length": "375", "audio_timebase": {"den": 1, "num": 1}, "path": "/home/robsen/Dropbox/Workdir/Repo/SuesseRache-HH-Taxi/taxi_start.mp4", "width": 1920, "has_audio": false, "video_bit_rate": 147692, "channel_layout": 4, "height": 1080, "display_ratio": {"den": 9, "num": 16}, "interlaced_frame": false, "duration": 15.0, "sample_rate": 0, "pixel_format": 0, "video_timebase": {"den": 12800, "num": 1}, "file_size": "276924", "top_field_first": true, "pixel_ratio": {"den": 1, "num": 1}, "acodec": "", "audio_stream_index": -1, "video_stream_index": 0, "channels": 0, "fps": {"den": 1, "num": 25}}, "channel_filter": {"Points": [{"co": {"Y": -1, "X": 1}, "interpolation": 2}]}, "file_id": "LGW3TZJV4Q", "time": {"Points": [{"co": {"Y": 1, "X": 1}, "interpolation": 2}]}}], "value": {"alpha": {"Points": [{"co": {"Y": 1, "X": 1}, "interpolation": 2}]}, "rotation": {"Points": [{"co": {"Y": 0, "X": 1}, "interpolation": 2}]}, "scale_y": {"Points": [{"co": {"Y": 1, "X": 1}, "interpolation": 2}]}, "crop_y": {"Points": [{"co": {"Y": 0, "X": 1}, "interpolation": 2}]}, "perspective_c3_x": {"Points": [{"co": {"Y": -1, "X": 1}, "interpolation": 2}]}, "end": 31.317333221435547, "crop_width": {"Points": [{"co": {"Y": -1, "X": 1}, "interpolation": 2}]}, "position": 21.76, "id": "627XQDJ3EP", "wave_color": {"green": {"Points": [{"handle_right": {"Y": 0, "X": 0.5}, "co": {"Y": 123, "X": 1}, "handle_left": {"Y": 1, "X": 0.5}, "handle_type": 0, "interpolation": 0}]}, "blue": {"Points": [{"handle_right": {"Y": 0, "X": 0.5}, "co": {"Y": 255, "X": 1}, "handle_left": {"Y": 1, "X": 0.5}, "handle_type": 0, "interpolation": 0}]}, "alpha": {"Points": [{"handle_right": {"Y": 0, "X": 0.5}, "co": {"Y": 255, "X": 1}, "handle_left": {"Y": 1, "X": 0.5}, "handle_type": 0, "interpolation": 0}]}, "red": {"Points": [{"handle_right": {"Y": 0, "X": 0.5}, "co": {"Y": 0, "X": 1}, "handle_left": {"Y": 1, "X": 0.5}, "handle_type": 0, "interpolation": 0}]}}, "has_video": {"Points": [{"co": {"Y": -1, "X": 1}, "interpolation": 2}]}, "has_audio": {"Points": [{"co": {"Y": -1, "X": 1}, "interpolation": 2}]}, "effects": [], "location_x": {"Points": [{"co": {"Y": 0, "X": 1}, "interpolation": 2}]}, "waveform": false, "title": "TE_SR_Taxi.mp4", "image": "/home/robsen/.openshot_qt/thumbnail/Z3LOYBY1PL.png", "gravity": 4, "scale_x": {"Points": [{"co": {"Y": 1, "X": 1}, "interpolation": 2}]}, "perspective_c1_y": {"Points": [{"co": {"Y": -1, "X": 1}, "interpolation": 2}]}, "crop_height": {"Points": [{"co": {"Y": -1, "X": 1}, "interpolation": 2}]}, "crop_x": {"Points": [{"co": {"Y": 0, "X": 1}, "interpolation": 2}]}, "start": 0, "scale": 1, "shear_y": {"Points": [{"co": {"Y": 0, "X": 1}, "interpolation": 2}]}, "display": 0, "volume": {"Points": [{"co": {"Y": 1, "X": 1}, "interpolation": 2}]}, "channel_mapping": {"Points": [{"co": {"Y": -1, "X": 1}, "interpolation": 2}]}, "anchor": 0, "duration": 31.317333221435547, "perspective_c3_y": {"Points": [{"co": {"Y": -1, "X": 1}, "interpolation": 2}]}, "shear_x": {"Points": [{"co": {"Y": 0, "X": 1}, "interpolation": 2}]}, "perspective_c4_x": {"Points": [{"co": {"Y": -1, "X": 1}, "interpolation": 2}]}, "location_y": {"Points": [{"co": {"Y": 0, "X": 1}, "interpolation": 2}]}, "perspective_c2_x": {"Points": [{"co": {"Y": -1, "X": 1}, "interpolation": 2}]}, "layer": 1, "perspective_c2_y": {"Points": [{"co": {"Y": -1, "X": 1}, "interpolation": 2}]}, "perspective_c1_x": {"Points": [{"co": {"Y": -1, "X": 1}, "interpolation": 2}]}, "perspective_c4_y": {"Points": [{"co": {"Y": -1, "X": 1}, "interpolation": 2}]}, "reader": {"audio_bit_rate": 189375, "has_single_image": false, "has_video": true, "type": "FFmpegReader", "video_length": "937", "audio_timebase": {"den": 48000, "num": 1}, "path": "/home/robsen/Dropbox/Workdir/Repo/SuesseRache-HH-Taxi/TE_SR_Taxi.mp4", "width": 1920, "has_audio": true, "video_bit_rate": 32091692, "channel_layout": 3, "height": 1080, "display_ratio": {"den": 9, "num": 16}, "interlaced_frame": false, "video_timebase": {"den": 29970, "num": 1}, "duration": 31.317333221435547, "sample_rate": 48000, "pixel_format": 0, "fps": {"den": 100, "num": 2997}, "file_size": "125628279", "top_field_first": true, "pixel_ratio": {"den": 1, "num": 1}, "acodec": "aac", "audio_stream_index": 1, "video_stream_index": 0, "channels": 2, "vcodec": "h264"}, "channel_filter": {"Points": [{"co": {"Y": -1, "X": 1}, "interpolation": 2}]}, "file_id": "Z3LOYBY1PL", "time": {"Points": [{"co": {"Y": 1, "X": 1}, "interpolation": 2}]}}, "key": ["clips"], "partial": false, "type": "insert"}, {"old_values": {"alpha": {"Points": [{"co": {"Y": 1, "X": 1}, "interpolation": 2}]}, "rotation": {"Points": [{"co": {"Y": 0, "X": 1}, "interpolation": 2}]}, "scale_y": {"Points": [{"co": {"Y": 1, "X": 1}, "interpolation": 2}]}, "crop_y": {"Points": [{"co": {"Y": 0, "X": 1}, "interpolation": 2}]}, "perspective_c3_x": {"Points": [{"co": {"Y": -1, "X": 1}, "interpolation": 2}]}, "end": 31.317333221435547, "crop_width": {"Points": [{"co": {"Y": -1, "X": 1}, "interpolation": 2}]}, "position": 18.88, "id": "627XQDJ3EP", "wave_color": {"green": {"Points": [{"handle_right": {"Y": 0, "X": 0.5}, "co": {"Y": 123, "X": 1}, "handle_left": {"Y": 1, "X": 0.5}, "handle_type": 0, "interpolation": 0}]}, "blue": {"Points": [{"handle_right": {"Y": 0, "X": 0.5}, "co": {"Y": 255, "X": 1}, "handle_left": {"Y": 1, "X": 0.5}, "handle_type": 0, "interpolation": 0}]}, "alpha": {"Points": [{"handle_right": {"Y": 0, "X": 0.5}, "co": {"Y": 255, "X": 1}, "handle_left": {"Y": 1, "X": 0.5}, "handle_type": 0, "interpolation": 0}]}, "red": {"Points": [{"handle_right": {"Y": 0, "X": 0.5}, "co": {"Y": 0, "X": 1}, "handle_left": {"Y": 1, "X": 0.5}, "handle_type": 0, "interpolation": 0}]}}, "has_video": {"Points": [{"co": {"Y": -1, "X": 1}, "interpolation": 2}]}, "has_audio": {"Points": [{"co": {"Y": -1, "X": 1}, "interpolation": 2}]}, "effects": [], "location_x": {"Points": [{"co": {"Y": 0, "X": 1}, "interpolation": 2}]}, "waveform": false, "title": "TE_SR_Taxi.mp4", "image": "/home/robsen/.openshot_qt/thumbnail/Z3LOYBY1PL.png", "gravity": 4, "scale_x": {"Points": [{"co": {"Y": 1, "X": 1}, "interpolation": 2}]}, "perspective_c1_y": {"Points": [{"co": {"Y": -1, "X": 1}, "interpolation": 2}]}, "crop_height": {"Points": [{"co": {"Y": -1, "X": 1}, "interpolation": 2}]}, "crop_x": {"Points": [{"co": {"Y": 0, "X": 1}, "interpolation": 2}]}, "start": 0, "scale": 1, "shear_y": {"Points": [{"co": {"Y": 0, "X": 1}, "interpolation": 2}]}, "display": 0, "volume": {"Points": [{"co": {"Y": 1, "X": 1}, "interpolation": 2}]}, "channel_mapping": {"Points": [{"co": {"Y": -1, "X": 1}, "interpolation": 2}]}, "anchor": 0, "duration": 31.317333221435547, "perspective_c3_y": {"Points": [{"co": {"Y": -1, "X": 1}, "interpolation": 2}]}, "shear_x": {"Points": [{"co": {"Y": 0, "X": 1}, "interpolation": 2}]}, "perspective_c4_x": {"Points": [{"co": {"Y": -1, "X": 1}, "interpolation": 2}]}, "location_y": {"Points": [{"co": {"Y": 0, "X": 1}, "interpolation": 2}]}, "perspective_c2_x": {"Points": [{"co": {"Y": -1, "X": 1}, "interpolation": 2}]}, "layer": 2, "perspective_c2_y": {"Points": [{"co": {"Y": -1, "X": 1}, "interpolation": 2}]}, "perspective_c1_x": {"Points": [{"co": {"Y": -1, "X": 1}, "interpolation": 2}]}, "perspective_c4_y": {"Points": [{"co": {"Y": -1, "X": 1}, "interpolation": 2}]}, "reader": {"audio_bit_rate": 189375, "has_single_image": false, "vcodec": "h264", "has_video": true, "type": "FFmpegReader", "video_length": "937", "audio_timebase": {"den": 48000, "num": 1}, "path": "/home/robsen/Dropbox/Workdir/Repo/SuesseRache-HH-Taxi/TE_SR_Taxi.mp4", "width": 1920, "has_audio": true, "video_bit_rate": 32091692, "channel_layout": 3, "height": 1080, "display_ratio": {"den": 9, "num": 16}, "interlaced_frame": false, "duration": 31.317333221435547, "sample_rate": 48000, "pixel_format": 0, "video_timebase": {"den": 29970, "num": 1}, "file_size": "125628279", "top_field_first": true, "pixel_ratio": {"den": 1, "num": 1}, "acodec": "aac", "audio_stream_index": 1, "video_stream_index": 0, "channels": 2, "fps": {"den": 100, "num": 2997}}, "channel_filter": {"Points": [{"co": {"Y": -1, "X": 1}, "interpolation": 2}]}, "file_id": "Z3LOYBY1PL", "time": {"Points": [{"co": {"Y": 1, "X": 1}, "interpolation": 2}]}}, "value": {"id": "627XQDJ3EP", "start": 0, "end": 31.317333221435547, "position": 21.76, "layer": 0, "image": "/home/robsen/.openshot_qt/thumbnail/Z3LOYBY1PL.png"}, "key": ["clips", {"id": "627XQDJ3EP"}], "partial": false, "type": "update"}, {"old_values": [], "value": {"start": 0, "type": "Mask", "contrast": {"Points": [{"co": {"Y": 3, "X": 1}, "interpolation": 2}]}, "layer": 0, "replace_image": false, "title": "Transition", "end": 2.039999999999999, "reader": {"audio_bit_rate": 0, "has_single_image": true, "has_video": true, "type": "QtImageReader", "video_length": "2592000", "audio_timebase": {"den": 1, "num": 1}, "path": "/usr/lib/python3/dist-packages/openshot_qt/transitions/common/fade.svg", "width": 720, "has_audio": false, "video_bit_rate": 0, "channel_layout": 4, "height": 576, "display_ratio": {"den": 4, "num": 5}, "interlaced_frame": false, "video_timebase": {"den": 30, "num": 1}, "duration": 86400, "sample_rate": 0, "pixel_format": -1, "fps": {"den": 1, "num": 30}, "file_size": "1658880", "top_field_first": true, "pixel_ratio": {"den": 1, "num": 1}, "acodec": "", "audio_stream_index": -1, "video_stream_index": -1, "channels": 0, "vcodec": ""}, "brightness": {"Points": [{"handle_right": {"Y": 0, "X": 0.5}, "co": {"Y": 1, "X": 1}, "handle_left": {"Y": 1, "X": 0.5}, "handle_type": 0, "interpolation": 0}, {"handle_right": {"Y": 0, "X": 0.5}, "co": {"Y": -1, "X": 50}, "handle_left": {"Y": 1, "X": 0.5}, "handle_type": 0, "interpolation": 0}]}, "id": "5NBS5H99MA", "position": 21.76}, "key": ["effects"], "partial": false, "type": "insert"}, {"old_values": {"alpha": {"Points": [{"co": {"Y": 1, "X": 1}, "interpolation": 2}]}, "rotation": {"Points": [{"co": {"Y": 0, "X": 1}, "interpolation": 2}]}, "scale_y": {"Points": [{"co": {"Y": 1, "X": 1}, "interpolation": 2}]}, "crop_y": {"Points": [{"co": {"Y": 0, "X": 1}, "interpolation": 2}]}, "perspective_c3_x": {"Points": [{"co": {"Y": -1, "X": 1}, "interpolation": 2}]}, "end": 31.317333221435547, "crop_width": {"Points": [{"co": {"Y": -1, "X": 1}, "interpolation": 2}]}, "position": 21.76, "id": "627XQDJ3EP", "wave_color": {"green": {"Points": [{"handle_right": {"Y": 0, "X": 0.5}, "co": {"Y": 123, "X": 1}, "handle_left": {"Y": 1, "X": 0.5}, "handle_type": 0, "interpolation": 0}]}, "blue": {"Points": [{"handle_right": {"Y": 0, "X": 0.5}, "co": {"Y": 255, "X": 1}, "handle_left": {"Y": 1, "X": 0.5}, "handle_type": 0, "interpolation": 0}]}, "alpha": {"Points": [{"handle_right": {"Y": 0, "X": 0.5}, "co": {"Y": 255, "X": 1}, "handle_left": {"Y": 1, "X": 0.5}, "handle_type": 0, "interpolation": 0}]}, "red": {"Points": [{"handle_right": {"Y": 0, "X": 0.5}, "co": {"Y": 0, "X": 1}, "handle_left": {"Y": 1, "X": 0.5}, "handle_type": 0, "interpolation": 0}]}}, "has_video": {"Points": [{"co": {"Y": -1, "X": 1}, "interpolation": 2}]}, "has_audio": {"Points": [{"co": {"Y": -1, "X": 1}, "interpolation": 2}]}, "effects": [], "location_x": {"Points": [{"co": {"Y": 0, "X": 1}, "interpolation": 2}]}, "waveform": false, "title": "TE_SR_Taxi.mp4", "image": "/home/robsen/.openshot_qt/thumbnail/Z3LOYBY1PL.png", "gravity": 4, "perspective_c2_x": {"Points": [{"co": {"Y": -1, "X": 1}, "interpolation": 2}]}, "perspective_c1_y": {"Points": [{"co": {"Y": -1, "X": 1}, "interpolation": 2}]}, "crop_height": {"Points": [{"co": {"Y": -1, "X": 1}, "interpolation": 2}]}, "crop_x": {"Points": [{"co": {"Y": 0, "X": 1}, "interpolation": 2}]}, "start": 0, "scale": 1, "shear_y": {"Points": [{"co": {"Y": 0, "X": 1}, "interpolation": 2}]}, "display": 0, "volume": {"Points": [{"co": {"Y": 1, "X": 1}, "interpolation": 2}]}, "channel_mapping": {"Points": [{"co": {"Y": -1, "X": 1}, "interpolation": 2}]}, "anchor": 0, "duration": 31.317333221435547, "perspective_c3_y": {"Points": [{"co": {"Y": -1, "X": 1}, "interpolation": 2}]}, "shear_x": {"Points": [{"co": {"Y": 0, "X": 1}, "interpolation": 2}]}, "perspective_c4_x": {"Points": [{"co": {"Y": -1, "X": 1}, "interpolation": 2}]}, "location_y": {"Points": [{"co": {"Y": 0, "X": 1}, "interpolation": 2}]}, "scale_x": {"Points": [{"co": {"Y": 1, "X": 1}, "interpolation": 2}]}, "layer": 0, "perspective_c2_y": {"Points": [{"co": {"Y": -1, "X": 1}, "interpolation": 2}]}, "perspective_c1_x": {"Points": [{"co": {"Y": -1, "X": 1}, "interpolation": 2}]}, "perspective_c4_y": {"Points": [{"co": {"Y": -1, "X": 1}, "interpolation": 2}]}, "reader": {"audio_bit_rate": 189375, "has_single_image": false, "vcodec": "h264", "has_video": true, "type": "FFmpegReader", "video_length": "937", "audio_timebase": {"den": 48000, "num": 1}, "path": "/home/robsen/Dropbox/Workdir/Repo/SuesseRache-HH-Taxi/TE_SR_Taxi.mp4", "width": 1920, "has_audio": true, "video_bit_rate": 32091692, "channel_layout": 3, "height": 1080, "display_ratio": {"den": 9, "num": 16}, "interlaced_frame": false, "duration": 31.317333221435547, "sample_rate": 48000, "pixel_format": 0, "video_timebase": {"den": 29970, "num": 1}, "file_size": "125628279", "top_field_first": true, "pixel_ratio": {"den": 1, "num": 1}, "acodec": "aac", "audio_stream_index": 1, "video_stream_index": 0, "channels": 2, "fps": {"den": 100, "num": 2997}}, "channel_filter": {"Points": [{"co": {"Y": -1, "X": 1}, "interpolation": 2}]}, "file_id": "Z3LOYBY1PL", "time": {"Points": [{"co": {"Y": 1, "X": 1}, "interpolation": 2}]}}, "value": {"id": "627XQDJ3EP", "start": 0, "end": 31.317333221435547, "position": 21.76, "layer": 1, "image": "/home/robsen/.openshot_qt/thumbnail/Z3LOYBY1PL.png"}, "key": ["clips", {"id": "627XQDJ3EP"}], "partial": false, "type": "update"}, {"old_values": [{"alpha": {"Points": [{"co": {"Y": 1, "X": 1}, "interpolation": 2}]}, "rotation": {"Points": [{"co": {"Y": 0, "X": 1}, "interpolation": 2}]}, "scale_y": {"Points": [{"co": {"Y": 1, "X": 1}, "interpolation": 2}]}, "crop_y": {"Points": [{"co": {"Y": 0, "X": 1}, "interpolation": 2}]}, "perspective_c3_x": {"Points": [{"co": {"Y": -1, "X": 1}, "interpolation": 2}]}, "end": 15, "crop_width": {"Points": [{"co": {"Y": -1, "X": 1}, "interpolation": 2}]}, "position": 8.8, "id": "0AEDFYGQ7J", "wave_color": {"green": {"Points": [{"handle_right": {"Y": 0, "X": 0.5}, "co": {"Y": 123, "X": 1}, "handle_left": {"Y": 1, "X": 0.5}, "handle_type": 0, "interpolation": 0}]}, "blue": {"Points": [{"handle_right": {"Y": 0, "X": 0.5}, "co": {"Y": 255, "X": 1}, "handle_left": {"Y": 1, "X": 0.5}, "handle_type": 0, "interpolation": 0}]}, "alpha": {"Points": [{"handle_right": {"Y": 0, "X": 0.5}, "co": {"Y": 255, "X": 1}, "handle_left": {"Y": 1, "X": 0.5}, "handle_type": 0, "interpolation": 0}]}, "red": {"Points": [{"handle_right": {"Y": 0, "X": 0.5}, "co": {"Y": 0, "X": 1}, "handle_left": {"Y": 1, "X": 0.5}, "handle_type": 0, "interpolation": 0}]}}, "has_video": {"Points": [{"co": {"Y": -1, "X": 1}, "interpolation": 2}]}, "has_audio": {"Points": [{"co": {"Y": -1, "X": 1}, "interpolation": 2}]}, "effects": [], "location_x": {"Points": [{"co": {"Y": 0, "X": 1}, "interpolation": 2}]}, "waveform": false, "title": "taxi_start.mp4", "image": "/home/robsen/.openshot_qt/thumbnail/LGW3TZJV4Q.png", "gravity": 4, "perspective_c2_x": {"Points": [{"co": {"Y": -1, "X": 1}, "interpolation": 2}]}, "perspective_c1_y": {"Points": [{"co": {"Y": -1, "X": 1}, "interpolation": 2}]}, "crop_height": {"Points": [{"co": {"Y": -1, "X": 1}, "interpolation": 2}]}, "crop_x": {"Points": [{"co": {"Y": 0, "X": 1}, "interpolation": 2}]}, "start": 0, "scale": 1, "shear_y": {"Points": [{"co": {"Y": 0, "X": 1}, "interpolation": 2}]}, "display": 0, "volume": {"Points": [{"co": {"Y": 1, "X": 1}, "interpolation": 2}]}, "channel_mapping": {"Points": [{"co": {"Y": -1, "X": 1}, "interpolation": 2}]}, "anchor": 0, "duration": 15.0, "perspective_c3_y": {"Points": [{"co": {"Y": -1, "X": 1}, "interpolation": 2}]}, "shear_x": {"Points": [{"co": {"Y": 0, "X": 1}, "interpolation": 2}]}, "perspective_c4_x": {"Points": [{"co": {"Y": -1, "X": 1}, "interpolation": 2}]}, "location_y": {"Points": [{"co": {"Y": 0, "X": 1}, "interpolation": 2}]}, "scale_x": {"Points": [{"co": {"Y": 1, "X": 1}, "interpolation": 2}]}, "layer": 0, "perspective_c2_y": {"Points": [{"co": {"Y": -1, "X": 1}, "interpolation": 2}]}, "perspective_c1_x": {"Points": [{"co": {"Y": -1, "X": 1}, "interpolation": 2}]}, "perspective_c4_y": {"Points": [{"co": {"Y": -1, "X": 1}, "interpolation": 2}]}, "reader": {"audio_bit_rate": 0, "has_single_image": false, "vcodec": "h264", "has_video": true, "type": "FFmpegReader", "video_length": "375", "audio_timebase": {"den": 1, "num": 1}, "path": "/home/robsen/Dropbox/Workdir/Repo/SuesseRache-HH-Taxi/taxi_start.mp4", "width": 1920, "has_audio": false, "video_bit_rate": 147692, "channel_layout": 4, "height": 1080, "display_ratio": {"den": 9, "num": 16}, "interlaced_frame": false, "duration": 15.0, "sample_rate": 0, "pixel_format": 0, "video_timebase": {"den": 12800, "num": 1}, "file_size": "276924", "top_field_first": true, "pixel_ratio": {"den": 1, "num": 1}, "acodec": "", "audio_stream_index": -1, "video_stream_index": 0, "channels": 0, "fps": {"den": 1, "num": 25}}, "channel_filter": {"Points": [{"co": {"Y": -1, "X": 1}, "interpolation": 2}]}, "file_id": "LGW3TZJV4Q", "time": {"Points": [{"co": {"Y": 1, "X": 1}, "interpolation": 2}]}}, {"alpha": {"Points": [{"co": {"Y": 1, "X": 1}, "interpolation": 2}]}, "rotation": {"Points": [{"co": {"Y": 0, "X": 1}, "interpolation": 2}]}, "scale_y": {"Points": [{"co": {"Y": 1, "X": 1}, "interpolation": 2}]}, "crop_y": {"Points": [{"co": {"Y": 0, "X": 1}, "interpolation": 2}]}, "perspective_c3_x": {"Points": [{"co": {"Y": -1, "X": 1}, "interpolation": 2}]}, "end": 31.317333221435547, "crop_width": {"Points": [{"co": {"Y": -1, "X": 1}, "interpolation": 2}]}, "position": 21.76, "id": "627XQDJ3EP", "wave_color": {"green": {"Points": [{"handle_right": {"Y": 0, "X": 0.5}, "co": {"Y": 123, "X": 1}, "handle_left": {"Y": 1, "X": 0.5}, "handle_type": 0, "interpolation": 0}]}, "blue": {"Points": [{"handle_right": {"Y": 0, "X": 0.5}, "co": {"Y": 255, "X": 1}, "handle_left": {"Y": 1, "X": 0.5}, "handle_type": 0, "interpolation": 0}]}, "alpha": {"Points": [{"handle_right": {"Y": 0, "X": 0.5}, "co": {"Y": 255, "X": 1}, "handle_left": {"Y": 1, "X": 0.5}, "handle_type": 0, "interpolation": 0}]}, "red": {"Points": [{"handle_right": {"Y": 0, "X": 0.5}, "co": {"Y": 0, "X": 1}, "handle_left": {"Y": 1, "X": 0.5}, "handle_type": 0, "interpolation": 0}]}}, "has_video": {"Points": [{"co": {"Y": -1, "X": 1}, "interpolation": 2}]}, "has_audio": {"Points": [{"co": {"Y": -1, "X": 1}, "interpolation": 2}]}, "effects": [], "location_x": {"Points": [{"co": {"Y": 0, "X": 1}, "interpolation": 2}]}, "waveform": false, "title": "TE_SR_Taxi.mp4", "image": "/home/robsen/.openshot_qt/thumbnail/Z3LOYBY1PL.png", "gravity": 4, "perspective_c2_x": {"Points": [{"co": {"Y": -1, "X": 1}, "interpolation": 2}]}, "perspective_c1_y": {"Points": [{"co": {"Y": -1, "X": 1}, "interpolation": 2}]}, "crop_height": {"Points": [{"co": {"Y": -1, "X": 1}, "interpolation": 2}]}, "crop_x": {"Points": [{"co": {"Y": 0, "X": 1}, "interpolation": 2}]}, "start": 0, "scale": 1, "shear_y": {"Points": [{"co": {"Y": 0, "X": 1}, "interpolation": 2}]}, "display": 0, "volume": {"Points": [{"co": {"Y": 1, "X": 1}, "interpolation": 2}]}, "channel_mapping": {"Points": [{"co": {"Y": -1, "X": 1}, "interpolation": 2}]}, "anchor": 0, "duration": 31.317333221435547, "perspective_c3_y": {"Points": [{"co": {"Y": -1, "X": 1}, "interpolation": 2}]}, "shear_x": {"Points": [{"co": {"Y": 0, "X": 1}, "interpolation": 2}]}, "perspective_c4_x": {"Points": [{"co": {"Y": -1, "X": 1}, "interpolation": 2}]}, "location_y": {"Points": [{"co": {"Y": 0, "X": 1}, "interpolation": 2}]}, "scale_x": {"Points": [{"co": {"Y": 1, "X": 1}, "interpolation": 2}]}, "layer": 1, "perspective_c2_y": {"Points": [{"co": {"Y": -1, "X": 1}, "interpolation": 2}]}, "perspective_c1_x": {"Points": [{"co": {"Y": -1, "X": 1}, "interpolation": 2}]}, "perspective_c4_y": {"Points": [{"co": {"Y": -1, "X": 1}, "interpolation": 2}]}, "reader": {"audio_bit_rate": 189375, "has_single_image": false, "vcodec": "h264", "has_video": true, "type": "FFmpegReader", "video_length": "937", "audio_timebase": {"den": 48000, "num": 1}, "path": "/home/robsen/Dropbox/Workdir/Repo/SuesseRache-HH-Taxi/TE_SR_Taxi.mp4", "width": 1920, "has_audio": true, "video_bit_rate": 32091692, "channel_layout": 3, "height": 1080, "display_ratio": {"den": 9, "num": 16}, "interlaced_frame": false, "duration": 31.317333221435547, "sample_rate": 48000, "pixel_format": 0, "video_timebase": {"den": 29970, "num": 1}, "file_size": "125628279", "top_field_first": true, "pixel_ratio": {"den": 1, "num": 1}, "acodec": "aac", "audio_stream_index": 1, "video_stream_index": 0, "channels": 2, "fps": {"den": 100, "num": 2997}}, "channel_filter": {"Points": [{"co": {"Y": -1, "X": 1}, "interpolation": 2}]}, "file_id": "Z3LOYBY1PL", "time": {"Points": [{"co": {"Y": 1, "X": 1}, "interpolation": 2}]}}], "value": {"alpha": {"Points": [{"co": {"Y": 1, "X": 1}, "interpolation": 2}, {"handle_right": {"Y": 0, "X": 0.5}, "co": {"Y": 0, "X": 1}, "handle_left": {"Y": 1, "X": 0.5}, "handle_type": 0, "interpolation": 0}, {"handle_right": {"Y": 0, "X": 0.5}, "co": {"Y": 1, "X": 73}, "handle_left": {"Y": 1, "X": 0.5}, "handle_type": 0, "interpolation": 0}]}, "rotation": {"Points": [{"co": {"Y": 0, "X": 1}, "interpolation": 2}]}, "scale_y": {"Points": [{"co": {"Y": 1, "X": 1}, "interpolation": 2}]}, "crop_y": {"Points": [{"co": {"Y": 0, "X": 1}, "interpolation": 2}]}, "perspective_c3_x": {"Points": [{"co": {"Y": -1, "X": 1}, "interpolation": 2}]}, "end": 15, "crop_width": {"Points": [{"co": {"Y": -1, "X": 1}, "interpolation": 2}]}, "position": 53.075, "id": "PJWPMFXKV3", "wave_color": {"green": {"Points": [{"handle_right": {"Y": 0, "X": 0.5}, "co": {"Y": 123, "X": 1}, "handle_left": {"Y": 1, "X": 0.5}, "handle_type": 0, "interpolation": 0}]}, "blue": {"Points": [{"handle_right": {"Y": 0, "X": 0.5}, "co": {"Y": 255, "X": 1}, "handle_left": {"Y": 1, "X": 0.5}, "handle_type": 0, "interpolation": 0}]}, "alpha": {"Points": [{"handle_right": {"Y": 0, "X": 0.5}, "co": {"Y": 255, "X": 1}, "handle_left": {"Y": 1, "X": 0.5}, "handle_type": 0, "interpolation": 0}]}, "red": {"Points": [{"handle_right": {"Y": 0, "X": 0.5}, "co": {"Y": 0, "X": 1}, "handle_left": {"Y": 1, "X": 0.5}, "handle_type": 0, "interpolation": 0}]}}, "has_video": {"Points": [{"co": {"Y": -1, "X": 1}, "interpolation": 2}]}, "has_audio": {"Points": [{"co": {"Y": -1, "X": 1}, "interpolation": 2}]}, "effects": [], "location_x": {"Points": [{"co": {"Y": 0, "X": 1}, "interpolation": 2}]}, "waveform": false, "title": "arrow.mp4", "image": "/home/robsen/.openshot_qt/thumbnail/X22V56NF57.png", "gravity": 4, "scale_x": {"Points": [{"co": {"Y": 1, "X": 1}, "interpolation": 2}]}, "perspective_c1_y": {"Points": [{"co": {"Y": -1, "X": 1}, "interpolation": 2}]}, "crop_height": {"Points": [{"co": {"Y": -1, "X": 1}, "interpolation": 2}]}, "crop_x": {"Points": [{"co": {"Y": 0, "X": 1}, "interpolation": 2}]}, "start": 0, "scale": 1, "shear_y": {"Points": [{"co": {"Y": 0, "X": 1}, "interpolation": 2}]}, "display": 0, "volume": {"Points": [{"co": {"Y": 1, "X": 1}, "interpolation": 2}]}, "channel_mapping": {"Points": [{"co": {"Y": -1, "X": 1}, "interpolation": 2}]}, "anchor": 0, "duration": 15.0, "perspective_c3_y": {"Points": [{"co": {"Y": -1, "X": 1}, "interpolation": 2}]}, "shear_x": {"Points": [{"co": {"Y": 0, "X": 1}, "interpolation": 2}]}, "perspective_c4_x": {"Points": [{"co": {"Y": -1, "X": 1}, "interpolation": 2}]}, "location_y": {"Points": [{"co": {"Y": 0, "X": 1}, "interpolation": 2}]}, "perspective_c2_x": {"Points": [{"co": {"Y": -1, "X": 1}, "interpolation": 2}]}, "layer": 2, "perspective_c2_y": {"Points": [{"co": {"Y": -1, "X": 1}, "interpolation": 2}]}, "perspective_c1_x": {"Points": [{"co": {"Y": -1, "X": 1}, "interpolation": 2}]}, "perspective_c4_y": {"Points": [{"co": {"Y": -1, "X": 1}, "interpolation": 2}]}, "reader": {"audio_bit_rate": 0, "has_single_image": false, "has_video": true, "type": "FFmpegReader", "video_length": "375", "audio_timebase": {"den": 1, "num": 1}, "path": "/home/robsen/Dropbox/Workdir/Repo/SuesseRache-HH-Taxi/arrow.mp4", "width": 1920, "has_audio": false, "video_bit_rate": 83079, "channel_layout": 4, "height": 1080, "display_ratio": {"den": 9, "num": 16}, "interlaced_frame": false, "video_timebase": {"den": 12800, "num": 1}, "duration": 15.0, "sample_rate": 0, "pixel_format": 0, "fps": {"den": 1, "num": 25}, "file_size": "155774", "top_field_first": true, "pixel_ratio": {"den": 1, "num": 1}, "acodec": "", "audio_stream_index": -1, "video_stream_index": 0, "channels": 0, "vcodec": "h264"}, "channel_filter": {"Points": [{"co": {"Y": -1, "X": 1}, "interpolation": 2}]}, "file_id": "X22V56NF57", "time": {"Points": [{"co": {"Y": 1, "X": 1}, "interpolation": 2}]}}, "key": ["clips"], "partial": false, "type": "insert"}, {"old_values": {"alpha": {"Points": [{"co": {"Y": 1, "X": 1}, "interpolation": 2}]}, "rotation": {"Points": [{"co": {"Y": 0, "X": 1}, "interpolation": 2}]}, "scale_y": {"Points": [{"co": {"Y": 1, "X": 1}, "interpolation": 2}]}, "crop_y": {"Points": [{"co": {"Y": 0, "X": 1}, "interpolation": 2}]}, "perspective_c3_x": {"Points": [{"co": {"Y": -1, "X": 1}, "interpolation": 2}]}, "end": 15.0, "crop_width": {"Points": [{"co": {"Y": -1, "X": 1}, "interpolation": 2}]}, "position": 62.88, "id": "PJWPMFXKV3", "wave_color": {"green": {"Points": [{"handle_right": {"Y": 0, "X": 0.5}, "co": {"Y": 123, "X": 1}, "handle_left": {"Y": 1, "X": 0.5}, "handle_type": 0, "interpolation": 0}]}, "blue": {"Points": [{"handle_right": {"Y": 0, "X": 0.5}, "co": {"Y": 255, "X": 1}, "handle_left": {"Y": 1, "X": 0.5}, "handle_type": 0, "interpolation": 0}]}, "alpha": {"Points": [{"handle_right": {"Y": 0, "X": 0.5}, "co": {"Y": 255, "X": 1}, "handle_left": {"Y": 1, "X": 0.5}, "handle_type": 0, "interpolation": 0}]}, "red": {"Points": [{"handle_right": {"Y": 0, "X": 0.5}, "co": {"Y": 0, "X": 1}, "handle_left": {"Y": 1, "X": 0.5}, "handle_type": 0, "interpolation": 0}]}}, "has_video": {"Points": [{"co": {"Y": -1, "X": 1}, "interpolation": 2}]}, "has_audio": {"Points": [{"co": {"Y": -1, "X": 1}, "interpolation": 2}]}, "effects": [], "location_x": {"Points": [{"co": {"Y": 0, "X": 1}, "interpolation": 2}]}, "waveform": false, "title": "arrow.mp4", "image": "/home/robsen/.openshot_qt/thumbnail/X22V56NF57.png", "gravity": 4, "scale_x": {"Points": [{"co": {"Y": 1, "X": 1}, "interpolation": 2}]}, "perspective_c1_y": {"Points": [{"co": {"Y": -1, "X": 1}, "interpolation": 2}]}, "crop_height": {"Points": [{"co": {"Y": -1, "X": 1}, "interpolation": 2}]}, "crop_x": {"Points": [{"co": {"Y": 0, "X": 1}, "interpolation": 2}]}, "start": 0, "scale": 1, "shear_y": {"Points": [{"co": {"Y": 0, "X": 1}, "interpolation": 2}]}, "display": 0, "volume": {"Points": [{"co": {"Y": 1, "X": 1}, "interpolation": 2}]}, "channel_mapping": {"Points": [{"co": {"Y": -1, "X": 1}, "interpolation": 2}]}, "anchor": 0, "duration": 15.0, "perspective_c3_y": {"Points": [{"co": {"Y": -1, "X": 1}, "interpolation": 2}]}, "shear_x": {"Points": [{"co": {"Y": 0, "X": 1}, "interpolation": 2}]}, "perspective_c4_x": {"Points": [{"co": {"Y": -1, "X": 1}, "interpolation": 2}]}, "location_y": {"Points": [{"co": {"Y": 0, "X": 1}, "interpolation": 2}]}, "perspective_c2_x": {"Points": [{"co": {"Y": -1, "X": 1}, "interpolation": 2}]}, "layer": 2, "perspective_c2_y": {"Points": [{"co": {"Y": -1, "X": 1}, "interpolation": 2}]}, "perspective_c1_x": {"Points": [{"co": {"Y": -1, "X": 1}, "interpolation": 2}]}, "perspective_c4_y": {"Points": [{"co": {"Y": -1, "X": 1}, "interpolation": 2}]}, "reader": {"audio_bit_rate": 0, "has_single_image": false, "vcodec": "h264", "has_video": true, "type": "FFmpegReader", "video_length": "375", "audio_timebase": {"den": 1, "num": 1}, "path": "/home/robsen/Dropbox/Workdir/Repo/SuesseRache-HH-Taxi/arrow.mp4", "width": 1920, "has_audio": false, "video_bit_rate": 83079, "channel_layout": 4, "height": 1080, "display_ratio": {"den": 9, "num": 16}, "interlaced_frame": false, "duration": 15.0, "sample_rate": 0, "pixel_format": 0, "video_timebase": {"den": 12800, "num": 1}, "file_size": "155774", "top_field_first": true, "pixel_ratio": {"den": 1, "num": 1}, "acodec": "", "audio_stream_index": -1, "video_stream_index": 0, "channels": 0, "fps": {"den": 1, "num": 25}}, "channel_filter": {"Points": [{"co": {"Y": -1, "X": 1}, "interpolation": 2}]}, "file_id": "X22V56NF57", "time": {"Points": [{"co": {"Y": 1, "X": 1}, "interpolation": 2}]}}, "value": {"id": "PJWPMFXKV3", "start": 0, "end": 15, "position": 63.04, "layer": 1, "image": "/home/robsen/.openshot_qt/thumbnail/X22V56NF57.png"}, "key": ["clips", {"id": "PJWPMFXKV3"}], "partial": false, "type": "update"}, {"old_values": {"alpha": {"Points": [{"co": {"Y": 1, "X": 1}, "interpolation": 2}]}, "rotation": {"Points": [{"co": {"Y": 0, "X": 1}, "interpolation": 2}]}, "scale_y": {"Points": [{"co": {"Y": 1, "X": 1}, "interpolation": 2}]}, "crop_y": {"Points": [{"co": {"Y": 0, "X": 1}, "interpolation": 2}]}, "perspective_c3_x": {"Points": [{"co": {"Y": -1, "X": 1}, "interpolation": 2}]}, "end": 15, "crop_width": {"Points": [{"co": {"Y": -1, "X": 1}, "interpolation": 2}]}, "position": 63.04, "id": "PJWPMFXKV3", "wave_color": {"green": {"Points": [{"handle_right": {"Y": 0, "X": 0.5}, "co": {"Y": 123, "X": 1}, "handle_left": {"Y": 1, "X": 0.5}, "handle_type": 0, "interpolation": 0}]}, "blue": {"Points": [{"handle_right": {"Y": 0, "X": 0.5}, "co": {"Y": 255, "X": 1}, "handle_left": {"Y": 1, "X": 0.5}, "handle_type": 0, "interpolation": 0}]}, "alpha": {"Points": [{"handle_right": {"Y": 0, "X": 0.5}, "co": {"Y": 255, "X": 1}, "handle_left": {"Y": 1, "X": 0.5}, "handle_type": 0, "interpolation": 0}]}, "red": {"Points": [{"handle_right": {"Y": 0, "X": 0.5}, "co": {"Y": 0, "X": 1}, "handle_left": {"Y": 1, "X": 0.5}, "handle_type": 0, "interpolation": 0}]}}, "has_video": {"Points": [{"co": {"Y": -1, "X": 1}, "interpolation": 2}]}, "has_audio": {"Points": [{"co": {"Y": -1, "X": 1}, "interpolation": 2}]}, "effects": [], "location_x": {"Points": [{"co": {"Y": 0, "X": 1}, "interpolation": 2}]}, "waveform": false, "title": "arrow.mp4", "image": "/home/robsen/.openshot_qt/thumbnail/X22V56NF57.png", "gravity": 4, "perspective_c2_x": {"Points": [{"co": {"Y": -1, "X": 1}, "interpolation": 2}]}, "perspective_c1_y": {"Points": [{"co": {"Y": -1, "X": 1}, "interpolation": 2}]}, "crop_height": {"Points": [{"co": {"Y": -1, "X": 1}, "interpolation": 2}]}, "crop_x": {"Points": [{"co": {"Y": 0, "X": 1}, "interpolation": 2}]}, "start": 0, "scale": 1, "shear_y": {"Points": [{"co": {"Y": 0, "X": 1}, "interpolation": 2}]}, "display": 0, "volume": {"Points": [{"co": {"Y": 1, "X": 1}, "interpolation": 2}]}, "channel_mapping": {"Points": [{"co": {"Y": -1, "X": 1}, "interpolation": 2}]}, "anchor": 0, "duration": 15.0, "perspective_c3_y": {"Points": [{"co": {"Y": -1, "X": 1}, "interpolation": 2}]}, "shear_x": {"Points": [{"co": {"Y": 0, "X": 1}, "interpolation": 2}]}, "perspective_c4_x": {"Points": [{"co": {"Y": -1, "X": 1}, "interpolation": 2}]}, "location_y": {"Points": [{"co": {"Y": 0, "X": 1}, "interpolation": 2}]}, "scale_x": {"Points": [{"co": {"Y": 1, "X": 1}, "interpolation": 2}]}, "layer": 1, "perspective_c2_y": {"Points": [{"co": {"Y": -1, "X": 1}, "interpolation": 2}]}, "perspective_c1_x": {"Points": [{"co": {"Y": -1, "X": 1}, "interpolation": 2}]}, "perspective_c4_y": {"Points": [{"co": {"Y": -1, "X": 1}, "interpolation": 2}]}, "reader": {"audio_bit_rate": 0, "has_single_image": false, "vcodec": "h264", "has_video": true, "type": "FFmpegReader", "video_length": "375", "audio_timebase": {"den": 1, "num": 1}, "path": "/home/robsen/Dropbox/Workdir/Repo/SuesseRache-HH-Taxi/arrow.mp4", "width": 1920, "has_audio": false, "video_bit_rate": 83079, "channel_layout": 4, "height": 1080, "display_ratio": {"den": 9, "num": 16}, "interlaced_frame": false, "duration": 15.0, "sample_rate": 0, "pixel_format": 0, "video_timebase": {"den": 12800, "num": 1}, "file_size": "155774", "top_field_first": true, "pixel_ratio": {"den": 1, "num": 1}, "acodec": "", "audio_stream_index": -1, "video_stream_index": 0, "channels": 0, "fps": {"den": 1, "num": 25}}, "channel_filter": {"Points": [{"co": {"Y": -1, "X": 1}, "interpolation": 2}]}, "file_id": "X22V56NF57", "time": {"Points": [{"co": {"Y": 1, "X": 1}, "interpolation": 2}]}}, "value": {"id": "PJWPMFXKV3", "start": 0, "end": 15, "position": 53.075, "layer": 2, "image": "/home/robsen/.openshot_qt/thumbnail/X22V56NF57.png"}, "key": ["clips", {"id": "PJWPMFXKV3"}], "partial": false, "type": "update"}, {"old_values": {"start": 0, "type": "Mask", "contrast": {"Points": [{"co": {"Y": 3, "X": 1}, "interpolation": 2}]}, "layer": 0, "replace_image": false, "title": "Transition", "end": 2.039999999999999, "reader": {"audio_bit_rate": 0, "has_single_image": true, "vcodec": "", "has_video": true, "type": "QtImageReader", "video_length": "2592000", "audio_timebase": {"den": 1, "num": 1}, "path": "/usr/lib/python3/dist-packages/openshot_qt/transitions/common/fade.svg", "width": 720, "has_audio": false, "video_bit_rate": 0, "channel_layout": 4, "height": 576, "display_ratio": {"den": 4, "num": 5}, "interlaced_frame": false, "duration": 86400, "sample_rate": 0, "pixel_format": -1, "video_timebase": {"den": 30, "num": 1}, "file_size": "1658880", "top_field_first": true, "pixel_ratio": {"den": 1, "num": 1}, "acodec": "", "audio_stream_index": -1, "video_stream_index": -1, "channels": 0, "fps": {"den": 1, "num": 30}}, "brightness": {"Points": [{"handle_right": {"Y": 0, "X": 0.5}, "co": {"Y": 1, "X": 1}, "handle_left": {"Y": 1, "X": 0.5}, "handle_type": 0, "interpolation": 0}, {"handle_right": {"Y": 0, "X": 0.5}, "co": {"Y": -1, "X": 50}, "handle_left": {"Y": 1, "X": 0.5}, "handle_type": 0, "interpolation": 0}]}, "id": "5NBS5H99MA", "position": 21.76}, "value": null, "key": ["effects", {"id": "5NBS5H99MA"}], "partial": false, "type": "delete"}, {"old_values": {"alpha": {"Points": [{"co": {"Y": 1, "X": 1}, "interpolation": 2}]}, "rotation": {"Points": [{"co": {"Y": 0, "X": 1}, "interpolation": 2}]}, "scale_y": {"Points": [{"co": {"Y": 1, "X": 1}, "interpolation": 2}]}, "crop_y": {"Points": [{"co": {"Y": 0, "X": 1}, "interpolation": 2}]}, "perspective_c3_x": {"Points": [{"co": {"Y": -1, "X": 1}, "interpolation": 2}]}, "end": 15, "crop_width": {"Points": [{"co": {"Y": -1, "X": 1}, "interpolation": 2}]}, "position": 8.8, "id": "0AEDFYGQ7J", "wave_color": {"green": {"Points": [{"handle_right": {"Y": 0, "X": 0.5}, "co": {"Y": 123, "X": 1}, "handle_left": {"Y": 1, "X": 0.5}, "handle_type": 0, "interpolation": 0}]}, "blue": {"Points": [{"handle_right": {"Y": 0, "X": 0.5}, "co": {"Y": 255, "X": 1}, "handle_left": {"Y": 1, "X": 0.5}, "handle_type": 0, "interpolation": 0}]}, "alpha": {"Points": [{"handle_right": {"Y": 0, "X": 0.5}, "co": {"Y": 255, "X": 1}, "handle_left": {"Y": 1, "X": 0.5}, "handle_type": 0, "interpolation": 0}]}, "red": {"Points": [{"handle_right": {"Y": 0, "X": 0.5}, "co": {"Y": 0, "X": 1}, "handle_left": {"Y": 1, "X": 0.5}, "handle_type": 0, "interpolation": 0}]}}, "has_video": {"Points": [{"co": {"Y": -1, "X": 1}, "interpolation": 2}]}, "has_audio": {"Points": [{"co": {"Y": -1, "X": 1}, "interpolation": 2}]}, "effects": [], "location_x": {"Points": [{"co": {"Y": 0, "X": 1}, "interpolation": 2}]}, "waveform": false, "title": "taxi_start.mp4", "image": "/home/robsen/.openshot_qt/thumbnail/LGW3TZJV4Q.png", "gravity": 4, "perspective_c2_x": {"Points": [{"co": {"Y": -1, "X": 1}, "interpolation": 2}]}, "perspective_c1_y": {"Points": [{"co": {"Y": -1, "X": 1}, "interpolation": 2}]}, "crop_height": {"Points": [{"co": {"Y": -1, "X": 1}, "interpolation": 2}]}, "crop_x": {"Points": [{"co": {"Y": 0, "X": 1}, "interpolation": 2}]}, "start": 0, "scale": 1, "shear_y": {"Points": [{"co": {"Y": 0, "X": 1}, "interpolation": 2}]}, "display": 0, "volume": {"Points": [{"co": {"Y": 1, "X": 1}, "interpolation": 2}]}, "channel_mapping": {"Points": [{"co": {"Y": -1, "X": 1}, "interpolation": 2}]}, "anchor": 0, "duration": 15.0, "perspective_c3_y": {"Points": [{"co": {"Y": -1, "X": 1}, "interpolation": 2}]}, "shear_x": {"Points": [{"co": {"Y": 0, "X": 1}, "interpolation": 2}]}, "perspective_c4_x": {"Points": [{"co": {"Y": -1, "X": 1}, "interpolation": 2}]}, "location_y": {"Points": [{"co": {"Y": 0, "X": 1}, "interpolation": 2}]}, "scale_x": {"Points": [{"co": {"Y": 1, "X": 1}, "interpolation": 2}]}, "layer": 0, "perspective_c2_y": {"Points": [{"co": {"Y": -1, "X": 1}, "interpolation": 2}]}, "perspective_c1_x": {"Points": [{"co": {"Y": -1, "X": 1}, "interpolation": 2}]}, "perspective_c4_y": {"Points": [{"co": {"Y": -1, "X": 1}, "interpolation": 2}]}, "reader": {"audio_bit_rate": 0, "has_single_image": false, "vcodec": "h264", "has_video": true, "type": "FFmpegReader", "video_length": "375", "audio_timebase": {"den": 1, "num": 1}, "path": "/home/robsen/Dropbox/Workdir/Repo/SuesseRache-HH-Taxi/taxi_start.mp4", "width": 1920, "has_audio": false, "video_bit_rate": 147692, "channel_layout": 4, "height": 1080, "display_ratio": {"den": 9, "num": 16}, "interlaced_frame": false, "duration": 15.0, "sample_rate": 0, "pixel_format": 0, "video_timebase": {"den": 12800, "num": 1}, "file_size": "276924", "top_field_first": true, "pixel_ratio": {"den": 1, "num": 1}, "acodec": "", "audio_stream_index": -1, "video_stream_index": 0, "channels": 0, "fps": {"den": 1, "num": 25}}, "channel_filter": {"Points": [{"co": {"Y": -1, "X": 1}, "interpolation": 2}]}, "file_id": "LGW3TZJV4Q", "time": {"Points": [{"co": {"Y": 1, "X": 1}, "interpolation": 2}]}}, "value": {"alpha": {"Points": [{"co": {"Y": 1, "X": 1}, "interpolation": 2}, {"handle_right": {"Y": 0, "X": 0.5}, "co": {"Y": 1, "X": 289}, "handle_left": {"Y": 1, "X": 0.5}, "handle_type": 0, "interpolation": 0}, {"handle_right": {"Y": 0, "X": 0.5}, "co": {"Y": 0, "X": 361}, "handle_left": {"Y": 1, "X": 0.5}, "handle_type": 0, "interpolation": 0}]}, "rotation": {"Points": [{"co": {"Y": 0, "X": 1}, "interpolation": 2}]}, "scale_y": {"Points": [{"co": {"Y": 1, "X": 1}, "interpolation": 2}]}, "crop_y": {"Points": [{"co": {"Y": 0, "X": 1}, "interpolation": 2}]}, "crop_width": {"Points": [{"co": {"Y": -1, "X": 1}, "interpolation": 2}]}, "end": 15, "perspective_c3_x": {"Points": [{"co": {"Y": -1, "X": 1}, "interpolation": 2}]}, "position": 8.8, "id": "0AEDFYGQ7J", "wave_color": {"green": {"Points": [{"handle_right": {"Y": 0, "X": 0.5}, "co": {"Y": 123, "X": 1}, "handle_left": {"Y": 1, "X": 0.5}, "handle_type": 0, "interpolation": 0}]}, "blue": {"Points": [{"handle_right": {"Y": 0, "X": 0.5}, "co": {"Y": 255, "X": 1}, "handle_left": {"Y": 1, "X": 0.5}, "handle_type": 0, "interpolation": 0}]}, "alpha": {"Points": [{"handle_right": {"Y": 0, "X": 0.5}, "co": {"Y": 255, "X": 1}, "handle_left": {"Y": 1, "X": 0.5}, "handle_type": 0, "interpolation": 0}]}, "red": {"Points": [{"handle_right": {"Y": 0, "X": 0.5}, "co": {"Y": 0, "X": 1}, "handle_left": {"Y": 1, "X": 0.5}, "handle_type": 0, "interpolation": 0}]}}, "has_video": {"Points": [{"co": {"Y": -1, "X": 1}, "interpolation": 2}]}, "has_audio": {"Points": [{"co": {"Y": -1, "X": 1}, "interpolation": 2}]}, "effects": [], "location_x": {"Points": [{"co": {"Y": 0, "X": 1}, "interpolation": 2}]}, "waveform": false, "title": "taxi_start.mp4", "image": "/home/robsen/.openshot_qt/thumbnail/LGW3TZJV4Q.png", "gravity": 4, "scale_x": {"Points": [{"co": {"Y": 1, "X": 1}, "interpolation": 2}]}, "perspective_c1_y": {"Points": [{"co": {"Y": -1, "X": 1}, "interpolation": 2}]}, "crop_height": {"Points": [{"co": {"Y": -1, "X": 1}, "interpolation": 2}]}, "crop_x": {"Points": [{"co": {"Y": 0, "X": 1}, "interpolation": 2}]}, "start": 0, "scale": 1, "shear_y": {"Points": [{"co": {"Y": 0, "X": 1}, "interpolation": 2}]}, "display": 0, "volume": {"Points": [{"co": {"Y": 1, "X": 1}, "interpolation": 2}]}, "channel_mapping": {"Points": [{"co": {"Y": -1, "X": 1}, "interpolation": 2}]}, "anchor": 0, "duration": 15.0, "perspective_c3_y": {"Points": [{"co": {"Y": -1, "X": 1}, "interpolation": 2}]}, "shear_x": {"Points": [{"co": {"Y": 0, "X": 1}, "interpolation": 2}]}, "perspective_c4_x": {"Points": [{"co": {"Y": -1, "X": 1}, "interpolation": 2}]}, "location_y": {"Points": [{"co": {"Y": 0, "X": 1}, "interpolation": 2}]}, "perspective_c2_x": {"Points": [{"co": {"Y": -1, "X": 1}, "interpolation": 2}]}, "layer": 0, "perspective_c2_y": {"Points": [{"co": {"Y": -1, "X": 1}, "interpolation": 2}]}, "perspective_c1_x": {"Points": [{"co": {"Y": -1, "X": 1}, "interpolation": 2}]}, "perspective_c4_y": {"Points": [{"co": {"Y": -1, "X": 1}, "interpolation": 2}]}, "channel_filter": {"Points": [{"co": {"Y": -1, "X": 1}, "interpolation": 2}]}, "time": {"Points": [{"co": {"Y": 1, "X": 1}, "interpolation": 2}]}, "file_id": "LGW3TZJV4Q"}, "key": ["clips", {"id": "0AEDFYGQ7J"}], "partial": false, "type": "update"}, {"old_values": {"alpha": {"Points": [{"co": {"Y": 1, "X": 1}, "interpolation": 2}, {"handle_right": {"Y": 0, "X": 0.5}, "co": {"Y": 1, "X": 289}, "handle_left": {"Y": 1, "X": 0.5}, "handle_type": 0, "interpolation": 0}, {"handle_right": {"Y": 0, "X": 0.5}, "co": {"Y": 0, "X": 361}, "handle_left": {"Y": 1, "X": 0.5}, "handle_type": 0, "interpolation": 0}]}, "rotation": {"Points": [{"co": {"Y": 0, "X": 1}, "interpolation": 2}]}, "scale_y": {"Points": [{"co": {"Y": 1, "X": 1}, "interpolation": 2}]}, "crop_y": {"Points": [{"co": {"Y": 0, "X": 1}, "interpolation": 2}]}, "perspective_c3_x": {"Points": [{"co": {"Y": -1, "X": 1}, "interpolation": 2}]}, "end": 15, "crop_width": {"Points": [{"co": {"Y": -1, "X": 1}, "interpolation": 2}]}, "position": 8.8, "id": "0AEDFYGQ7J", "wave_color": {"green": {"Points": [{"handle_right": {"Y": 0, "X": 0.5}, "co": {"Y": 123, "X": 1}, "handle_left": {"Y": 1, "X": 0.5}, "handle_type": 0, "interpolation": 0}]}, "blue": {"Points": [{"handle_right": {"Y": 0, "X": 0.5}, "co": {"Y": 255, "X": 1}, "handle_left": {"Y": 1, "X": 0.5}, "handle_type": 0, "interpolation": 0}]}, "alpha": {"Points": [{"handle_right": {"Y": 0, "X": 0.5}, "co": {"Y": 255, "X": 1}, "handle_left": {"Y": 1, "X": 0.5}, "handle_type": 0, "interpolation": 0}]}, "red": {"Points": [{"handle_right": {"Y": 0, "X": 0.5}, "co": {"Y": 0, "X": 1}, "handle_left": {"Y": 1, "X": 0.5}, "handle_type": 0, "interpolation": 0}]}}, "has_video": {"Points": [{"co": {"Y": -1, "X": 1}, "interpolation": 2}]}, "has_audio": {"Points": [{"co": {"Y": -1, "X": 1}, "interpolation": 2}]}, "effects": [], "location_x": {"Points": [{"co": {"Y": 0, "X": 1}, "interpolation": 2}]}, "waveform": false, "title": "taxi_start.mp4", "image": "/home/robsen/.openshot_qt/thumbnail/LGW3TZJV4Q.png", "gravity": 4, "perspective_c2_x": {"Points": [{"co": {"Y": -1, "X": 1}, "interpolation": 2}]}, "perspective_c1_y": {"Points": [{"co": {"Y": -1, "X": 1}, "interpolation": 2}]}, "crop_height": {"Points": [{"co": {"Y": -1, "X": 1}, "interpolation": 2}]}, "crop_x": {"Points": [{"co": {"Y": 0, "X": 1}, "interpolation": 2}]}, "start": 0, "scale": 1, "shear_y": {"Points": [{"co": {"Y": 0, "X": 1}, "interpolation": 2}]}, "display": 0, "volume": {"Points": [{"co": {"Y": 1, "X": 1}, "interpolation": 2}]}, "channel_mapping": {"Points": [{"co": {"Y": -1, "X": 1}, "interpolation": 2}]}, "anchor": 0, "duration": 15.0, "perspective_c3_y": {"Points": [{"co": {"Y": -1, "X": 1}, "interpolation": 2}]}, "shear_x": {"Points": [{"co": {"Y": 0, "X": 1}, "interpolation": 2}]}, "perspective_c4_x": {"Points": [{"co": {"Y": -1, "X": 1}, "interpolation": 2}]}, "location_y": {"Points": [{"co": {"Y": 0, "X": 1}, "interpolation": 2}]}, "scale_x": {"Points": [{"co": {"Y": 1, "X": 1}, "interpolation": 2}]}, "layer": 0, "perspective_c2_y": {"Points": [{"co": {"Y": -1, "X": 1}, "interpolation": 2}]}, "perspective_c1_x": {"Points": [{"co": {"Y": -1, "X": 1}, "interpolation": 2}]}, "perspective_c4_y": {"Points": [{"co": {"Y": -1, "X": 1}, "interpolation": 2}]}, "reader": {"audio_bit_rate": 0, "has_single_image": false, "vcodec": "h264", "has_video": true, "type": "FFmpegReader", "video_length": "375", "audio_timebase": {"den": 1, "num": 1}, "path": "/home/robsen/Dropbox/Workdir/Repo/SuesseRache-HH-Taxi/taxi_start.mp4", "width": 1920, "has_audio": false, "video_bit_rate": 147692, "channel_layout": 4, "height": 1080, "display_ratio": {"den": 9, "num": 16}, "interlaced_frame": false, "duration": 15.0, "sample_rate": 0, "pixel_format": 0, "video_timebase": {"den": 12800, "num": 1}, "file_size": "276924", "top_field_first": true, "pixel_ratio": {"den": 1, "num": 1}, "acodec": "", "audio_stream_index": -1, "video_stream_index": 0, "channels": 0, "fps": {"den": 1, "num": 25}}, "channel_filter": {"Points": [{"co": {"Y": -1, "X": 1}, "interpolation": 2}]}, "file_id": "LGW3TZJV4Q", "time": {"Points": [{"co": {"Y": 1, "X": 1}, "interpolation": 2}]}}, "value": {"alpha": {"Points": [{"co": {"Y": 1, "X": 1}, "interpolation": 2}, {"handle_right": {"Y": 0, "X": 0.5}, "co": {"Y": 1, "X": 289}, "handle_left": {"Y": 1, "X": 0.5}, "handle_type": 0, "interpolation": 0}, {"handle_right": {"Y": 0, "X": 0.5}, "co": {"Y": 0, "X": 361}, "handle_left": {"Y": 1, "X": 0.5}, "handle_type": 0, "interpolation": 0}, {"handle_right": {"Y": 0, "X": 0.5}, "co": {"Y": 0, "X": 1}, "handle_left": {"Y": 1, "X": 0.5}, "handle_type": 0, "interpolation": 0}, {"handle_right": {"Y": 0, "X": 0.5}, "co": {"Y": 1, "X": 73}, "handle_left": {"Y": 1, "X": 0.5}, "handle_type": 0, "interpolation": 0}]}, "rotation": {"Points": [{"co": {"Y": 0, "X": 1}, "interpolation": 2}]}, "scale_y": {"Points": [{"co": {"Y": 1, "X": 1}, "interpolation": 2}]}, "crop_y": {"Points": [{"co": {"Y": 0, "X": 1}, "interpolation": 2}]}, "crop_width": {"Points": [{"co": {"Y": -1, "X": 1}, "interpolation": 2}]}, "end": 15, "perspective_c3_x": {"Points": [{"co": {"Y": -1, "X": 1}, "interpolation": 2}]}, "position": 8.8, "id": "0AEDFYGQ7J", "wave_color": {"green": {"Points": [{"handle_right": {"Y": 0, "X": 0.5}, "co": {"Y": 123, "X": 1}, "handle_left": {"Y": 1, "X": 0.5}, "handle_type": 0, "interpolation": 0}]}, "blue": {"Points": [{"handle_right": {"Y": 0, "X": 0.5}, "co": {"Y": 255, "X": 1}, "handle_left": {"Y": 1, "X": 0.5}, "handle_type": 0, "interpolation": 0}]}, "alpha": {"Points": [{"handle_right": {"Y": 0, "X": 0.5}, "co": {"Y": 255, "X": 1}, "handle_left": {"Y": 1, "X": 0.5}, "handle_type": 0, "interpolation": 0}]}, "red": {"Points": [{"handle_right": {"Y": 0, "X": 0.5}, "co": {"Y": 0, "X": 1}, "handle_left": {"Y": 1, "X": 0.5}, "handle_type": 0, "interpolation": 0}]}}, "has_video": {"Points": [{"co": {"Y": -1, "X": 1}, "interpolation": 2}]}, "has_audio": {"Points": [{"co": {"Y": -1, "X": 1}, "interpolation": 2}]}, "effects": [], "location_x": {"Points": [{"co": {"Y": 0, "X": 1}, "interpolation": 2}]}, "waveform": false, "title": "taxi_start.mp4", "image": "/home/robsen/.openshot_qt/thumbnail/LGW3TZJV4Q.png", "gravity": 4, "scale_x": {"Points": [{"co": {"Y": 1, "X": 1}, "interpolation": 2}]}, "perspective_c1_y": {"Points": [{"co": {"Y": -1, "X": 1}, "interpolation": 2}]}, "crop_height": {"Points": [{"co": {"Y": -1, "X": 1}, "interpolation": 2}]}, "crop_x": {"Points": [{"co": {"Y": 0, "X": 1}, "interpolation": 2}]}, "start": 0, "scale": 1, "shear_y": {"Points": [{"co": {"Y": 0, "X": 1}, "interpolation": 2}]}, "display": 0, "volume": {"Points": [{"co": {"Y": 1, "X": 1}, "interpolation": 2}]}, "channel_mapping": {"Points": [{"co": {"Y": -1, "X": 1}, "interpolation": 2}]}, "anchor": 0, "duration": 15.0, "perspective_c3_y": {"Points": [{"co": {"Y": -1, "X": 1}, "interpolation": 2}]}, "shear_x": {"Points": [{"co": {"Y": 0, "X": 1}, "interpolation": 2}]}, "perspective_c4_x": {"Points": [{"co": {"Y": -1, "X": 1}, "interpolation": 2}]}, "location_y": {"Points": [{"co": {"Y": 0, "X": 1}, "interpolation": 2}]}, "perspective_c2_x": {"Points": [{"co": {"Y": -1, "X": 1}, "interpolation": 2}]}, "layer": 0, "perspective_c2_y": {"Points": [{"co": {"Y": -1, "X": 1}, "interpolation": 2}]}, "perspective_c1_x": {"Points": [{"co": {"Y": -1, "X": 1}, "interpolation": 2}]}, "perspective_c4_y": {"Points": [{"co": {"Y": -1, "X": 1}, "interpolation": 2}]}, "channel_filter": {"Points": [{"co": {"Y": -1, "X": 1}, "interpolation": 2}]}, "time": {"Points": [{"co": {"Y": 1, "X": 1}, "interpolation": 2}]}, "file_id": "LGW3TZJV4Q"}, "key": ["clips", {"id": "0AEDFYGQ7J"}], "partial": false, "type": "update"}, {"old_values": {"alpha": {"Points": [{"co": {"Y": 1, "X": 1}, "interpolation": 2}]}, "rotation": {"Points": [{"co": {"Y": 0, "X": 1}, "interpolation": 2}]}, "scale_y": {"Points": [{"co": {"Y": 1, "X": 1}, "interpolation": 2}]}, "crop_y": {"Points": [{"co": {"Y": 0, "X": 1}, "interpolation": 2}]}, "perspective_c3_x": {"Points": [{"co": {"Y": -1, "X": 1}, "interpolation": 2}]}, "end": 15, "crop_width": {"Points": [{"co": {"Y": -1, "X": 1}, "interpolation": 2}]}, "position": 53.075, "id": "PJWPMFXKV3", "wave_color": {"green": {"Points": [{"handle_right": {"Y": 0, "X": 0.5}, "co": {"Y": 123, "X": 1}, "handle_left": {"Y": 1, "X": 0.5}, "handle_type": 0, "interpolation": 0}]}, "blue": {"Points": [{"handle_right": {"Y": 0, "X": 0.5}, "co": {"Y": 255, "X": 1}, "handle_left": {"Y": 1, "X": 0.5}, "handle_type": 0, "interpolation": 0}]}, "alpha": {"Points": [{"handle_right": {"Y": 0, "X": 0.5}, "co": {"Y": 255, "X": 1}, "handle_left": {"Y": 1, "X": 0.5}, "handle_type": 0, "interpolation": 0}]}, "red": {"Points": [{"handle_right": {"Y": 0, "X": 0.5}, "co": {"Y": 0, "X": 1}, "handle_left": {"Y": 1, "X": 0.5}, "handle_type": 0, "interpolation": 0}]}}, "has_video": {"Points": [{"co": {"Y": -1, "X": 1}, "interpolation": 2}]}, "has_audio": {"Points": [{"co": {"Y": -1, "X": 1}, "interpolation": 2}]}, "effects": [], "location_x": {"Points": [{"co": {"Y": 0, "X": 1}, "interpolation": 2}]}, "waveform": false, "title": "arrow.mp4", "image": "/home/robsen/.openshot_qt/thumbnail/X22V56NF57.png", "gravity": 4, "perspective_c2_x": {"Points": [{"co": {"Y": -1, "X": 1}, "interpolation": 2}]}, "perspective_c1_y": {"Points": [{"co": {"Y": -1, "X": 1}, "interpolation": 2}]}, "crop_height": {"Points": [{"co": {"Y": -1, "X": 1}, "interpolation": 2}]}, "crop_x": {"Points": [{"co": {"Y": 0, "X": 1}, "interpolation": 2}]}, "start": 0, "scale": 1, "shear_y": {"Points": [{"co": {"Y": 0, "X": 1}, "interpolation": 2}]}, "display": 0, "volume": {"Points": [{"co": {"Y": 1, "X": 1}, "interpolation": 2}]}, "channel_mapping": {"Points": [{"co": {"Y": -1, "X": 1}, "interpolation": 2}]}, "anchor": 0, "duration": 15.0, "perspective_c3_y": {"Points": [{"co": {"Y": -1, "X": 1}, "interpolation": 2}]}, "shear_x": {"Points": [{"co": {"Y": 0, "X": 1}, "interpolation": 2}]}, "perspective_c4_x": {"Points": [{"co": {"Y": -1, "X": 1}, "interpolation": 2}]}, "location_y": {"Points": [{"co": {"Y": 0, "X": 1}, "interpolation": 2}]}, "scale_x": {"Points": [{"co": {"Y": 1, "X": 1}, "interpolation": 2}]}, "layer": 2, "perspective_c2_y": {"Points": [{"co": {"Y": -1, "X": 1}, "interpolation": 2}]}, "perspective_c1_x": {"Points": [{"co": {"Y": -1, "X": 1}, "interpolation": 2}]}, "perspective_c4_y": {"Points": [{"co": {"Y": -1, "X": 1}, "interpolation": 2}]}, "reader": {"audio_bit_rate": 0, "has_single_image": false, "vcodec": "h264", "has_video": true, "type": "FFmpegReader", "video_length": "375", "audio_timebase": {"den": 1, "num": 1}, "path": "/home/robsen/Dropbox/Workdir/Repo/SuesseRache-HH-Taxi/arrow.mp4", "width": 1920, "has_audio": false, "video_bit_rate": 83079, "channel_layout": 4, "height": 1080, "display_ratio": {"den": 9, "num": 16}, "interlaced_frame": false, "duration": 15.0, "sample_rate": 0, "pixel_format": 0, "video_timebase": {"den": 12800, "num": 1}, "file_size": "155774", "top_field_first": true, "pixel_ratio": {"den": 1, "num": 1}, "acodec": "", "audio_stream_index": -1, "video_stream_index": 0, "channels": 0, "fps": {"den": 1, "num": 25}}, "channel_filter": {"Points": [{"co": {"Y": -1, "X": 1}, "interpolation": 2}]}, "file_id": "X22V56NF57", "time": {"Points": [{"co": {"Y": 1, "X": 1}, "interpolation": 2}]}}, "value": {"alpha": {"Points": [{"co": {"Y": 1, "X": 1}, "interpolation": 2}, {"handle_right": {"Y": 0, "X": 0.5}, "co": {"Y": 0, "X": 1}, "handle_left": {"Y": 1, "X": 0.5}, "handle_type": 0, "interpolation": 0}, {"handle_right": {"Y": 0, "X": 0.5}, "co": {"Y": 1, "X": 73}, "handle_left": {"Y": 1, "X": 0.5}, "handle_type": 0, "interpolation": 0}]}, "rotation": {"Points": [{"co": {"Y": 0, "X": 1}, "interpolation": 2}]}, "scale_y": {"Points": [{"co": {"Y": 1, "X": 1}, "interpolation": 2}]}, "crop_y": {"Points": [{"co": {"Y": 0, "X": 1}, "interpolation": 2}]}, "crop_width": {"Points": [{"co": {"Y": -1, "X": 1}, "interpolation": 2}]}, "end": 15, "perspective_c3_x": {"Points": [{"co": {"Y": -1, "X": 1}, "interpolation": 2}]}, "position": 53.075, "id": "PJWPMFXKV3", "wave_color": {"green": {"Points": [{"handle_right": {"Y": 0, "X": 0.5}, "co": {"Y": 123, "X": 1}, "handle_left": {"Y": 1, "X": 0.5}, "handle_type": 0, "interpolation": 0}]}, "blue": {"Points": [{"handle_right": {"Y": 0, "X": 0.5}, "co": {"Y": 255, "X": 1}, "handle_left": {"Y": 1, "X": 0.5}, "handle_type": 0, "interpolation": 0}]}, "alpha": {"Points": [{"handle_right": {"Y": 0, "X": 0.5}, "co": {"Y": 255, "X": 1}, "handle_left": {"Y": 1, "X": 0.5}, "handle_type": 0, "interpolation": 0}]}, "red": {"Points": [{"handle_right": {"Y": 0, "X": 0.5}, "co": {"Y": 0, "X": 1}, "handle_left": {"Y": 1, "X": 0.5}, "handle_type": 0, "interpolation": 0}]}}, "has_video": {"Points": [{"co": {"Y": -1, "X": 1}, "interpolation": 2}]}, "has_audio": {"Points": [{"co": {"Y": -1, "X": 1}, "interpolation": 2}]}, "effects": [], "location_x": {"Points": [{"co": {"Y": 0, "X": 1}, "interpolation": 2}]}, "waveform": false, "title": "arrow.mp4", "image": "/home/robsen/.openshot_qt/thumbnail/X22V56NF57.png", "gravity": 4, "scale_x": {"Points": [{"co": {"Y": 1, "X": 1}, "interpolation": 2}]}, "perspective_c1_y": {"Points": [{"co": {"Y": -1, "X": 1}, "interpolation": 2}]}, "crop_height": {"Points": [{"co": {"Y": -1, "X": 1}, "interpolation": 2}]}, "crop_x": {"Points": [{"co": {"Y": 0, "X": 1}, "interpolation": 2}]}, "start": 0, "scale": 1, "shear_y": {"Points": [{"co": {"Y": 0, "X": 1}, "interpolation": 2}]}, "display": 0, "volume": {"Points": [{"co": {"Y": 1, "X": 1}, "interpolation": 2}]}, "channel_mapping": {"Points": [{"co": {"Y": -1, "X": 1}, "interpolation": 2}]}, "anchor": 0, "duration": 15.0, "perspective_c3_y": {"Points": [{"co": {"Y": -1, "X": 1}, "interpolation": 2}]}, "shear_x": {"Points": [{"co": {"Y": 0, "X": 1}, "interpolation": 2}]}, "perspective_c4_x": {"Points": [{"co": {"Y": -1, "X": 1}, "interpolation": 2}]}, "location_y": {"Points": [{"co": {"Y": 0, "X": 1}, "interpolation": 2}]}, "perspective_c2_x": {"Points": [{"co": {"Y": -1, "X": 1}, "interpolation": 2}]}, "layer": 2, "perspective_c2_y": {"Points": [{"co": {"Y": -1, "X": 1}, "interpolation": 2}]}, "perspective_c1_x": {"Points": [{"co": {"Y": -1, "X": 1}, "interpolation": 2}]}, "perspective_c4_y": {"Points": [{"co": {"Y": -1, "X": 1}, "interpolation": 2}]}, "channel_filter": {"Points": [{"co": {"Y": -1, "X": 1}, "interpolation": 2}]}, "time": {"Points": [{"co": {"Y": 1, "X": 1}, "interpolation": 2}]}, "file_id": "X22V56NF57"}, "key": ["clips", {"id": "PJWPMFXKV3"}], "partial": false, "type": "update"}]}, "key": ["history"], "partial": false, "type": "update"}, {"old_values": null, "value": {"redo": [], "undo": [{"old_values": [{"number": 0, "label": "Spur 1", "id": "UBOPYJIV1S", "y": 0}, {"number": 1, "label": "Spur 2", "id": "SHY16ICR2M", "y": 0}], "value": {"number": 2, "y": 0, "label": "", "id": "E44ZNJSI3Z", "lock": false}, "key": ["layers"], "partial": false, "type": "insert"}, {"old_values": [], "value": {"audio_bit_rate": 0, "has_single_image": false, "media_type": "video", "id": "LGW3TZJV4Q", "type": "FFmpegReader", "has_video": true, "video_length": "375", "audio_timebase": {"den": 1, "num": 1}, "path": "/home/robsen/Dropbox/Workdir/Repo/SuesseRache-HH-Taxi/taxi_start.mp4", "width": 1920, "has_audio": false, "video_bit_rate": 147692, "channel_layout": 4, "height": 1080, "vcodec": "h264", "display_ratio": {"den": 9, "num": 16}, "interlaced_frame": false, "duration": 15, "sample_rate": 0, "pixel_format": 0, "video_timebase": {"den": 12800, "num": 1}, "file_size": "276924", "top_field_first": true, "pixel_ratio": {"den": 1, "num": 1}, "acodec": "", "audio_stream_index": -1, "video_stream_index": 0, "channels": 0, "fps": {"den": 1, "num": 25}}, "key": ["files"], "partial": false, "type": "insert"}, {"old_values": [{"audio_bit_rate": 0, "has_single_image": false, "media_type": "video", "id": "LGW3TZJV4Q", "type": "FFmpegReader", "has_video": true, "video_length": "375", "audio_timebase": {"den": 1, "num": 1}, "path": "/home/robsen/Dropbox/Workdir/Repo/SuesseRache-HH-Taxi/taxi_start.mp4", "width": 1920, "has_audio": false, "video_bit_rate": 147692, "channel_layout": 4, "height": 1080, "vcodec": "h264", "display_ratio": {"den": 9, "num": 16}, "interlaced_frame": false, "duration": 15, "sample_rate": 0, "pixel_format": 0, "video_timebase": {"den": 12800, "num": 1}, "file_size": "276924", "top_field_first": true, "pixel_ratio": {"den": 1, "num": 1}, "acodec": "", "audio_stream_index": -1, "video_stream_index": 0, "channels": 0, "fps": {"den": 1, "num": 25}}], "value": {"audio_bit_rate": 189375, "has_single_image": false, "media_type": "video", "id": "Z3LOYBY1PL", "type": "FFmpegReader", "has_video": true, "video_length": "937", "audio_timebase": {"den": 48000, "num": 1}, "path": "/home/robsen/Dropbox/Workdir/Repo/SuesseRache-HH-Taxi/TE_SR_Taxi.mp4", "width": 1920, "has_audio": true, "video_bit_rate": 32091692, "channel_layout": 3, "height": 1080, "vcodec": "h264", "display_ratio": {"den": 9, "num": 16}, "interlaced_frame": false, "duration": 31.317333221435547, "sample_rate": 48000, "pixel_format": 0, "video_timebase": {"den": 29970, "num": 1}, "file_size": "125628279", "top_field_first": true, "pixel_ratio": {"den": 1, "num": 1}, "acodec": "aac", "audio_stream_index": 1, "video_stream_index": 0, "channels": 2, "fps": {"den": 100, "num": 2997}}, "key": ["files"], "partial": false, "type": "insert"}, {"old_values": [{"audio_bit_rate": 0, "has_single_image": false, "media_type": "video", "id": "LGW3TZJV4Q", "type": "FFmpegReader", "has_video": true, "video_length": "375", "audio_timebase": {"den": 1, "num": 1}, "path": "/home/robsen/Dropbox/Workdir/Repo/SuesseRache-HH-Taxi/taxi_start.mp4", "width": 1920, "has_audio": false, "video_bit_rate": 147692, "channel_layout": 4, "height": 1080, "vcodec": "h264", "display_ratio": {"den": 9, "num": 16}, "interlaced_frame": false, "duration": 15, "sample_rate": 0, "pixel_format": 0, "video_timebase": {"den": 12800, "num": 1}, "file_size": "276924", "top_field_first": true, "pixel_ratio": {"den": 1, "num": 1}, "acodec": "", "audio_stream_index": -1, "video_stream_index": 0, "channels": 0, "fps": {"den": 1, "num": 25}}, {"audio_bit_rate": 189375, "has_single_image": false, "media_type": "video", "id": "Z3LOYBY1PL", "type": "FFmpegReader", "has_video": true, "video_length": "937", "audio_timebase": {"den": 48000, "num": 1}, "path": "/home/robsen/Dropbox/Workdir/Repo/SuesseRache-HH-Taxi/TE_SR_Taxi.mp4", "width": 1920, "has_audio": true, "video_bit_rate": 32091692, "channel_layout": 3, "height": 1080, "vcodec": "h264", "display_ratio": {"den": 9, "num": 16}, "interlaced_frame": false, "duration": 31.317333221435547, "sample_rate": 48000, "pixel_format": 0, "video_timebase": {"den": 29970, "num": 1}, "file_size": "125628279", "top_field_first": true, "pixel_ratio": {"den": 1, "num": 1}, "acodec": "aac", "audio_stream_index": 1, "video_stream_index": 0, "channels": 2, "fps": {"den": 100, "num": 2997}}], "value": {"audio_bit_rate": 0, "has_single_image": false, "media_type": "video", "id": "X22V56NF57", "type": "FFmpegReader", "has_video": true, "video_length": "375", "audio_timebase": {"den": 1, "num": 1}, "path": "/home/robsen/Dropbox/Workdir/Repo/SuesseRache-HH-Taxi/arrow.mp4", "width": 1920, "has_audio": false, "video_bit_rate": 83079, "channel_layout": 4, "height": 1080, "vcodec": "h264", "display_ratio": {"den": 9, "num": 16}, "interlaced_frame": false, "duration": 15, "sample_rate": 0, "pixel_format": 0, "video_timebase": {"den": 12800, "num": 1}, "file_size": "155774", "top_field_first": true, "pixel_ratio": {"den": 1, "num": 1}, "acodec": "", "audio_stream_index": -1, "video_stream_index": 0, "channels": 0, "fps": {"den": 1, "num": 25}}, "key": ["files"], "partial": false, "type": "insert"}, {"old_values": [], "value": {"alpha": {"Points": [{"co": {"Y": 1, "X": 1}, "interpolation": 2}, {"handle_right": {"Y": 0, "X": 0.5}, "co": {"Y": 1, "X": 289}, "handle_left": {"Y": 1, "X": 0.5}, "handle_type": 0, "interpolation": 0}, {"handle_right": {"Y": 0, "X": 0.5}, "co": {"Y": 0, "X": 361}, "handle_left": {"Y": 1, "X": 0.5}, "handle_type": 0, "interpolation": 0}, {"handle_right": {"Y": 0, "X": 0.5}, "co": {"Y": 0, "X": 1}, "handle_left": {"Y": 1, "X": 0.5}, "handle_type": 0, "interpolation": 0}, {"handle_right": {"Y": 0, "X": 0.5}, "co": {"Y": 1, "X": 73}, "handle_left": {"Y": 1, "X": 0.5}, "handle_type": 0, "interpolation": 0}]}, "rotation": {"Points": [{"co": {"Y": 0, "X": 1}, "interpolation": 2}]}, "scale_y": {"Points": [{"co": {"Y": 1, "X": 1}, "interpolation": 2}]}, "crop_y": {"Points": [{"co": {"Y": 0, "X": 1}, "interpolation": 2}]}, "perspective_c3_x": {"Points": [{"co": {"Y": -1, "X": 1}, "interpolation": 2}]}, "end": 15, "crop_width": {"Points": [{"co": {"Y": -1, "X": 1}, "interpolation": 2}]}, "position": 8.8, "id": "0AEDFYGQ7J", "wave_color": {"green": {"Points": [{"handle_right": {"Y": 0, "X": 0.5}, "co": {"Y": 123, "X": 1}, "handle_left": {"Y": 1, "X": 0.5}, "handle_type": 0, "interpolation": 0}]}, "blue": {"Points": [{"handle_right": {"Y": 0, "X": 0.5}, "co": {"Y": 255, "X": 1}, "handle_left": {"Y": 1, "X": 0.5}, "handle_type": 0, "interpolation": 0}]}, "alpha": {"Points": [{"handle_right": {"Y": 0, "X": 0.5}, "co": {"Y": 255, "X": 1}, "handle_left": {"Y": 1, "X": 0.5}, "handle_type": 0, "interpolation": 0}]}, "red": {"Points": [{"handle_right": {"Y": 0, "X": 0.5}, "co": {"Y": 0, "X": 1}, "handle_left": {"Y": 1, "X": 0.5}, "handle_type": 0, "interpolation": 0}]}}, "has_video": {"Points": [{"co": {"Y": -1, "X": 1}, "interpolation": 2}]}, "has_audio": {"Points": [{"co": {"Y": -1, "X": 1}, "interpolation": 2}]}, "effects": [], "location_x": {"Points": [{"co": {"Y": 0, "X": 1}, "interpolation": 2}]}, "waveform": false, "title": "taxi_start.mp4", "image": "/home/robsen/.openshot_qt/thumbnail/LGW3TZJV4Q.png", "gravity": 4, "scale_x": {"Points": [{"co": {"Y": 1, "X": 1}, "interpolation": 2}]}, "perspective_c1_y": {"Points": [{"co": {"Y": -1, "X": 1}, "interpolation": 2}]}, "crop_height": {"Points": [{"co": {"Y": -1, "X": 1}, "interpolation": 2}]}, "crop_x": {"Points": [{"co": {"Y": 0, "X": 1}, "interpolation": 2}]}, "start": 0, "scale": 1, "shear_y": {"Points": [{"co": {"Y": 0, "X": 1}, "interpolation": 2}]}, "display": 0, "volume": {"Points": [{"co": {"Y": 1, "X": 1}, "interpolation": 2}]}, "channel_mapping": {"Points": [{"co": {"Y": -1, "X": 1}, "interpolation": 2}]}, "anchor": 0, "duration": 15.0, "perspective_c3_y": {"Points": [{"co": {"Y": -1, "X": 1}, "interpolation": 2}]}, "shear_x": {"Points": [{"co": {"Y": 0, "X": 1}, "interpolation": 2}]}, "perspective_c4_x": {"Points": [{"co": {"Y": -1, "X": 1}, "interpolation": 2}]}, "location_y": {"Points": [{"co": {"Y": 0, "X": 1}, "interpolation": 2}]}, "perspective_c2_x": {"Points": [{"co": {"Y": -1, "X": 1}, "interpolation": 2}]}, "layer": 0, "perspective_c2_y": {"Points": [{"co": {"Y": -1, "X": 1}, "interpolation": 2}]}, "perspective_c1_x": {"Points": [{"co": {"Y": -1, "X": 1}, "interpolation": 2}]}, "perspective_c4_y": {"Points": [{"co": {"Y": -1, "X": 1}, "interpolation": 2}]}, "reader": {"audio_bit_rate": 0, "has_single_image": false, "has_video": true, "type": "FFmpegReader", "video_length": "375", "audio_timebase": {"den": 1, "num": 1}, "path": "/home/robsen/Dropbox/Workdir/Repo/SuesseRache-HH-Taxi/taxi_start.mp4", "width": 1920, "has_audio": false, "video_bit_rate": 147692, "channel_layout": 4, "height": 1080, "display_ratio": {"den": 9, "num": 16}, "interlaced_frame": false, "video_timebase": {"den": 12800, "num": 1}, "duration": 15.0, "sample_rate": 0, "pixel_format": 0, "fps": {"den": 1, "num": 25}, "file_size": "276924", "top_field_first": true, "pixel_ratio": {"den": 1, "num": 1}, "acodec": "", "audio_stream_index": -1, "video_stream_index": 0, "channels": 0, "vcodec": "h264"}, "channel_filter": {"Points": [{"co": {"Y": -1, "X": 1}, "interpolation": 2}]}, "file_id": "LGW3TZJV4Q", "time": {"Points": [{"co": {"Y": 1, "X": 1}, "interpolation": 2}]}}, "key": ["clips"], "partial": false, "type": "insert"}, {"old_values": null, "value": {"id": "0AEDFYGQ7J", "start": 0, "end": 15, "position": 8.8, "layer": 0, "image": "/home/robsen/.openshot_qt/thumbnail/LGW3TZJV4Q.png"}, "key": ["clips", {"id": "0AEDFYGQ7J"}], "partial": false, "type": "update"}, {"old_values": null, "value": {"id": "0AEDFYGQ7J", "start": 0, "end": 15, "position": 8.8, "layer": 0, "image": "/home/robsen/.openshot_qt/thumbnail/LGW3TZJV4Q.png"}, "key": ["clips", {"id": "0AEDFYGQ7J"}], "partial": false, "type": "update"}, {"old_values": [{"alpha": {"Points": [{"co": {"Y": 1, "X": 1}, "interpolation": 2}]}, "rotation": {"Points": [{"co": {"Y": 0, "X": 1}, "interpolation": 2}]}, "scale_y": {"Points": [{"co": {"Y": 1, "X": 1}, "interpolation": 2}]}, "crop_y": {"Points": [{"co": {"Y": 0, "X": 1}, "interpolation": 2}]}, "perspective_c3_x": {"Points": [{"co": {"Y": -1, "X": 1}, "interpolation": 2}]}, "end": 15, "crop_width": {"Points": [{"co": {"Y": -1, "X": 1}, "interpolation": 2}]}, "position": 8.8, "id": "0AEDFYGQ7J", "wave_color": {"green": {"Points": [{"handle_right": {"Y": 0, "X": 0.5}, "co": {"Y": 123, "X": 1}, "handle_left": {"Y": 1, "X": 0.5}, "handle_type": 0, "interpolation": 0}]}, "blue": {"Points": [{"handle_right": {"Y": 0, "X": 0.5}, "co": {"Y": 255, "X": 1}, "handle_left": {"Y": 1, "X": 0.5}, "handle_type": 0, "interpolation": 0}]}, "alpha": {"Points": [{"handle_right": {"Y": 0, "X": 0.5}, "co": {"Y": 255, "X": 1}, "handle_left": {"Y": 1, "X": 0.5}, "handle_type": 0, "interpolation": 0}]}, "red": {"Points": [{"handle_right": {"Y": 0, "X": 0.5}, "co": {"Y": 0, "X": 1}, "handle_left": {"Y": 1, "X": 0.5}, "handle_type": 0, "interpolation": 0}]}}, "has_video": {"Points": [{"co": {"Y": -1, "X": 1}, "interpolation": 2}]}, "has_audio": {"Points": [{"co": {"Y": -1, "X": 1}, "interpolation": 2}]}, "effects": [], "location_x": {"Points": [{"co": {"Y": 0, "X": 1}, "interpolation": 2}]}, "waveform": false, "title": "taxi_start.mp4", "image": "/home/robsen/.openshot_qt/thumbnail/LGW3TZJV4Q.png", "gravity": 4, "perspective_c2_x": {"Points": [{"co": {"Y": -1, "X": 1}, "interpolation": 2}]}, "perspective_c1_y": {"Points": [{"co": {"Y": -1, "X": 1}, "interpolation": 2}]}, "crop_height": {"Points": [{"co": {"Y": -1, "X": 1}, "interpolation": 2}]}, "crop_x": {"Points": [{"co": {"Y": 0, "X": 1}, "interpolation": 2}]}, "start": 0, "scale": 1, "shear_y": {"Points": [{"co": {"Y": 0, "X": 1}, "interpolation": 2}]}, "display": 0, "volume": {"Points": [{"co": {"Y": 1, "X": 1}, "interpolation": 2}]}, "channel_mapping": {"Points": [{"co": {"Y": -1, "X": 1}, "interpolation": 2}]}, "anchor": 0, "duration": 15.0, "perspective_c3_y": {"Points": [{"co": {"Y": -1, "X": 1}, "interpolation": 2}]}, "shear_x": {"Points": [{"co": {"Y": 0, "X": 1}, "interpolation": 2}]}, "perspective_c4_x": {"Points": [{"co": {"Y": -1, "X": 1}, "interpolation": 2}]}, "location_y": {"Points": [{"co": {"Y": 0, "X": 1}, "interpolation": 2}]}, "scale_x": {"Points": [{"co": {"Y": 1, "X": 1}, "interpolation": 2}]}, "layer": 0, "perspective_c2_y": {"Points": [{"co": {"Y": -1, "X": 1}, "interpolation": 2}]}, "perspective_c1_x": {"Points": [{"co": {"Y": -1, "X": 1}, "interpolation": 2}]}, "perspective_c4_y": {"Points": [{"co": {"Y": -1, "X": 1}, "interpolation": 2}]}, "reader": {"audio_bit_rate": 0, "has_single_image": false, "vcodec": "h264", "has_video": true, "type": "FFmpegReader", "video_length": "375", "audio_timebase": {"den": 1, "num": 1}, "path": "/home/robsen/Dropbox/Workdir/Repo/SuesseRache-HH-Taxi/taxi_start.mp4", "width": 1920, "has_audio": false, "video_bit_rate": 147692, "channel_layout": 4, "height": 1080, "display_ratio": {"den": 9, "num": 16}, "interlaced_frame": false, "duration": 15.0, "sample_rate": 0, "pixel_format": 0, "video_timebase": {"den": 12800, "num": 1}, "file_size": "276924", "top_field_first": true, "pixel_ratio": {"den": 1, "num": 1}, "acodec": "", "audio_stream_index": -1, "video_stream_index": 0, "channels": 0, "fps": {"den": 1, "num": 25}}, "channel_filter": {"Points": [{"co": {"Y": -1, "X": 1}, "interpolation": 2}]}, "file_id": "LGW3TZJV4Q", "time": {"Points": [{"co": {"Y": 1, "X": 1}, "interpolation": 2}]}}], "value": {"alpha": {"Points": [{"co": {"Y": 1, "X": 1}, "interpolation": 2}]}, "rotation": {"Points": [{"co": {"Y": 0, "X": 1}, "interpolation": 2}]}, "scale_y": {"Points": [{"co": {"Y": 1, "X": 1}, "interpolation": 2}]}, "crop_y": {"Points": [{"co": {"Y": 0, "X": 1}, "interpolation": 2}]}, "perspective_c3_x": {"Points": [{"co": {"Y": -1, "X": 1}, "interpolation": 2}]}, "end": 31.317333221435547, "crop_width": {"Points": [{"co": {"Y": -1, "X": 1}, "interpolation": 2}]}, "position": 21.76, "id": "627XQDJ3EP", "wave_color": {"green": {"Points": [{"handle_right": {"Y": 0, "X": 0.5}, "co": {"Y": 123, "X": 1}, "handle_left": {"Y": 1, "X": 0.5}, "handle_type": 0, "interpolation": 0}]}, "blue": {"Points": [{"handle_right": {"Y": 0, "X": 0.5}, "co": {"Y": 255, "X": 1}, "handle_left": {"Y": 1, "X": 0.5}, "handle_type": 0, "interpolation": 0}]}, "alpha": {"Points": [{"handle_right": {"Y": 0, "X": 0.5}, "co": {"Y": 255, "X": 1}, "handle_left": {"Y": 1, "X": 0.5}, "handle_type": 0, "interpolation": 0}]}, "red": {"Points": [{"handle_right": {"Y": 0, "X": 0.5}, "co": {"Y": 0, "X": 1}, "handle_left": {"Y": 1, "X": 0.5}, "handle_type": 0, "interpolation": 0}]}}, "has_video": {"Points": [{"co": {"Y": -1, "X": 1}, "interpolation": 2}]}, "has_audio": {"Points": [{"co": {"Y": -1, "X": 1}, "interpolation": 2}]}, "effects": [], "location_x": {"Points": [{"co": {"Y": 0, "X": 1}, "interpolation": 2}]}, "waveform": false, "title": "TE_SR_Taxi.mp4", "image": "/home/robsen/.openshot_qt/thumbnail/Z3LOYBY1PL.png", "gravity": 4, "scale_x": {"Points": [{"co": {"Y": 1, "X": 1}, "interpolation": 2}]}, "perspective_c1_y": {"Points": [{"co": {"Y": -1, "X": 1}, "interpolation": 2}]}, "crop_height": {"Points": [{"co": {"Y": -1, "X": 1}, "interpolation": 2}]}, "crop_x": {"Points": [{"co": {"Y": 0, "X": 1}, "interpolation": 2}]}, "start": 0, "scale": 1, "shear_y": {"Points": [{"co": {"Y": 0, "X": 1}, "interpolation": 2}]}, "display": 0, "volume": {"Points": [{"co": {"Y": 1, "X": 1}, "interpolation": 2}]}, "channel_mapping": {"Points": [{"co": {"Y": -1, "X": 1}, "interpolation": 2}]}, "anchor": 0, "duration": 31.317333221435547, "perspective_c3_y": {"Points": [{"co": {"Y": -1, "X": 1}, "interpolation": 2}]}, "shear_x": {"Points": [{"co": {"Y": 0, "X": 1}, "interpolation": 2}]}, "perspective_c4_x": {"Points": [{"co": {"Y": -1, "X": 1}, "interpolation": 2}]}, "location_y": {"Points": [{"co": {"Y": 0, "X": 1}, "interpolation": 2}]}, "perspective_c2_x": {"Points": [{"co": {"Y": -1, "X": 1}, "interpolation": 2}]}, "layer": 1, "perspective_c2_y": {"Points": [{"co": {"Y": -1, "X": 1}, "interpolation": 2}]}, "perspective_c1_x": {"Points": [{"co": {"Y": -1, "X": 1}, "interpolation": 2}]}, "perspective_c4_y": {"Points": [{"co": {"Y": -1, "X": 1}, "interpolation": 2}]}, "reader": {"audio_bit_rate": 189375, "has_single_image": false, "has_video": true, "type": "FFmpegReader", "video_length": "937", "audio_timebase": {"den": 48000, "num": 1}, "path": "/home/robsen/Dropbox/Workdir/Repo/SuesseRache-HH-Taxi/TE_SR_Taxi.mp4", "width": 1920, "has_audio": true, "video_bit_rate": 32091692, "channel_layout": 3, "height": 1080, "display_ratio": {"den": 9, "num": 16}, "interlaced_frame": false, "video_timebase": {"den": 29970, "num": 1}, "duration": 31.317333221435547, "sample_rate": 48000, "pixel_format": 0, "fps": {"den": 100, "num": 2997}, "file_size": "125628279", "top_field_first": true, "pixel_ratio": {"den": 1, "num": 1}, "acodec": "aac", "audio_stream_index": 1, "video_stream_index": 0, "channels": 2, "vcodec": "h264"}, "channel_filter": {"Points": [{"co": {"Y": -1, "X": 1}, "interpolation": 2}]}, "file_id": "Z3LOYBY1PL", "time": {"Points": [{"co": {"Y": 1, "X": 1}, "interpolation": 2}]}}, "key": ["clips"], "partial": false, "type": "insert"}, {"old_values": {"alpha": {"Points": [{"co": {"Y": 1, "X": 1}, "interpolation": 2}]}, "rotation": {"Points": [{"co": {"Y": 0, "X": 1}, "interpolation": 2}]}, "scale_y": {"Points": [{"co": {"Y": 1, "X": 1}, "interpolation": 2}]}, "crop_y": {"Points": [{"co": {"Y": 0, "X": 1}, "interpolation": 2}]}, "perspective_c3_x": {"Points": [{"co": {"Y": -1, "X": 1}, "interpolation": 2}]}, "end": 31.317333221435547, "crop_width": {"Points": [{"co": {"Y": -1, "X": 1}, "interpolation": 2}]}, "position": 18.88, "id": "627XQDJ3EP", "wave_color": {"green": {"Points": [{"handle_right": {"Y": 0, "X": 0.5}, "co": {"Y": 123, "X": 1}, "handle_left": {"Y": 1, "X": 0.5}, "handle_type": 0, "interpolation": 0}]}, "blue": {"Points": [{"handle_right": {"Y": 0, "X": 0.5}, "co": {"Y": 255, "X": 1}, "handle_left": {"Y": 1, "X": 0.5}, "handle_type": 0, "interpolation": 0}]}, "alpha": {"Points": [{"handle_right": {"Y": 0, "X": 0.5}, "co": {"Y": 255, "X": 1}, "handle_left": {"Y": 1, "X": 0.5}, "handle_type": 0, "interpolation": 0}]}, "red": {"Points": [{"handle_right": {"Y": 0, "X": 0.5}, "co": {"Y": 0, "X": 1}, "handle_left": {"Y": 1, "X": 0.5}, "handle_type": 0, "interpolation": 0}]}}, "has_video": {"Points": [{"co": {"Y": -1, "X": 1}, "interpolation": 2}]}, "has_audio": {"Points": [{"co": {"Y": -1, "X": 1}, "interpolation": 2}]}, "effects": [], "location_x": {"Points": [{"co": {"Y": 0, "X": 1}, "interpolation": 2}]}, "waveform": false, "title": "TE_SR_Taxi.mp4", "image": "/home/robsen/.openshot_qt/thumbnail/Z3LOYBY1PL.png", "gravity": 4, "scale_x": {"Points": [{"co": {"Y": 1, "X": 1}, "interpolation": 2}]}, "perspective_c1_y": {"Points": [{"co": {"Y": -1, "X": 1}, "interpolation": 2}]}, "crop_height": {"Points": [{"co": {"Y": -1, "X": 1}, "interpolation": 2}]}, "crop_x": {"Points": [{"co": {"Y": 0, "X": 1}, "interpolation": 2}]}, "start": 0, "scale": 1, "shear_y": {"Points": [{"co": {"Y": 0, "X": 1}, "interpolation": 2}]}, "display": 0, "volume": {"Points": [{"co": {"Y": 1, "X": 1}, "interpolation": 2}]}, "channel_mapping": {"Points": [{"co": {"Y": -1, "X": 1}, "interpolation": 2}]}, "anchor": 0, "duration": 31.317333221435547, "perspective_c3_y": {"Points": [{"co": {"Y": -1, "X": 1}, "interpolation": 2}]}, "shear_x": {"Points": [{"co": {"Y": 0, "X": 1}, "interpolation": 2}]}, "perspective_c4_x": {"Points": [{"co": {"Y": -1, "X": 1}, "interpolation": 2}]}, "location_y": {"Points": [{"co": {"Y": 0, "X": 1}, "interpolation": 2}]}, "perspective_c2_x": {"Points": [{"co": {"Y": -1, "X": 1}, "interpolation": 2}]}, "layer": 2, "perspective_c2_y": {"Points": [{"co": {"Y": -1, "X": 1}, "interpolation": 2}]}, "perspective_c1_x": {"Points": [{"co": {"Y": -1, "X": 1}, "interpolation": 2}]}, "perspective_c4_y": {"Points": [{"co": {"Y": -1, "X": 1}, "interpolation": 2}]}, "reader": {"audio_bit_rate": 189375, "has_single_image": false, "vcodec": "h264", "has_video": true, "type": "FFmpegReader", "video_length": "937", "audio_timebase": {"den": 48000, "num": 1}, "path": "/home/robsen/Dropbox/Workdir/Repo/SuesseRache-HH-Taxi/TE_SR_Taxi.mp4", "width": 1920, "has_audio": true, "video_bit_rate": 32091692, "channel_layout": 3, "height": 1080, "display_ratio": {"den": 9, "num": 16}, "interlaced_frame": false, "duration": 31.317333221435547, "sample_rate": 48000, "pixel_format": 0, "video_timebase": {"den": 29970, "num": 1}, "file_size": "125628279", "top_field_first": true, "pixel_ratio": {"den": 1, "num": 1}, "acodec": "aac", "audio_stream_index": 1, "video_stream_index": 0, "channels": 2, "fps": {"den": 100, "num": 2997}}, "channel_filter": {"Points": [{"co": {"Y": -1, "X": 1}, "interpolation": 2}]}, "file_id": "Z3LOYBY1PL", "time": {"Points": [{"co": {"Y": 1, "X": 1}, "interpolation": 2}]}}, "value": {"id": "627XQDJ3EP", "start": 0, "end": 31.317333221435547, "position": 21.76, "layer": 0, "image": "/home/robsen/.openshot_qt/thumbnail/Z3LOYBY1PL.png"}, "key": ["clips", {"id": "627XQDJ3EP"}], "partial": false, "type": "update"}, {"old_values": [], "value": {"start": 0, "type": "Mask", "contrast": {"Points": [{"co": {"Y": 3, "X": 1}, "interpolation": 2}]}, "layer": 0, "replace_image": false, "title": "Transition", "end": 2.039999999999999, "reader": {"audio_bit_rate": 0, "has_single_image": true, "has_video": true, "type": "QtImageReader", "video_length": "2592000", "audio_timebase": {"den": 1, "num": 1}, "path": "/usr/lib/python3/dist-packages/openshot_qt/transitions/common/fade.svg", "width": 720, "has_audio": false, "video_bit_rate": 0, "channel_layout": 4, "height": 576, "display_ratio": {"den": 4, "num": 5}, "interlaced_frame": false, "video_timebase": {"den": 30, "num": 1}, "duration": 86400, "sample_rate": 0, "pixel_format": -1, "fps": {"den": 1, "num": 30}, "file_size": "1658880", "top_field_first": true, "pixel_ratio": {"den": 1, "num": 1}, "acodec": "", "audio_stream_index": -1, "video_stream_index": -1, "channels": 0, "vcodec": ""}, "brightness": {"Points": [{"handle_right": {"Y": 0, "X": 0.5}, "co": {"Y": 1, "X": 1}, "handle_left": {"Y": 1, "X": 0.5}, "handle_type": 0, "interpolation": 0}, {"handle_right": {"Y": 0, "X": 0.5}, "co": {"Y": -1, "X": 50}, "handle_left": {"Y": 1, "X": 0.5}, "handle_type": 0, "interpolation": 0}]}, "id": "5NBS5H99MA", "position": 21.76}, "key": ["effects"], "partial": false, "type": "insert"}, {"old_values": {"alpha": {"Points": [{"co": {"Y": 1, "X": 1}, "interpolation": 2}]}, "rotation": {"Points": [{"co": {"Y": 0, "X": 1}, "interpolation": 2}]}, "scale_y": {"Points": [{"co": {"Y": 1, "X": 1}, "interpolation": 2}]}, "crop_y": {"Points": [{"co": {"Y": 0, "X": 1}, "interpolation": 2}]}, "perspective_c3_x": {"Points": [{"co": {"Y": -1, "X": 1}, "interpolation": 2}]}, "end": 31.317333221435547, "crop_width": {"Points": [{"co": {"Y": -1, "X": 1}, "interpolation": 2}]}, "position": 21.76, "id": "627XQDJ3EP", "wave_color": {"green": {"Points": [{"handle_right": {"Y": 0, "X": 0.5}, "co": {"Y": 123, "X": 1}, "handle_left": {"Y": 1, "X": 0.5}, "handle_type": 0, "interpolation": 0}]}, "blue": {"Points": [{"handle_right": {"Y": 0, "X": 0.5}, "co": {"Y": 255, "X": 1}, "handle_left": {"Y": 1, "X": 0.5}, "handle_type": 0, "interpolation": 0}]}, "alpha": {"Points": [{"handle_right": {"Y": 0, "X": 0.5}, "co": {"Y": 255, "X": 1}, "handle_left": {"Y": 1, "X": 0.5}, "handle_type": 0, "interpolation": 0}]}, "red": {"Points": [{"handle_right": {"Y": 0, "X": 0.5}, "co": {"Y": 0, "X": 1}, "handle_left": {"Y": 1, "X": 0.5}, "handle_type": 0, "interpolation": 0}]}}, "has_video": {"Points": [{"co": {"Y": -1, "X": 1}, "interpolation": 2}]}, "has_audio": {"Points": [{"co": {"Y": -1, "X": 1}, "interpolation": 2}]}, "effects": [], "location_x": {"Points": [{"co": {"Y": 0, "X": 1}, "interpolation": 2}]}, "waveform": false, "title": "TE_SR_Taxi.mp4", "image": "/home/robsen/.openshot_qt/thumbnail/Z3LOYBY1PL.png", "gravity": 4, "perspective_c2_x": {"Points": [{"co": {"Y": -1, "X": 1}, "interpolation": 2}]}, "perspective_c1_y": {"Points": [{"co": {"Y": -1, "X": 1}, "interpolation": 2}]}, "crop_height": {"Points": [{"co": {"Y": -1, "X": 1}, "interpolation": 2}]}, "crop_x": {"Points": [{"co": {"Y": 0, "X": 1}, "interpolation": 2}]}, "start": 0, "scale": 1, "shear_y": {"Points": [{"co": {"Y": 0, "X": 1}, "interpolation": 2}]}, "display": 0, "volume": {"Points": [{"co": {"Y": 1, "X": 1}, "interpolation": 2}]}, "channel_mapping": {"Points": [{"co": {"Y": -1, "X": 1}, "interpolation": 2}]}, "anchor": 0, "duration": 31.317333221435547, "perspective_c3_y": {"Points": [{"co": {"Y": -1, "X": 1}, "interpolation": 2}]}, "shear_x": {"Points": [{"co": {"Y": 0, "X": 1}, "interpolation": 2}]}, "perspective_c4_x": {"Points": [{"co": {"Y": -1, "X": 1}, "interpolation": 2}]}, "location_y": {"Points": [{"co": {"Y": 0, "X": 1}, "interpolation": 2}]}, "scale_x": {"Points": [{"co": {"Y": 1, "X": 1}, "interpolation": 2}]}, "layer": 0, "perspective_c2_y": {"Points": [{"co": {"Y": -1, "X": 1}, "interpolation": 2}]}, "perspective_c1_x": {"Points": [{"co": {"Y": -1, "X": 1}, "interpolation": 2}]}, "perspective_c4_y": {"Points": [{"co": {"Y": -1, "X": 1}, "interpolation": 2}]}, "reader": {"audio_bit_rate": 189375, "has_single_image": false, "vcodec": "h264", "has_video": true, "type": "FFmpegReader", "video_length": "937", "audio_timebase": {"den": 48000, "num": 1}, "path": "/home/robsen/Dropbox/Workdir/Repo/SuesseRache-HH-Taxi/TE_SR_Taxi.mp4", "width": 1920, "has_audio": true, "video_bit_rate": 32091692, "channel_layout": 3, "height": 1080, "display_ratio": {"den": 9, "num": 16}, "interlaced_frame": false, "duration": 31.317333221435547, "sample_rate": 48000, "pixel_format": 0, "video_timebase": {"den": 29970, "num": 1}, "file_size": "125628279", "top_field_first": true, "pixel_ratio": {"den": 1, "num": 1}, "acodec": "aac", "audio_stream_index": 1, "video_stream_index": 0, "channels": 2, "fps": {"den": 100, "num": 2997}}, "channel_filter": {"Points": [{"co": {"Y": -1, "X": 1}, "interpolation": 2}]}, "file_id": "Z3LOYBY1PL", "time": {"Points": [{"co": {"Y": 1, "X": 1}, "interpolation": 2}]}}, "value": {"id": "627XQDJ3EP", "start": 0, "end": 31.317333221435547, "position": 21.76, "layer": 1, "image": "/home/robsen/.openshot_qt/thumbnail/Z3LOYBY1PL.png"}, "key": ["clips", {"id": "627XQDJ3EP"}], "partial": false, "type": "update"}, {"old_values": [{"alpha": {"Points": [{"co": {"Y": 1, "X": 1}, "interpolation": 2}]}, "rotation": {"Points": [{"co": {"Y": 0, "X": 1}, "interpolation": 2}]}, "scale_y": {"Points": [{"co": {"Y": 1, "X": 1}, "interpolation": 2}]}, "crop_y": {"Points": [{"co": {"Y": 0, "X": 1}, "interpolation": 2}]}, "perspective_c3_x": {"Points": [{"co": {"Y": -1, "X": 1}, "interpolation": 2}]}, "end": 15, "crop_width": {"Points": [{"co": {"Y": -1, "X": 1}, "interpolation": 2}]}, "position": 8.8, "id": "0AEDFYGQ7J", "wave_color": {"green": {"Points": [{"handle_right": {"Y": 0, "X": 0.5}, "co": {"Y": 123, "X": 1}, "handle_left": {"Y": 1, "X": 0.5}, "handle_type": 0, "interpolation": 0}]}, "blue": {"Points": [{"handle_right": {"Y": 0, "X": 0.5}, "co": {"Y": 255, "X": 1}, "handle_left": {"Y": 1, "X": 0.5}, "handle_type": 0, "interpolation": 0}]}, "alpha": {"Points": [{"handle_right": {"Y": 0, "X": 0.5}, "co": {"Y": 255, "X": 1}, "handle_left": {"Y": 1, "X": 0.5}, "handle_type": 0, "interpolation": 0}]}, "red": {"Points": [{"handle_right": {"Y": 0, "X": 0.5}, "co": {"Y": 0, "X": 1}, "handle_left": {"Y": 1, "X": 0.5}, "handle_type": 0, "interpolation": 0}]}}, "has_video": {"Points": [{"co": {"Y": -1, "X": 1}, "interpolation": 2}]}, "has_audio": {"Points": [{"co": {"Y": -1, "X": 1}, "interpolation": 2}]}, "effects": [], "location_x": {"Points": [{"co": {"Y": 0, "X": 1}, "interpolation": 2}]}, "waveform": false, "title": "taxi_start.mp4", "image": "/home/robsen/.openshot_qt/thumbnail/LGW3TZJV4Q.png", "gravity": 4, "perspective_c2_x": {"Points": [{"co": {"Y": -1, "X": 1}, "interpolation": 2}]}, "perspective_c1_y": {"Points": [{"co": {"Y": -1, "X": 1}, "interpolation": 2}]}, "crop_height": {"Points": [{"co": {"Y": -1, "X": 1}, "interpolation": 2}]}, "crop_x": {"Points": [{"co": {"Y": 0, "X": 1}, "interpolation": 2}]}, "start": 0, "scale": 1, "shear_y": {"Points": [{"co": {"Y": 0, "X": 1}, "interpolation": 2}]}, "display": 0, "volume": {"Points": [{"co": {"Y": 1, "X": 1}, "interpolation": 2}]}, "channel_mapping": {"Points": [{"co": {"Y": -1, "X": 1}, "interpolation": 2}]}, "anchor": 0, "duration": 15.0, "perspective_c3_y": {"Points": [{"co": {"Y": -1, "X": 1}, "interpolation": 2}]}, "shear_x": {"Points": [{"co": {"Y": 0, "X": 1}, "interpolation": 2}]}, "perspective_c4_x": {"Points": [{"co": {"Y": -1, "X": 1}, "interpolation": 2}]}, "location_y": {"Points": [{"co": {"Y": 0, "X": 1}, "interpolation": 2}]}, "scale_x": {"Points": [{"co": {"Y": 1, "X": 1}, "interpolation": 2}]}, "layer": 0, "perspective_c2_y": {"Points": [{"co": {"Y": -1, "X": 1}, "interpolation": 2}]}, "perspective_c1_x": {"Points": [{"co": {"Y": -1, "X": 1}, "interpolation": 2}]}, "perspective_c4_y": {"Points": [{"co": {"Y": -1, "X": 1}, "interpolation": 2}]}, "reader": {"audio_bit_rate": 0, "has_single_image": false, "vcodec": "h264", "has_video": true, "type": "FFmpegReader", "video_length": "375", "audio_timebase": {"den": 1, "num": 1}, "path": "/home/robsen/Dropbox/Workdir/Repo/SuesseRache-HH-Taxi/taxi_start.mp4", "width": 1920, "has_audio": false, "video_bit_rate": 147692, "channel_layout": 4, "height": 1080, "display_ratio": {"den": 9, "num": 16}, "interlaced_frame": false, "duration": 15.0, "sample_rate": 0, "pixel_format": 0, "video_timebase": {"den": 12800, "num": 1}, "file_size": "276924", "top_field_first": true, "pixel_ratio": {"den": 1, "num": 1}, "acodec": "", "audio_stream_index": -1, "video_stream_index": 0, "channels": 0, "fps": {"den": 1, "num": 25}}, "channel_filter": {"Points": [{"co": {"Y": -1, "X": 1}, "interpolation": 2}]}, "file_id": "LGW3TZJV4Q", "time": {"Points": [{"co": {"Y": 1, "X": 1}, "interpolation": 2}]}}, {"alpha": {"Points": [{"co": {"Y": 1, "X": 1}, "interpolation": 2}]}, "rotation": {"Points": [{"co": {"Y": 0, "X": 1}, "interpolation": 2}]}, "scale_y": {"Points": [{"co": {"Y": 1, "X": 1}, "interpolation": 2}]}, "crop_y": {"Points": [{"co": {"Y": 0, "X": 1}, "interpolation": 2}]}, "perspective_c3_x": {"Points": [{"co": {"Y": -1, "X": 1}, "interpolation": 2}]}, "end": 31.317333221435547, "crop_width": {"Points": [{"co": {"Y": -1, "X": 1}, "interpolation": 2}]}, "position": 21.76, "id": "627XQDJ3EP", "wave_color": {"green": {"Points": [{"handle_right": {"Y": 0, "X": 0.5}, "co": {"Y": 123, "X": 1}, "handle_left": {"Y": 1, "X": 0.5}, "handle_type": 0, "interpolation": 0}]}, "blue": {"Points": [{"handle_right": {"Y": 0, "X": 0.5}, "co": {"Y": 255, "X": 1}, "handle_left": {"Y": 1, "X": 0.5}, "handle_type": 0, "interpolation": 0}]}, "alpha": {"Points": [{"handle_right": {"Y": 0, "X": 0.5}, "co": {"Y": 255, "X": 1}, "handle_left": {"Y": 1, "X": 0.5}, "handle_type": 0, "interpolation": 0}]}, "red": {"Points": [{"handle_right": {"Y": 0, "X": 0.5}, "co": {"Y": 0, "X": 1}, "handle_left": {"Y": 1, "X": 0.5}, "handle_type": 0, "interpolation": 0}]}}, "has_video": {"Points": [{"co": {"Y": -1, "X": 1}, "interpolation": 2}]}, "has_audio": {"Points": [{"co": {"Y": -1, "X": 1}, "interpolation": 2}]}, "effects": [], "location_x": {"Points": [{"co": {"Y": 0, "X": 1}, "interpolation": 2}]}, "waveform": false, "title": "TE_SR_Taxi.mp4", "image": "/home/robsen/.openshot_qt/thumbnail/Z3LOYBY1PL.png", "gravity": 4, "perspective_c2_x": {"Points": [{"co": {"Y": -1, "X": 1}, "interpolation": 2}]}, "perspective_c1_y": {"Points": [{"co": {"Y": -1, "X": 1}, "interpolation": 2}]}, "crop_height": {"Points": [{"co": {"Y": -1, "X": 1}, "interpolation": 2}]}, "crop_x": {"Points": [{"co": {"Y": 0, "X": 1}, "interpolation": 2}]}, "start": 0, "scale": 1, "shear_y": {"Points": [{"co": {"Y": 0, "X": 1}, "interpolation": 2}]}, "display": 0, "volume": {"Points": [{"co": {"Y": 1, "X": 1}, "interpolation": 2}]}, "channel_mapping": {"Points": [{"co": {"Y": -1, "X": 1}, "interpolation": 2}]}, "anchor": 0, "duration": 31.317333221435547, "perspective_c3_y": {"Points": [{"co": {"Y": -1, "X": 1}, "interpolation": 2}]}, "shear_x": {"Points": [{"co": {"Y": 0, "X": 1}, "interpolation": 2}]}, "perspective_c4_x": {"Points": [{"co": {"Y": -1, "X": 1}, "interpolation": 2}]}, "location_y": {"Points": [{"co": {"Y": 0, "X": 1}, "interpolation": 2}]}, "scale_x": {"Points": [{"co": {"Y": 1, "X": 1}, "interpolation": 2}]}, "layer": 1, "perspective_c2_y": {"Points": [{"co": {"Y": -1, "X": 1}, "interpolation": 2}]}, "perspective_c1_x": {"Points": [{"co": {"Y": -1, "X": 1}, "interpolation": 2}]}, "perspective_c4_y": {"Points": [{"co": {"Y": -1, "X": 1}, "interpolation": 2}]}, "reader": {"audio_bit_rate": 189375, "has_single_image": false, "vcodec": "h264", "has_video": true, "type": "FFmpegReader", "video_length": "937", "audio_timebase": {"den": 48000, "num": 1}, "path": "/home/robsen/Dropbox/Workdir/Repo/SuesseRache-HH-Taxi/TE_SR_Taxi.mp4", "width": 1920, "has_audio": true, "video_bit_rate": 32091692, "channel_layout": 3, "height": 1080, "display_ratio": {"den": 9, "num": 16}, "interlaced_frame": false, "duration": 31.317333221435547, "sample_rate": 48000, "pixel_format": 0, "video_timebase": {"den": 29970, "num": 1}, "file_size": "125628279", "top_field_first": true, "pixel_ratio": {"den": 1, "num": 1}, "acodec": "aac", "audio_stream_index": 1, "video_stream_index": 0, "channels": 2, "fps": {"den": 100, "num": 2997}}, "channel_filter": {"Points": [{"co": {"Y": -1, "X": 1}, "interpolation": 2}]}, "file_id": "Z3LOYBY1PL", "time": {"Points": [{"co": {"Y": 1, "X": 1}, "interpolation": 2}]}}], "value": {"alpha": {"Points": [{"co": {"Y": 1, "X": 1}, "interpolation": 2}, {"handle_right": {"Y": 0, "X": 0.5}, "co": {"Y": 0, "X": 1}, "handle_left": {"Y": 1, "X": 0.5}, "handle_type": 0, "interpolation": 0}, {"handle_right": {"Y": 0, "X": 0.5}, "co": {"Y": 1, "X": 73}, "handle_left": {"Y": 1, "X": 0.5}, "handle_type": 0, "interpolation": 0}]}, "rotation": {"Points": [{"co": {"Y": 0, "X": 1}, "interpolation": 2}]}, "scale_y": {"Points": [{"co": {"Y": 1, "X": 1}, "interpolation": 2}]}, "crop_y": {"Points": [{"co": {"Y": 0, "X": 1}, "interpolation": 2}]}, "perspective_c3_x": {"Points": [{"co": {"Y": -1, "X": 1}, "interpolation": 2}]}, "end": 15, "crop_width": {"Points": [{"co": {"Y": -1, "X": 1}, "interpolation": 2}]}, "position": 53.075, "id": "PJWPMFXKV3", "wave_color": {"green": {"Points": [{"handle_right": {"Y": 0, "X": 0.5}, "co": {"Y": 123, "X": 1}, "handle_left": {"Y": 1, "X": 0.5}, "handle_type": 0, "interpolation": 0}]}, "blue": {"Points": [{"handle_right": {"Y": 0, "X": 0.5}, "co": {"Y": 255, "X": 1}, "handle_left": {"Y": 1, "X": 0.5}, "handle_type": 0, "interpolation": 0}]}, "alpha": {"Points": [{"handle_right": {"Y": 0, "X": 0.5}, "co": {"Y": 255, "X": 1}, "handle_left": {"Y": 1, "X": 0.5}, "handle_type": 0, "interpolation": 0}]}, "red": {"Points": [{"handle_right": {"Y": 0, "X": 0.5}, "co": {"Y": 0, "X": 1}, "handle_left": {"Y": 1, "X": 0.5}, "handle_type": 0, "interpolation": 0}]}}, "has_video": {"Points": [{"co": {"Y": -1, "X": 1}, "interpolation": 2}]}, "has_audio": {"Points": [{"co": {"Y": -1, "X": 1}, "interpolation": 2}]}, "effects": [], "location_x": {"Points": [{"co": {"Y": 0, "X": 1}, "interpolation": 2}]}, "waveform": false, "title": "arrow.mp4", "image": "/home/robsen/.openshot_qt/thumbnail/X22V56NF57.png", "gravity": 4, "scale_x": {"Points": [{"co": {"Y": 1, "X": 1}, "interpolation": 2}]}, "perspective_c1_y": {"Points": [{"co": {"Y": -1, "X": 1}, "interpolation": 2}]}, "crop_height": {"Points": [{"co": {"Y": -1, "X": 1}, "interpolation": 2}]}, "crop_x": {"Points": [{"co": {"Y": 0, "X": 1}, "interpolation": 2}]}, "start": 0, "scale": 1, "shear_y": {"Points": [{"co": {"Y": 0, "X": 1}, "interpolation": 2}]}, "display": 0, "volume": {"Points": [{"co": {"Y": 1, "X": 1}, "interpolation": 2}]}, "channel_mapping": {"Points": [{"co": {"Y": -1, "X": 1}, "interpolation": 2}]}, "anchor": 0, "duration": 15.0, "perspective_c3_y": {"Points": [{"co": {"Y": -1, "X": 1}, "interpolation": 2}]}, "shear_x": {"Points": [{"co": {"Y": 0, "X": 1}, "interpolation": 2}]}, "perspective_c4_x": {"Points": [{"co": {"Y": -1, "X": 1}, "interpolation": 2}]}, "location_y": {"Points": [{"co": {"Y": 0, "X": 1}, "interpolation": 2}]}, "perspective_c2_x": {"Points": [{"co": {"Y": -1, "X": 1}, "interpolation": 2}]}, "layer": 2, "perspective_c2_y": {"Points": [{"co": {"Y": -1, "X": 1}, "interpolation": 2}]}, "perspective_c1_x": {"Points": [{"co": {"Y": -1, "X": 1}, "interpolation": 2}]}, "perspective_c4_y": {"Points": [{"co": {"Y": -1, "X": 1}, "interpolation": 2}]}, "reader": {"audio_bit_rate": 0, "has_single_image": false, "has_video": true, "type": "FFmpegReader", "video_length": "375", "audio_timebase": {"den": 1, "num": 1}, "path": "/home/robsen/Dropbox/Workdir/Repo/SuesseRache-HH-Taxi/arrow.mp4", "width": 1920, "has_audio": false, "video_bit_rate": 83079, "channel_layout": 4, "height": 1080, "display_ratio": {"den": 9, "num": 16}, "interlaced_frame": false, "video_timebase": {"den": 12800, "num": 1}, "duration": 15.0, "sample_rate": 0, "pixel_format": 0, "fps": {"den": 1, "num": 25}, "file_size": "155774", "top_field_first": true, "pixel_ratio": {"den": 1, "num": 1}, "acodec": "", "audio_stream_index": -1, "video_stream_index": 0, "channels": 0, "vcodec": "h264"}, "channel_filter": {"Points": [{"co": {"Y": -1, "X": 1}, "interpolation": 2}]}, "file_id": "X22V56NF57", "time": {"Points": [{"co": {"Y": 1, "X": 1}, "interpolation": 2}]}}, "key": ["clips"], "partial": false, "type": "insert"}, {"old_values": {"alpha": {"Points": [{"co": {"Y": 1, "X": 1}, "interpolation": 2}]}, "rotation": {"Points": [{"co": {"Y": 0, "X": 1}, "interpolation": 2}]}, "scale_y": {"Points": [{"co": {"Y": 1, "X": 1}, "interpolation": 2}]}, "crop_y": {"Points": [{"co": {"Y": 0, "X": 1}, "interpolation": 2}]}, "perspective_c3_x": {"Points": [{"co": {"Y": -1, "X": 1}, "interpolation": 2}]}, "end": 15.0, "crop_width": {"Points": [{"co": {"Y": -1, "X": 1}, "interpolation": 2}]}, "position": 62.88, "id": "PJWPMFXKV3", "wave_color": {"green": {"Points": [{"handle_right": {"Y": 0, "X": 0.5}, "co": {"Y": 123, "X": 1}, "handle_left": {"Y": 1, "X": 0.5}, "handle_type": 0, "interpolation": 0}]}, "blue": {"Points": [{"handle_right": {"Y": 0, "X": 0.5}, "co": {"Y": 255, "X": 1}, "handle_left": {"Y": 1, "X": 0.5}, "handle_type": 0, "interpolation": 0}]}, "alpha": {"Points": [{"handle_right": {"Y": 0, "X": 0.5}, "co": {"Y": 255, "X": 1}, "handle_left": {"Y": 1, "X": 0.5}, "handle_type": 0, "interpolation": 0}]}, "red": {"Points": [{"handle_right": {"Y": 0, "X": 0.5}, "co": {"Y": 0, "X": 1}, "handle_left": {"Y": 1, "X": 0.5}, "handle_type": 0, "interpolation": 0}]}}, "has_video": {"Points": [{"co": {"Y": -1, "X": 1}, "interpolation": 2}]}, "has_audio": {"Points": [{"co": {"Y": -1, "X": 1}, "interpolation": 2}]}, "effects": [], "location_x": {"Points": [{"co": {"Y": 0, "X": 1}, "interpolation": 2}]}, "waveform": false, "title": "arrow.mp4", "image": "/home/robsen/.openshot_qt/thumbnail/X22V56NF57.png", "gravity": 4, "scale_x": {"Points": [{"co": {"Y": 1, "X": 1}, "interpolation": 2}]}, "perspective_c1_y": {"Points": [{"co": {"Y": -1, "X": 1}, "interpolation": 2}]}, "crop_height": {"Points": [{"co": {"Y": -1, "X": 1}, "interpolation": 2}]}, "crop_x": {"Points": [{"co": {"Y": 0, "X": 1}, "interpolation": 2}]}, "start": 0, "scale": 1, "shear_y": {"Points": [{"co": {"Y": 0, "X": 1}, "interpolation": 2}]}, "display": 0, "volume": {"Points": [{"co": {"Y": 1, "X": 1}, "interpolation": 2}]}, "channel_mapping": {"Points": [{"co": {"Y": -1, "X": 1}, "interpolation": 2}]}, "anchor": 0, "duration": 15.0, "perspective_c3_y": {"Points": [{"co": {"Y": -1, "X": 1}, "interpolation": 2}]}, "shear_x": {"Points": [{"co": {"Y": 0, "X": 1}, "interpolation": 2}]}, "perspective_c4_x": {"Points": [{"co": {"Y": -1, "X": 1}, "interpolation": 2}]}, "location_y": {"Points": [{"co": {"Y": 0, "X": 1}, "interpolation": 2}]}, "perspective_c2_x": {"Points": [{"co": {"Y": -1, "X": 1}, "interpolation": 2}]}, "layer": 2, "perspective_c2_y": {"Points": [{"co": {"Y": -1, "X": 1}, "interpolation": 2}]}, "perspective_c1_x": {"Points": [{"co": {"Y": -1, "X": 1}, "interpolation": 2}]}, "perspective_c4_y": {"Points": [{"co": {"Y": -1, "X": 1}, "interpolation": 2}]}, "reader": {"audio_bit_rate": 0, "has_single_image": false, "vcodec": "h264", "has_video": true, "type": "FFmpegReader", "video_length": "375", "audio_timebase": {"den": 1, "num": 1}, "path": "/home/robsen/Dropbox/Workdir/Repo/SuesseRache-HH-Taxi/arrow.mp4", "width": 1920, "has_audio": false, "video_bit_rate": 83079, "channel_layout": 4, "height": 1080, "display_ratio": {"den": 9, "num": 16}, "interlaced_frame": false, "duration": 15.0, "sample_rate": 0, "pixel_format": 0, "video_timebase": {"den": 12800, "num": 1}, "file_size": "155774", "top_field_first": true, "pixel_ratio": {"den": 1, "num": 1}, "acodec": "", "audio_stream_index": -1, "video_stream_index": 0, "channels": 0, "fps": {"den": 1, "num": 25}}, "channel_filter": {"Points": [{"co": {"Y": -1, "X": 1}, "interpolation": 2}]}, "file_id": "X22V56NF57", "time": {"Points": [{"co": {"Y": 1, "X": 1}, "interpolation": 2}]}}, "value": {"id": "PJWPMFXKV3", "start": 0, "end": 15, "position": 63.04, "layer": 1, "image": "/home/robsen/.openshot_qt/thumbnail/X22V56NF57.png"}, "key": ["clips", {"id": "PJWPMFXKV3"}], "partial": false, "type": "update"}, {"old_values": {"alpha": {"Points": [{"co": {"Y": 1, "X": 1}, "interpolation": 2}]}, "rotation": {"Points": [{"co": {"Y": 0, "X": 1}, "interpolation": 2}]}, "scale_y": {"Points": [{"co": {"Y": 1, "X": 1}, "interpolation": 2}]}, "crop_y": {"Points": [{"co": {"Y": 0, "X": 1}, "interpolation": 2}]}, "perspective_c3_x": {"Points": [{"co": {"Y": -1, "X": 1}, "interpolation": 2}]}, "end": 15, "crop_width": {"Points": [{"co": {"Y": -1, "X": 1}, "interpolation": 2}]}, "position": 63.04, "id": "PJWPMFXKV3", "wave_color": {"green": {"Points": [{"handle_right": {"Y": 0, "X": 0.5}, "co": {"Y": 123, "X": 1}, "handle_left": {"Y": 1, "X": 0.5}, "handle_type": 0, "interpolation": 0}]}, "blue": {"Points": [{"handle_right": {"Y": 0, "X": 0.5}, "co": {"Y": 255, "X": 1}, "handle_left": {"Y": 1, "X": 0.5}, "handle_type": 0, "interpolation": 0}]}, "alpha": {"Points": [{"handle_right": {"Y": 0, "X": 0.5}, "co": {"Y": 255, "X": 1}, "handle_left": {"Y": 1, "X": 0.5}, "handle_type": 0, "interpolation": 0}]}, "red": {"Points": [{"handle_right": {"Y": 0, "X": 0.5}, "co": {"Y": 0, "X": 1}, "handle_left": {"Y": 1, "X": 0.5}, "handle_type": 0, "interpolation": 0}]}}, "has_video": {"Points": [{"co": {"Y": -1, "X": 1}, "interpolation": 2}]}, "has_audio": {"Points": [{"co": {"Y": -1, "X": 1}, "interpolation": 2}]}, "effects": [], "location_x": {"Points": [{"co": {"Y": 0, "X": 1}, "interpolation": 2}]}, "waveform": false, "title": "arrow.mp4", "image": "/home/robsen/.openshot_qt/thumbnail/X22V56NF57.png", "gravity": 4, "perspective_c2_x": {"Points": [{"co": {"Y": -1, "X": 1}, "interpolation": 2}]}, "perspective_c1_y": {"Points": [{"co": {"Y": -1, "X": 1}, "interpolation": 2}]}, "crop_height": {"Points": [{"co": {"Y": -1, "X": 1}, "interpolation": 2}]}, "crop_x": {"Points": [{"co": {"Y": 0, "X": 1}, "interpolation": 2}]}, "start": 0, "scale": 1, "shear_y": {"Points": [{"co": {"Y": 0, "X": 1}, "interpolation": 2}]}, "display": 0, "volume": {"Points": [{"co": {"Y": 1, "X": 1}, "interpolation": 2}]}, "channel_mapping": {"Points": [{"co": {"Y": -1, "X": 1}, "interpolation": 2}]}, "anchor": 0, "duration": 15.0, "perspective_c3_y": {"Points": [{"co": {"Y": -1, "X": 1}, "interpolation": 2}]}, "shear_x": {"Points": [{"co": {"Y": 0, "X": 1}, "interpolation": 2}]}, "perspective_c4_x": {"Points": [{"co": {"Y": -1, "X": 1}, "interpolation": 2}]}, "location_y": {"Points": [{"co": {"Y": 0, "X": 1}, "interpolation": 2}]}, "scale_x": {"Points": [{"co": {"Y": 1, "X": 1}, "interpolation": 2}]}, "layer": 1, "perspective_c2_y": {"Points": [{"co": {"Y": -1, "X": 1}, "interpolation": 2}]}, "perspective_c1_x": {"Points": [{"co": {"Y": -1, "X": 1}, "interpolation": 2}]}, "perspective_c4_y": {"Points": [{"co": {"Y": -1, "X": 1}, "interpolation": 2}]}, "reader": {"audio_bit_rate": 0, "has_single_image": false, "vcodec": "h264", "has_video": true, "type": "FFmpegReader", "video_length": "375", "audio_timebase": {"den": 1, "num": 1}, "path": "/home/robsen/Dropbox/Workdir/Repo/SuesseRache-HH-Taxi/arrow.mp4", "width": 1920, "has_audio": false, "video_bit_rate": 83079, "channel_layout": 4, "height": 1080, "display_ratio": {"den": 9, "num": 16}, "interlaced_frame": false, "duration": 15.0, "sample_rate": 0, "pixel_format": 0, "video_timebase": {"den": 12800, "num": 1}, "file_size": "155774", "top_field_first": true, "pixel_ratio": {"den": 1, "num": 1}, "acodec": "", "audio_stream_index": -1, "video_stream_index": 0, "channels": 0, "fps": {"den": 1, "num": 25}}, "channel_filter": {"Points": [{"co": {"Y": -1, "X": 1}, "interpolation": 2}]}, "file_id": "X22V56NF57", "time": {"Points": [{"co": {"Y": 1, "X": 1}, "interpolation": 2}]}}, "value": {"id": "PJWPMFXKV3", "start": 0, "end": 15, "position": 53.075, "layer": 2, "image": "/home/robsen/.openshot_qt/thumbnail/X22V56NF57.png"}, "key": ["clips", {"id": "PJWPMFXKV3"}], "partial": false, "type": "update"}, {"old_values": {"start": 0, "type": "Mask", "contrast": {"Points": [{"co": {"Y": 3, "X": 1}, "interpolation": 2}]}, "layer": 0, "replace_image": false, "title": "Transition", "end": 2.039999999999999, "reader": {"audio_bit_rate": 0, "has_single_image": true, "vcodec": "", "has_video": true, "type": "QtImageReader", "video_length": "2592000", "audio_timebase": {"den": 1, "num": 1}, "path": "/usr/lib/python3/dist-packages/openshot_qt/transitions/common/fade.svg", "width": 720, "has_audio": false, "video_bit_rate": 0, "channel_layout": 4, "height": 576, "display_ratio": {"den": 4, "num": 5}, "interlaced_frame": false, "duration": 86400, "sample_rate": 0, "pixel_format": -1, "video_timebase": {"den": 30, "num": 1}, "file_size": "1658880", "top_field_first": true, "pixel_ratio": {"den": 1, "num": 1}, "acodec": "", "audio_stream_index": -1, "video_stream_index": -1, "channels": 0, "fps": {"den": 1, "num": 30}}, "brightness": {"Points": [{"handle_right": {"Y": 0, "X": 0.5}, "co": {"Y": 1, "X": 1}, "handle_left": {"Y": 1, "X": 0.5}, "handle_type": 0, "interpolation": 0}, {"handle_right": {"Y": 0, "X": 0.5}, "co": {"Y": -1, "X": 50}, "handle_left": {"Y": 1, "X": 0.5}, "handle_type": 0, "interpolation": 0}]}, "id": "5NBS5H99MA", "position": 21.76}, "value": null, "key": ["effects", {"id": "5NBS5H99MA"}], "partial": false, "type": "delete"}, {"old_values": {"alpha": {"Points": [{"co": {"Y": 1, "X": 1}, "interpolation": 2}]}, "rotation": {"Points": [{"co": {"Y": 0, "X": 1}, "interpolation": 2}]}, "scale_y": {"Points": [{"co": {"Y": 1, "X": 1}, "interpolation": 2}]}, "crop_y": {"Points": [{"co": {"Y": 0, "X": 1}, "interpolation": 2}]}, "perspective_c3_x": {"Points": [{"co": {"Y": -1, "X": 1}, "interpolation": 2}]}, "end": 15, "crop_width": {"Points": [{"co": {"Y": -1, "X": 1}, "interpolation": 2}]}, "position": 8.8, "id": "0AEDFYGQ7J", "wave_color": {"green": {"Points": [{"handle_right": {"Y": 0, "X": 0.5}, "co": {"Y": 123, "X": 1}, "handle_left": {"Y": 1, "X": 0.5}, "handle_type": 0, "interpolation": 0}]}, "blue": {"Points": [{"handle_right": {"Y": 0, "X": 0.5}, "co": {"Y": 255, "X": 1}, "handle_left": {"Y": 1, "X": 0.5}, "handle_type": 0, "interpolation": 0}]}, "alpha": {"Points": [{"handle_right": {"Y": 0, "X": 0.5}, "co": {"Y": 255, "X": 1}, "handle_left": {"Y": 1, "X": 0.5}, "handle_type": 0, "interpolation": 0}]}, "red": {"Points": [{"handle_right": {"Y": 0, "X": 0.5}, "co": {"Y": 0, "X": 1}, "handle_left": {"Y": 1, "X": 0.5}, "handle_type": 0, "interpolation": 0}]}}, "has_video": {"Points": [{"co": {"Y": -1, "X": 1}, "interpolation": 2}]}, "has_audio": {"Points": [{"co": {"Y": -1, "X": 1}, "interpolation": 2}]}, "effects": [], "location_x": {"Points": [{"co": {"Y": 0, "X": 1}, "interpolation": 2}]}, "waveform": false, "title": "taxi_start.mp4", "image": "/home/robsen/.openshot_qt/thumbnail/LGW3TZJV4Q.png", "gravity": 4, "perspective_c2_x": {"Points": [{"co": {"Y": -1, "X": 1}, "interpolation": 2}]}, "perspective_c1_y": {"Points": [{"co": {"Y": -1, "X": 1}, "interpolation": 2}]}, "crop_height": {"Points": [{"co": {"Y": -1, "X": 1}, "interpolation": 2}]}, "crop_x": {"Points": [{"co": {"Y": 0, "X": 1}, "interpolation": 2}]}, "start": 0, "scale": 1, "shear_y": {"Points": [{"co": {"Y": 0, "X": 1}, "interpolation": 2}]}, "display": 0, "volume": {"Points": [{"co": {"Y": 1, "X": 1}, "interpolation": 2}]}, "channel_mapping": {"Points": [{"co": {"Y": -1, "X": 1}, "interpolation": 2}]}, "anchor": 0, "duration": 15.0, "perspective_c3_y": {"Points": [{"co": {"Y": -1, "X": 1}, "interpolation": 2}]}, "shear_x": {"Points": [{"co": {"Y": 0, "X": 1}, "interpolation": 2}]}, "perspective_c4_x": {"Points": [{"co": {"Y": -1, "X": 1}, "interpolation": 2}]}, "location_y": {"Points": [{"co": {"Y": 0, "X": 1}, "interpolation": 2}]}, "scale_x": {"Points": [{"co": {"Y": 1, "X": 1}, "interpolation": 2}]}, "layer": 0, "perspective_c2_y": {"Points": [{"co": {"Y": -1, "X": 1}, "interpolation": 2}]}, "perspective_c1_x": {"Points": [{"co": {"Y": -1, "X": 1}, "interpolation": 2}]}, "perspective_c4_y": {"Points": [{"co": {"Y": -1, "X": 1}, "interpolation": 2}]}, "reader": {"audio_bit_rate": 0, "has_single_image": false, "vcodec": "h264", "has_video": true, "type": "FFmpegReader", "video_length": "375", "audio_timebase": {"den": 1, "num": 1}, "path": "/home/robsen/Dropbox/Workdir/Repo/SuesseRache-HH-Taxi/taxi_start.mp4", "width": 1920, "has_audio": false, "video_bit_rate": 147692, "channel_layout": 4, "height": 1080, "display_ratio": {"den": 9, "num": 16}, "interlaced_frame": false, "duration": 15.0, "sample_rate": 0, "pixel_format": 0, "video_timebase": {"den": 12800, "num": 1}, "file_size": "276924", "top_field_first": true, "pixel_ratio": {"den": 1, "num": 1}, "acodec": "", "audio_stream_index": -1, "video_stream_index": 0, "channels": 0, "fps": {"den": 1, "num": 25}}, "channel_filter": {"Points": [{"co": {"Y": -1, "X": 1}, "interpolation": 2}]}, "file_id": "LGW3TZJV4Q", "time": {"Points": [{"co": {"Y": 1, "X": 1}, "interpolation": 2}]}}, "value": {"alpha": {"Points": [{"co": {"Y": 1, "X": 1}, "interpolation": 2}, {"handle_right": {"Y": 0, "X": 0.5}, "co": {"Y": 1, "X": 289}, "handle_left": {"Y": 1, "X": 0.5}, "handle_type": 0, "interpolation": 0}, {"handle_right": {"Y": 0, "X": 0.5}, "co": {"Y": 0, "X": 361}, "handle_left": {"Y": 1, "X": 0.5}, "handle_type": 0, "interpolation": 0}]}, "rotation": {"Points": [{"co": {"Y": 0, "X": 1}, "interpolation": 2}]}, "scale_y": {"Points": [{"co": {"Y": 1, "X": 1}, "interpolation": 2}]}, "crop_y": {"Points": [{"co": {"Y": 0, "X": 1}, "interpolation": 2}]}, "crop_width": {"Points": [{"co": {"Y": -1, "X": 1}, "interpolation": 2}]}, "end": 15, "perspective_c3_x": {"Points": [{"co": {"Y": -1, "X": 1}, "interpolation": 2}]}, "position": 8.8, "id": "0AEDFYGQ7J", "wave_color": {"green": {"Points": [{"handle_right": {"Y": 0, "X": 0.5}, "co": {"Y": 123, "X": 1}, "handle_left": {"Y": 1, "X": 0.5}, "handle_type": 0, "interpolation": 0}]}, "blue": {"Points": [{"handle_right": {"Y": 0, "X": 0.5}, "co": {"Y": 255, "X": 1}, "handle_left": {"Y": 1, "X": 0.5}, "handle_type": 0, "interpolation": 0}]}, "alpha": {"Points": [{"handle_right": {"Y": 0, "X": 0.5}, "co": {"Y": 255, "X": 1}, "handle_left": {"Y": 1, "X": 0.5}, "handle_type": 0, "interpolation": 0}]}, "red": {"Points": [{"handle_right": {"Y": 0, "X": 0.5}, "co": {"Y": 0, "X": 1}, "handle_left": {"Y": 1, "X": 0.5}, "handle_type": 0, "interpolation": 0}]}}, "has_video": {"Points": [{"co": {"Y": -1, "X": 1}, "interpolation": 2}]}, "has_audio": {"Points": [{"co": {"Y": -1, "X": 1}, "interpolation": 2}]}, "effects": [], "location_x": {"Points": [{"co": {"Y": 0, "X": 1}, "interpolation": 2}]}, "waveform": false, "title": "taxi_start.mp4", "image": "/home/robsen/.openshot_qt/thumbnail/LGW3TZJV4Q.png", "gravity": 4, "scale_x": {"Points": [{"co": {"Y": 1, "X": 1}, "interpolation": 2}]}, "perspective_c1_y": {"Points": [{"co": {"Y": -1, "X": 1}, "interpolation": 2}]}, "crop_height": {"Points": [{"co": {"Y": -1, "X": 1}, "interpolation": 2}]}, "crop_x": {"Points": [{"co": {"Y": 0, "X": 1}, "interpolation": 2}]}, "start": 0, "scale": 1, "shear_y": {"Points": [{"co": {"Y": 0, "X": 1}, "interpolation": 2}]}, "display": 0, "volume": {"Points": [{"co": {"Y": 1, "X": 1}, "interpolation": 2}]}, "channel_mapping": {"Points": [{"co": {"Y": -1, "X": 1}, "interpolation": 2}]}, "anchor": 0, "duration": 15.0, "perspective_c3_y": {"Points": [{"co": {"Y": -1, "X": 1}, "interpolation": 2}]}, "shear_x": {"Points": [{"co": {"Y": 0, "X": 1}, "interpolation": 2}]}, "perspective_c4_x": {"Points": [{"co": {"Y": -1, "X": 1}, "interpolation": 2}]}, "location_y": {"Points": [{"co": {"Y": 0, "X": 1}, "interpolation": 2}]}, "perspective_c2_x": {"Points": [{"co": {"Y": -1, "X": 1}, "interpolation": 2}]}, "layer": 0, "perspective_c2_y": {"Points": [{"co": {"Y": -1, "X": 1}, "interpolation": 2}]}, "perspective_c1_x": {"Points": [{"co": {"Y": -1, "X": 1}, "interpolation": 2}]}, "perspective_c4_y": {"Points": [{"co": {"Y": -1, "X": 1}, "interpolation": 2}]}, "channel_filter": {"Points": [{"co": {"Y": -1, "X": 1}, "interpolation": 2}]}, "time": {"Points": [{"co": {"Y": 1, "X": 1}, "interpolation": 2}]}, "file_id": "LGW3TZJV4Q"}, "key": ["clips", {"id": "0AEDFYGQ7J"}], "partial": false, "type": "update"}, {"old_values": {"alpha": {"Points": [{"co": {"Y": 1, "X": 1}, "interpolation": 2}, {"handle_right": {"Y": 0, "X": 0.5}, "co": {"Y": 1, "X": 289}, "handle_left": {"Y": 1, "X": 0.5}, "handle_type": 0, "interpolation": 0}, {"handle_right": {"Y": 0, "X": 0.5}, "co": {"Y": 0, "X": 361}, "handle_left": {"Y": 1, "X": 0.5}, "handle_type": 0, "interpolation": 0}]}, "rotation": {"Points": [{"co": {"Y": 0, "X": 1}, "interpolation": 2}]}, "scale_y": {"Points": [{"co": {"Y": 1, "X": 1}, "interpolation": 2}]}, "crop_y": {"Points": [{"co": {"Y": 0, "X": 1}, "interpolation": 2}]}, "perspective_c3_x": {"Points": [{"co": {"Y": -1, "X": 1}, "interpolation": 2}]}, "end": 15, "crop_width": {"Points": [{"co": {"Y": -1, "X": 1}, "interpolation": 2}]}, "position": 8.8, "id": "0AEDFYGQ7J", "wave_color": {"green": {"Points": [{"handle_right": {"Y": 0, "X": 0.5}, "co": {"Y": 123, "X": 1}, "handle_left": {"Y": 1, "X": 0.5}, "handle_type": 0, "interpolation": 0}]}, "blue": {"Points": [{"handle_right": {"Y": 0, "X": 0.5}, "co": {"Y": 255, "X": 1}, "handle_left": {"Y": 1, "X": 0.5}, "handle_type": 0, "interpolation": 0}]}, "alpha": {"Points": [{"handle_right": {"Y": 0, "X": 0.5}, "co": {"Y": 255, "X": 1}, "handle_left": {"Y": 1, "X": 0.5}, "handle_type": 0, "interpolation": 0}]}, "red": {"Points": [{"handle_right": {"Y": 0, "X": 0.5}, "co": {"Y": 0, "X": 1}, "handle_left": {"Y": 1, "X": 0.5}, "handle_type": 0, "interpolation": 0}]}}, "has_video": {"Points": [{"co": {"Y": -1, "X": 1}, "interpolation": 2}]}, "has_audio": {"Points": [{"co": {"Y": -1, "X": 1}, "interpolation": 2}]}, "effects": [], "location_x": {"Points": [{"co": {"Y": 0, "X": 1}, "interpolation": 2}]}, "waveform": false, "title": "taxi_start.mp4", "image": "/home/robsen/.openshot_qt/thumbnail/LGW3TZJV4Q.png", "gravity": 4, "perspective_c2_x": {"Points": [{"co": {"Y": -1, "X": 1}, "interpolation": 2}]}, "perspective_c1_y": {"Points": [{"co": {"Y": -1, "X": 1}, "interpolation": 2}]}, "crop_height": {"Points": [{"co": {"Y": -1, "X": 1}, "interpolation": 2}]}, "crop_x": {"Points": [{"co": {"Y": 0, "X": 1}, "interpolation": 2}]}, "start": 0, "scale": 1, "shear_y": {"Points": [{"co": {"Y": 0, "X": 1}, "interpolation": 2}]}, "display": 0, "volume": {"Points": [{"co": {"Y": 1, "X": 1}, "interpolation": 2}]}, "channel_mapping": {"Points": [{"co": {"Y": -1, "X": 1}, "interpolation": 2}]}, "anchor": 0, "duration": 15.0, "perspective_c3_y": {"Points": [{"co": {"Y": -1, "X": 1}, "interpolation": 2}]}, "shear_x": {"Points": [{"co": {"Y": 0, "X": 1}, "interpolation": 2}]}, "perspective_c4_x": {"Points": [{"co": {"Y": -1, "X": 1}, "interpolation": 2}]}, "location_y": {"Points": [{"co": {"Y": 0, "X": 1}, "interpolation": 2}]}, "scale_x": {"Points": [{"co": {"Y": 1, "X": 1}, "interpolation": 2}]}, "layer": 0, "perspective_c2_y": {"Points": [{"co": {"Y": -1, "X": 1}, "interpolation": 2}]}, "perspective_c1_x": {"Points": [{"co": {"Y": -1, "X": 1}, "interpolation": 2}]}, "perspective_c4_y": {"Points": [{"co": {"Y": -1, "X": 1}, "interpolation": 2}]}, "reader": {"audio_bit_rate": 0, "has_single_image": false, "vcodec": "h264", "has_video": true, "type": "FFmpegReader", "video_length": "375", "audio_timebase": {"den": 1, "num": 1}, "path": "/home/robsen/Dropbox/Workdir/Repo/SuesseRache-HH-Taxi/taxi_start.mp4", "width": 1920, "has_audio": false, "video_bit_rate": 147692, "channel_layout": 4, "height": 1080, "display_ratio": {"den": 9, "num": 16}, "interlaced_frame": false, "duration": 15.0, "sample_rate": 0, "pixel_format": 0, "video_timebase": {"den": 12800, "num": 1}, "file_size": "276924", "top_field_first": true, "pixel_ratio": {"den": 1, "num": 1}, "acodec": "", "audio_stream_index": -1, "video_stream_index": 0, "channels": 0, "fps": {"den": 1, "num": 25}}, "channel_filter": {"Points": [{"co": {"Y": -1, "X": 1}, "interpolation": 2}]}, "file_id": "LGW3TZJV4Q", "time": {"Points": [{"co": {"Y": 1, "X": 1}, "interpolation": 2}]}}, "value": {"alpha": {"Points": [{"co": {"Y": 1, "X": 1}, "interpolation": 2}, {"handle_right": {"Y": 0, "X": 0.5}, "co": {"Y": 1, "X": 289}, "handle_left": {"Y": 1, "X": 0.5}, "handle_type": 0, "interpolation": 0}, {"handle_right": {"Y": 0, "X": 0.5}, "co": {"Y": 0, "X": 361}, "handle_left": {"Y": 1, "X": 0.5}, "handle_type": 0, "interpolation": 0}, {"handle_right": {"Y": 0, "X": 0.5}, "co": {"Y": 0, "X": 1}, "handle_left": {"Y": 1, "X": 0.5}, "handle_type": 0, "interpolation": 0}, {"handle_right": {"Y": 0, "X": 0.5}, "co": {"Y": 1, "X": 73}, "handle_left": {"Y": 1, "X": 0.5}, "handle_type": 0, "interpolation": 0}]}, "rotation": {"Points": [{"co": {"Y": 0, "X": 1}, "interpolation": 2}]}, "scale_y": {"Points": [{"co": {"Y": 1, "X": 1}, "interpolation": 2}]}, "crop_y": {"Points": [{"co": {"Y": 0, "X": 1}, "interpolation": 2}]}, "crop_width": {"Points": [{"co": {"Y": -1, "X": 1}, "interpolation": 2}]}, "end": 15, "perspective_c3_x": {"Points": [{"co": {"Y": -1, "X": 1}, "interpolation": 2}]}, "position": 8.8, "id": "0AEDFYGQ7J", "wave_color": {"green": {"Points": [{"handle_right": {"Y": 0, "X": 0.5}, "co": {"Y": 123, "X": 1}, "handle_left": {"Y": 1, "X": 0.5}, "handle_type": 0, "interpolation": 0}]}, "blue": {"Points": [{"handle_right": {"Y": 0, "X": 0.5}, "co": {"Y": 255, "X": 1}, "handle_left": {"Y": 1, "X": 0.5}, "handle_type": 0, "interpolation": 0}]}, "alpha": {"Points": [{"handle_right": {"Y": 0, "X": 0.5}, "co": {"Y": 255, "X": 1}, "handle_left": {"Y": 1, "X": 0.5}, "handle_type": 0, "interpolation": 0}]}, "red": {"Points": [{"handle_right": {"Y": 0, "X": 0.5}, "co": {"Y": 0, "X": 1}, "handle_left": {"Y": 1, "X": 0.5}, "handle_type": 0, "interpolation": 0}]}}, "has_video": {"Points": [{"co": {"Y": -1, "X": 1}, "interpolation": 2}]}, "has_audio": {"Points": [{"co": {"Y": -1, "X": 1}, "interpolation": 2}]}, "effects": [], "location_x": {"Points": [{"co": {"Y": 0, "X": 1}, "interpolation": 2}]}, "waveform": false, "title": "taxi_start.mp4", "image": "/home/robsen/.openshot_qt/thumbnail/LGW3TZJV4Q.png", "gravity": 4, "scale_x": {"Points": [{"co": {"Y": 1, "X": 1}, "interpolation": 2}]}, "perspective_c1_y": {"Points": [{"co": {"Y": -1, "X": 1}, "interpolation": 2}]}, "crop_height": {"Points": [{"co": {"Y": -1, "X": 1}, "interpolation": 2}]}, "crop_x": {"Points": [{"co": {"Y": 0, "X": 1}, "interpolation": 2}]}, "start": 0, "scale": 1, "shear_y": {"Points": [{"co": {"Y": 0, "X": 1}, "interpolation": 2}]}, "display": 0, "volume": {"Points": [{"co": {"Y": 1, "X": 1}, "interpolation": 2}]}, "channel_mapping": {"Points": [{"co": {"Y": -1, "X": 1}, "interpolation": 2}]}, "anchor": 0, "duration": 15.0, "perspective_c3_y": {"Points": [{"co": {"Y": -1, "X": 1}, "interpolation": 2}]}, "shear_x": {"Points": [{"co": {"Y": 0, "X": 1}, "interpolation": 2}]}, "perspective_c4_x": {"Points": [{"co": {"Y": -1, "X": 1}, "interpolation": 2}]}, "location_y": {"Points": [{"co": {"Y": 0, "X": 1}, "interpolation": 2}]}, "perspective_c2_x": {"Points": [{"co": {"Y": -1, "X": 1}, "interpolation": 2}]}, "layer": 0, "perspective_c2_y": {"Points": [{"co": {"Y": -1, "X": 1}, "interpolation": 2}]}, "perspective_c1_x": {"Points": [{"co": {"Y": -1, "X": 1}, "interpolation": 2}]}, "perspective_c4_y": {"Points": [{"co": {"Y": -1, "X": 1}, "interpolation": 2}]}, "channel_filter": {"Points": [{"co": {"Y": -1, "X": 1}, "interpolation": 2}]}, "time": {"Points": [{"co": {"Y": 1, "X": 1}, "interpolation": 2}]}, "file_id": "LGW3TZJV4Q"}, "key": ["clips", {"id": "0AEDFYGQ7J"}], "partial": false, "type": "update"}, {"old_values": {"alpha": {"Points": [{"co": {"Y": 1, "X": 1}, "interpolation": 2}]}, "rotation": {"Points": [{"co": {"Y": 0, "X": 1}, "interpolation": 2}]}, "scale_y": {"Points": [{"co": {"Y": 1, "X": 1}, "interpolation": 2}]}, "crop_y": {"Points": [{"co": {"Y": 0, "X": 1}, "interpolation": 2}]}, "perspective_c3_x": {"Points": [{"co": {"Y": -1, "X": 1}, "interpolation": 2}]}, "end": 15, "crop_width": {"Points": [{"co": {"Y": -1, "X": 1}, "interpolation": 2}]}, "position": 53.075, "id": "PJWPMFXKV3", "wave_color": {"green": {"Points": [{"handle_right": {"Y": 0, "X": 0.5}, "co": {"Y": 123, "X": 1}, "handle_left": {"Y": 1, "X": 0.5}, "handle_type": 0, "interpolation": 0}]}, "blue": {"Points": [{"handle_right": {"Y": 0, "X": 0.5}, "co": {"Y": 255, "X": 1}, "handle_left": {"Y": 1, "X": 0.5}, "handle_type": 0, "interpolation": 0}]}, "alpha": {"Points": [{"handle_right": {"Y": 0, "X": 0.5}, "co": {"Y": 255, "X": 1}, "handle_left": {"Y": 1, "X": 0.5}, "handle_type": 0, "interpolation": 0}]}, "red": {"Points": [{"handle_right": {"Y": 0, "X": 0.5}, "co": {"Y": 0, "X": 1}, "handle_left": {"Y": 1, "X": 0.5}, "handle_type": 0, "interpolation": 0}]}}, "has_video": {"Points": [{"co": {"Y": -1, "X": 1}, "interpolation": 2}]}, "has_audio": {"Points": [{"co": {"Y": -1, "X": 1}, "interpolation": 2}]}, "effects": [], "location_x": {"Points": [{"co": {"Y": 0, "X": 1}, "interpolation": 2}]}, "waveform": false, "title": "arrow.mp4", "image": "/home/robsen/.openshot_qt/thumbnail/X22V56NF57.png", "gravity": 4, "perspective_c2_x": {"Points": [{"co": {"Y": -1, "X": 1}, "interpolation": 2}]}, "perspective_c1_y": {"Points": [{"co": {"Y": -1, "X": 1}, "interpolation": 2}]}, "crop_height": {"Points": [{"co": {"Y": -1, "X": 1}, "interpolation": 2}]}, "crop_x": {"Points": [{"co": {"Y": 0, "X": 1}, "interpolation": 2}]}, "start": 0, "scale": 1, "shear_y": {"Points": [{"co": {"Y": 0, "X": 1}, "interpolation": 2}]}, "display": 0, "volume": {"Points": [{"co": {"Y": 1, "X": 1}, "interpolation": 2}]}, "channel_mapping": {"Points": [{"co": {"Y": -1, "X": 1}, "interpolation": 2}]}, "anchor": 0, "duration": 15.0, "perspective_c3_y": {"Points": [{"co": {"Y": -1, "X": 1}, "interpolation": 2}]}, "shear_x": {"Points": [{"co": {"Y": 0, "X": 1}, "interpolation": 2}]}, "perspective_c4_x": {"Points": [{"co": {"Y": -1, "X": 1}, "interpolation": 2}]}, "location_y": {"Points": [{"co": {"Y": 0, "X": 1}, "interpolation": 2}]}, "scale_x": {"Points": [{"co": {"Y": 1, "X": 1}, "interpolation": 2}]}, "layer": 2, "perspective_c2_y": {"Points": [{"co": {"Y": -1, "X": 1}, "interpolation": 2}]}, "perspective_c1_x": {"Points": [{"co": {"Y": -1, "X": 1}, "interpolation": 2}]}, "perspective_c4_y": {"Points": [{"co": {"Y": -1, "X": 1}, "interpolation": 2}]}, "reader": {"audio_bit_rate": 0, "has_single_image": false, "vcodec": "h264", "has_video": true, "type": "FFmpegReader", "video_length": "375", "audio_timebase": {"den": 1, "num": 1}, "path": "/home/robsen/Dropbox/Workdir/Repo/SuesseRache-HH-Taxi/arrow.mp4", "width": 1920, "has_audio": false, "video_bit_rate": 83079, "channel_layout": 4, "height": 1080, "display_ratio": {"den": 9, "num": 16}, "interlaced_frame": false, "duration": 15.0, "sample_rate": 0, "pixel_format": 0, "video_timebase": {"den": 12800, "num": 1}, "file_size": "155774", "top_field_first": true, "pixel_ratio": {"den": 1, "num": 1}, "acodec": "", "audio_stream_index": -1, "video_stream_index": 0, "channels": 0, "fps": {"den": 1, "num": 25}}, "channel_filter": {"Points": [{"co": {"Y": -1, "X": 1}, "interpolation": 2}]}, "file_id": "X22V56NF57", "time": {"Points": [{"co": {"Y": 1, "X": 1}, "interpolation": 2}]}}, "value": {"alpha": {"Points": [{"co": {"Y": 1, "X": 1}, "interpolation": 2}, {"handle_right": {"Y": 0, "X": 0.5}, "co": {"Y": 0, "X": 1}, "handle_left": {"Y": 1, "X": 0.5}, "handle_type": 0, "interpolation": 0}, {"handle_right": {"Y": 0, "X": 0.5}, "co": {"Y": 1, "X": 73}, "handle_left": {"Y": 1, "X": 0.5}, "handle_type": 0, "interpolation": 0}]}, "rotation": {"Points": [{"co": {"Y": 0, "X": 1}, "interpolation": 2}]}, "scale_y": {"Points": [{"co": {"Y": 1, "X": 1}, "interpolation": 2}]}, "crop_y": {"Points": [{"co": {"Y": 0, "X": 1}, "interpolation": 2}]}, "crop_width": {"Points": [{"co": {"Y": -1, "X": 1}, "interpolation": 2}]}, "end": 15, "perspective_c3_x": {"Points": [{"co": {"Y": -1, "X": 1}, "interpolation": 2}]}, "position": 53.075, "id": "PJWPMFXKV3", "wave_color": {"green": {"Points": [{"handle_right": {"Y": 0, "X": 0.5}, "co": {"Y": 123, "X": 1}, "handle_left": {"Y": 1, "X": 0.5}, "handle_type": 0, "interpolation": 0}]}, "blue": {"Points": [{"handle_right": {"Y": 0, "X": 0.5}, "co": {"Y": 255, "X": 1}, "handle_left": {"Y": 1, "X": 0.5}, "handle_type": 0, "interpolation": 0}]}, "alpha": {"Points": [{"handle_right": {"Y": 0, "X": 0.5}, "co": {"Y": 255, "X": 1}, "handle_left": {"Y": 1, "X": 0.5}, "handle_type": 0, "interpolation": 0}]}, "red": {"Points": [{"handle_right": {"Y": 0, "X": 0.5}, "co": {"Y": 0, "X": 1}, "handle_left": {"Y": 1, "X": 0.5}, "handle_type": 0, "interpolation": 0}]}}, "has_video": {"Points": [{"co": {"Y": -1, "X": 1}, "interpolation": 2}]}, "has_audio": {"Points": [{"co": {"Y": -1, "X": 1}, "interpolation": 2}]}, "effects": [], "location_x": {"Points": [{"co": {"Y": 0, "X": 1}, "interpolation": 2}]}, "waveform": false, "title": "arrow.mp4", "image": "/home/robsen/.openshot_qt/thumbnail/X22V56NF57.png", "gravity": 4, "scale_x": {"Points": [{"co": {"Y": 1, "X": 1}, "interpolation": 2}]}, "perspective_c1_y": {"Points": [{"co": {"Y": -1, "X": 1}, "interpolation": 2}]}, "crop_height": {"Points": [{"co": {"Y": -1, "X": 1}, "interpolation": 2}]}, "crop_x": {"Points": [{"co": {"Y": 0, "X": 1}, "interpolation": 2}]}, "start": 0, "scale": 1, "shear_y": {"Points": [{"co": {"Y": 0, "X": 1}, "interpolation": 2}]}, "display": 0, "volume": {"Points": [{"co": {"Y": 1, "X": 1}, "interpolation": 2}]}, "channel_mapping": {"Points": [{"co": {"Y": -1, "X": 1}, "interpolation": 2}]}, "anchor": 0, "duration": 15.0, "perspective_c3_y": {"Points": [{"co": {"Y": -1, "X": 1}, "interpolation": 2}]}, "shear_x": {"Points": [{"co": {"Y": 0, "X": 1}, "interpolation": 2}]}, "perspective_c4_x": {"Points": [{"co": {"Y": -1, "X": 1}, "interpolation": 2}]}, "location_y": {"Points": [{"co": {"Y": 0, "X": 1}, "interpolation": 2}]}, "perspective_c2_x": {"Points": [{"co": {"Y": -1, "X": 1}, "interpolation": 2}]}, "layer": 2, "perspective_c2_y": {"Points": [{"co": {"Y": -1, "X": 1}, "interpolation": 2}]}, "perspective_c1_x": {"Points": [{"co": {"Y": -1, "X": 1}, "interpolation": 2}]}, "perspective_c4_y": {"Points": [{"co": {"Y": -1, "X": 1}, "interpolation": 2}]}, "channel_filter": {"Points": [{"co": {"Y": -1, "X": 1}, "interpolation": 2}]}, "time": {"Points": [{"co": {"Y": 1, "X": 1}, "interpolation": 2}]}, "file_id": "X22V56NF57"}, "key": ["clips", {"id": "PJWPMFXKV3"}], "partial": false, "type": "update"}]}, "key": ["history"], "partial": false, "type": "update"}, {"old_values": null, "value": {"redo": [], "undo": [{"old_values": [{"number": 0, "label": "Spur 1", "id": "UBOPYJIV1S", "y": 0}, {"number": 1, "label": "Spur 2", "id": "SHY16ICR2M", "y": 0}], "value": {"number": 2, "y": 0, "label": "", "id": "E44ZNJSI3Z", "lock": false}, "key": ["layers"], "partial": false, "type": "insert"}, {"old_values": [], "value": {"audio_bit_rate": 0, "has_single_image": false, "media_type": "video", "id": "LGW3TZJV4Q", "type": "FFmpegReader", "has_video": true, "video_length": "375", "audio_timebase": {"den": 1, "num": 1}, "path": "/home/robsen/Dropbox/Workdir/Repo/SuesseRache-HH-Taxi/taxi_start.mp4", "width": 1920, "has_audio": false, "video_bit_rate": 147692, "channel_layout": 4, "height": 1080, "vcodec": "h264", "display_ratio": {"den": 9, "num": 16}, "interlaced_frame": false, "duration": 15, "sample_rate": 0, "pixel_format": 0, "video_timebase": {"den": 12800, "num": 1}, "file_size": "276924", "top_field_first": true, "pixel_ratio": {"den": 1, "num": 1}, "acodec": "", "audio_stream_index": -1, "video_stream_index": 0, "channels": 0, "fps": {"den": 1, "num": 25}}, "key": ["files"], "partial": false, "type": "insert"}, {"old_values": [{"audio_bit_rate": 0, "has_single_image": false, "media_type": "video", "id": "LGW3TZJV4Q", "type": "FFmpegReader", "has_video": true, "video_length": "375", "audio_timebase": {"den": 1, "num": 1}, "path": "/home/robsen/Dropbox/Workdir/Repo/SuesseRache-HH-Taxi/taxi_start.mp4", "width": 1920, "has_audio": false, "video_bit_rate": 147692, "channel_layout": 4, "height": 1080, "vcodec": "h264", "display_ratio": {"den": 9, "num": 16}, "interlaced_frame": false, "duration": 15, "sample_rate": 0, "pixel_format": 0, "video_timebase": {"den": 12800, "num": 1}, "file_size": "276924", "top_field_first": true, "pixel_ratio": {"den": 1, "num": 1}, "acodec": "", "audio_stream_index": -1, "video_stream_index": 0, "channels": 0, "fps": {"den": 1, "num": 25}}], "value": {"audio_bit_rate": 189375, "has_single_image": false, "media_type": "video", "id": "Z3LOYBY1PL", "type": "FFmpegReader", "has_video": true, "video_length": "937", "audio_timebase": {"den": 48000, "num": 1}, "path": "/home/robsen/Dropbox/Workdir/Repo/SuesseRache-HH-Taxi/TE_SR_Taxi.mp4", "width": 1920, "has_audio": true, "video_bit_rate": 32091692, "channel_layout": 3, "height": 1080, "vcodec": "h264", "display_ratio": {"den": 9, "num": 16}, "interlaced_frame": false, "duration": 31.317333221435547, "sample_rate": 48000, "pixel_format": 0, "video_timebase": {"den": 29970, "num": 1}, "file_size": "125628279", "top_field_first": true, "pixel_ratio": {"den": 1, "num": 1}, "acodec": "aac", "audio_stream_index": 1, "video_stream_index": 0, "channels": 2, "fps": {"den": 100, "num": 2997}}, "key": ["files"], "partial": false, "type": "insert"}, {"old_values": [{"audio_bit_rate": 0, "has_single_image": false, "media_type": "video", "id": "LGW3TZJV4Q", "type": "FFmpegReader", "has_video": true, "video_length": "375", "audio_timebase": {"den": 1, "num": 1}, "path": "/home/robsen/Dropbox/Workdir/Repo/SuesseRache-HH-Taxi/taxi_start.mp4", "width": 1920, "has_audio": false, "video_bit_rate": 147692, "channel_layout": 4, "height": 1080, "vcodec": "h264", "display_ratio": {"den": 9, "num": 16}, "interlaced_frame": false, "duration": 15, "sample_rate": 0, "pixel_format": 0, "video_timebase": {"den": 12800, "num": 1}, "file_size": "276924", "top_field_first": true, "pixel_ratio": {"den": 1, "num": 1}, "acodec": "", "audio_stream_index": -1, "video_stream_index": 0, "channels": 0, "fps": {"den": 1, "num": 25}}, {"audio_bit_rate": 189375, "has_single_image": false, "media_type": "video", "id": "Z3LOYBY1PL", "type": "FFmpegReader", "has_video": true, "video_length": "937", "audio_timebase": {"den": 48000, "num": 1}, "path": "/home/robsen/Dropbox/Workdir/Repo/SuesseRache-HH-Taxi/TE_SR_Taxi.mp4", "width": 1920, "has_audio": true, "video_bit_rate": 32091692, "channel_layout": 3, "height": 1080, "vcodec": "h264", "display_ratio": {"den": 9, "num": 16}, "interlaced_frame": false, "duration": 31.317333221435547, "sample_rate": 48000, "pixel_format": 0, "video_timebase": {"den": 29970, "num": 1}, "file_size": "125628279", "top_field_first": true, "pixel_ratio": {"den": 1, "num": 1}, "acodec": "aac", "audio_stream_index": 1, "video_stream_index": 0, "channels": 2, "fps": {"den": 100, "num": 2997}}], "value": {"audio_bit_rate": 0, "has_single_image": false, "media_type": "video", "id": "X22V56NF57", "type": "FFmpegReader", "has_video": true, "video_length": "375", "audio_timebase": {"den": 1, "num": 1}, "path": "/home/robsen/Dropbox/Workdir/Repo/SuesseRache-HH-Taxi/arrow.mp4", "width": 1920, "has_audio": false, "video_bit_rate": 83079, "channel_layout": 4, "height": 1080, "vcodec": "h264", "display_ratio": {"den": 9, "num": 16}, "interlaced_frame": false, "duration": 15, "sample_rate": 0, "pixel_format": 0, "video_timebase": {"den": 12800, "num": 1}, "file_size": "155774", "top_field_first": true, "pixel_ratio": {"den": 1, "num": 1}, "acodec": "", "audio_stream_index": -1, "video_stream_index": 0, "channels": 0, "fps": {"den": 1, "num": 25}}, "key": ["files"], "partial": false, "type": "insert"}, {"old_values": [], "value": {"alpha": {"Points": [{"co": {"Y": 1, "X": 1}, "interpolation": 2}, {"handle_right": {"Y": 0, "X": 0.5}, "co": {"Y": 1, "X": 289}, "handle_left": {"Y": 1, "X": 0.5}, "handle_type": 0, "interpolation": 0}, {"handle_right": {"Y": 0, "X": 0.5}, "co": {"Y": 0, "X": 361}, "handle_left": {"Y": 1, "X": 0.5}, "handle_type": 0, "interpolation": 0}, {"handle_right": {"Y": 0, "X": 0.5}, "co": {"Y": 0, "X": 1}, "handle_left": {"Y": 1, "X": 0.5}, "handle_type": 0, "interpolation": 0}, {"handle_right": {"Y": 0, "X": 0.5}, "co": {"Y": 1, "X": 73}, "handle_left": {"Y": 1, "X": 0.5}, "handle_type": 0, "interpolation": 0}]}, "rotation": {"Points": [{"co": {"Y": 0, "X": 1}, "interpolation": 2}]}, "scale_y": {"Points": [{"co": {"Y": 1, "X": 1}, "interpolation": 2}]}, "crop_y": {"Points": [{"co": {"Y": 0, "X": 1}, "interpolation": 2}]}, "perspective_c3_x": {"Points": [{"co": {"Y": -1, "X": 1}, "interpolation": 2}]}, "end": 15, "crop_width": {"Points": [{"co": {"Y": -1, "X": 1}, "interpolation": 2}]}, "position": 8.8, "id": "0AEDFYGQ7J", "wave_color": {"green": {"Points": [{"handle_right": {"Y": 0, "X": 0.5}, "co": {"Y": 123, "X": 1}, "handle_left": {"Y": 1, "X": 0.5}, "handle_type": 0, "interpolation": 0}]}, "blue": {"Points": [{"handle_right": {"Y": 0, "X": 0.5}, "co": {"Y": 255, "X": 1}, "handle_left": {"Y": 1, "X": 0.5}, "handle_type": 0, "interpolation": 0}]}, "alpha": {"Points": [{"handle_right": {"Y": 0, "X": 0.5}, "co": {"Y": 255, "X": 1}, "handle_left": {"Y": 1, "X": 0.5}, "handle_type": 0, "interpolation": 0}]}, "red": {"Points": [{"handle_right": {"Y": 0, "X": 0.5}, "co": {"Y": 0, "X": 1}, "handle_left": {"Y": 1, "X": 0.5}, "handle_type": 0, "interpolation": 0}]}}, "has_video": {"Points": [{"co": {"Y": -1, "X": 1}, "interpolation": 2}]}, "has_audio": {"Points": [{"co": {"Y": -1, "X": 1}, "interpolation": 2}]}, "effects": [], "location_x": {"Points": [{"co": {"Y": 0, "X": 1}, "interpolation": 2}]}, "waveform": false, "title": "taxi_start.mp4", "image": "/home/robsen/.openshot_qt/thumbnail/LGW3TZJV4Q.png", "gravity": 4, "scale_x": {"Points": [{"co": {"Y": 1, "X": 1}, "interpolation": 2}]}, "perspective_c1_y": {"Points": [{"co": {"Y": -1, "X": 1}, "interpolation": 2}]}, "crop_height": {"Points": [{"co": {"Y": -1, "X": 1}, "interpolation": 2}]}, "crop_x": {"Points": [{"co": {"Y": 0, "X": 1}, "interpolation": 2}]}, "start": 0, "scale": 1, "shear_y": {"Points": [{"co": {"Y": 0, "X": 1}, "interpolation": 2}]}, "display": 0, "volume": {"Points": [{"co": {"Y": 1, "X": 1}, "interpolation": 2}]}, "channel_mapping": {"Points": [{"co": {"Y": -1, "X": 1}, "interpolation": 2}]}, "anchor": 0, "duration": 15.0, "perspective_c3_y": {"Points": [{"co": {"Y": -1, "X": 1}, "interpolation": 2}]}, "shear_x": {"Points": [{"co": {"Y": 0, "X": 1}, "interpolation": 2}]}, "perspective_c4_x": {"Points": [{"co": {"Y": -1, "X": 1}, "interpolation": 2}]}, "location_y": {"Points": [{"co": {"Y": 0, "X": 1}, "interpolation": 2}]}, "perspective_c2_x": {"Points": [{"co": {"Y": -1, "X": 1}, "interpolation": 2}]}, "layer": 0, "perspective_c2_y": {"Points": [{"co": {"Y": -1, "X": 1}, "interpolation": 2}]}, "perspective_c1_x": {"Points": [{"co": {"Y": -1, "X": 1}, "interpolation": 2}]}, "perspective_c4_y": {"Points": [{"co": {"Y": -1, "X": 1}, "interpolation": 2}]}, "reader": {"audio_bit_rate": 0, "has_single_image": false, "has_video": true, "type": "FFmpegReader", "video_length": "375", "audio_timebase": {"den": 1, "num": 1}, "path": "/home/robsen/Dropbox/Workdir/Repo/SuesseRache-HH-Taxi/taxi_start.mp4", "width": 1920, "has_audio": false, "video_bit_rate": 147692, "channel_layout": 4, "height": 1080, "display_ratio": {"den": 9, "num": 16}, "interlaced_frame": false, "video_timebase": {"den": 12800, "num": 1}, "duration": 15.0, "sample_rate": 0, "pixel_format": 0, "fps": {"den": 1, "num": 25}, "file_size": "276924", "top_field_first": true, "pixel_ratio": {"den": 1, "num": 1}, "acodec": "", "audio_stream_index": -1, "video_stream_index": 0, "channels": 0, "vcodec": "h264"}, "channel_filter": {"Points": [{"co": {"Y": -1, "X": 1}, "interpolation": 2}]}, "file_id": "LGW3TZJV4Q", "time": {"Points": [{"co": {"Y": 1, "X": 1}, "interpolation": 2}]}}, "key": ["clips"], "partial": false, "type": "insert"}, {"old_values": null, "value": {"id": "0AEDFYGQ7J", "start": 0, "end": 15, "position": 8.8, "layer": 0, "image": "/home/robsen/.openshot_qt/thumbnail/LGW3TZJV4Q.png"}, "key": ["clips", {"id": "0AEDFYGQ7J"}], "partial": false, "type": "update"}, {"old_values": null, "value": {"id": "0AEDFYGQ7J", "start": 0, "end": 15, "position": 8.8, "layer": 0, "image": "/home/robsen/.openshot_qt/thumbnail/LGW3TZJV4Q.png"}, "key": ["clips", {"id": "0AEDFYGQ7J"}], "partial": false, "type": "update"}, {"old_values": [{"alpha": {"Points": [{"co": {"Y": 1, "X": 1}, "interpolation": 2}]}, "rotation": {"Points": [{"co": {"Y": 0, "X": 1}, "interpolation": 2}]}, "scale_y": {"Points": [{"co": {"Y": 1, "X": 1}, "interpolation": 2}]}, "crop_y": {"Points": [{"co": {"Y": 0, "X": 1}, "interpolation": 2}]}, "perspective_c3_x": {"Points": [{"co": {"Y": -1, "X": 1}, "interpolation": 2}]}, "end": 15, "crop_width": {"Points": [{"co": {"Y": -1, "X": 1}, "interpolation": 2}]}, "position": 8.8, "id": "0AEDFYGQ7J", "wave_color": {"green": {"Points": [{"handle_right": {"Y": 0, "X": 0.5}, "co": {"Y": 123, "X": 1}, "handle_left": {"Y": 1, "X": 0.5}, "handle_type": 0, "interpolation": 0}]}, "blue": {"Points": [{"handle_right": {"Y": 0, "X": 0.5}, "co": {"Y": 255, "X": 1}, "handle_left": {"Y": 1, "X": 0.5}, "handle_type": 0, "interpolation": 0}]}, "alpha": {"Points": [{"handle_right": {"Y": 0, "X": 0.5}, "co": {"Y": 255, "X": 1}, "handle_left": {"Y": 1, "X": 0.5}, "handle_type": 0, "interpolation": 0}]}, "red": {"Points": [{"handle_right": {"Y": 0, "X": 0.5}, "co": {"Y": 0, "X": 1}, "handle_left": {"Y": 1, "X": 0.5}, "handle_type": 0, "interpolation": 0}]}}, "has_video": {"Points": [{"co": {"Y": -1, "X": 1}, "interpolation": 2}]}, "has_audio": {"Points": [{"co": {"Y": -1, "X": 1}, "interpolation": 2}]}, "effects": [], "location_x": {"Points": [{"co": {"Y": 0, "X": 1}, "interpolation": 2}]}, "waveform": false, "title": "taxi_start.mp4", "image": "/home/robsen/.openshot_qt/thumbnail/LGW3TZJV4Q.png", "gravity": 4, "perspective_c2_x": {"Points": [{"co": {"Y": -1, "X": 1}, "interpolation": 2}]}, "perspective_c1_y": {"Points": [{"co": {"Y": -1, "X": 1}, "interpolation": 2}]}, "crop_height": {"Points": [{"co": {"Y": -1, "X": 1}, "interpolation": 2}]}, "crop_x": {"Points": [{"co": {"Y": 0, "X": 1}, "interpolation": 2}]}, "start": 0, "scale": 1, "shear_y": {"Points": [{"co": {"Y": 0, "X": 1}, "interpolation": 2}]}, "display": 0, "volume": {"Points": [{"co": {"Y": 1, "X": 1}, "interpolation": 2}]}, "channel_mapping": {"Points": [{"co": {"Y": -1, "X": 1}, "interpolation": 2}]}, "anchor": 0, "duration": 15.0, "perspective_c3_y": {"Points": [{"co": {"Y": -1, "X": 1}, "interpolation": 2}]}, "shear_x": {"Points": [{"co": {"Y": 0, "X": 1}, "interpolation": 2}]}, "perspective_c4_x": {"Points": [{"co": {"Y": -1, "X": 1}, "interpolation": 2}]}, "location_y": {"Points": [{"co": {"Y": 0, "X": 1}, "interpolation": 2}]}, "scale_x": {"Points": [{"co": {"Y": 1, "X": 1}, "interpolation": 2}]}, "layer": 0, "perspective_c2_y": {"Points": [{"co": {"Y": -1, "X": 1}, "interpolation": 2}]}, "perspective_c1_x": {"Points": [{"co": {"Y": -1, "X": 1}, "interpolation": 2}]}, "perspective_c4_y": {"Points": [{"co": {"Y": -1, "X": 1}, "interpolation": 2}]}, "reader": {"audio_bit_rate": 0, "has_single_image": false, "vcodec": "h264", "has_video": true, "type": "FFmpegReader", "video_length": "375", "audio_timebase": {"den": 1, "num": 1}, "path": "/home/robsen/Dropbox/Workdir/Repo/SuesseRache-HH-Taxi/taxi_start.mp4", "width": 1920, "has_audio": false, "video_bit_rate": 147692, "channel_layout": 4, "height": 1080, "display_ratio": {"den": 9, "num": 16}, "interlaced_frame": false, "duration": 15.0, "sample_rate": 0, "pixel_format": 0, "video_timebase": {"den": 12800, "num": 1}, "file_size": "276924", "top_field_first": true, "pixel_ratio": {"den": 1, "num": 1}, "acodec": "", "audio_stream_index": -1, "video_stream_index": 0, "channels": 0, "fps": {"den": 1, "num": 25}}, "channel_filter": {"Points": [{"co": {"Y": -1, "X": 1}, "interpolation": 2}]}, "file_id": "LGW3TZJV4Q", "time": {"Points": [{"co": {"Y": 1, "X": 1}, "interpolation": 2}]}}], "value": {"alpha": {"Points": [{"co": {"Y": 1, "X": 1}, "interpolation": 2}]}, "rotation": {"Points": [{"co": {"Y": 0, "X": 1}, "interpolation": 2}]}, "scale_y": {"Points": [{"co": {"Y": 1, "X": 1}, "interpolation": 2}]}, "crop_y": {"Points": [{"co": {"Y": 0, "X": 1}, "interpolation": 2}]}, "perspective_c3_x": {"Points": [{"co": {"Y": -1, "X": 1}, "interpolation": 2}]}, "end": 31.317333221435547, "crop_width": {"Points": [{"co": {"Y": -1, "X": 1}, "interpolation": 2}]}, "position": 21.76, "id": "627XQDJ3EP", "wave_color": {"green": {"Points": [{"handle_right": {"Y": 0, "X": 0.5}, "co": {"Y": 123, "X": 1}, "handle_left": {"Y": 1, "X": 0.5}, "handle_type": 0, "interpolation": 0}]}, "blue": {"Points": [{"handle_right": {"Y": 0, "X": 0.5}, "co": {"Y": 255, "X": 1}, "handle_left": {"Y": 1, "X": 0.5}, "handle_type": 0, "interpolation": 0}]}, "alpha": {"Points": [{"handle_right": {"Y": 0, "X": 0.5}, "co": {"Y": 255, "X": 1}, "handle_left": {"Y": 1, "X": 0.5}, "handle_type": 0, "interpolation": 0}]}, "red": {"Points": [{"handle_right": {"Y": 0, "X": 0.5}, "co": {"Y": 0, "X": 1}, "handle_left": {"Y": 1, "X": 0.5}, "handle_type": 0, "interpolation": 0}]}}, "has_video": {"Points": [{"co": {"Y": -1, "X": 1}, "interpolation": 2}]}, "has_audio": {"Points": [{"co": {"Y": -1, "X": 1}, "interpolation": 2}]}, "effects": [], "location_x": {"Points": [{"co": {"Y": 0, "X": 1}, "interpolation": 2}]}, "waveform": false, "title": "TE_SR_Taxi.mp4", "image": "/home/robsen/.openshot_qt/thumbnail/Z3LOYBY1PL.png", "gravity": 4, "scale_x": {"Points": [{"co": {"Y": 1, "X": 1}, "interpolation": 2}]}, "perspective_c1_y": {"Points": [{"co": {"Y": -1, "X": 1}, "interpolation": 2}]}, "crop_height": {"Points": [{"co": {"Y": -1, "X": 1}, "interpolation": 2}]}, "crop_x": {"Points": [{"co": {"Y": 0, "X": 1}, "interpolation": 2}]}, "start": 0, "scale": 1, "shear_y": {"Points": [{"co": {"Y": 0, "X": 1}, "interpolation": 2}]}, "display": 0, "volume": {"Points": [{"co": {"Y": 1, "X": 1}, "interpolation": 2}]}, "channel_mapping": {"Points": [{"co": {"Y": -1, "X": 1}, "interpolation": 2}]}, "anchor": 0, "duration": 31.317333221435547, "perspective_c3_y": {"Points": [{"co": {"Y": -1, "X": 1}, "interpolation": 2}]}, "shear_x": {"Points": [{"co": {"Y": 0, "X": 1}, "interpolation": 2}]}, "perspective_c4_x": {"Points": [{"co": {"Y": -1, "X": 1}, "interpolation": 2}]}, "location_y": {"Points": [{"co": {"Y": 0, "X": 1}, "interpolation": 2}]}, "perspective_c2_x": {"Points": [{"co": {"Y": -1, "X": 1}, "interpolation": 2}]}, "layer": 1, "perspective_c2_y": {"Points": [{"co": {"Y": -1, "X": 1}, "interpolation": 2}]}, "perspective_c1_x": {"Points": [{"co": {"Y": -1, "X": 1}, "interpolation": 2}]}, "perspective_c4_y": {"Points": [{"co": {"Y": -1, "X": 1}, "interpolation": 2}]}, "reader": {"audio_bit_rate": 189375, "has_single_image": false, "has_video": true, "type": "FFmpegReader", "video_length": "937", "audio_timebase": {"den": 48000, "num": 1}, "path": "/home/robsen/Dropbox/Workdir/Repo/SuesseRache-HH-Taxi/TE_SR_Taxi.mp4", "width": 1920, "has_audio": true, "video_bit_rate": 32091692, "channel_layout": 3, "height": 1080, "display_ratio": {"den": 9, "num": 16}, "interlaced_frame": false, "video_timebase": {"den": 29970, "num": 1}, "duration": 31.317333221435547, "sample_rate": 48000, "pixel_format": 0, "fps": {"den": 100, "num": 2997}, "file_size": "125628279", "top_field_first": true, "pixel_ratio": {"den": 1, "num": 1}, "acodec": "aac", "audio_stream_index": 1, "video_stream_index": 0, "channels": 2, "vcodec": "h264"}, "channel_filter": {"Points": [{"co": {"Y": -1, "X": 1}, "interpolation": 2}]}, "file_id": "Z3LOYBY1PL", "time": {"Points": [{"co": {"Y": 1, "X": 1}, "interpolation": 2}]}}, "key": ["clips"], "partial": false, "type": "insert"}, {"old_values": {"alpha": {"Points": [{"co": {"Y": 1, "X": 1}, "interpolation": 2}]}, "rotation": {"Points": [{"co": {"Y": 0, "X": 1}, "interpolation": 2}]}, "scale_y": {"Points": [{"co": {"Y": 1, "X": 1}, "interpolation": 2}]}, "crop_y": {"Points": [{"co": {"Y": 0, "X": 1}, "interpolation": 2}]}, "perspective_c3_x": {"Points": [{"co": {"Y": -1, "X": 1}, "interpolation": 2}]}, "end": 31.317333221435547, "crop_width": {"Points": [{"co": {"Y": -1, "X": 1}, "interpolation": 2}]}, "position": 18.88, "id": "627XQDJ3EP", "wave_color": {"green": {"Points": [{"handle_right": {"Y": 0, "X": 0.5}, "co": {"Y": 123, "X": 1}, "handle_left": {"Y": 1, "X": 0.5}, "handle_type": 0, "interpolation": 0}]}, "blue": {"Points": [{"handle_right": {"Y": 0, "X": 0.5}, "co": {"Y": 255, "X": 1}, "handle_left": {"Y": 1, "X": 0.5}, "handle_type": 0, "interpolation": 0}]}, "alpha": {"Points": [{"handle_right": {"Y": 0, "X": 0.5}, "co": {"Y": 255, "X": 1}, "handle_left": {"Y": 1, "X": 0.5}, "handle_type": 0, "interpolation": 0}]}, "red": {"Points": [{"handle_right": {"Y": 0, "X": 0.5}, "co": {"Y": 0, "X": 1}, "handle_left": {"Y": 1, "X": 0.5}, "handle_type": 0, "interpolation": 0}]}}, "has_video": {"Points": [{"co": {"Y": -1, "X": 1}, "interpolation": 2}]}, "has_audio": {"Points": [{"co": {"Y": -1, "X": 1}, "interpolation": 2}]}, "effects": [], "location_x": {"Points": [{"co": {"Y": 0, "X": 1}, "interpolation": 2}]}, "waveform": false, "title": "TE_SR_Taxi.mp4", "image": "/home/robsen/.openshot_qt/thumbnail/Z3LOYBY1PL.png", "gravity": 4, "scale_x": {"Points": [{"co": {"Y": 1, "X": 1}, "interpolation": 2}]}, "perspective_c1_y": {"Points": [{"co": {"Y": -1, "X": 1}, "interpolation": 2}]}, "crop_height": {"Points": [{"co": {"Y": -1, "X": 1}, "interpolation": 2}]}, "crop_x": {"Points": [{"co": {"Y": 0, "X": 1}, "interpolation": 2}]}, "start": 0, "scale": 1, "shear_y": {"Points": [{"co": {"Y": 0, "X": 1}, "interpolation": 2}]}, "display": 0, "volume": {"Points": [{"co": {"Y": 1, "X": 1}, "interpolation": 2}]}, "channel_mapping": {"Points": [{"co": {"Y": -1, "X": 1}, "interpolation": 2}]}, "anchor": 0, "duration": 31.317333221435547, "perspective_c3_y": {"Points": [{"co": {"Y": -1, "X": 1}, "interpolation": 2}]}, "shear_x": {"Points": [{"co": {"Y": 0, "X": 1}, "interpolation": 2}]}, "perspective_c4_x": {"Points": [{"co": {"Y": -1, "X": 1}, "interpolation": 2}]}, "location_y": {"Points": [{"co": {"Y": 0, "X": 1}, "interpolation": 2}]}, "perspective_c2_x": {"Points": [{"co": {"Y": -1, "X": 1}, "interpolation": 2}]}, "layer": 2, "perspective_c2_y": {"Points": [{"co": {"Y": -1, "X": 1}, "interpolation": 2}]}, "perspective_c1_x": {"Points": [{"co": {"Y": -1, "X": 1}, "interpolation": 2}]}, "perspective_c4_y": {"Points": [{"co": {"Y": -1, "X": 1}, "interpolation": 2}]}, "reader": {"audio_bit_rate": 189375, "has_single_image": false, "vcodec": "h264", "has_video": true, "type": "FFmpegReader", "video_length": "937", "audio_timebase": {"den": 48000, "num": 1}, "path": "/home/robsen/Dropbox/Workdir/Repo/SuesseRache-HH-Taxi/TE_SR_Taxi.mp4", "width": 1920, "has_audio": true, "video_bit_rate": 32091692, "channel_layout": 3, "height": 1080, "display_ratio": {"den": 9, "num": 16}, "interlaced_frame": false, "duration": 31.317333221435547, "sample_rate": 48000, "pixel_format": 0, "video_timebase": {"den": 29970, "num": 1}, "file_size": "125628279", "top_field_first": true, "pixel_ratio": {"den": 1, "num": 1}, "acodec": "aac", "audio_stream_index": 1, "video_stream_index": 0, "channels": 2, "fps": {"den": 100, "num": 2997}}, "channel_filter": {"Points": [{"co": {"Y": -1, "X": 1}, "interpolation": 2}]}, "file_id": "Z3LOYBY1PL", "time": {"Points": [{"co": {"Y": 1, "X": 1}, "interpolation": 2}]}}, "value": {"id": "627XQDJ3EP", "start": 0, "end": 31.317333221435547, "position": 21.76, "layer": 0, "image": "/home/robsen/.openshot_qt/thumbnail/Z3LOYBY1PL.png"}, "key": ["clips", {"id": "627XQDJ3EP"}], "partial": false, "type": "update"}, {"old_values": [], "value": {"start": 0, "type": "Mask", "contrast": {"Points": [{"co": {"Y": 3, "X": 1}, "interpolation": 2}]}, "layer": 0, "replace_image": false, "title": "Transition", "end": 2.039999999999999, "reader": {"audio_bit_rate": 0, "has_single_image": true, "has_video": true, "type": "QtImageReader", "video_length": "2592000", "audio_timebase": {"den": 1, "num": 1}, "path": "/usr/lib/python3/dist-packages/openshot_qt/transitions/common/fade.svg", "width": 720, "has_audio": false, "video_bit_rate": 0, "channel_layout": 4, "height": 576, "display_ratio": {"den": 4, "num": 5}, "interlaced_frame": false, "video_timebase": {"den": 30, "num": 1}, "duration": 86400, "sample_rate": 0, "pixel_format": -1, "fps": {"den": 1, "num": 30}, "file_size": "1658880", "top_field_first": true, "pixel_ratio": {"den": 1, "num": 1}, "acodec": "", "audio_stream_index": -1, "video_stream_index": -1, "channels": 0, "vcodec": ""}, "brightness": {"Points": [{"handle_right": {"Y": 0, "X": 0.5}, "co": {"Y": 1, "X": 1}, "handle_left": {"Y": 1, "X": 0.5}, "handle_type": 0, "interpolation": 0}, {"handle_right": {"Y": 0, "X": 0.5}, "co": {"Y": -1, "X": 50}, "handle_left": {"Y": 1, "X": 0.5}, "handle_type": 0, "interpolation": 0}]}, "id": "5NBS5H99MA", "position": 21.76}, "key": ["effects"], "partial": false, "type": "insert"}, {"old_values": {"alpha": {"Points": [{"co": {"Y": 1, "X": 1}, "interpolation": 2}]}, "rotation": {"Points": [{"co": {"Y": 0, "X": 1}, "interpolation": 2}]}, "scale_y": {"Points": [{"co": {"Y": 1, "X": 1}, "interpolation": 2}]}, "crop_y": {"Points": [{"co": {"Y": 0, "X": 1}, "interpolation": 2}]}, "perspective_c3_x": {"Points": [{"co": {"Y": -1, "X": 1}, "interpolation": 2}]}, "end": 31.317333221435547, "crop_width": {"Points": [{"co": {"Y": -1, "X": 1}, "interpolation": 2}]}, "position": 21.76, "id": "627XQDJ3EP", "wave_color": {"green": {"Points": [{"handle_right": {"Y": 0, "X": 0.5}, "co": {"Y": 123, "X": 1}, "handle_left": {"Y": 1, "X": 0.5}, "handle_type": 0, "interpolation": 0}]}, "blue": {"Points": [{"handle_right": {"Y": 0, "X": 0.5}, "co": {"Y": 255, "X": 1}, "handle_left": {"Y": 1, "X": 0.5}, "handle_type": 0, "interpolation": 0}]}, "alpha": {"Points": [{"handle_right": {"Y": 0, "X": 0.5}, "co": {"Y": 255, "X": 1}, "handle_left": {"Y": 1, "X": 0.5}, "handle_type": 0, "interpolation": 0}]}, "red": {"Points": [{"handle_right": {"Y": 0, "X": 0.5}, "co": {"Y": 0, "X": 1}, "handle_left": {"Y": 1, "X": 0.5}, "handle_type": 0, "interpolation": 0}]}}, "has_video": {"Points": [{"co": {"Y": -1, "X": 1}, "interpolation": 2}]}, "has_audio": {"Points": [{"co": {"Y": -1, "X": 1}, "interpolation": 2}]}, "effects": [], "location_x": {"Points": [{"co": {"Y": 0, "X": 1}, "interpolation": 2}]}, "waveform": false, "title": "TE_SR_Taxi.mp4", "image": "/home/robsen/.openshot_qt/thumbnail/Z3LOYBY1PL.png", "gravity": 4, "perspective_c2_x": {"Points": [{"co": {"Y": -1, "X": 1}, "interpolation": 2}]}, "perspective_c1_y": {"Points": [{"co": {"Y": -1, "X": 1}, "interpolation": 2}]}, "crop_height": {"Points": [{"co": {"Y": -1, "X": 1}, "interpolation": 2}]}, "crop_x": {"Points": [{"co": {"Y": 0, "X": 1}, "interpolation": 2}]}, "start": 0, "scale": 1, "shear_y": {"Points": [{"co": {"Y": 0, "X": 1}, "interpolation": 2}]}, "display": 0, "volume": {"Points": [{"co": {"Y": 1, "X": 1}, "interpolation": 2}]}, "channel_mapping": {"Points": [{"co": {"Y": -1, "X": 1}, "interpolation": 2}]}, "anchor": 0, "duration": 31.317333221435547, "perspective_c3_y": {"Points": [{"co": {"Y": -1, "X": 1}, "interpolation": 2}]}, "shear_x": {"Points": [{"co": {"Y": 0, "X": 1}, "interpolation": 2}]}, "perspective_c4_x": {"Points": [{"co": {"Y": -1, "X": 1}, "interpolation": 2}]}, "location_y": {"Points": [{"co": {"Y": 0, "X": 1}, "interpolation": 2}]}, "scale_x": {"Points": [{"co": {"Y": 1, "X": 1}, "interpolation": 2}]}, "layer": 0, "perspective_c2_y": {"Points": [{"co": {"Y": -1, "X": 1}, "interpolation": 2}]}, "perspective_c1_x": {"Points": [{"co": {"Y": -1, "X": 1}, "interpolation": 2}]}, "perspective_c4_y": {"Points": [{"co": {"Y": -1, "X": 1}, "interpolation": 2}]}, "reader": {"audio_bit_rate": 189375, "has_single_image": false, "vcodec": "h264", "has_video": true, "type": "FFmpegReader", "video_length": "937", "audio_timebase": {"den": 48000, "num": 1}, "path": "/home/robsen/Dropbox/Workdir/Repo/SuesseRache-HH-Taxi/TE_SR_Taxi.mp4", "width": 1920, "has_audio": true, "video_bit_rate": 32091692, "channel_layout": 3, "height": 1080, "display_ratio": {"den": 9, "num": 16}, "interlaced_frame": false, "duration": 31.317333221435547, "sample_rate": 48000, "pixel_format": 0, "video_timebase": {"den": 29970, "num": 1}, "file_size": "125628279", "top_field_first": true, "pixel_ratio": {"den": 1, "num": 1}, "acodec": "aac", "audio_stream_index": 1, "video_stream_index": 0, "channels": 2, "fps": {"den": 100, "num": 2997}}, "channel_filter": {"Points": [{"co": {"Y": -1, "X": 1}, "interpolation": 2}]}, "file_id": "Z3LOYBY1PL", "time": {"Points": [{"co": {"Y": 1, "X": 1}, "interpolation": 2}]}}, "value": {"id": "627XQDJ3EP", "start": 0, "end": 31.317333221435547, "position": 21.76, "layer": 1, "image": "/home/robsen/.openshot_qt/thumbnail/Z3LOYBY1PL.png"}, "key": ["clips", {"id": "627XQDJ3EP"}], "partial": false, "type": "update"}, {"old_values": [{"alpha": {"Points": [{"co": {"Y": 1, "X": 1}, "interpolation": 2}]}, "rotation": {"Points": [{"co": {"Y": 0, "X": 1}, "interpolation": 2}]}, "scale_y": {"Points": [{"co": {"Y": 1, "X": 1}, "interpolation": 2}]}, "crop_y": {"Points": [{"co": {"Y": 0, "X": 1}, "interpolation": 2}]}, "perspective_c3_x": {"Points": [{"co": {"Y": -1, "X": 1}, "interpolation": 2}]}, "end": 15, "crop_width": {"Points": [{"co": {"Y": -1, "X": 1}, "interpolation": 2}]}, "position": 8.8, "id": "0AEDFYGQ7J", "wave_color": {"green": {"Points": [{"handle_right": {"Y": 0, "X": 0.5}, "co": {"Y": 123, "X": 1}, "handle_left": {"Y": 1, "X": 0.5}, "handle_type": 0, "interpolation": 0}]}, "blue": {"Points": [{"handle_right": {"Y": 0, "X": 0.5}, "co": {"Y": 255, "X": 1}, "handle_left": {"Y": 1, "X": 0.5}, "handle_type": 0, "interpolation": 0}]}, "alpha": {"Points": [{"handle_right": {"Y": 0, "X": 0.5}, "co": {"Y": 255, "X": 1}, "handle_left": {"Y": 1, "X": 0.5}, "handle_type": 0, "interpolation": 0}]}, "red": {"Points": [{"handle_right": {"Y": 0, "X": 0.5}, "co": {"Y": 0, "X": 1}, "handle_left": {"Y": 1, "X": 0.5}, "handle_type": 0, "interpolation": 0}]}}, "has_video": {"Points": [{"co": {"Y": -1, "X": 1}, "interpolation": 2}]}, "has_audio": {"Points": [{"co": {"Y": -1, "X": 1}, "interpolation": 2}]}, "effects": [], "location_x": {"Points": [{"co": {"Y": 0, "X": 1}, "interpolation": 2}]}, "waveform": false, "title": "taxi_start.mp4", "image": "/home/robsen/.openshot_qt/thumbnail/LGW3TZJV4Q.png", "gravity": 4, "perspective_c2_x": {"Points": [{"co": {"Y": -1, "X": 1}, "interpolation": 2}]}, "perspective_c1_y": {"Points": [{"co": {"Y": -1, "X": 1}, "interpolation": 2}]}, "crop_height": {"Points": [{"co": {"Y": -1, "X": 1}, "interpolation": 2}]}, "crop_x": {"Points": [{"co": {"Y": 0, "X": 1}, "interpolation": 2}]}, "start": 0, "scale": 1, "shear_y": {"Points": [{"co": {"Y": 0, "X": 1}, "interpolation": 2}]}, "display": 0, "volume": {"Points": [{"co": {"Y": 1, "X": 1}, "interpolation": 2}]}, "channel_mapping": {"Points": [{"co": {"Y": -1, "X": 1}, "interpolation": 2}]}, "anchor": 0, "duration": 15.0, "perspective_c3_y": {"Points": [{"co": {"Y": -1, "X": 1}, "interpolation": 2}]}, "shear_x": {"Points": [{"co": {"Y": 0, "X": 1}, "interpolation": 2}]}, "perspective_c4_x": {"Points": [{"co": {"Y": -1, "X": 1}, "interpolation": 2}]}, "location_y": {"Points": [{"co": {"Y": 0, "X": 1}, "interpolation": 2}]}, "scale_x": {"Points": [{"co": {"Y": 1, "X": 1}, "interpolation": 2}]}, "layer": 0, "perspective_c2_y": {"Points": [{"co": {"Y": -1, "X": 1}, "interpolation": 2}]}, "perspective_c1_x": {"Points": [{"co": {"Y": -1, "X": 1}, "interpolation": 2}]}, "perspective_c4_y": {"Points": [{"co": {"Y": -1, "X": 1}, "interpolation": 2}]}, "reader": {"audio_bit_rate": 0, "has_single_image": false, "vcodec": "h264", "has_video": true, "type": "FFmpegReader", "video_length": "375", "audio_timebase": {"den": 1, "num": 1}, "path": "/home/robsen/Dropbox/Workdir/Repo/SuesseRache-HH-Taxi/taxi_start.mp4", "width": 1920, "has_audio": false, "video_bit_rate": 147692, "channel_layout": 4, "height": 1080, "display_ratio": {"den": 9, "num": 16}, "interlaced_frame": false, "duration": 15.0, "sample_rate": 0, "pixel_format": 0, "video_timebase": {"den": 12800, "num": 1}, "file_size": "276924", "top_field_first": true, "pixel_ratio": {"den": 1, "num": 1}, "acodec": "", "audio_stream_index": -1, "video_stream_index": 0, "channels": 0, "fps": {"den": 1, "num": 25}}, "channel_filter": {"Points": [{"co": {"Y": -1, "X": 1}, "interpolation": 2}]}, "file_id": "LGW3TZJV4Q", "time": {"Points": [{"co": {"Y": 1, "X": 1}, "interpolation": 2}]}}, {"alpha": {"Points": [{"co": {"Y": 1, "X": 1}, "interpolation": 2}]}, "rotation": {"Points": [{"co": {"Y": 0, "X": 1}, "interpolation": 2}]}, "scale_y": {"Points": [{"co": {"Y": 1, "X": 1}, "interpolation": 2}]}, "crop_y": {"Points": [{"co": {"Y": 0, "X": 1}, "interpolation": 2}]}, "perspective_c3_x": {"Points": [{"co": {"Y": -1, "X": 1}, "interpolation": 2}]}, "end": 31.317333221435547, "crop_width": {"Points": [{"co": {"Y": -1, "X": 1}, "interpolation": 2}]}, "position": 21.76, "id": "627XQDJ3EP", "wave_color": {"green": {"Points": [{"handle_right": {"Y": 0, "X": 0.5}, "co": {"Y": 123, "X": 1}, "handle_left": {"Y": 1, "X": 0.5}, "handle_type": 0, "interpolation": 0}]}, "blue": {"Points": [{"handle_right": {"Y": 0, "X": 0.5}, "co": {"Y": 255, "X": 1}, "handle_left": {"Y": 1, "X": 0.5}, "handle_type": 0, "interpolation": 0}]}, "alpha": {"Points": [{"handle_right": {"Y": 0, "X": 0.5}, "co": {"Y": 255, "X": 1}, "handle_left": {"Y": 1, "X": 0.5}, "handle_type": 0, "interpolation": 0}]}, "red": {"Points": [{"handle_right": {"Y": 0, "X": 0.5}, "co": {"Y": 0, "X": 1}, "handle_left": {"Y": 1, "X": 0.5}, "handle_type": 0, "interpolation": 0}]}}, "has_video": {"Points": [{"co": {"Y": -1, "X": 1}, "interpolation": 2}]}, "has_audio": {"Points": [{"co": {"Y": -1, "X": 1}, "interpolation": 2}]}, "effects": [], "location_x": {"Points": [{"co": {"Y": 0, "X": 1}, "interpolation": 2}]}, "waveform": false, "title": "TE_SR_Taxi.mp4", "image": "/home/robsen/.openshot_qt/thumbnail/Z3LOYBY1PL.png", "gravity": 4, "perspective_c2_x": {"Points": [{"co": {"Y": -1, "X": 1}, "interpolation": 2}]}, "perspective_c1_y": {"Points": [{"co": {"Y": -1, "X": 1}, "interpolation": 2}]}, "crop_height": {"Points": [{"co": {"Y": -1, "X": 1}, "interpolation": 2}]}, "crop_x": {"Points": [{"co": {"Y": 0, "X": 1}, "interpolation": 2}]}, "start": 0, "scale": 1, "shear_y": {"Points": [{"co": {"Y": 0, "X": 1}, "interpolation": 2}]}, "display": 0, "volume": {"Points": [{"co": {"Y": 1, "X": 1}, "interpolation": 2}]}, "channel_mapping": {"Points": [{"co": {"Y": -1, "X": 1}, "interpolation": 2}]}, "anchor": 0, "duration": 31.317333221435547, "perspective_c3_y": {"Points": [{"co": {"Y": -1, "X": 1}, "interpolation": 2}]}, "shear_x": {"Points": [{"co": {"Y": 0, "X": 1}, "interpolation": 2}]}, "perspective_c4_x": {"Points": [{"co": {"Y": -1, "X": 1}, "interpolation": 2}]}, "location_y": {"Points": [{"co": {"Y": 0, "X": 1}, "interpolation": 2}]}, "scale_x": {"Points": [{"co": {"Y": 1, "X": 1}, "interpolation": 2}]}, "layer": 1, "perspective_c2_y": {"Points": [{"co": {"Y": -1, "X": 1}, "interpolation": 2}]}, "perspective_c1_x": {"Points": [{"co": {"Y": -1, "X": 1}, "interpolation": 2}]}, "perspective_c4_y": {"Points": [{"co": {"Y": -1, "X": 1}, "interpolation": 2}]}, "reader": {"audio_bit_rate": 189375, "has_single_image": false, "vcodec": "h264", "has_video": true, "type": "FFmpegReader", "video_length": "937", "audio_timebase": {"den": 48000, "num": 1}, "path": "/home/robsen/Dropbox/Workdir/Repo/SuesseRache-HH-Taxi/TE_SR_Taxi.mp4", "width": 1920, "has_audio": true, "video_bit_rate": 32091692, "channel_layout": 3, "height": 1080, "display_ratio": {"den": 9, "num": 16}, "interlaced_frame": false, "duration": 31.317333221435547, "sample_rate": 48000, "pixel_format": 0, "video_timebase": {"den": 29970, "num": 1}, "file_size": "125628279", "top_field_first": true, "pixel_ratio": {"den": 1, "num": 1}, "acodec": "aac", "audio_stream_index": 1, "video_stream_index": 0, "channels": 2, "fps": {"den": 100, "num": 2997}}, "channel_filter": {"Points": [{"co": {"Y": -1, "X": 1}, "interpolation": 2}]}, "file_id": "Z3LOYBY1PL", "time": {"Points": [{"co": {"Y": 1, "X": 1}, "interpolation": 2}]}}], "value": {"alpha": {"Points": [{"co": {"Y": 1, "X": 1}, "interpolation": 2}, {"handle_right": {"Y": 0, "X": 0.5}, "co": {"Y": 0, "X": 1}, "handle_left": {"Y": 1, "X": 0.5}, "handle_type": 0, "interpolation": 0}, {"handle_right": {"Y": 0, "X": 0.5}, "co": {"Y": 1, "X": 73}, "handle_left": {"Y": 1, "X": 0.5}, "handle_type": 0, "interpolation": 0}]}, "rotation": {"Points": [{"co": {"Y": 0, "X": 1}, "interpolation": 2}]}, "scale_y": {"Points": [{"co": {"Y": 1, "X": 1}, "interpolation": 2}]}, "crop_y": {"Points": [{"co": {"Y": 0, "X": 1}, "interpolation": 2}]}, "perspective_c3_x": {"Points": [{"co": {"Y": -1, "X": 1}, "interpolation": 2}]}, "end": 15, "crop_width": {"Points": [{"co": {"Y": -1, "X": 1}, "interpolation": 2}]}, "position": 53.075, "id": "PJWPMFXKV3", "wave_color": {"green": {"Points": [{"handle_right": {"Y": 0, "X": 0.5}, "co": {"Y": 123, "X": 1}, "handle_left": {"Y": 1, "X": 0.5}, "handle_type": 0, "interpolation": 0}]}, "blue": {"Points": [{"handle_right": {"Y": 0, "X": 0.5}, "co": {"Y": 255, "X": 1}, "handle_left": {"Y": 1, "X": 0.5}, "handle_type": 0, "interpolation": 0}]}, "alpha": {"Points": [{"handle_right": {"Y": 0, "X": 0.5}, "co": {"Y": 255, "X": 1}, "handle_left": {"Y": 1, "X": 0.5}, "handle_type": 0, "interpolation": 0}]}, "red": {"Points": [{"handle_right": {"Y": 0, "X": 0.5}, "co": {"Y": 0, "X": 1}, "handle_left": {"Y": 1, "X": 0.5}, "handle_type": 0, "interpolation": 0}]}}, "has_video": {"Points": [{"co": {"Y": -1, "X": 1}, "interpolation": 2}]}, "has_audio": {"Points": [{"co": {"Y": -1, "X": 1}, "interpolation": 2}]}, "effects": [], "location_x": {"Points": [{"co": {"Y": 0, "X": 1}, "interpolation": 2}]}, "waveform": false, "title": "arrow.mp4", "image": "/home/robsen/.openshot_qt/thumbnail/X22V56NF57.png", "gravity": 4, "scale_x": {"Points": [{"co": {"Y": 1, "X": 1}, "interpolation": 2}]}, "perspective_c1_y": {"Points": [{"co": {"Y": -1, "X": 1}, "interpolation": 2}]}, "crop_height": {"Points": [{"co": {"Y": -1, "X": 1}, "interpolation": 2}]}, "crop_x": {"Points": [{"co": {"Y": 0, "X": 1}, "interpolation": 2}]}, "start": 0, "scale": 1, "shear_y": {"Points": [{"co": {"Y": 0, "X": 1}, "interpolation": 2}]}, "display": 0, "volume": {"Points": [{"co": {"Y": 1, "X": 1}, "interpolation": 2}]}, "channel_mapping": {"Points": [{"co": {"Y": -1, "X": 1}, "interpolation": 2}]}, "anchor": 0, "duration": 15.0, "perspective_c3_y": {"Points": [{"co": {"Y": -1, "X": 1}, "interpolation": 2}]}, "shear_x": {"Points": [{"co": {"Y": 0, "X": 1}, "interpolation": 2}]}, "perspective_c4_x": {"Points": [{"co": {"Y": -1, "X": 1}, "interpolation": 2}]}, "location_y": {"Points": [{"co": {"Y": 0, "X": 1}, "interpolation": 2}]}, "perspective_c2_x": {"Points": [{"co": {"Y": -1, "X": 1}, "interpolation": 2}]}, "layer": 2, "perspective_c2_y": {"Points": [{"co": {"Y": -1, "X": 1}, "interpolation": 2}]}, "perspective_c1_x": {"Points": [{"co": {"Y": -1, "X": 1}, "interpolation": 2}]}, "perspective_c4_y": {"Points": [{"co": {"Y": -1, "X": 1}, "interpolation": 2}]}, "reader": {"audio_bit_rate": 0, "has_single_image": false, "has_video": true, "type": "FFmpegReader", "video_length": "375", "audio_timebase": {"den": 1, "num": 1}, "path": "/home/robsen/Dropbox/Workdir/Repo/SuesseRache-HH-Taxi/arrow.mp4", "width": 1920, "has_audio": false, "video_bit_rate": 83079, "channel_layout": 4, "height": 1080, "display_ratio": {"den": 9, "num": 16}, "interlaced_frame": false, "video_timebase": {"den": 12800, "num": 1}, "duration": 15.0, "sample_rate": 0, "pixel_format": 0, "fps": {"den": 1, "num": 25}, "file_size": "155774", "top_field_first": true, "pixel_ratio": {"den": 1, "num": 1}, "acodec": "", "audio_stream_index": -1, "video_stream_index": 0, "channels": 0, "vcodec": "h264"}, "channel_filter": {"Points": [{"co": {"Y": -1, "X": 1}, "interpolation": 2}]}, "file_id": "X22V56NF57", "time": {"Points": [{"co": {"Y": 1, "X": 1}, "interpolation": 2}]}}, "key": ["clips"], "partial": false, "type": "insert"}, {"old_values": {"alpha": {"Points": [{"co": {"Y": 1, "X": 1}, "interpolation": 2}]}, "rotation": {"Points": [{"co": {"Y": 0, "X": 1}, "interpolation": 2}]}, "scale_y": {"Points": [{"co": {"Y": 1, "X": 1}, "interpolation": 2}]}, "crop_y": {"Points": [{"co": {"Y": 0, "X": 1}, "interpolation": 2}]}, "perspective_c3_x": {"Points": [{"co": {"Y": -1, "X": 1}, "interpolation": 2}]}, "end": 15.0, "crop_width": {"Points": [{"co": {"Y": -1, "X": 1}, "interpolation": 2}]}, "position": 62.88, "id": "PJWPMFXKV3", "wave_color": {"green": {"Points": [{"handle_right": {"Y": 0, "X": 0.5}, "co": {"Y": 123, "X": 1}, "handle_left": {"Y": 1, "X": 0.5}, "handle_type": 0, "interpolation": 0}]}, "blue": {"Points": [{"handle_right": {"Y": 0, "X": 0.5}, "co": {"Y": 255, "X": 1}, "handle_left": {"Y": 1, "X": 0.5}, "handle_type": 0, "interpolation": 0}]}, "alpha": {"Points": [{"handle_right": {"Y": 0, "X": 0.5}, "co": {"Y": 255, "X": 1}, "handle_left": {"Y": 1, "X": 0.5}, "handle_type": 0, "interpolation": 0}]}, "red": {"Points": [{"handle_right": {"Y": 0, "X": 0.5}, "co": {"Y": 0, "X": 1}, "handle_left": {"Y": 1, "X": 0.5}, "handle_type": 0, "interpolation": 0}]}}, "has_video": {"Points": [{"co": {"Y": -1, "X": 1}, "interpolation": 2}]}, "has_audio": {"Points": [{"co": {"Y": -1, "X": 1}, "interpolation": 2}]}, "effects": [], "location_x": {"Points": [{"co": {"Y": 0, "X": 1}, "interpolation": 2}]}, "waveform": false, "title": "arrow.mp4", "image": "/home/robsen/.openshot_qt/thumbnail/X22V56NF57.png", "gravity": 4, "scale_x": {"Points": [{"co": {"Y": 1, "X": 1}, "interpolation": 2}]}, "perspective_c1_y": {"Points": [{"co": {"Y": -1, "X": 1}, "interpolation": 2}]}, "crop_height": {"Points": [{"co": {"Y": -1, "X": 1}, "interpolation": 2}]}, "crop_x": {"Points": [{"co": {"Y": 0, "X": 1}, "interpolation": 2}]}, "start": 0, "scale": 1, "shear_y": {"Points": [{"co": {"Y": 0, "X": 1}, "interpolation": 2}]}, "display": 0, "volume": {"Points": [{"co": {"Y": 1, "X": 1}, "interpolation": 2}]}, "channel_mapping": {"Points": [{"co": {"Y": -1, "X": 1}, "interpolation": 2}]}, "anchor": 0, "duration": 15.0, "perspective_c3_y": {"Points": [{"co": {"Y": -1, "X": 1}, "interpolation": 2}]}, "shear_x": {"Points": [{"co": {"Y": 0, "X": 1}, "interpolation": 2}]}, "perspective_c4_x": {"Points": [{"co": {"Y": -1, "X": 1}, "interpolation": 2}]}, "location_y": {"Points": [{"co": {"Y": 0, "X": 1}, "interpolation": 2}]}, "perspective_c2_x": {"Points": [{"co": {"Y": -1, "X": 1}, "interpolation": 2}]}, "layer": 2, "perspective_c2_y": {"Points": [{"co": {"Y": -1, "X": 1}, "interpolation": 2}]}, "perspective_c1_x": {"Points": [{"co": {"Y": -1, "X": 1}, "interpolation": 2}]}, "perspective_c4_y": {"Points": [{"co": {"Y": -1, "X": 1}, "interpolation": 2}]}, "reader": {"audio_bit_rate": 0, "has_single_image": false, "vcodec": "h264", "has_video": true, "type": "FFmpegReader", "video_length": "375", "audio_timebase": {"den": 1, "num": 1}, "path": "/home/robsen/Dropbox/Workdir/Repo/SuesseRache-HH-Taxi/arrow.mp4", "width": 1920, "has_audio": false, "video_bit_rate": 83079, "channel_layout": 4, "height": 1080, "display_ratio": {"den": 9, "num": 16}, "interlaced_frame": false, "duration": 15.0, "sample_rate": 0, "pixel_format": 0, "video_timebase": {"den": 12800, "num": 1}, "file_size": "155774", "top_field_first": true, "pixel_ratio": {"den": 1, "num": 1}, "acodec": "", "audio_stream_index": -1, "video_stream_index": 0, "channels": 0, "fps": {"den": 1, "num": 25}}, "channel_filter": {"Points": [{"co": {"Y": -1, "X": 1}, "interpolation": 2}]}, "file_id": "X22V56NF57", "time": {"Points": [{"co": {"Y": 1, "X": 1}, "interpolation": 2}]}}, "value": {"id": "PJWPMFXKV3", "start": 0, "end": 15, "position": 63.04, "layer": 1, "image": "/home/robsen/.openshot_qt/thumbnail/X22V56NF57.png"}, "key": ["clips", {"id": "PJWPMFXKV3"}], "partial": false, "type": "update"}, {"old_values": {"alpha": {"Points": [{"co": {"Y": 1, "X": 1}, "interpolation": 2}]}, "rotation": {"Points": [{"co": {"Y": 0, "X": 1}, "interpolation": 2}]}, "scale_y": {"Points": [{"co": {"Y": 1, "X": 1}, "interpolation": 2}]}, "crop_y": {"Points": [{"co": {"Y": 0, "X": 1}, "interpolation": 2}]}, "perspective_c3_x": {"Points": [{"co": {"Y": -1, "X": 1}, "interpolation": 2}]}, "end": 15, "crop_width": {"Points": [{"co": {"Y": -1, "X": 1}, "interpolation": 2}]}, "position": 63.04, "id": "PJWPMFXKV3", "wave_color": {"green": {"Points": [{"handle_right": {"Y": 0, "X": 0.5}, "co": {"Y": 123, "X": 1}, "handle_left": {"Y": 1, "X": 0.5}, "handle_type": 0, "interpolation": 0}]}, "blue": {"Points": [{"handle_right": {"Y": 0, "X": 0.5}, "co": {"Y": 255, "X": 1}, "handle_left": {"Y": 1, "X": 0.5}, "handle_type": 0, "interpolation": 0}]}, "alpha": {"Points": [{"handle_right": {"Y": 0, "X": 0.5}, "co": {"Y": 255, "X": 1}, "handle_left": {"Y": 1, "X": 0.5}, "handle_type": 0, "interpolation": 0}]}, "red": {"Points": [{"handle_right": {"Y": 0, "X": 0.5}, "co": {"Y": 0, "X": 1}, "handle_left": {"Y": 1, "X": 0.5}, "handle_type": 0, "interpolation": 0}]}}, "has_video": {"Points": [{"co": {"Y": -1, "X": 1}, "interpolation": 2}]}, "has_audio": {"Points": [{"co": {"Y": -1, "X": 1}, "interpolation": 2}]}, "effects": [], "location_x": {"Points": [{"co": {"Y": 0, "X": 1}, "interpolation": 2}]}, "waveform": false, "title": "arrow.mp4", "image": "/home/robsen/.openshot_qt/thumbnail/X22V56NF57.png", "gravity": 4, "perspective_c2_x": {"Points": [{"co": {"Y": -1, "X": 1}, "interpolation": 2}]}, "perspective_c1_y": {"Points": [{"co": {"Y": -1, "X": 1}, "interpolation": 2}]}, "crop_height": {"Points": [{"co": {"Y": -1, "X": 1}, "interpolation": 2}]}, "crop_x": {"Points": [{"co": {"Y": 0, "X": 1}, "interpolation": 2}]}, "start": 0, "scale": 1, "shear_y": {"Points": [{"co": {"Y": 0, "X": 1}, "interpolation": 2}]}, "display": 0, "volume": {"Points": [{"co": {"Y": 1, "X": 1}, "interpolation": 2}]}, "channel_mapping": {"Points": [{"co": {"Y": -1, "X": 1}, "interpolation": 2}]}, "anchor": 0, "duration": 15.0, "perspective_c3_y": {"Points": [{"co": {"Y": -1, "X": 1}, "interpolation": 2}]}, "shear_x": {"Points": [{"co": {"Y": 0, "X": 1}, "interpolation": 2}]}, "perspective_c4_x": {"Points": [{"co": {"Y": -1, "X": 1}, "interpolation": 2}]}, "location_y": {"Points": [{"co": {"Y": 0, "X": 1}, "interpolation": 2}]}, "scale_x": {"Points": [{"co": {"Y": 1, "X": 1}, "interpolation": 2}]}, "layer": 1, "perspective_c2_y": {"Points": [{"co": {"Y": -1, "X": 1}, "interpolation": 2}]}, "perspective_c1_x": {"Points": [{"co": {"Y": -1, "X": 1}, "interpolation": 2}]}, "perspective_c4_y": {"Points": [{"co": {"Y": -1, "X": 1}, "interpolation": 2}]}, "reader": {"audio_bit_rate": 0, "has_single_image": false, "vcodec": "h264", "has_video": true, "type": "FFmpegReader", "video_length": "375", "audio_timebase": {"den": 1, "num": 1}, "path": "/home/robsen/Dropbox/Workdir/Repo/SuesseRache-HH-Taxi/arrow.mp4", "width": 1920, "has_audio": false, "video_bit_rate": 83079, "channel_layout": 4, "height": 1080, "display_ratio": {"den": 9, "num": 16}, "interlaced_frame": false, "duration": 15.0, "sample_rate": 0, "pixel_format": 0, "video_timebase": {"den": 12800, "num": 1}, "file_size": "155774", "top_field_first": true, "pixel_ratio": {"den": 1, "num": 1}, "acodec": "", "audio_stream_index": -1, "video_stream_index": 0, "channels": 0, "fps": {"den": 1, "num": 25}}, "channel_filter": {"Points": [{"co": {"Y": -1, "X": 1}, "interpolation": 2}]}, "file_id": "X22V56NF57", "time": {"Points": [{"co": {"Y": 1, "X": 1}, "interpolation": 2}]}}, "value": {"id": "PJWPMFXKV3", "start": 0, "end": 15, "position": 53.075, "layer": 2, "image": "/home/robsen/.openshot_qt/thumbnail/X22V56NF57.png"}, "key": ["clips", {"id": "PJWPMFXKV3"}], "partial": false, "type": "update"}, {"old_values": {"start": 0, "type": "Mask", "contrast": {"Points": [{"co": {"Y": 3, "X": 1}, "interpolation": 2}]}, "layer": 0, "replace_image": false, "title": "Transition", "end": 2.039999999999999, "reader": {"audio_bit_rate": 0, "has_single_image": true, "vcodec": "", "has_video": true, "type": "QtImageReader", "video_length": "2592000", "audio_timebase": {"den": 1, "num": 1}, "path": "/usr/lib/python3/dist-packages/openshot_qt/transitions/common/fade.svg", "width": 720, "has_audio": false, "video_bit_rate": 0, "channel_layout": 4, "height": 576, "display_ratio": {"den": 4, "num": 5}, "interlaced_frame": false, "duration": 86400, "sample_rate": 0, "pixel_format": -1, "video_timebase": {"den": 30, "num": 1}, "file_size": "1658880", "top_field_first": true, "pixel_ratio": {"den": 1, "num": 1}, "acodec": "", "audio_stream_index": -1, "video_stream_index": -1, "channels": 0, "fps": {"den": 1, "num": 30}}, "brightness": {"Points": [{"handle_right": {"Y": 0, "X": 0.5}, "co": {"Y": 1, "X": 1}, "handle_left": {"Y": 1, "X": 0.5}, "handle_type": 0, "interpolation": 0}, {"handle_right": {"Y": 0, "X": 0.5}, "co": {"Y": -1, "X": 50}, "handle_left": {"Y": 1, "X": 0.5}, "handle_type": 0, "interpolation": 0}]}, "id": "5NBS5H99MA", "position": 21.76}, "value": null, "key": ["effects", {"id": "5NBS5H99MA"}], "partial": false, "type": "delete"}, {"old_values": {"alpha": {"Points": [{"co": {"Y": 1, "X": 1}, "interpolation": 2}]}, "rotation": {"Points": [{"co": {"Y": 0, "X": 1}, "interpolation": 2}]}, "scale_y": {"Points": [{"co": {"Y": 1, "X": 1}, "interpolation": 2}]}, "crop_y": {"Points": [{"co": {"Y": 0, "X": 1}, "interpolation": 2}]}, "perspective_c3_x": {"Points": [{"co": {"Y": -1, "X": 1}, "interpolation": 2}]}, "end": 15, "crop_width": {"Points": [{"co": {"Y": -1, "X": 1}, "interpolation": 2}]}, "position": 8.8, "id": "0AEDFYGQ7J", "wave_color": {"green": {"Points": [{"handle_right": {"Y": 0, "X": 0.5}, "co": {"Y": 123, "X": 1}, "handle_left": {"Y": 1, "X": 0.5}, "handle_type": 0, "interpolation": 0}]}, "blue": {"Points": [{"handle_right": {"Y": 0, "X": 0.5}, "co": {"Y": 255, "X": 1}, "handle_left": {"Y": 1, "X": 0.5}, "handle_type": 0, "interpolation": 0}]}, "alpha": {"Points": [{"handle_right": {"Y": 0, "X": 0.5}, "co": {"Y": 255, "X": 1}, "handle_left": {"Y": 1, "X": 0.5}, "handle_type": 0, "interpolation": 0}]}, "red": {"Points": [{"handle_right": {"Y": 0, "X": 0.5}, "co": {"Y": 0, "X": 1}, "handle_left": {"Y": 1, "X": 0.5}, "handle_type": 0, "interpolation": 0}]}}, "has_video": {"Points": [{"co": {"Y": -1, "X": 1}, "interpolation": 2}]}, "has_audio": {"Points": [{"co": {"Y": -1, "X": 1}, "interpolation": 2}]}, "effects": [], "location_x": {"Points": [{"co": {"Y": 0, "X": 1}, "interpolation": 2}]}, "waveform": false, "title": "taxi_start.mp4", "image": "/home/robsen/.openshot_qt/thumbnail/LGW3TZJV4Q.png", "gravity": 4, "perspective_c2_x": {"Points": [{"co": {"Y": -1, "X": 1}, "interpolation": 2}]}, "perspective_c1_y": {"Points": [{"co": {"Y": -1, "X": 1}, "interpolation": 2}]}, "crop_height": {"Points": [{"co": {"Y": -1, "X": 1}, "interpolation": 2}]}, "crop_x": {"Points": [{"co": {"Y": 0, "X": 1}, "interpolation": 2}]}, "start": 0, "scale": 1, "shear_y": {"Points": [{"co": {"Y": 0, "X": 1}, "interpolation": 2}]}, "display": 0, "volume": {"Points": [{"co": {"Y": 1, "X": 1}, "interpolation": 2}]}, "channel_mapping": {"Points": [{"co": {"Y": -1, "X": 1}, "interpolation": 2}]}, "anchor": 0, "duration": 15.0, "perspective_c3_y": {"Points": [{"co": {"Y": -1, "X": 1}, "interpolation": 2}]}, "shear_x": {"Points": [{"co": {"Y": 0, "X": 1}, "interpolation": 2}]}, "perspective_c4_x": {"Points": [{"co": {"Y": -1, "X": 1}, "interpolation": 2}]}, "location_y": {"Points": [{"co": {"Y": 0, "X": 1}, "interpolation": 2}]}, "scale_x": {"Points": [{"co": {"Y": 1, "X": 1}, "interpolation": 2}]}, "layer": 0, "perspective_c2_y": {"Points": [{"co": {"Y": -1, "X": 1}, "interpolation": 2}]}, "perspective_c1_x": {"Points": [{"co": {"Y": -1, "X": 1}, "interpolation": 2}]}, "perspective_c4_y": {"Points": [{"co": {"Y": -1, "X": 1}, "interpolation": 2}]}, "reader": {"audio_bit_rate": 0, "has_single_image": false, "vcodec": "h264", "has_video": true, "type": "FFmpegReader", "video_length": "375", "audio_timebase": {"den": 1, "num": 1}, "path": "/home/robsen/Dropbox/Workdir/Repo/SuesseRache-HH-Taxi/taxi_start.mp4", "width": 1920, "has_audio": false, "video_bit_rate": 147692, "channel_layout": 4, "height": 1080, "display_ratio": {"den": 9, "num": 16}, "interlaced_frame": false, "duration": 15.0, "sample_rate": 0, "pixel_format": 0, "video_timebase": {"den": 12800, "num": 1}, "file_size": "276924", "top_field_first": true, "pixel_ratio": {"den": 1, "num": 1}, "acodec": "", "audio_stream_index": -1, "video_stream_index": 0, "channels": 0, "fps": {"den": 1, "num": 25}}, "channel_filter": {"Points": [{"co": {"Y": -1, "X": 1}, "interpolation": 2}]}, "file_id": "LGW3TZJV4Q", "time": {"Points": [{"co": {"Y": 1, "X": 1}, "interpolation": 2}]}}, "value": {"alpha": {"Points": [{"co": {"Y": 1, "X": 1}, "interpolation": 2}, {"handle_right": {"Y": 0, "X": 0.5}, "co": {"Y": 1, "X": 289}, "handle_left": {"Y": 1, "X": 0.5}, "handle_type": 0, "interpolation": 0}, {"handle_right": {"Y": 0, "X": 0.5}, "co": {"Y": 0, "X": 361}, "handle_left": {"Y": 1, "X": 0.5}, "handle_type": 0, "interpolation": 0}]}, "rotation": {"Points": [{"co": {"Y": 0, "X": 1}, "interpolation": 2}]}, "scale_y": {"Points": [{"co": {"Y": 1, "X": 1}, "interpolation": 2}]}, "crop_y": {"Points": [{"co": {"Y": 0, "X": 1}, "interpolation": 2}]}, "crop_width": {"Points": [{"co": {"Y": -1, "X": 1}, "interpolation": 2}]}, "end": 15, "perspective_c3_x": {"Points": [{"co": {"Y": -1, "X": 1}, "interpolation": 2}]}, "position": 8.8, "id": "0AEDFYGQ7J", "wave_color": {"green": {"Points": [{"handle_right": {"Y": 0, "X": 0.5}, "co": {"Y": 123, "X": 1}, "handle_left": {"Y": 1, "X": 0.5}, "handle_type": 0, "interpolation": 0}]}, "blue": {"Points": [{"handle_right": {"Y": 0, "X": 0.5}, "co": {"Y": 255, "X": 1}, "handle_left": {"Y": 1, "X": 0.5}, "handle_type": 0, "interpolation": 0}]}, "alpha": {"Points": [{"handle_right": {"Y": 0, "X": 0.5}, "co": {"Y": 255, "X": 1}, "handle_left": {"Y": 1, "X": 0.5}, "handle_type": 0, "interpolation": 0}]}, "red": {"Points": [{"handle_right": {"Y": 0, "X": 0.5}, "co": {"Y": 0, "X": 1}, "handle_left": {"Y": 1, "X": 0.5}, "handle_type": 0, "interpolation": 0}]}}, "has_video": {"Points": [{"co": {"Y": -1, "X": 1}, "interpolation": 2}]}, "has_audio": {"Points": [{"co": {"Y": -1, "X": 1}, "interpolation": 2}]}, "effects": [], "location_x": {"Points": [{"co": {"Y": 0, "X": 1}, "interpolation": 2}]}, "waveform": false, "title": "taxi_start.mp4", "image": "/home/robsen/.openshot_qt/thumbnail/LGW3TZJV4Q.png", "gravity": 4, "scale_x": {"Points": [{"co": {"Y": 1, "X": 1}, "interpolation": 2}]}, "perspective_c1_y": {"Points": [{"co": {"Y": -1, "X": 1}, "interpolation": 2}]}, "crop_height": {"Points": [{"co": {"Y": -1, "X": 1}, "interpolation": 2}]}, "crop_x": {"Points": [{"co": {"Y": 0, "X": 1}, "interpolation": 2}]}, "start": 0, "scale": 1, "shear_y": {"Points": [{"co": {"Y": 0, "X": 1}, "interpolation": 2}]}, "display": 0, "volume": {"Points": [{"co": {"Y": 1, "X": 1}, "interpolation": 2}]}, "channel_mapping": {"Points": [{"co": {"Y": -1, "X": 1}, "interpolation": 2}]}, "anchor": 0, "duration": 15.0, "perspective_c3_y": {"Points": [{"co": {"Y": -1, "X": 1}, "interpolation": 2}]}, "shear_x": {"Points": [{"co": {"Y": 0, "X": 1}, "interpolation": 2}]}, "perspective_c4_x": {"Points": [{"co": {"Y": -1, "X": 1}, "interpolation": 2}]}, "location_y": {"Points": [{"co": {"Y": 0, "X": 1}, "interpolation": 2}]}, "perspective_c2_x": {"Points": [{"co": {"Y": -1, "X": 1}, "interpolation": 2}]}, "layer": 0, "perspective_c2_y": {"Points": [{"co": {"Y": -1, "X": 1}, "interpolation": 2}]}, "perspective_c1_x": {"Points": [{"co": {"Y": -1, "X": 1}, "interpolation": 2}]}, "perspective_c4_y": {"Points": [{"co": {"Y": -1, "X": 1}, "interpolation": 2}]}, "channel_filter": {"Points": [{"co": {"Y": -1, "X": 1}, "interpolation": 2}]}, "time": {"Points": [{"co": {"Y": 1, "X": 1}, "interpolation": 2}]}, "file_id": "LGW3TZJV4Q"}, "key": ["clips", {"id": "0AEDFYGQ7J"}], "partial": false, "type": "update"}, {"old_values": {"alpha": {"Points": [{"co": {"Y": 1, "X": 1}, "interpolation": 2}, {"handle_right": {"Y": 0, "X": 0.5}, "co": {"Y": 1, "X": 289}, "handle_left": {"Y": 1, "X": 0.5}, "handle_type": 0, "interpolation": 0}, {"handle_right": {"Y": 0, "X": 0.5}, "co": {"Y": 0, "X": 361}, "handle_left": {"Y": 1, "X": 0.5}, "handle_type": 0, "interpolation": 0}]}, "rotation": {"Points": [{"co": {"Y": 0, "X": 1}, "interpolation": 2}]}, "scale_y": {"Points": [{"co": {"Y": 1, "X": 1}, "interpolation": 2}]}, "crop_y": {"Points": [{"co": {"Y": 0, "X": 1}, "interpolation": 2}]}, "perspective_c3_x": {"Points": [{"co": {"Y": -1, "X": 1}, "interpolation": 2}]}, "end": 15, "crop_width": {"Points": [{"co": {"Y": -1, "X": 1}, "interpolation": 2}]}, "position": 8.8, "id": "0AEDFYGQ7J", "wave_color": {"green": {"Points": [{"handle_right": {"Y": 0, "X": 0.5}, "co": {"Y": 123, "X": 1}, "handle_left": {"Y": 1, "X": 0.5}, "handle_type": 0, "interpolation": 0}]}, "blue": {"Points": [{"handle_right": {"Y": 0, "X": 0.5}, "co": {"Y": 255, "X": 1}, "handle_left": {"Y": 1, "X": 0.5}, "handle_type": 0, "interpolation": 0}]}, "alpha": {"Points": [{"handle_right": {"Y": 0, "X": 0.5}, "co": {"Y": 255, "X": 1}, "handle_left": {"Y": 1, "X": 0.5}, "handle_type": 0, "interpolation": 0}]}, "red": {"Points": [{"handle_right": {"Y": 0, "X": 0.5}, "co": {"Y": 0, "X": 1}, "handle_left": {"Y": 1, "X": 0.5}, "handle_type": 0, "interpolation": 0}]}}, "has_video": {"Points": [{"co": {"Y": -1, "X": 1}, "interpolation": 2}]}, "has_audio": {"Points": [{"co": {"Y": -1, "X": 1}, "interpolation": 2}]}, "effects": [], "location_x": {"Points": [{"co": {"Y": 0, "X": 1}, "interpolation": 2}]}, "waveform": false, "title": "taxi_start.mp4", "image": "/home/robsen/.openshot_qt/thumbnail/LGW3TZJV4Q.png", "gravity": 4, "perspective_c2_x": {"Points": [{"co": {"Y": -1, "X": 1}, "interpolation": 2}]}, "perspective_c1_y": {"Points": [{"co": {"Y": -1, "X": 1}, "interpolation": 2}]}, "crop_height": {"Points": [{"co": {"Y": -1, "X": 1}, "interpolation": 2}]}, "crop_x": {"Points": [{"co": {"Y": 0, "X": 1}, "interpolation": 2}]}, "start": 0, "scale": 1, "shear_y": {"Points": [{"co": {"Y": 0, "X": 1}, "interpolation": 2}]}, "display": 0, "volume": {"Points": [{"co": {"Y": 1, "X": 1}, "interpolation": 2}]}, "channel_mapping": {"Points": [{"co": {"Y": -1, "X": 1}, "interpolation": 2}]}, "anchor": 0, "duration": 15.0, "perspective_c3_y": {"Points": [{"co": {"Y": -1, "X": 1}, "interpolation": 2}]}, "shear_x": {"Points": [{"co": {"Y": 0, "X": 1}, "interpolation": 2}]}, "perspective_c4_x": {"Points": [{"co": {"Y": -1, "X": 1}, "interpolation": 2}]}, "location_y": {"Points": [{"co": {"Y": 0, "X": 1}, "interpolation": 2}]}, "scale_x": {"Points": [{"co": {"Y": 1, "X": 1}, "interpolation": 2}]}, "layer": 0, "perspective_c2_y": {"Points": [{"co": {"Y": -1, "X": 1}, "interpolation": 2}]}, "perspective_c1_x": {"Points": [{"co": {"Y": -1, "X": 1}, "interpolation": 2}]}, "perspective_c4_y": {"Points": [{"co": {"Y": -1, "X": 1}, "interpolation": 2}]}, "reader": {"audio_bit_rate": 0, "has_single_image": false, "vcodec": "h264", "has_video": true, "type": "FFmpegReader", "video_length": "375", "audio_timebase": {"den": 1, "num": 1}, "path": "/home/robsen/Dropbox/Workdir/Repo/SuesseRache-HH-Taxi/taxi_start.mp4", "width": 1920, "has_audio": false, "video_bit_rate": 147692, "channel_layout": 4, "height": 1080, "display_ratio": {"den": 9, "num": 16}, "interlaced_frame": false, "duration": 15.0, "sample_rate": 0, "pixel_format": 0, "video_timebase": {"den": 12800, "num": 1}, "file_size": "276924", "top_field_first": true, "pixel_ratio": {"den": 1, "num": 1}, "acodec": "", "audio_stream_index": -1, "video_stream_index": 0, "channels": 0, "fps": {"den": 1, "num": 25}}, "channel_filter": {"Points": [{"co": {"Y": -1, "X": 1}, "interpolation": 2}]}, "file_id": "LGW3TZJV4Q", "time": {"Points": [{"co": {"Y": 1, "X": 1}, "interpolation": 2}]}}, "value": {"alpha": {"Points": [{"co": {"Y": 1, "X": 1}, "interpolation": 2}, {"handle_right": {"Y": 0, "X": 0.5}, "co": {"Y": 1, "X": 289}, "handle_left": {"Y": 1, "X": 0.5}, "handle_type": 0, "interpolation": 0}, {"handle_right": {"Y": 0, "X": 0.5}, "co": {"Y": 0, "X": 361}, "handle_left": {"Y": 1, "X": 0.5}, "handle_type": 0, "interpolation": 0}, {"handle_right": {"Y": 0, "X": 0.5}, "co": {"Y": 0, "X": 1}, "handle_left": {"Y": 1, "X": 0.5}, "handle_type": 0, "interpolation": 0}, {"handle_right": {"Y": 0, "X": 0.5}, "co": {"Y": 1, "X": 73}, "handle_left": {"Y": 1, "X": 0.5}, "handle_type": 0, "interpolation": 0}]}, "rotation": {"Points": [{"co": {"Y": 0, "X": 1}, "interpolation": 2}]}, "scale_y": {"Points": [{"co": {"Y": 1, "X": 1}, "interpolation": 2}]}, "crop_y": {"Points": [{"co": {"Y": 0, "X": 1}, "interpolation": 2}]}, "crop_width": {"Points": [{"co": {"Y": -1, "X": 1}, "interpolation": 2}]}, "end": 15, "perspective_c3_x": {"Points": [{"co": {"Y": -1, "X": 1}, "interpolation": 2}]}, "position": 8.8, "id": "0AEDFYGQ7J", "wave_color": {"green": {"Points": [{"handle_right": {"Y": 0, "X": 0.5}, "co": {"Y": 123, "X": 1}, "handle_left": {"Y": 1, "X": 0.5}, "handle_type": 0, "interpolation": 0}]}, "blue": {"Points": [{"handle_right": {"Y": 0, "X": 0.5}, "co": {"Y": 255, "X": 1}, "handle_left": {"Y": 1, "X": 0.5}, "handle_type": 0, "interpolation": 0}]}, "alpha": {"Points": [{"handle_right": {"Y": 0, "X": 0.5}, "co": {"Y": 255, "X": 1}, "handle_left": {"Y": 1, "X": 0.5}, "handle_type": 0, "interpolation": 0}]}, "red": {"Points": [{"handle_right": {"Y": 0, "X": 0.5}, "co": {"Y": 0, "X": 1}, "handle_left": {"Y": 1, "X": 0.5}, "handle_type": 0, "interpolation": 0}]}}, "has_video": {"Points": [{"co": {"Y": -1, "X": 1}, "interpolation": 2}]}, "has_audio": {"Points": [{"co": {"Y": -1, "X": 1}, "interpolation": 2}]}, "effects": [], "location_x": {"Points": [{"co": {"Y": 0, "X": 1}, "interpolation": 2}]}, "waveform": false, "title": "taxi_start.mp4", "image": "/home/robsen/.openshot_qt/thumbnail/LGW3TZJV4Q.png", "gravity": 4, "scale_x": {"Points": [{"co": {"Y": 1, "X": 1}, "interpolation": 2}]}, "perspective_c1_y": {"Points": [{"co": {"Y": -1, "X": 1}, "interpolation": 2}]}, "crop_height": {"Points": [{"co": {"Y": -1, "X": 1}, "interpolation": 2}]}, "crop_x": {"Points": [{"co": {"Y": 0, "X": 1}, "interpolation": 2}]}, "start": 0, "scale": 1, "shear_y": {"Points": [{"co": {"Y": 0, "X": 1}, "interpolation": 2}]}, "display": 0, "volume": {"Points": [{"co": {"Y": 1, "X": 1}, "interpolation": 2}]}, "channel_mapping": {"Points": [{"co": {"Y": -1, "X": 1}, "interpolation": 2}]}, "anchor": 0, "duration": 15.0, "perspective_c3_y": {"Points": [{"co": {"Y": -1, "X": 1}, "interpolation": 2}]}, "shear_x": {"Points": [{"co": {"Y": 0, "X": 1}, "interpolation": 2}]}, "perspective_c4_x": {"Points": [{"co": {"Y": -1, "X": 1}, "interpolation": 2}]}, "location_y": {"Points": [{"co": {"Y": 0, "X": 1}, "interpolation": 2}]}, "perspective_c2_x": {"Points": [{"co": {"Y": -1, "X": 1}, "interpolation": 2}]}, "layer": 0, "perspective_c2_y": {"Points": [{"co": {"Y": -1, "X": 1}, "interpolation": 2}]}, "perspective_c1_x": {"Points": [{"co": {"Y": -1, "X": 1}, "interpolation": 2}]}, "perspective_c4_y": {"Points": [{"co": {"Y": -1, "X": 1}, "interpolation": 2}]}, "channel_filter": {"Points": [{"co": {"Y": -1, "X": 1}, "interpolation": 2}]}, "time": {"Points": [{"co": {"Y": 1, "X": 1}, "interpolation": 2}]}, "file_id": "LGW3TZJV4Q"}, "key": ["clips", {"id": "0AEDFYGQ7J"}], "partial": false, "type": "update"}, {"old_values": {"alpha": {"Points": [{"co": {"Y": 1, "X": 1}, "interpolation": 2}]}, "rotation": {"Points": [{"co": {"Y": 0, "X": 1}, "interpolation": 2}]}, "scale_y": {"Points": [{"co": {"Y": 1, "X": 1}, "interpolation": 2}]}, "crop_y": {"Points": [{"co": {"Y": 0, "X": 1}, "interpolation": 2}]}, "perspective_c3_x": {"Points": [{"co": {"Y": -1, "X": 1}, "interpolation": 2}]}, "end": 15, "crop_width": {"Points": [{"co": {"Y": -1, "X": 1}, "interpolation": 2}]}, "position": 53.075, "id": "PJWPMFXKV3", "wave_color": {"green": {"Points": [{"handle_right": {"Y": 0, "X": 0.5}, "co": {"Y": 123, "X": 1}, "handle_left": {"Y": 1, "X": 0.5}, "handle_type": 0, "interpolation": 0}]}, "blue": {"Points": [{"handle_right": {"Y": 0, "X": 0.5}, "co": {"Y": 255, "X": 1}, "handle_left": {"Y": 1, "X": 0.5}, "handle_type": 0, "interpolation": 0}]}, "alpha": {"Points": [{"handle_right": {"Y": 0, "X": 0.5}, "co": {"Y": 255, "X": 1}, "handle_left": {"Y": 1, "X": 0.5}, "handle_type": 0, "interpolation": 0}]}, "red": {"Points": [{"handle_right": {"Y": 0, "X": 0.5}, "co": {"Y": 0, "X": 1}, "handle_left": {"Y": 1, "X": 0.5}, "handle_type": 0, "interpolation": 0}]}}, "has_video": {"Points": [{"co": {"Y": -1, "X": 1}, "interpolation": 2}]}, "has_audio": {"Points": [{"co": {"Y": -1, "X": 1}, "interpolation": 2}]}, "effects": [], "location_x": {"Points": [{"co": {"Y": 0, "X": 1}, "interpolation": 2}]}, "waveform": false, "title": "arrow.mp4", "image": "/home/robsen/.openshot_qt/thumbnail/X22V56NF57.png", "gravity": 4, "perspective_c2_x": {"Points": [{"co": {"Y": -1, "X": 1}, "interpolation": 2}]}, "perspective_c1_y": {"Points": [{"co": {"Y": -1, "X": 1}, "interpolation": 2}]}, "crop_height": {"Points": [{"co": {"Y": -1, "X": 1}, "interpolation": 2}]}, "crop_x": {"Points": [{"co": {"Y": 0, "X": 1}, "interpolation": 2}]}, "start": 0, "scale": 1, "shear_y": {"Points": [{"co": {"Y": 0, "X": 1}, "interpolation": 2}]}, "display": 0, "volume": {"Points": [{"co": {"Y": 1, "X": 1}, "interpolation": 2}]}, "channel_mapping": {"Points": [{"co": {"Y": -1, "X": 1}, "interpolation": 2}]}, "anchor": 0, "duration": 15.0, "perspective_c3_y": {"Points": [{"co": {"Y": -1, "X": 1}, "interpolation": 2}]}, "shear_x": {"Points": [{"co": {"Y": 0, "X": 1}, "interpolation": 2}]}, "perspective_c4_x": {"Points": [{"co": {"Y": -1, "X": 1}, "interpolation": 2}]}, "location_y": {"Points": [{"co": {"Y": 0, "X": 1}, "interpolation": 2}]}, "scale_x": {"Points": [{"co": {"Y": 1, "X": 1}, "interpolation": 2}]}, "layer": 2, "perspective_c2_y": {"Points": [{"co": {"Y": -1, "X": 1}, "interpolation": 2}]}, "perspective_c1_x": {"Points": [{"co": {"Y": -1, "X": 1}, "interpolation": 2}]}, "perspective_c4_y": {"Points": [{"co": {"Y": -1, "X": 1}, "interpolation": 2}]}, "reader": {"audio_bit_rate": 0, "has_single_image": false, "vcodec": "h264", "has_video": true, "type": "FFmpegReader", "video_length": "375", "audio_timebase": {"den": 1, "num": 1}, "path": "/home/robsen/Dropbox/Workdir/Repo/SuesseRache-HH-Taxi/arrow.mp4", "width": 1920, "has_audio": false, "video_bit_rate": 83079, "channel_layout": 4, "height": 1080, "display_ratio": {"den": 9, "num": 16}, "interlaced_frame": false, "duration": 15.0, "sample_rate": 0, "pixel_format": 0, "video_timebase": {"den": 12800, "num": 1}, "file_size": "155774", "top_field_first": true, "pixel_ratio": {"den": 1, "num": 1}, "acodec": "", "audio_stream_index": -1, "video_stream_index": 0, "channels": 0, "fps": {"den": 1, "num": 25}}, "channel_filter": {"Points": [{"co": {"Y": -1, "X": 1}, "interpolation": 2}]}, "file_id": "X22V56NF57", "time": {"Points": [{"co": {"Y": 1, "X": 1}, "interpolation": 2}]}}, "value": {"alpha": {"Points": [{"co": {"Y": 1, "X": 1}, "interpolation": 2}, {"handle_right": {"Y": 0, "X": 0.5}, "co": {"Y": 0, "X": 1}, "handle_left": {"Y": 1, "X": 0.5}, "handle_type": 0, "interpolation": 0}, {"handle_right": {"Y": 0, "X": 0.5}, "co": {"Y": 1, "X": 73}, "handle_left": {"Y": 1, "X": 0.5}, "handle_type": 0, "interpolation": 0}]}, "rotation": {"Points": [{"co": {"Y": 0, "X": 1}, "interpolation": 2}]}, "scale_y": {"Points": [{"co": {"Y": 1, "X": 1}, "interpolation": 2}]}, "crop_y": {"Points": [{"co": {"Y": 0, "X": 1}, "interpolation": 2}]}, "crop_width": {"Points": [{"co": {"Y": -1, "X": 1}, "interpolation": 2}]}, "end": 15, "perspective_c3_x": {"Points": [{"co": {"Y": -1, "X": 1}, "interpolation": 2}]}, "position": 53.075, "id": "PJWPMFXKV3", "wave_color": {"green": {"Points": [{"handle_right": {"Y": 0, "X": 0.5}, "co": {"Y": 123, "X": 1}, "handle_left": {"Y": 1, "X": 0.5}, "handle_type": 0, "interpolation": 0}]}, "blue": {"Points": [{"handle_right": {"Y": 0, "X": 0.5}, "co": {"Y": 255, "X": 1}, "handle_left": {"Y": 1, "X": 0.5}, "handle_type": 0, "interpolation": 0}]}, "alpha": {"Points": [{"handle_right": {"Y": 0, "X": 0.5}, "co": {"Y": 255, "X": 1}, "handle_left": {"Y": 1, "X": 0.5}, "handle_type": 0, "interpolation": 0}]}, "red": {"Points": [{"handle_right": {"Y": 0, "X": 0.5}, "co": {"Y": 0, "X": 1}, "handle_left": {"Y": 1, "X": 0.5}, "handle_type": 0, "interpolation": 0}]}}, "has_video": {"Points": [{"co": {"Y": -1, "X": 1}, "interpolation": 2}]}, "has_audio": {"Points": [{"co": {"Y": -1, "X": 1}, "interpolation": 2}]}, "effects": [], "location_x": {"Points": [{"co": {"Y": 0, "X": 1}, "interpolation": 2}]}, "waveform": false, "title": "arrow.mp4", "image": "/home/robsen/.openshot_qt/thumbnail/X22V56NF57.png", "gravity": 4, "scale_x": {"Points": [{"co": {"Y": 1, "X": 1}, "interpolation": 2}]}, "perspective_c1_y": {"Points": [{"co": {"Y": -1, "X": 1}, "interpolation": 2}]}, "crop_height": {"Points": [{"co": {"Y": -1, "X": 1}, "interpolation": 2}]}, "crop_x": {"Points": [{"co": {"Y": 0, "X": 1}, "interpolation": 2}]}, "start": 0, "scale": 1, "shear_y": {"Points": [{"co": {"Y": 0, "X": 1}, "interpolation": 2}]}, "display": 0, "volume": {"Points": [{"co": {"Y": 1, "X": 1}, "interpolation": 2}]}, "channel_mapping": {"Points": [{"co": {"Y": -1, "X": 1}, "interpolation": 2}]}, "anchor": 0, "duration": 15.0, "perspective_c3_y": {"Points": [{"co": {"Y": -1, "X": 1}, "interpolation": 2}]}, "shear_x": {"Points": [{"co": {"Y": 0, "X": 1}, "interpolation": 2}]}, "perspective_c4_x": {"Points": [{"co": {"Y": -1, "X": 1}, "interpolation": 2}]}, "location_y": {"Points": [{"co": {"Y": 0, "X": 1}, "interpolation": 2}]}, "perspective_c2_x": {"Points": [{"co": {"Y": -1, "X": 1}, "interpolation": 2}]}, "layer": 2, "perspective_c2_y": {"Points": [{"co": {"Y": -1, "X": 1}, "interpolation": 2}]}, "perspective_c1_x": {"Points": [{"co": {"Y": -1, "X": 1}, "interpolation": 2}]}, "perspective_c4_y": {"Points": [{"co": {"Y": -1, "X": 1}, "interpolation": 2}]}, "channel_filter": {"Points": [{"co": {"Y": -1, "X": 1}, "interpolation": 2}]}, "time": {"Points": [{"co": {"Y": 1, "X": 1}, "interpolation": 2}]}, "file_id": "X22V56NF57"}, "key": ["clips", {"id": "PJWPMFXKV3"}], "partial": false, "type": "update"}]}, "key": ["history"], "partial": false, "type": "update"}, {"old_values": null, "value": {"redo": [], "undo": [{"old_values": [{"number": 0, "label": "Spur 1", "id": "UBOPYJIV1S", "y": 0}, {"number": 1, "label": "Spur 2", "id": "SHY16ICR2M", "y": 0}], "value": {"number": 2, "y": 0, "label": "", "id": "E44ZNJSI3Z", "lock": false}, "key": ["layers"], "partial": false, "type": "insert"}, {"old_values": [], "value": {"audio_bit_rate": 0, "has_single_image": false, "media_type": "video", "id": "LGW3TZJV4Q", "type": "FFmpegReader", "has_video": true, "video_length": "375", "audio_timebase": {"den": 1, "num": 1}, "path": "/home/robsen/Dropbox/Workdir/Repo/SuesseRache-HH-Taxi/taxi_start.mp4", "width": 1920, "has_audio": false, "video_bit_rate": 147692, "channel_layout": 4, "height": 1080, "vcodec": "h264", "display_ratio": {"den": 9, "num": 16}, "interlaced_frame": false, "duration": 15, "sample_rate": 0, "pixel_format": 0, "video_timebase": {"den": 12800, "num": 1}, "file_size": "276924", "top_field_first": true, "pixel_ratio": {"den": 1, "num": 1}, "acodec": "", "audio_stream_index": -1, "video_stream_index": 0, "channels": 0, "fps": {"den": 1, "num": 25}}, "key": ["files"], "partial": false, "type": "insert"}, {"old_values": [{"audio_bit_rate": 0, "has_single_image": false, "media_type": "video", "id": "LGW3TZJV4Q", "type": "FFmpegReader", "has_video": true, "video_length": "375", "audio_timebase": {"den": 1, "num": 1}, "path": "/home/robsen/Dropbox/Workdir/Repo/SuesseRache-HH-Taxi/taxi_start.mp4", "width": 1920, "has_audio": false, "video_bit_rate": 147692, "channel_layout": 4, "height": 1080, "vcodec": "h264", "display_ratio": {"den": 9, "num": 16}, "interlaced_frame": false, "duration": 15, "sample_rate": 0, "pixel_format": 0, "video_timebase": {"den": 12800, "num": 1}, "file_size": "276924", "top_field_first": true, "pixel_ratio": {"den": 1, "num": 1}, "acodec": "", "audio_stream_index": -1, "video_stream_index": 0, "channels": 0, "fps": {"den": 1, "num": 25}}], "value": {"audio_bit_rate": 189375, "has_single_image": false, "media_type": "video", "id": "Z3LOYBY1PL", "type": "FFmpegReader", "has_video": true, "video_length": "937", "audio_timebase": {"den": 48000, "num": 1}, "path": "/home/robsen/Dropbox/Workdir/Repo/SuesseRache-HH-Taxi/TE_SR_Taxi.mp4", "width": 1920, "has_audio": true, "video_bit_rate": 32091692, "channel_layout": 3, "height": 1080, "vcodec": "h264", "display_ratio": {"den": 9, "num": 16}, "interlaced_frame": false, "duration": 31.317333221435547, "sample_rate": 48000, "pixel_format": 0, "video_timebase": {"den": 29970, "num": 1}, "file_size": "125628279", "top_field_first": true, "pixel_ratio": {"den": 1, "num": 1}, "acodec": "aac", "audio_stream_index": 1, "video_stream_index": 0, "channels": 2, "fps": {"den": 100, "num": 2997}}, "key": ["files"], "partial": false, "type": "insert"}, {"old_values": [{"audio_bit_rate": 0, "has_single_image": false, "media_type": "video", "id": "LGW3TZJV4Q", "type": "FFmpegReader", "has_video": true, "video_length": "375", "audio_timebase": {"den": 1, "num": 1}, "path": "/home/robsen/Dropbox/Workdir/Repo/SuesseRache-HH-Taxi/taxi_start.mp4", "width": 1920, "has_audio": false, "video_bit_rate": 147692, "channel_layout": 4, "height": 1080, "vcodec": "h264", "display_ratio": {"den": 9, "num": 16}, "interlaced_frame": false, "duration": 15, "sample_rate": 0, "pixel_format": 0, "video_timebase": {"den": 12800, "num": 1}, "file_size": "276924", "top_field_first": true, "pixel_ratio": {"den": 1, "num": 1}, "acodec": "", "audio_stream_index": -1, "video_stream_index": 0, "channels": 0, "fps": {"den": 1, "num": 25}}, {"audio_bit_rate": 189375, "has_single_image": false, "media_type": "video", "id": "Z3LOYBY1PL", "type": "FFmpegReader", "has_video": true, "video_length": "937", "audio_timebase": {"den": 48000, "num": 1}, "path": "/home/robsen/Dropbox/Workdir/Repo/SuesseRache-HH-Taxi/TE_SR_Taxi.mp4", "width": 1920, "has_audio": true, "video_bit_rate": 32091692, "channel_layout": 3, "height": 1080, "vcodec": "h264", "display_ratio": {"den": 9, "num": 16}, "interlaced_frame": false, "duration": 31.317333221435547, "sample_rate": 48000, "pixel_format": 0, "video_timebase": {"den": 29970, "num": 1}, "file_size": "125628279", "top_field_first": true, "pixel_ratio": {"den": 1, "num": 1}, "acodec": "aac", "audio_stream_index": 1, "video_stream_index": 0, "channels": 2, "fps": {"den": 100, "num": 2997}}], "value": {"audio_bit_rate": 0, "has_single_image": false, "media_type": "video", "id": "X22V56NF57", "type": "FFmpegReader", "has_video": true, "video_length": "375", "audio_timebase": {"den": 1, "num": 1}, "path": "/home/robsen/Dropbox/Workdir/Repo/SuesseRache-HH-Taxi/arrow.mp4", "width": 1920, "has_audio": false, "video_bit_rate": 83079, "channel_layout": 4, "height": 1080, "vcodec": "h264", "display_ratio": {"den": 9, "num": 16}, "interlaced_frame": false, "duration": 15, "sample_rate": 0, "pixel_format": 0, "video_timebase": {"den": 12800, "num": 1}, "file_size": "155774", "top_field_first": true, "pixel_ratio": {"den": 1, "num": 1}, "acodec": "", "audio_stream_index": -1, "video_stream_index": 0, "channels": 0, "fps": {"den": 1, "num": 25}}, "key": ["files"], "partial": false, "type": "insert"}, {"old_values": [], "value": {"alpha": {"Points": [{"co": {"Y": 1, "X": 1}, "interpolation": 2}, {"handle_right": {"Y": 0, "X": 0.5}, "co": {"Y": 1, "X": 289}, "handle_left": {"Y": 1, "X": 0.5}, "handle_type": 0, "interpolation": 0}, {"handle_right": {"Y": 0, "X": 0.5}, "co": {"Y": 0, "X": 361}, "handle_left": {"Y": 1, "X": 0.5}, "handle_type": 0, "interpolation": 0}, {"handle_right": {"Y": 0, "X": 0.5}, "co": {"Y": 0, "X": 1}, "handle_left": {"Y": 1, "X": 0.5}, "handle_type": 0, "interpolation": 0}, {"handle_right": {"Y": 0, "X": 0.5}, "co": {"Y": 1, "X": 73}, "handle_left": {"Y": 1, "X": 0.5}, "handle_type": 0, "interpolation": 0}]}, "rotation": {"Points": [{"co": {"Y": 0, "X": 1}, "interpolation": 2}]}, "scale_y": {"Points": [{"co": {"Y": 1, "X": 1}, "interpolation": 2}]}, "crop_y": {"Points": [{"co": {"Y": 0, "X": 1}, "interpolation": 2}]}, "perspective_c3_x": {"Points": [{"co": {"Y": -1, "X": 1}, "interpolation": 2}]}, "end": 15, "crop_width": {"Points": [{"co": {"Y": -1, "X": 1}, "interpolation": 2}]}, "position": 8.8, "id": "0AEDFYGQ7J", "wave_color": {"green": {"Points": [{"handle_right": {"Y": 0, "X": 0.5}, "co": {"Y": 123, "X": 1}, "handle_left": {"Y": 1, "X": 0.5}, "handle_type": 0, "interpolation": 0}]}, "blue": {"Points": [{"handle_right": {"Y": 0, "X": 0.5}, "co": {"Y": 255, "X": 1}, "handle_left": {"Y": 1, "X": 0.5}, "handle_type": 0, "interpolation": 0}]}, "alpha": {"Points": [{"handle_right": {"Y": 0, "X": 0.5}, "co": {"Y": 255, "X": 1}, "handle_left": {"Y": 1, "X": 0.5}, "handle_type": 0, "interpolation": 0}]}, "red": {"Points": [{"handle_right": {"Y": 0, "X": 0.5}, "co": {"Y": 0, "X": 1}, "handle_left": {"Y": 1, "X": 0.5}, "handle_type": 0, "interpolation": 0}]}}, "has_video": {"Points": [{"co": {"Y": -1, "X": 1}, "interpolation": 2}]}, "has_audio": {"Points": [{"co": {"Y": -1, "X": 1}, "interpolation": 2}]}, "effects": [], "location_x": {"Points": [{"co": {"Y": 0, "X": 1}, "interpolation": 2}]}, "waveform": false, "title": "taxi_start.mp4", "image": "/home/robsen/.openshot_qt/thumbnail/LGW3TZJV4Q.png", "gravity": 4, "scale_x": {"Points": [{"co": {"Y": 1, "X": 1}, "interpolation": 2}]}, "perspective_c1_y": {"Points": [{"co": {"Y": -1, "X": 1}, "interpolation": 2}]}, "crop_height": {"Points": [{"co": {"Y": -1, "X": 1}, "interpolation": 2}]}, "crop_x": {"Points": [{"co": {"Y": 0, "X": 1}, "interpolation": 2}]}, "start": 0, "scale": 1, "shear_y": {"Points": [{"co": {"Y": 0, "X": 1}, "interpolation": 2}]}, "display": 0, "volume": {"Points": [{"co": {"Y": 1, "X": 1}, "interpolation": 2}]}, "channel_mapping": {"Points": [{"co": {"Y": -1, "X": 1}, "interpolation": 2}]}, "anchor": 0, "duration": 15.0, "perspective_c3_y": {"Points": [{"co": {"Y": -1, "X": 1}, "interpolation": 2}]}, "shear_x": {"Points": [{"co": {"Y": 0, "X": 1}, "interpolation": 2}]}, "perspective_c4_x": {"Points": [{"co": {"Y": -1, "X": 1}, "interpolation": 2}]}, "location_y": {"Points": [{"co": {"Y": 0, "X": 1}, "interpolation": 2}]}, "perspective_c2_x": {"Points": [{"co": {"Y": -1, "X": 1}, "interpolation": 2}]}, "layer": 0, "perspective_c2_y": {"Points": [{"co": {"Y": -1, "X": 1}, "interpolation": 2}]}, "perspective_c1_x": {"Points": [{"co": {"Y": -1, "X": 1}, "interpolation": 2}]}, "perspective_c4_y": {"Points": [{"co": {"Y": -1, "X": 1}, "interpolation": 2}]}, "reader": {"audio_bit_rate": 0, "has_single_image": false, "has_video": true, "type": "FFmpegReader", "video_length": "375", "audio_timebase": {"den": 1, "num": 1}, "path": "/home/robsen/Dropbox/Workdir/Repo/SuesseRache-HH-Taxi/taxi_start.mp4", "width": 1920, "has_audio": false, "video_bit_rate": 147692, "channel_layout": 4, "height": 1080, "display_ratio": {"den": 9, "num": 16}, "interlaced_frame": false, "video_timebase": {"den": 12800, "num": 1}, "duration": 15.0, "sample_rate": 0, "pixel_format": 0, "fps": {"den": 1, "num": 25}, "file_size": "276924", "top_field_first": true, "pixel_ratio": {"den": 1, "num": 1}, "acodec": "", "audio_stream_index": -1, "video_stream_index": 0, "channels": 0, "vcodec": "h264"}, "channel_filter": {"Points": [{"co": {"Y": -1, "X": 1}, "interpolation": 2}]}, "file_id": "LGW3TZJV4Q", "time": {"Points": [{"co": {"Y": 1, "X": 1}, "interpolation": 2}]}}, "key": ["clips"], "partial": false, "type": "insert"}, {"old_values": null, "value": {"id": "0AEDFYGQ7J", "start": 0, "end": 15, "position": 8.8, "layer": 0, "image": "/home/robsen/.openshot_qt/thumbnail/LGW3TZJV4Q.png"}, "key": ["clips", {"id": "0AEDFYGQ7J"}], "partial": false, "type": "update"}, {"old_values": null, "value": {"id": "0AEDFYGQ7J", "start": 0, "end": 15, "position": 8.8, "layer": 0, "image": "/home/robsen/.openshot_qt/thumbnail/LGW3TZJV4Q.png"}, "key": ["clips", {"id": "0AEDFYGQ7J"}], "partial": false, "type": "update"}, {"old_values": [{"alpha": {"Points": [{"co": {"Y": 1, "X": 1}, "interpolation": 2}]}, "rotation": {"Points": [{"co": {"Y": 0, "X": 1}, "interpolation": 2}]}, "scale_y": {"Points": [{"co": {"Y": 1, "X": 1}, "interpolation": 2}]}, "crop_y": {"Points": [{"co": {"Y": 0, "X": 1}, "interpolation": 2}]}, "perspective_c3_x": {"Points": [{"co": {"Y": -1, "X": 1}, "interpolation": 2}]}, "end": 15, "crop_width": {"Points": [{"co": {"Y": -1, "X": 1}, "interpolation": 2}]}, "position": 8.8, "id": "0AEDFYGQ7J", "wave_color": {"green": {"Points": [{"handle_right": {"Y": 0, "X": 0.5}, "co": {"Y": 123, "X": 1}, "handle_left": {"Y": 1, "X": 0.5}, "handle_type": 0, "interpolation": 0}]}, "blue": {"Points": [{"handle_right": {"Y": 0, "X": 0.5}, "co": {"Y": 255, "X": 1}, "handle_left": {"Y": 1, "X": 0.5}, "handle_type": 0, "interpolation": 0}]}, "alpha": {"Points": [{"handle_right": {"Y": 0, "X": 0.5}, "co": {"Y": 255, "X": 1}, "handle_left": {"Y": 1, "X": 0.5}, "handle_type": 0, "interpolation": 0}]}, "red": {"Points": [{"handle_right": {"Y": 0, "X": 0.5}, "co": {"Y": 0, "X": 1}, "handle_left": {"Y": 1, "X": 0.5}, "handle_type": 0, "interpolation": 0}]}}, "has_video": {"Points": [{"co": {"Y": -1, "X": 1}, "interpolation": 2}]}, "has_audio": {"Points": [{"co": {"Y": -1, "X": 1}, "interpolation": 2}]}, "effects": [], "location_x": {"Points": [{"co": {"Y": 0, "X": 1}, "interpolation": 2}]}, "waveform": false, "title": "taxi_start.mp4", "image": "/home/robsen/.openshot_qt/thumbnail/LGW3TZJV4Q.png", "gravity": 4, "perspective_c2_x": {"Points": [{"co": {"Y": -1, "X": 1}, "interpolation": 2}]}, "perspective_c1_y": {"Points": [{"co": {"Y": -1, "X": 1}, "interpolation": 2}]}, "crop_height": {"Points": [{"co": {"Y": -1, "X": 1}, "interpolation": 2}]}, "crop_x": {"Points": [{"co": {"Y": 0, "X": 1}, "interpolation": 2}]}, "start": 0, "scale": 1, "shear_y": {"Points": [{"co": {"Y": 0, "X": 1}, "interpolation": 2}]}, "display": 0, "volume": {"Points": [{"co": {"Y": 1, "X": 1}, "interpolation": 2}]}, "channel_mapping": {"Points": [{"co": {"Y": -1, "X": 1}, "interpolation": 2}]}, "anchor": 0, "duration": 15.0, "perspective_c3_y": {"Points": [{"co": {"Y": -1, "X": 1}, "interpolation": 2}]}, "shear_x": {"Points": [{"co": {"Y": 0, "X": 1}, "interpolation": 2}]}, "perspective_c4_x": {"Points": [{"co": {"Y": -1, "X": 1}, "interpolation": 2}]}, "location_y": {"Points": [{"co": {"Y": 0, "X": 1}, "interpolation": 2}]}, "scale_x": {"Points": [{"co": {"Y": 1, "X": 1}, "interpolation": 2}]}, "layer": 0, "perspective_c2_y": {"Points": [{"co": {"Y": -1, "X": 1}, "interpolation": 2}]}, "perspective_c1_x": {"Points": [{"co": {"Y": -1, "X": 1}, "interpolation": 2}]}, "perspective_c4_y": {"Points": [{"co": {"Y": -1, "X": 1}, "interpolation": 2}]}, "reader": {"audio_bit_rate": 0, "has_single_image": false, "vcodec": "h264", "has_video": true, "type": "FFmpegReader", "video_length": "375", "audio_timebase": {"den": 1, "num": 1}, "path": "/home/robsen/Dropbox/Workdir/Repo/SuesseRache-HH-Taxi/taxi_start.mp4", "width": 1920, "has_audio": false, "video_bit_rate": 147692, "channel_layout": 4, "height": 1080, "display_ratio": {"den": 9, "num": 16}, "interlaced_frame": false, "duration": 15.0, "sample_rate": 0, "pixel_format": 0, "video_timebase": {"den": 12800, "num": 1}, "file_size": "276924", "top_field_first": true, "pixel_ratio": {"den": 1, "num": 1}, "acodec": "", "audio_stream_index": -1, "video_stream_index": 0, "channels": 0, "fps": {"den": 1, "num": 25}}, "channel_filter": {"Points": [{"co": {"Y": -1, "X": 1}, "interpolation": 2}]}, "file_id": "LGW3TZJV4Q", "time": {"Points": [{"co": {"Y": 1, "X": 1}, "interpolation": 2}]}}], "value": {"alpha": {"Points": [{"co": {"Y": 1, "X": 1}, "interpolation": 2}]}, "rotation": {"Points": [{"co": {"Y": 0, "X": 1}, "interpolation": 2}]}, "scale_y": {"Points": [{"co": {"Y": 1, "X": 1}, "interpolation": 2}]}, "crop_y": {"Points": [{"co": {"Y": 0, "X": 1}, "interpolation": 2}]}, "perspective_c3_x": {"Points": [{"co": {"Y": -1, "X": 1}, "interpolation": 2}]}, "end": 31.317333221435547, "crop_width": {"Points": [{"co": {"Y": -1, "X": 1}, "interpolation": 2}]}, "position": 21.76, "id": "627XQDJ3EP", "wave_color": {"green": {"Points": [{"handle_right": {"Y": 0, "X": 0.5}, "co": {"Y": 123, "X": 1}, "handle_left": {"Y": 1, "X": 0.5}, "handle_type": 0, "interpolation": 0}]}, "blue": {"Points": [{"handle_right": {"Y": 0, "X": 0.5}, "co": {"Y": 255, "X": 1}, "handle_left": {"Y": 1, "X": 0.5}, "handle_type": 0, "interpolation": 0}]}, "alpha": {"Points": [{"handle_right": {"Y": 0, "X": 0.5}, "co": {"Y": 255, "X": 1}, "handle_left": {"Y": 1, "X": 0.5}, "handle_type": 0, "interpolation": 0}]}, "red": {"Points": [{"handle_right": {"Y": 0, "X": 0.5}, "co": {"Y": 0, "X": 1}, "handle_left": {"Y": 1, "X": 0.5}, "handle_type": 0, "interpolation": 0}]}}, "has_video": {"Points": [{"co": {"Y": -1, "X": 1}, "interpolation": 2}]}, "has_audio": {"Points": [{"co": {"Y": -1, "X": 1}, "interpolation": 2}]}, "effects": [], "location_x": {"Points": [{"co": {"Y": 0, "X": 1}, "interpolation": 2}]}, "waveform": false, "title": "TE_SR_Taxi.mp4", "image": "/home/robsen/.openshot_qt/thumbnail/Z3LOYBY1PL.png", "gravity": 4, "scale_x": {"Points": [{"co": {"Y": 1, "X": 1}, "interpolation": 2}]}, "perspective_c1_y": {"Points": [{"co": {"Y": -1, "X": 1}, "interpolation": 2}]}, "crop_height": {"Points": [{"co": {"Y": -1, "X": 1}, "interpolation": 2}]}, "crop_x": {"Points": [{"co": {"Y": 0, "X": 1}, "interpolation": 2}]}, "start": 0, "scale": 1, "shear_y": {"Points": [{"co": {"Y": 0, "X": 1}, "interpolation": 2}]}, "display": 0, "volume": {"Points": [{"co": {"Y": 1, "X": 1}, "interpolation": 2}]}, "channel_mapping": {"Points": [{"co": {"Y": -1, "X": 1}, "interpolation": 2}]}, "anchor": 0, "duration": 31.317333221435547, "perspective_c3_y": {"Points": [{"co": {"Y": -1, "X": 1}, "interpolation": 2}]}, "shear_x": {"Points": [{"co": {"Y": 0, "X": 1}, "interpolation": 2}]}, "perspective_c4_x": {"Points": [{"co": {"Y": -1, "X": 1}, "interpolation": 2}]}, "location_y": {"Points": [{"co": {"Y": 0, "X": 1}, "interpolation": 2}]}, "perspective_c2_x": {"Points": [{"co": {"Y": -1, "X": 1}, "interpolation": 2}]}, "layer": 1, "perspective_c2_y": {"Points": [{"co": {"Y": -1, "X": 1}, "interpolation": 2}]}, "perspective_c1_x": {"Points": [{"co": {"Y": -1, "X": 1}, "interpolation": 2}]}, "perspective_c4_y": {"Points": [{"co": {"Y": -1, "X": 1}, "interpolation": 2}]}, "reader": {"audio_bit_rate": 189375, "has_single_image": false, "has_video": true, "type": "FFmpegReader", "video_length": "937", "audio_timebase": {"den": 48000, "num": 1}, "path": "/home/robsen/Dropbox/Workdir/Repo/SuesseRache-HH-Taxi/TE_SR_Taxi.mp4", "width": 1920, "has_audio": true, "video_bit_rate": 32091692, "channel_layout": 3, "height": 1080, "display_ratio": {"den": 9, "num": 16}, "interlaced_frame": false, "video_timebase": {"den": 29970, "num": 1}, "duration": 31.317333221435547, "sample_rate": 48000, "pixel_format": 0, "fps": {"den": 100, "num": 2997}, "file_size": "125628279", "top_field_first": true, "pixel_ratio": {"den": 1, "num": 1}, "acodec": "aac", "audio_stream_index": 1, "video_stream_index": 0, "channels": 2, "vcodec": "h264"}, "channel_filter": {"Points": [{"co": {"Y": -1, "X": 1}, "interpolation": 2}]}, "file_id": "Z3LOYBY1PL", "time": {"Points": [{"co": {"Y": 1, "X": 1}, "interpolation": 2}]}}, "key": ["clips"], "partial": false, "type": "insert"}, {"old_values": {"alpha": {"Points": [{"co": {"Y": 1, "X": 1}, "interpolation": 2}]}, "rotation": {"Points": [{"co": {"Y": 0, "X": 1}, "interpolation": 2}]}, "scale_y": {"Points": [{"co": {"Y": 1, "X": 1}, "interpolation": 2}]}, "crop_y": {"Points": [{"co": {"Y": 0, "X": 1}, "interpolation": 2}]}, "perspective_c3_x": {"Points": [{"co": {"Y": -1, "X": 1}, "interpolation": 2}]}, "end": 31.317333221435547, "crop_width": {"Points": [{"co": {"Y": -1, "X": 1}, "interpolation": 2}]}, "position": 18.88, "id": "627XQDJ3EP", "wave_color": {"green": {"Points": [{"handle_right": {"Y": 0, "X": 0.5}, "co": {"Y": 123, "X": 1}, "handle_left": {"Y": 1, "X": 0.5}, "handle_type": 0, "interpolation": 0}]}, "blue": {"Points": [{"handle_right": {"Y": 0, "X": 0.5}, "co": {"Y": 255, "X": 1}, "handle_left": {"Y": 1, "X": 0.5}, "handle_type": 0, "interpolation": 0}]}, "alpha": {"Points": [{"handle_right": {"Y": 0, "X": 0.5}, "co": {"Y": 255, "X": 1}, "handle_left": {"Y": 1, "X": 0.5}, "handle_type": 0, "interpolation": 0}]}, "red": {"Points": [{"handle_right": {"Y": 0, "X": 0.5}, "co": {"Y": 0, "X": 1}, "handle_left": {"Y": 1, "X": 0.5}, "handle_type": 0, "interpolation": 0}]}}, "has_video": {"Points": [{"co": {"Y": -1, "X": 1}, "interpolation": 2}]}, "has_audio": {"Points": [{"co": {"Y": -1, "X": 1}, "interpolation": 2}]}, "effects": [], "location_x": {"Points": [{"co": {"Y": 0, "X": 1}, "interpolation": 2}]}, "waveform": false, "title": "TE_SR_Taxi.mp4", "image": "/home/robsen/.openshot_qt/thumbnail/Z3LOYBY1PL.png", "gravity": 4, "scale_x": {"Points": [{"co": {"Y": 1, "X": 1}, "interpolation": 2}]}, "perspective_c1_y": {"Points": [{"co": {"Y": -1, "X": 1}, "interpolation": 2}]}, "crop_height": {"Points": [{"co": {"Y": -1, "X": 1}, "interpolation": 2}]}, "crop_x": {"Points": [{"co": {"Y": 0, "X": 1}, "interpolation": 2}]}, "start": 0, "scale": 1, "shear_y": {"Points": [{"co": {"Y": 0, "X": 1}, "interpolation": 2}]}, "display": 0, "volume": {"Points": [{"co": {"Y": 1, "X": 1}, "interpolation": 2}]}, "channel_mapping": {"Points": [{"co": {"Y": -1, "X": 1}, "interpolation": 2}]}, "anchor": 0, "duration": 31.317333221435547, "perspective_c3_y": {"Points": [{"co": {"Y": -1, "X": 1}, "interpolation": 2}]}, "shear_x": {"Points": [{"co": {"Y": 0, "X": 1}, "interpolation": 2}]}, "perspective_c4_x": {"Points": [{"co": {"Y": -1, "X": 1}, "interpolation": 2}]}, "location_y": {"Points": [{"co": {"Y": 0, "X": 1}, "interpolation": 2}]}, "perspective_c2_x": {"Points": [{"co": {"Y": -1, "X": 1}, "interpolation": 2}]}, "layer": 2, "perspective_c2_y": {"Points": [{"co": {"Y": -1, "X": 1}, "interpolation": 2}]}, "perspective_c1_x": {"Points": [{"co": {"Y": -1, "X": 1}, "interpolation": 2}]}, "perspective_c4_y": {"Points": [{"co": {"Y": -1, "X": 1}, "interpolation": 2}]}, "reader": {"audio_bit_rate": 189375, "has_single_image": false, "vcodec": "h264", "has_video": true, "type": "FFmpegReader", "video_length": "937", "audio_timebase": {"den": 48000, "num": 1}, "path": "/home/robsen/Dropbox/Workdir/Repo/SuesseRache-HH-Taxi/TE_SR_Taxi.mp4", "width": 1920, "has_audio": true, "video_bit_rate": 32091692, "channel_layout": 3, "height": 1080, "display_ratio": {"den": 9, "num": 16}, "interlaced_frame": false, "duration": 31.317333221435547, "sample_rate": 48000, "pixel_format": 0, "video_timebase": {"den": 29970, "num": 1}, "file_size": "125628279", "top_field_first": true, "pixel_ratio": {"den": 1, "num": 1}, "acodec": "aac", "audio_stream_index": 1, "video_stream_index": 0, "channels": 2, "fps": {"den": 100, "num": 2997}}, "channel_filter": {"Points": [{"co": {"Y": -1, "X": 1}, "interpolation": 2}]}, "file_id": "Z3LOYBY1PL", "time": {"Points": [{"co": {"Y": 1, "X": 1}, "interpolation": 2}]}}, "value": {"id": "627XQDJ3EP", "start": 0, "end": 31.317333221435547, "position": 21.76, "layer": 0, "image": "/home/robsen/.openshot_qt/thumbnail/Z3LOYBY1PL.png"}, "key": ["clips", {"id": "627XQDJ3EP"}], "partial": false, "type": "update"}, {"old_values": [], "value": {"start": 0, "type": "Mask", "contrast": {"Points": [{"co": {"Y": 3, "X": 1}, "interpolation": 2}]}, "layer": 0, "replace_image": false, "title": "Transition", "end": 2.039999999999999, "reader": {"audio_bit_rate": 0, "has_single_image": true, "has_video": true, "type": "QtImageReader", "video_length": "2592000", "audio_timebase": {"den": 1, "num": 1}, "path": "/usr/lib/python3/dist-packages/openshot_qt/transitions/common/fade.svg", "width": 720, "has_audio": false, "video_bit_rate": 0, "channel_layout": 4, "height": 576, "display_ratio": {"den": 4, "num": 5}, "interlaced_frame": false, "video_timebase": {"den": 30, "num": 1}, "duration": 86400, "sample_rate": 0, "pixel_format": -1, "fps": {"den": 1, "num": 30}, "file_size": "1658880", "top_field_first": true, "pixel_ratio": {"den": 1, "num": 1}, "acodec": "", "audio_stream_index": -1, "video_stream_index": -1, "channels": 0, "vcodec": ""}, "brightness": {"Points": [{"handle_right": {"Y": 0, "X": 0.5}, "co": {"Y": 1, "X": 1}, "handle_left": {"Y": 1, "X": 0.5}, "handle_type": 0, "interpolation": 0}, {"handle_right": {"Y": 0, "X": 0.5}, "co": {"Y": -1, "X": 50}, "handle_left": {"Y": 1, "X": 0.5}, "handle_type": 0, "interpolation": 0}]}, "id": "5NBS5H99MA", "position": 21.76}, "key": ["effects"], "partial": false, "type": "insert"}, {"old_values": {"alpha": {"Points": [{"co": {"Y": 1, "X": 1}, "interpolation": 2}]}, "rotation": {"Points": [{"co": {"Y": 0, "X": 1}, "interpolation": 2}]}, "scale_y": {"Points": [{"co": {"Y": 1, "X": 1}, "interpolation": 2}]}, "crop_y": {"Points": [{"co": {"Y": 0, "X": 1}, "interpolation": 2}]}, "perspective_c3_x": {"Points": [{"co": {"Y": -1, "X": 1}, "interpolation": 2}]}, "end": 31.317333221435547, "crop_width": {"Points": [{"co": {"Y": -1, "X": 1}, "interpolation": 2}]}, "position": 21.76, "id": "627XQDJ3EP", "wave_color": {"green": {"Points": [{"handle_right": {"Y": 0, "X": 0.5}, "co": {"Y": 123, "X": 1}, "handle_left": {"Y": 1, "X": 0.5}, "handle_type": 0, "interpolation": 0}]}, "blue": {"Points": [{"handle_right": {"Y": 0, "X": 0.5}, "co": {"Y": 255, "X": 1}, "handle_left": {"Y": 1, "X": 0.5}, "handle_type": 0, "interpolation": 0}]}, "alpha": {"Points": [{"handle_right": {"Y": 0, "X": 0.5}, "co": {"Y": 255, "X": 1}, "handle_left": {"Y": 1, "X": 0.5}, "handle_type": 0, "interpolation": 0}]}, "red": {"Points": [{"handle_right": {"Y": 0, "X": 0.5}, "co": {"Y": 0, "X": 1}, "handle_left": {"Y": 1, "X": 0.5}, "handle_type": 0, "interpolation": 0}]}}, "has_video": {"Points": [{"co": {"Y": -1, "X": 1}, "interpolation": 2}]}, "has_audio": {"Points": [{"co": {"Y": -1, "X": 1}, "interpolation": 2}]}, "effects": [], "location_x": {"Points": [{"co": {"Y": 0, "X": 1}, "interpolation": 2}]}, "waveform": false, "title": "TE_SR_Taxi.mp4", "image": "/home/robsen/.openshot_qt/thumbnail/Z3LOYBY1PL.png", "gravity": 4, "perspective_c2_x": {"Points": [{"co": {"Y": -1, "X": 1}, "interpolation": 2}]}, "perspective_c1_y": {"Points": [{"co": {"Y": -1, "X": 1}, "interpolation": 2}]}, "crop_height": {"Points": [{"co": {"Y": -1, "X": 1}, "interpolation": 2}]}, "crop_x": {"Points": [{"co": {"Y": 0, "X": 1}, "interpolation": 2}]}, "start": 0, "scale": 1, "shear_y": {"Points": [{"co": {"Y": 0, "X": 1}, "interpolation": 2}]}, "display": 0, "volume": {"Points": [{"co": {"Y": 1, "X": 1}, "interpolation": 2}]}, "channel_mapping": {"Points": [{"co": {"Y": -1, "X": 1}, "interpolation": 2}]}, "anchor": 0, "duration": 31.317333221435547, "perspective_c3_y": {"Points": [{"co": {"Y": -1, "X": 1}, "interpolation": 2}]}, "shear_x": {"Points": [{"co": {"Y": 0, "X": 1}, "interpolation": 2}]}, "perspective_c4_x": {"Points": [{"co": {"Y": -1, "X": 1}, "interpolation": 2}]}, "location_y": {"Points": [{"co": {"Y": 0, "X": 1}, "interpolation": 2}]}, "scale_x": {"Points": [{"co": {"Y": 1, "X": 1}, "interpolation": 2}]}, "layer": 0, "perspective_c2_y": {"Points": [{"co": {"Y": -1, "X": 1}, "interpolation": 2}]}, "perspective_c1_x": {"Points": [{"co": {"Y": -1, "X": 1}, "interpolation": 2}]}, "perspective_c4_y": {"Points": [{"co": {"Y": -1, "X": 1}, "interpolation": 2}]}, "reader": {"audio_bit_rate": 189375, "has_single_image": false, "vcodec": "h264", "has_video": true, "type": "FFmpegReader", "video_length": "937", "audio_timebase": {"den": 48000, "num": 1}, "path": "/home/robsen/Dropbox/Workdir/Repo/SuesseRache-HH-Taxi/TE_SR_Taxi.mp4", "width": 1920, "has_audio": true, "video_bit_rate": 32091692, "channel_layout": 3, "height": 1080, "display_ratio": {"den": 9, "num": 16}, "interlaced_frame": false, "duration": 31.317333221435547, "sample_rate": 48000, "pixel_format": 0, "video_timebase": {"den": 29970, "num": 1}, "file_size": "125628279", "top_field_first": true, "pixel_ratio": {"den": 1, "num": 1}, "acodec": "aac", "audio_stream_index": 1, "video_stream_index": 0, "channels": 2, "fps": {"den": 100, "num": 2997}}, "channel_filter": {"Points": [{"co": {"Y": -1, "X": 1}, "interpolation": 2}]}, "file_id": "Z3LOYBY1PL", "time": {"Points": [{"co": {"Y": 1, "X": 1}, "interpolation": 2}]}}, "value": {"id": "627XQDJ3EP", "start": 0, "end": 31.317333221435547, "position": 21.76, "layer": 1, "image": "/home/robsen/.openshot_qt/thumbnail/Z3LOYBY1PL.png"}, "key": ["clips", {"id": "627XQDJ3EP"}], "partial": false, "type": "update"}, {"old_values": [{"alpha": {"Points": [{"co": {"Y": 1, "X": 1}, "interpolation": 2}]}, "rotation": {"Points": [{"co": {"Y": 0, "X": 1}, "interpolation": 2}]}, "scale_y": {"Points": [{"co": {"Y": 1, "X": 1}, "interpolation": 2}]}, "crop_y": {"Points": [{"co": {"Y": 0, "X": 1}, "interpolation": 2}]}, "perspective_c3_x": {"Points": [{"co": {"Y": -1, "X": 1}, "interpolation": 2}]}, "end": 15, "crop_width": {"Points": [{"co": {"Y": -1, "X": 1}, "interpolation": 2}]}, "position": 8.8, "id": "0AEDFYGQ7J", "wave_color": {"green": {"Points": [{"handle_right": {"Y": 0, "X": 0.5}, "co": {"Y": 123, "X": 1}, "handle_left": {"Y": 1, "X": 0.5}, "handle_type": 0, "interpolation": 0}]}, "blue": {"Points": [{"handle_right": {"Y": 0, "X": 0.5}, "co": {"Y": 255, "X": 1}, "handle_left": {"Y": 1, "X": 0.5}, "handle_type": 0, "interpolation": 0}]}, "alpha": {"Points": [{"handle_right": {"Y": 0, "X": 0.5}, "co": {"Y": 255, "X": 1}, "handle_left": {"Y": 1, "X": 0.5}, "handle_type": 0, "interpolation": 0}]}, "red": {"Points": [{"handle_right": {"Y": 0, "X": 0.5}, "co": {"Y": 0, "X": 1}, "handle_left": {"Y": 1, "X": 0.5}, "handle_type": 0, "interpolation": 0}]}}, "has_video": {"Points": [{"co": {"Y": -1, "X": 1}, "interpolation": 2}]}, "has_audio": {"Points": [{"co": {"Y": -1, "X": 1}, "interpolation": 2}]}, "effects": [], "location_x": {"Points": [{"co": {"Y": 0, "X": 1}, "interpolation": 2}]}, "waveform": false, "title": "taxi_start.mp4", "image": "/home/robsen/.openshot_qt/thumbnail/LGW3TZJV4Q.png", "gravity": 4, "perspective_c2_x": {"Points": [{"co": {"Y": -1, "X": 1}, "interpolation": 2}]}, "perspective_c1_y": {"Points": [{"co": {"Y": -1, "X": 1}, "interpolation": 2}]}, "crop_height": {"Points": [{"co": {"Y": -1, "X": 1}, "interpolation": 2}]}, "crop_x": {"Points": [{"co": {"Y": 0, "X": 1}, "interpolation": 2}]}, "start": 0, "scale": 1, "shear_y": {"Points": [{"co": {"Y": 0, "X": 1}, "interpolation": 2}]}, "display": 0, "volume": {"Points": [{"co": {"Y": 1, "X": 1}, "interpolation": 2}]}, "channel_mapping": {"Points": [{"co": {"Y": -1, "X": 1}, "interpolation": 2}]}, "anchor": 0, "duration": 15.0, "perspective_c3_y": {"Points": [{"co": {"Y": -1, "X": 1}, "interpolation": 2}]}, "shear_x": {"Points": [{"co": {"Y": 0, "X": 1}, "interpolation": 2}]}, "perspective_c4_x": {"Points": [{"co": {"Y": -1, "X": 1}, "interpolation": 2}]}, "location_y": {"Points": [{"co": {"Y": 0, "X": 1}, "interpolation": 2}]}, "scale_x": {"Points": [{"co": {"Y": 1, "X": 1}, "interpolation": 2}]}, "layer": 0, "perspective_c2_y": {"Points": [{"co": {"Y": -1, "X": 1}, "interpolation": 2}]}, "perspective_c1_x": {"Points": [{"co": {"Y": -1, "X": 1}, "interpolation": 2}]}, "perspective_c4_y": {"Points": [{"co": {"Y": -1, "X": 1}, "interpolation": 2}]}, "reader": {"audio_bit_rate": 0, "has_single_image": false, "vcodec": "h264", "has_video": true, "type": "FFmpegReader", "video_length": "375", "audio_timebase": {"den": 1, "num": 1}, "path": "/home/robsen/Dropbox/Workdir/Repo/SuesseRache-HH-Taxi/taxi_start.mp4", "width": 1920, "has_audio": false, "video_bit_rate": 147692, "channel_layout": 4, "height": 1080, "display_ratio": {"den": 9, "num": 16}, "interlaced_frame": false, "duration": 15.0, "sample_rate": 0, "pixel_format": 0, "video_timebase": {"den": 12800, "num": 1}, "file_size": "276924", "top_field_first": true, "pixel_ratio": {"den": 1, "num": 1}, "acodec": "", "audio_stream_index": -1, "video_stream_index": 0, "channels": 0, "fps": {"den": 1, "num": 25}}, "channel_filter": {"Points": [{"co": {"Y": -1, "X": 1}, "interpolation": 2}]}, "file_id": "LGW3TZJV4Q", "time": {"Points": [{"co": {"Y": 1, "X": 1}, "interpolation": 2}]}}, {"alpha": {"Points": [{"co": {"Y": 1, "X": 1}, "interpolation": 2}]}, "rotation": {"Points": [{"co": {"Y": 0, "X": 1}, "interpolation": 2}]}, "scale_y": {"Points": [{"co": {"Y": 1, "X": 1}, "interpolation": 2}]}, "crop_y": {"Points": [{"co": {"Y": 0, "X": 1}, "interpolation": 2}]}, "perspective_c3_x": {"Points": [{"co": {"Y": -1, "X": 1}, "interpolation": 2}]}, "end": 31.317333221435547, "crop_width": {"Points": [{"co": {"Y": -1, "X": 1}, "interpolation": 2}]}, "position": 21.76, "id": "627XQDJ3EP", "wave_color": {"green": {"Points": [{"handle_right": {"Y": 0, "X": 0.5}, "co": {"Y": 123, "X": 1}, "handle_left": {"Y": 1, "X": 0.5}, "handle_type": 0, "interpolation": 0}]}, "blue": {"Points": [{"handle_right": {"Y": 0, "X": 0.5}, "co": {"Y": 255, "X": 1}, "handle_left": {"Y": 1, "X": 0.5}, "handle_type": 0, "interpolation": 0}]}, "alpha": {"Points": [{"handle_right": {"Y": 0, "X": 0.5}, "co": {"Y": 255, "X": 1}, "handle_left": {"Y": 1, "X": 0.5}, "handle_type": 0, "interpolation": 0}]}, "red": {"Points": [{"handle_right": {"Y": 0, "X": 0.5}, "co": {"Y": 0, "X": 1}, "handle_left": {"Y": 1, "X": 0.5}, "handle_type": 0, "interpolation": 0}]}}, "has_video": {"Points": [{"co": {"Y": -1, "X": 1}, "interpolation": 2}]}, "has_audio": {"Points": [{"co": {"Y": -1, "X": 1}, "interpolation": 2}]}, "effects": [], "location_x": {"Points": [{"co": {"Y": 0, "X": 1}, "interpolation": 2}]}, "waveform": false, "title": "TE_SR_Taxi.mp4", "image": "/home/robsen/.openshot_qt/thumbnail/Z3LOYBY1PL.png", "gravity": 4, "perspective_c2_x": {"Points": [{"co": {"Y": -1, "X": 1}, "interpolation": 2}]}, "perspective_c1_y": {"Points": [{"co": {"Y": -1, "X": 1}, "interpolation": 2}]}, "crop_height": {"Points": [{"co": {"Y": -1, "X": 1}, "interpolation": 2}]}, "crop_x": {"Points": [{"co": {"Y": 0, "X": 1}, "interpolation": 2}]}, "start": 0, "scale": 1, "shear_y": {"Points": [{"co": {"Y": 0, "X": 1}, "interpolation": 2}]}, "display": 0, "volume": {"Points": [{"co": {"Y": 1, "X": 1}, "interpolation": 2}]}, "channel_mapping": {"Points": [{"co": {"Y": -1, "X": 1}, "interpolation": 2}]}, "anchor": 0, "duration": 31.317333221435547, "perspective_c3_y": {"Points": [{"co": {"Y": -1, "X": 1}, "interpolation": 2}]}, "shear_x": {"Points": [{"co": {"Y": 0, "X": 1}, "interpolation": 2}]}, "perspective_c4_x": {"Points": [{"co": {"Y": -1, "X": 1}, "interpolation": 2}]}, "location_y": {"Points": [{"co": {"Y": 0, "X": 1}, "interpolation": 2}]}, "scale_x": {"Points": [{"co": {"Y": 1, "X": 1}, "interpolation": 2}]}, "layer": 1, "perspective_c2_y": {"Points": [{"co": {"Y": -1, "X": 1}, "interpolation": 2}]}, "perspective_c1_x": {"Points": [{"co": {"Y": -1, "X": 1}, "interpolation": 2}]}, "perspective_c4_y": {"Points": [{"co": {"Y": -1, "X": 1}, "interpolation": 2}]}, "reader": {"audio_bit_rate": 189375, "has_single_image": false, "vcodec": "h264", "has_video": true, "type": "FFmpegReader", "video_length": "937", "audio_timebase": {"den": 48000, "num": 1}, "path": "/home/robsen/Dropbox/Workdir/Repo/SuesseRache-HH-Taxi/TE_SR_Taxi.mp4", "width": 1920, "has_audio": true, "video_bit_rate": 32091692, "channel_layout": 3, "height": 1080, "display_ratio": {"den": 9, "num": 16}, "interlaced_frame": false, "duration": 31.317333221435547, "sample_rate": 48000, "pixel_format": 0, "video_timebase": {"den": 29970, "num": 1}, "file_size": "125628279", "top_field_first": true, "pixel_ratio": {"den": 1, "num": 1}, "acodec": "aac", "audio_stream_index": 1, "video_stream_index": 0, "channels": 2, "fps": {"den": 100, "num": 2997}}, "channel_filter": {"Points": [{"co": {"Y": -1, "X": 1}, "interpolation": 2}]}, "file_id": "Z3LOYBY1PL", "time": {"Points": [{"co": {"Y": 1, "X": 1}, "interpolation": 2}]}}], "value": {"alpha": {"Points": [{"co": {"Y": 1, "X": 1}, "interpolation": 2}, {"handle_right": {"Y": 0, "X": 0.5}, "co": {"Y": 0, "X": 1}, "handle_left": {"Y": 1, "X": 0.5}, "handle_type": 0, "interpolation": 0}, {"handle_right": {"Y": 0, "X": 0.5}, "co": {"Y": 1, "X": 73}, "handle_left": {"Y": 1, "X": 0.5}, "handle_type": 0, "interpolation": 0}]}, "rotation": {"Points": [{"co": {"Y": 0, "X": 1}, "interpolation": 2}]}, "scale_y": {"Points": [{"co": {"Y": 1, "X": 1}, "interpolation": 2}]}, "crop_y": {"Points": [{"co": {"Y": 0, "X": 1}, "interpolation": 2}]}, "perspective_c3_x": {"Points": [{"co": {"Y": -1, "X": 1}, "interpolation": 2}]}, "end": 15, "crop_width": {"Points": [{"co": {"Y": -1, "X": 1}, "interpolation": 2}]}, "position": 53.075, "id": "PJWPMFXKV3", "wave_color": {"green": {"Points": [{"handle_right": {"Y": 0, "X": 0.5}, "co": {"Y": 123, "X": 1}, "handle_left": {"Y": 1, "X": 0.5}, "handle_type": 0, "interpolation": 0}]}, "blue": {"Points": [{"handle_right": {"Y": 0, "X": 0.5}, "co": {"Y": 255, "X": 1}, "handle_left": {"Y": 1, "X": 0.5}, "handle_type": 0, "interpolation": 0}]}, "alpha": {"Points": [{"handle_right": {"Y": 0, "X": 0.5}, "co": {"Y": 255, "X": 1}, "handle_left": {"Y": 1, "X": 0.5}, "handle_type": 0, "interpolation": 0}]}, "red": {"Points": [{"handle_right": {"Y": 0, "X": 0.5}, "co": {"Y": 0, "X": 1}, "handle_left": {"Y": 1, "X": 0.5}, "handle_type": 0, "interpolation": 0}]}}, "has_video": {"Points": [{"co": {"Y": -1, "X": 1}, "interpolation": 2}]}, "has_audio": {"Points": [{"co": {"Y": -1, "X": 1}, "interpolation": 2}]}, "effects": [], "location_x": {"Points": [{"co": {"Y": 0, "X": 1}, "interpolation": 2}]}, "waveform": false, "title": "arrow.mp4", "image": "/home/robsen/.openshot_qt/thumbnail/X22V56NF57.png", "gravity": 4, "scale_x": {"Points": [{"co": {"Y": 1, "X": 1}, "interpolation": 2}]}, "perspective_c1_y": {"Points": [{"co": {"Y": -1, "X": 1}, "interpolation": 2}]}, "crop_height": {"Points": [{"co": {"Y": -1, "X": 1}, "interpolation": 2}]}, "crop_x": {"Points": [{"co": {"Y": 0, "X": 1}, "interpolation": 2}]}, "start": 0, "scale": 1, "shear_y": {"Points": [{"co": {"Y": 0, "X": 1}, "interpolation": 2}]}, "display": 0, "volume": {"Points": [{"co": {"Y": 1, "X": 1}, "interpolation": 2}]}, "channel_mapping": {"Points": [{"co": {"Y": -1, "X": 1}, "interpolation": 2}]}, "anchor": 0, "duration": 15.0, "perspective_c3_y": {"Points": [{"co": {"Y": -1, "X": 1}, "interpolation": 2}]}, "shear_x": {"Points": [{"co": {"Y": 0, "X": 1}, "interpolation": 2}]}, "perspective_c4_x": {"Points": [{"co": {"Y": -1, "X": 1}, "interpolation": 2}]}, "location_y": {"Points": [{"co": {"Y": 0, "X": 1}, "interpolation": 2}]}, "perspective_c2_x": {"Points": [{"co": {"Y": -1, "X": 1}, "interpolation": 2}]}, "layer": 2, "perspective_c2_y": {"Points": [{"co": {"Y": -1, "X": 1}, "interpolation": 2}]}, "perspective_c1_x": {"Points": [{"co": {"Y": -1, "X": 1}, "interpolation": 2}]}, "perspective_c4_y": {"Points": [{"co": {"Y": -1, "X": 1}, "interpolation": 2}]}, "reader": {"audio_bit_rate": 0, "has_single_image": false, "has_video": true, "type": "FFmpegReader", "video_length": "375", "audio_timebase": {"den": 1, "num": 1}, "path": "/home/robsen/Dropbox/Workdir/Repo/SuesseRache-HH-Taxi/arrow.mp4", "width": 1920, "has_audio": false, "video_bit_rate": 83079, "channel_layout": 4, "height": 1080, "display_ratio": {"den": 9, "num": 16}, "interlaced_frame": false, "video_timebase": {"den": 12800, "num": 1}, "duration": 15.0, "sample_rate": 0, "pixel_format": 0, "fps": {"den": 1, "num": 25}, "file_size": "155774", "top_field_first": true, "pixel_ratio": {"den": 1, "num": 1}, "acodec": "", "audio_stream_index": -1, "video_stream_index": 0, "channels": 0, "vcodec": "h264"}, "channel_filter": {"Points": [{"co": {"Y": -1, "X": 1}, "interpolation": 2}]}, "file_id": "X22V56NF57", "time": {"Points": [{"co": {"Y": 1, "X": 1}, "interpolation": 2}]}}, "key": ["clips"], "partial": false, "type": "insert"}, {"old_values": {"alpha": {"Points": [{"co": {"Y": 1, "X": 1}, "interpolation": 2}]}, "rotation": {"Points": [{"co": {"Y": 0, "X": 1}, "interpolation": 2}]}, "scale_y": {"Points": [{"co": {"Y": 1, "X": 1}, "interpolation": 2}]}, "crop_y": {"Points": [{"co": {"Y": 0, "X": 1}, "interpolation": 2}]}, "perspective_c3_x": {"Points": [{"co": {"Y": -1, "X": 1}, "interpolation": 2}]}, "end": 15.0, "crop_width": {"Points": [{"co": {"Y": -1, "X": 1}, "interpolation": 2}]}, "position": 62.88, "id": "PJWPMFXKV3", "wave_color": {"green": {"Points": [{"handle_right": {"Y": 0, "X": 0.5}, "co": {"Y": 123, "X": 1}, "handle_left": {"Y": 1, "X": 0.5}, "handle_type": 0, "interpolation": 0}]}, "blue": {"Points": [{"handle_right": {"Y": 0, "X": 0.5}, "co": {"Y": 255, "X": 1}, "handle_left": {"Y": 1, "X": 0.5}, "handle_type": 0, "interpolation": 0}]}, "alpha": {"Points": [{"handle_right": {"Y": 0, "X": 0.5}, "co": {"Y": 255, "X": 1}, "handle_left": {"Y": 1, "X": 0.5}, "handle_type": 0, "interpolation": 0}]}, "red": {"Points": [{"handle_right": {"Y": 0, "X": 0.5}, "co": {"Y": 0, "X": 1}, "handle_left": {"Y": 1, "X": 0.5}, "handle_type": 0, "interpolation": 0}]}}, "has_video": {"Points": [{"co": {"Y": -1, "X": 1}, "interpolation": 2}]}, "has_audio": {"Points": [{"co": {"Y": -1, "X": 1}, "interpolation": 2}]}, "effects": [], "location_x": {"Points": [{"co": {"Y": 0, "X": 1}, "interpolation": 2}]}, "waveform": false, "title": "arrow.mp4", "image": "/home/robsen/.openshot_qt/thumbnail/X22V56NF57.png", "gravity": 4, "scale_x": {"Points": [{"co": {"Y": 1, "X": 1}, "interpolation": 2}]}, "perspective_c1_y": {"Points": [{"co": {"Y": -1, "X": 1}, "interpolation": 2}]}, "crop_height": {"Points": [{"co": {"Y": -1, "X": 1}, "interpolation": 2}]}, "crop_x": {"Points": [{"co": {"Y": 0, "X": 1}, "interpolation": 2}]}, "start": 0, "scale": 1, "shear_y": {"Points": [{"co": {"Y": 0, "X": 1}, "interpolation": 2}]}, "display": 0, "volume": {"Points": [{"co": {"Y": 1, "X": 1}, "interpolation": 2}]}, "channel_mapping": {"Points": [{"co": {"Y": -1, "X": 1}, "interpolation": 2}]}, "anchor": 0, "duration": 15.0, "perspective_c3_y": {"Points": [{"co": {"Y": -1, "X": 1}, "interpolation": 2}]}, "shear_x": {"Points": [{"co": {"Y": 0, "X": 1}, "interpolation": 2}]}, "perspective_c4_x": {"Points": [{"co": {"Y": -1, "X": 1}, "interpolation": 2}]}, "location_y": {"Points": [{"co": {"Y": 0, "X": 1}, "interpolation": 2}]}, "perspective_c2_x": {"Points": [{"co": {"Y": -1, "X": 1}, "interpolation": 2}]}, "layer": 2, "perspective_c2_y": {"Points": [{"co": {"Y": -1, "X": 1}, "interpolation": 2}]}, "perspective_c1_x": {"Points": [{"co": {"Y": -1, "X": 1}, "interpolation": 2}]}, "perspective_c4_y": {"Points": [{"co": {"Y": -1, "X": 1}, "interpolation": 2}]}, "reader": {"audio_bit_rate": 0, "has_single_image": false, "vcodec": "h264", "has_video": true, "type": "FFmpegReader", "video_length": "375", "audio_timebase": {"den": 1, "num": 1}, "path": "/home/robsen/Dropbox/Workdir/Repo/SuesseRache-HH-Taxi/arrow.mp4", "width": 1920, "has_audio": false, "video_bit_rate": 83079, "channel_layout": 4, "height": 1080, "display_ratio": {"den": 9, "num": 16}, "interlaced_frame": false, "duration": 15.0, "sample_rate": 0, "pixel_format": 0, "video_timebase": {"den": 12800, "num": 1}, "file_size": "155774", "top_field_first": true, "pixel_ratio": {"den": 1, "num": 1}, "acodec": "", "audio_stream_index": -1, "video_stream_index": 0, "channels": 0, "fps": {"den": 1, "num": 25}}, "channel_filter": {"Points": [{"co": {"Y": -1, "X": 1}, "interpolation": 2}]}, "file_id": "X22V56NF57", "time": {"Points": [{"co": {"Y": 1, "X": 1}, "interpolation": 2}]}}, "value": {"id": "PJWPMFXKV3", "start": 0, "end": 15, "position": 63.04, "layer": 1, "image": "/home/robsen/.openshot_qt/thumbnail/X22V56NF57.png"}, "key": ["clips", {"id": "PJWPMFXKV3"}], "partial": false, "type": "update"}, {"old_values": {"alpha": {"Points": [{"co": {"Y": 1, "X": 1}, "interpolation": 2}]}, "rotation": {"Points": [{"co": {"Y": 0, "X": 1}, "interpolation": 2}]}, "scale_y": {"Points": [{"co": {"Y": 1, "X": 1}, "interpolation": 2}]}, "crop_y": {"Points": [{"co": {"Y": 0, "X": 1}, "interpolation": 2}]}, "perspective_c3_x": {"Points": [{"co": {"Y": -1, "X": 1}, "interpolation": 2}]}, "end": 15, "crop_width": {"Points": [{"co": {"Y": -1, "X": 1}, "interpolation": 2}]}, "position": 63.04, "id": "PJWPMFXKV3", "wave_color": {"green": {"Points": [{"handle_right": {"Y": 0, "X": 0.5}, "co": {"Y": 123, "X": 1}, "handle_left": {"Y": 1, "X": 0.5}, "handle_type": 0, "interpolation": 0}]}, "blue": {"Points": [{"handle_right": {"Y": 0, "X": 0.5}, "co": {"Y": 255, "X": 1}, "handle_left": {"Y": 1, "X": 0.5}, "handle_type": 0, "interpolation": 0}]}, "alpha": {"Points": [{"handle_right": {"Y": 0, "X": 0.5}, "co": {"Y": 255, "X": 1}, "handle_left": {"Y": 1, "X": 0.5}, "handle_type": 0, "interpolation": 0}]}, "red": {"Points": [{"handle_right": {"Y": 0, "X": 0.5}, "co": {"Y": 0, "X": 1}, "handle_left": {"Y": 1, "X": 0.5}, "handle_type": 0, "interpolation": 0}]}}, "has_video": {"Points": [{"co": {"Y": -1, "X": 1}, "interpolation": 2}]}, "has_audio": {"Points": [{"co": {"Y": -1, "X": 1}, "interpolation": 2}]}, "effects": [], "location_x": {"Points": [{"co": {"Y": 0, "X": 1}, "interpolation": 2}]}, "waveform": false, "title": "arrow.mp4", "image": "/home/robsen/.openshot_qt/thumbnail/X22V56NF57.png", "gravity": 4, "perspective_c2_x": {"Points": [{"co": {"Y": -1, "X": 1}, "interpolation": 2}]}, "perspective_c1_y": {"Points": [{"co": {"Y": -1, "X": 1}, "interpolation": 2}]}, "crop_height": {"Points": [{"co": {"Y": -1, "X": 1}, "interpolation": 2}]}, "crop_x": {"Points": [{"co": {"Y": 0, "X": 1}, "interpolation": 2}]}, "start": 0, "scale": 1, "shear_y": {"Points": [{"co": {"Y": 0, "X": 1}, "interpolation": 2}]}, "display": 0, "volume": {"Points": [{"co": {"Y": 1, "X": 1}, "interpolation": 2}]}, "channel_mapping": {"Points": [{"co": {"Y": -1, "X": 1}, "interpolation": 2}]}, "anchor": 0, "duration": 15.0, "perspective_c3_y": {"Points": [{"co": {"Y": -1, "X": 1}, "interpolation": 2}]}, "shear_x": {"Points": [{"co": {"Y": 0, "X": 1}, "interpolation": 2}]}, "perspective_c4_x": {"Points": [{"co": {"Y": -1, "X": 1}, "interpolation": 2}]}, "location_y": {"Points": [{"co": {"Y": 0, "X": 1}, "interpolation": 2}]}, "scale_x": {"Points": [{"co": {"Y": 1, "X": 1}, "interpolation": 2}]}, "layer": 1, "perspective_c2_y": {"Points": [{"co": {"Y": -1, "X": 1}, "interpolation": 2}]}, "perspective_c1_x": {"Points": [{"co": {"Y": -1, "X": 1}, "interpolation": 2}]}, "perspective_c4_y": {"Points": [{"co": {"Y": -1, "X": 1}, "interpolation": 2}]}, "reader": {"audio_bit_rate": 0, "has_single_image": false, "vcodec": "h264", "has_video": true, "type": "FFmpegReader", "video_length": "375", "audio_timebase": {"den": 1, "num": 1}, "path": "/home/robsen/Dropbox/Workdir/Repo/SuesseRache-HH-Taxi/arrow.mp4", "width": 1920, "has_audio": false, "video_bit_rate": 83079, "channel_layout": 4, "height": 1080, "display_ratio": {"den": 9, "num": 16}, "interlaced_frame": false, "duration": 15.0, "sample_rate": 0, "pixel_format": 0, "video_timebase": {"den": 12800, "num": 1}, "file_size": "155774", "top_field_first": true, "pixel_ratio": {"den": 1, "num": 1}, "acodec": "", "audio_stream_index": -1, "video_stream_index": 0, "channels": 0, "fps": {"den": 1, "num": 25}}, "channel_filter": {"Points": [{"co": {"Y": -1, "X": 1}, "interpolation": 2}]}, "file_id": "X22V56NF57", "time": {"Points": [{"co": {"Y": 1, "X": 1}, "interpolation": 2}]}}, "value": {"id": "PJWPMFXKV3", "start": 0, "end": 15, "position": 53.075, "layer": 2, "image": "/home/robsen/.openshot_qt/thumbnail/X22V56NF57.png"}, "key": ["clips", {"id": "PJWPMFXKV3"}], "partial": false, "type": "update"}, {"old_values": {"start": 0, "type": "Mask", "contrast": {"Points": [{"co": {"Y": 3, "X": 1}, "interpolation": 2}]}, "layer": 0, "replace_image": false, "title": "Transition", "end": 2.039999999999999, "reader": {"audio_bit_rate": 0, "has_single_image": true, "vcodec": "", "has_video": true, "type": "QtImageReader", "video_length": "2592000", "audio_timebase": {"den": 1, "num": 1}, "path": "/usr/lib/python3/dist-packages/openshot_qt/transitions/common/fade.svg", "width": 720, "has_audio": false, "video_bit_rate": 0, "channel_layout": 4, "height": 576, "display_ratio": {"den": 4, "num": 5}, "interlaced_frame": false, "duration": 86400, "sample_rate": 0, "pixel_format": -1, "video_timebase": {"den": 30, "num": 1}, "file_size": "1658880", "top_field_first": true, "pixel_ratio": {"den": 1, "num": 1}, "acodec": "", "audio_stream_index": -1, "video_stream_index": -1, "channels": 0, "fps": {"den": 1, "num": 30}}, "brightness": {"Points": [{"handle_right": {"Y": 0, "X": 0.5}, "co": {"Y": 1, "X": 1}, "handle_left": {"Y": 1, "X": 0.5}, "handle_type": 0, "interpolation": 0}, {"handle_right": {"Y": 0, "X": 0.5}, "co": {"Y": -1, "X": 50}, "handle_left": {"Y": 1, "X": 0.5}, "handle_type": 0, "interpolation": 0}]}, "id": "5NBS5H99MA", "position": 21.76}, "value": null, "key": ["effects", {"id": "5NBS5H99MA"}], "partial": false, "type": "delete"}, {"old_values": {"alpha": {"Points": [{"co": {"Y": 1, "X": 1}, "interpolation": 2}]}, "rotation": {"Points": [{"co": {"Y": 0, "X": 1}, "interpolation": 2}]}, "scale_y": {"Points": [{"co": {"Y": 1, "X": 1}, "interpolation": 2}]}, "crop_y": {"Points": [{"co": {"Y": 0, "X": 1}, "interpolation": 2}]}, "perspective_c3_x": {"Points": [{"co": {"Y": -1, "X": 1}, "interpolation": 2}]}, "end": 15, "crop_width": {"Points": [{"co": {"Y": -1, "X": 1}, "interpolation": 2}]}, "position": 8.8, "id": "0AEDFYGQ7J", "wave_color": {"green": {"Points": [{"handle_right": {"Y": 0, "X": 0.5}, "co": {"Y": 123, "X": 1}, "handle_left": {"Y": 1, "X": 0.5}, "handle_type": 0, "interpolation": 0}]}, "blue": {"Points": [{"handle_right": {"Y": 0, "X": 0.5}, "co": {"Y": 255, "X": 1}, "handle_left": {"Y": 1, "X": 0.5}, "handle_type": 0, "interpolation": 0}]}, "alpha": {"Points": [{"handle_right": {"Y": 0, "X": 0.5}, "co": {"Y": 255, "X": 1}, "handle_left": {"Y": 1, "X": 0.5}, "handle_type": 0, "interpolation": 0}]}, "red": {"Points": [{"handle_right": {"Y": 0, "X": 0.5}, "co": {"Y": 0, "X": 1}, "handle_left": {"Y": 1, "X": 0.5}, "handle_type": 0, "interpolation": 0}]}}, "has_video": {"Points": [{"co": {"Y": -1, "X": 1}, "interpolation": 2}]}, "has_audio": {"Points": [{"co": {"Y": -1, "X": 1}, "interpolation": 2}]}, "effects": [], "location_x": {"Points": [{"co": {"Y": 0, "X": 1}, "interpolation": 2}]}, "waveform": false, "title": "taxi_start.mp4", "image": "/home/robsen/.openshot_qt/thumbnail/LGW3TZJV4Q.png", "gravity": 4, "perspective_c2_x": {"Points": [{"co": {"Y": -1, "X": 1}, "interpolation": 2}]}, "perspective_c1_y": {"Points": [{"co": {"Y": -1, "X": 1}, "interpolation": 2}]}, "crop_height": {"Points": [{"co": {"Y": -1, "X": 1}, "interpolation": 2}]}, "crop_x": {"Points": [{"co": {"Y": 0, "X": 1}, "interpolation": 2}]}, "start": 0, "scale": 1, "shear_y": {"Points": [{"co": {"Y": 0, "X": 1}, "interpolation": 2}]}, "display": 0, "volume": {"Points": [{"co": {"Y": 1, "X": 1}, "interpolation": 2}]}, "channel_mapping": {"Points": [{"co": {"Y": -1, "X": 1}, "interpolation": 2}]}, "anchor": 0, "duration": 15.0, "perspective_c3_y": {"Points": [{"co": {"Y": -1, "X": 1}, "interpolation": 2}]}, "shear_x": {"Points": [{"co": {"Y": 0, "X": 1}, "interpolation": 2}]}, "perspective_c4_x": {"Points": [{"co": {"Y": -1, "X": 1}, "interpolation": 2}]}, "location_y": {"Points": [{"co": {"Y": 0, "X": 1}, "interpolation": 2}]}, "scale_x": {"Points": [{"co": {"Y": 1, "X": 1}, "interpolation": 2}]}, "layer": 0, "perspective_c2_y": {"Points": [{"co": {"Y": -1, "X": 1}, "interpolation": 2}]}, "perspective_c1_x": {"Points": [{"co": {"Y": -1, "X": 1}, "interpolation": 2}]}, "perspective_c4_y": {"Points": [{"co": {"Y": -1, "X": 1}, "interpolation": 2}]}, "reader": {"audio_bit_rate": 0, "has_single_image": false, "vcodec": "h264", "has_video": true, "type": "FFmpegReader", "video_length": "375", "audio_timebase": {"den": 1, "num": 1}, "path": "/home/robsen/Dropbox/Workdir/Repo/SuesseRache-HH-Taxi/taxi_start.mp4", "width": 1920, "has_audio": false, "video_bit_rate": 147692, "channel_layout": 4, "height": 1080, "display_ratio": {"den": 9, "num": 16}, "interlaced_frame": false, "duration": 15.0, "sample_rate": 0, "pixel_format": 0, "video_timebase": {"den": 12800, "num": 1}, "file_size": "276924", "top_field_first": true, "pixel_ratio": {"den": 1, "num": 1}, "acodec": "", "audio_stream_index": -1, "video_stream_index": 0, "channels": 0, "fps": {"den": 1, "num": 25}}, "channel_filter": {"Points": [{"co": {"Y": -1, "X": 1}, "interpolation": 2}]}, "file_id": "LGW3TZJV4Q", "time": {"Points": [{"co": {"Y": 1, "X": 1}, "interpolation": 2}]}}, "value": {"alpha": {"Points": [{"co": {"Y": 1, "X": 1}, "interpolation": 2}, {"handle_right": {"Y": 0, "X": 0.5}, "co": {"Y": 1, "X": 289}, "handle_left": {"Y": 1, "X": 0.5}, "handle_type": 0, "interpolation": 0}, {"handle_right": {"Y": 0, "X": 0.5}, "co": {"Y": 0, "X": 361}, "handle_left": {"Y": 1, "X": 0.5}, "handle_type": 0, "interpolation": 0}]}, "rotation": {"Points": [{"co": {"Y": 0, "X": 1}, "interpolation": 2}]}, "scale_y": {"Points": [{"co": {"Y": 1, "X": 1}, "interpolation": 2}]}, "crop_y": {"Points": [{"co": {"Y": 0, "X": 1}, "interpolation": 2}]}, "crop_width": {"Points": [{"co": {"Y": -1, "X": 1}, "interpolation": 2}]}, "end": 15, "perspective_c3_x": {"Points": [{"co": {"Y": -1, "X": 1}, "interpolation": 2}]}, "position": 8.8, "id": "0AEDFYGQ7J", "wave_color": {"green": {"Points": [{"handle_right": {"Y": 0, "X": 0.5}, "co": {"Y": 123, "X": 1}, "handle_left": {"Y": 1, "X": 0.5}, "handle_type": 0, "interpolation": 0}]}, "blue": {"Points": [{"handle_right": {"Y": 0, "X": 0.5}, "co": {"Y": 255, "X": 1}, "handle_left": {"Y": 1, "X": 0.5}, "handle_type": 0, "interpolation": 0}]}, "alpha": {"Points": [{"handle_right": {"Y": 0, "X": 0.5}, "co": {"Y": 255, "X": 1}, "handle_left": {"Y": 1, "X": 0.5}, "handle_type": 0, "interpolation": 0}]}, "red": {"Points": [{"handle_right": {"Y": 0, "X": 0.5}, "co": {"Y": 0, "X": 1}, "handle_left": {"Y": 1, "X": 0.5}, "handle_type": 0, "interpolation": 0}]}}, "has_video": {"Points": [{"co": {"Y": -1, "X": 1}, "interpolation": 2}]}, "has_audio": {"Points": [{"co": {"Y": -1, "X": 1}, "interpolation": 2}]}, "effects": [], "location_x": {"Points": [{"co": {"Y": 0, "X": 1}, "interpolation": 2}]}, "waveform": false, "title": "taxi_start.mp4", "image": "/home/robsen/.openshot_qt/thumbnail/LGW3TZJV4Q.png", "gravity": 4, "scale_x": {"Points": [{"co": {"Y": 1, "X": 1}, "interpolation": 2}]}, "perspective_c1_y": {"Points": [{"co": {"Y": -1, "X": 1}, "interpolation": 2}]}, "crop_height": {"Points": [{"co": {"Y": -1, "X": 1}, "interpolation": 2}]}, "crop_x": {"Points": [{"co": {"Y": 0, "X": 1}, "interpolation": 2}]}, "start": 0, "scale": 1, "shear_y": {"Points": [{"co": {"Y": 0, "X": 1}, "interpolation": 2}]}, "display": 0, "volume": {"Points": [{"co": {"Y": 1, "X": 1}, "interpolation": 2}]}, "channel_mapping": {"Points": [{"co": {"Y": -1, "X": 1}, "interpolation": 2}]}, "anchor": 0, "duration": 15.0, "perspective_c3_y": {"Points": [{"co": {"Y": -1, "X": 1}, "interpolation": 2}]}, "shear_x": {"Points": [{"co": {"Y": 0, "X": 1}, "interpolation": 2}]}, "perspective_c4_x": {"Points": [{"co": {"Y": -1, "X": 1}, "interpolation": 2}]}, "location_y": {"Points": [{"co": {"Y": 0, "X": 1}, "interpolation": 2}]}, "perspective_c2_x": {"Points": [{"co": {"Y": -1, "X": 1}, "interpolation": 2}]}, "layer": 0, "perspective_c2_y": {"Points": [{"co": {"Y": -1, "X": 1}, "interpolation": 2}]}, "perspective_c1_x": {"Points": [{"co": {"Y": -1, "X": 1}, "interpolation": 2}]}, "perspective_c4_y": {"Points": [{"co": {"Y": -1, "X": 1}, "interpolation": 2}]}, "channel_filter": {"Points": [{"co": {"Y": -1, "X": 1}, "interpolation": 2}]}, "time": {"Points": [{"co": {"Y": 1, "X": 1}, "interpolation": 2}]}, "file_id": "LGW3TZJV4Q"}, "key": ["clips", {"id": "0AEDFYGQ7J"}], "partial": false, "type": "update"}, {"old_values": {"alpha": {"Points": [{"co": {"Y": 1, "X": 1}, "interpolation": 2}, {"handle_right": {"Y": 0, "X": 0.5}, "co": {"Y": 1, "X": 289}, "handle_left": {"Y": 1, "X": 0.5}, "handle_type": 0, "interpolation": 0}, {"handle_right": {"Y": 0, "X": 0.5}, "co": {"Y": 0, "X": 361}, "handle_left": {"Y": 1, "X": 0.5}, "handle_type": 0, "interpolation": 0}]}, "rotation": {"Points": [{"co": {"Y": 0, "X": 1}, "interpolation": 2}]}, "scale_y": {"Points": [{"co": {"Y": 1, "X": 1}, "interpolation": 2}]}, "crop_y": {"Points": [{"co": {"Y": 0, "X": 1}, "interpolation": 2}]}, "perspective_c3_x": {"Points": [{"co": {"Y": -1, "X": 1}, "interpolation": 2}]}, "end": 15, "crop_width": {"Points": [{"co": {"Y": -1, "X": 1}, "interpolation": 2}]}, "position": 8.8, "id": "0AEDFYGQ7J", "wave_color": {"green": {"Points": [{"handle_right": {"Y": 0, "X": 0.5}, "co": {"Y": 123, "X": 1}, "handle_left": {"Y": 1, "X": 0.5}, "handle_type": 0, "interpolation": 0}]}, "blue": {"Points": [{"handle_right": {"Y": 0, "X": 0.5}, "co": {"Y": 255, "X": 1}, "handle_left": {"Y": 1, "X": 0.5}, "handle_type": 0, "interpolation": 0}]}, "alpha": {"Points": [{"handle_right": {"Y": 0, "X": 0.5}, "co": {"Y": 255, "X": 1}, "handle_left": {"Y": 1, "X": 0.5}, "handle_type": 0, "interpolation": 0}]}, "red": {"Points": [{"handle_right": {"Y": 0, "X": 0.5}, "co": {"Y": 0, "X": 1}, "handle_left": {"Y": 1, "X": 0.5}, "handle_type": 0, "interpolation": 0}]}}, "has_video": {"Points": [{"co": {"Y": -1, "X": 1}, "interpolation": 2}]}, "has_audio": {"Points": [{"co": {"Y": -1, "X": 1}, "interpolation": 2}]}, "effects": [], "location_x": {"Points": [{"co": {"Y": 0, "X": 1}, "interpolation": 2}]}, "waveform": false, "title": "taxi_start.mp4", "image": "/home/robsen/.openshot_qt/thumbnail/LGW3TZJV4Q.png", "gravity": 4, "perspective_c2_x": {"Points": [{"co": {"Y": -1, "X": 1}, "interpolation": 2}]}, "perspective_c1_y": {"Points": [{"co": {"Y": -1, "X": 1}, "interpolation": 2}]}, "crop_height": {"Points": [{"co": {"Y": -1, "X": 1}, "interpolation": 2}]}, "crop_x": {"Points": [{"co": {"Y": 0, "X": 1}, "interpolation": 2}]}, "start": 0, "scale": 1, "shear_y": {"Points": [{"co": {"Y": 0, "X": 1}, "interpolation": 2}]}, "display": 0, "volume": {"Points": [{"co": {"Y": 1, "X": 1}, "interpolation": 2}]}, "channel_mapping": {"Points": [{"co": {"Y": -1, "X": 1}, "interpolation": 2}]}, "anchor": 0, "duration": 15.0, "perspective_c3_y": {"Points": [{"co": {"Y": -1, "X": 1}, "interpolation": 2}]}, "shear_x": {"Points": [{"co": {"Y": 0, "X": 1}, "interpolation": 2}]}, "perspective_c4_x": {"Points": [{"co": {"Y": -1, "X": 1}, "interpolation": 2}]}, "location_y": {"Points": [{"co": {"Y": 0, "X": 1}, "interpolation": 2}]}, "scale_x": {"Points": [{"co": {"Y": 1, "X": 1}, "interpolation": 2}]}, "layer": 0, "perspective_c2_y": {"Points": [{"co": {"Y": -1, "X": 1}, "interpolation": 2}]}, "perspective_c1_x": {"Points": [{"co": {"Y": -1, "X": 1}, "interpolation": 2}]}, "perspective_c4_y": {"Points": [{"co": {"Y": -1, "X": 1}, "interpolation": 2}]}, "reader": {"audio_bit_rate": 0, "has_single_image": false, "vcodec": "h264", "has_video": true, "type": "FFmpegReader", "video_length": "375", "audio_timebase": {"den": 1, "num": 1}, "path": "/home/robsen/Dropbox/Workdir/Repo/SuesseRache-HH-Taxi/taxi_start.mp4", "width": 1920, "has_audio": false, "video_bit_rate": 147692, "channel_layout": 4, "height": 1080, "display_ratio": {"den": 9, "num": 16}, "interlaced_frame": false, "duration": 15.0, "sample_rate": 0, "pixel_format": 0, "video_timebase": {"den": 12800, "num": 1}, "file_size": "276924", "top_field_first": true, "pixel_ratio": {"den": 1, "num": 1}, "acodec": "", "audio_stream_index": -1, "video_stream_index": 0, "channels": 0, "fps": {"den": 1, "num": 25}}, "channel_filter": {"Points": [{"co": {"Y": -1, "X": 1}, "interpolation": 2}]}, "file_id": "LGW3TZJV4Q", "time": {"Points": [{"co": {"Y": 1, "X": 1}, "interpolation": 2}]}}, "value": {"alpha": {"Points": [{"co": {"Y": 1, "X": 1}, "interpolation": 2}, {"handle_right": {"Y": 0, "X": 0.5}, "co": {"Y": 1, "X": 289}, "handle_left": {"Y": 1, "X": 0.5}, "handle_type": 0, "interpolation": 0}, {"handle_right": {"Y": 0, "X": 0.5}, "co": {"Y": 0, "X": 361}, "handle_left": {"Y": 1, "X": 0.5}, "handle_type": 0, "interpolation": 0}, {"handle_right": {"Y": 0, "X": 0.5}, "co": {"Y": 0, "X": 1}, "handle_left": {"Y": 1, "X": 0.5}, "handle_type": 0, "interpolation": 0}, {"handle_right": {"Y": 0, "X": 0.5}, "co": {"Y": 1, "X": 73}, "handle_left": {"Y": 1, "X": 0.5}, "handle_type": 0, "interpolation": 0}]}, "rotation": {"Points": [{"co": {"Y": 0, "X": 1}, "interpolation": 2}]}, "scale_y": {"Points": [{"co": {"Y": 1, "X": 1}, "interpolation": 2}]}, "crop_y": {"Points": [{"co": {"Y": 0, "X": 1}, "interpolation": 2}]}, "crop_width": {"Points": [{"co": {"Y": -1, "X": 1}, "interpolation": 2}]}, "end": 15, "perspective_c3_x": {"Points": [{"co": {"Y": -1, "X": 1}, "interpolation": 2}]}, "position": 8.8, "id": "0AEDFYGQ7J", "wave_color": {"green": {"Points": [{"handle_right": {"Y": 0, "X": 0.5}, "co": {"Y": 123, "X": 1}, "handle_left": {"Y": 1, "X": 0.5}, "handle_type": 0, "interpolation": 0}]}, "blue": {"Points": [{"handle_right": {"Y": 0, "X": 0.5}, "co": {"Y": 255, "X": 1}, "handle_left": {"Y": 1, "X": 0.5}, "handle_type": 0, "interpolation": 0}]}, "alpha": {"Points": [{"handle_right": {"Y": 0, "X": 0.5}, "co": {"Y": 255, "X": 1}, "handle_left": {"Y": 1, "X": 0.5}, "handle_type": 0, "interpolation": 0}]}, "red": {"Points": [{"handle_right": {"Y": 0, "X": 0.5}, "co": {"Y": 0, "X": 1}, "handle_left": {"Y": 1, "X": 0.5}, "handle_type": 0, "interpolation": 0}]}}, "has_video": {"Points": [{"co": {"Y": -1, "X": 1}, "interpolation": 2}]}, "has_audio": {"Points": [{"co": {"Y": -1, "X": 1}, "interpolation": 2}]}, "effects": [], "location_x": {"Points": [{"co": {"Y": 0, "X": 1}, "interpolation": 2}]}, "waveform": false, "title": "taxi_start.mp4", "image": "/home/robsen/.openshot_qt/thumbnail/LGW3TZJV4Q.png", "gravity": 4, "scale_x": {"Points": [{"co": {"Y": 1, "X": 1}, "interpolation": 2}]}, "perspective_c1_y": {"Points": [{"co": {"Y": -1, "X": 1}, "interpolation": 2}]}, "crop_height": {"Points": [{"co": {"Y": -1, "X": 1}, "interpolation": 2}]}, "crop_x": {"Points": [{"co": {"Y": 0, "X": 1}, "interpolation": 2}]}, "start": 0, "scale": 1, "shear_y": {"Points": [{"co": {"Y": 0, "X": 1}, "interpolation": 2}]}, "display": 0, "volume": {"Points": [{"co": {"Y": 1, "X": 1}, "interpolation": 2}]}, "channel_mapping": {"Points": [{"co": {"Y": -1, "X": 1}, "interpolation": 2}]}, "anchor": 0, "duration": 15.0, "perspective_c3_y": {"Points": [{"co": {"Y": -1, "X": 1}, "interpolation": 2}]}, "shear_x": {"Points": [{"co": {"Y": 0, "X": 1}, "interpolation": 2}]}, "perspective_c4_x": {"Points": [{"co": {"Y": -1, "X": 1}, "interpolation": 2}]}, "location_y": {"Points": [{"co": {"Y": 0, "X": 1}, "interpolation": 2}]}, "perspective_c2_x": {"Points": [{"co": {"Y": -1, "X": 1}, "interpolation": 2}]}, "layer": 0, "perspective_c2_y": {"Points": [{"co": {"Y": -1, "X": 1}, "interpolation": 2}]}, "perspective_c1_x": {"Points": [{"co": {"Y": -1, "X": 1}, "interpolation": 2}]}, "perspective_c4_y": {"Points": [{"co": {"Y": -1, "X": 1}, "interpolation": 2}]}, "channel_filter": {"Points": [{"co": {"Y": -1, "X": 1}, "interpolation": 2}]}, "time": {"Points": [{"co": {"Y": 1, "X": 1}, "interpolation": 2}]}, "file_id": "LGW3TZJV4Q"}, "key": ["clips", {"id": "0AEDFYGQ7J"}], "partial": false, "type": "update"}, {"old_values": {"alpha": {"Points": [{"co": {"Y": 1, "X": 1}, "interpolation": 2}]}, "rotation": {"Points": [{"co": {"Y": 0, "X": 1}, "interpolation": 2}]}, "scale_y": {"Points": [{"co": {"Y": 1, "X": 1}, "interpolation": 2}]}, "crop_y": {"Points": [{"co": {"Y": 0, "X": 1}, "interpolation": 2}]}, "perspective_c3_x": {"Points": [{"co": {"Y": -1, "X": 1}, "interpolation": 2}]}, "end": 15, "crop_width": {"Points": [{"co": {"Y": -1, "X": 1}, "interpolation": 2}]}, "position": 53.075, "id": "PJWPMFXKV3", "wave_color": {"green": {"Points": [{"handle_right": {"Y": 0, "X": 0.5}, "co": {"Y": 123, "X": 1}, "handle_left": {"Y": 1, "X": 0.5}, "handle_type": 0, "interpolation": 0}]}, "blue": {"Points": [{"handle_right": {"Y": 0, "X": 0.5}, "co": {"Y": 255, "X": 1}, "handle_left": {"Y": 1, "X": 0.5}, "handle_type": 0, "interpolation": 0}]}, "alpha": {"Points": [{"handle_right": {"Y": 0, "X": 0.5}, "co": {"Y": 255, "X": 1}, "handle_left": {"Y": 1, "X": 0.5}, "handle_type": 0, "interpolation": 0}]}, "red": {"Points": [{"handle_right": {"Y": 0, "X": 0.5}, "co": {"Y": 0, "X": 1}, "handle_left": {"Y": 1, "X": 0.5}, "handle_type": 0, "interpolation": 0}]}}, "has_video": {"Points": [{"co": {"Y": -1, "X": 1}, "interpolation": 2}]}, "has_audio": {"Points": [{"co": {"Y": -1, "X": 1}, "interpolation": 2}]}, "effects": [], "location_x": {"Points": [{"co": {"Y": 0, "X": 1}, "interpolation": 2}]}, "waveform": false, "title": "arrow.mp4", "image": "/home/robsen/.openshot_qt/thumbnail/X22V56NF57.png", "gravity": 4, "perspective_c2_x": {"Points": [{"co": {"Y": -1, "X": 1}, "interpolation": 2}]}, "perspective_c1_y": {"Points": [{"co": {"Y": -1, "X": 1}, "interpolation": 2}]}, "crop_height": {"Points": [{"co": {"Y": -1, "X": 1}, "interpolation": 2}]}, "crop_x": {"Points": [{"co": {"Y": 0, "X": 1}, "interpolation": 2}]}, "start": 0, "scale": 1, "shear_y": {"Points": [{"co": {"Y": 0, "X": 1}, "interpolation": 2}]}, "display": 0, "volume": {"Points": [{"co": {"Y": 1, "X": 1}, "interpolation": 2}]}, "channel_mapping": {"Points": [{"co": {"Y": -1, "X": 1}, "interpolation": 2}]}, "anchor": 0, "duration": 15.0, "perspective_c3_y": {"Points": [{"co": {"Y": -1, "X": 1}, "interpolation": 2}]}, "shear_x": {"Points": [{"co": {"Y": 0, "X": 1}, "interpolation": 2}]}, "perspective_c4_x": {"Points": [{"co": {"Y": -1, "X": 1}, "interpolation": 2}]}, "location_y": {"Points": [{"co": {"Y": 0, "X": 1}, "interpolation": 2}]}, "scale_x": {"Points": [{"co": {"Y": 1, "X": 1}, "interpolation": 2}]}, "layer": 2, "perspective_c2_y": {"Points": [{"co": {"Y": -1, "X": 1}, "interpolation": 2}]}, "perspective_c1_x": {"Points": [{"co": {"Y": -1, "X": 1}, "interpolation": 2}]}, "perspective_c4_y": {"Points": [{"co": {"Y": -1, "X": 1}, "interpolation": 2}]}, "reader": {"audio_bit_rate": 0, "has_single_image": false, "vcodec": "h264", "has_video": true, "type": "FFmpegReader", "video_length": "375", "audio_timebase": {"den": 1, "num": 1}, "path": "/home/robsen/Dropbox/Workdir/Repo/SuesseRache-HH-Taxi/arrow.mp4", "width": 1920, "has_audio": false, "video_bit_rate": 83079, "channel_layout": 4, "height": 1080, "display_ratio": {"den": 9, "num": 16}, "interlaced_frame": false, "duration": 15.0, "sample_rate": 0, "pixel_format": 0, "video_timebase": {"den": 12800, "num": 1}, "file_size": "155774", "top_field_first": true, "pixel_ratio": {"den": 1, "num": 1}, "acodec": "", "audio_stream_index": -1, "video_stream_index": 0, "channels": 0, "fps": {"den": 1, "num": 25}}, "channel_filter": {"Points": [{"co": {"Y": -1, "X": 1}, "interpolation": 2}]}, "file_id": "X22V56NF57", "time": {"Points": [{"co": {"Y": 1, "X": 1}, "interpolation": 2}]}}, "value": {"alpha": {"Points": [{"co": {"Y": 1, "X": 1}, "interpolation": 2}, {"handle_right": {"Y": 0, "X": 0.5}, "co": {"Y": 0, "X": 1}, "handle_left": {"Y": 1, "X": 0.5}, "handle_type": 0, "interpolation": 0}, {"handle_right": {"Y": 0, "X": 0.5}, "co": {"Y": 1, "X": 73}, "handle_left": {"Y": 1, "X": 0.5}, "handle_type": 0, "interpolation": 0}]}, "rotation": {"Points": [{"co": {"Y": 0, "X": 1}, "interpolation": 2}]}, "scale_y": {"Points": [{"co": {"Y": 1, "X": 1}, "interpolation": 2}]}, "crop_y": {"Points": [{"co": {"Y": 0, "X": 1}, "interpolation": 2}]}, "crop_width": {"Points": [{"co": {"Y": -1, "X": 1}, "interpolation": 2}]}, "end": 15, "perspective_c3_x": {"Points": [{"co": {"Y": -1, "X": 1}, "interpolation": 2}]}, "position": 53.075, "id": "PJWPMFXKV3", "wave_color": {"green": {"Points": [{"handle_right": {"Y": 0, "X": 0.5}, "co": {"Y": 123, "X": 1}, "handle_left": {"Y": 1, "X": 0.5}, "handle_type": 0, "interpolation": 0}]}, "blue": {"Points": [{"handle_right": {"Y": 0, "X": 0.5}, "co": {"Y": 255, "X": 1}, "handle_left": {"Y": 1, "X": 0.5}, "handle_type": 0, "interpolation": 0}]}, "alpha": {"Points": [{"handle_right": {"Y": 0, "X": 0.5}, "co": {"Y": 255, "X": 1}, "handle_left": {"Y": 1, "X": 0.5}, "handle_type": 0, "interpolation": 0}]}, "red": {"Points": [{"handle_right": {"Y": 0, "X": 0.5}, "co": {"Y": 0, "X": 1}, "handle_left": {"Y": 1, "X": 0.5}, "handle_type": 0, "interpolation": 0}]}}, "has_video": {"Points": [{"co": {"Y": -1, "X": 1}, "interpolation": 2}]}, "has_audio": {"Points": [{"co": {"Y": -1, "X": 1}, "interpolation": 2}]}, "effects": [], "location_x": {"Points": [{"co": {"Y": 0, "X": 1}, "interpolation": 2}]}, "waveform": false, "title": "arrow.mp4", "image": "/home/robsen/.openshot_qt/thumbnail/X22V56NF57.png", "gravity": 4, "scale_x": {"Points": [{"co": {"Y": 1, "X": 1}, "interpolation": 2}]}, "perspective_c1_y": {"Points": [{"co": {"Y": -1, "X": 1}, "interpolation": 2}]}, "crop_height": {"Points": [{"co": {"Y": -1, "X": 1}, "interpolation": 2}]}, "crop_x": {"Points": [{"co": {"Y": 0, "X": 1}, "interpolation": 2}]}, "start": 0, "scale": 1, "shear_y": {"Points": [{"co": {"Y": 0, "X": 1}, "interpolation": 2}]}, "display": 0, "volume": {"Points": [{"co": {"Y": 1, "X": 1}, "interpolation": 2}]}, "channel_mapping": {"Points": [{"co": {"Y": -1, "X": 1}, "interpolation": 2}]}, "anchor": 0, "duration": 15.0, "perspective_c3_y": {"Points": [{"co": {"Y": -1, "X": 1}, "interpolation": 2}]}, "shear_x": {"Points": [{"co": {"Y": 0, "X": 1}, "interpolation": 2}]}, "perspective_c4_x": {"Points": [{"co": {"Y": -1, "X": 1}, "interpolation": 2}]}, "location_y": {"Points": [{"co": {"Y": 0, "X": 1}, "interpolation": 2}]}, "perspective_c2_x": {"Points": [{"co": {"Y": -1, "X": 1}, "interpolation": 2}]}, "layer": 2, "perspective_c2_y": {"Points": [{"co": {"Y": -1, "X": 1}, "interpolation": 2}]}, "perspective_c1_x": {"Points": [{"co": {"Y": -1, "X": 1}, "interpolation": 2}]}, "perspective_c4_y": {"Points": [{"co": {"Y": -1, "X": 1}, "interpolation": 2}]}, "channel_filter": {"Points": [{"co": {"Y": -1, "X": 1}, "interpolation": 2}]}, "time": {"Points": [{"co": {"Y": 1, "X": 1}, "interpolation": 2}]}, "file_id": "X22V56NF57"}, "key": ["clips", {"id": "PJWPMFXKV3"}], "partial": false, "type": "update"}]}, "key": ["history"], "partial": false, "type": "update"}, {"old_values": {"alpha": {"Points": [{"co": {"Y": 1, "X": 1}, "interpolation": 2}, {"handle_right": {"Y": 0, "X": 0.5}, "co": {"Y": 1, "X": 289}, "handle_left": {"Y": 1, "X": 0.5}, "handle_type": 0, "interpolation": 0}, {"handle_right": {"Y": 0, "X": 0.5}, "co": {"Y": 0, "X": 361}, "handle_left": {"Y": 1, "X": 0.5}, "handle_type": 0, "interpolation": 0}, {"handle_right": {"Y": 0, "X": 0.5}, "co": {"Y": 0, "X": 1}, "handle_left": {"Y": 1, "X": 0.5}, "handle_type": 0, "interpolation": 0}, {"handle_right": {"Y": 0, "X": 0.5}, "co": {"Y": 1, "X": 73}, "handle_left": {"Y": 1, "X": 0.5}, "handle_type": 0, "interpolation": 0}]}, "rotation": {"Points": [{"co": {"Y": 0, "X": 1}, "interpolation": 2}]}, "scale_y": {"Points": [{"co": {"Y": 1, "X": 1}, "interpolation": 2}]}, "crop_y": {"Points": [{"co": {"Y": 0, "X": 1}, "interpolation": 2}]}, "perspective_c3_x": {"Points": [{"co": {"Y": -1, "X": 1}, "interpolation": 2}]}, "end": 15, "crop_width": {"Points": [{"co": {"Y": -1, "X": 1}, "interpolation": 2}]}, "position": 8.8, "id": "0AEDFYGQ7J", "wave_color": {"green": {"Points": [{"handle_right": {"Y": 0, "X": 0.5}, "co": {"Y": 123, "X": 1}, "handle_left": {"Y": 1, "X": 0.5}, "handle_type": 0, "interpolation": 0}]}, "blue": {"Points": [{"handle_right": {"Y": 0, "X": 0.5}, "co": {"Y": 255, "X": 1}, "handle_left": {"Y": 1, "X": 0.5}, "handle_type": 0, "interpolation": 0}]}, "alpha": {"Points": [{"handle_right": {"Y": 0, "X": 0.5}, "co": {"Y": 255, "X": 1}, "handle_left": {"Y": 1, "X": 0.5}, "handle_type": 0, "interpolation": 0}]}, "red": {"Points": [{"handle_right": {"Y": 0, "X": 0.5}, "co": {"Y": 0, "X": 1}, "handle_left": {"Y": 1, "X": 0.5}, "handle_type": 0, "interpolation": 0}]}}, "has_video": {"Points": [{"co": {"Y": -1, "X": 1}, "interpolation": 2}]}, "has_audio": {"Points": [{"co": {"Y": -1, "X": 1}, "interpolation": 2}]}, "effects": [], "location_x": {"Points": [{"co": {"Y": 0, "X": 1}, "interpolation": 2}]}, "waveform": false, "title": "taxi_start.mp4", "image": "/home/robsen/.openshot_qt/thumbnail/LGW3TZJV4Q.png", "gravity": 4, "scale_x": {"Points": [{"co": {"Y": 1, "X": 1}, "interpolation": 2}]}, "perspective_c1_y": {"Points": [{"co": {"Y": -1, "X": 1}, "interpolation": 2}]}, "crop_height": {"Points": [{"co": {"Y": -1, "X": 1}, "interpolation": 2}]}, "crop_x": {"Points": [{"co": {"Y": 0, "X": 1}, "interpolation": 2}]}, "start": 0, "scale": 1, "shear_y": {"Points": [{"co": {"Y": 0, "X": 1}, "interpolation": 2}]}, "display": 0, "volume": {"Points": [{"co": {"Y": 1, "X": 1}, "interpolation": 2}]}, "channel_mapping": {"Points": [{"co": {"Y": -1, "X": 1}, "interpolation": 2}]}, "anchor": 0, "duration": 15.0, "perspective_c3_y": {"Points": [{"co": {"Y": -1, "X": 1}, "interpolation": 2}]}, "shear_x": {"Points": [{"co": {"Y": 0, "X": 1}, "interpolation": 2}]}, "perspective_c4_x": {"Points": [{"co": {"Y": -1, "X": 1}, "interpolation": 2}]}, "location_y": {"Points": [{"co": {"Y": 0, "X": 1}, "interpolation": 2}]}, "perspective_c2_x": {"Points": [{"co": {"Y": -1, "X": 1}, "interpolation": 2}]}, "layer": 0, "perspective_c2_y": {"Points": [{"co": {"Y": -1, "X": 1}, "interpolation": 2}]}, "perspective_c1_x": {"Points": [{"co": {"Y": -1, "X": 1}, "interpolation": 2}]}, "perspective_c4_y": {"Points": [{"co": {"Y": -1, "X": 1}, "interpolation": 2}]}, "reader": {"audio_bit_rate": 0, "has_single_image": false, "has_video": true, "type": "FFmpegReader", "video_length": "375", "audio_timebase": {"den": 1, "num": 1}, "path": "/home/robsen/Dropbox/Workdir/Repo/SuesseRache-HH-Taxi/taxi_start.mp4", "width": 1920, "has_audio": false, "video_bit_rate": 147692, "channel_layout": 4, "height": 1080, "display_ratio": {"den": 9, "num": 16}, "interlaced_frame": false, "video_timebase": {"den": 12800, "num": 1}, "duration": 15.0, "sample_rate": 0, "pixel_format": 0, "fps": {"den": 1, "num": 25}, "file_size": "276924", "top_field_first": true, "pixel_ratio": {"den": 1, "num": 1}, "acodec": "", "audio_stream_index": -1, "video_stream_index": 0, "channels": 0, "vcodec": "h264"}, "channel_filter": {"Points": [{"co": {"Y": -1, "X": 1}, "interpolation": 2}]}, "file_id": "LGW3TZJV4Q", "time": {"Points": [{"co": {"Y": 1, "X": 1}, "interpolation": 2}]}}, "value": {"position": 0.0}, "key": ["clips", {"id": "0AEDFYGQ7J"}], "partial": false, "type": "update"}, {"old_values": {"alpha": {"Points": [{"co": {"Y": 1, "X": 1}, "interpolation": 2}]}, "rotation": {"Points": [{"co": {"Y": 0, "X": 1}, "interpolation": 2}]}, "scale_y": {"Points": [{"co": {"Y": 1, "X": 1}, "interpolation": 2}]}, "crop_y": {"Points": [{"co": {"Y": 0, "X": 1}, "interpolation": 2}]}, "perspective_c3_x": {"Points": [{"co": {"Y": -1, "X": 1}, "interpolation": 2}]}, "end": 31.317333221435547, "crop_width": {"Points": [{"co": {"Y": -1, "X": 1}, "interpolation": 2}]}, "position": 21.76, "id": "627XQDJ3EP", "wave_color": {"green": {"Points": [{"handle_right": {"Y": 0, "X": 0.5}, "co": {"Y": 123, "X": 1}, "handle_left": {"Y": 1, "X": 0.5}, "handle_type": 0, "interpolation": 0}]}, "blue": {"Points": [{"handle_right": {"Y": 0, "X": 0.5}, "co": {"Y": 255, "X": 1}, "handle_left": {"Y": 1, "X": 0.5}, "handle_type": 0, "interpolation": 0}]}, "alpha": {"Points": [{"handle_right": {"Y": 0, "X": 0.5}, "co": {"Y": 255, "X": 1}, "handle_left": {"Y": 1, "X": 0.5}, "handle_type": 0, "interpolation": 0}]}, "red": {"Points": [{"handle_right": {"Y": 0, "X": 0.5}, "co": {"Y": 0, "X": 1}, "handle_left": {"Y": 1, "X": 0.5}, "handle_type": 0, "interpolation": 0}]}}, "has_video": {"Points": [{"co": {"Y": -1, "X": 1}, "interpolation": 2}]}, "has_audio": {"Points": [{"co": {"Y": -1, "X": 1}, "interpolation": 2}]}, "effects": [], "location_x": {"Points": [{"co": {"Y": 0, "X": 1}, "interpolation": 2}]}, "waveform": false, "title": "TE_SR_Taxi.mp4", "image": "/home/robsen/.openshot_qt/thumbnail/Z3LOYBY1PL.png", "gravity": 4, "scale_x": {"Points": [{"co": {"Y": 1, "X": 1}, "interpolation": 2}]}, "perspective_c1_y": {"Points": [{"co": {"Y": -1, "X": 1}, "interpolation": 2}]}, "crop_height": {"Points": [{"co": {"Y": -1, "X": 1}, "interpolation": 2}]}, "crop_x": {"Points": [{"co": {"Y": 0, "X": 1}, "interpolation": 2}]}, "start": 0, "scale": 1, "shear_y": {"Points": [{"co": {"Y": 0, "X": 1}, "interpolation": 2}]}, "display": 0, "volume": {"Points": [{"co": {"Y": 1, "X": 1}, "interpolation": 2}]}, "channel_mapping": {"Points": [{"co": {"Y": -1, "X": 1}, "interpolation": 2}]}, "anchor": 0, "duration": 31.317333221435547, "perspective_c3_y": {"Points": [{"co": {"Y": -1, "X": 1}, "interpolation": 2}]}, "shear_x": {"Points": [{"co": {"Y": 0, "X": 1}, "interpolation": 2}]}, "perspective_c4_x": {"Points": [{"co": {"Y": -1, "X": 1}, "interpolation": 2}]}, "location_y": {"Points": [{"co": {"Y": 0, "X": 1}, "interpolation": 2}]}, "perspective_c2_x": {"Points": [{"co": {"Y": -1, "X": 1}, "interpolation": 2}]}, "layer": 1, "perspective_c2_y": {"Points": [{"co": {"Y": -1, "X": 1}, "interpolation": 2}]}, "perspective_c1_x": {"Points": [{"co": {"Y": -1, "X": 1}, "interpolation": 2}]}, "perspective_c4_y": {"Points": [{"co": {"Y": -1, "X": 1}, "interpolation": 2}]}, "reader": {"audio_bit_rate": 189375, "has_single_image": false, "has_video": true, "type": "FFmpegReader", "video_length": "937", "audio_timebase": {"den": 48000, "num": 1}, "path": "/home/robsen/Dropbox/Workdir/Repo/SuesseRache-HH-Taxi/TE_SR_Taxi.mp4", "width": 1920, "has_audio": true, "video_bit_rate": 32091692, "channel_layout": 3, "height": 1080, "display_ratio": {"den": 9, "num": 16}, "interlaced_frame": false, "video_timebase": {"den": 29970, "num": 1}, "duration": 31.317333221435547, "sample_rate": 48000, "pixel_format": 0, "fps": {"den": 100, "num": 2997}, "file_size": "125628279", "top_field_first": true, "pixel_ratio": {"den": 1, "num": 1}, "acodec": "aac", "audio_stream_index": 1, "video_stream_index": 0, "channels": 2, "vcodec": "h264"}, "channel_filter": {"Points": [{"co": {"Y": -1, "X": 1}, "interpolation": 2}]}, "file_id": "Z3LOYBY1PL", "time": {"Points": [{"co": {"Y": 1, "X": 1}, "interpolation": 2}]}}, "value": {"id": "627XQDJ3EP", "start": 0, "end": 31.317333221435547, "position": 12.96, "layer": 1, "image": "/home/robsen/.openshot_qt/thumbnail/Z3LOYBY1PL.png"}, "key": ["clips", {"id": "627XQDJ3EP"}], "partial": false, "type": "update"}, {"old_values": null, "value": {"id": "PJWPMFXKV3", "start": 0, "end": 15, "position": 41.395, "layer": 2, "image": "/home/robsen/.openshot_qt/thumbnail/X22V56NF57.png"}, "key": ["clips", {"id": "PJWPMFXKV3"}], "partial": false, "type": "update"}, {"old_values": null, "value": {"id": "PJWPMFXKV3", "start": 0, "end": 15, "position": 41.395, "layer": 2, "image": "/home/robsen/.openshot_qt/thumbnail/X22V56NF57.png"}, "key": ["clips", {"id": "PJWPMFXKV3"}], "partial": false, "type": "update"}, {"old_values": null, "value": {"id": "PJWPMFXKV3", "start": 0, "end": 15, "position": 41.395, "layer": 2, "image": "/home/robsen/.openshot_qt/thumbnail/X22V56NF57.png"}, "key": ["clips", {"id": "PJWPMFXKV3"}], "partial": false, "type": "update"}, {"old_values": null, "value": {"id": "PJWPMFXKV3", "start": 0, "end": 15, "position": 41.395, "layer": 2, "image": "/home/robsen/.openshot_qt/thumbnail/X22V56NF57.png"}, "key": ["clips", {"id": "PJWPMFXKV3"}], "partial": false, "type": "update"}, {"old_values": {"alpha": {"Points": [{"co": {"Y": 1, "X": 1}, "interpolation": 2}, {"handle_right": {"Y": 0, "X": 0.5}, "co": {"Y": 1, "X": 289}, "handle_left": {"Y": 1, "X": 0.5}, "handle_type": 0, "interpolation": 0}, {"handle_right": {"Y": 0, "X": 0.5}, "co": {"Y": 0, "X": 361}, "handle_left": {"Y": 1, "X": 0.5}, "handle_type": 0, "interpolation": 0}, {"handle_right": {"Y": 0, "X": 0.5}, "co": {"Y": 0, "X": 1}, "handle_left": {"Y": 1, "X": 0.5}, "handle_type": 0, "interpolation": 0}, {"handle_right": {"Y": 0, "X": 0.5}, "co": {"Y": 1, "X": 73}, "handle_left": {"Y": 1, "X": 0.5}, "handle_type": 0, "interpolation": 0}]}, "rotation": {"Points": [{"co": {"Y": 0, "X": 1}, "interpolation": 2}]}, "scale_y": {"Points": [{"co": {"Y": 1, "X": 1}, "interpolation": 2}]}, "crop_y": {"Points": [{"co": {"Y": 0, "X": 1}, "interpolation": 2}]}, "perspective_c3_x": {"Points": [{"co": {"Y": -1, "X": 1}, "interpolation": 2}]}, "end": 15, "crop_width": {"Points": [{"co": {"Y": -1, "X": 1}, "interpolation": 2}]}, "position": 0.0, "id": "0AEDFYGQ7J", "wave_color": {"green": {"Points": [{"handle_right": {"Y": 0, "X": 0.5}, "co": {"Y": 123, "X": 1}, "handle_left": {"Y": 1, "X": 0.5}, "handle_type": 0, "interpolation": 0}]}, "blue": {"Points": [{"handle_right": {"Y": 0, "X": 0.5}, "co": {"Y": 255, "X": 1}, "handle_left": {"Y": 1, "X": 0.5}, "handle_type": 0, "interpolation": 0}]}, "alpha": {"Points": [{"handle_right": {"Y": 0, "X": 0.5}, "co": {"Y": 255, "X": 1}, "handle_left": {"Y": 1, "X": 0.5}, "handle_type": 0, "interpolation": 0}]}, "red": {"Points": [{"handle_right": {"Y": 0, "X": 0.5}, "co": {"Y": 0, "X": 1}, "handle_left": {"Y": 1, "X": 0.5}, "handle_type": 0, "interpolation": 0}]}}, "has_video": {"Points": [{"co": {"Y": -1, "X": 1}, "interpolation": 2}]}, "has_audio": {"Points": [{"co": {"Y": -1, "X": 1}, "interpolation": 2}]}, "effects": [], "location_x": {"Points": [{"co": {"Y": 0, "X": 1}, "interpolation": 2}]}, "waveform": false, "title": "taxi_start.mp4", "image": "/home/robsen/.openshot_qt/thumbnail/LGW3TZJV4Q.png", "gravity": 4, "scale_x": {"Points": [{"co": {"Y": 1, "X": 1}, "interpolation": 2}]}, "perspective_c1_y": {"Points": [{"co": {"Y": -1, "X": 1}, "interpolation": 2}]}, "crop_height": {"Points": [{"co": {"Y": -1, "X": 1}, "interpolation": 2}]}, "crop_x": {"Points": [{"co": {"Y": 0, "X": 1}, "interpolation": 2}]}, "start": 0, "scale": 1, "shear_y": {"Points": [{"co": {"Y": 0, "X": 1}, "interpolation": 2}]}, "display": 0, "volume": {"Points": [{"co": {"Y": 1, "X": 1}, "interpolation": 2}]}, "channel_mapping": {"Points": [{"co": {"Y": -1, "X": 1}, "interpolation": 2}]}, "anchor": 0, "duration": 15.0, "perspective_c3_y": {"Points": [{"co": {"Y": -1, "X": 1}, "interpolation": 2}]}, "shear_x": {"Points": [{"co": {"Y": 0, "X": 1}, "interpolation": 2}]}, "perspective_c4_x": {"Points": [{"co": {"Y": -1, "X": 1}, "interpolation": 2}]}, "location_y": {"Points": [{"co": {"Y": 0, "X": 1}, "interpolation": 2}]}, "perspective_c2_x": {"Points": [{"co": {"Y": -1, "X": 1}, "interpolation": 2}]}, "layer": 0, "perspective_c2_y": {"Points": [{"co": {"Y": -1, "X": 1}, "interpolation": 2}]}, "perspective_c1_x": {"Points": [{"co": {"Y": -1, "X": 1}, "interpolation": 2}]}, "perspective_c4_y": {"Points": [{"co": {"Y": -1, "X": 1}, "interpolation": 2}]}, "reader": {"audio_bit_rate": 0, "has_single_image": false, "has_video": true, "type": "FFmpegReader", "video_length": "375", "audio_timebase": {"den": 1, "num": 1}, "path": "/home/robsen/Dropbox/Workdir/Repo/SuesseRache-HH-Taxi/taxi_start.mp4", "width": 1920, "has_audio": false, "video_bit_rate": 147692, "channel_layout": 4, "height": 1080, "display_ratio": {"den": 9, "num": 16}, "interlaced_frame": false, "video_timebase": {"den": 12800, "num": 1}, "duration": 15.0, "sample_rate": 0, "pixel_format": 0, "fps": {"den": 1, "num": 25}, "file_size": "276924", "top_field_first": true, "pixel_ratio": {"den": 1, "num": 1}, "acodec": "", "audio_stream_index": -1, "video_stream_index": 0, "channels": 0, "vcodec": "h264"}, "channel_filter": {"Points": [{"co": {"Y": -1, "X": 1}, "interpolation": 2}]}, "file_id": "LGW3TZJV4Q", "time": {"Points": [{"co": {"Y": 1, "X": 1}, "interpolation": 2}]}}, "value": {"end": 5.0}, "key": ["clips", {"id": "0AEDFYGQ7J"}], "partial": false, "type": "update"}, {"old_values": {"alpha": {"Points": [{"co": {"Y": 1, "X": 1}, "interpolation": 2}]}, "rotation": {"Points": [{"co": {"Y": 0, "X": 1}, "interpolation": 2}]}, "scale_y": {"Points": [{"co": {"Y": 1, "X": 1}, "interpolation": 2}]}, "crop_y": {"Points": [{"co": {"Y": 0, "X": 1}, "interpolation": 2}]}, "perspective_c3_x": {"Points": [{"co": {"Y": -1, "X": 1}, "interpolation": 2}]}, "end": 31.317333221435547, "crop_width": {"Points": [{"co": {"Y": -1, "X": 1}, "interpolation": 2}]}, "position": 12.96, "id": "627XQDJ3EP", "wave_color": {"green": {"Points": [{"handle_right": {"Y": 0, "X": 0.5}, "co": {"Y": 123, "X": 1}, "handle_left": {"Y": 1, "X": 0.5}, "handle_type": 0, "interpolation": 0}]}, "blue": {"Points": [{"handle_right": {"Y": 0, "X": 0.5}, "co": {"Y": 255, "X": 1}, "handle_left": {"Y": 1, "X": 0.5}, "handle_type": 0, "interpolation": 0}]}, "alpha": {"Points": [{"handle_right": {"Y": 0, "X": 0.5}, "co": {"Y": 255, "X": 1}, "handle_left": {"Y": 1, "X": 0.5}, "handle_type": 0, "interpolation": 0}]}, "red": {"Points": [{"handle_right": {"Y": 0, "X": 0.5}, "co": {"Y": 0, "X": 1}, "handle_left": {"Y": 1, "X": 0.5}, "handle_type": 0, "interpolation": 0}]}}, "has_video": {"Points": [{"co": {"Y": -1, "X": 1}, "interpolation": 2}]}, "has_audio": {"Points": [{"co": {"Y": -1, "X": 1}, "interpolation": 2}]}, "effects": [], "location_x": {"Points": [{"co": {"Y": 0, "X": 1}, "interpolation": 2}]}, "waveform": false, "title": "TE_SR_Taxi.mp4", "image": "/home/robsen/.openshot_qt/thumbnail/Z3LOYBY1PL.png", "gravity": 4, "scale_x": {"Points": [{"co": {"Y": 1, "X": 1}, "interpolation": 2}]}, "perspective_c1_y": {"Points": [{"co": {"Y": -1, "X": 1}, "interpolation": 2}]}, "crop_height": {"Points": [{"co": {"Y": -1, "X": 1}, "interpolation": 2}]}, "crop_x": {"Points": [{"co": {"Y": 0, "X": 1}, "interpolation": 2}]}, "start": 0, "scale": 1, "shear_y": {"Points": [{"co": {"Y": 0, "X": 1}, "interpolation": 2}]}, "display": 0, "volume": {"Points": [{"co": {"Y": 1, "X": 1}, "interpolation": 2}]}, "channel_mapping": {"Points": [{"co": {"Y": -1, "X": 1}, "interpolation": 2}]}, "anchor": 0, "duration": 31.317333221435547, "perspective_c3_y": {"Points": [{"co": {"Y": -1, "X": 1}, "interpolation": 2}]}, "shear_x": {"Points": [{"co": {"Y": 0, "X": 1}, "interpolation": 2}]}, "perspective_c4_x": {"Points": [{"co": {"Y": -1, "X": 1}, "interpolation": 2}]}, "location_y": {"Points": [{"co": {"Y": 0, "X": 1}, "interpolation": 2}]}, "perspective_c2_x": {"Points": [{"co": {"Y": -1, "X": 1}, "interpolation": 2}]}, "layer": 1, "perspective_c2_y": {"Points": [{"co": {"Y": -1, "X": 1}, "interpolation": 2}]}, "perspective_c1_x": {"Points": [{"co": {"Y": -1, "X": 1}, "interpolation": 2}]}, "perspective_c4_y": {"Points": [{"co": {"Y": -1, "X": 1}, "interpolation": 2}]}, "reader": {"audio_bit_rate": 189375, "has_single_image": false, "has_video": true, "type": "FFmpegReader", "video_length": "937", "audio_timebase": {"den": 48000, "num": 1}, "path": "/home/robsen/Dropbox/Workdir/Repo/SuesseRache-HH-Taxi/TE_SR_Taxi.mp4", "width": 1920, "has_audio": true, "video_bit_rate": 32091692, "channel_layout": 3, "height": 1080, "display_ratio": {"den": 9, "num": 16}, "interlaced_frame": false, "video_timebase": {"den": 29970, "num": 1}, "duration": 31.317333221435547, "sample_rate": 48000, "pixel_format": 0, "fps": {"den": 100, "num": 2997}, "file_size": "125628279", "top_field_first": true, "pixel_ratio": {"den": 1, "num": 1}, "acodec": "aac", "audio_stream_index": 1, "video_stream_index": 0, "channels": 2, "vcodec": "h264"}, "channel_filter": {"Points": [{"co": {"Y": -1, "X": 1}, "interpolation": 2}]}, "file_id": "Z3LOYBY1PL", "time": {"Points": [{"co": {"Y": 1, "X": 1}, "interpolation": 2}]}}, "value": {"id": "627XQDJ3EP", "start": 0, "end": 31.317333221435547, "position": 3.375, "layer": 1, "image": "/home/robsen/.openshot_qt/thumbnail/Z3LOYBY1PL.png"}, "key": ["clips", {"id": "627XQDJ3EP"}], "partial": false, "type": "update"}, {"old_values": {"alpha": {"Points": [{"co": {"Y": 1, "X": 1}, "interpolation": 2}]}, "rotation": {"Points": [{"co": {"Y": 0, "X": 1}, "interpolation": 2}]}, "scale_y": {"Points": [{"co": {"Y": 1, "X": 1}, "interpolation": 2}]}, "crop_y": {"Points": [{"co": {"Y": 0, "X": 1}, "interpolation": 2}]}, "perspective_c3_x": {"Points": [{"co": {"Y": -1, "X": 1}, "interpolation": 2}]}, "end": 31.317333221435547, "crop_width": {"Points": [{"co": {"Y": -1, "X": 1}, "interpolation": 2}]}, "position": 3.375, "id": "627XQDJ3EP", "wave_color": {"green": {"Points": [{"handle_right": {"Y": 0, "X": 0.5}, "co": {"Y": 123, "X": 1}, "handle_left": {"Y": 1, "X": 0.5}, "handle_type": 0, "interpolation": 0}]}, "blue": {"Points": [{"handle_right": {"Y": 0, "X": 0.5}, "co": {"Y": 255, "X": 1}, "handle_left": {"Y": 1, "X": 0.5}, "handle_type": 0, "interpolation": 0}]}, "alpha": {"Points": [{"handle_right": {"Y": 0, "X": 0.5}, "co": {"Y": 255, "X": 1}, "handle_left": {"Y": 1, "X": 0.5}, "handle_type": 0, "interpolation": 0}]}, "red": {"Points": [{"handle_right": {"Y": 0, "X": 0.5}, "co": {"Y": 0, "X": 1}, "handle_left": {"Y": 1, "X": 0.5}, "handle_type": 0, "interpolation": 0}]}}, "has_video": {"Points": [{"co": {"Y": -1, "X": 1}, "interpolation": 2}]}, "has_audio": {"Points": [{"co": {"Y": -1, "X": 1}, "interpolation": 2}]}, "effects": [], "location_x": {"Points": [{"co": {"Y": 0, "X": 1}, "interpolation": 2}]}, "waveform": false, "title": "TE_SR_Taxi.mp4", "image": "/home/robsen/.openshot_qt/thumbnail/Z3LOYBY1PL.png", "gravity": 4, "scale_x": {"Points": [{"co": {"Y": 1, "X": 1}, "interpolation": 2}]}, "perspective_c1_y": {"Points": [{"co": {"Y": -1, "X": 1}, "interpolation": 2}]}, "crop_height": {"Points": [{"co": {"Y": -1, "X": 1}, "interpolation": 2}]}, "crop_x": {"Points": [{"co": {"Y": 0, "X": 1}, "interpolation": 2}]}, "start": 0, "scale": 1, "shear_y": {"Points": [{"co": {"Y": 0, "X": 1}, "interpolation": 2}]}, "display": 0, "volume": {"Points": [{"co": {"Y": 1, "X": 1}, "interpolation": 2}]}, "channel_mapping": {"Points": [{"co": {"Y": -1, "X": 1}, "interpolation": 2}]}, "anchor": 0, "duration": 31.317333221435547, "perspective_c3_y": {"Points": [{"co": {"Y": -1, "X": 1}, "interpolation": 2}]}, "shear_x": {"Points": [{"co": {"Y": 0, "X": 1}, "interpolation": 2}]}, "perspective_c4_x": {"Points": [{"co": {"Y": -1, "X": 1}, "interpolation": 2}]}, "location_y": {"Points": [{"co": {"Y": 0, "X": 1}, "interpolation": 2}]}, "perspective_c2_x": {"Points": [{"co": {"Y": -1, "X": 1}, "interpolation": 2}]}, "layer": 1, "perspective_c2_y": {"Points": [{"co": {"Y": -1, "X": 1}, "interpolation": 2}]}, "perspective_c1_x": {"Points": [{"co": {"Y": -1, "X": 1}, "interpolation": 2}]}, "perspective_c4_y": {"Points": [{"co": {"Y": -1, "X": 1}, "interpolation": 2}]}, "reader": {"audio_bit_rate": 189375, "has_single_image": false, "has_video": true, "type": "FFmpegReader", "video_length": "937", "audio_timebase": {"den": 48000, "num": 1}, "path": "/home/robsen/Dropbox/Workdir/Repo/SuesseRache-HH-Taxi/TE_SR_Taxi.mp4", "width": 1920, "has_audio": true, "video_bit_rate": 32091692, "channel_layout": 3, "height": 1080, "display_ratio": {"den": 9, "num": 16}, "interlaced_frame": false, "video_timebase": {"den": 29970, "num": 1}, "duration": 31.317333221435547, "sample_rate": 48000, "pixel_format": 0, "fps": {"den": 100, "num": 2997}, "file_size": "125628279", "top_field_first": true, "pixel_ratio": {"den": 1, "num": 1}, "acodec": "aac", "audio_stream_index": 1, "video_stream_index": 0, "channels": 2, "vcodec": "h264"}, "channel_filter": {"Points": [{"co": {"Y": -1, "X": 1}, "interpolation": 2}]}, "file_id": "Z3LOYBY1PL", "time": {"Points": [{"co": {"Y": 1, "X": 1}, "interpolation": 2}]}}, "value": {"id": "627XQDJ3EP", "start": 0, "end": 31.317333221435547, "position": 3.375, "layer": 1, "image": "/home/robsen/.openshot_qt/thumbnail/Z3LOYBY1PL.png"}, "key": ["clips", {"id": "627XQDJ3EP"}], "partial": false, "type": "update"}, {"old_values": null, "value": {"id": "PJWPMFXKV3", "start": 0, "end": 15, "position": 32.755, "layer": 2, "image": "/home/robsen/.openshot_qt/thumbnail/X22V56NF57.png"}, "key": ["clips", {"id": "PJWPMFXKV3"}], "partial": false, "type": "update"}, {"old_values": null, "value": {"id": "PJWPMFXKV3", "start": 0, "end": 15, "position": 32.755, "layer": 2, "image": "/home/robsen/.openshot_qt/thumbnail/X22V56NF57.png"}, "key": ["clips", {"id": "PJWPMFXKV3"}], "partial": false, "type": "update"}, {"old_values": null, "value": {"id": "PJWPMFXKV3", "start": 0, "end": 15, "position": 32.755, "layer": 2, "image": "/home/robsen/.openshot_qt/thumbnail/X22V56NF57.png"}, "key": ["clips", {"id": "PJWPMFXKV3"}], "partial": false, "type": "update"}, {"old_values": {"alpha": {"Points": [{"co": {"Y": 1, "X": 1}, "interpolation": 2}, {"handle_right": {"Y": 0, "X": 0.5}, "co": {"Y": 0, "X": 1}, "handle_left": {"Y": 1, "X": 0.5}, "handle_type": 0, "interpolation": 0}, {"handle_right": {"Y": 0, "X": 0.5}, "co": {"Y": 1, "X": 73}, "handle_left": {"Y": 1, "X": 0.5}, "handle_type": 0, "interpolation": 0}]}, "rotation": {"Points": [{"co": {"Y": 0, "X": 1}, "interpolation": 2}]}, "scale_y": {"Points": [{"co": {"Y": 1, "X": 1}, "interpolation": 2}]}, "crop_y": {"Points": [{"co": {"Y": 0, "X": 1}, "interpolation": 2}]}, "perspective_c3_x": {"Points": [{"co": {"Y": -1, "X": 1}, "interpolation": 2}]}, "end": 15, "crop_width": {"Points": [{"co": {"Y": -1, "X": 1}, "interpolation": 2}]}, "position": 32.755, "id": "PJWPMFXKV3", "wave_color": {"green": {"Points": [{"handle_right": {"Y": 0, "X": 0.5}, "co": {"Y": 123, "X": 1}, "handle_left": {"Y": 1, "X": 0.5}, "handle_type": 0, "interpolation": 0}]}, "blue": {"Points": [{"handle_right": {"Y": 0, "X": 0.5}, "co": {"Y": 255, "X": 1}, "handle_left": {"Y": 1, "X": 0.5}, "handle_type": 0, "interpolation": 0}]}, "alpha": {"Points": [{"handle_right": {"Y": 0, "X": 0.5}, "co": {"Y": 255, "X": 1}, "handle_left": {"Y": 1, "X": 0.5}, "handle_type": 0, "interpolation": 0}]}, "red": {"Points": [{"handle_right": {"Y": 0, "X": 0.5}, "co": {"Y": 0, "X": 1}, "handle_left": {"Y": 1, "X": 0.5}, "handle_type": 0, "interpolation": 0}]}}, "has_video": {"Points": [{"co": {"Y": -1, "X": 1}, "interpolation": 2}]}, "has_audio": {"Points": [{"co": {"Y": -1, "X": 1}, "interpolation": 2}]}, "effects": [], "location_x": {"Points": [{"co": {"Y": 0, "X": 1}, "interpolation": 2}]}, "waveform": false, "title": "arrow.mp4", "image": "/home/robsen/.openshot_qt/thumbnail/X22V56NF57.png", "gravity": 4, "scale_x": {"Points": [{"co": {"Y": 1, "X": 1}, "interpolation": 2}]}, "perspective_c1_y": {"Points": [{"co": {"Y": -1, "X": 1}, "interpolation": 2}]}, "crop_height": {"Points": [{"co": {"Y": -1, "X": 1}, "interpolation": 2}]}, "crop_x": {"Points": [{"co": {"Y": 0, "X": 1}, "interpolation": 2}]}, "start": 0, "scale": 1, "shear_y": {"Points": [{"co": {"Y": 0, "X": 1}, "interpolation": 2}]}, "display": 0, "volume": {"Points": [{"co": {"Y": 1, "X": 1}, "interpolation": 2}]}, "channel_mapping": {"Points": [{"co": {"Y": -1, "X": 1}, "interpolation": 2}]}, "anchor": 0, "duration": 15.0, "perspective_c3_y": {"Points": [{"co": {"Y": -1, "X": 1}, "interpolation": 2}]}, "shear_x": {"Points": [{"co": {"Y": 0, "X": 1}, "interpolation": 2}]}, "perspective_c4_x": {"Points": [{"co": {"Y": -1, "X": 1}, "interpolation": 2}]}, "location_y": {"Points": [{"co": {"Y": 0, "X": 1}, "interpolation": 2}]}, "perspective_c2_x": {"Points": [{"co": {"Y": -1, "X": 1}, "interpolation": 2}]}, "layer": 2, "perspective_c2_y": {"Points": [{"co": {"Y": -1, "X": 1}, "interpolation": 2}]}, "perspective_c1_x": {"Points": [{"co": {"Y": -1, "X": 1}, "interpolation": 2}]}, "perspective_c4_y": {"Points": [{"co": {"Y": -1, "X": 1}, "interpolation": 2}]}, "reader": {"audio_bit_rate": 0, "has_single_image": false, "has_video": true, "type": "FFmpegReader", "video_length": "375", "audio_timebase": {"den": 1, "num": 1}, "path": "/home/robsen/Dropbox/Workdir/Repo/SuesseRache-HH-Taxi/arrow.mp4", "width": 1920, "has_audio": false, "video_bit_rate": 83079, "channel_layout": 4, "height": 1080, "display_ratio": {"den": 9, "num": 16}, "interlaced_frame": false, "video_timebase": {"den": 12800, "num": 1}, "duration": 15.0, "sample_rate": 0, "pixel_format": 0, "fps": {"den": 1, "num": 25}, "file_size": "155774", "top_field_first": true, "pixel_ratio": {"den": 1, "num": 1}, "acodec": "", "audio_stream_index": -1, "video_stream_index": 0, "channels": 0, "vcodec": "h264"}, "channel_filter": {"Points": [{"co": {"Y": -1, "X": 1}, "interpolation": 2}]}, "file_id": "X22V56NF57", "time": {"Points": [{"co": {"Y": 1, "X": 1}, "interpolation": 2}]}}, "value": {"end": 5.0}, "key": ["clips", {"id": "PJWPMFXKV3"}], "partial": false, "type": "update"}, {"old_values": {"alpha": {"Points": [{"co": {"Y": 1, "X": 1}, "interpolation": 2}, {"handle_right": {"Y": 0, "X": 0.5}, "co": {"Y": 0, "X": 1}, "handle_left": {"Y": 1, "X": 0.5}, "handle_type": 0, "interpolation": 0}, {"handle_right": {"Y": 0, "X": 0.5}, "co": {"Y": 1, "X": 73}, "handle_left": {"Y": 1, "X": 0.5}, "handle_type": 0, "interpolation": 0}]}, "rotation": {"Points": [{"co": {"Y": 0, "X": 1}, "interpolation": 2}]}, "scale_y": {"Points": [{"co": {"Y": 1, "X": 1}, "interpolation": 2}]}, "crop_y": {"Points": [{"co": {"Y": 0, "X": 1}, "interpolation": 2}]}, "perspective_c3_x": {"Points": [{"co": {"Y": -1, "X": 1}, "interpolation": 2}]}, "end": 5.0, "crop_width": {"Points": [{"co": {"Y": -1, "X": 1}, "interpolation": 2}]}, "position": 32.755, "id": "PJWPMFXKV3", "wave_color": {"green": {"Points": [{"handle_right": {"Y": 0, "X": 0.5}, "co": {"Y": 123, "X": 1}, "handle_left": {"Y": 1, "X": 0.5}, "handle_type": 0, "interpolation": 0}]}, "blue": {"Points": [{"handle_right": {"Y": 0, "X": 0.5}, "co": {"Y": 255, "X": 1}, "handle_left": {"Y": 1, "X": 0.5}, "handle_type": 0, "interpolation": 0}]}, "alpha": {"Points": [{"handle_right": {"Y": 0, "X": 0.5}, "co": {"Y": 255, "X": 1}, "handle_left": {"Y": 1, "X": 0.5}, "handle_type": 0, "interpolation": 0}]}, "red": {"Points": [{"handle_right": {"Y": 0, "X": 0.5}, "co": {"Y": 0, "X": 1}, "handle_left": {"Y": 1, "X": 0.5}, "handle_type": 0, "interpolation": 0}]}}, "has_video": {"Points": [{"co": {"Y": -1, "X": 1}, "interpolation": 2}]}, "has_audio": {"Points": [{"co": {"Y": -1, "X": 1}, "interpolation": 2}]}, "effects": [], "location_x": {"Points": [{"co": {"Y": 0, "X": 1}, "interpolation": 2}]}, "waveform": false, "title": "arrow.mp4", "image": "/home/robsen/.openshot_qt/thumbnail/X22V56NF57.png", "gravity": 4, "scale_x": {"Points": [{"co": {"Y": 1, "X": 1}, "interpolation": 2}]}, "perspective_c1_y": {"Points": [{"co": {"Y": -1, "X": 1}, "interpolation": 2}]}, "crop_height": {"Points": [{"co": {"Y": -1, "X": 1}, "interpolation": 2}]}, "crop_x": {"Points": [{"co": {"Y": 0, "X": 1}, "interpolation": 2}]}, "start": 0, "scale": 1, "shear_y": {"Points": [{"co": {"Y": 0, "X": 1}, "interpolation": 2}]}, "display": 0, "volume": {"Points": [{"co": {"Y": 1, "X": 1}, "interpolation": 2}]}, "channel_mapping": {"Points": [{"co": {"Y": -1, "X": 1}, "interpolation": 2}]}, "anchor": 0, "duration": 15.0, "perspective_c3_y": {"Points": [{"co": {"Y": -1, "X": 1}, "interpolation": 2}]}, "shear_x": {"Points": [{"co": {"Y": 0, "X": 1}, "interpolation": 2}]}, "perspective_c4_x": {"Points": [{"co": {"Y": -1, "X": 1}, "interpolation": 2}]}, "location_y": {"Points": [{"co": {"Y": 0, "X": 1}, "interpolation": 2}]}, "perspective_c2_x": {"Points": [{"co": {"Y": -1, "X": 1}, "interpolation": 2}]}, "layer": 2, "perspective_c2_y": {"Points": [{"co": {"Y": -1, "X": 1}, "interpolation": 2}]}, "perspective_c1_x": {"Points": [{"co": {"Y": -1, "X": 1}, "interpolation": 2}]}, "perspective_c4_y": {"Points": [{"co": {"Y": -1, "X": 1}, "interpolation": 2}]}, "reader": {"audio_bit_rate": 0, "has_single_image": false, "has_video": true, "type": "FFmpegReader", "video_length": "375", "audio_timebase": {"den": 1, "num": 1}, "path": "/home/robsen/Dropbox/Workdir/Repo/SuesseRache-HH-Taxi/arrow.mp4", "width": 1920, "has_audio": false, "video_bit_rate": 83079, "channel_layout": 4, "height": 1080, "display_ratio": {"den": 9, "num": 16}, "interlaced_frame": false, "video_timebase": {"den": 12800, "num": 1}, "duration": 15.0, "sample_rate": 0, "pixel_format": 0, "fps": {"den": 1, "num": 25}, "file_size": "155774", "top_field_first": true, "pixel_ratio": {"den": 1, "num": 1}, "acodec": "", "audio_stream_index": -1, "video_stream_index": 0, "channels": 0, "vcodec": "h264"}, "channel_filter": {"Points": [{"co": {"Y": -1, "X": 1}, "interpolation": 2}]}, "file_id": "X22V56NF57", "time": {"Points": [{"co": {"Y": 1, "X": 1}, "interpolation": 2}]}}, "value": {"id": "PJWPMFXKV3", "start": 0, "end": 5, "position": 29.89, "layer": 2, "image": "/home/robsen/.openshot_qt/thumbnail/X22V56NF57.png"}, "key": ["clips", {"id": "PJWPMFXKV3"}], "partial": false, "type": "update"}]}, "old_values": null, "partial": false, "key": ["history"], "type": "update"}, {"value": {"redo": [], "undo": [{"old_values": null, "value": {"redo": [], "undo": [{"old_values": [{"number": 0, "label": "Spur 1", "id": "UBOPYJIV1S", "y": 0}, {"number": 1, "label": "Spur 2", "id": "SHY16ICR2M", "y": 0}], "value": {"number": 2, "y": 0, "label": "", "id": "E44ZNJSI3Z", "lock": false}, "key": ["layers"], "partial": false, "type": "insert"}, {"old_values": [], "value": {"audio_bit_rate": 0, "has_single_image": false, "media_type": "video", "id": "LGW3TZJV4Q", "type": "FFmpegReader", "has_video": true, "video_length": "375", "audio_timebase": {"den": 1, "num": 1}, "path": "/home/robsen/Dropbox/Workdir/Repo/SuesseRache-HH-Taxi/taxi_start.mp4", "width": 1920, "has_audio": false, "video_bit_rate": 147692, "channel_layout": 4, "height": 1080, "vcodec": "h264", "display_ratio": {"den": 9, "num": 16}, "interlaced_frame": false, "duration": 15, "sample_rate": 0, "pixel_format": 0, "video_timebase": {"den": 12800, "num": 1}, "file_size": "276924", "top_field_first": true, "pixel_ratio": {"den": 1, "num": 1}, "acodec": "", "audio_stream_index": -1, "video_stream_index": 0, "channels": 0, "fps": {"den": 1, "num": 25}}, "key": ["files"], "partial": false, "type": "insert"}, {"old_values": [{"audio_bit_rate": 0, "has_single_image": false, "media_type": "video", "id": "LGW3TZJV4Q", "type": "FFmpegReader", "has_video": true, "video_length": "375", "audio_timebase": {"den": 1, "num": 1}, "path": "/home/robsen/Dropbox/Workdir/Repo/SuesseRache-HH-Taxi/taxi_start.mp4", "width": 1920, "has_audio": false, "video_bit_rate": 147692, "channel_layout": 4, "height": 1080, "vcodec": "h264", "display_ratio": {"den": 9, "num": 16}, "interlaced_frame": false, "duration": 15, "sample_rate": 0, "pixel_format": 0, "video_timebase": {"den": 12800, "num": 1}, "file_size": "276924", "top_field_first": true, "pixel_ratio": {"den": 1, "num": 1}, "acodec": "", "audio_stream_index": -1, "video_stream_index": 0, "channels": 0, "fps": {"den": 1, "num": 25}}], "value": {"audio_bit_rate": 189375, "has_single_image": false, "media_type": "video", "id": "Z3LOYBY1PL", "type": "FFmpegReader", "has_video": true, "video_length": "937", "audio_timebase": {"den": 48000, "num": 1}, "path": "/home/robsen/Dropbox/Workdir/Repo/SuesseRache-HH-Taxi/TE_SR_Taxi.mp4", "width": 1920, "has_audio": true, "video_bit_rate": 32091692, "channel_layout": 3, "height": 1080, "vcodec": "h264", "display_ratio": {"den": 9, "num": 16}, "interlaced_frame": false, "duration": 31.317333221435547, "sample_rate": 48000, "pixel_format": 0, "video_timebase": {"den": 29970, "num": 1}, "file_size": "125628279", "top_field_first": true, "pixel_ratio": {"den": 1, "num": 1}, "acodec": "aac", "audio_stream_index": 1, "video_stream_index": 0, "channels": 2, "fps": {"den": 100, "num": 2997}}, "key": ["files"], "partial": false, "type": "insert"}, {"old_values": [{"audio_bit_rate": 0, "has_single_image": false, "media_type": "video", "id": "LGW3TZJV4Q", "type": "FFmpegReader", "has_video": true, "video_length": "375", "audio_timebase": {"den": 1, "num": 1}, "path": "/home/robsen/Dropbox/Workdir/Repo/SuesseRache-HH-Taxi/taxi_start.mp4", "width": 1920, "has_audio": false, "video_bit_rate": 147692, "channel_layout": 4, "height": 1080, "vcodec": "h264", "display_ratio": {"den": 9, "num": 16}, "interlaced_frame": false, "duration": 15, "sample_rate": 0, "pixel_format": 0, "video_timebase": {"den": 12800, "num": 1}, "file_size": "276924", "top_field_first": true, "pixel_ratio": {"den": 1, "num": 1}, "acodec": "", "audio_stream_index": -1, "video_stream_index": 0, "channels": 0, "fps": {"den": 1, "num": 25}}, {"audio_bit_rate": 189375, "has_single_image": false, "media_type": "video", "id": "Z3LOYBY1PL", "type": "FFmpegReader", "has_video": true, "video_length": "937", "audio_timebase": {"den": 48000, "num": 1}, "path": "/home/robsen/Dropbox/Workdir/Repo/SuesseRache-HH-Taxi/TE_SR_Taxi.mp4", "width": 1920, "has_audio": true, "video_bit_rate": 32091692, "channel_layout": 3, "height": 1080, "vcodec": "h264", "display_ratio": {"den": 9, "num": 16}, "interlaced_frame": false, "duration": 31.317333221435547, "sample_rate": 48000, "pixel_format": 0, "video_timebase": {"den": 29970, "num": 1}, "file_size": "125628279", "top_field_first": true, "pixel_ratio": {"den": 1, "num": 1}, "acodec": "aac", "audio_stream_index": 1, "video_stream_index": 0, "channels": 2, "fps": {"den": 100, "num": 2997}}], "value": {"audio_bit_rate": 0, "has_single_image": false, "media_type": "video", "id": "X22V56NF57", "type": "FFmpegReader", "has_video": true, "video_length": "375", "audio_timebase": {"den": 1, "num": 1}, "path": "/home/robsen/Dropbox/Workdir/Repo/SuesseRache-HH-Taxi/arrow.mp4", "width": 1920, "has_audio": false, "video_bit_rate": 83079, "channel_layout": 4, "height": 1080, "vcodec": "h264", "display_ratio": {"den": 9, "num": 16}, "interlaced_frame": false, "duration": 15, "sample_rate": 0, "pixel_format": 0, "video_timebase": {"den": 12800, "num": 1}, "file_size": "155774", "top_field_first": true, "pixel_ratio": {"den": 1, "num": 1}, "acodec": "", "audio_stream_index": -1, "video_stream_index": 0, "channels": 0, "fps": {"den": 1, "num": 25}}, "key": ["files"], "partial": false, "type": "insert"}, {"old_values": [], "value": {"alpha": {"Points": [{"co": {"Y": 1, "X": 1}, "interpolation": 2}, {"handle_right": {"Y": 0, "X": 0.5}, "co": {"Y": 1, "X": 289}, "handle_left": {"Y": 1, "X": 0.5}, "handle_type": 0, "interpolation": 0}, {"handle_right": {"Y": 0, "X": 0.5}, "co": {"Y": 0, "X": 361}, "handle_left": {"Y": 1, "X": 0.5}, "handle_type": 0, "interpolation": 0}, {"handle_right": {"Y": 0, "X": 0.5}, "co": {"Y": 0, "X": 1}, "handle_left": {"Y": 1, "X": 0.5}, "handle_type": 0, "interpolation": 0}, {"handle_right": {"Y": 0, "X": 0.5}, "co": {"Y": 1, "X": 73}, "handle_left": {"Y": 1, "X": 0.5}, "handle_type": 0, "interpolation": 0}]}, "rotation": {"Points": [{"co": {"Y": 0, "X": 1}, "interpolation": 2}]}, "scale_y": {"Points": [{"co": {"Y": 1, "X": 1}, "interpolation": 2}]}, "crop_y": {"Points": [{"co": {"Y": 0, "X": 1}, "interpolation": 2}]}, "perspective_c3_x": {"Points": [{"co": {"Y": -1, "X": 1}, "interpolation": 2}]}, "end": 15, "crop_width": {"Points": [{"co": {"Y": -1, "X": 1}, "interpolation": 2}]}, "position": 8.8, "id": "0AEDFYGQ7J", "wave_color": {"green": {"Points": [{"handle_right": {"Y": 0, "X": 0.5}, "co": {"Y": 123, "X": 1}, "handle_left": {"Y": 1, "X": 0.5}, "handle_type": 0, "interpolation": 0}]}, "blue": {"Points": [{"handle_right": {"Y": 0, "X": 0.5}, "co": {"Y": 255, "X": 1}, "handle_left": {"Y": 1, "X": 0.5}, "handle_type": 0, "interpolation": 0}]}, "alpha": {"Points": [{"handle_right": {"Y": 0, "X": 0.5}, "co": {"Y": 255, "X": 1}, "handle_left": {"Y": 1, "X": 0.5}, "handle_type": 0, "interpolation": 0}]}, "red": {"Points": [{"handle_right": {"Y": 0, "X": 0.5}, "co": {"Y": 0, "X": 1}, "handle_left": {"Y": 1, "X": 0.5}, "handle_type": 0, "interpolation": 0}]}}, "has_video": {"Points": [{"co": {"Y": -1, "X": 1}, "interpolation": 2}]}, "has_audio": {"Points": [{"co": {"Y": -1, "X": 1}, "interpolation": 2}]}, "effects": [], "location_x": {"Points": [{"co": {"Y": 0, "X": 1}, "interpolation": 2}]}, "waveform": false, "title": "taxi_start.mp4", "image": "/home/robsen/.openshot_qt/thumbnail/LGW3TZJV4Q.png", "gravity": 4, "scale_x": {"Points": [{"co": {"Y": 1, "X": 1}, "interpolation": 2}]}, "perspective_c1_y": {"Points": [{"co": {"Y": -1, "X": 1}, "interpolation": 2}]}, "crop_height": {"Points": [{"co": {"Y": -1, "X": 1}, "interpolation": 2}]}, "crop_x": {"Points": [{"co": {"Y": 0, "X": 1}, "interpolation": 2}]}, "start": 0, "scale": 1, "shear_y": {"Points": [{"co": {"Y": 0, "X": 1}, "interpolation": 2}]}, "display": 0, "volume": {"Points": [{"co": {"Y": 1, "X": 1}, "interpolation": 2}]}, "channel_mapping": {"Points": [{"co": {"Y": -1, "X": 1}, "interpolation": 2}]}, "anchor": 0, "duration": 15.0, "perspective_c3_y": {"Points": [{"co": {"Y": -1, "X": 1}, "interpolation": 2}]}, "shear_x": {"Points": [{"co": {"Y": 0, "X": 1}, "interpolation": 2}]}, "perspective_c4_x": {"Points": [{"co": {"Y": -1, "X": 1}, "interpolation": 2}]}, "location_y": {"Points": [{"co": {"Y": 0, "X": 1}, "interpolation": 2}]}, "perspective_c2_x": {"Points": [{"co": {"Y": -1, "X": 1}, "interpolation": 2}]}, "layer": 0, "perspective_c2_y": {"Points": [{"co": {"Y": -1, "X": 1}, "interpolation": 2}]}, "perspective_c1_x": {"Points": [{"co": {"Y": -1, "X": 1}, "interpolation": 2}]}, "perspective_c4_y": {"Points": [{"co": {"Y": -1, "X": 1}, "interpolation": 2}]}, "reader": {"audio_bit_rate": 0, "has_single_image": false, "has_video": true, "type": "FFmpegReader", "video_length": "375", "audio_timebase": {"den": 1, "num": 1}, "path": "/home/robsen/Dropbox/Workdir/Repo/SuesseRache-HH-Taxi/taxi_start.mp4", "width": 1920, "has_audio": false, "video_bit_rate": 147692, "channel_layout": 4, "height": 1080, "display_ratio": {"den": 9, "num": 16}, "interlaced_frame": false, "video_timebase": {"den": 12800, "num": 1}, "duration": 15.0, "sample_rate": 0, "pixel_format": 0, "fps": {"den": 1, "num": 25}, "file_size": "276924", "top_field_first": true, "pixel_ratio": {"den": 1, "num": 1}, "acodec": "", "audio_stream_index": -1, "video_stream_index": 0, "channels": 0, "vcodec": "h264"}, "channel_filter": {"Points": [{"co": {"Y": -1, "X": 1}, "interpolation": 2}]}, "file_id": "LGW3TZJV4Q", "time": {"Points": [{"co": {"Y": 1, "X": 1}, "interpolation": 2}]}}, "key": ["clips"], "partial": false, "type": "insert"}, {"old_values": null, "value": {"id": "0AEDFYGQ7J", "start": 0, "end": 15, "position": 8.8, "layer": 0, "image": "/home/robsen/.openshot_qt/thumbnail/LGW3TZJV4Q.png"}, "key": ["clips", {"id": "0AEDFYGQ7J"}], "partial": false, "type": "update"}, {"old_values": null, "value": {"id": "0AEDFYGQ7J", "start": 0, "end": 15, "position": 8.8, "layer": 0, "image": "/home/robsen/.openshot_qt/thumbnail/LGW3TZJV4Q.png"}, "key": ["clips", {"id": "0AEDFYGQ7J"}], "partial": false, "type": "update"}, {"old_values": [{"alpha": {"Points": [{"co": {"Y": 1, "X": 1}, "interpolation": 2}]}, "rotation": {"Points": [{"co": {"Y": 0, "X": 1}, "interpolation": 2}]}, "scale_y": {"Points": [{"co": {"Y": 1, "X": 1}, "interpolation": 2}]}, "crop_y": {"Points": [{"co": {"Y": 0, "X": 1}, "interpolation": 2}]}, "perspective_c3_x": {"Points": [{"co": {"Y": -1, "X": 1}, "interpolation": 2}]}, "end": 15, "crop_width": {"Points": [{"co": {"Y": -1, "X": 1}, "interpolation": 2}]}, "position": 8.8, "id": "0AEDFYGQ7J", "wave_color": {"green": {"Points": [{"handle_right": {"Y": 0, "X": 0.5}, "co": {"Y": 123, "X": 1}, "handle_left": {"Y": 1, "X": 0.5}, "handle_type": 0, "interpolation": 0}]}, "blue": {"Points": [{"handle_right": {"Y": 0, "X": 0.5}, "co": {"Y": 255, "X": 1}, "handle_left": {"Y": 1, "X": 0.5}, "handle_type": 0, "interpolation": 0}]}, "alpha": {"Points": [{"handle_right": {"Y": 0, "X": 0.5}, "co": {"Y": 255, "X": 1}, "handle_left": {"Y": 1, "X": 0.5}, "handle_type": 0, "interpolation": 0}]}, "red": {"Points": [{"handle_right": {"Y": 0, "X": 0.5}, "co": {"Y": 0, "X": 1}, "handle_left": {"Y": 1, "X": 0.5}, "handle_type": 0, "interpolation": 0}]}}, "has_video": {"Points": [{"co": {"Y": -1, "X": 1}, "interpolation": 2}]}, "has_audio": {"Points": [{"co": {"Y": -1, "X": 1}, "interpolation": 2}]}, "effects": [], "location_x": {"Points": [{"co": {"Y": 0, "X": 1}, "interpolation": 2}]}, "waveform": false, "title": "taxi_start.mp4", "image": "/home/robsen/.openshot_qt/thumbnail/LGW3TZJV4Q.png", "gravity": 4, "perspective_c2_x": {"Points": [{"co": {"Y": -1, "X": 1}, "interpolation": 2}]}, "perspective_c1_y": {"Points": [{"co": {"Y": -1, "X": 1}, "interpolation": 2}]}, "crop_height": {"Points": [{"co": {"Y": -1, "X": 1}, "interpolation": 2}]}, "crop_x": {"Points": [{"co": {"Y": 0, "X": 1}, "interpolation": 2}]}, "start": 0, "scale": 1, "shear_y": {"Points": [{"co": {"Y": 0, "X": 1}, "interpolation": 2}]}, "display": 0, "volume": {"Points": [{"co": {"Y": 1, "X": 1}, "interpolation": 2}]}, "channel_mapping": {"Points": [{"co": {"Y": -1, "X": 1}, "interpolation": 2}]}, "anchor": 0, "duration": 15.0, "perspective_c3_y": {"Points": [{"co": {"Y": -1, "X": 1}, "interpolation": 2}]}, "shear_x": {"Points": [{"co": {"Y": 0, "X": 1}, "interpolation": 2}]}, "perspective_c4_x": {"Points": [{"co": {"Y": -1, "X": 1}, "interpolation": 2}]}, "location_y": {"Points": [{"co": {"Y": 0, "X": 1}, "interpolation": 2}]}, "scale_x": {"Points": [{"co": {"Y": 1, "X": 1}, "interpolation": 2}]}, "layer": 0, "perspective_c2_y": {"Points": [{"co": {"Y": -1, "X": 1}, "interpolation": 2}]}, "perspective_c1_x": {"Points": [{"co": {"Y": -1, "X": 1}, "interpolation": 2}]}, "perspective_c4_y": {"Points": [{"co": {"Y": -1, "X": 1}, "interpolation": 2}]}, "reader": {"audio_bit_rate": 0, "has_single_image": false, "vcodec": "h264", "has_video": true, "type": "FFmpegReader", "video_length": "375", "audio_timebase": {"den": 1, "num": 1}, "path": "/home/robsen/Dropbox/Workdir/Repo/SuesseRache-HH-Taxi/taxi_start.mp4", "width": 1920, "has_audio": false, "video_bit_rate": 147692, "channel_layout": 4, "height": 1080, "display_ratio": {"den": 9, "num": 16}, "interlaced_frame": false, "duration": 15.0, "sample_rate": 0, "pixel_format": 0, "video_timebase": {"den": 12800, "num": 1}, "file_size": "276924", "top_field_first": true, "pixel_ratio": {"den": 1, "num": 1}, "acodec": "", "audio_stream_index": -1, "video_stream_index": 0, "channels": 0, "fps": {"den": 1, "num": 25}}, "channel_filter": {"Points": [{"co": {"Y": -1, "X": 1}, "interpolation": 2}]}, "file_id": "LGW3TZJV4Q", "time": {"Points": [{"co": {"Y": 1, "X": 1}, "interpolation": 2}]}}], "value": {"alpha": {"Points": [{"co": {"Y": 1, "X": 1}, "interpolation": 2}]}, "rotation": {"Points": [{"co": {"Y": 0, "X": 1}, "interpolation": 2}]}, "scale_y": {"Points": [{"co": {"Y": 1, "X": 1}, "interpolation": 2}]}, "crop_y": {"Points": [{"co": {"Y": 0, "X": 1}, "interpolation": 2}]}, "perspective_c3_x": {"Points": [{"co": {"Y": -1, "X": 1}, "interpolation": 2}]}, "end": 31.317333221435547, "crop_width": {"Points": [{"co": {"Y": -1, "X": 1}, "interpolation": 2}]}, "position": 21.76, "id": "627XQDJ3EP", "wave_color": {"green": {"Points": [{"handle_right": {"Y": 0, "X": 0.5}, "co": {"Y": 123, "X": 1}, "handle_left": {"Y": 1, "X": 0.5}, "handle_type": 0, "interpolation": 0}]}, "blue": {"Points": [{"handle_right": {"Y": 0, "X": 0.5}, "co": {"Y": 255, "X": 1}, "handle_left": {"Y": 1, "X": 0.5}, "handle_type": 0, "interpolation": 0}]}, "alpha": {"Points": [{"handle_right": {"Y": 0, "X": 0.5}, "co": {"Y": 255, "X": 1}, "handle_left": {"Y": 1, "X": 0.5}, "handle_type": 0, "interpolation": 0}]}, "red": {"Points": [{"handle_right": {"Y": 0, "X": 0.5}, "co": {"Y": 0, "X": 1}, "handle_left": {"Y": 1, "X": 0.5}, "handle_type": 0, "interpolation": 0}]}}, "has_video": {"Points": [{"co": {"Y": -1, "X": 1}, "interpolation": 2}]}, "has_audio": {"Points": [{"co": {"Y": -1, "X": 1}, "interpolation": 2}]}, "effects": [], "location_x": {"Points": [{"co": {"Y": 0, "X": 1}, "interpolation": 2}]}, "waveform": false, "title": "TE_SR_Taxi.mp4", "image": "/home/robsen/.openshot_qt/thumbnail/Z3LOYBY1PL.png", "gravity": 4, "scale_x": {"Points": [{"co": {"Y": 1, "X": 1}, "interpolation": 2}]}, "perspective_c1_y": {"Points": [{"co": {"Y": -1, "X": 1}, "interpolation": 2}]}, "crop_height": {"Points": [{"co": {"Y": -1, "X": 1}, "interpolation": 2}]}, "crop_x": {"Points": [{"co": {"Y": 0, "X": 1}, "interpolation": 2}]}, "start": 0, "scale": 1, "shear_y": {"Points": [{"co": {"Y": 0, "X": 1}, "interpolation": 2}]}, "display": 0, "volume": {"Points": [{"co": {"Y": 1, "X": 1}, "interpolation": 2}]}, "channel_mapping": {"Points": [{"co": {"Y": -1, "X": 1}, "interpolation": 2}]}, "anchor": 0, "duration": 31.317333221435547, "perspective_c3_y": {"Points": [{"co": {"Y": -1, "X": 1}, "interpolation": 2}]}, "shear_x": {"Points": [{"co": {"Y": 0, "X": 1}, "interpolation": 2}]}, "perspective_c4_x": {"Points": [{"co": {"Y": -1, "X": 1}, "interpolation": 2}]}, "location_y": {"Points": [{"co": {"Y": 0, "X": 1}, "interpolation": 2}]}, "perspective_c2_x": {"Points": [{"co": {"Y": -1, "X": 1}, "interpolation": 2}]}, "layer": 1, "perspective_c2_y": {"Points": [{"co": {"Y": -1, "X": 1}, "interpolation": 2}]}, "perspective_c1_x": {"Points": [{"co": {"Y": -1, "X": 1}, "interpolation": 2}]}, "perspective_c4_y": {"Points": [{"co": {"Y": -1, "X": 1}, "interpolation": 2}]}, "reader": {"audio_bit_rate": 189375, "has_single_image": false, "has_video": true, "type": "FFmpegReader", "video_length": "937", "audio_timebase": {"den": 48000, "num": 1}, "path": "/home/robsen/Dropbox/Workdir/Repo/SuesseRache-HH-Taxi/TE_SR_Taxi.mp4", "width": 1920, "has_audio": true, "video_bit_rate": 32091692, "channel_layout": 3, "height": 1080, "display_ratio": {"den": 9, "num": 16}, "interlaced_frame": false, "video_timebase": {"den": 29970, "num": 1}, "duration": 31.317333221435547, "sample_rate": 48000, "pixel_format": 0, "fps": {"den": 100, "num": 2997}, "file_size": "125628279", "top_field_first": true, "pixel_ratio": {"den": 1, "num": 1}, "acodec": "aac", "audio_stream_index": 1, "video_stream_index": 0, "channels": 2, "vcodec": "h264"}, "channel_filter": {"Points": [{"co": {"Y": -1, "X": 1}, "interpolation": 2}]}, "file_id": "Z3LOYBY1PL", "time": {"Points": [{"co": {"Y": 1, "X": 1}, "interpolation": 2}]}}, "key": ["clips"], "partial": false, "type": "insert"}, {"old_values": {"alpha": {"Points": [{"co": {"Y": 1, "X": 1}, "interpolation": 2}]}, "rotation": {"Points": [{"co": {"Y": 0, "X": 1}, "interpolation": 2}]}, "scale_y": {"Points": [{"co": {"Y": 1, "X": 1}, "interpolation": 2}]}, "crop_y": {"Points": [{"co": {"Y": 0, "X": 1}, "interpolation": 2}]}, "perspective_c3_x": {"Points": [{"co": {"Y": -1, "X": 1}, "interpolation": 2}]}, "end": 31.317333221435547, "crop_width": {"Points": [{"co": {"Y": -1, "X": 1}, "interpolation": 2}]}, "position": 18.88, "id": "627XQDJ3EP", "wave_color": {"green": {"Points": [{"handle_right": {"Y": 0, "X": 0.5}, "co": {"Y": 123, "X": 1}, "handle_left": {"Y": 1, "X": 0.5}, "handle_type": 0, "interpolation": 0}]}, "blue": {"Points": [{"handle_right": {"Y": 0, "X": 0.5}, "co": {"Y": 255, "X": 1}, "handle_left": {"Y": 1, "X": 0.5}, "handle_type": 0, "interpolation": 0}]}, "alpha": {"Points": [{"handle_right": {"Y": 0, "X": 0.5}, "co": {"Y": 255, "X": 1}, "handle_left": {"Y": 1, "X": 0.5}, "handle_type": 0, "interpolation": 0}]}, "red": {"Points": [{"handle_right": {"Y": 0, "X": 0.5}, "co": {"Y": 0, "X": 1}, "handle_left": {"Y": 1, "X": 0.5}, "handle_type": 0, "interpolation": 0}]}}, "has_video": {"Points": [{"co": {"Y": -1, "X": 1}, "interpolation": 2}]}, "has_audio": {"Points": [{"co": {"Y": -1, "X": 1}, "interpolation": 2}]}, "effects": [], "location_x": {"Points": [{"co": {"Y": 0, "X": 1}, "interpolation": 2}]}, "waveform": false, "title": "TE_SR_Taxi.mp4", "image": "/home/robsen/.openshot_qt/thumbnail/Z3LOYBY1PL.png", "gravity": 4, "scale_x": {"Points": [{"co": {"Y": 1, "X": 1}, "interpolation": 2}]}, "perspective_c1_y": {"Points": [{"co": {"Y": -1, "X": 1}, "interpolation": 2}]}, "crop_height": {"Points": [{"co": {"Y": -1, "X": 1}, "interpolation": 2}]}, "crop_x": {"Points": [{"co": {"Y": 0, "X": 1}, "interpolation": 2}]}, "start": 0, "scale": 1, "shear_y": {"Points": [{"co": {"Y": 0, "X": 1}, "interpolation": 2}]}, "display": 0, "volume": {"Points": [{"co": {"Y": 1, "X": 1}, "interpolation": 2}]}, "channel_mapping": {"Points": [{"co": {"Y": -1, "X": 1}, "interpolation": 2}]}, "anchor": 0, "duration": 31.317333221435547, "perspective_c3_y": {"Points": [{"co": {"Y": -1, "X": 1}, "interpolation": 2}]}, "shear_x": {"Points": [{"co": {"Y": 0, "X": 1}, "interpolation": 2}]}, "perspective_c4_x": {"Points": [{"co": {"Y": -1, "X": 1}, "interpolation": 2}]}, "location_y": {"Points": [{"co": {"Y": 0, "X": 1}, "interpolation": 2}]}, "perspective_c2_x": {"Points": [{"co": {"Y": -1, "X": 1}, "interpolation": 2}]}, "layer": 2, "perspective_c2_y": {"Points": [{"co": {"Y": -1, "X": 1}, "interpolation": 2}]}, "perspective_c1_x": {"Points": [{"co": {"Y": -1, "X": 1}, "interpolation": 2}]}, "perspective_c4_y": {"Points": [{"co": {"Y": -1, "X": 1}, "interpolation": 2}]}, "reader": {"audio_bit_rate": 189375, "has_single_image": false, "vcodec": "h264", "has_video": true, "type": "FFmpegReader", "video_length": "937", "audio_timebase": {"den": 48000, "num": 1}, "path": "/home/robsen/Dropbox/Workdir/Repo/SuesseRache-HH-Taxi/TE_SR_Taxi.mp4", "width": 1920, "has_audio": true, "video_bit_rate": 32091692, "channel_layout": 3, "height": 1080, "display_ratio": {"den": 9, "num": 16}, "interlaced_frame": false, "duration": 31.317333221435547, "sample_rate": 48000, "pixel_format": 0, "video_timebase": {"den": 29970, "num": 1}, "file_size": "125628279", "top_field_first": true, "pixel_ratio": {"den": 1, "num": 1}, "acodec": "aac", "audio_stream_index": 1, "video_stream_index": 0, "channels": 2, "fps": {"den": 100, "num": 2997}}, "channel_filter": {"Points": [{"co": {"Y": -1, "X": 1}, "interpolation": 2}]}, "file_id": "Z3LOYBY1PL", "time": {"Points": [{"co": {"Y": 1, "X": 1}, "interpolation": 2}]}}, "value": {"id": "627XQDJ3EP", "start": 0, "end": 31.317333221435547, "position": 21.76, "layer": 0, "image": "/home/robsen/.openshot_qt/thumbnail/Z3LOYBY1PL.png"}, "key": ["clips", {"id": "627XQDJ3EP"}], "partial": false, "type": "update"}, {"old_values": [], "value": {"start": 0, "type": "Mask", "contrast": {"Points": [{"co": {"Y": 3, "X": 1}, "interpolation": 2}]}, "layer": 0, "replace_image": false, "title": "Transition", "end": 2.039999999999999, "reader": {"audio_bit_rate": 0, "has_single_image": true, "has_video": true, "type": "QtImageReader", "video_length": "2592000", "audio_timebase": {"den": 1, "num": 1}, "path": "/usr/lib/python3/dist-packages/openshot_qt/transitions/common/fade.svg", "width": 720, "has_audio": false, "video_bit_rate": 0, "channel_layout": 4, "height": 576, "display_ratio": {"den": 4, "num": 5}, "interlaced_frame": false, "video_timebase": {"den": 30, "num": 1}, "duration": 86400, "sample_rate": 0, "pixel_format": -1, "fps": {"den": 1, "num": 30}, "file_size": "1658880", "top_field_first": true, "pixel_ratio": {"den": 1, "num": 1}, "acodec": "", "audio_stream_index": -1, "video_stream_index": -1, "channels": 0, "vcodec": ""}, "brightness": {"Points": [{"handle_right": {"Y": 0, "X": 0.5}, "co": {"Y": 1, "X": 1}, "handle_left": {"Y": 1, "X": 0.5}, "handle_type": 0, "interpolation": 0}, {"handle_right": {"Y": 0, "X": 0.5}, "co": {"Y": -1, "X": 50}, "handle_left": {"Y": 1, "X": 0.5}, "handle_type": 0, "interpolation": 0}]}, "id": "5NBS5H99MA", "position": 21.76}, "key": ["effects"], "partial": false, "type": "insert"}, {"old_values": {"alpha": {"Points": [{"co": {"Y": 1, "X": 1}, "interpolation": 2}]}, "rotation": {"Points": [{"co": {"Y": 0, "X": 1}, "interpolation": 2}]}, "scale_y": {"Points": [{"co": {"Y": 1, "X": 1}, "interpolation": 2}]}, "crop_y": {"Points": [{"co": {"Y": 0, "X": 1}, "interpolation": 2}]}, "perspective_c3_x": {"Points": [{"co": {"Y": -1, "X": 1}, "interpolation": 2}]}, "end": 31.317333221435547, "crop_width": {"Points": [{"co": {"Y": -1, "X": 1}, "interpolation": 2}]}, "position": 21.76, "id": "627XQDJ3EP", "wave_color": {"green": {"Points": [{"handle_right": {"Y": 0, "X": 0.5}, "co": {"Y": 123, "X": 1}, "handle_left": {"Y": 1, "X": 0.5}, "handle_type": 0, "interpolation": 0}]}, "blue": {"Points": [{"handle_right": {"Y": 0, "X": 0.5}, "co": {"Y": 255, "X": 1}, "handle_left": {"Y": 1, "X": 0.5}, "handle_type": 0, "interpolation": 0}]}, "alpha": {"Points": [{"handle_right": {"Y": 0, "X": 0.5}, "co": {"Y": 255, "X": 1}, "handle_left": {"Y": 1, "X": 0.5}, "handle_type": 0, "interpolation": 0}]}, "red": {"Points": [{"handle_right": {"Y": 0, "X": 0.5}, "co": {"Y": 0, "X": 1}, "handle_left": {"Y": 1, "X": 0.5}, "handle_type": 0, "interpolation": 0}]}}, "has_video": {"Points": [{"co": {"Y": -1, "X": 1}, "interpolation": 2}]}, "has_audio": {"Points": [{"co": {"Y": -1, "X": 1}, "interpolation": 2}]}, "effects": [], "location_x": {"Points": [{"co": {"Y": 0, "X": 1}, "interpolation": 2}]}, "waveform": false, "title": "TE_SR_Taxi.mp4", "image": "/home/robsen/.openshot_qt/thumbnail/Z3LOYBY1PL.png", "gravity": 4, "perspective_c2_x": {"Points": [{"co": {"Y": -1, "X": 1}, "interpolation": 2}]}, "perspective_c1_y": {"Points": [{"co": {"Y": -1, "X": 1}, "interpolation": 2}]}, "crop_height": {"Points": [{"co": {"Y": -1, "X": 1}, "interpolation": 2}]}, "crop_x": {"Points": [{"co": {"Y": 0, "X": 1}, "interpolation": 2}]}, "start": 0, "scale": 1, "shear_y": {"Points": [{"co": {"Y": 0, "X": 1}, "interpolation": 2}]}, "display": 0, "volume": {"Points": [{"co": {"Y": 1, "X": 1}, "interpolation": 2}]}, "channel_mapping": {"Points": [{"co": {"Y": -1, "X": 1}, "interpolation": 2}]}, "anchor": 0, "duration": 31.317333221435547, "perspective_c3_y": {"Points": [{"co": {"Y": -1, "X": 1}, "interpolation": 2}]}, "shear_x": {"Points": [{"co": {"Y": 0, "X": 1}, "interpolation": 2}]}, "perspective_c4_x": {"Points": [{"co": {"Y": -1, "X": 1}, "interpolation": 2}]}, "location_y": {"Points": [{"co": {"Y": 0, "X": 1}, "interpolation": 2}]}, "scale_x": {"Points": [{"co": {"Y": 1, "X": 1}, "interpolation": 2}]}, "layer": 0, "perspective_c2_y": {"Points": [{"co": {"Y": -1, "X": 1}, "interpolation": 2}]}, "perspective_c1_x": {"Points": [{"co": {"Y": -1, "X": 1}, "interpolation": 2}]}, "perspective_c4_y": {"Points": [{"co": {"Y": -1, "X": 1}, "interpolation": 2}]}, "reader": {"audio_bit_rate": 189375, "has_single_image": false, "vcodec": "h264", "has_video": true, "type": "FFmpegReader", "video_length": "937", "audio_timebase": {"den": 48000, "num": 1}, "path": "/home/robsen/Dropbox/Workdir/Repo/SuesseRache-HH-Taxi/TE_SR_Taxi.mp4", "width": 1920, "has_audio": true, "video_bit_rate": 32091692, "channel_layout": 3, "height": 1080, "display_ratio": {"den": 9, "num": 16}, "interlaced_frame": false, "duration": 31.317333221435547, "sample_rate": 48000, "pixel_format": 0, "video_timebase": {"den": 29970, "num": 1}, "file_size": "125628279", "top_field_first": true, "pixel_ratio": {"den": 1, "num": 1}, "acodec": "aac", "audio_stream_index": 1, "video_stream_index": 0, "channels": 2, "fps": {"den": 100, "num": 2997}}, "channel_filter": {"Points": [{"co": {"Y": -1, "X": 1}, "interpolation": 2}]}, "file_id": "Z3LOYBY1PL", "time": {"Points": [{"co": {"Y": 1, "X": 1}, "interpolation": 2}]}}, "value": {"id": "627XQDJ3EP", "start": 0, "end": 31.317333221435547, "position": 21.76, "layer": 1, "image": "/home/robsen/.openshot_qt/thumbnail/Z3LOYBY1PL.png"}, "key": ["clips", {"id": "627XQDJ3EP"}], "partial": false, "type": "update"}, {"old_values": [{"alpha": {"Points": [{"co": {"Y": 1, "X": 1}, "interpolation": 2}]}, "rotation": {"Points": [{"co": {"Y": 0, "X": 1}, "interpolation": 2}]}, "scale_y": {"Points": [{"co": {"Y": 1, "X": 1}, "interpolation": 2}]}, "crop_y": {"Points": [{"co": {"Y": 0, "X": 1}, "interpolation": 2}]}, "perspective_c3_x": {"Points": [{"co": {"Y": -1, "X": 1}, "interpolation": 2}]}, "end": 15, "crop_width": {"Points": [{"co": {"Y": -1, "X": 1}, "interpolation": 2}]}, "position": 8.8, "id": "0AEDFYGQ7J", "wave_color": {"green": {"Points": [{"handle_right": {"Y": 0, "X": 0.5}, "co": {"Y": 123, "X": 1}, "handle_left": {"Y": 1, "X": 0.5}, "handle_type": 0, "interpolation": 0}]}, "blue": {"Points": [{"handle_right": {"Y": 0, "X": 0.5}, "co": {"Y": 255, "X": 1}, "handle_left": {"Y": 1, "X": 0.5}, "handle_type": 0, "interpolation": 0}]}, "alpha": {"Points": [{"handle_right": {"Y": 0, "X": 0.5}, "co": {"Y": 255, "X": 1}, "handle_left": {"Y": 1, "X": 0.5}, "handle_type": 0, "interpolation": 0}]}, "red": {"Points": [{"handle_right": {"Y": 0, "X": 0.5}, "co": {"Y": 0, "X": 1}, "handle_left": {"Y": 1, "X": 0.5}, "handle_type": 0, "interpolation": 0}]}}, "has_video": {"Points": [{"co": {"Y": -1, "X": 1}, "interpolation": 2}]}, "has_audio": {"Points": [{"co": {"Y": -1, "X": 1}, "interpolation": 2}]}, "effects": [], "location_x": {"Points": [{"co": {"Y": 0, "X": 1}, "interpolation": 2}]}, "waveform": false, "title": "taxi_start.mp4", "image": "/home/robsen/.openshot_qt/thumbnail/LGW3TZJV4Q.png", "gravity": 4, "perspective_c2_x": {"Points": [{"co": {"Y": -1, "X": 1}, "interpolation": 2}]}, "perspective_c1_y": {"Points": [{"co": {"Y": -1, "X": 1}, "interpolation": 2}]}, "crop_height": {"Points": [{"co": {"Y": -1, "X": 1}, "interpolation": 2}]}, "crop_x": {"Points": [{"co": {"Y": 0, "X": 1}, "interpolation": 2}]}, "start": 0, "scale": 1, "shear_y": {"Points": [{"co": {"Y": 0, "X": 1}, "interpolation": 2}]}, "display": 0, "volume": {"Points": [{"co": {"Y": 1, "X": 1}, "interpolation": 2}]}, "channel_mapping": {"Points": [{"co": {"Y": -1, "X": 1}, "interpolation": 2}]}, "anchor": 0, "duration": 15.0, "perspective_c3_y": {"Points": [{"co": {"Y": -1, "X": 1}, "interpolation": 2}]}, "shear_x": {"Points": [{"co": {"Y": 0, "X": 1}, "interpolation": 2}]}, "perspective_c4_x": {"Points": [{"co": {"Y": -1, "X": 1}, "interpolation": 2}]}, "location_y": {"Points": [{"co": {"Y": 0, "X": 1}, "interpolation": 2}]}, "scale_x": {"Points": [{"co": {"Y": 1, "X": 1}, "interpolation": 2}]}, "layer": 0, "perspective_c2_y": {"Points": [{"co": {"Y": -1, "X": 1}, "interpolation": 2}]}, "perspective_c1_x": {"Points": [{"co": {"Y": -1, "X": 1}, "interpolation": 2}]}, "perspective_c4_y": {"Points": [{"co": {"Y": -1, "X": 1}, "interpolation": 2}]}, "reader": {"audio_bit_rate": 0, "has_single_image": false, "vcodec": "h264", "has_video": true, "type": "FFmpegReader", "video_length": "375", "audio_timebase": {"den": 1, "num": 1}, "path": "/home/robsen/Dropbox/Workdir/Repo/SuesseRache-HH-Taxi/taxi_start.mp4", "width": 1920, "has_audio": false, "video_bit_rate": 147692, "channel_layout": 4, "height": 1080, "display_ratio": {"den": 9, "num": 16}, "interlaced_frame": false, "duration": 15.0, "sample_rate": 0, "pixel_format": 0, "video_timebase": {"den": 12800, "num": 1}, "file_size": "276924", "top_field_first": true, "pixel_ratio": {"den": 1, "num": 1}, "acodec": "", "audio_stream_index": -1, "video_stream_index": 0, "channels": 0, "fps": {"den": 1, "num": 25}}, "channel_filter": {"Points": [{"co": {"Y": -1, "X": 1}, "interpolation": 2}]}, "file_id": "LGW3TZJV4Q", "time": {"Points": [{"co": {"Y": 1, "X": 1}, "interpolation": 2}]}}, {"alpha": {"Points": [{"co": {"Y": 1, "X": 1}, "interpolation": 2}]}, "rotation": {"Points": [{"co": {"Y": 0, "X": 1}, "interpolation": 2}]}, "scale_y": {"Points": [{"co": {"Y": 1, "X": 1}, "interpolation": 2}]}, "crop_y": {"Points": [{"co": {"Y": 0, "X": 1}, "interpolation": 2}]}, "perspective_c3_x": {"Points": [{"co": {"Y": -1, "X": 1}, "interpolation": 2}]}, "end": 31.317333221435547, "crop_width": {"Points": [{"co": {"Y": -1, "X": 1}, "interpolation": 2}]}, "position": 21.76, "id": "627XQDJ3EP", "wave_color": {"green": {"Points": [{"handle_right": {"Y": 0, "X": 0.5}, "co": {"Y": 123, "X": 1}, "handle_left": {"Y": 1, "X": 0.5}, "handle_type": 0, "interpolation": 0}]}, "blue": {"Points": [{"handle_right": {"Y": 0, "X": 0.5}, "co": {"Y": 255, "X": 1}, "handle_left": {"Y": 1, "X": 0.5}, "handle_type": 0, "interpolation": 0}]}, "alpha": {"Points": [{"handle_right": {"Y": 0, "X": 0.5}, "co": {"Y": 255, "X": 1}, "handle_left": {"Y": 1, "X": 0.5}, "handle_type": 0, "interpolation": 0}]}, "red": {"Points": [{"handle_right": {"Y": 0, "X": 0.5}, "co": {"Y": 0, "X": 1}, "handle_left": {"Y": 1, "X": 0.5}, "handle_type": 0, "interpolation": 0}]}}, "has_video": {"Points": [{"co": {"Y": -1, "X": 1}, "interpolation": 2}]}, "has_audio": {"Points": [{"co": {"Y": -1, "X": 1}, "interpolation": 2}]}, "effects": [], "location_x": {"Points": [{"co": {"Y": 0, "X": 1}, "interpolation": 2}]}, "waveform": false, "title": "TE_SR_Taxi.mp4", "image": "/home/robsen/.openshot_qt/thumbnail/Z3LOYBY1PL.png", "gravity": 4, "perspective_c2_x": {"Points": [{"co": {"Y": -1, "X": 1}, "interpolation": 2}]}, "perspective_c1_y": {"Points": [{"co": {"Y": -1, "X": 1}, "interpolation": 2}]}, "crop_height": {"Points": [{"co": {"Y": -1, "X": 1}, "interpolation": 2}]}, "crop_x": {"Points": [{"co": {"Y": 0, "X": 1}, "interpolation": 2}]}, "start": 0, "scale": 1, "shear_y": {"Points": [{"co": {"Y": 0, "X": 1}, "interpolation": 2}]}, "display": 0, "volume": {"Points": [{"co": {"Y": 1, "X": 1}, "interpolation": 2}]}, "channel_mapping": {"Points": [{"co": {"Y": -1, "X": 1}, "interpolation": 2}]}, "anchor": 0, "duration": 31.317333221435547, "perspective_c3_y": {"Points": [{"co": {"Y": -1, "X": 1}, "interpolation": 2}]}, "shear_x": {"Points": [{"co": {"Y": 0, "X": 1}, "interpolation": 2}]}, "perspective_c4_x": {"Points": [{"co": {"Y": -1, "X": 1}, "interpolation": 2}]}, "location_y": {"Points": [{"co": {"Y": 0, "X": 1}, "interpolation": 2}]}, "scale_x": {"Points": [{"co": {"Y": 1, "X": 1}, "interpolation": 2}]}, "layer": 1, "perspective_c2_y": {"Points": [{"co": {"Y": -1, "X": 1}, "interpolation": 2}]}, "perspective_c1_x": {"Points": [{"co": {"Y": -1, "X": 1}, "interpolation": 2}]}, "perspective_c4_y": {"Points": [{"co": {"Y": -1, "X": 1}, "interpolation": 2}]}, "reader": {"audio_bit_rate": 189375, "has_single_image": false, "vcodec": "h264", "has_video": true, "type": "FFmpegReader", "video_length": "937", "audio_timebase": {"den": 48000, "num": 1}, "path": "/home/robsen/Dropbox/Workdir/Repo/SuesseRache-HH-Taxi/TE_SR_Taxi.mp4", "width": 1920, "has_audio": true, "video_bit_rate": 32091692, "channel_layout": 3, "height": 1080, "display_ratio": {"den": 9, "num": 16}, "interlaced_frame": false, "duration": 31.317333221435547, "sample_rate": 48000, "pixel_format": 0, "video_timebase": {"den": 29970, "num": 1}, "file_size": "125628279", "top_field_first": true, "pixel_ratio": {"den": 1, "num": 1}, "acodec": "aac", "audio_stream_index": 1, "video_stream_index": 0, "channels": 2, "fps": {"den": 100, "num": 2997}}, "channel_filter": {"Points": [{"co": {"Y": -1, "X": 1}, "interpolation": 2}]}, "file_id": "Z3LOYBY1PL", "time": {"Points": [{"co": {"Y": 1, "X": 1}, "interpolation": 2}]}}], "value": {"alpha": {"Points": [{"co": {"Y": 1, "X": 1}, "interpolation": 2}, {"handle_right": {"Y": 0, "X": 0.5}, "co": {"Y": 0, "X": 1}, "handle_left": {"Y": 1, "X": 0.5}, "handle_type": 0, "interpolation": 0}, {"handle_right": {"Y": 0, "X": 0.5}, "co": {"Y": 1, "X": 73}, "handle_left": {"Y": 1, "X": 0.5}, "handle_type": 0, "interpolation": 0}]}, "rotation": {"Points": [{"co": {"Y": 0, "X": 1}, "interpolation": 2}]}, "scale_y": {"Points": [{"co": {"Y": 1, "X": 1}, "interpolation": 2}]}, "crop_y": {"Points": [{"co": {"Y": 0, "X": 1}, "interpolation": 2}]}, "perspective_c3_x": {"Points": [{"co": {"Y": -1, "X": 1}, "interpolation": 2}]}, "end": 15, "crop_width": {"Points": [{"co": {"Y": -1, "X": 1}, "interpolation": 2}]}, "position": 53.075, "id": "PJWPMFXKV3", "wave_color": {"green": {"Points": [{"handle_right": {"Y": 0, "X": 0.5}, "co": {"Y": 123, "X": 1}, "handle_left": {"Y": 1, "X": 0.5}, "handle_type": 0, "interpolation": 0}]}, "blue": {"Points": [{"handle_right": {"Y": 0, "X": 0.5}, "co": {"Y": 255, "X": 1}, "handle_left": {"Y": 1, "X": 0.5}, "handle_type": 0, "interpolation": 0}]}, "alpha": {"Points": [{"handle_right": {"Y": 0, "X": 0.5}, "co": {"Y": 255, "X": 1}, "handle_left": {"Y": 1, "X": 0.5}, "handle_type": 0, "interpolation": 0}]}, "red": {"Points": [{"handle_right": {"Y": 0, "X": 0.5}, "co": {"Y": 0, "X": 1}, "handle_left": {"Y": 1, "X": 0.5}, "handle_type": 0, "interpolation": 0}]}}, "has_video": {"Points": [{"co": {"Y": -1, "X": 1}, "interpolation": 2}]}, "has_audio": {"Points": [{"co": {"Y": -1, "X": 1}, "interpolation": 2}]}, "effects": [], "location_x": {"Points": [{"co": {"Y": 0, "X": 1}, "interpolation": 2}]}, "waveform": false, "title": "arrow.mp4", "image": "/home/robsen/.openshot_qt/thumbnail/X22V56NF57.png", "gravity": 4, "scale_x": {"Points": [{"co": {"Y": 1, "X": 1}, "interpolation": 2}]}, "perspective_c1_y": {"Points": [{"co": {"Y": -1, "X": 1}, "interpolation": 2}]}, "crop_height": {"Points": [{"co": {"Y": -1, "X": 1}, "interpolation": 2}]}, "crop_x": {"Points": [{"co": {"Y": 0, "X": 1}, "interpolation": 2}]}, "start": 0, "scale": 1, "shear_y": {"Points": [{"co": {"Y": 0, "X": 1}, "interpolation": 2}]}, "display": 0, "volume": {"Points": [{"co": {"Y": 1, "X": 1}, "interpolation": 2}]}, "channel_mapping": {"Points": [{"co": {"Y": -1, "X": 1}, "interpolation": 2}]}, "anchor": 0, "duration": 15.0, "perspective_c3_y": {"Points": [{"co": {"Y": -1, "X": 1}, "interpolation": 2}]}, "shear_x": {"Points": [{"co": {"Y": 0, "X": 1}, "interpolation": 2}]}, "perspective_c4_x": {"Points": [{"co": {"Y": -1, "X": 1}, "interpolation": 2}]}, "location_y": {"Points": [{"co": {"Y": 0, "X": 1}, "interpolation": 2}]}, "perspective_c2_x": {"Points": [{"co": {"Y": -1, "X": 1}, "interpolation": 2}]}, "layer": 2, "perspective_c2_y": {"Points": [{"co": {"Y": -1, "X": 1}, "interpolation": 2}]}, "perspective_c1_x": {"Points": [{"co": {"Y": -1, "X": 1}, "interpolation": 2}]}, "perspective_c4_y": {"Points": [{"co": {"Y": -1, "X": 1}, "interpolation": 2}]}, "reader": {"audio_bit_rate": 0, "has_single_image": false, "has_video": true, "type": "FFmpegReader", "video_length": "375", "audio_timebase": {"den": 1, "num": 1}, "path": "/home/robsen/Dropbox/Workdir/Repo/SuesseRache-HH-Taxi/arrow.mp4", "width": 1920, "has_audio": false, "video_bit_rate": 83079, "channel_layout": 4, "height": 1080, "display_ratio": {"den": 9, "num": 16}, "interlaced_frame": false, "video_timebase": {"den": 12800, "num": 1}, "duration": 15.0, "sample_rate": 0, "pixel_format": 0, "fps": {"den": 1, "num": 25}, "file_size": "155774", "top_field_first": true, "pixel_ratio": {"den": 1, "num": 1}, "acodec": "", "audio_stream_index": -1, "video_stream_index": 0, "channels": 0, "vcodec": "h264"}, "channel_filter": {"Points": [{"co": {"Y": -1, "X": 1}, "interpolation": 2}]}, "file_id": "X22V56NF57", "time": {"Points": [{"co": {"Y": 1, "X": 1}, "interpolation": 2}]}}, "key": ["clips"], "partial": false, "type": "insert"}, {"old_values": {"alpha": {"Points": [{"co": {"Y": 1, "X": 1}, "interpolation": 2}]}, "rotation": {"Points": [{"co": {"Y": 0, "X": 1}, "interpolation": 2}]}, "scale_y": {"Points": [{"co": {"Y": 1, "X": 1}, "interpolation": 2}]}, "crop_y": {"Points": [{"co": {"Y": 0, "X": 1}, "interpolation": 2}]}, "perspective_c3_x": {"Points": [{"co": {"Y": -1, "X": 1}, "interpolation": 2}]}, "end": 15.0, "crop_width": {"Points": [{"co": {"Y": -1, "X": 1}, "interpolation": 2}]}, "position": 62.88, "id": "PJWPMFXKV3", "wave_color": {"green": {"Points": [{"handle_right": {"Y": 0, "X": 0.5}, "co": {"Y": 123, "X": 1}, "handle_left": {"Y": 1, "X": 0.5}, "handle_type": 0, "interpolation": 0}]}, "blue": {"Points": [{"handle_right": {"Y": 0, "X": 0.5}, "co": {"Y": 255, "X": 1}, "handle_left": {"Y": 1, "X": 0.5}, "handle_type": 0, "interpolation": 0}]}, "alpha": {"Points": [{"handle_right": {"Y": 0, "X": 0.5}, "co": {"Y": 255, "X": 1}, "handle_left": {"Y": 1, "X": 0.5}, "handle_type": 0, "interpolation": 0}]}, "red": {"Points": [{"handle_right": {"Y": 0, "X": 0.5}, "co": {"Y": 0, "X": 1}, "handle_left": {"Y": 1, "X": 0.5}, "handle_type": 0, "interpolation": 0}]}}, "has_video": {"Points": [{"co": {"Y": -1, "X": 1}, "interpolation": 2}]}, "has_audio": {"Points": [{"co": {"Y": -1, "X": 1}, "interpolation": 2}]}, "effects": [], "location_x": {"Points": [{"co": {"Y": 0, "X": 1}, "interpolation": 2}]}, "waveform": false, "title": "arrow.mp4", "image": "/home/robsen/.openshot_qt/thumbnail/X22V56NF57.png", "gravity": 4, "scale_x": {"Points": [{"co": {"Y": 1, "X": 1}, "interpolation": 2}]}, "perspective_c1_y": {"Points": [{"co": {"Y": -1, "X": 1}, "interpolation": 2}]}, "crop_height": {"Points": [{"co": {"Y": -1, "X": 1}, "interpolation": 2}]}, "crop_x": {"Points": [{"co": {"Y": 0, "X": 1}, "interpolation": 2}]}, "start": 0, "scale": 1, "shear_y": {"Points": [{"co": {"Y": 0, "X": 1}, "interpolation": 2}]}, "display": 0, "volume": {"Points": [{"co": {"Y": 1, "X": 1}, "interpolation": 2}]}, "channel_mapping": {"Points": [{"co": {"Y": -1, "X": 1}, "interpolation": 2}]}, "anchor": 0, "duration": 15.0, "perspective_c3_y": {"Points": [{"co": {"Y": -1, "X": 1}, "interpolation": 2}]}, "shear_x": {"Points": [{"co": {"Y": 0, "X": 1}, "interpolation": 2}]}, "perspective_c4_x": {"Points": [{"co": {"Y": -1, "X": 1}, "interpolation": 2}]}, "location_y": {"Points": [{"co": {"Y": 0, "X": 1}, "interpolation": 2}]}, "perspective_c2_x": {"Points": [{"co": {"Y": -1, "X": 1}, "interpolation": 2}]}, "layer": 2, "perspective_c2_y": {"Points": [{"co": {"Y": -1, "X": 1}, "interpolation": 2}]}, "perspective_c1_x": {"Points": [{"co": {"Y": -1, "X": 1}, "interpolation": 2}]}, "perspective_c4_y": {"Points": [{"co": {"Y": -1, "X": 1}, "interpolation": 2}]}, "reader": {"audio_bit_rate": 0, "has_single_image": false, "vcodec": "h264", "has_video": true, "type": "FFmpegReader", "video_length": "375", "audio_timebase": {"den": 1, "num": 1}, "path": "/home/robsen/Dropbox/Workdir/Repo/SuesseRache-HH-Taxi/arrow.mp4", "width": 1920, "has_audio": false, "video_bit_rate": 83079, "channel_layout": 4, "height": 1080, "display_ratio": {"den": 9, "num": 16}, "interlaced_frame": false, "duration": 15.0, "sample_rate": 0, "pixel_format": 0, "video_timebase": {"den": 12800, "num": 1}, "file_size": "155774", "top_field_first": true, "pixel_ratio": {"den": 1, "num": 1}, "acodec": "", "audio_stream_index": -1, "video_stream_index": 0, "channels": 0, "fps": {"den": 1, "num": 25}}, "channel_filter": {"Points": [{"co": {"Y": -1, "X": 1}, "interpolation": 2}]}, "file_id": "X22V56NF57", "time": {"Points": [{"co": {"Y": 1, "X": 1}, "interpolation": 2}]}}, "value": {"id": "PJWPMFXKV3", "start": 0, "end": 15, "position": 63.04, "layer": 1, "image": "/home/robsen/.openshot_qt/thumbnail/X22V56NF57.png"}, "key": ["clips", {"id": "PJWPMFXKV3"}], "partial": false, "type": "update"}, {"old_values": {"alpha": {"Points": [{"co": {"Y": 1, "X": 1}, "interpolation": 2}]}, "rotation": {"Points": [{"co": {"Y": 0, "X": 1}, "interpolation": 2}]}, "scale_y": {"Points": [{"co": {"Y": 1, "X": 1}, "interpolation": 2}]}, "crop_y": {"Points": [{"co": {"Y": 0, "X": 1}, "interpolation": 2}]}, "perspective_c3_x": {"Points": [{"co": {"Y": -1, "X": 1}, "interpolation": 2}]}, "end": 15, "crop_width": {"Points": [{"co": {"Y": -1, "X": 1}, "interpolation": 2}]}, "position": 63.04, "id": "PJWPMFXKV3", "wave_color": {"green": {"Points": [{"handle_right": {"Y": 0, "X": 0.5}, "co": {"Y": 123, "X": 1}, "handle_left": {"Y": 1, "X": 0.5}, "handle_type": 0, "interpolation": 0}]}, "blue": {"Points": [{"handle_right": {"Y": 0, "X": 0.5}, "co": {"Y": 255, "X": 1}, "handle_left": {"Y": 1, "X": 0.5}, "handle_type": 0, "interpolation": 0}]}, "alpha": {"Points": [{"handle_right": {"Y": 0, "X": 0.5}, "co": {"Y": 255, "X": 1}, "handle_left": {"Y": 1, "X": 0.5}, "handle_type": 0, "interpolation": 0}]}, "red": {"Points": [{"handle_right": {"Y": 0, "X": 0.5}, "co": {"Y": 0, "X": 1}, "handle_left": {"Y": 1, "X": 0.5}, "handle_type": 0, "interpolation": 0}]}}, "has_video": {"Points": [{"co": {"Y": -1, "X": 1}, "interpolation": 2}]}, "has_audio": {"Points": [{"co": {"Y": -1, "X": 1}, "interpolation": 2}]}, "effects": [], "location_x": {"Points": [{"co": {"Y": 0, "X": 1}, "interpolation": 2}]}, "waveform": false, "title": "arrow.mp4", "image": "/home/robsen/.openshot_qt/thumbnail/X22V56NF57.png", "gravity": 4, "perspective_c2_x": {"Points": [{"co": {"Y": -1, "X": 1}, "interpolation": 2}]}, "perspective_c1_y": {"Points": [{"co": {"Y": -1, "X": 1}, "interpolation": 2}]}, "crop_height": {"Points": [{"co": {"Y": -1, "X": 1}, "interpolation": 2}]}, "crop_x": {"Points": [{"co": {"Y": 0, "X": 1}, "interpolation": 2}]}, "start": 0, "scale": 1, "shear_y": {"Points": [{"co": {"Y": 0, "X": 1}, "interpolation": 2}]}, "display": 0, "volume": {"Points": [{"co": {"Y": 1, "X": 1}, "interpolation": 2}]}, "channel_mapping": {"Points": [{"co": {"Y": -1, "X": 1}, "interpolation": 2}]}, "anchor": 0, "duration": 15.0, "perspective_c3_y": {"Points": [{"co": {"Y": -1, "X": 1}, "interpolation": 2}]}, "shear_x": {"Points": [{"co": {"Y": 0, "X": 1}, "interpolation": 2}]}, "perspective_c4_x": {"Points": [{"co": {"Y": -1, "X": 1}, "interpolation": 2}]}, "location_y": {"Points": [{"co": {"Y": 0, "X": 1}, "interpolation": 2}]}, "scale_x": {"Points": [{"co": {"Y": 1, "X": 1}, "interpolation": 2}]}, "layer": 1, "perspective_c2_y": {"Points": [{"co": {"Y": -1, "X": 1}, "interpolation": 2}]}, "perspective_c1_x": {"Points": [{"co": {"Y": -1, "X": 1}, "interpolation": 2}]}, "perspective_c4_y": {"Points": [{"co": {"Y": -1, "X": 1}, "interpolation": 2}]}, "reader": {"audio_bit_rate": 0, "has_single_image": false, "vcodec": "h264", "has_video": true, "type": "FFmpegReader", "video_length": "375", "audio_timebase": {"den": 1, "num": 1}, "path": "/home/robsen/Dropbox/Workdir/Repo/SuesseRache-HH-Taxi/arrow.mp4", "width": 1920, "has_audio": false, "video_bit_rate": 83079, "channel_layout": 4, "height": 1080, "display_ratio": {"den": 9, "num": 16}, "interlaced_frame": false, "duration": 15.0, "sample_rate": 0, "pixel_format": 0, "video_timebase": {"den": 12800, "num": 1}, "file_size": "155774", "top_field_first": true, "pixel_ratio": {"den": 1, "num": 1}, "acodec": "", "audio_stream_index": -1, "video_stream_index": 0, "channels": 0, "fps": {"den": 1, "num": 25}}, "channel_filter": {"Points": [{"co": {"Y": -1, "X": 1}, "interpolation": 2}]}, "file_id": "X22V56NF57", "time": {"Points": [{"co": {"Y": 1, "X": 1}, "interpolation": 2}]}}, "value": {"id": "PJWPMFXKV3", "start": 0, "end": 15, "position": 53.075, "layer": 2, "image": "/home/robsen/.openshot_qt/thumbnail/X22V56NF57.png"}, "key": ["clips", {"id": "PJWPMFXKV3"}], "partial": false, "type": "update"}, {"old_values": {"start": 0, "type": "Mask", "contrast": {"Points": [{"co": {"Y": 3, "X": 1}, "interpolation": 2}]}, "layer": 0, "replace_image": false, "title": "Transition", "end": 2.039999999999999, "reader": {"audio_bit_rate": 0, "has_single_image": true, "vcodec": "", "has_video": true, "type": "QtImageReader", "video_length": "2592000", "audio_timebase": {"den": 1, "num": 1}, "path": "/usr/lib/python3/dist-packages/openshot_qt/transitions/common/fade.svg", "width": 720, "has_audio": false, "video_bit_rate": 0, "channel_layout": 4, "height": 576, "display_ratio": {"den": 4, "num": 5}, "interlaced_frame": false, "duration": 86400, "sample_rate": 0, "pixel_format": -1, "video_timebase": {"den": 30, "num": 1}, "file_size": "1658880", "top_field_first": true, "pixel_ratio": {"den": 1, "num": 1}, "acodec": "", "audio_stream_index": -1, "video_stream_index": -1, "channels": 0, "fps": {"den": 1, "num": 30}}, "brightness": {"Points": [{"handle_right": {"Y": 0, "X": 0.5}, "co": {"Y": 1, "X": 1}, "handle_left": {"Y": 1, "X": 0.5}, "handle_type": 0, "interpolation": 0}, {"handle_right": {"Y": 0, "X": 0.5}, "co": {"Y": -1, "X": 50}, "handle_left": {"Y": 1, "X": 0.5}, "handle_type": 0, "interpolation": 0}]}, "id": "5NBS5H99MA", "position": 21.76}, "value": null, "key": ["effects", {"id": "5NBS5H99MA"}], "partial": false, "type": "delete"}, {"old_values": {"alpha": {"Points": [{"co": {"Y": 1, "X": 1}, "interpolation": 2}]}, "rotation": {"Points": [{"co": {"Y": 0, "X": 1}, "interpolation": 2}]}, "scale_y": {"Points": [{"co": {"Y": 1, "X": 1}, "interpolation": 2}]}, "crop_y": {"Points": [{"co": {"Y": 0, "X": 1}, "interpolation": 2}]}, "perspective_c3_x": {"Points": [{"co": {"Y": -1, "X": 1}, "interpolation": 2}]}, "end": 15, "crop_width": {"Points": [{"co": {"Y": -1, "X": 1}, "interpolation": 2}]}, "position": 8.8, "id": "0AEDFYGQ7J", "wave_color": {"green": {"Points": [{"handle_right": {"Y": 0, "X": 0.5}, "co": {"Y": 123, "X": 1}, "handle_left": {"Y": 1, "X": 0.5}, "handle_type": 0, "interpolation": 0}]}, "blue": {"Points": [{"handle_right": {"Y": 0, "X": 0.5}, "co": {"Y": 255, "X": 1}, "handle_left": {"Y": 1, "X": 0.5}, "handle_type": 0, "interpolation": 0}]}, "alpha": {"Points": [{"handle_right": {"Y": 0, "X": 0.5}, "co": {"Y": 255, "X": 1}, "handle_left": {"Y": 1, "X": 0.5}, "handle_type": 0, "interpolation": 0}]}, "red": {"Points": [{"handle_right": {"Y": 0, "X": 0.5}, "co": {"Y": 0, "X": 1}, "handle_left": {"Y": 1, "X": 0.5}, "handle_type": 0, "interpolation": 0}]}}, "has_video": {"Points": [{"co": {"Y": -1, "X": 1}, "interpolation": 2}]}, "has_audio": {"Points": [{"co": {"Y": -1, "X": 1}, "interpolation": 2}]}, "effects": [], "location_x": {"Points": [{"co": {"Y": 0, "X": 1}, "interpolation": 2}]}, "waveform": false, "title": "taxi_start.mp4", "image": "/home/robsen/.openshot_qt/thumbnail/LGW3TZJV4Q.png", "gravity": 4, "perspective_c2_x": {"Points": [{"co": {"Y": -1, "X": 1}, "interpolation": 2}]}, "perspective_c1_y": {"Points": [{"co": {"Y": -1, "X": 1}, "interpolation": 2}]}, "crop_height": {"Points": [{"co": {"Y": -1, "X": 1}, "interpolation": 2}]}, "crop_x": {"Points": [{"co": {"Y": 0, "X": 1}, "interpolation": 2}]}, "start": 0, "scale": 1, "shear_y": {"Points": [{"co": {"Y": 0, "X": 1}, "interpolation": 2}]}, "display": 0, "volume": {"Points": [{"co": {"Y": 1, "X": 1}, "interpolation": 2}]}, "channel_mapping": {"Points": [{"co": {"Y": -1, "X": 1}, "interpolation": 2}]}, "anchor": 0, "duration": 15.0, "perspective_c3_y": {"Points": [{"co": {"Y": -1, "X": 1}, "interpolation": 2}]}, "shear_x": {"Points": [{"co": {"Y": 0, "X": 1}, "interpolation": 2}]}, "perspective_c4_x": {"Points": [{"co": {"Y": -1, "X": 1}, "interpolation": 2}]}, "location_y": {"Points": [{"co": {"Y": 0, "X": 1}, "interpolation": 2}]}, "scale_x": {"Points": [{"co": {"Y": 1, "X": 1}, "interpolation": 2}]}, "layer": 0, "perspective_c2_y": {"Points": [{"co": {"Y": -1, "X": 1}, "interpolation": 2}]}, "perspective_c1_x": {"Points": [{"co": {"Y": -1, "X": 1}, "interpolation": 2}]}, "perspective_c4_y": {"Points": [{"co": {"Y": -1, "X": 1}, "interpolation": 2}]}, "reader": {"audio_bit_rate": 0, "has_single_image": false, "vcodec": "h264", "has_video": true, "type": "FFmpegReader", "video_length": "375", "audio_timebase": {"den": 1, "num": 1}, "path": "/home/robsen/Dropbox/Workdir/Repo/SuesseRache-HH-Taxi/taxi_start.mp4", "width": 1920, "has_audio": false, "video_bit_rate": 147692, "channel_layout": 4, "height": 1080, "display_ratio": {"den": 9, "num": 16}, "interlaced_frame": false, "duration": 15.0, "sample_rate": 0, "pixel_format": 0, "video_timebase": {"den": 12800, "num": 1}, "file_size": "276924", "top_field_first": true, "pixel_ratio": {"den": 1, "num": 1}, "acodec": "", "audio_stream_index": -1, "video_stream_index": 0, "channels": 0, "fps": {"den": 1, "num": 25}}, "channel_filter": {"Points": [{"co": {"Y": -1, "X": 1}, "interpolation": 2}]}, "file_id": "LGW3TZJV4Q", "time": {"Points": [{"co": {"Y": 1, "X": 1}, "interpolation": 2}]}}, "value": {"alpha": {"Points": [{"co": {"Y": 1, "X": 1}, "interpolation": 2}, {"handle_right": {"Y": 0, "X": 0.5}, "co": {"Y": 1, "X": 289}, "handle_left": {"Y": 1, "X": 0.5}, "handle_type": 0, "interpolation": 0}, {"handle_right": {"Y": 0, "X": 0.5}, "co": {"Y": 0, "X": 361}, "handle_left": {"Y": 1, "X": 0.5}, "handle_type": 0, "interpolation": 0}]}, "rotation": {"Points": [{"co": {"Y": 0, "X": 1}, "interpolation": 2}]}, "scale_y": {"Points": [{"co": {"Y": 1, "X": 1}, "interpolation": 2}]}, "crop_y": {"Points": [{"co": {"Y": 0, "X": 1}, "interpolation": 2}]}, "crop_width": {"Points": [{"co": {"Y": -1, "X": 1}, "interpolation": 2}]}, "end": 15, "perspective_c3_x": {"Points": [{"co": {"Y": -1, "X": 1}, "interpolation": 2}]}, "position": 8.8, "id": "0AEDFYGQ7J", "wave_color": {"green": {"Points": [{"handle_right": {"Y": 0, "X": 0.5}, "co": {"Y": 123, "X": 1}, "handle_left": {"Y": 1, "X": 0.5}, "handle_type": 0, "interpolation": 0}]}, "blue": {"Points": [{"handle_right": {"Y": 0, "X": 0.5}, "co": {"Y": 255, "X": 1}, "handle_left": {"Y": 1, "X": 0.5}, "handle_type": 0, "interpolation": 0}]}, "alpha": {"Points": [{"handle_right": {"Y": 0, "X": 0.5}, "co": {"Y": 255, "X": 1}, "handle_left": {"Y": 1, "X": 0.5}, "handle_type": 0, "interpolation": 0}]}, "red": {"Points": [{"handle_right": {"Y": 0, "X": 0.5}, "co": {"Y": 0, "X": 1}, "handle_left": {"Y": 1, "X": 0.5}, "handle_type": 0, "interpolation": 0}]}}, "has_video": {"Points": [{"co": {"Y": -1, "X": 1}, "interpolation": 2}]}, "has_audio": {"Points": [{"co": {"Y": -1, "X": 1}, "interpolation": 2}]}, "effects": [], "location_x": {"Points": [{"co": {"Y": 0, "X": 1}, "interpolation": 2}]}, "waveform": false, "title": "taxi_start.mp4", "image": "/home/robsen/.openshot_qt/thumbnail/LGW3TZJV4Q.png", "gravity": 4, "scale_x": {"Points": [{"co": {"Y": 1, "X": 1}, "interpolation": 2}]}, "perspective_c1_y": {"Points": [{"co": {"Y": -1, "X": 1}, "interpolation": 2}]}, "crop_height": {"Points": [{"co": {"Y": -1, "X": 1}, "interpolation": 2}]}, "crop_x": {"Points": [{"co": {"Y": 0, "X": 1}, "interpolation": 2}]}, "start": 0, "scale": 1, "shear_y": {"Points": [{"co": {"Y": 0, "X": 1}, "interpolation": 2}]}, "display": 0, "volume": {"Points": [{"co": {"Y": 1, "X": 1}, "interpolation": 2}]}, "channel_mapping": {"Points": [{"co": {"Y": -1, "X": 1}, "interpolation": 2}]}, "anchor": 0, "duration": 15.0, "perspective_c3_y": {"Points": [{"co": {"Y": -1, "X": 1}, "interpolation": 2}]}, "shear_x": {"Points": [{"co": {"Y": 0, "X": 1}, "interpolation": 2}]}, "perspective_c4_x": {"Points": [{"co": {"Y": -1, "X": 1}, "interpolation": 2}]}, "location_y": {"Points": [{"co": {"Y": 0, "X": 1}, "interpolation": 2}]}, "perspective_c2_x": {"Points": [{"co": {"Y": -1, "X": 1}, "interpolation": 2}]}, "layer": 0, "perspective_c2_y": {"Points": [{"co": {"Y": -1, "X": 1}, "interpolation": 2}]}, "perspective_c1_x": {"Points": [{"co": {"Y": -1, "X": 1}, "interpolation": 2}]}, "perspective_c4_y": {"Points": [{"co": {"Y": -1, "X": 1}, "interpolation": 2}]}, "channel_filter": {"Points": [{"co": {"Y": -1, "X": 1}, "interpolation": 2}]}, "time": {"Points": [{"co": {"Y": 1, "X": 1}, "interpolation": 2}]}, "file_id": "LGW3TZJV4Q"}, "key": ["clips", {"id": "0AEDFYGQ7J"}], "partial": false, "type": "update"}, {"old_values": {"alpha": {"Points": [{"co": {"Y": 1, "X": 1}, "interpolation": 2}, {"handle_right": {"Y": 0, "X": 0.5}, "co": {"Y": 1, "X": 289}, "handle_left": {"Y": 1, "X": 0.5}, "handle_type": 0, "interpolation": 0}, {"handle_right": {"Y": 0, "X": 0.5}, "co": {"Y": 0, "X": 361}, "handle_left": {"Y": 1, "X": 0.5}, "handle_type": 0, "interpolation": 0}]}, "rotation": {"Points": [{"co": {"Y": 0, "X": 1}, "interpolation": 2}]}, "scale_y": {"Points": [{"co": {"Y": 1, "X": 1}, "interpolation": 2}]}, "crop_y": {"Points": [{"co": {"Y": 0, "X": 1}, "interpolation": 2}]}, "perspective_c3_x": {"Points": [{"co": {"Y": -1, "X": 1}, "interpolation": 2}]}, "end": 15, "crop_width": {"Points": [{"co": {"Y": -1, "X": 1}, "interpolation": 2}]}, "position": 8.8, "id": "0AEDFYGQ7J", "wave_color": {"green": {"Points": [{"handle_right": {"Y": 0, "X": 0.5}, "co": {"Y": 123, "X": 1}, "handle_left": {"Y": 1, "X": 0.5}, "handle_type": 0, "interpolation": 0}]}, "blue": {"Points": [{"handle_right": {"Y": 0, "X": 0.5}, "co": {"Y": 255, "X": 1}, "handle_left": {"Y": 1, "X": 0.5}, "handle_type": 0, "interpolation": 0}]}, "alpha": {"Points": [{"handle_right": {"Y": 0, "X": 0.5}, "co": {"Y": 255, "X": 1}, "handle_left": {"Y": 1, "X": 0.5}, "handle_type": 0, "interpolation": 0}]}, "red": {"Points": [{"handle_right": {"Y": 0, "X": 0.5}, "co": {"Y": 0, "X": 1}, "handle_left": {"Y": 1, "X": 0.5}, "handle_type": 0, "interpolation": 0}]}}, "has_video": {"Points": [{"co": {"Y": -1, "X": 1}, "interpolation": 2}]}, "has_audio": {"Points": [{"co": {"Y": -1, "X": 1}, "interpolation": 2}]}, "effects": [], "location_x": {"Points": [{"co": {"Y": 0, "X": 1}, "interpolation": 2}]}, "waveform": false, "title": "taxi_start.mp4", "image": "/home/robsen/.openshot_qt/thumbnail/LGW3TZJV4Q.png", "gravity": 4, "perspective_c2_x": {"Points": [{"co": {"Y": -1, "X": 1}, "interpolation": 2}]}, "perspective_c1_y": {"Points": [{"co": {"Y": -1, "X": 1}, "interpolation": 2}]}, "crop_height": {"Points": [{"co": {"Y": -1, "X": 1}, "interpolation": 2}]}, "crop_x": {"Points": [{"co": {"Y": 0, "X": 1}, "interpolation": 2}]}, "start": 0, "scale": 1, "shear_y": {"Points": [{"co": {"Y": 0, "X": 1}, "interpolation": 2}]}, "display": 0, "volume": {"Points": [{"co": {"Y": 1, "X": 1}, "interpolation": 2}]}, "channel_mapping": {"Points": [{"co": {"Y": -1, "X": 1}, "interpolation": 2}]}, "anchor": 0, "duration": 15.0, "perspective_c3_y": {"Points": [{"co": {"Y": -1, "X": 1}, "interpolation": 2}]}, "shear_x": {"Points": [{"co": {"Y": 0, "X": 1}, "interpolation": 2}]}, "perspective_c4_x": {"Points": [{"co": {"Y": -1, "X": 1}, "interpolation": 2}]}, "location_y": {"Points": [{"co": {"Y": 0, "X": 1}, "interpolation": 2}]}, "scale_x": {"Points": [{"co": {"Y": 1, "X": 1}, "interpolation": 2}]}, "layer": 0, "perspective_c2_y": {"Points": [{"co": {"Y": -1, "X": 1}, "interpolation": 2}]}, "perspective_c1_x": {"Points": [{"co": {"Y": -1, "X": 1}, "interpolation": 2}]}, "perspective_c4_y": {"Points": [{"co": {"Y": -1, "X": 1}, "interpolation": 2}]}, "reader": {"audio_bit_rate": 0, "has_single_image": false, "vcodec": "h264", "has_video": true, "type": "FFmpegReader", "video_length": "375", "audio_timebase": {"den": 1, "num": 1}, "path": "/home/robsen/Dropbox/Workdir/Repo/SuesseRache-HH-Taxi/taxi_start.mp4", "width": 1920, "has_audio": false, "video_bit_rate": 147692, "channel_layout": 4, "height": 1080, "display_ratio": {"den": 9, "num": 16}, "interlaced_frame": false, "duration": 15.0, "sample_rate": 0, "pixel_format": 0, "video_timebase": {"den": 12800, "num": 1}, "file_size": "276924", "top_field_first": true, "pixel_ratio": {"den": 1, "num": 1}, "acodec": "", "audio_stream_index": -1, "video_stream_index": 0, "channels": 0, "fps": {"den": 1, "num": 25}}, "channel_filter": {"Points": [{"co": {"Y": -1, "X": 1}, "interpolation": 2}]}, "file_id": "LGW3TZJV4Q", "time": {"Points": [{"co": {"Y": 1, "X": 1}, "interpolation": 2}]}}, "value": {"alpha": {"Points": [{"co": {"Y": 1, "X": 1}, "interpolation": 2}, {"handle_right": {"Y": 0, "X": 0.5}, "co": {"Y": 1, "X": 289}, "handle_left": {"Y": 1, "X": 0.5}, "handle_type": 0, "interpolation": 0}, {"handle_right": {"Y": 0, "X": 0.5}, "co": {"Y": 0, "X": 361}, "handle_left": {"Y": 1, "X": 0.5}, "handle_type": 0, "interpolation": 0}, {"handle_right": {"Y": 0, "X": 0.5}, "co": {"Y": 0, "X": 1}, "handle_left": {"Y": 1, "X": 0.5}, "handle_type": 0, "interpolation": 0}, {"handle_right": {"Y": 0, "X": 0.5}, "co": {"Y": 1, "X": 73}, "handle_left": {"Y": 1, "X": 0.5}, "handle_type": 0, "interpolation": 0}]}, "rotation": {"Points": [{"co": {"Y": 0, "X": 1}, "interpolation": 2}]}, "scale_y": {"Points": [{"co": {"Y": 1, "X": 1}, "interpolation": 2}]}, "crop_y": {"Points": [{"co": {"Y": 0, "X": 1}, "interpolation": 2}]}, "crop_width": {"Points": [{"co": {"Y": -1, "X": 1}, "interpolation": 2}]}, "end": 15, "perspective_c3_x": {"Points": [{"co": {"Y": -1, "X": 1}, "interpolation": 2}]}, "position": 8.8, "id": "0AEDFYGQ7J", "wave_color": {"green": {"Points": [{"handle_right": {"Y": 0, "X": 0.5}, "co": {"Y": 123, "X": 1}, "handle_left": {"Y": 1, "X": 0.5}, "handle_type": 0, "interpolation": 0}]}, "blue": {"Points": [{"handle_right": {"Y": 0, "X": 0.5}, "co": {"Y": 255, "X": 1}, "handle_left": {"Y": 1, "X": 0.5}, "handle_type": 0, "interpolation": 0}]}, "alpha": {"Points": [{"handle_right": {"Y": 0, "X": 0.5}, "co": {"Y": 255, "X": 1}, "handle_left": {"Y": 1, "X": 0.5}, "handle_type": 0, "interpolation": 0}]}, "red": {"Points": [{"handle_right": {"Y": 0, "X": 0.5}, "co": {"Y": 0, "X": 1}, "handle_left": {"Y": 1, "X": 0.5}, "handle_type": 0, "interpolation": 0}]}}, "has_video": {"Points": [{"co": {"Y": -1, "X": 1}, "interpolation": 2}]}, "has_audio": {"Points": [{"co": {"Y": -1, "X": 1}, "interpolation": 2}]}, "effects": [], "location_x": {"Points": [{"co": {"Y": 0, "X": 1}, "interpolation": 2}]}, "waveform": false, "title": "taxi_start.mp4", "image": "/home/robsen/.openshot_qt/thumbnail/LGW3TZJV4Q.png", "gravity": 4, "scale_x": {"Points": [{"co": {"Y": 1, "X": 1}, "interpolation": 2}]}, "perspective_c1_y": {"Points": [{"co": {"Y": -1, "X": 1}, "interpolation": 2}]}, "crop_height": {"Points": [{"co": {"Y": -1, "X": 1}, "interpolation": 2}]}, "crop_x": {"Points": [{"co": {"Y": 0, "X": 1}, "interpolation": 2}]}, "start": 0, "scale": 1, "shear_y": {"Points": [{"co": {"Y": 0, "X": 1}, "interpolation": 2}]}, "display": 0, "volume": {"Points": [{"co": {"Y": 1, "X": 1}, "interpolation": 2}]}, "channel_mapping": {"Points": [{"co": {"Y": -1, "X": 1}, "interpolation": 2}]}, "anchor": 0, "duration": 15.0, "perspective_c3_y": {"Points": [{"co": {"Y": -1, "X": 1}, "interpolation": 2}]}, "shear_x": {"Points": [{"co": {"Y": 0, "X": 1}, "interpolation": 2}]}, "perspective_c4_x": {"Points": [{"co": {"Y": -1, "X": 1}, "interpolation": 2}]}, "location_y": {"Points": [{"co": {"Y": 0, "X": 1}, "interpolation": 2}]}, "perspective_c2_x": {"Points": [{"co": {"Y": -1, "X": 1}, "interpolation": 2}]}, "layer": 0, "perspective_c2_y": {"Points": [{"co": {"Y": -1, "X": 1}, "interpolation": 2}]}, "perspective_c1_x": {"Points": [{"co": {"Y": -1, "X": 1}, "interpolation": 2}]}, "perspective_c4_y": {"Points": [{"co": {"Y": -1, "X": 1}, "interpolation": 2}]}, "channel_filter": {"Points": [{"co": {"Y": -1, "X": 1}, "interpolation": 2}]}, "time": {"Points": [{"co": {"Y": 1, "X": 1}, "interpolation": 2}]}, "file_id": "LGW3TZJV4Q"}, "key": ["clips", {"id": "0AEDFYGQ7J"}], "partial": false, "type": "update"}, {"old_values": {"alpha": {"Points": [{"co": {"Y": 1, "X": 1}, "interpolation": 2}]}, "rotation": {"Points": [{"co": {"Y": 0, "X": 1}, "interpolation": 2}]}, "scale_y": {"Points": [{"co": {"Y": 1, "X": 1}, "interpolation": 2}]}, "crop_y": {"Points": [{"co": {"Y": 0, "X": 1}, "interpolation": 2}]}, "perspective_c3_x": {"Points": [{"co": {"Y": -1, "X": 1}, "interpolation": 2}]}, "end": 15, "crop_width": {"Points": [{"co": {"Y": -1, "X": 1}, "interpolation": 2}]}, "position": 53.075, "id": "PJWPMFXKV3", "wave_color": {"green": {"Points": [{"handle_right": {"Y": 0, "X": 0.5}, "co": {"Y": 123, "X": 1}, "handle_left": {"Y": 1, "X": 0.5}, "handle_type": 0, "interpolation": 0}]}, "blue": {"Points": [{"handle_right": {"Y": 0, "X": 0.5}, "co": {"Y": 255, "X": 1}, "handle_left": {"Y": 1, "X": 0.5}, "handle_type": 0, "interpolation": 0}]}, "alpha": {"Points": [{"handle_right": {"Y": 0, "X": 0.5}, "co": {"Y": 255, "X": 1}, "handle_left": {"Y": 1, "X": 0.5}, "handle_type": 0, "interpolation": 0}]}, "red": {"Points": [{"handle_right": {"Y": 0, "X": 0.5}, "co": {"Y": 0, "X": 1}, "handle_left": {"Y": 1, "X": 0.5}, "handle_type": 0, "interpolation": 0}]}}, "has_video": {"Points": [{"co": {"Y": -1, "X": 1}, "interpolation": 2}]}, "has_audio": {"Points": [{"co": {"Y": -1, "X": 1}, "interpolation": 2}]}, "effects": [], "location_x": {"Points": [{"co": {"Y": 0, "X": 1}, "interpolation": 2}]}, "waveform": false, "title": "arrow.mp4", "image": "/home/robsen/.openshot_qt/thumbnail/X22V56NF57.png", "gravity": 4, "perspective_c2_x": {"Points": [{"co": {"Y": -1, "X": 1}, "interpolation": 2}]}, "perspective_c1_y": {"Points": [{"co": {"Y": -1, "X": 1}, "interpolation": 2}]}, "crop_height": {"Points": [{"co": {"Y": -1, "X": 1}, "interpolation": 2}]}, "crop_x": {"Points": [{"co": {"Y": 0, "X": 1}, "interpolation": 2}]}, "start": 0, "scale": 1, "shear_y": {"Points": [{"co": {"Y": 0, "X": 1}, "interpolation": 2}]}, "display": 0, "volume": {"Points": [{"co": {"Y": 1, "X": 1}, "interpolation": 2}]}, "channel_mapping": {"Points": [{"co": {"Y": -1, "X": 1}, "interpolation": 2}]}, "anchor": 0, "duration": 15.0, "perspective_c3_y": {"Points": [{"co": {"Y": -1, "X": 1}, "interpolation": 2}]}, "shear_x": {"Points": [{"co": {"Y": 0, "X": 1}, "interpolation": 2}]}, "perspective_c4_x": {"Points": [{"co": {"Y": -1, "X": 1}, "interpolation": 2}]}, "location_y": {"Points": [{"co": {"Y": 0, "X": 1}, "interpolation": 2}]}, "scale_x": {"Points": [{"co": {"Y": 1, "X": 1}, "interpolation": 2}]}, "layer": 2, "perspective_c2_y": {"Points": [{"co": {"Y": -1, "X": 1}, "interpolation": 2}]}, "perspective_c1_x": {"Points": [{"co": {"Y": -1, "X": 1}, "interpolation": 2}]}, "perspective_c4_y": {"Points": [{"co": {"Y": -1, "X": 1}, "interpolation": 2}]}, "reader": {"audio_bit_rate": 0, "has_single_image": false, "vcodec": "h264", "has_video": true, "type": "FFmpegReader", "video_length": "375", "audio_timebase": {"den": 1, "num": 1}, "path": "/home/robsen/Dropbox/Workdir/Repo/SuesseRache-HH-Taxi/arrow.mp4", "width": 1920, "has_audio": false, "video_bit_rate": 83079, "channel_layout": 4, "height": 1080, "display_ratio": {"den": 9, "num": 16}, "interlaced_frame": false, "duration": 15.0, "sample_rate": 0, "pixel_format": 0, "video_timebase": {"den": 12800, "num": 1}, "file_size": "155774", "top_field_first": true, "pixel_ratio": {"den": 1, "num": 1}, "acodec": "", "audio_stream_index": -1, "video_stream_index": 0, "channels": 0, "fps": {"den": 1, "num": 25}}, "channel_filter": {"Points": [{"co": {"Y": -1, "X": 1}, "interpolation": 2}]}, "file_id": "X22V56NF57", "time": {"Points": [{"co": {"Y": 1, "X": 1}, "interpolation": 2}]}}, "value": {"alpha": {"Points": [{"co": {"Y": 1, "X": 1}, "interpolation": 2}, {"handle_right": {"Y": 0, "X": 0.5}, "co": {"Y": 0, "X": 1}, "handle_left": {"Y": 1, "X": 0.5}, "handle_type": 0, "interpolation": 0}, {"handle_right": {"Y": 0, "X": 0.5}, "co": {"Y": 1, "X": 73}, "handle_left": {"Y": 1, "X": 0.5}, "handle_type": 0, "interpolation": 0}]}, "rotation": {"Points": [{"co": {"Y": 0, "X": 1}, "interpolation": 2}]}, "scale_y": {"Points": [{"co": {"Y": 1, "X": 1}, "interpolation": 2}]}, "crop_y": {"Points": [{"co": {"Y": 0, "X": 1}, "interpolation": 2}]}, "crop_width": {"Points": [{"co": {"Y": -1, "X": 1}, "interpolation": 2}]}, "end": 15, "perspective_c3_x": {"Points": [{"co": {"Y": -1, "X": 1}, "interpolation": 2}]}, "position": 53.075, "id": "PJWPMFXKV3", "wave_color": {"green": {"Points": [{"handle_right": {"Y": 0, "X": 0.5}, "co": {"Y": 123, "X": 1}, "handle_left": {"Y": 1, "X": 0.5}, "handle_type": 0, "interpolation": 0}]}, "blue": {"Points": [{"handle_right": {"Y": 0, "X": 0.5}, "co": {"Y": 255, "X": 1}, "handle_left": {"Y": 1, "X": 0.5}, "handle_type": 0, "interpolation": 0}]}, "alpha": {"Points": [{"handle_right": {"Y": 0, "X": 0.5}, "co": {"Y": 255, "X": 1}, "handle_left": {"Y": 1, "X": 0.5}, "handle_type": 0, "interpolation": 0}]}, "red": {"Points": [{"handle_right": {"Y": 0, "X": 0.5}, "co": {"Y": 0, "X": 1}, "handle_left": {"Y": 1, "X": 0.5}, "handle_type": 0, "interpolation": 0}]}}, "has_video": {"Points": [{"co": {"Y": -1, "X": 1}, "interpolation": 2}]}, "has_audio": {"Points": [{"co": {"Y": -1, "X": 1}, "interpolation": 2}]}, "effects": [], "location_x": {"Points": [{"co": {"Y": 0, "X": 1}, "interpolation": 2}]}, "waveform": false, "title": "arrow.mp4", "image": "/home/robsen/.openshot_qt/thumbnail/X22V56NF57.png", "gravity": 4, "scale_x": {"Points": [{"co": {"Y": 1, "X": 1}, "interpolation": 2}]}, "perspective_c1_y": {"Points": [{"co": {"Y": -1, "X": 1}, "interpolation": 2}]}, "crop_height": {"Points": [{"co": {"Y": -1, "X": 1}, "interpolation": 2}]}, "crop_x": {"Points": [{"co": {"Y": 0, "X": 1}, "interpolation": 2}]}, "start": 0, "scale": 1, "shear_y": {"Points": [{"co": {"Y": 0, "X": 1}, "interpolation": 2}]}, "display": 0, "volume": {"Points": [{"co": {"Y": 1, "X": 1}, "interpolation": 2}]}, "channel_mapping": {"Points": [{"co": {"Y": -1, "X": 1}, "interpolation": 2}]}, "anchor": 0, "duration": 15.0, "perspective_c3_y": {"Points": [{"co": {"Y": -1, "X": 1}, "interpolation": 2}]}, "shear_x": {"Points": [{"co": {"Y": 0, "X": 1}, "interpolation": 2}]}, "perspective_c4_x": {"Points": [{"co": {"Y": -1, "X": 1}, "interpolation": 2}]}, "location_y": {"Points": [{"co": {"Y": 0, "X": 1}, "interpolation": 2}]}, "perspective_c2_x": {"Points": [{"co": {"Y": -1, "X": 1}, "interpolation": 2}]}, "layer": 2, "perspective_c2_y": {"Points": [{"co": {"Y": -1, "X": 1}, "interpolation": 2}]}, "perspective_c1_x": {"Points": [{"co": {"Y": -1, "X": 1}, "interpolation": 2}]}, "perspective_c4_y": {"Points": [{"co": {"Y": -1, "X": 1}, "interpolation": 2}]}, "channel_filter": {"Points": [{"co": {"Y": -1, "X": 1}, "interpolation": 2}]}, "time": {"Points": [{"co": {"Y": 1, "X": 1}, "interpolation": 2}]}, "file_id": "X22V56NF57"}, "key": ["clips", {"id": "PJWPMFXKV3"}], "partial": false, "type": "update"}]}, "key": ["history"], "partial": false, "type": "update"}, {"old_values": null, "value": {"redo": [], "undo": [{"old_values": [{"number": 0, "label": "Spur 1", "id": "UBOPYJIV1S", "y": 0}, {"number": 1, "label": "Spur 2", "id": "SHY16ICR2M", "y": 0}], "value": {"number": 2, "y": 0, "label": "", "id": "E44ZNJSI3Z", "lock": false}, "key": ["layers"], "partial": false, "type": "insert"}, {"old_values": [], "value": {"audio_bit_rate": 0, "has_single_image": false, "media_type": "video", "id": "LGW3TZJV4Q", "type": "FFmpegReader", "has_video": true, "video_length": "375", "audio_timebase": {"den": 1, "num": 1}, "path": "/home/robsen/Dropbox/Workdir/Repo/SuesseRache-HH-Taxi/taxi_start.mp4", "width": 1920, "has_audio": false, "video_bit_rate": 147692, "channel_layout": 4, "height": 1080, "vcodec": "h264", "display_ratio": {"den": 9, "num": 16}, "interlaced_frame": false, "duration": 15, "sample_rate": 0, "pixel_format": 0, "video_timebase": {"den": 12800, "num": 1}, "file_size": "276924", "top_field_first": true, "pixel_ratio": {"den": 1, "num": 1}, "acodec": "", "audio_stream_index": -1, "video_stream_index": 0, "channels": 0, "fps": {"den": 1, "num": 25}}, "key": ["files"], "partial": false, "type": "insert"}, {"old_values": [{"audio_bit_rate": 0, "has_single_image": false, "media_type": "video", "id": "LGW3TZJV4Q", "type": "FFmpegReader", "has_video": true, "video_length": "375", "audio_timebase": {"den": 1, "num": 1}, "path": "/home/robsen/Dropbox/Workdir/Repo/SuesseRache-HH-Taxi/taxi_start.mp4", "width": 1920, "has_audio": false, "video_bit_rate": 147692, "channel_layout": 4, "height": 1080, "vcodec": "h264", "display_ratio": {"den": 9, "num": 16}, "interlaced_frame": false, "duration": 15, "sample_rate": 0, "pixel_format": 0, "video_timebase": {"den": 12800, "num": 1}, "file_size": "276924", "top_field_first": true, "pixel_ratio": {"den": 1, "num": 1}, "acodec": "", "audio_stream_index": -1, "video_stream_index": 0, "channels": 0, "fps": {"den": 1, "num": 25}}], "value": {"audio_bit_rate": 189375, "has_single_image": false, "media_type": "video", "id": "Z3LOYBY1PL", "type": "FFmpegReader", "has_video": true, "video_length": "937", "audio_timebase": {"den": 48000, "num": 1}, "path": "/home/robsen/Dropbox/Workdir/Repo/SuesseRache-HH-Taxi/TE_SR_Taxi.mp4", "width": 1920, "has_audio": true, "video_bit_rate": 32091692, "channel_layout": 3, "height": 1080, "vcodec": "h264", "display_ratio": {"den": 9, "num": 16}, "interlaced_frame": false, "duration": 31.317333221435547, "sample_rate": 48000, "pixel_format": 0, "video_timebase": {"den": 29970, "num": 1}, "file_size": "125628279", "top_field_first": true, "pixel_ratio": {"den": 1, "num": 1}, "acodec": "aac", "audio_stream_index": 1, "video_stream_index": 0, "channels": 2, "fps": {"den": 100, "num": 2997}}, "key": ["files"], "partial": false, "type": "insert"}, {"old_values": [{"audio_bit_rate": 0, "has_single_image": false, "media_type": "video", "id": "LGW3TZJV4Q", "type": "FFmpegReader", "has_video": true, "video_length": "375", "audio_timebase": {"den": 1, "num": 1}, "path": "/home/robsen/Dropbox/Workdir/Repo/SuesseRache-HH-Taxi/taxi_start.mp4", "width": 1920, "has_audio": false, "video_bit_rate": 147692, "channel_layout": 4, "height": 1080, "vcodec": "h264", "display_ratio": {"den": 9, "num": 16}, "interlaced_frame": false, "duration": 15, "sample_rate": 0, "pixel_format": 0, "video_timebase": {"den": 12800, "num": 1}, "file_size": "276924", "top_field_first": true, "pixel_ratio": {"den": 1, "num": 1}, "acodec": "", "audio_stream_index": -1, "video_stream_index": 0, "channels": 0, "fps": {"den": 1, "num": 25}}, {"audio_bit_rate": 189375, "has_single_image": false, "media_type": "video", "id": "Z3LOYBY1PL", "type": "FFmpegReader", "has_video": true, "video_length": "937", "audio_timebase": {"den": 48000, "num": 1}, "path": "/home/robsen/Dropbox/Workdir/Repo/SuesseRache-HH-Taxi/TE_SR_Taxi.mp4", "width": 1920, "has_audio": true, "video_bit_rate": 32091692, "channel_layout": 3, "height": 1080, "vcodec": "h264", "display_ratio": {"den": 9, "num": 16}, "interlaced_frame": false, "duration": 31.317333221435547, "sample_rate": 48000, "pixel_format": 0, "video_timebase": {"den": 29970, "num": 1}, "file_size": "125628279", "top_field_first": true, "pixel_ratio": {"den": 1, "num": 1}, "acodec": "aac", "audio_stream_index": 1, "video_stream_index": 0, "channels": 2, "fps": {"den": 100, "num": 2997}}], "value": {"audio_bit_rate": 0, "has_single_image": false, "media_type": "video", "id": "X22V56NF57", "type": "FFmpegReader", "has_video": true, "video_length": "375", "audio_timebase": {"den": 1, "num": 1}, "path": "/home/robsen/Dropbox/Workdir/Repo/SuesseRache-HH-Taxi/arrow.mp4", "width": 1920, "has_audio": false, "video_bit_rate": 83079, "channel_layout": 4, "height": 1080, "vcodec": "h264", "display_ratio": {"den": 9, "num": 16}, "interlaced_frame": false, "duration": 15, "sample_rate": 0, "pixel_format": 0, "video_timebase": {"den": 12800, "num": 1}, "file_size": "155774", "top_field_first": true, "pixel_ratio": {"den": 1, "num": 1}, "acodec": "", "audio_stream_index": -1, "video_stream_index": 0, "channels": 0, "fps": {"den": 1, "num": 25}}, "key": ["files"], "partial": false, "type": "insert"}, {"old_values": [], "value": {"alpha": {"Points": [{"co": {"Y": 1, "X": 1}, "interpolation": 2}, {"handle_right": {"Y": 0, "X": 0.5}, "co": {"Y": 1, "X": 289}, "handle_left": {"Y": 1, "X": 0.5}, "handle_type": 0, "interpolation": 0}, {"handle_right": {"Y": 0, "X": 0.5}, "co": {"Y": 0, "X": 361}, "handle_left": {"Y": 1, "X": 0.5}, "handle_type": 0, "interpolation": 0}, {"handle_right": {"Y": 0, "X": 0.5}, "co": {"Y": 0, "X": 1}, "handle_left": {"Y": 1, "X": 0.5}, "handle_type": 0, "interpolation": 0}, {"handle_right": {"Y": 0, "X": 0.5}, "co": {"Y": 1, "X": 73}, "handle_left": {"Y": 1, "X": 0.5}, "handle_type": 0, "interpolation": 0}]}, "rotation": {"Points": [{"co": {"Y": 0, "X": 1}, "interpolation": 2}]}, "scale_y": {"Points": [{"co": {"Y": 1, "X": 1}, "interpolation": 2}]}, "crop_y": {"Points": [{"co": {"Y": 0, "X": 1}, "interpolation": 2}]}, "perspective_c3_x": {"Points": [{"co": {"Y": -1, "X": 1}, "interpolation": 2}]}, "end": 15, "crop_width": {"Points": [{"co": {"Y": -1, "X": 1}, "interpolation": 2}]}, "position": 8.8, "id": "0AEDFYGQ7J", "wave_color": {"green": {"Points": [{"handle_right": {"Y": 0, "X": 0.5}, "co": {"Y": 123, "X": 1}, "handle_left": {"Y": 1, "X": 0.5}, "handle_type": 0, "interpolation": 0}]}, "blue": {"Points": [{"handle_right": {"Y": 0, "X": 0.5}, "co": {"Y": 255, "X": 1}, "handle_left": {"Y": 1, "X": 0.5}, "handle_type": 0, "interpolation": 0}]}, "alpha": {"Points": [{"handle_right": {"Y": 0, "X": 0.5}, "co": {"Y": 255, "X": 1}, "handle_left": {"Y": 1, "X": 0.5}, "handle_type": 0, "interpolation": 0}]}, "red": {"Points": [{"handle_right": {"Y": 0, "X": 0.5}, "co": {"Y": 0, "X": 1}, "handle_left": {"Y": 1, "X": 0.5}, "handle_type": 0, "interpolation": 0}]}}, "has_video": {"Points": [{"co": {"Y": -1, "X": 1}, "interpolation": 2}]}, "has_audio": {"Points": [{"co": {"Y": -1, "X": 1}, "interpolation": 2}]}, "effects": [], "location_x": {"Points": [{"co": {"Y": 0, "X": 1}, "interpolation": 2}]}, "waveform": false, "title": "taxi_start.mp4", "image": "/home/robsen/.openshot_qt/thumbnail/LGW3TZJV4Q.png", "gravity": 4, "scale_x": {"Points": [{"co": {"Y": 1, "X": 1}, "interpolation": 2}]}, "perspective_c1_y": {"Points": [{"co": {"Y": -1, "X": 1}, "interpolation": 2}]}, "crop_height": {"Points": [{"co": {"Y": -1, "X": 1}, "interpolation": 2}]}, "crop_x": {"Points": [{"co": {"Y": 0, "X": 1}, "interpolation": 2}]}, "start": 0, "scale": 1, "shear_y": {"Points": [{"co": {"Y": 0, "X": 1}, "interpolation": 2}]}, "display": 0, "volume": {"Points": [{"co": {"Y": 1, "X": 1}, "interpolation": 2}]}, "channel_mapping": {"Points": [{"co": {"Y": -1, "X": 1}, "interpolation": 2}]}, "anchor": 0, "duration": 15.0, "perspective_c3_y": {"Points": [{"co": {"Y": -1, "X": 1}, "interpolation": 2}]}, "shear_x": {"Points": [{"co": {"Y": 0, "X": 1}, "interpolation": 2}]}, "perspective_c4_x": {"Points": [{"co": {"Y": -1, "X": 1}, "interpolation": 2}]}, "location_y": {"Points": [{"co": {"Y": 0, "X": 1}, "interpolation": 2}]}, "perspective_c2_x": {"Points": [{"co": {"Y": -1, "X": 1}, "interpolation": 2}]}, "layer": 0, "perspective_c2_y": {"Points": [{"co": {"Y": -1, "X": 1}, "interpolation": 2}]}, "perspective_c1_x": {"Points": [{"co": {"Y": -1, "X": 1}, "interpolation": 2}]}, "perspective_c4_y": {"Points": [{"co": {"Y": -1, "X": 1}, "interpolation": 2}]}, "reader": {"audio_bit_rate": 0, "has_single_image": false, "has_video": true, "type": "FFmpegReader", "video_length": "375", "audio_timebase": {"den": 1, "num": 1}, "path": "/home/robsen/Dropbox/Workdir/Repo/SuesseRache-HH-Taxi/taxi_start.mp4", "width": 1920, "has_audio": false, "video_bit_rate": 147692, "channel_layout": 4, "height": 1080, "display_ratio": {"den": 9, "num": 16}, "interlaced_frame": false, "video_timebase": {"den": 12800, "num": 1}, "duration": 15.0, "sample_rate": 0, "pixel_format": 0, "fps": {"den": 1, "num": 25}, "file_size": "276924", "top_field_first": true, "pixel_ratio": {"den": 1, "num": 1}, "acodec": "", "audio_stream_index": -1, "video_stream_index": 0, "channels": 0, "vcodec": "h264"}, "channel_filter": {"Points": [{"co": {"Y": -1, "X": 1}, "interpolation": 2}]}, "file_id": "LGW3TZJV4Q", "time": {"Points": [{"co": {"Y": 1, "X": 1}, "interpolation": 2}]}}, "key": ["clips"], "partial": false, "type": "insert"}, {"old_values": null, "value": {"id": "0AEDFYGQ7J", "start": 0, "end": 15, "position": 8.8, "layer": 0, "image": "/home/robsen/.openshot_qt/thumbnail/LGW3TZJV4Q.png"}, "key": ["clips", {"id": "0AEDFYGQ7J"}], "partial": false, "type": "update"}, {"old_values": null, "value": {"id": "0AEDFYGQ7J", "start": 0, "end": 15, "position": 8.8, "layer": 0, "image": "/home/robsen/.openshot_qt/thumbnail/LGW3TZJV4Q.png"}, "key": ["clips", {"id": "0AEDFYGQ7J"}], "partial": false, "type": "update"}, {"old_values": [{"alpha": {"Points": [{"co": {"Y": 1, "X": 1}, "interpolation": 2}]}, "rotation": {"Points": [{"co": {"Y": 0, "X": 1}, "interpolation": 2}]}, "scale_y": {"Points": [{"co": {"Y": 1, "X": 1}, "interpolation": 2}]}, "crop_y": {"Points": [{"co": {"Y": 0, "X": 1}, "interpolation": 2}]}, "perspective_c3_x": {"Points": [{"co": {"Y": -1, "X": 1}, "interpolation": 2}]}, "end": 15, "crop_width": {"Points": [{"co": {"Y": -1, "X": 1}, "interpolation": 2}]}, "position": 8.8, "id": "0AEDFYGQ7J", "wave_color": {"green": {"Points": [{"handle_right": {"Y": 0, "X": 0.5}, "co": {"Y": 123, "X": 1}, "handle_left": {"Y": 1, "X": 0.5}, "handle_type": 0, "interpolation": 0}]}, "blue": {"Points": [{"handle_right": {"Y": 0, "X": 0.5}, "co": {"Y": 255, "X": 1}, "handle_left": {"Y": 1, "X": 0.5}, "handle_type": 0, "interpolation": 0}]}, "alpha": {"Points": [{"handle_right": {"Y": 0, "X": 0.5}, "co": {"Y": 255, "X": 1}, "handle_left": {"Y": 1, "X": 0.5}, "handle_type": 0, "interpolation": 0}]}, "red": {"Points": [{"handle_right": {"Y": 0, "X": 0.5}, "co": {"Y": 0, "X": 1}, "handle_left": {"Y": 1, "X": 0.5}, "handle_type": 0, "interpolation": 0}]}}, "has_video": {"Points": [{"co": {"Y": -1, "X": 1}, "interpolation": 2}]}, "has_audio": {"Points": [{"co": {"Y": -1, "X": 1}, "interpolation": 2}]}, "effects": [], "location_x": {"Points": [{"co": {"Y": 0, "X": 1}, "interpolation": 2}]}, "waveform": false, "title": "taxi_start.mp4", "image": "/home/robsen/.openshot_qt/thumbnail/LGW3TZJV4Q.png", "gravity": 4, "perspective_c2_x": {"Points": [{"co": {"Y": -1, "X": 1}, "interpolation": 2}]}, "perspective_c1_y": {"Points": [{"co": {"Y": -1, "X": 1}, "interpolation": 2}]}, "crop_height": {"Points": [{"co": {"Y": -1, "X": 1}, "interpolation": 2}]}, "crop_x": {"Points": [{"co": {"Y": 0, "X": 1}, "interpolation": 2}]}, "start": 0, "scale": 1, "shear_y": {"Points": [{"co": {"Y": 0, "X": 1}, "interpolation": 2}]}, "display": 0, "volume": {"Points": [{"co": {"Y": 1, "X": 1}, "interpolation": 2}]}, "channel_mapping": {"Points": [{"co": {"Y": -1, "X": 1}, "interpolation": 2}]}, "anchor": 0, "duration": 15.0, "perspective_c3_y": {"Points": [{"co": {"Y": -1, "X": 1}, "interpolation": 2}]}, "shear_x": {"Points": [{"co": {"Y": 0, "X": 1}, "interpolation": 2}]}, "perspective_c4_x": {"Points": [{"co": {"Y": -1, "X": 1}, "interpolation": 2}]}, "location_y": {"Points": [{"co": {"Y": 0, "X": 1}, "interpolation": 2}]}, "scale_x": {"Points": [{"co": {"Y": 1, "X": 1}, "interpolation": 2}]}, "layer": 0, "perspective_c2_y": {"Points": [{"co": {"Y": -1, "X": 1}, "interpolation": 2}]}, "perspective_c1_x": {"Points": [{"co": {"Y": -1, "X": 1}, "interpolation": 2}]}, "perspective_c4_y": {"Points": [{"co": {"Y": -1, "X": 1}, "interpolation": 2}]}, "reader": {"audio_bit_rate": 0, "has_single_image": false, "vcodec": "h264", "has_video": true, "type": "FFmpegReader", "video_length": "375", "audio_timebase": {"den": 1, "num": 1}, "path": "/home/robsen/Dropbox/Workdir/Repo/SuesseRache-HH-Taxi/taxi_start.mp4", "width": 1920, "has_audio": false, "video_bit_rate": 147692, "channel_layout": 4, "height": 1080, "display_ratio": {"den": 9, "num": 16}, "interlaced_frame": false, "duration": 15.0, "sample_rate": 0, "pixel_format": 0, "video_timebase": {"den": 12800, "num": 1}, "file_size": "276924", "top_field_first": true, "pixel_ratio": {"den": 1, "num": 1}, "acodec": "", "audio_stream_index": -1, "video_stream_index": 0, "channels": 0, "fps": {"den": 1, "num": 25}}, "channel_filter": {"Points": [{"co": {"Y": -1, "X": 1}, "interpolation": 2}]}, "file_id": "LGW3TZJV4Q", "time": {"Points": [{"co": {"Y": 1, "X": 1}, "interpolation": 2}]}}], "value": {"alpha": {"Points": [{"co": {"Y": 1, "X": 1}, "interpolation": 2}]}, "rotation": {"Points": [{"co": {"Y": 0, "X": 1}, "interpolation": 2}]}, "scale_y": {"Points": [{"co": {"Y": 1, "X": 1}, "interpolation": 2}]}, "crop_y": {"Points": [{"co": {"Y": 0, "X": 1}, "interpolation": 2}]}, "perspective_c3_x": {"Points": [{"co": {"Y": -1, "X": 1}, "interpolation": 2}]}, "end": 31.317333221435547, "crop_width": {"Points": [{"co": {"Y": -1, "X": 1}, "interpolation": 2}]}, "position": 21.76, "id": "627XQDJ3EP", "wave_color": {"green": {"Points": [{"handle_right": {"Y": 0, "X": 0.5}, "co": {"Y": 123, "X": 1}, "handle_left": {"Y": 1, "X": 0.5}, "handle_type": 0, "interpolation": 0}]}, "blue": {"Points": [{"handle_right": {"Y": 0, "X": 0.5}, "co": {"Y": 255, "X": 1}, "handle_left": {"Y": 1, "X": 0.5}, "handle_type": 0, "interpolation": 0}]}, "alpha": {"Points": [{"handle_right": {"Y": 0, "X": 0.5}, "co": {"Y": 255, "X": 1}, "handle_left": {"Y": 1, "X": 0.5}, "handle_type": 0, "interpolation": 0}]}, "red": {"Points": [{"handle_right": {"Y": 0, "X": 0.5}, "co": {"Y": 0, "X": 1}, "handle_left": {"Y": 1, "X": 0.5}, "handle_type": 0, "interpolation": 0}]}}, "has_video": {"Points": [{"co": {"Y": -1, "X": 1}, "interpolation": 2}]}, "has_audio": {"Points": [{"co": {"Y": -1, "X": 1}, "interpolation": 2}]}, "effects": [], "location_x": {"Points": [{"co": {"Y": 0, "X": 1}, "interpolation": 2}]}, "waveform": false, "title": "TE_SR_Taxi.mp4", "image": "/home/robsen/.openshot_qt/thumbnail/Z3LOYBY1PL.png", "gravity": 4, "scale_x": {"Points": [{"co": {"Y": 1, "X": 1}, "interpolation": 2}]}, "perspective_c1_y": {"Points": [{"co": {"Y": -1, "X": 1}, "interpolation": 2}]}, "crop_height": {"Points": [{"co": {"Y": -1, "X": 1}, "interpolation": 2}]}, "crop_x": {"Points": [{"co": {"Y": 0, "X": 1}, "interpolation": 2}]}, "start": 0, "scale": 1, "shear_y": {"Points": [{"co": {"Y": 0, "X": 1}, "interpolation": 2}]}, "display": 0, "volume": {"Points": [{"co": {"Y": 1, "X": 1}, "interpolation": 2}]}, "channel_mapping": {"Points": [{"co": {"Y": -1, "X": 1}, "interpolation": 2}]}, "anchor": 0, "duration": 31.317333221435547, "perspective_c3_y": {"Points": [{"co": {"Y": -1, "X": 1}, "interpolation": 2}]}, "shear_x": {"Points": [{"co": {"Y": 0, "X": 1}, "interpolation": 2}]}, "perspective_c4_x": {"Points": [{"co": {"Y": -1, "X": 1}, "interpolation": 2}]}, "location_y": {"Points": [{"co": {"Y": 0, "X": 1}, "interpolation": 2}]}, "perspective_c2_x": {"Points": [{"co": {"Y": -1, "X": 1}, "interpolation": 2}]}, "layer": 1, "perspective_c2_y": {"Points": [{"co": {"Y": -1, "X": 1}, "interpolation": 2}]}, "perspective_c1_x": {"Points": [{"co": {"Y": -1, "X": 1}, "interpolation": 2}]}, "perspective_c4_y": {"Points": [{"co": {"Y": -1, "X": 1}, "interpolation": 2}]}, "reader": {"audio_bit_rate": 189375, "has_single_image": false, "has_video": true, "type": "FFmpegReader", "video_length": "937", "audio_timebase": {"den": 48000, "num": 1}, "path": "/home/robsen/Dropbox/Workdir/Repo/SuesseRache-HH-Taxi/TE_SR_Taxi.mp4", "width": 1920, "has_audio": true, "video_bit_rate": 32091692, "channel_layout": 3, "height": 1080, "display_ratio": {"den": 9, "num": 16}, "interlaced_frame": false, "video_timebase": {"den": 29970, "num": 1}, "duration": 31.317333221435547, "sample_rate": 48000, "pixel_format": 0, "fps": {"den": 100, "num": 2997}, "file_size": "125628279", "top_field_first": true, "pixel_ratio": {"den": 1, "num": 1}, "acodec": "aac", "audio_stream_index": 1, "video_stream_index": 0, "channels": 2, "vcodec": "h264"}, "channel_filter": {"Points": [{"co": {"Y": -1, "X": 1}, "interpolation": 2}]}, "file_id": "Z3LOYBY1PL", "time": {"Points": [{"co": {"Y": 1, "X": 1}, "interpolation": 2}]}}, "key": ["clips"], "partial": false, "type": "insert"}, {"old_values": {"alpha": {"Points": [{"co": {"Y": 1, "X": 1}, "interpolation": 2}]}, "rotation": {"Points": [{"co": {"Y": 0, "X": 1}, "interpolation": 2}]}, "scale_y": {"Points": [{"co": {"Y": 1, "X": 1}, "interpolation": 2}]}, "crop_y": {"Points": [{"co": {"Y": 0, "X": 1}, "interpolation": 2}]}, "perspective_c3_x": {"Points": [{"co": {"Y": -1, "X": 1}, "interpolation": 2}]}, "end": 31.317333221435547, "crop_width": {"Points": [{"co": {"Y": -1, "X": 1}, "interpolation": 2}]}, "position": 18.88, "id": "627XQDJ3EP", "wave_color": {"green": {"Points": [{"handle_right": {"Y": 0, "X": 0.5}, "co": {"Y": 123, "X": 1}, "handle_left": {"Y": 1, "X": 0.5}, "handle_type": 0, "interpolation": 0}]}, "blue": {"Points": [{"handle_right": {"Y": 0, "X": 0.5}, "co": {"Y": 255, "X": 1}, "handle_left": {"Y": 1, "X": 0.5}, "handle_type": 0, "interpolation": 0}]}, "alpha": {"Points": [{"handle_right": {"Y": 0, "X": 0.5}, "co": {"Y": 255, "X": 1}, "handle_left": {"Y": 1, "X": 0.5}, "handle_type": 0, "interpolation": 0}]}, "red": {"Points": [{"handle_right": {"Y": 0, "X": 0.5}, "co": {"Y": 0, "X": 1}, "handle_left": {"Y": 1, "X": 0.5}, "handle_type": 0, "interpolation": 0}]}}, "has_video": {"Points": [{"co": {"Y": -1, "X": 1}, "interpolation": 2}]}, "has_audio": {"Points": [{"co": {"Y": -1, "X": 1}, "interpolation": 2}]}, "effects": [], "location_x": {"Points": [{"co": {"Y": 0, "X": 1}, "interpolation": 2}]}, "waveform": false, "title": "TE_SR_Taxi.mp4", "image": "/home/robsen/.openshot_qt/thumbnail/Z3LOYBY1PL.png", "gravity": 4, "scale_x": {"Points": [{"co": {"Y": 1, "X": 1}, "interpolation": 2}]}, "perspective_c1_y": {"Points": [{"co": {"Y": -1, "X": 1}, "interpolation": 2}]}, "crop_height": {"Points": [{"co": {"Y": -1, "X": 1}, "interpolation": 2}]}, "crop_x": {"Points": [{"co": {"Y": 0, "X": 1}, "interpolation": 2}]}, "start": 0, "scale": 1, "shear_y": {"Points": [{"co": {"Y": 0, "X": 1}, "interpolation": 2}]}, "display": 0, "volume": {"Points": [{"co": {"Y": 1, "X": 1}, "interpolation": 2}]}, "channel_mapping": {"Points": [{"co": {"Y": -1, "X": 1}, "interpolation": 2}]}, "anchor": 0, "duration": 31.317333221435547, "perspective_c3_y": {"Points": [{"co": {"Y": -1, "X": 1}, "interpolation": 2}]}, "shear_x": {"Points": [{"co": {"Y": 0, "X": 1}, "interpolation": 2}]}, "perspective_c4_x": {"Points": [{"co": {"Y": -1, "X": 1}, "interpolation": 2}]}, "location_y": {"Points": [{"co": {"Y": 0, "X": 1}, "interpolation": 2}]}, "perspective_c2_x": {"Points": [{"co": {"Y": -1, "X": 1}, "interpolation": 2}]}, "layer": 2, "perspective_c2_y": {"Points": [{"co": {"Y": -1, "X": 1}, "interpolation": 2}]}, "perspective_c1_x": {"Points": [{"co": {"Y": -1, "X": 1}, "interpolation": 2}]}, "perspective_c4_y": {"Points": [{"co": {"Y": -1, "X": 1}, "interpolation": 2}]}, "reader": {"audio_bit_rate": 189375, "has_single_image": false, "vcodec": "h264", "has_video": true, "type": "FFmpegReader", "video_length": "937", "audio_timebase": {"den": 48000, "num": 1}, "path": "/home/robsen/Dropbox/Workdir/Repo/SuesseRache-HH-Taxi/TE_SR_Taxi.mp4", "width": 1920, "has_audio": true, "video_bit_rate": 32091692, "channel_layout": 3, "height": 1080, "display_ratio": {"den": 9, "num": 16}, "interlaced_frame": false, "duration": 31.317333221435547, "sample_rate": 48000, "pixel_format": 0, "video_timebase": {"den": 29970, "num": 1}, "file_size": "125628279", "top_field_first": true, "pixel_ratio": {"den": 1, "num": 1}, "acodec": "aac", "audio_stream_index": 1, "video_stream_index": 0, "channels": 2, "fps": {"den": 100, "num": 2997}}, "channel_filter": {"Points": [{"co": {"Y": -1, "X": 1}, "interpolation": 2}]}, "file_id": "Z3LOYBY1PL", "time": {"Points": [{"co": {"Y": 1, "X": 1}, "interpolation": 2}]}}, "value": {"id": "627XQDJ3EP", "start": 0, "end": 31.317333221435547, "position": 21.76, "layer": 0, "image": "/home/robsen/.openshot_qt/thumbnail/Z3LOYBY1PL.png"}, "key": ["clips", {"id": "627XQDJ3EP"}], "partial": false, "type": "update"}, {"old_values": [], "value": {"start": 0, "type": "Mask", "contrast": {"Points": [{"co": {"Y": 3, "X": 1}, "interpolation": 2}]}, "layer": 0, "replace_image": false, "title": "Transition", "end": 2.039999999999999, "reader": {"audio_bit_rate": 0, "has_single_image": true, "has_video": true, "type": "QtImageReader", "video_length": "2592000", "audio_timebase": {"den": 1, "num": 1}, "path": "/usr/lib/python3/dist-packages/openshot_qt/transitions/common/fade.svg", "width": 720, "has_audio": false, "video_bit_rate": 0, "channel_layout": 4, "height": 576, "display_ratio": {"den": 4, "num": 5}, "interlaced_frame": false, "video_timebase": {"den": 30, "num": 1}, "duration": 86400, "sample_rate": 0, "pixel_format": -1, "fps": {"den": 1, "num": 30}, "file_size": "1658880", "top_field_first": true, "pixel_ratio": {"den": 1, "num": 1}, "acodec": "", "audio_stream_index": -1, "video_stream_index": -1, "channels": 0, "vcodec": ""}, "brightness": {"Points": [{"handle_right": {"Y": 0, "X": 0.5}, "co": {"Y": 1, "X": 1}, "handle_left": {"Y": 1, "X": 0.5}, "handle_type": 0, "interpolation": 0}, {"handle_right": {"Y": 0, "X": 0.5}, "co": {"Y": -1, "X": 50}, "handle_left": {"Y": 1, "X": 0.5}, "handle_type": 0, "interpolation": 0}]}, "id": "5NBS5H99MA", "position": 21.76}, "key": ["effects"], "partial": false, "type": "insert"}, {"old_values": {"alpha": {"Points": [{"co": {"Y": 1, "X": 1}, "interpolation": 2}]}, "rotation": {"Points": [{"co": {"Y": 0, "X": 1}, "interpolation": 2}]}, "scale_y": {"Points": [{"co": {"Y": 1, "X": 1}, "interpolation": 2}]}, "crop_y": {"Points": [{"co": {"Y": 0, "X": 1}, "interpolation": 2}]}, "perspective_c3_x": {"Points": [{"co": {"Y": -1, "X": 1}, "interpolation": 2}]}, "end": 31.317333221435547, "crop_width": {"Points": [{"co": {"Y": -1, "X": 1}, "interpolation": 2}]}, "position": 21.76, "id": "627XQDJ3EP", "wave_color": {"green": {"Points": [{"handle_right": {"Y": 0, "X": 0.5}, "co": {"Y": 123, "X": 1}, "handle_left": {"Y": 1, "X": 0.5}, "handle_type": 0, "interpolation": 0}]}, "blue": {"Points": [{"handle_right": {"Y": 0, "X": 0.5}, "co": {"Y": 255, "X": 1}, "handle_left": {"Y": 1, "X": 0.5}, "handle_type": 0, "interpolation": 0}]}, "alpha": {"Points": [{"handle_right": {"Y": 0, "X": 0.5}, "co": {"Y": 255, "X": 1}, "handle_left": {"Y": 1, "X": 0.5}, "handle_type": 0, "interpolation": 0}]}, "red": {"Points": [{"handle_right": {"Y": 0, "X": 0.5}, "co": {"Y": 0, "X": 1}, "handle_left": {"Y": 1, "X": 0.5}, "handle_type": 0, "interpolation": 0}]}}, "has_video": {"Points": [{"co": {"Y": -1, "X": 1}, "interpolation": 2}]}, "has_audio": {"Points": [{"co": {"Y": -1, "X": 1}, "interpolation": 2}]}, "effects": [], "location_x": {"Points": [{"co": {"Y": 0, "X": 1}, "interpolation": 2}]}, "waveform": false, "title": "TE_SR_Taxi.mp4", "image": "/home/robsen/.openshot_qt/thumbnail/Z3LOYBY1PL.png", "gravity": 4, "perspective_c2_x": {"Points": [{"co": {"Y": -1, "X": 1}, "interpolation": 2}]}, "perspective_c1_y": {"Points": [{"co": {"Y": -1, "X": 1}, "interpolation": 2}]}, "crop_height": {"Points": [{"co": {"Y": -1, "X": 1}, "interpolation": 2}]}, "crop_x": {"Points": [{"co": {"Y": 0, "X": 1}, "interpolation": 2}]}, "start": 0, "scale": 1, "shear_y": {"Points": [{"co": {"Y": 0, "X": 1}, "interpolation": 2}]}, "display": 0, "volume": {"Points": [{"co": {"Y": 1, "X": 1}, "interpolation": 2}]}, "channel_mapping": {"Points": [{"co": {"Y": -1, "X": 1}, "interpolation": 2}]}, "anchor": 0, "duration": 31.317333221435547, "perspective_c3_y": {"Points": [{"co": {"Y": -1, "X": 1}, "interpolation": 2}]}, "shear_x": {"Points": [{"co": {"Y": 0, "X": 1}, "interpolation": 2}]}, "perspective_c4_x": {"Points": [{"co": {"Y": -1, "X": 1}, "interpolation": 2}]}, "location_y": {"Points": [{"co": {"Y": 0, "X": 1}, "interpolation": 2}]}, "scale_x": {"Points": [{"co": {"Y": 1, "X": 1}, "interpolation": 2}]}, "layer": 0, "perspective_c2_y": {"Points": [{"co": {"Y": -1, "X": 1}, "interpolation": 2}]}, "perspective_c1_x": {"Points": [{"co": {"Y": -1, "X": 1}, "interpolation": 2}]}, "perspective_c4_y": {"Points": [{"co": {"Y": -1, "X": 1}, "interpolation": 2}]}, "reader": {"audio_bit_rate": 189375, "has_single_image": false, "vcodec": "h264", "has_video": true, "type": "FFmpegReader", "video_length": "937", "audio_timebase": {"den": 48000, "num": 1}, "path": "/home/robsen/Dropbox/Workdir/Repo/SuesseRache-HH-Taxi/TE_SR_Taxi.mp4", "width": 1920, "has_audio": true, "video_bit_rate": 32091692, "channel_layout": 3, "height": 1080, "display_ratio": {"den": 9, "num": 16}, "interlaced_frame": false, "duration": 31.317333221435547, "sample_rate": 48000, "pixel_format": 0, "video_timebase": {"den": 29970, "num": 1}, "file_size": "125628279", "top_field_first": true, "pixel_ratio": {"den": 1, "num": 1}, "acodec": "aac", "audio_stream_index": 1, "video_stream_index": 0, "channels": 2, "fps": {"den": 100, "num": 2997}}, "channel_filter": {"Points": [{"co": {"Y": -1, "X": 1}, "interpolation": 2}]}, "file_id": "Z3LOYBY1PL", "time": {"Points": [{"co": {"Y": 1, "X": 1}, "interpolation": 2}]}}, "value": {"id": "627XQDJ3EP", "start": 0, "end": 31.317333221435547, "position": 21.76, "layer": 1, "image": "/home/robsen/.openshot_qt/thumbnail/Z3LOYBY1PL.png"}, "key": ["clips", {"id": "627XQDJ3EP"}], "partial": false, "type": "update"}, {"old_values": [{"alpha": {"Points": [{"co": {"Y": 1, "X": 1}, "interpolation": 2}]}, "rotation": {"Points": [{"co": {"Y": 0, "X": 1}, "interpolation": 2}]}, "scale_y": {"Points": [{"co": {"Y": 1, "X": 1}, "interpolation": 2}]}, "crop_y": {"Points": [{"co": {"Y": 0, "X": 1}, "interpolation": 2}]}, "perspective_c3_x": {"Points": [{"co": {"Y": -1, "X": 1}, "interpolation": 2}]}, "end": 15, "crop_width": {"Points": [{"co": {"Y": -1, "X": 1}, "interpolation": 2}]}, "position": 8.8, "id": "0AEDFYGQ7J", "wave_color": {"green": {"Points": [{"handle_right": {"Y": 0, "X": 0.5}, "co": {"Y": 123, "X": 1}, "handle_left": {"Y": 1, "X": 0.5}, "handle_type": 0, "interpolation": 0}]}, "blue": {"Points": [{"handle_right": {"Y": 0, "X": 0.5}, "co": {"Y": 255, "X": 1}, "handle_left": {"Y": 1, "X": 0.5}, "handle_type": 0, "interpolation": 0}]}, "alpha": {"Points": [{"handle_right": {"Y": 0, "X": 0.5}, "co": {"Y": 255, "X": 1}, "handle_left": {"Y": 1, "X": 0.5}, "handle_type": 0, "interpolation": 0}]}, "red": {"Points": [{"handle_right": {"Y": 0, "X": 0.5}, "co": {"Y": 0, "X": 1}, "handle_left": {"Y": 1, "X": 0.5}, "handle_type": 0, "interpolation": 0}]}}, "has_video": {"Points": [{"co": {"Y": -1, "X": 1}, "interpolation": 2}]}, "has_audio": {"Points": [{"co": {"Y": -1, "X": 1}, "interpolation": 2}]}, "effects": [], "location_x": {"Points": [{"co": {"Y": 0, "X": 1}, "interpolation": 2}]}, "waveform": false, "title": "taxi_start.mp4", "image": "/home/robsen/.openshot_qt/thumbnail/LGW3TZJV4Q.png", "gravity": 4, "perspective_c2_x": {"Points": [{"co": {"Y": -1, "X": 1}, "interpolation": 2}]}, "perspective_c1_y": {"Points": [{"co": {"Y": -1, "X": 1}, "interpolation": 2}]}, "crop_height": {"Points": [{"co": {"Y": -1, "X": 1}, "interpolation": 2}]}, "crop_x": {"Points": [{"co": {"Y": 0, "X": 1}, "interpolation": 2}]}, "start": 0, "scale": 1, "shear_y": {"Points": [{"co": {"Y": 0, "X": 1}, "interpolation": 2}]}, "display": 0, "volume": {"Points": [{"co": {"Y": 1, "X": 1}, "interpolation": 2}]}, "channel_mapping": {"Points": [{"co": {"Y": -1, "X": 1}, "interpolation": 2}]}, "anchor": 0, "duration": 15.0, "perspective_c3_y": {"Points": [{"co": {"Y": -1, "X": 1}, "interpolation": 2}]}, "shear_x": {"Points": [{"co": {"Y": 0, "X": 1}, "interpolation": 2}]}, "perspective_c4_x": {"Points": [{"co": {"Y": -1, "X": 1}, "interpolation": 2}]}, "location_y": {"Points": [{"co": {"Y": 0, "X": 1}, "interpolation": 2}]}, "scale_x": {"Points": [{"co": {"Y": 1, "X": 1}, "interpolation": 2}]}, "layer": 0, "perspective_c2_y": {"Points": [{"co": {"Y": -1, "X": 1}, "interpolation": 2}]}, "perspective_c1_x": {"Points": [{"co": {"Y": -1, "X": 1}, "interpolation": 2}]}, "perspective_c4_y": {"Points": [{"co": {"Y": -1, "X": 1}, "interpolation": 2}]}, "reader": {"audio_bit_rate": 0, "has_single_image": false, "vcodec": "h264", "has_video": true, "type": "FFmpegReader", "video_length": "375", "audio_timebase": {"den": 1, "num": 1}, "path": "/home/robsen/Dropbox/Workdir/Repo/SuesseRache-HH-Taxi/taxi_start.mp4", "width": 1920, "has_audio": false, "video_bit_rate": 147692, "channel_layout": 4, "height": 1080, "display_ratio": {"den": 9, "num": 16}, "interlaced_frame": false, "duration": 15.0, "sample_rate": 0, "pixel_format": 0, "video_timebase": {"den": 12800, "num": 1}, "file_size": "276924", "top_field_first": true, "pixel_ratio": {"den": 1, "num": 1}, "acodec": "", "audio_stream_index": -1, "video_stream_index": 0, "channels": 0, "fps": {"den": 1, "num": 25}}, "channel_filter": {"Points": [{"co": {"Y": -1, "X": 1}, "interpolation": 2}]}, "file_id": "LGW3TZJV4Q", "time": {"Points": [{"co": {"Y": 1, "X": 1}, "interpolation": 2}]}}, {"alpha": {"Points": [{"co": {"Y": 1, "X": 1}, "interpolation": 2}]}, "rotation": {"Points": [{"co": {"Y": 0, "X": 1}, "interpolation": 2}]}, "scale_y": {"Points": [{"co": {"Y": 1, "X": 1}, "interpolation": 2}]}, "crop_y": {"Points": [{"co": {"Y": 0, "X": 1}, "interpolation": 2}]}, "perspective_c3_x": {"Points": [{"co": {"Y": -1, "X": 1}, "interpolation": 2}]}, "end": 31.317333221435547, "crop_width": {"Points": [{"co": {"Y": -1, "X": 1}, "interpolation": 2}]}, "position": 21.76, "id": "627XQDJ3EP", "wave_color": {"green": {"Points": [{"handle_right": {"Y": 0, "X": 0.5}, "co": {"Y": 123, "X": 1}, "handle_left": {"Y": 1, "X": 0.5}, "handle_type": 0, "interpolation": 0}]}, "blue": {"Points": [{"handle_right": {"Y": 0, "X": 0.5}, "co": {"Y": 255, "X": 1}, "handle_left": {"Y": 1, "X": 0.5}, "handle_type": 0, "interpolation": 0}]}, "alpha": {"Points": [{"handle_right": {"Y": 0, "X": 0.5}, "co": {"Y": 255, "X": 1}, "handle_left": {"Y": 1, "X": 0.5}, "handle_type": 0, "interpolation": 0}]}, "red": {"Points": [{"handle_right": {"Y": 0, "X": 0.5}, "co": {"Y": 0, "X": 1}, "handle_left": {"Y": 1, "X": 0.5}, "handle_type": 0, "interpolation": 0}]}}, "has_video": {"Points": [{"co": {"Y": -1, "X": 1}, "interpolation": 2}]}, "has_audio": {"Points": [{"co": {"Y": -1, "X": 1}, "interpolation": 2}]}, "effects": [], "location_x": {"Points": [{"co": {"Y": 0, "X": 1}, "interpolation": 2}]}, "waveform": false, "title": "TE_SR_Taxi.mp4", "image": "/home/robsen/.openshot_qt/thumbnail/Z3LOYBY1PL.png", "gravity": 4, "perspective_c2_x": {"Points": [{"co": {"Y": -1, "X": 1}, "interpolation": 2}]}, "perspective_c1_y": {"Points": [{"co": {"Y": -1, "X": 1}, "interpolation": 2}]}, "crop_height": {"Points": [{"co": {"Y": -1, "X": 1}, "interpolation": 2}]}, "crop_x": {"Points": [{"co": {"Y": 0, "X": 1}, "interpolation": 2}]}, "start": 0, "scale": 1, "shear_y": {"Points": [{"co": {"Y": 0, "X": 1}, "interpolation": 2}]}, "display": 0, "volume": {"Points": [{"co": {"Y": 1, "X": 1}, "interpolation": 2}]}, "channel_mapping": {"Points": [{"co": {"Y": -1, "X": 1}, "interpolation": 2}]}, "anchor": 0, "duration": 31.317333221435547, "perspective_c3_y": {"Points": [{"co": {"Y": -1, "X": 1}, "interpolation": 2}]}, "shear_x": {"Points": [{"co": {"Y": 0, "X": 1}, "interpolation": 2}]}, "perspective_c4_x": {"Points": [{"co": {"Y": -1, "X": 1}, "interpolation": 2}]}, "location_y": {"Points": [{"co": {"Y": 0, "X": 1}, "interpolation": 2}]}, "scale_x": {"Points": [{"co": {"Y": 1, "X": 1}, "interpolation": 2}]}, "layer": 1, "perspective_c2_y": {"Points": [{"co": {"Y": -1, "X": 1}, "interpolation": 2}]}, "perspective_c1_x": {"Points": [{"co": {"Y": -1, "X": 1}, "interpolation": 2}]}, "perspective_c4_y": {"Points": [{"co": {"Y": -1, "X": 1}, "interpolation": 2}]}, "reader": {"audio_bit_rate": 189375, "has_single_image": false, "vcodec": "h264", "has_video": true, "type": "FFmpegReader", "video_length": "937", "audio_timebase": {"den": 48000, "num": 1}, "path": "/home/robsen/Dropbox/Workdir/Repo/SuesseRache-HH-Taxi/TE_SR_Taxi.mp4", "width": 1920, "has_audio": true, "video_bit_rate": 32091692, "channel_layout": 3, "height": 1080, "display_ratio": {"den": 9, "num": 16}, "interlaced_frame": false, "duration": 31.317333221435547, "sample_rate": 48000, "pixel_format": 0, "video_timebase": {"den": 29970, "num": 1}, "file_size": "125628279", "top_field_first": true, "pixel_ratio": {"den": 1, "num": 1}, "acodec": "aac", "audio_stream_index": 1, "video_stream_index": 0, "channels": 2, "fps": {"den": 100, "num": 2997}}, "channel_filter": {"Points": [{"co": {"Y": -1, "X": 1}, "interpolation": 2}]}, "file_id": "Z3LOYBY1PL", "time": {"Points": [{"co": {"Y": 1, "X": 1}, "interpolation": 2}]}}], "value": {"alpha": {"Points": [{"co": {"Y": 1, "X": 1}, "interpolation": 2}, {"handle_right": {"Y": 0, "X": 0.5}, "co": {"Y": 0, "X": 1}, "handle_left": {"Y": 1, "X": 0.5}, "handle_type": 0, "interpolation": 0}, {"handle_right": {"Y": 0, "X": 0.5}, "co": {"Y": 1, "X": 73}, "handle_left": {"Y": 1, "X": 0.5}, "handle_type": 0, "interpolation": 0}]}, "rotation": {"Points": [{"co": {"Y": 0, "X": 1}, "interpolation": 2}]}, "scale_y": {"Points": [{"co": {"Y": 1, "X": 1}, "interpolation": 2}]}, "crop_y": {"Points": [{"co": {"Y": 0, "X": 1}, "interpolation": 2}]}, "perspective_c3_x": {"Points": [{"co": {"Y": -1, "X": 1}, "interpolation": 2}]}, "end": 15, "crop_width": {"Points": [{"co": {"Y": -1, "X": 1}, "interpolation": 2}]}, "position": 53.075, "id": "PJWPMFXKV3", "wave_color": {"green": {"Points": [{"handle_right": {"Y": 0, "X": 0.5}, "co": {"Y": 123, "X": 1}, "handle_left": {"Y": 1, "X": 0.5}, "handle_type": 0, "interpolation": 0}]}, "blue": {"Points": [{"handle_right": {"Y": 0, "X": 0.5}, "co": {"Y": 255, "X": 1}, "handle_left": {"Y": 1, "X": 0.5}, "handle_type": 0, "interpolation": 0}]}, "alpha": {"Points": [{"handle_right": {"Y": 0, "X": 0.5}, "co": {"Y": 255, "X": 1}, "handle_left": {"Y": 1, "X": 0.5}, "handle_type": 0, "interpolation": 0}]}, "red": {"Points": [{"handle_right": {"Y": 0, "X": 0.5}, "co": {"Y": 0, "X": 1}, "handle_left": {"Y": 1, "X": 0.5}, "handle_type": 0, "interpolation": 0}]}}, "has_video": {"Points": [{"co": {"Y": -1, "X": 1}, "interpolation": 2}]}, "has_audio": {"Points": [{"co": {"Y": -1, "X": 1}, "interpolation": 2}]}, "effects": [], "location_x": {"Points": [{"co": {"Y": 0, "X": 1}, "interpolation": 2}]}, "waveform": false, "title": "arrow.mp4", "image": "/home/robsen/.openshot_qt/thumbnail/X22V56NF57.png", "gravity": 4, "scale_x": {"Points": [{"co": {"Y": 1, "X": 1}, "interpolation": 2}]}, "perspective_c1_y": {"Points": [{"co": {"Y": -1, "X": 1}, "interpolation": 2}]}, "crop_height": {"Points": [{"co": {"Y": -1, "X": 1}, "interpolation": 2}]}, "crop_x": {"Points": [{"co": {"Y": 0, "X": 1}, "interpolation": 2}]}, "start": 0, "scale": 1, "shear_y": {"Points": [{"co": {"Y": 0, "X": 1}, "interpolation": 2}]}, "display": 0, "volume": {"Points": [{"co": {"Y": 1, "X": 1}, "interpolation": 2}]}, "channel_mapping": {"Points": [{"co": {"Y": -1, "X": 1}, "interpolation": 2}]}, "anchor": 0, "duration": 15.0, "perspective_c3_y": {"Points": [{"co": {"Y": -1, "X": 1}, "interpolation": 2}]}, "shear_x": {"Points": [{"co": {"Y": 0, "X": 1}, "interpolation": 2}]}, "perspective_c4_x": {"Points": [{"co": {"Y": -1, "X": 1}, "interpolation": 2}]}, "location_y": {"Points": [{"co": {"Y": 0, "X": 1}, "interpolation": 2}]}, "perspective_c2_x": {"Points": [{"co": {"Y": -1, "X": 1}, "interpolation": 2}]}, "layer": 2, "perspective_c2_y": {"Points": [{"co": {"Y": -1, "X": 1}, "interpolation": 2}]}, "perspective_c1_x": {"Points": [{"co": {"Y": -1, "X": 1}, "interpolation": 2}]}, "perspective_c4_y": {"Points": [{"co": {"Y": -1, "X": 1}, "interpolation": 2}]}, "reader": {"audio_bit_rate": 0, "has_single_image": false, "has_video": true, "type": "FFmpegReader", "video_length": "375", "audio_timebase": {"den": 1, "num": 1}, "path": "/home/robsen/Dropbox/Workdir/Repo/SuesseRache-HH-Taxi/arrow.mp4", "width": 1920, "has_audio": false, "video_bit_rate": 83079, "channel_layout": 4, "height": 1080, "display_ratio": {"den": 9, "num": 16}, "interlaced_frame": false, "video_timebase": {"den": 12800, "num": 1}, "duration": 15.0, "sample_rate": 0, "pixel_format": 0, "fps": {"den": 1, "num": 25}, "file_size": "155774", "top_field_first": true, "pixel_ratio": {"den": 1, "num": 1}, "acodec": "", "audio_stream_index": -1, "video_stream_index": 0, "channels": 0, "vcodec": "h264"}, "channel_filter": {"Points": [{"co": {"Y": -1, "X": 1}, "interpolation": 2}]}, "file_id": "X22V56NF57", "time": {"Points": [{"co": {"Y": 1, "X": 1}, "interpolation": 2}]}}, "key": ["clips"], "partial": false, "type": "insert"}, {"old_values": {"alpha": {"Points": [{"co": {"Y": 1, "X": 1}, "interpolation": 2}]}, "rotation": {"Points": [{"co": {"Y": 0, "X": 1}, "interpolation": 2}]}, "scale_y": {"Points": [{"co": {"Y": 1, "X": 1}, "interpolation": 2}]}, "crop_y": {"Points": [{"co": {"Y": 0, "X": 1}, "interpolation": 2}]}, "perspective_c3_x": {"Points": [{"co": {"Y": -1, "X": 1}, "interpolation": 2}]}, "end": 15.0, "crop_width": {"Points": [{"co": {"Y": -1, "X": 1}, "interpolation": 2}]}, "position": 62.88, "id": "PJWPMFXKV3", "wave_color": {"green": {"Points": [{"handle_right": {"Y": 0, "X": 0.5}, "co": {"Y": 123, "X": 1}, "handle_left": {"Y": 1, "X": 0.5}, "handle_type": 0, "interpolation": 0}]}, "blue": {"Points": [{"handle_right": {"Y": 0, "X": 0.5}, "co": {"Y": 255, "X": 1}, "handle_left": {"Y": 1, "X": 0.5}, "handle_type": 0, "interpolation": 0}]}, "alpha": {"Points": [{"handle_right": {"Y": 0, "X": 0.5}, "co": {"Y": 255, "X": 1}, "handle_left": {"Y": 1, "X": 0.5}, "handle_type": 0, "interpolation": 0}]}, "red": {"Points": [{"handle_right": {"Y": 0, "X": 0.5}, "co": {"Y": 0, "X": 1}, "handle_left": {"Y": 1, "X": 0.5}, "handle_type": 0, "interpolation": 0}]}}, "has_video": {"Points": [{"co": {"Y": -1, "X": 1}, "interpolation": 2}]}, "has_audio": {"Points": [{"co": {"Y": -1, "X": 1}, "interpolation": 2}]}, "effects": [], "location_x": {"Points": [{"co": {"Y": 0, "X": 1}, "interpolation": 2}]}, "waveform": false, "title": "arrow.mp4", "image": "/home/robsen/.openshot_qt/thumbnail/X22V56NF57.png", "gravity": 4, "scale_x": {"Points": [{"co": {"Y": 1, "X": 1}, "interpolation": 2}]}, "perspective_c1_y": {"Points": [{"co": {"Y": -1, "X": 1}, "interpolation": 2}]}, "crop_height": {"Points": [{"co": {"Y": -1, "X": 1}, "interpolation": 2}]}, "crop_x": {"Points": [{"co": {"Y": 0, "X": 1}, "interpolation": 2}]}, "start": 0, "scale": 1, "shear_y": {"Points": [{"co": {"Y": 0, "X": 1}, "interpolation": 2}]}, "display": 0, "volume": {"Points": [{"co": {"Y": 1, "X": 1}, "interpolation": 2}]}, "channel_mapping": {"Points": [{"co": {"Y": -1, "X": 1}, "interpolation": 2}]}, "anchor": 0, "duration": 15.0, "perspective_c3_y": {"Points": [{"co": {"Y": -1, "X": 1}, "interpolation": 2}]}, "shear_x": {"Points": [{"co": {"Y": 0, "X": 1}, "interpolation": 2}]}, "perspective_c4_x": {"Points": [{"co": {"Y": -1, "X": 1}, "interpolation": 2}]}, "location_y": {"Points": [{"co": {"Y": 0, "X": 1}, "interpolation": 2}]}, "perspective_c2_x": {"Points": [{"co": {"Y": -1, "X": 1}, "interpolation": 2}]}, "layer": 2, "perspective_c2_y": {"Points": [{"co": {"Y": -1, "X": 1}, "interpolation": 2}]}, "perspective_c1_x": {"Points": [{"co": {"Y": -1, "X": 1}, "interpolation": 2}]}, "perspective_c4_y": {"Points": [{"co": {"Y": -1, "X": 1}, "interpolation": 2}]}, "reader": {"audio_bit_rate": 0, "has_single_image": false, "vcodec": "h264", "has_video": true, "type": "FFmpegReader", "video_length": "375", "audio_timebase": {"den": 1, "num": 1}, "path": "/home/robsen/Dropbox/Workdir/Repo/SuesseRache-HH-Taxi/arrow.mp4", "width": 1920, "has_audio": false, "video_bit_rate": 83079, "channel_layout": 4, "height": 1080, "display_ratio": {"den": 9, "num": 16}, "interlaced_frame": false, "duration": 15.0, "sample_rate": 0, "pixel_format": 0, "video_timebase": {"den": 12800, "num": 1}, "file_size": "155774", "top_field_first": true, "pixel_ratio": {"den": 1, "num": 1}, "acodec": "", "audio_stream_index": -1, "video_stream_index": 0, "channels": 0, "fps": {"den": 1, "num": 25}}, "channel_filter": {"Points": [{"co": {"Y": -1, "X": 1}, "interpolation": 2}]}, "file_id": "X22V56NF57", "time": {"Points": [{"co": {"Y": 1, "X": 1}, "interpolation": 2}]}}, "value": {"id": "PJWPMFXKV3", "start": 0, "end": 15, "position": 63.04, "layer": 1, "image": "/home/robsen/.openshot_qt/thumbnail/X22V56NF57.png"}, "key": ["clips", {"id": "PJWPMFXKV3"}], "partial": false, "type": "update"}, {"old_values": {"alpha": {"Points": [{"co": {"Y": 1, "X": 1}, "interpolation": 2}]}, "rotation": {"Points": [{"co": {"Y": 0, "X": 1}, "interpolation": 2}]}, "scale_y": {"Points": [{"co": {"Y": 1, "X": 1}, "interpolation": 2}]}, "crop_y": {"Points": [{"co": {"Y": 0, "X": 1}, "interpolation": 2}]}, "perspective_c3_x": {"Points": [{"co": {"Y": -1, "X": 1}, "interpolation": 2}]}, "end": 15, "crop_width": {"Points": [{"co": {"Y": -1, "X": 1}, "interpolation": 2}]}, "position": 63.04, "id": "PJWPMFXKV3", "wave_color": {"green": {"Points": [{"handle_right": {"Y": 0, "X": 0.5}, "co": {"Y": 123, "X": 1}, "handle_left": {"Y": 1, "X": 0.5}, "handle_type": 0, "interpolation": 0}]}, "blue": {"Points": [{"handle_right": {"Y": 0, "X": 0.5}, "co": {"Y": 255, "X": 1}, "handle_left": {"Y": 1, "X": 0.5}, "handle_type": 0, "interpolation": 0}]}, "alpha": {"Points": [{"handle_right": {"Y": 0, "X": 0.5}, "co": {"Y": 255, "X": 1}, "handle_left": {"Y": 1, "X": 0.5}, "handle_type": 0, "interpolation": 0}]}, "red": {"Points": [{"handle_right": {"Y": 0, "X": 0.5}, "co": {"Y": 0, "X": 1}, "handle_left": {"Y": 1, "X": 0.5}, "handle_type": 0, "interpolation": 0}]}}, "has_video": {"Points": [{"co": {"Y": -1, "X": 1}, "interpolation": 2}]}, "has_audio": {"Points": [{"co": {"Y": -1, "X": 1}, "interpolation": 2}]}, "effects": [], "location_x": {"Points": [{"co": {"Y": 0, "X": 1}, "interpolation": 2}]}, "waveform": false, "title": "arrow.mp4", "image": "/home/robsen/.openshot_qt/thumbnail/X22V56NF57.png", "gravity": 4, "perspective_c2_x": {"Points": [{"co": {"Y": -1, "X": 1}, "interpolation": 2}]}, "perspective_c1_y": {"Points": [{"co": {"Y": -1, "X": 1}, "interpolation": 2}]}, "crop_height": {"Points": [{"co": {"Y": -1, "X": 1}, "interpolation": 2}]}, "crop_x": {"Points": [{"co": {"Y": 0, "X": 1}, "interpolation": 2}]}, "start": 0, "scale": 1, "shear_y": {"Points": [{"co": {"Y": 0, "X": 1}, "interpolation": 2}]}, "display": 0, "volume": {"Points": [{"co": {"Y": 1, "X": 1}, "interpolation": 2}]}, "channel_mapping": {"Points": [{"co": {"Y": -1, "X": 1}, "interpolation": 2}]}, "anchor": 0, "duration": 15.0, "perspective_c3_y": {"Points": [{"co": {"Y": -1, "X": 1}, "interpolation": 2}]}, "shear_x": {"Points": [{"co": {"Y": 0, "X": 1}, "interpolation": 2}]}, "perspective_c4_x": {"Points": [{"co": {"Y": -1, "X": 1}, "interpolation": 2}]}, "location_y": {"Points": [{"co": {"Y": 0, "X": 1}, "interpolation": 2}]}, "scale_x": {"Points": [{"co": {"Y": 1, "X": 1}, "interpolation": 2}]}, "layer": 1, "perspective_c2_y": {"Points": [{"co": {"Y": -1, "X": 1}, "interpolation": 2}]}, "perspective_c1_x": {"Points": [{"co": {"Y": -1, "X": 1}, "interpolation": 2}]}, "perspective_c4_y": {"Points": [{"co": {"Y": -1, "X": 1}, "interpolation": 2}]}, "reader": {"audio_bit_rate": 0, "has_single_image": false, "vcodec": "h264", "has_video": true, "type": "FFmpegReader", "video_length": "375", "audio_timebase": {"den": 1, "num": 1}, "path": "/home/robsen/Dropbox/Workdir/Repo/SuesseRache-HH-Taxi/arrow.mp4", "width": 1920, "has_audio": false, "video_bit_rate": 83079, "channel_layout": 4, "height": 1080, "display_ratio": {"den": 9, "num": 16}, "interlaced_frame": false, "duration": 15.0, "sample_rate": 0, "pixel_format": 0, "video_timebase": {"den": 12800, "num": 1}, "file_size": "155774", "top_field_first": true, "pixel_ratio": {"den": 1, "num": 1}, "acodec": "", "audio_stream_index": -1, "video_stream_index": 0, "channels": 0, "fps": {"den": 1, "num": 25}}, "channel_filter": {"Points": [{"co": {"Y": -1, "X": 1}, "interpolation": 2}]}, "file_id": "X22V56NF57", "time": {"Points": [{"co": {"Y": 1, "X": 1}, "interpolation": 2}]}}, "value": {"id": "PJWPMFXKV3", "start": 0, "end": 15, "position": 53.075, "layer": 2, "image": "/home/robsen/.openshot_qt/thumbnail/X22V56NF57.png"}, "key": ["clips", {"id": "PJWPMFXKV3"}], "partial": false, "type": "update"}, {"old_values": {"start": 0, "type": "Mask", "contrast": {"Points": [{"co": {"Y": 3, "X": 1}, "interpolation": 2}]}, "layer": 0, "replace_image": false, "title": "Transition", "end": 2.039999999999999, "reader": {"audio_bit_rate": 0, "has_single_image": true, "vcodec": "", "has_video": true, "type": "QtImageReader", "video_length": "2592000", "audio_timebase": {"den": 1, "num": 1}, "path": "/usr/lib/python3/dist-packages/openshot_qt/transitions/common/fade.svg", "width": 720, "has_audio": false, "video_bit_rate": 0, "channel_layout": 4, "height": 576, "display_ratio": {"den": 4, "num": 5}, "interlaced_frame": false, "duration": 86400, "sample_rate": 0, "pixel_format": -1, "video_timebase": {"den": 30, "num": 1}, "file_size": "1658880", "top_field_first": true, "pixel_ratio": {"den": 1, "num": 1}, "acodec": "", "audio_stream_index": -1, "video_stream_index": -1, "channels": 0, "fps": {"den": 1, "num": 30}}, "brightness": {"Points": [{"handle_right": {"Y": 0, "X": 0.5}, "co": {"Y": 1, "X": 1}, "handle_left": {"Y": 1, "X": 0.5}, "handle_type": 0, "interpolation": 0}, {"handle_right": {"Y": 0, "X": 0.5}, "co": {"Y": -1, "X": 50}, "handle_left": {"Y": 1, "X": 0.5}, "handle_type": 0, "interpolation": 0}]}, "id": "5NBS5H99MA", "position": 21.76}, "value": null, "key": ["effects", {"id": "5NBS5H99MA"}], "partial": false, "type": "delete"}, {"old_values": {"alpha": {"Points": [{"co": {"Y": 1, "X": 1}, "interpolation": 2}]}, "rotation": {"Points": [{"co": {"Y": 0, "X": 1}, "interpolation": 2}]}, "scale_y": {"Points": [{"co": {"Y": 1, "X": 1}, "interpolation": 2}]}, "crop_y": {"Points": [{"co": {"Y": 0, "X": 1}, "interpolation": 2}]}, "perspective_c3_x": {"Points": [{"co": {"Y": -1, "X": 1}, "interpolation": 2}]}, "end": 15, "crop_width": {"Points": [{"co": {"Y": -1, "X": 1}, "interpolation": 2}]}, "position": 8.8, "id": "0AEDFYGQ7J", "wave_color": {"green": {"Points": [{"handle_right": {"Y": 0, "X": 0.5}, "co": {"Y": 123, "X": 1}, "handle_left": {"Y": 1, "X": 0.5}, "handle_type": 0, "interpolation": 0}]}, "blue": {"Points": [{"handle_right": {"Y": 0, "X": 0.5}, "co": {"Y": 255, "X": 1}, "handle_left": {"Y": 1, "X": 0.5}, "handle_type": 0, "interpolation": 0}]}, "alpha": {"Points": [{"handle_right": {"Y": 0, "X": 0.5}, "co": {"Y": 255, "X": 1}, "handle_left": {"Y": 1, "X": 0.5}, "handle_type": 0, "interpolation": 0}]}, "red": {"Points": [{"handle_right": {"Y": 0, "X": 0.5}, "co": {"Y": 0, "X": 1}, "handle_left": {"Y": 1, "X": 0.5}, "handle_type": 0, "interpolation": 0}]}}, "has_video": {"Points": [{"co": {"Y": -1, "X": 1}, "interpolation": 2}]}, "has_audio": {"Points": [{"co": {"Y": -1, "X": 1}, "interpolation": 2}]}, "effects": [], "location_x": {"Points": [{"co": {"Y": 0, "X": 1}, "interpolation": 2}]}, "waveform": false, "title": "taxi_start.mp4", "image": "/home/robsen/.openshot_qt/thumbnail/LGW3TZJV4Q.png", "gravity": 4, "perspective_c2_x": {"Points": [{"co": {"Y": -1, "X": 1}, "interpolation": 2}]}, "perspective_c1_y": {"Points": [{"co": {"Y": -1, "X": 1}, "interpolation": 2}]}, "crop_height": {"Points": [{"co": {"Y": -1, "X": 1}, "interpolation": 2}]}, "crop_x": {"Points": [{"co": {"Y": 0, "X": 1}, "interpolation": 2}]}, "start": 0, "scale": 1, "shear_y": {"Points": [{"co": {"Y": 0, "X": 1}, "interpolation": 2}]}, "display": 0, "volume": {"Points": [{"co": {"Y": 1, "X": 1}, "interpolation": 2}]}, "channel_mapping": {"Points": [{"co": {"Y": -1, "X": 1}, "interpolation": 2}]}, "anchor": 0, "duration": 15.0, "perspective_c3_y": {"Points": [{"co": {"Y": -1, "X": 1}, "interpolation": 2}]}, "shear_x": {"Points": [{"co": {"Y": 0, "X": 1}, "interpolation": 2}]}, "perspective_c4_x": {"Points": [{"co": {"Y": -1, "X": 1}, "interpolation": 2}]}, "location_y": {"Points": [{"co": {"Y": 0, "X": 1}, "interpolation": 2}]}, "scale_x": {"Points": [{"co": {"Y": 1, "X": 1}, "interpolation": 2}]}, "layer": 0, "perspective_c2_y": {"Points": [{"co": {"Y": -1, "X": 1}, "interpolation": 2}]}, "perspective_c1_x": {"Points": [{"co": {"Y": -1, "X": 1}, "interpolation": 2}]}, "perspective_c4_y": {"Points": [{"co": {"Y": -1, "X": 1}, "interpolation": 2}]}, "reader": {"audio_bit_rate": 0, "has_single_image": false, "vcodec": "h264", "has_video": true, "type": "FFmpegReader", "video_length": "375", "audio_timebase": {"den": 1, "num": 1}, "path": "/home/robsen/Dropbox/Workdir/Repo/SuesseRache-HH-Taxi/taxi_start.mp4", "width": 1920, "has_audio": false, "video_bit_rate": 147692, "channel_layout": 4, "height": 1080, "display_ratio": {"den": 9, "num": 16}, "interlaced_frame": false, "duration": 15.0, "sample_rate": 0, "pixel_format": 0, "video_timebase": {"den": 12800, "num": 1}, "file_size": "276924", "top_field_first": true, "pixel_ratio": {"den": 1, "num": 1}, "acodec": "", "audio_stream_index": -1, "video_stream_index": 0, "channels": 0, "fps": {"den": 1, "num": 25}}, "channel_filter": {"Points": [{"co": {"Y": -1, "X": 1}, "interpolation": 2}]}, "file_id": "LGW3TZJV4Q", "time": {"Points": [{"co": {"Y": 1, "X": 1}, "interpolation": 2}]}}, "value": {"alpha": {"Points": [{"co": {"Y": 1, "X": 1}, "interpolation": 2}, {"handle_right": {"Y": 0, "X": 0.5}, "co": {"Y": 1, "X": 289}, "handle_left": {"Y": 1, "X": 0.5}, "handle_type": 0, "interpolation": 0}, {"handle_right": {"Y": 0, "X": 0.5}, "co": {"Y": 0, "X": 361}, "handle_left": {"Y": 1, "X": 0.5}, "handle_type": 0, "interpolation": 0}]}, "rotation": {"Points": [{"co": {"Y": 0, "X": 1}, "interpolation": 2}]}, "scale_y": {"Points": [{"co": {"Y": 1, "X": 1}, "interpolation": 2}]}, "crop_y": {"Points": [{"co": {"Y": 0, "X": 1}, "interpolation": 2}]}, "crop_width": {"Points": [{"co": {"Y": -1, "X": 1}, "interpolation": 2}]}, "end": 15, "perspective_c3_x": {"Points": [{"co": {"Y": -1, "X": 1}, "interpolation": 2}]}, "position": 8.8, "id": "0AEDFYGQ7J", "wave_color": {"green": {"Points": [{"handle_right": {"Y": 0, "X": 0.5}, "co": {"Y": 123, "X": 1}, "handle_left": {"Y": 1, "X": 0.5}, "handle_type": 0, "interpolation": 0}]}, "blue": {"Points": [{"handle_right": {"Y": 0, "X": 0.5}, "co": {"Y": 255, "X": 1}, "handle_left": {"Y": 1, "X": 0.5}, "handle_type": 0, "interpolation": 0}]}, "alpha": {"Points": [{"handle_right": {"Y": 0, "X": 0.5}, "co": {"Y": 255, "X": 1}, "handle_left": {"Y": 1, "X": 0.5}, "handle_type": 0, "interpolation": 0}]}, "red": {"Points": [{"handle_right": {"Y": 0, "X": 0.5}, "co": {"Y": 0, "X": 1}, "handle_left": {"Y": 1, "X": 0.5}, "handle_type": 0, "interpolation": 0}]}}, "has_video": {"Points": [{"co": {"Y": -1, "X": 1}, "interpolation": 2}]}, "has_audio": {"Points": [{"co": {"Y": -1, "X": 1}, "interpolation": 2}]}, "effects": [], "location_x": {"Points": [{"co": {"Y": 0, "X": 1}, "interpolation": 2}]}, "waveform": false, "title": "taxi_start.mp4", "image": "/home/robsen/.openshot_qt/thumbnail/LGW3TZJV4Q.png", "gravity": 4, "scale_x": {"Points": [{"co": {"Y": 1, "X": 1}, "interpolation": 2}]}, "perspective_c1_y": {"Points": [{"co": {"Y": -1, "X": 1}, "interpolation": 2}]}, "crop_height": {"Points": [{"co": {"Y": -1, "X": 1}, "interpolation": 2}]}, "crop_x": {"Points": [{"co": {"Y": 0, "X": 1}, "interpolation": 2}]}, "start": 0, "scale": 1, "shear_y": {"Points": [{"co": {"Y": 0, "X": 1}, "interpolation": 2}]}, "display": 0, "volume": {"Points": [{"co": {"Y": 1, "X": 1}, "interpolation": 2}]}, "channel_mapping": {"Points": [{"co": {"Y": -1, "X": 1}, "interpolation": 2}]}, "anchor": 0, "duration": 15.0, "perspective_c3_y": {"Points": [{"co": {"Y": -1, "X": 1}, "interpolation": 2}]}, "shear_x": {"Points": [{"co": {"Y": 0, "X": 1}, "interpolation": 2}]}, "perspective_c4_x": {"Points": [{"co": {"Y": -1, "X": 1}, "interpolation": 2}]}, "location_y": {"Points": [{"co": {"Y": 0, "X": 1}, "interpolation": 2}]}, "perspective_c2_x": {"Points": [{"co": {"Y": -1, "X": 1}, "interpolation": 2}]}, "layer": 0, "perspective_c2_y": {"Points": [{"co": {"Y": -1, "X": 1}, "interpolation": 2}]}, "perspective_c1_x": {"Points": [{"co": {"Y": -1, "X": 1}, "interpolation": 2}]}, "perspective_c4_y": {"Points": [{"co": {"Y": -1, "X": 1}, "interpolation": 2}]}, "channel_filter": {"Points": [{"co": {"Y": -1, "X": 1}, "interpolation": 2}]}, "time": {"Points": [{"co": {"Y": 1, "X": 1}, "interpolation": 2}]}, "file_id": "LGW3TZJV4Q"}, "key": ["clips", {"id": "0AEDFYGQ7J"}], "partial": false, "type": "update"}, {"old_values": {"alpha": {"Points": [{"co": {"Y": 1, "X": 1}, "interpolation": 2}, {"handle_right": {"Y": 0, "X": 0.5}, "co": {"Y": 1, "X": 289}, "handle_left": {"Y": 1, "X": 0.5}, "handle_type": 0, "interpolation": 0}, {"handle_right": {"Y": 0, "X": 0.5}, "co": {"Y": 0, "X": 361}, "handle_left": {"Y": 1, "X": 0.5}, "handle_type": 0, "interpolation": 0}]}, "rotation": {"Points": [{"co": {"Y": 0, "X": 1}, "interpolation": 2}]}, "scale_y": {"Points": [{"co": {"Y": 1, "X": 1}, "interpolation": 2}]}, "crop_y": {"Points": [{"co": {"Y": 0, "X": 1}, "interpolation": 2}]}, "perspective_c3_x": {"Points": [{"co": {"Y": -1, "X": 1}, "interpolation": 2}]}, "end": 15, "crop_width": {"Points": [{"co": {"Y": -1, "X": 1}, "interpolation": 2}]}, "position": 8.8, "id": "0AEDFYGQ7J", "wave_color": {"green": {"Points": [{"handle_right": {"Y": 0, "X": 0.5}, "co": {"Y": 123, "X": 1}, "handle_left": {"Y": 1, "X": 0.5}, "handle_type": 0, "interpolation": 0}]}, "blue": {"Points": [{"handle_right": {"Y": 0, "X": 0.5}, "co": {"Y": 255, "X": 1}, "handle_left": {"Y": 1, "X": 0.5}, "handle_type": 0, "interpolation": 0}]}, "alpha": {"Points": [{"handle_right": {"Y": 0, "X": 0.5}, "co": {"Y": 255, "X": 1}, "handle_left": {"Y": 1, "X": 0.5}, "handle_type": 0, "interpolation": 0}]}, "red": {"Points": [{"handle_right": {"Y": 0, "X": 0.5}, "co": {"Y": 0, "X": 1}, "handle_left": {"Y": 1, "X": 0.5}, "handle_type": 0, "interpolation": 0}]}}, "has_video": {"Points": [{"co": {"Y": -1, "X": 1}, "interpolation": 2}]}, "has_audio": {"Points": [{"co": {"Y": -1, "X": 1}, "interpolation": 2}]}, "effects": [], "location_x": {"Points": [{"co": {"Y": 0, "X": 1}, "interpolation": 2}]}, "waveform": false, "title": "taxi_start.mp4", "image": "/home/robsen/.openshot_qt/thumbnail/LGW3TZJV4Q.png", "gravity": 4, "perspective_c2_x": {"Points": [{"co": {"Y": -1, "X": 1}, "interpolation": 2}]}, "perspective_c1_y": {"Points": [{"co": {"Y": -1, "X": 1}, "interpolation": 2}]}, "crop_height": {"Points": [{"co": {"Y": -1, "X": 1}, "interpolation": 2}]}, "crop_x": {"Points": [{"co": {"Y": 0, "X": 1}, "interpolation": 2}]}, "start": 0, "scale": 1, "shear_y": {"Points": [{"co": {"Y": 0, "X": 1}, "interpolation": 2}]}, "display": 0, "volume": {"Points": [{"co": {"Y": 1, "X": 1}, "interpolation": 2}]}, "channel_mapping": {"Points": [{"co": {"Y": -1, "X": 1}, "interpolation": 2}]}, "anchor": 0, "duration": 15.0, "perspective_c3_y": {"Points": [{"co": {"Y": -1, "X": 1}, "interpolation": 2}]}, "shear_x": {"Points": [{"co": {"Y": 0, "X": 1}, "interpolation": 2}]}, "perspective_c4_x": {"Points": [{"co": {"Y": -1, "X": 1}, "interpolation": 2}]}, "location_y": {"Points": [{"co": {"Y": 0, "X": 1}, "interpolation": 2}]}, "scale_x": {"Points": [{"co": {"Y": 1, "X": 1}, "interpolation": 2}]}, "layer": 0, "perspective_c2_y": {"Points": [{"co": {"Y": -1, "X": 1}, "interpolation": 2}]}, "perspective_c1_x": {"Points": [{"co": {"Y": -1, "X": 1}, "interpolation": 2}]}, "perspective_c4_y": {"Points": [{"co": {"Y": -1, "X": 1}, "interpolation": 2}]}, "reader": {"audio_bit_rate": 0, "has_single_image": false, "vcodec": "h264", "has_video": true, "type": "FFmpegReader", "video_length": "375", "audio_timebase": {"den": 1, "num": 1}, "path": "/home/robsen/Dropbox/Workdir/Repo/SuesseRache-HH-Taxi/taxi_start.mp4", "width": 1920, "has_audio": false, "video_bit_rate": 147692, "channel_layout": 4, "height": 1080, "display_ratio": {"den": 9, "num": 16}, "interlaced_frame": false, "duration": 15.0, "sample_rate": 0, "pixel_format": 0, "video_timebase": {"den": 12800, "num": 1}, "file_size": "276924", "top_field_first": true, "pixel_ratio": {"den": 1, "num": 1}, "acodec": "", "audio_stream_index": -1, "video_stream_index": 0, "channels": 0, "fps": {"den": 1, "num": 25}}, "channel_filter": {"Points": [{"co": {"Y": -1, "X": 1}, "interpolation": 2}]}, "file_id": "LGW3TZJV4Q", "time": {"Points": [{"co": {"Y": 1, "X": 1}, "interpolation": 2}]}}, "value": {"alpha": {"Points": [{"co": {"Y": 1, "X": 1}, "interpolation": 2}, {"handle_right": {"Y": 0, "X": 0.5}, "co": {"Y": 1, "X": 289}, "handle_left": {"Y": 1, "X": 0.5}, "handle_type": 0, "interpolation": 0}, {"handle_right": {"Y": 0, "X": 0.5}, "co": {"Y": 0, "X": 361}, "handle_left": {"Y": 1, "X": 0.5}, "handle_type": 0, "interpolation": 0}, {"handle_right": {"Y": 0, "X": 0.5}, "co": {"Y": 0, "X": 1}, "handle_left": {"Y": 1, "X": 0.5}, "handle_type": 0, "interpolation": 0}, {"handle_right": {"Y": 0, "X": 0.5}, "co": {"Y": 1, "X": 73}, "handle_left": {"Y": 1, "X": 0.5}, "handle_type": 0, "interpolation": 0}]}, "rotation": {"Points": [{"co": {"Y": 0, "X": 1}, "interpolation": 2}]}, "scale_y": {"Points": [{"co": {"Y": 1, "X": 1}, "interpolation": 2}]}, "crop_y": {"Points": [{"co": {"Y": 0, "X": 1}, "interpolation": 2}]}, "crop_width": {"Points": [{"co": {"Y": -1, "X": 1}, "interpolation": 2}]}, "end": 15, "perspective_c3_x": {"Points": [{"co": {"Y": -1, "X": 1}, "interpolation": 2}]}, "position": 8.8, "id": "0AEDFYGQ7J", "wave_color": {"green": {"Points": [{"handle_right": {"Y": 0, "X": 0.5}, "co": {"Y": 123, "X": 1}, "handle_left": {"Y": 1, "X": 0.5}, "handle_type": 0, "interpolation": 0}]}, "blue": {"Points": [{"handle_right": {"Y": 0, "X": 0.5}, "co": {"Y": 255, "X": 1}, "handle_left": {"Y": 1, "X": 0.5}, "handle_type": 0, "interpolation": 0}]}, "alpha": {"Points": [{"handle_right": {"Y": 0, "X": 0.5}, "co": {"Y": 255, "X": 1}, "handle_left": {"Y": 1, "X": 0.5}, "handle_type": 0, "interpolation": 0}]}, "red": {"Points": [{"handle_right": {"Y": 0, "X": 0.5}, "co": {"Y": 0, "X": 1}, "handle_left": {"Y": 1, "X": 0.5}, "handle_type": 0, "interpolation": 0}]}}, "has_video": {"Points": [{"co": {"Y": -1, "X": 1}, "interpolation": 2}]}, "has_audio": {"Points": [{"co": {"Y": -1, "X": 1}, "interpolation": 2}]}, "effects": [], "location_x": {"Points": [{"co": {"Y": 0, "X": 1}, "interpolation": 2}]}, "waveform": false, "title": "taxi_start.mp4", "image": "/home/robsen/.openshot_qt/thumbnail/LGW3TZJV4Q.png", "gravity": 4, "scale_x": {"Points": [{"co": {"Y": 1, "X": 1}, "interpolation": 2}]}, "perspective_c1_y": {"Points": [{"co": {"Y": -1, "X": 1}, "interpolation": 2}]}, "crop_height": {"Points": [{"co": {"Y": -1, "X": 1}, "interpolation": 2}]}, "crop_x": {"Points": [{"co": {"Y": 0, "X": 1}, "interpolation": 2}]}, "start": 0, "scale": 1, "shear_y": {"Points": [{"co": {"Y": 0, "X": 1}, "interpolation": 2}]}, "display": 0, "volume": {"Points": [{"co": {"Y": 1, "X": 1}, "interpolation": 2}]}, "channel_mapping": {"Points": [{"co": {"Y": -1, "X": 1}, "interpolation": 2}]}, "anchor": 0, "duration": 15.0, "perspective_c3_y": {"Points": [{"co": {"Y": -1, "X": 1}, "interpolation": 2}]}, "shear_x": {"Points": [{"co": {"Y": 0, "X": 1}, "interpolation": 2}]}, "perspective_c4_x": {"Points": [{"co": {"Y": -1, "X": 1}, "interpolation": 2}]}, "location_y": {"Points": [{"co": {"Y": 0, "X": 1}, "interpolation": 2}]}, "perspective_c2_x": {"Points": [{"co": {"Y": -1, "X": 1}, "interpolation": 2}]}, "layer": 0, "perspective_c2_y": {"Points": [{"co": {"Y": -1, "X": 1}, "interpolation": 2}]}, "perspective_c1_x": {"Points": [{"co": {"Y": -1, "X": 1}, "interpolation": 2}]}, "perspective_c4_y": {"Points": [{"co": {"Y": -1, "X": 1}, "interpolation": 2}]}, "channel_filter": {"Points": [{"co": {"Y": -1, "X": 1}, "interpolation": 2}]}, "time": {"Points": [{"co": {"Y": 1, "X": 1}, "interpolation": 2}]}, "file_id": "LGW3TZJV4Q"}, "key": ["clips", {"id": "0AEDFYGQ7J"}], "partial": false, "type": "update"}, {"old_values": {"alpha": {"Points": [{"co": {"Y": 1, "X": 1}, "interpolation": 2}]}, "rotation": {"Points": [{"co": {"Y": 0, "X": 1}, "interpolation": 2}]}, "scale_y": {"Points": [{"co": {"Y": 1, "X": 1}, "interpolation": 2}]}, "crop_y": {"Points": [{"co": {"Y": 0, "X": 1}, "interpolation": 2}]}, "perspective_c3_x": {"Points": [{"co": {"Y": -1, "X": 1}, "interpolation": 2}]}, "end": 15, "crop_width": {"Points": [{"co": {"Y": -1, "X": 1}, "interpolation": 2}]}, "position": 53.075, "id": "PJWPMFXKV3", "wave_color": {"green": {"Points": [{"handle_right": {"Y": 0, "X": 0.5}, "co": {"Y": 123, "X": 1}, "handle_left": {"Y": 1, "X": 0.5}, "handle_type": 0, "interpolation": 0}]}, "blue": {"Points": [{"handle_right": {"Y": 0, "X": 0.5}, "co": {"Y": 255, "X": 1}, "handle_left": {"Y": 1, "X": 0.5}, "handle_type": 0, "interpolation": 0}]}, "alpha": {"Points": [{"handle_right": {"Y": 0, "X": 0.5}, "co": {"Y": 255, "X": 1}, "handle_left": {"Y": 1, "X": 0.5}, "handle_type": 0, "interpolation": 0}]}, "red": {"Points": [{"handle_right": {"Y": 0, "X": 0.5}, "co": {"Y": 0, "X": 1}, "handle_left": {"Y": 1, "X": 0.5}, "handle_type": 0, "interpolation": 0}]}}, "has_video": {"Points": [{"co": {"Y": -1, "X": 1}, "interpolation": 2}]}, "has_audio": {"Points": [{"co": {"Y": -1, "X": 1}, "interpolation": 2}]}, "effects": [], "location_x": {"Points": [{"co": {"Y": 0, "X": 1}, "interpolation": 2}]}, "waveform": false, "title": "arrow.mp4", "image": "/home/robsen/.openshot_qt/thumbnail/X22V56NF57.png", "gravity": 4, "perspective_c2_x": {"Points": [{"co": {"Y": -1, "X": 1}, "interpolation": 2}]}, "perspective_c1_y": {"Points": [{"co": {"Y": -1, "X": 1}, "interpolation": 2}]}, "crop_height": {"Points": [{"co": {"Y": -1, "X": 1}, "interpolation": 2}]}, "crop_x": {"Points": [{"co": {"Y": 0, "X": 1}, "interpolation": 2}]}, "start": 0, "scale": 1, "shear_y": {"Points": [{"co": {"Y": 0, "X": 1}, "interpolation": 2}]}, "display": 0, "volume": {"Points": [{"co": {"Y": 1, "X": 1}, "interpolation": 2}]}, "channel_mapping": {"Points": [{"co": {"Y": -1, "X": 1}, "interpolation": 2}]}, "anchor": 0, "duration": 15.0, "perspective_c3_y": {"Points": [{"co": {"Y": -1, "X": 1}, "interpolation": 2}]}, "shear_x": {"Points": [{"co": {"Y": 0, "X": 1}, "interpolation": 2}]}, "perspective_c4_x": {"Points": [{"co": {"Y": -1, "X": 1}, "interpolation": 2}]}, "location_y": {"Points": [{"co": {"Y": 0, "X": 1}, "interpolation": 2}]}, "scale_x": {"Points": [{"co": {"Y": 1, "X": 1}, "interpolation": 2}]}, "layer": 2, "perspective_c2_y": {"Points": [{"co": {"Y": -1, "X": 1}, "interpolation": 2}]}, "perspective_c1_x": {"Points": [{"co": {"Y": -1, "X": 1}, "interpolation": 2}]}, "perspective_c4_y": {"Points": [{"co": {"Y": -1, "X": 1}, "interpolation": 2}]}, "reader": {"audio_bit_rate": 0, "has_single_image": false, "vcodec": "h264", "has_video": true, "type": "FFmpegReader", "video_length": "375", "audio_timebase": {"den": 1, "num": 1}, "path": "/home/robsen/Dropbox/Workdir/Repo/SuesseRache-HH-Taxi/arrow.mp4", "width": 1920, "has_audio": false, "video_bit_rate": 83079, "channel_layout": 4, "height": 1080, "display_ratio": {"den": 9, "num": 16}, "interlaced_frame": false, "duration": 15.0, "sample_rate": 0, "pixel_format": 0, "video_timebase": {"den": 12800, "num": 1}, "file_size": "155774", "top_field_first": true, "pixel_ratio": {"den": 1, "num": 1}, "acodec": "", "audio_stream_index": -1, "video_stream_index": 0, "channels": 0, "fps": {"den": 1, "num": 25}}, "channel_filter": {"Points": [{"co": {"Y": -1, "X": 1}, "interpolation": 2}]}, "file_id": "X22V56NF57", "time": {"Points": [{"co": {"Y": 1, "X": 1}, "interpolation": 2}]}}, "value": {"alpha": {"Points": [{"co": {"Y": 1, "X": 1}, "interpolation": 2}, {"handle_right": {"Y": 0, "X": 0.5}, "co": {"Y": 0, "X": 1}, "handle_left": {"Y": 1, "X": 0.5}, "handle_type": 0, "interpolation": 0}, {"handle_right": {"Y": 0, "X": 0.5}, "co": {"Y": 1, "X": 73}, "handle_left": {"Y": 1, "X": 0.5}, "handle_type": 0, "interpolation": 0}]}, "rotation": {"Points": [{"co": {"Y": 0, "X": 1}, "interpolation": 2}]}, "scale_y": {"Points": [{"co": {"Y": 1, "X": 1}, "interpolation": 2}]}, "crop_y": {"Points": [{"co": {"Y": 0, "X": 1}, "interpolation": 2}]}, "crop_width": {"Points": [{"co": {"Y": -1, "X": 1}, "interpolation": 2}]}, "end": 15, "perspective_c3_x": {"Points": [{"co": {"Y": -1, "X": 1}, "interpolation": 2}]}, "position": 53.075, "id": "PJWPMFXKV3", "wave_color": {"green": {"Points": [{"handle_right": {"Y": 0, "X": 0.5}, "co": {"Y": 123, "X": 1}, "handle_left": {"Y": 1, "X": 0.5}, "handle_type": 0, "interpolation": 0}]}, "blue": {"Points": [{"handle_right": {"Y": 0, "X": 0.5}, "co": {"Y": 255, "X": 1}, "handle_left": {"Y": 1, "X": 0.5}, "handle_type": 0, "interpolation": 0}]}, "alpha": {"Points": [{"handle_right": {"Y": 0, "X": 0.5}, "co": {"Y": 255, "X": 1}, "handle_left": {"Y": 1, "X": 0.5}, "handle_type": 0, "interpolation": 0}]}, "red": {"Points": [{"handle_right": {"Y": 0, "X": 0.5}, "co": {"Y": 0, "X": 1}, "handle_left": {"Y": 1, "X": 0.5}, "handle_type": 0, "interpolation": 0}]}}, "has_video": {"Points": [{"co": {"Y": -1, "X": 1}, "interpolation": 2}]}, "has_audio": {"Points": [{"co": {"Y": -1, "X": 1}, "interpolation": 2}]}, "effects": [], "location_x": {"Points": [{"co": {"Y": 0, "X": 1}, "interpolation": 2}]}, "waveform": false, "title": "arrow.mp4", "image": "/home/robsen/.openshot_qt/thumbnail/X22V56NF57.png", "gravity": 4, "scale_x": {"Points": [{"co": {"Y": 1, "X": 1}, "interpolation": 2}]}, "perspective_c1_y": {"Points": [{"co": {"Y": -1, "X": 1}, "interpolation": 2}]}, "crop_height": {"Points": [{"co": {"Y": -1, "X": 1}, "interpolation": 2}]}, "crop_x": {"Points": [{"co": {"Y": 0, "X": 1}, "interpolation": 2}]}, "start": 0, "scale": 1, "shear_y": {"Points": [{"co": {"Y": 0, "X": 1}, "interpolation": 2}]}, "display": 0, "volume": {"Points": [{"co": {"Y": 1, "X": 1}, "interpolation": 2}]}, "channel_mapping": {"Points": [{"co": {"Y": -1, "X": 1}, "interpolation": 2}]}, "anchor": 0, "duration": 15.0, "perspective_c3_y": {"Points": [{"co": {"Y": -1, "X": 1}, "interpolation": 2}]}, "shear_x": {"Points": [{"co": {"Y": 0, "X": 1}, "interpolation": 2}]}, "perspective_c4_x": {"Points": [{"co": {"Y": -1, "X": 1}, "interpolation": 2}]}, "location_y": {"Points": [{"co": {"Y": 0, "X": 1}, "interpolation": 2}]}, "perspective_c2_x": {"Points": [{"co": {"Y": -1, "X": 1}, "interpolation": 2}]}, "layer": 2, "perspective_c2_y": {"Points": [{"co": {"Y": -1, "X": 1}, "interpolation": 2}]}, "perspective_c1_x": {"Points": [{"co": {"Y": -1, "X": 1}, "interpolation": 2}]}, "perspective_c4_y": {"Points": [{"co": {"Y": -1, "X": 1}, "interpolation": 2}]}, "channel_filter": {"Points": [{"co": {"Y": -1, "X": 1}, "interpolation": 2}]}, "time": {"Points": [{"co": {"Y": 1, "X": 1}, "interpolation": 2}]}, "file_id": "X22V56NF57"}, "key": ["clips", {"id": "PJWPMFXKV3"}], "partial": false, "type": "update"}]}, "key": ["history"], "partial": false, "type": "update"}, {"old_values": null, "value": {"redo": [], "undo": [{"old_values": [{"number": 0, "label": "Spur 1", "id": "UBOPYJIV1S", "y": 0}, {"number": 1, "label": "Spur 2", "id": "SHY16ICR2M", "y": 0}], "value": {"number": 2, "y": 0, "label": "", "id": "E44ZNJSI3Z", "lock": false}, "key": ["layers"], "partial": false, "type": "insert"}, {"old_values": [], "value": {"audio_bit_rate": 0, "has_single_image": false, "media_type": "video", "id": "LGW3TZJV4Q", "type": "FFmpegReader", "has_video": true, "video_length": "375", "audio_timebase": {"den": 1, "num": 1}, "path": "/home/robsen/Dropbox/Workdir/Repo/SuesseRache-HH-Taxi/taxi_start.mp4", "width": 1920, "has_audio": false, "video_bit_rate": 147692, "channel_layout": 4, "height": 1080, "vcodec": "h264", "display_ratio": {"den": 9, "num": 16}, "interlaced_frame": false, "duration": 15, "sample_rate": 0, "pixel_format": 0, "video_timebase": {"den": 12800, "num": 1}, "file_size": "276924", "top_field_first": true, "pixel_ratio": {"den": 1, "num": 1}, "acodec": "", "audio_stream_index": -1, "video_stream_index": 0, "channels": 0, "fps": {"den": 1, "num": 25}}, "key": ["files"], "partial": false, "type": "insert"}, {"old_values": [{"audio_bit_rate": 0, "has_single_image": false, "media_type": "video", "id": "LGW3TZJV4Q", "type": "FFmpegReader", "has_video": true, "video_length": "375", "audio_timebase": {"den": 1, "num": 1}, "path": "/home/robsen/Dropbox/Workdir/Repo/SuesseRache-HH-Taxi/taxi_start.mp4", "width": 1920, "has_audio": false, "video_bit_rate": 147692, "channel_layout": 4, "height": 1080, "vcodec": "h264", "display_ratio": {"den": 9, "num": 16}, "interlaced_frame": false, "duration": 15, "sample_rate": 0, "pixel_format": 0, "video_timebase": {"den": 12800, "num": 1}, "file_size": "276924", "top_field_first": true, "pixel_ratio": {"den": 1, "num": 1}, "acodec": "", "audio_stream_index": -1, "video_stream_index": 0, "channels": 0, "fps": {"den": 1, "num": 25}}], "value": {"audio_bit_rate": 189375, "has_single_image": false, "media_type": "video", "id": "Z3LOYBY1PL", "type": "FFmpegReader", "has_video": true, "video_length": "937", "audio_timebase": {"den": 48000, "num": 1}, "path": "/home/robsen/Dropbox/Workdir/Repo/SuesseRache-HH-Taxi/TE_SR_Taxi.mp4", "width": 1920, "has_audio": true, "video_bit_rate": 32091692, "channel_layout": 3, "height": 1080, "vcodec": "h264", "display_ratio": {"den": 9, "num": 16}, "interlaced_frame": false, "duration": 31.317333221435547, "sample_rate": 48000, "pixel_format": 0, "video_timebase": {"den": 29970, "num": 1}, "file_size": "125628279", "top_field_first": true, "pixel_ratio": {"den": 1, "num": 1}, "acodec": "aac", "audio_stream_index": 1, "video_stream_index": 0, "channels": 2, "fps": {"den": 100, "num": 2997}}, "key": ["files"], "partial": false, "type": "insert"}, {"old_values": [{"audio_bit_rate": 0, "has_single_image": false, "media_type": "video", "id": "LGW3TZJV4Q", "type": "FFmpegReader", "has_video": true, "video_length": "375", "audio_timebase": {"den": 1, "num": 1}, "path": "/home/robsen/Dropbox/Workdir/Repo/SuesseRache-HH-Taxi/taxi_start.mp4", "width": 1920, "has_audio": false, "video_bit_rate": 147692, "channel_layout": 4, "height": 1080, "vcodec": "h264", "display_ratio": {"den": 9, "num": 16}, "interlaced_frame": false, "duration": 15, "sample_rate": 0, "pixel_format": 0, "video_timebase": {"den": 12800, "num": 1}, "file_size": "276924", "top_field_first": true, "pixel_ratio": {"den": 1, "num": 1}, "acodec": "", "audio_stream_index": -1, "video_stream_index": 0, "channels": 0, "fps": {"den": 1, "num": 25}}, {"audio_bit_rate": 189375, "has_single_image": false, "media_type": "video", "id": "Z3LOYBY1PL", "type": "FFmpegReader", "has_video": true, "video_length": "937", "audio_timebase": {"den": 48000, "num": 1}, "path": "/home/robsen/Dropbox/Workdir/Repo/SuesseRache-HH-Taxi/TE_SR_Taxi.mp4", "width": 1920, "has_audio": true, "video_bit_rate": 32091692, "channel_layout": 3, "height": 1080, "vcodec": "h264", "display_ratio": {"den": 9, "num": 16}, "interlaced_frame": false, "duration": 31.317333221435547, "sample_rate": 48000, "pixel_format": 0, "video_timebase": {"den": 29970, "num": 1}, "file_size": "125628279", "top_field_first": true, "pixel_ratio": {"den": 1, "num": 1}, "acodec": "aac", "audio_stream_index": 1, "video_stream_index": 0, "channels": 2, "fps": {"den": 100, "num": 2997}}], "value": {"audio_bit_rate": 0, "has_single_image": false, "media_type": "video", "id": "X22V56NF57", "type": "FFmpegReader", "has_video": true, "video_length": "375", "audio_timebase": {"den": 1, "num": 1}, "path": "/home/robsen/Dropbox/Workdir/Repo/SuesseRache-HH-Taxi/arrow.mp4", "width": 1920, "has_audio": false, "video_bit_rate": 83079, "channel_layout": 4, "height": 1080, "vcodec": "h264", "display_ratio": {"den": 9, "num": 16}, "interlaced_frame": false, "duration": 15, "sample_rate": 0, "pixel_format": 0, "video_timebase": {"den": 12800, "num": 1}, "file_size": "155774", "top_field_first": true, "pixel_ratio": {"den": 1, "num": 1}, "acodec": "", "audio_stream_index": -1, "video_stream_index": 0, "channels": 0, "fps": {"den": 1, "num": 25}}, "key": ["files"], "partial": false, "type": "insert"}, {"old_values": [], "value": {"alpha": {"Points": [{"co": {"Y": 1, "X": 1}, "interpolation": 2}, {"handle_right": {"Y": 0, "X": 0.5}, "co": {"Y": 1, "X": 289}, "handle_left": {"Y": 1, "X": 0.5}, "handle_type": 0, "interpolation": 0}, {"handle_right": {"Y": 0, "X": 0.5}, "co": {"Y": 0, "X": 361}, "handle_left": {"Y": 1, "X": 0.5}, "handle_type": 0, "interpolation": 0}, {"handle_right": {"Y": 0, "X": 0.5}, "co": {"Y": 0, "X": 1}, "handle_left": {"Y": 1, "X": 0.5}, "handle_type": 0, "interpolation": 0}, {"handle_right": {"Y": 0, "X": 0.5}, "co": {"Y": 1, "X": 73}, "handle_left": {"Y": 1, "X": 0.5}, "handle_type": 0, "interpolation": 0}]}, "rotation": {"Points": [{"co": {"Y": 0, "X": 1}, "interpolation": 2}]}, "scale_y": {"Points": [{"co": {"Y": 1, "X": 1}, "interpolation": 2}]}, "crop_y": {"Points": [{"co": {"Y": 0, "X": 1}, "interpolation": 2}]}, "perspective_c3_x": {"Points": [{"co": {"Y": -1, "X": 1}, "interpolation": 2}]}, "end": 15, "crop_width": {"Points": [{"co": {"Y": -1, "X": 1}, "interpolation": 2}]}, "position": 8.8, "id": "0AEDFYGQ7J", "wave_color": {"green": {"Points": [{"handle_right": {"Y": 0, "X": 0.5}, "co": {"Y": 123, "X": 1}, "handle_left": {"Y": 1, "X": 0.5}, "handle_type": 0, "interpolation": 0}]}, "blue": {"Points": [{"handle_right": {"Y": 0, "X": 0.5}, "co": {"Y": 255, "X": 1}, "handle_left": {"Y": 1, "X": 0.5}, "handle_type": 0, "interpolation": 0}]}, "alpha": {"Points": [{"handle_right": {"Y": 0, "X": 0.5}, "co": {"Y": 255, "X": 1}, "handle_left": {"Y": 1, "X": 0.5}, "handle_type": 0, "interpolation": 0}]}, "red": {"Points": [{"handle_right": {"Y": 0, "X": 0.5}, "co": {"Y": 0, "X": 1}, "handle_left": {"Y": 1, "X": 0.5}, "handle_type": 0, "interpolation": 0}]}}, "has_video": {"Points": [{"co": {"Y": -1, "X": 1}, "interpolation": 2}]}, "has_audio": {"Points": [{"co": {"Y": -1, "X": 1}, "interpolation": 2}]}, "effects": [], "location_x": {"Points": [{"co": {"Y": 0, "X": 1}, "interpolation": 2}]}, "waveform": false, "title": "taxi_start.mp4", "image": "/home/robsen/.openshot_qt/thumbnail/LGW3TZJV4Q.png", "gravity": 4, "scale_x": {"Points": [{"co": {"Y": 1, "X": 1}, "interpolation": 2}]}, "perspective_c1_y": {"Points": [{"co": {"Y": -1, "X": 1}, "interpolation": 2}]}, "crop_height": {"Points": [{"co": {"Y": -1, "X": 1}, "interpolation": 2}]}, "crop_x": {"Points": [{"co": {"Y": 0, "X": 1}, "interpolation": 2}]}, "start": 0, "scale": 1, "shear_y": {"Points": [{"co": {"Y": 0, "X": 1}, "interpolation": 2}]}, "display": 0, "volume": {"Points": [{"co": {"Y": 1, "X": 1}, "interpolation": 2}]}, "channel_mapping": {"Points": [{"co": {"Y": -1, "X": 1}, "interpolation": 2}]}, "anchor": 0, "duration": 15.0, "perspective_c3_y": {"Points": [{"co": {"Y": -1, "X": 1}, "interpolation": 2}]}, "shear_x": {"Points": [{"co": {"Y": 0, "X": 1}, "interpolation": 2}]}, "perspective_c4_x": {"Points": [{"co": {"Y": -1, "X": 1}, "interpolation": 2}]}, "location_y": {"Points": [{"co": {"Y": 0, "X": 1}, "interpolation": 2}]}, "perspective_c2_x": {"Points": [{"co": {"Y": -1, "X": 1}, "interpolation": 2}]}, "layer": 0, "perspective_c2_y": {"Points": [{"co": {"Y": -1, "X": 1}, "interpolation": 2}]}, "perspective_c1_x": {"Points": [{"co": {"Y": -1, "X": 1}, "interpolation": 2}]}, "perspective_c4_y": {"Points": [{"co": {"Y": -1, "X": 1}, "interpolation": 2}]}, "reader": {"audio_bit_rate": 0, "has_single_image": false, "has_video": true, "type": "FFmpegReader", "video_length": "375", "audio_timebase": {"den": 1, "num": 1}, "path": "/home/robsen/Dropbox/Workdir/Repo/SuesseRache-HH-Taxi/taxi_start.mp4", "width": 1920, "has_audio": false, "video_bit_rate": 147692, "channel_layout": 4, "height": 1080, "display_ratio": {"den": 9, "num": 16}, "interlaced_frame": false, "video_timebase": {"den": 12800, "num": 1}, "duration": 15.0, "sample_rate": 0, "pixel_format": 0, "fps": {"den": 1, "num": 25}, "file_size": "276924", "top_field_first": true, "pixel_ratio": {"den": 1, "num": 1}, "acodec": "", "audio_stream_index": -1, "video_stream_index": 0, "channels": 0, "vcodec": "h264"}, "channel_filter": {"Points": [{"co": {"Y": -1, "X": 1}, "interpolation": 2}]}, "file_id": "LGW3TZJV4Q", "time": {"Points": [{"co": {"Y": 1, "X": 1}, "interpolation": 2}]}}, "key": ["clips"], "partial": false, "type": "insert"}, {"old_values": null, "value": {"id": "0AEDFYGQ7J", "start": 0, "end": 15, "position": 8.8, "layer": 0, "image": "/home/robsen/.openshot_qt/thumbnail/LGW3TZJV4Q.png"}, "key": ["clips", {"id": "0AEDFYGQ7J"}], "partial": false, "type": "update"}, {"old_values": null, "value": {"id": "0AEDFYGQ7J", "start": 0, "end": 15, "position": 8.8, "layer": 0, "image": "/home/robsen/.openshot_qt/thumbnail/LGW3TZJV4Q.png"}, "key": ["clips", {"id": "0AEDFYGQ7J"}], "partial": false, "type": "update"}, {"old_values": [{"alpha": {"Points": [{"co": {"Y": 1, "X": 1}, "interpolation": 2}]}, "rotation": {"Points": [{"co": {"Y": 0, "X": 1}, "interpolation": 2}]}, "scale_y": {"Points": [{"co": {"Y": 1, "X": 1}, "interpolation": 2}]}, "crop_y": {"Points": [{"co": {"Y": 0, "X": 1}, "interpolation": 2}]}, "perspective_c3_x": {"Points": [{"co": {"Y": -1, "X": 1}, "interpolation": 2}]}, "end": 15, "crop_width": {"Points": [{"co": {"Y": -1, "X": 1}, "interpolation": 2}]}, "position": 8.8, "id": "0AEDFYGQ7J", "wave_color": {"green": {"Points": [{"handle_right": {"Y": 0, "X": 0.5}, "co": {"Y": 123, "X": 1}, "handle_left": {"Y": 1, "X": 0.5}, "handle_type": 0, "interpolation": 0}]}, "blue": {"Points": [{"handle_right": {"Y": 0, "X": 0.5}, "co": {"Y": 255, "X": 1}, "handle_left": {"Y": 1, "X": 0.5}, "handle_type": 0, "interpolation": 0}]}, "alpha": {"Points": [{"handle_right": {"Y": 0, "X": 0.5}, "co": {"Y": 255, "X": 1}, "handle_left": {"Y": 1, "X": 0.5}, "handle_type": 0, "interpolation": 0}]}, "red": {"Points": [{"handle_right": {"Y": 0, "X": 0.5}, "co": {"Y": 0, "X": 1}, "handle_left": {"Y": 1, "X": 0.5}, "handle_type": 0, "interpolation": 0}]}}, "has_video": {"Points": [{"co": {"Y": -1, "X": 1}, "interpolation": 2}]}, "has_audio": {"Points": [{"co": {"Y": -1, "X": 1}, "interpolation": 2}]}, "effects": [], "location_x": {"Points": [{"co": {"Y": 0, "X": 1}, "interpolation": 2}]}, "waveform": false, "title": "taxi_start.mp4", "image": "/home/robsen/.openshot_qt/thumbnail/LGW3TZJV4Q.png", "gravity": 4, "perspective_c2_x": {"Points": [{"co": {"Y": -1, "X": 1}, "interpolation": 2}]}, "perspective_c1_y": {"Points": [{"co": {"Y": -1, "X": 1}, "interpolation": 2}]}, "crop_height": {"Points": [{"co": {"Y": -1, "X": 1}, "interpolation": 2}]}, "crop_x": {"Points": [{"co": {"Y": 0, "X": 1}, "interpolation": 2}]}, "start": 0, "scale": 1, "shear_y": {"Points": [{"co": {"Y": 0, "X": 1}, "interpolation": 2}]}, "display": 0, "volume": {"Points": [{"co": {"Y": 1, "X": 1}, "interpolation": 2}]}, "channel_mapping": {"Points": [{"co": {"Y": -1, "X": 1}, "interpolation": 2}]}, "anchor": 0, "duration": 15.0, "perspective_c3_y": {"Points": [{"co": {"Y": -1, "X": 1}, "interpolation": 2}]}, "shear_x": {"Points": [{"co": {"Y": 0, "X": 1}, "interpolation": 2}]}, "perspective_c4_x": {"Points": [{"co": {"Y": -1, "X": 1}, "interpolation": 2}]}, "location_y": {"Points": [{"co": {"Y": 0, "X": 1}, "interpolation": 2}]}, "scale_x": {"Points": [{"co": {"Y": 1, "X": 1}, "interpolation": 2}]}, "layer": 0, "perspective_c2_y": {"Points": [{"co": {"Y": -1, "X": 1}, "interpolation": 2}]}, "perspective_c1_x": {"Points": [{"co": {"Y": -1, "X": 1}, "interpolation": 2}]}, "perspective_c4_y": {"Points": [{"co": {"Y": -1, "X": 1}, "interpolation": 2}]}, "reader": {"audio_bit_rate": 0, "has_single_image": false, "vcodec": "h264", "has_video": true, "type": "FFmpegReader", "video_length": "375", "audio_timebase": {"den": 1, "num": 1}, "path": "/home/robsen/Dropbox/Workdir/Repo/SuesseRache-HH-Taxi/taxi_start.mp4", "width": 1920, "has_audio": false, "video_bit_rate": 147692, "channel_layout": 4, "height": 1080, "display_ratio": {"den": 9, "num": 16}, "interlaced_frame": false, "duration": 15.0, "sample_rate": 0, "pixel_format": 0, "video_timebase": {"den": 12800, "num": 1}, "file_size": "276924", "top_field_first": true, "pixel_ratio": {"den": 1, "num": 1}, "acodec": "", "audio_stream_index": -1, "video_stream_index": 0, "channels": 0, "fps": {"den": 1, "num": 25}}, "channel_filter": {"Points": [{"co": {"Y": -1, "X": 1}, "interpolation": 2}]}, "file_id": "LGW3TZJV4Q", "time": {"Points": [{"co": {"Y": 1, "X": 1}, "interpolation": 2}]}}], "value": {"alpha": {"Points": [{"co": {"Y": 1, "X": 1}, "interpolation": 2}]}, "rotation": {"Points": [{"co": {"Y": 0, "X": 1}, "interpolation": 2}]}, "scale_y": {"Points": [{"co": {"Y": 1, "X": 1}, "interpolation": 2}]}, "crop_y": {"Points": [{"co": {"Y": 0, "X": 1}, "interpolation": 2}]}, "perspective_c3_x": {"Points": [{"co": {"Y": -1, "X": 1}, "interpolation": 2}]}, "end": 31.317333221435547, "crop_width": {"Points": [{"co": {"Y": -1, "X": 1}, "interpolation": 2}]}, "position": 21.76, "id": "627XQDJ3EP", "wave_color": {"green": {"Points": [{"handle_right": {"Y": 0, "X": 0.5}, "co": {"Y": 123, "X": 1}, "handle_left": {"Y": 1, "X": 0.5}, "handle_type": 0, "interpolation": 0}]}, "blue": {"Points": [{"handle_right": {"Y": 0, "X": 0.5}, "co": {"Y": 255, "X": 1}, "handle_left": {"Y": 1, "X": 0.5}, "handle_type": 0, "interpolation": 0}]}, "alpha": {"Points": [{"handle_right": {"Y": 0, "X": 0.5}, "co": {"Y": 255, "X": 1}, "handle_left": {"Y": 1, "X": 0.5}, "handle_type": 0, "interpolation": 0}]}, "red": {"Points": [{"handle_right": {"Y": 0, "X": 0.5}, "co": {"Y": 0, "X": 1}, "handle_left": {"Y": 1, "X": 0.5}, "handle_type": 0, "interpolation": 0}]}}, "has_video": {"Points": [{"co": {"Y": -1, "X": 1}, "interpolation": 2}]}, "has_audio": {"Points": [{"co": {"Y": -1, "X": 1}, "interpolation": 2}]}, "effects": [], "location_x": {"Points": [{"co": {"Y": 0, "X": 1}, "interpolation": 2}]}, "waveform": false, "title": "TE_SR_Taxi.mp4", "image": "/home/robsen/.openshot_qt/thumbnail/Z3LOYBY1PL.png", "gravity": 4, "scale_x": {"Points": [{"co": {"Y": 1, "X": 1}, "interpolation": 2}]}, "perspective_c1_y": {"Points": [{"co": {"Y": -1, "X": 1}, "interpolation": 2}]}, "crop_height": {"Points": [{"co": {"Y": -1, "X": 1}, "interpolation": 2}]}, "crop_x": {"Points": [{"co": {"Y": 0, "X": 1}, "interpolation": 2}]}, "start": 0, "scale": 1, "shear_y": {"Points": [{"co": {"Y": 0, "X": 1}, "interpolation": 2}]}, "display": 0, "volume": {"Points": [{"co": {"Y": 1, "X": 1}, "interpolation": 2}]}, "channel_mapping": {"Points": [{"co": {"Y": -1, "X": 1}, "interpolation": 2}]}, "anchor": 0, "duration": 31.317333221435547, "perspective_c3_y": {"Points": [{"co": {"Y": -1, "X": 1}, "interpolation": 2}]}, "shear_x": {"Points": [{"co": {"Y": 0, "X": 1}, "interpolation": 2}]}, "perspective_c4_x": {"Points": [{"co": {"Y": -1, "X": 1}, "interpolation": 2}]}, "location_y": {"Points": [{"co": {"Y": 0, "X": 1}, "interpolation": 2}]}, "perspective_c2_x": {"Points": [{"co": {"Y": -1, "X": 1}, "interpolation": 2}]}, "layer": 1, "perspective_c2_y": {"Points": [{"co": {"Y": -1, "X": 1}, "interpolation": 2}]}, "perspective_c1_x": {"Points": [{"co": {"Y": -1, "X": 1}, "interpolation": 2}]}, "perspective_c4_y": {"Points": [{"co": {"Y": -1, "X": 1}, "interpolation": 2}]}, "reader": {"audio_bit_rate": 189375, "has_single_image": false, "has_video": true, "type": "FFmpegReader", "video_length": "937", "audio_timebase": {"den": 48000, "num": 1}, "path": "/home/robsen/Dropbox/Workdir/Repo/SuesseRache-HH-Taxi/TE_SR_Taxi.mp4", "width": 1920, "has_audio": true, "video_bit_rate": 32091692, "channel_layout": 3, "height": 1080, "display_ratio": {"den": 9, "num": 16}, "interlaced_frame": false, "video_timebase": {"den": 29970, "num": 1}, "duration": 31.317333221435547, "sample_rate": 48000, "pixel_format": 0, "fps": {"den": 100, "num": 2997}, "file_size": "125628279", "top_field_first": true, "pixel_ratio": {"den": 1, "num": 1}, "acodec": "aac", "audio_stream_index": 1, "video_stream_index": 0, "channels": 2, "vcodec": "h264"}, "channel_filter": {"Points": [{"co": {"Y": -1, "X": 1}, "interpolation": 2}]}, "file_id": "Z3LOYBY1PL", "time": {"Points": [{"co": {"Y": 1, "X": 1}, "interpolation": 2}]}}, "key": ["clips"], "partial": false, "type": "insert"}, {"old_values": {"alpha": {"Points": [{"co": {"Y": 1, "X": 1}, "interpolation": 2}]}, "rotation": {"Points": [{"co": {"Y": 0, "X": 1}, "interpolation": 2}]}, "scale_y": {"Points": [{"co": {"Y": 1, "X": 1}, "interpolation": 2}]}, "crop_y": {"Points": [{"co": {"Y": 0, "X": 1}, "interpolation": 2}]}, "perspective_c3_x": {"Points": [{"co": {"Y": -1, "X": 1}, "interpolation": 2}]}, "end": 31.317333221435547, "crop_width": {"Points": [{"co": {"Y": -1, "X": 1}, "interpolation": 2}]}, "position": 18.88, "id": "627XQDJ3EP", "wave_color": {"green": {"Points": [{"handle_right": {"Y": 0, "X": 0.5}, "co": {"Y": 123, "X": 1}, "handle_left": {"Y": 1, "X": 0.5}, "handle_type": 0, "interpolation": 0}]}, "blue": {"Points": [{"handle_right": {"Y": 0, "X": 0.5}, "co": {"Y": 255, "X": 1}, "handle_left": {"Y": 1, "X": 0.5}, "handle_type": 0, "interpolation": 0}]}, "alpha": {"Points": [{"handle_right": {"Y": 0, "X": 0.5}, "co": {"Y": 255, "X": 1}, "handle_left": {"Y": 1, "X": 0.5}, "handle_type": 0, "interpolation": 0}]}, "red": {"Points": [{"handle_right": {"Y": 0, "X": 0.5}, "co": {"Y": 0, "X": 1}, "handle_left": {"Y": 1, "X": 0.5}, "handle_type": 0, "interpolation": 0}]}}, "has_video": {"Points": [{"co": {"Y": -1, "X": 1}, "interpolation": 2}]}, "has_audio": {"Points": [{"co": {"Y": -1, "X": 1}, "interpolation": 2}]}, "effects": [], "location_x": {"Points": [{"co": {"Y": 0, "X": 1}, "interpolation": 2}]}, "waveform": false, "title": "TE_SR_Taxi.mp4", "image": "/home/robsen/.openshot_qt/thumbnail/Z3LOYBY1PL.png", "gravity": 4, "scale_x": {"Points": [{"co": {"Y": 1, "X": 1}, "interpolation": 2}]}, "perspective_c1_y": {"Points": [{"co": {"Y": -1, "X": 1}, "interpolation": 2}]}, "crop_height": {"Points": [{"co": {"Y": -1, "X": 1}, "interpolation": 2}]}, "crop_x": {"Points": [{"co": {"Y": 0, "X": 1}, "interpolation": 2}]}, "start": 0, "scale": 1, "shear_y": {"Points": [{"co": {"Y": 0, "X": 1}, "interpolation": 2}]}, "display": 0, "volume": {"Points": [{"co": {"Y": 1, "X": 1}, "interpolation": 2}]}, "channel_mapping": {"Points": [{"co": {"Y": -1, "X": 1}, "interpolation": 2}]}, "anchor": 0, "duration": 31.317333221435547, "perspective_c3_y": {"Points": [{"co": {"Y": -1, "X": 1}, "interpolation": 2}]}, "shear_x": {"Points": [{"co": {"Y": 0, "X": 1}, "interpolation": 2}]}, "perspective_c4_x": {"Points": [{"co": {"Y": -1, "X": 1}, "interpolation": 2}]}, "location_y": {"Points": [{"co": {"Y": 0, "X": 1}, "interpolation": 2}]}, "perspective_c2_x": {"Points": [{"co": {"Y": -1, "X": 1}, "interpolation": 2}]}, "layer": 2, "perspective_c2_y": {"Points": [{"co": {"Y": -1, "X": 1}, "interpolation": 2}]}, "perspective_c1_x": {"Points": [{"co": {"Y": -1, "X": 1}, "interpolation": 2}]}, "perspective_c4_y": {"Points": [{"co": {"Y": -1, "X": 1}, "interpolation": 2}]}, "reader": {"audio_bit_rate": 189375, "has_single_image": false, "vcodec": "h264", "has_video": true, "type": "FFmpegReader", "video_length": "937", "audio_timebase": {"den": 48000, "num": 1}, "path": "/home/robsen/Dropbox/Workdir/Repo/SuesseRache-HH-Taxi/TE_SR_Taxi.mp4", "width": 1920, "has_audio": true, "video_bit_rate": 32091692, "channel_layout": 3, "height": 1080, "display_ratio": {"den": 9, "num": 16}, "interlaced_frame": false, "duration": 31.317333221435547, "sample_rate": 48000, "pixel_format": 0, "video_timebase": {"den": 29970, "num": 1}, "file_size": "125628279", "top_field_first": true, "pixel_ratio": {"den": 1, "num": 1}, "acodec": "aac", "audio_stream_index": 1, "video_stream_index": 0, "channels": 2, "fps": {"den": 100, "num": 2997}}, "channel_filter": {"Points": [{"co": {"Y": -1, "X": 1}, "interpolation": 2}]}, "file_id": "Z3LOYBY1PL", "time": {"Points": [{"co": {"Y": 1, "X": 1}, "interpolation": 2}]}}, "value": {"id": "627XQDJ3EP", "start": 0, "end": 31.317333221435547, "position": 21.76, "layer": 0, "image": "/home/robsen/.openshot_qt/thumbnail/Z3LOYBY1PL.png"}, "key": ["clips", {"id": "627XQDJ3EP"}], "partial": false, "type": "update"}, {"old_values": [], "value": {"start": 0, "type": "Mask", "contrast": {"Points": [{"co": {"Y": 3, "X": 1}, "interpolation": 2}]}, "layer": 0, "replace_image": false, "title": "Transition", "end": 2.039999999999999, "reader": {"audio_bit_rate": 0, "has_single_image": true, "has_video": true, "type": "QtImageReader", "video_length": "2592000", "audio_timebase": {"den": 1, "num": 1}, "path": "/usr/lib/python3/dist-packages/openshot_qt/transitions/common/fade.svg", "width": 720, "has_audio": false, "video_bit_rate": 0, "channel_layout": 4, "height": 576, "display_ratio": {"den": 4, "num": 5}, "interlaced_frame": false, "video_timebase": {"den": 30, "num": 1}, "duration": 86400, "sample_rate": 0, "pixel_format": -1, "fps": {"den": 1, "num": 30}, "file_size": "1658880", "top_field_first": true, "pixel_ratio": {"den": 1, "num": 1}, "acodec": "", "audio_stream_index": -1, "video_stream_index": -1, "channels": 0, "vcodec": ""}, "brightness": {"Points": [{"handle_right": {"Y": 0, "X": 0.5}, "co": {"Y": 1, "X": 1}, "handle_left": {"Y": 1, "X": 0.5}, "handle_type": 0, "interpolation": 0}, {"handle_right": {"Y": 0, "X": 0.5}, "co": {"Y": -1, "X": 50}, "handle_left": {"Y": 1, "X": 0.5}, "handle_type": 0, "interpolation": 0}]}, "id": "5NBS5H99MA", "position": 21.76}, "key": ["effects"], "partial": false, "type": "insert"}, {"old_values": {"alpha": {"Points": [{"co": {"Y": 1, "X": 1}, "interpolation": 2}]}, "rotation": {"Points": [{"co": {"Y": 0, "X": 1}, "interpolation": 2}]}, "scale_y": {"Points": [{"co": {"Y": 1, "X": 1}, "interpolation": 2}]}, "crop_y": {"Points": [{"co": {"Y": 0, "X": 1}, "interpolation": 2}]}, "perspective_c3_x": {"Points": [{"co": {"Y": -1, "X": 1}, "interpolation": 2}]}, "end": 31.317333221435547, "crop_width": {"Points": [{"co": {"Y": -1, "X": 1}, "interpolation": 2}]}, "position": 21.76, "id": "627XQDJ3EP", "wave_color": {"green": {"Points": [{"handle_right": {"Y": 0, "X": 0.5}, "co": {"Y": 123, "X": 1}, "handle_left": {"Y": 1, "X": 0.5}, "handle_type": 0, "interpolation": 0}]}, "blue": {"Points": [{"handle_right": {"Y": 0, "X": 0.5}, "co": {"Y": 255, "X": 1}, "handle_left": {"Y": 1, "X": 0.5}, "handle_type": 0, "interpolation": 0}]}, "alpha": {"Points": [{"handle_right": {"Y": 0, "X": 0.5}, "co": {"Y": 255, "X": 1}, "handle_left": {"Y": 1, "X": 0.5}, "handle_type": 0, "interpolation": 0}]}, "red": {"Points": [{"handle_right": {"Y": 0, "X": 0.5}, "co": {"Y": 0, "X": 1}, "handle_left": {"Y": 1, "X": 0.5}, "handle_type": 0, "interpolation": 0}]}}, "has_video": {"Points": [{"co": {"Y": -1, "X": 1}, "interpolation": 2}]}, "has_audio": {"Points": [{"co": {"Y": -1, "X": 1}, "interpolation": 2}]}, "effects": [], "location_x": {"Points": [{"co": {"Y": 0, "X": 1}, "interpolation": 2}]}, "waveform": false, "title": "TE_SR_Taxi.mp4", "image": "/home/robsen/.openshot_qt/thumbnail/Z3LOYBY1PL.png", "gravity": 4, "perspective_c2_x": {"Points": [{"co": {"Y": -1, "X": 1}, "interpolation": 2}]}, "perspective_c1_y": {"Points": [{"co": {"Y": -1, "X": 1}, "interpolation": 2}]}, "crop_height": {"Points": [{"co": {"Y": -1, "X": 1}, "interpolation": 2}]}, "crop_x": {"Points": [{"co": {"Y": 0, "X": 1}, "interpolation": 2}]}, "start": 0, "scale": 1, "shear_y": {"Points": [{"co": {"Y": 0, "X": 1}, "interpolation": 2}]}, "display": 0, "volume": {"Points": [{"co": {"Y": 1, "X": 1}, "interpolation": 2}]}, "channel_mapping": {"Points": [{"co": {"Y": -1, "X": 1}, "interpolation": 2}]}, "anchor": 0, "duration": 31.317333221435547, "perspective_c3_y": {"Points": [{"co": {"Y": -1, "X": 1}, "interpolation": 2}]}, "shear_x": {"Points": [{"co": {"Y": 0, "X": 1}, "interpolation": 2}]}, "perspective_c4_x": {"Points": [{"co": {"Y": -1, "X": 1}, "interpolation": 2}]}, "location_y": {"Points": [{"co": {"Y": 0, "X": 1}, "interpolation": 2}]}, "scale_x": {"Points": [{"co": {"Y": 1, "X": 1}, "interpolation": 2}]}, "layer": 0, "perspective_c2_y": {"Points": [{"co": {"Y": -1, "X": 1}, "interpolation": 2}]}, "perspective_c1_x": {"Points": [{"co": {"Y": -1, "X": 1}, "interpolation": 2}]}, "perspective_c4_y": {"Points": [{"co": {"Y": -1, "X": 1}, "interpolation": 2}]}, "reader": {"audio_bit_rate": 189375, "has_single_image": false, "vcodec": "h264", "has_video": true, "type": "FFmpegReader", "video_length": "937", "audio_timebase": {"den": 48000, "num": 1}, "path": "/home/robsen/Dropbox/Workdir/Repo/SuesseRache-HH-Taxi/TE_SR_Taxi.mp4", "width": 1920, "has_audio": true, "video_bit_rate": 32091692, "channel_layout": 3, "height": 1080, "display_ratio": {"den": 9, "num": 16}, "interlaced_frame": false, "duration": 31.317333221435547, "sample_rate": 48000, "pixel_format": 0, "video_timebase": {"den": 29970, "num": 1}, "file_size": "125628279", "top_field_first": true, "pixel_ratio": {"den": 1, "num": 1}, "acodec": "aac", "audio_stream_index": 1, "video_stream_index": 0, "channels": 2, "fps": {"den": 100, "num": 2997}}, "channel_filter": {"Points": [{"co": {"Y": -1, "X": 1}, "interpolation": 2}]}, "file_id": "Z3LOYBY1PL", "time": {"Points": [{"co": {"Y": 1, "X": 1}, "interpolation": 2}]}}, "value": {"id": "627XQDJ3EP", "start": 0, "end": 31.317333221435547, "position": 21.76, "layer": 1, "image": "/home/robsen/.openshot_qt/thumbnail/Z3LOYBY1PL.png"}, "key": ["clips", {"id": "627XQDJ3EP"}], "partial": false, "type": "update"}, {"old_values": [{"alpha": {"Points": [{"co": {"Y": 1, "X": 1}, "interpolation": 2}]}, "rotation": {"Points": [{"co": {"Y": 0, "X": 1}, "interpolation": 2}]}, "scale_y": {"Points": [{"co": {"Y": 1, "X": 1}, "interpolation": 2}]}, "crop_y": {"Points": [{"co": {"Y": 0, "X": 1}, "interpolation": 2}]}, "perspective_c3_x": {"Points": [{"co": {"Y": -1, "X": 1}, "interpolation": 2}]}, "end": 15, "crop_width": {"Points": [{"co": {"Y": -1, "X": 1}, "interpolation": 2}]}, "position": 8.8, "id": "0AEDFYGQ7J", "wave_color": {"green": {"Points": [{"handle_right": {"Y": 0, "X": 0.5}, "co": {"Y": 123, "X": 1}, "handle_left": {"Y": 1, "X": 0.5}, "handle_type": 0, "interpolation": 0}]}, "blue": {"Points": [{"handle_right": {"Y": 0, "X": 0.5}, "co": {"Y": 255, "X": 1}, "handle_left": {"Y": 1, "X": 0.5}, "handle_type": 0, "interpolation": 0}]}, "alpha": {"Points": [{"handle_right": {"Y": 0, "X": 0.5}, "co": {"Y": 255, "X": 1}, "handle_left": {"Y": 1, "X": 0.5}, "handle_type": 0, "interpolation": 0}]}, "red": {"Points": [{"handle_right": {"Y": 0, "X": 0.5}, "co": {"Y": 0, "X": 1}, "handle_left": {"Y": 1, "X": 0.5}, "handle_type": 0, "interpolation": 0}]}}, "has_video": {"Points": [{"co": {"Y": -1, "X": 1}, "interpolation": 2}]}, "has_audio": {"Points": [{"co": {"Y": -1, "X": 1}, "interpolation": 2}]}, "effects": [], "location_x": {"Points": [{"co": {"Y": 0, "X": 1}, "interpolation": 2}]}, "waveform": false, "title": "taxi_start.mp4", "image": "/home/robsen/.openshot_qt/thumbnail/LGW3TZJV4Q.png", "gravity": 4, "perspective_c2_x": {"Points": [{"co": {"Y": -1, "X": 1}, "interpolation": 2}]}, "perspective_c1_y": {"Points": [{"co": {"Y": -1, "X": 1}, "interpolation": 2}]}, "crop_height": {"Points": [{"co": {"Y": -1, "X": 1}, "interpolation": 2}]}, "crop_x": {"Points": [{"co": {"Y": 0, "X": 1}, "interpolation": 2}]}, "start": 0, "scale": 1, "shear_y": {"Points": [{"co": {"Y": 0, "X": 1}, "interpolation": 2}]}, "display": 0, "volume": {"Points": [{"co": {"Y": 1, "X": 1}, "interpolation": 2}]}, "channel_mapping": {"Points": [{"co": {"Y": -1, "X": 1}, "interpolation": 2}]}, "anchor": 0, "duration": 15.0, "perspective_c3_y": {"Points": [{"co": {"Y": -1, "X": 1}, "interpolation": 2}]}, "shear_x": {"Points": [{"co": {"Y": 0, "X": 1}, "interpolation": 2}]}, "perspective_c4_x": {"Points": [{"co": {"Y": -1, "X": 1}, "interpolation": 2}]}, "location_y": {"Points": [{"co": {"Y": 0, "X": 1}, "interpolation": 2}]}, "scale_x": {"Points": [{"co": {"Y": 1, "X": 1}, "interpolation": 2}]}, "layer": 0, "perspective_c2_y": {"Points": [{"co": {"Y": -1, "X": 1}, "interpolation": 2}]}, "perspective_c1_x": {"Points": [{"co": {"Y": -1, "X": 1}, "interpolation": 2}]}, "perspective_c4_y": {"Points": [{"co": {"Y": -1, "X": 1}, "interpolation": 2}]}, "reader": {"audio_bit_rate": 0, "has_single_image": false, "vcodec": "h264", "has_video": true, "type": "FFmpegReader", "video_length": "375", "audio_timebase": {"den": 1, "num": 1}, "path": "/home/robsen/Dropbox/Workdir/Repo/SuesseRache-HH-Taxi/taxi_start.mp4", "width": 1920, "has_audio": false, "video_bit_rate": 147692, "channel_layout": 4, "height": 1080, "display_ratio": {"den": 9, "num": 16}, "interlaced_frame": false, "duration": 15.0, "sample_rate": 0, "pixel_format": 0, "video_timebase": {"den": 12800, "num": 1}, "file_size": "276924", "top_field_first": true, "pixel_ratio": {"den": 1, "num": 1}, "acodec": "", "audio_stream_index": -1, "video_stream_index": 0, "channels": 0, "fps": {"den": 1, "num": 25}}, "channel_filter": {"Points": [{"co": {"Y": -1, "X": 1}, "interpolation": 2}]}, "file_id": "LGW3TZJV4Q", "time": {"Points": [{"co": {"Y": 1, "X": 1}, "interpolation": 2}]}}, {"alpha": {"Points": [{"co": {"Y": 1, "X": 1}, "interpolation": 2}]}, "rotation": {"Points": [{"co": {"Y": 0, "X": 1}, "interpolation": 2}]}, "scale_y": {"Points": [{"co": {"Y": 1, "X": 1}, "interpolation": 2}]}, "crop_y": {"Points": [{"co": {"Y": 0, "X": 1}, "interpolation": 2}]}, "perspective_c3_x": {"Points": [{"co": {"Y": -1, "X": 1}, "interpolation": 2}]}, "end": 31.317333221435547, "crop_width": {"Points": [{"co": {"Y": -1, "X": 1}, "interpolation": 2}]}, "position": 21.76, "id": "627XQDJ3EP", "wave_color": {"green": {"Points": [{"handle_right": {"Y": 0, "X": 0.5}, "co": {"Y": 123, "X": 1}, "handle_left": {"Y": 1, "X": 0.5}, "handle_type": 0, "interpolation": 0}]}, "blue": {"Points": [{"handle_right": {"Y": 0, "X": 0.5}, "co": {"Y": 255, "X": 1}, "handle_left": {"Y": 1, "X": 0.5}, "handle_type": 0, "interpolation": 0}]}, "alpha": {"Points": [{"handle_right": {"Y": 0, "X": 0.5}, "co": {"Y": 255, "X": 1}, "handle_left": {"Y": 1, "X": 0.5}, "handle_type": 0, "interpolation": 0}]}, "red": {"Points": [{"handle_right": {"Y": 0, "X": 0.5}, "co": {"Y": 0, "X": 1}, "handle_left": {"Y": 1, "X": 0.5}, "handle_type": 0, "interpolation": 0}]}}, "has_video": {"Points": [{"co": {"Y": -1, "X": 1}, "interpolation": 2}]}, "has_audio": {"Points": [{"co": {"Y": -1, "X": 1}, "interpolation": 2}]}, "effects": [], "location_x": {"Points": [{"co": {"Y": 0, "X": 1}, "interpolation": 2}]}, "waveform": false, "title": "TE_SR_Taxi.mp4", "image": "/home/robsen/.openshot_qt/thumbnail/Z3LOYBY1PL.png", "gravity": 4, "perspective_c2_x": {"Points": [{"co": {"Y": -1, "X": 1}, "interpolation": 2}]}, "perspective_c1_y": {"Points": [{"co": {"Y": -1, "X": 1}, "interpolation": 2}]}, "crop_height": {"Points": [{"co": {"Y": -1, "X": 1}, "interpolation": 2}]}, "crop_x": {"Points": [{"co": {"Y": 0, "X": 1}, "interpolation": 2}]}, "start": 0, "scale": 1, "shear_y": {"Points": [{"co": {"Y": 0, "X": 1}, "interpolation": 2}]}, "display": 0, "volume": {"Points": [{"co": {"Y": 1, "X": 1}, "interpolation": 2}]}, "channel_mapping": {"Points": [{"co": {"Y": -1, "X": 1}, "interpolation": 2}]}, "anchor": 0, "duration": 31.317333221435547, "perspective_c3_y": {"Points": [{"co": {"Y": -1, "X": 1}, "interpolation": 2}]}, "shear_x": {"Points": [{"co": {"Y": 0, "X": 1}, "interpolation": 2}]}, "perspective_c4_x": {"Points": [{"co": {"Y": -1, "X": 1}, "interpolation": 2}]}, "location_y": {"Points": [{"co": {"Y": 0, "X": 1}, "interpolation": 2}]}, "scale_x": {"Points": [{"co": {"Y": 1, "X": 1}, "interpolation": 2}]}, "layer": 1, "perspective_c2_y": {"Points": [{"co": {"Y": -1, "X": 1}, "interpolation": 2}]}, "perspective_c1_x": {"Points": [{"co": {"Y": -1, "X": 1}, "interpolation": 2}]}, "perspective_c4_y": {"Points": [{"co": {"Y": -1, "X": 1}, "interpolation": 2}]}, "reader": {"audio_bit_rate": 189375, "has_single_image": false, "vcodec": "h264", "has_video": true, "type": "FFmpegReader", "video_length": "937", "audio_timebase": {"den": 48000, "num": 1}, "path": "/home/robsen/Dropbox/Workdir/Repo/SuesseRache-HH-Taxi/TE_SR_Taxi.mp4", "width": 1920, "has_audio": true, "video_bit_rate": 32091692, "channel_layout": 3, "height": 1080, "display_ratio": {"den": 9, "num": 16}, "interlaced_frame": false, "duration": 31.317333221435547, "sample_rate": 48000, "pixel_format": 0, "video_timebase": {"den": 29970, "num": 1}, "file_size": "125628279", "top_field_first": true, "pixel_ratio": {"den": 1, "num": 1}, "acodec": "aac", "audio_stream_index": 1, "video_stream_index": 0, "channels": 2, "fps": {"den": 100, "num": 2997}}, "channel_filter": {"Points": [{"co": {"Y": -1, "X": 1}, "interpolation": 2}]}, "file_id": "Z3LOYBY1PL", "time": {"Points": [{"co": {"Y": 1, "X": 1}, "interpolation": 2}]}}], "value": {"alpha": {"Points": [{"co": {"Y": 1, "X": 1}, "interpolation": 2}, {"handle_right": {"Y": 0, "X": 0.5}, "co": {"Y": 0, "X": 1}, "handle_left": {"Y": 1, "X": 0.5}, "handle_type": 0, "interpolation": 0}, {"handle_right": {"Y": 0, "X": 0.5}, "co": {"Y": 1, "X": 73}, "handle_left": {"Y": 1, "X": 0.5}, "handle_type": 0, "interpolation": 0}]}, "rotation": {"Points": [{"co": {"Y": 0, "X": 1}, "interpolation": 2}]}, "scale_y": {"Points": [{"co": {"Y": 1, "X": 1}, "interpolation": 2}]}, "crop_y": {"Points": [{"co": {"Y": 0, "X": 1}, "interpolation": 2}]}, "perspective_c3_x": {"Points": [{"co": {"Y": -1, "X": 1}, "interpolation": 2}]}, "end": 15, "crop_width": {"Points": [{"co": {"Y": -1, "X": 1}, "interpolation": 2}]}, "position": 53.075, "id": "PJWPMFXKV3", "wave_color": {"green": {"Points": [{"handle_right": {"Y": 0, "X": 0.5}, "co": {"Y": 123, "X": 1}, "handle_left": {"Y": 1, "X": 0.5}, "handle_type": 0, "interpolation": 0}]}, "blue": {"Points": [{"handle_right": {"Y": 0, "X": 0.5}, "co": {"Y": 255, "X": 1}, "handle_left": {"Y": 1, "X": 0.5}, "handle_type": 0, "interpolation": 0}]}, "alpha": {"Points": [{"handle_right": {"Y": 0, "X": 0.5}, "co": {"Y": 255, "X": 1}, "handle_left": {"Y": 1, "X": 0.5}, "handle_type": 0, "interpolation": 0}]}, "red": {"Points": [{"handle_right": {"Y": 0, "X": 0.5}, "co": {"Y": 0, "X": 1}, "handle_left": {"Y": 1, "X": 0.5}, "handle_type": 0, "interpolation": 0}]}}, "has_video": {"Points": [{"co": {"Y": -1, "X": 1}, "interpolation": 2}]}, "has_audio": {"Points": [{"co": {"Y": -1, "X": 1}, "interpolation": 2}]}, "effects": [], "location_x": {"Points": [{"co": {"Y": 0, "X": 1}, "interpolation": 2}]}, "waveform": false, "title": "arrow.mp4", "image": "/home/robsen/.openshot_qt/thumbnail/X22V56NF57.png", "gravity": 4, "scale_x": {"Points": [{"co": {"Y": 1, "X": 1}, "interpolation": 2}]}, "perspective_c1_y": {"Points": [{"co": {"Y": -1, "X": 1}, "interpolation": 2}]}, "crop_height": {"Points": [{"co": {"Y": -1, "X": 1}, "interpolation": 2}]}, "crop_x": {"Points": [{"co": {"Y": 0, "X": 1}, "interpolation": 2}]}, "start": 0, "scale": 1, "shear_y": {"Points": [{"co": {"Y": 0, "X": 1}, "interpolation": 2}]}, "display": 0, "volume": {"Points": [{"co": {"Y": 1, "X": 1}, "interpolation": 2}]}, "channel_mapping": {"Points": [{"co": {"Y": -1, "X": 1}, "interpolation": 2}]}, "anchor": 0, "duration": 15.0, "perspective_c3_y": {"Points": [{"co": {"Y": -1, "X": 1}, "interpolation": 2}]}, "shear_x": {"Points": [{"co": {"Y": 0, "X": 1}, "interpolation": 2}]}, "perspective_c4_x": {"Points": [{"co": {"Y": -1, "X": 1}, "interpolation": 2}]}, "location_y": {"Points": [{"co": {"Y": 0, "X": 1}, "interpolation": 2}]}, "perspective_c2_x": {"Points": [{"co": {"Y": -1, "X": 1}, "interpolation": 2}]}, "layer": 2, "perspective_c2_y": {"Points": [{"co": {"Y": -1, "X": 1}, "interpolation": 2}]}, "perspective_c1_x": {"Points": [{"co": {"Y": -1, "X": 1}, "interpolation": 2}]}, "perspective_c4_y": {"Points": [{"co": {"Y": -1, "X": 1}, "interpolation": 2}]}, "reader": {"audio_bit_rate": 0, "has_single_image": false, "has_video": true, "type": "FFmpegReader", "video_length": "375", "audio_timebase": {"den": 1, "num": 1}, "path": "/home/robsen/Dropbox/Workdir/Repo/SuesseRache-HH-Taxi/arrow.mp4", "width": 1920, "has_audio": false, "video_bit_rate": 83079, "channel_layout": 4, "height": 1080, "display_ratio": {"den": 9, "num": 16}, "interlaced_frame": false, "video_timebase": {"den": 12800, "num": 1}, "duration": 15.0, "sample_rate": 0, "pixel_format": 0, "fps": {"den": 1, "num": 25}, "file_size": "155774", "top_field_first": true, "pixel_ratio": {"den": 1, "num": 1}, "acodec": "", "audio_stream_index": -1, "video_stream_index": 0, "channels": 0, "vcodec": "h264"}, "channel_filter": {"Points": [{"co": {"Y": -1, "X": 1}, "interpolation": 2}]}, "file_id": "X22V56NF57", "time": {"Points": [{"co": {"Y": 1, "X": 1}, "interpolation": 2}]}}, "key": ["clips"], "partial": false, "type": "insert"}, {"old_values": {"alpha": {"Points": [{"co": {"Y": 1, "X": 1}, "interpolation": 2}]}, "rotation": {"Points": [{"co": {"Y": 0, "X": 1}, "interpolation": 2}]}, "scale_y": {"Points": [{"co": {"Y": 1, "X": 1}, "interpolation": 2}]}, "crop_y": {"Points": [{"co": {"Y": 0, "X": 1}, "interpolation": 2}]}, "perspective_c3_x": {"Points": [{"co": {"Y": -1, "X": 1}, "interpolation": 2}]}, "end": 15.0, "crop_width": {"Points": [{"co": {"Y": -1, "X": 1}, "interpolation": 2}]}, "position": 62.88, "id": "PJWPMFXKV3", "wave_color": {"green": {"Points": [{"handle_right": {"Y": 0, "X": 0.5}, "co": {"Y": 123, "X": 1}, "handle_left": {"Y": 1, "X": 0.5}, "handle_type": 0, "interpolation": 0}]}, "blue": {"Points": [{"handle_right": {"Y": 0, "X": 0.5}, "co": {"Y": 255, "X": 1}, "handle_left": {"Y": 1, "X": 0.5}, "handle_type": 0, "interpolation": 0}]}, "alpha": {"Points": [{"handle_right": {"Y": 0, "X": 0.5}, "co": {"Y": 255, "X": 1}, "handle_left": {"Y": 1, "X": 0.5}, "handle_type": 0, "interpolation": 0}]}, "red": {"Points": [{"handle_right": {"Y": 0, "X": 0.5}, "co": {"Y": 0, "X": 1}, "handle_left": {"Y": 1, "X": 0.5}, "handle_type": 0, "interpolation": 0}]}}, "has_video": {"Points": [{"co": {"Y": -1, "X": 1}, "interpolation": 2}]}, "has_audio": {"Points": [{"co": {"Y": -1, "X": 1}, "interpolation": 2}]}, "effects": [], "location_x": {"Points": [{"co": {"Y": 0, "X": 1}, "interpolation": 2}]}, "waveform": false, "title": "arrow.mp4", "image": "/home/robsen/.openshot_qt/thumbnail/X22V56NF57.png", "gravity": 4, "scale_x": {"Points": [{"co": {"Y": 1, "X": 1}, "interpolation": 2}]}, "perspective_c1_y": {"Points": [{"co": {"Y": -1, "X": 1}, "interpolation": 2}]}, "crop_height": {"Points": [{"co": {"Y": -1, "X": 1}, "interpolation": 2}]}, "crop_x": {"Points": [{"co": {"Y": 0, "X": 1}, "interpolation": 2}]}, "start": 0, "scale": 1, "shear_y": {"Points": [{"co": {"Y": 0, "X": 1}, "interpolation": 2}]}, "display": 0, "volume": {"Points": [{"co": {"Y": 1, "X": 1}, "interpolation": 2}]}, "channel_mapping": {"Points": [{"co": {"Y": -1, "X": 1}, "interpolation": 2}]}, "anchor": 0, "duration": 15.0, "perspective_c3_y": {"Points": [{"co": {"Y": -1, "X": 1}, "interpolation": 2}]}, "shear_x": {"Points": [{"co": {"Y": 0, "X": 1}, "interpolation": 2}]}, "perspective_c4_x": {"Points": [{"co": {"Y": -1, "X": 1}, "interpolation": 2}]}, "location_y": {"Points": [{"co": {"Y": 0, "X": 1}, "interpolation": 2}]}, "perspective_c2_x": {"Points": [{"co": {"Y": -1, "X": 1}, "interpolation": 2}]}, "layer": 2, "perspective_c2_y": {"Points": [{"co": {"Y": -1, "X": 1}, "interpolation": 2}]}, "perspective_c1_x": {"Points": [{"co": {"Y": -1, "X": 1}, "interpolation": 2}]}, "perspective_c4_y": {"Points": [{"co": {"Y": -1, "X": 1}, "interpolation": 2}]}, "reader": {"audio_bit_rate": 0, "has_single_image": false, "vcodec": "h264", "has_video": true, "type": "FFmpegReader", "video_length": "375", "audio_timebase": {"den": 1, "num": 1}, "path": "/home/robsen/Dropbox/Workdir/Repo/SuesseRache-HH-Taxi/arrow.mp4", "width": 1920, "has_audio": false, "video_bit_rate": 83079, "channel_layout": 4, "height": 1080, "display_ratio": {"den": 9, "num": 16}, "interlaced_frame": false, "duration": 15.0, "sample_rate": 0, "pixel_format": 0, "video_timebase": {"den": 12800, "num": 1}, "file_size": "155774", "top_field_first": true, "pixel_ratio": {"den": 1, "num": 1}, "acodec": "", "audio_stream_index": -1, "video_stream_index": 0, "channels": 0, "fps": {"den": 1, "num": 25}}, "channel_filter": {"Points": [{"co": {"Y": -1, "X": 1}, "interpolation": 2}]}, "file_id": "X22V56NF57", "time": {"Points": [{"co": {"Y": 1, "X": 1}, "interpolation": 2}]}}, "value": {"id": "PJWPMFXKV3", "start": 0, "end": 15, "position": 63.04, "layer": 1, "image": "/home/robsen/.openshot_qt/thumbnail/X22V56NF57.png"}, "key": ["clips", {"id": "PJWPMFXKV3"}], "partial": false, "type": "update"}, {"old_values": {"alpha": {"Points": [{"co": {"Y": 1, "X": 1}, "interpolation": 2}]}, "rotation": {"Points": [{"co": {"Y": 0, "X": 1}, "interpolation": 2}]}, "scale_y": {"Points": [{"co": {"Y": 1, "X": 1}, "interpolation": 2}]}, "crop_y": {"Points": [{"co": {"Y": 0, "X": 1}, "interpolation": 2}]}, "perspective_c3_x": {"Points": [{"co": {"Y": -1, "X": 1}, "interpolation": 2}]}, "end": 15, "crop_width": {"Points": [{"co": {"Y": -1, "X": 1}, "interpolation": 2}]}, "position": 63.04, "id": "PJWPMFXKV3", "wave_color": {"green": {"Points": [{"handle_right": {"Y": 0, "X": 0.5}, "co": {"Y": 123, "X": 1}, "handle_left": {"Y": 1, "X": 0.5}, "handle_type": 0, "interpolation": 0}]}, "blue": {"Points": [{"handle_right": {"Y": 0, "X": 0.5}, "co": {"Y": 255, "X": 1}, "handle_left": {"Y": 1, "X": 0.5}, "handle_type": 0, "interpolation": 0}]}, "alpha": {"Points": [{"handle_right": {"Y": 0, "X": 0.5}, "co": {"Y": 255, "X": 1}, "handle_left": {"Y": 1, "X": 0.5}, "handle_type": 0, "interpolation": 0}]}, "red": {"Points": [{"handle_right": {"Y": 0, "X": 0.5}, "co": {"Y": 0, "X": 1}, "handle_left": {"Y": 1, "X": 0.5}, "handle_type": 0, "interpolation": 0}]}}, "has_video": {"Points": [{"co": {"Y": -1, "X": 1}, "interpolation": 2}]}, "has_audio": {"Points": [{"co": {"Y": -1, "X": 1}, "interpolation": 2}]}, "effects": [], "location_x": {"Points": [{"co": {"Y": 0, "X": 1}, "interpolation": 2}]}, "waveform": false, "title": "arrow.mp4", "image": "/home/robsen/.openshot_qt/thumbnail/X22V56NF57.png", "gravity": 4, "perspective_c2_x": {"Points": [{"co": {"Y": -1, "X": 1}, "interpolation": 2}]}, "perspective_c1_y": {"Points": [{"co": {"Y": -1, "X": 1}, "interpolation": 2}]}, "crop_height": {"Points": [{"co": {"Y": -1, "X": 1}, "interpolation": 2}]}, "crop_x": {"Points": [{"co": {"Y": 0, "X": 1}, "interpolation": 2}]}, "start": 0, "scale": 1, "shear_y": {"Points": [{"co": {"Y": 0, "X": 1}, "interpolation": 2}]}, "display": 0, "volume": {"Points": [{"co": {"Y": 1, "X": 1}, "interpolation": 2}]}, "channel_mapping": {"Points": [{"co": {"Y": -1, "X": 1}, "interpolation": 2}]}, "anchor": 0, "duration": 15.0, "perspective_c3_y": {"Points": [{"co": {"Y": -1, "X": 1}, "interpolation": 2}]}, "shear_x": {"Points": [{"co": {"Y": 0, "X": 1}, "interpolation": 2}]}, "perspective_c4_x": {"Points": [{"co": {"Y": -1, "X": 1}, "interpolation": 2}]}, "location_y": {"Points": [{"co": {"Y": 0, "X": 1}, "interpolation": 2}]}, "scale_x": {"Points": [{"co": {"Y": 1, "X": 1}, "interpolation": 2}]}, "layer": 1, "perspective_c2_y": {"Points": [{"co": {"Y": -1, "X": 1}, "interpolation": 2}]}, "perspective_c1_x": {"Points": [{"co": {"Y": -1, "X": 1}, "interpolation": 2}]}, "perspective_c4_y": {"Points": [{"co": {"Y": -1, "X": 1}, "interpolation": 2}]}, "reader": {"audio_bit_rate": 0, "has_single_image": false, "vcodec": "h264", "has_video": true, "type": "FFmpegReader", "video_length": "375", "audio_timebase": {"den": 1, "num": 1}, "path": "/home/robsen/Dropbox/Workdir/Repo/SuesseRache-HH-Taxi/arrow.mp4", "width": 1920, "has_audio": false, "video_bit_rate": 83079, "channel_layout": 4, "height": 1080, "display_ratio": {"den": 9, "num": 16}, "interlaced_frame": false, "duration": 15.0, "sample_rate": 0, "pixel_format": 0, "video_timebase": {"den": 12800, "num": 1}, "file_size": "155774", "top_field_first": true, "pixel_ratio": {"den": 1, "num": 1}, "acodec": "", "audio_stream_index": -1, "video_stream_index": 0, "channels": 0, "fps": {"den": 1, "num": 25}}, "channel_filter": {"Points": [{"co": {"Y": -1, "X": 1}, "interpolation": 2}]}, "file_id": "X22V56NF57", "time": {"Points": [{"co": {"Y": 1, "X": 1}, "interpolation": 2}]}}, "value": {"id": "PJWPMFXKV3", "start": 0, "end": 15, "position": 53.075, "layer": 2, "image": "/home/robsen/.openshot_qt/thumbnail/X22V56NF57.png"}, "key": ["clips", {"id": "PJWPMFXKV3"}], "partial": false, "type": "update"}, {"old_values": {"start": 0, "type": "Mask", "contrast": {"Points": [{"co": {"Y": 3, "X": 1}, "interpolation": 2}]}, "layer": 0, "replace_image": false, "title": "Transition", "end": 2.039999999999999, "reader": {"audio_bit_rate": 0, "has_single_image": true, "vcodec": "", "has_video": true, "type": "QtImageReader", "video_length": "2592000", "audio_timebase": {"den": 1, "num": 1}, "path": "/usr/lib/python3/dist-packages/openshot_qt/transitions/common/fade.svg", "width": 720, "has_audio": false, "video_bit_rate": 0, "channel_layout": 4, "height": 576, "display_ratio": {"den": 4, "num": 5}, "interlaced_frame": false, "duration": 86400, "sample_rate": 0, "pixel_format": -1, "video_timebase": {"den": 30, "num": 1}, "file_size": "1658880", "top_field_first": true, "pixel_ratio": {"den": 1, "num": 1}, "acodec": "", "audio_stream_index": -1, "video_stream_index": -1, "channels": 0, "fps": {"den": 1, "num": 30}}, "brightness": {"Points": [{"handle_right": {"Y": 0, "X": 0.5}, "co": {"Y": 1, "X": 1}, "handle_left": {"Y": 1, "X": 0.5}, "handle_type": 0, "interpolation": 0}, {"handle_right": {"Y": 0, "X": 0.5}, "co": {"Y": -1, "X": 50}, "handle_left": {"Y": 1, "X": 0.5}, "handle_type": 0, "interpolation": 0}]}, "id": "5NBS5H99MA", "position": 21.76}, "value": null, "key": ["effects", {"id": "5NBS5H99MA"}], "partial": false, "type": "delete"}, {"old_values": {"alpha": {"Points": [{"co": {"Y": 1, "X": 1}, "interpolation": 2}]}, "rotation": {"Points": [{"co": {"Y": 0, "X": 1}, "interpolation": 2}]}, "scale_y": {"Points": [{"co": {"Y": 1, "X": 1}, "interpolation": 2}]}, "crop_y": {"Points": [{"co": {"Y": 0, "X": 1}, "interpolation": 2}]}, "perspective_c3_x": {"Points": [{"co": {"Y": -1, "X": 1}, "interpolation": 2}]}, "end": 15, "crop_width": {"Points": [{"co": {"Y": -1, "X": 1}, "interpolation": 2}]}, "position": 8.8, "id": "0AEDFYGQ7J", "wave_color": {"green": {"Points": [{"handle_right": {"Y": 0, "X": 0.5}, "co": {"Y": 123, "X": 1}, "handle_left": {"Y": 1, "X": 0.5}, "handle_type": 0, "interpolation": 0}]}, "blue": {"Points": [{"handle_right": {"Y": 0, "X": 0.5}, "co": {"Y": 255, "X": 1}, "handle_left": {"Y": 1, "X": 0.5}, "handle_type": 0, "interpolation": 0}]}, "alpha": {"Points": [{"handle_right": {"Y": 0, "X": 0.5}, "co": {"Y": 255, "X": 1}, "handle_left": {"Y": 1, "X": 0.5}, "handle_type": 0, "interpolation": 0}]}, "red": {"Points": [{"handle_right": {"Y": 0, "X": 0.5}, "co": {"Y": 0, "X": 1}, "handle_left": {"Y": 1, "X": 0.5}, "handle_type": 0, "interpolation": 0}]}}, "has_video": {"Points": [{"co": {"Y": -1, "X": 1}, "interpolation": 2}]}, "has_audio": {"Points": [{"co": {"Y": -1, "X": 1}, "interpolation": 2}]}, "effects": [], "location_x": {"Points": [{"co": {"Y": 0, "X": 1}, "interpolation": 2}]}, "waveform": false, "title": "taxi_start.mp4", "image": "/home/robsen/.openshot_qt/thumbnail/LGW3TZJV4Q.png", "gravity": 4, "perspective_c2_x": {"Points": [{"co": {"Y": -1, "X": 1}, "interpolation": 2}]}, "perspective_c1_y": {"Points": [{"co": {"Y": -1, "X": 1}, "interpolation": 2}]}, "crop_height": {"Points": [{"co": {"Y": -1, "X": 1}, "interpolation": 2}]}, "crop_x": {"Points": [{"co": {"Y": 0, "X": 1}, "interpolation": 2}]}, "start": 0, "scale": 1, "shear_y": {"Points": [{"co": {"Y": 0, "X": 1}, "interpolation": 2}]}, "display": 0, "volume": {"Points": [{"co": {"Y": 1, "X": 1}, "interpolation": 2}]}, "channel_mapping": {"Points": [{"co": {"Y": -1, "X": 1}, "interpolation": 2}]}, "anchor": 0, "duration": 15.0, "perspective_c3_y": {"Points": [{"co": {"Y": -1, "X": 1}, "interpolation": 2}]}, "shear_x": {"Points": [{"co": {"Y": 0, "X": 1}, "interpolation": 2}]}, "perspective_c4_x": {"Points": [{"co": {"Y": -1, "X": 1}, "interpolation": 2}]}, "location_y": {"Points": [{"co": {"Y": 0, "X": 1}, "interpolation": 2}]}, "scale_x": {"Points": [{"co": {"Y": 1, "X": 1}, "interpolation": 2}]}, "layer": 0, "perspective_c2_y": {"Points": [{"co": {"Y": -1, "X": 1}, "interpolation": 2}]}, "perspective_c1_x": {"Points": [{"co": {"Y": -1, "X": 1}, "interpolation": 2}]}, "perspective_c4_y": {"Points": [{"co": {"Y": -1, "X": 1}, "interpolation": 2}]}, "reader": {"audio_bit_rate": 0, "has_single_image": false, "vcodec": "h264", "has_video": true, "type": "FFmpegReader", "video_length": "375", "audio_timebase": {"den": 1, "num": 1}, "path": "/home/robsen/Dropbox/Workdir/Repo/SuesseRache-HH-Taxi/taxi_start.mp4", "width": 1920, "has_audio": false, "video_bit_rate": 147692, "channel_layout": 4, "height": 1080, "display_ratio": {"den": 9, "num": 16}, "interlaced_frame": false, "duration": 15.0, "sample_rate": 0, "pixel_format": 0, "video_timebase": {"den": 12800, "num": 1}, "file_size": "276924", "top_field_first": true, "pixel_ratio": {"den": 1, "num": 1}, "acodec": "", "audio_stream_index": -1, "video_stream_index": 0, "channels": 0, "fps": {"den": 1, "num": 25}}, "channel_filter": {"Points": [{"co": {"Y": -1, "X": 1}, "interpolation": 2}]}, "file_id": "LGW3TZJV4Q", "time": {"Points": [{"co": {"Y": 1, "X": 1}, "interpolation": 2}]}}, "value": {"alpha": {"Points": [{"co": {"Y": 1, "X": 1}, "interpolation": 2}, {"handle_right": {"Y": 0, "X": 0.5}, "co": {"Y": 1, "X": 289}, "handle_left": {"Y": 1, "X": 0.5}, "handle_type": 0, "interpolation": 0}, {"handle_right": {"Y": 0, "X": 0.5}, "co": {"Y": 0, "X": 361}, "handle_left": {"Y": 1, "X": 0.5}, "handle_type": 0, "interpolation": 0}]}, "rotation": {"Points": [{"co": {"Y": 0, "X": 1}, "interpolation": 2}]}, "scale_y": {"Points": [{"co": {"Y": 1, "X": 1}, "interpolation": 2}]}, "crop_y": {"Points": [{"co": {"Y": 0, "X": 1}, "interpolation": 2}]}, "crop_width": {"Points": [{"co": {"Y": -1, "X": 1}, "interpolation": 2}]}, "end": 15, "perspective_c3_x": {"Points": [{"co": {"Y": -1, "X": 1}, "interpolation": 2}]}, "position": 8.8, "id": "0AEDFYGQ7J", "wave_color": {"green": {"Points": [{"handle_right": {"Y": 0, "X": 0.5}, "co": {"Y": 123, "X": 1}, "handle_left": {"Y": 1, "X": 0.5}, "handle_type": 0, "interpolation": 0}]}, "blue": {"Points": [{"handle_right": {"Y": 0, "X": 0.5}, "co": {"Y": 255, "X": 1}, "handle_left": {"Y": 1, "X": 0.5}, "handle_type": 0, "interpolation": 0}]}, "alpha": {"Points": [{"handle_right": {"Y": 0, "X": 0.5}, "co": {"Y": 255, "X": 1}, "handle_left": {"Y": 1, "X": 0.5}, "handle_type": 0, "interpolation": 0}]}, "red": {"Points": [{"handle_right": {"Y": 0, "X": 0.5}, "co": {"Y": 0, "X": 1}, "handle_left": {"Y": 1, "X": 0.5}, "handle_type": 0, "interpolation": 0}]}}, "has_video": {"Points": [{"co": {"Y": -1, "X": 1}, "interpolation": 2}]}, "has_audio": {"Points": [{"co": {"Y": -1, "X": 1}, "interpolation": 2}]}, "effects": [], "location_x": {"Points": [{"co": {"Y": 0, "X": 1}, "interpolation": 2}]}, "waveform": false, "title": "taxi_start.mp4", "image": "/home/robsen/.openshot_qt/thumbnail/LGW3TZJV4Q.png", "gravity": 4, "scale_x": {"Points": [{"co": {"Y": 1, "X": 1}, "interpolation": 2}]}, "perspective_c1_y": {"Points": [{"co": {"Y": -1, "X": 1}, "interpolation": 2}]}, "crop_height": {"Points": [{"co": {"Y": -1, "X": 1}, "interpolation": 2}]}, "crop_x": {"Points": [{"co": {"Y": 0, "X": 1}, "interpolation": 2}]}, "start": 0, "scale": 1, "shear_y": {"Points": [{"co": {"Y": 0, "X": 1}, "interpolation": 2}]}, "display": 0, "volume": {"Points": [{"co": {"Y": 1, "X": 1}, "interpolation": 2}]}, "channel_mapping": {"Points": [{"co": {"Y": -1, "X": 1}, "interpolation": 2}]}, "anchor": 0, "duration": 15.0, "perspective_c3_y": {"Points": [{"co": {"Y": -1, "X": 1}, "interpolation": 2}]}, "shear_x": {"Points": [{"co": {"Y": 0, "X": 1}, "interpolation": 2}]}, "perspective_c4_x": {"Points": [{"co": {"Y": -1, "X": 1}, "interpolation": 2}]}, "location_y": {"Points": [{"co": {"Y": 0, "X": 1}, "interpolation": 2}]}, "perspective_c2_x": {"Points": [{"co": {"Y": -1, "X": 1}, "interpolation": 2}]}, "layer": 0, "perspective_c2_y": {"Points": [{"co": {"Y": -1, "X": 1}, "interpolation": 2}]}, "perspective_c1_x": {"Points": [{"co": {"Y": -1, "X": 1}, "interpolation": 2}]}, "perspective_c4_y": {"Points": [{"co": {"Y": -1, "X": 1}, "interpolation": 2}]}, "channel_filter": {"Points": [{"co": {"Y": -1, "X": 1}, "interpolation": 2}]}, "time": {"Points": [{"co": {"Y": 1, "X": 1}, "interpolation": 2}]}, "file_id": "LGW3TZJV4Q"}, "key": ["clips", {"id": "0AEDFYGQ7J"}], "partial": false, "type": "update"}, {"old_values": {"alpha": {"Points": [{"co": {"Y": 1, "X": 1}, "interpolation": 2}, {"handle_right": {"Y": 0, "X": 0.5}, "co": {"Y": 1, "X": 289}, "handle_left": {"Y": 1, "X": 0.5}, "handle_type": 0, "interpolation": 0}, {"handle_right": {"Y": 0, "X": 0.5}, "co": {"Y": 0, "X": 361}, "handle_left": {"Y": 1, "X": 0.5}, "handle_type": 0, "interpolation": 0}]}, "rotation": {"Points": [{"co": {"Y": 0, "X": 1}, "interpolation": 2}]}, "scale_y": {"Points": [{"co": {"Y": 1, "X": 1}, "interpolation": 2}]}, "crop_y": {"Points": [{"co": {"Y": 0, "X": 1}, "interpolation": 2}]}, "perspective_c3_x": {"Points": [{"co": {"Y": -1, "X": 1}, "interpolation": 2}]}, "end": 15, "crop_width": {"Points": [{"co": {"Y": -1, "X": 1}, "interpolation": 2}]}, "position": 8.8, "id": "0AEDFYGQ7J", "wave_color": {"green": {"Points": [{"handle_right": {"Y": 0, "X": 0.5}, "co": {"Y": 123, "X": 1}, "handle_left": {"Y": 1, "X": 0.5}, "handle_type": 0, "interpolation": 0}]}, "blue": {"Points": [{"handle_right": {"Y": 0, "X": 0.5}, "co": {"Y": 255, "X": 1}, "handle_left": {"Y": 1, "X": 0.5}, "handle_type": 0, "interpolation": 0}]}, "alpha": {"Points": [{"handle_right": {"Y": 0, "X": 0.5}, "co": {"Y": 255, "X": 1}, "handle_left": {"Y": 1, "X": 0.5}, "handle_type": 0, "interpolation": 0}]}, "red": {"Points": [{"handle_right": {"Y": 0, "X": 0.5}, "co": {"Y": 0, "X": 1}, "handle_left": {"Y": 1, "X": 0.5}, "handle_type": 0, "interpolation": 0}]}}, "has_video": {"Points": [{"co": {"Y": -1, "X": 1}, "interpolation": 2}]}, "has_audio": {"Points": [{"co": {"Y": -1, "X": 1}, "interpolation": 2}]}, "effects": [], "location_x": {"Points": [{"co": {"Y": 0, "X": 1}, "interpolation": 2}]}, "waveform": false, "title": "taxi_start.mp4", "image": "/home/robsen/.openshot_qt/thumbnail/LGW3TZJV4Q.png", "gravity": 4, "perspective_c2_x": {"Points": [{"co": {"Y": -1, "X": 1}, "interpolation": 2}]}, "perspective_c1_y": {"Points": [{"co": {"Y": -1, "X": 1}, "interpolation": 2}]}, "crop_height": {"Points": [{"co": {"Y": -1, "X": 1}, "interpolation": 2}]}, "crop_x": {"Points": [{"co": {"Y": 0, "X": 1}, "interpolation": 2}]}, "start": 0, "scale": 1, "shear_y": {"Points": [{"co": {"Y": 0, "X": 1}, "interpolation": 2}]}, "display": 0, "volume": {"Points": [{"co": {"Y": 1, "X": 1}, "interpolation": 2}]}, "channel_mapping": {"Points": [{"co": {"Y": -1, "X": 1}, "interpolation": 2}]}, "anchor": 0, "duration": 15.0, "perspective_c3_y": {"Points": [{"co": {"Y": -1, "X": 1}, "interpolation": 2}]}, "shear_x": {"Points": [{"co": {"Y": 0, "X": 1}, "interpolation": 2}]}, "perspective_c4_x": {"Points": [{"co": {"Y": -1, "X": 1}, "interpolation": 2}]}, "location_y": {"Points": [{"co": {"Y": 0, "X": 1}, "interpolation": 2}]}, "scale_x": {"Points": [{"co": {"Y": 1, "X": 1}, "interpolation": 2}]}, "layer": 0, "perspective_c2_y": {"Points": [{"co": {"Y": -1, "X": 1}, "interpolation": 2}]}, "perspective_c1_x": {"Points": [{"co": {"Y": -1, "X": 1}, "interpolation": 2}]}, "perspective_c4_y": {"Points": [{"co": {"Y": -1, "X": 1}, "interpolation": 2}]}, "reader": {"audio_bit_rate": 0, "has_single_image": false, "vcodec": "h264", "has_video": true, "type": "FFmpegReader", "video_length": "375", "audio_timebase": {"den": 1, "num": 1}, "path": "/home/robsen/Dropbox/Workdir/Repo/SuesseRache-HH-Taxi/taxi_start.mp4", "width": 1920, "has_audio": false, "video_bit_rate": 147692, "channel_layout": 4, "height": 1080, "display_ratio": {"den": 9, "num": 16}, "interlaced_frame": false, "duration": 15.0, "sample_rate": 0, "pixel_format": 0, "video_timebase": {"den": 12800, "num": 1}, "file_size": "276924", "top_field_first": true, "pixel_ratio": {"den": 1, "num": 1}, "acodec": "", "audio_stream_index": -1, "video_stream_index": 0, "channels": 0, "fps": {"den": 1, "num": 25}}, "channel_filter": {"Points": [{"co": {"Y": -1, "X": 1}, "interpolation": 2}]}, "file_id": "LGW3TZJV4Q", "time": {"Points": [{"co": {"Y": 1, "X": 1}, "interpolation": 2}]}}, "value": {"alpha": {"Points": [{"co": {"Y": 1, "X": 1}, "interpolation": 2}, {"handle_right": {"Y": 0, "X": 0.5}, "co": {"Y": 1, "X": 289}, "handle_left": {"Y": 1, "X": 0.5}, "handle_type": 0, "interpolation": 0}, {"handle_right": {"Y": 0, "X": 0.5}, "co": {"Y": 0, "X": 361}, "handle_left": {"Y": 1, "X": 0.5}, "handle_type": 0, "interpolation": 0}, {"handle_right": {"Y": 0, "X": 0.5}, "co": {"Y": 0, "X": 1}, "handle_left": {"Y": 1, "X": 0.5}, "handle_type": 0, "interpolation": 0}, {"handle_right": {"Y": 0, "X": 0.5}, "co": {"Y": 1, "X": 73}, "handle_left": {"Y": 1, "X": 0.5}, "handle_type": 0, "interpolation": 0}]}, "rotation": {"Points": [{"co": {"Y": 0, "X": 1}, "interpolation": 2}]}, "scale_y": {"Points": [{"co": {"Y": 1, "X": 1}, "interpolation": 2}]}, "crop_y": {"Points": [{"co": {"Y": 0, "X": 1}, "interpolation": 2}]}, "crop_width": {"Points": [{"co": {"Y": -1, "X": 1}, "interpolation": 2}]}, "end": 15, "perspective_c3_x": {"Points": [{"co": {"Y": -1, "X": 1}, "interpolation": 2}]}, "position": 8.8, "id": "0AEDFYGQ7J", "wave_color": {"green": {"Points": [{"handle_right": {"Y": 0, "X": 0.5}, "co": {"Y": 123, "X": 1}, "handle_left": {"Y": 1, "X": 0.5}, "handle_type": 0, "interpolation": 0}]}, "blue": {"Points": [{"handle_right": {"Y": 0, "X": 0.5}, "co": {"Y": 255, "X": 1}, "handle_left": {"Y": 1, "X": 0.5}, "handle_type": 0, "interpolation": 0}]}, "alpha": {"Points": [{"handle_right": {"Y": 0, "X": 0.5}, "co": {"Y": 255, "X": 1}, "handle_left": {"Y": 1, "X": 0.5}, "handle_type": 0, "interpolation": 0}]}, "red": {"Points": [{"handle_right": {"Y": 0, "X": 0.5}, "co": {"Y": 0, "X": 1}, "handle_left": {"Y": 1, "X": 0.5}, "handle_type": 0, "interpolation": 0}]}}, "has_video": {"Points": [{"co": {"Y": -1, "X": 1}, "interpolation": 2}]}, "has_audio": {"Points": [{"co": {"Y": -1, "X": 1}, "interpolation": 2}]}, "effects": [], "location_x": {"Points": [{"co": {"Y": 0, "X": 1}, "interpolation": 2}]}, "waveform": false, "title": "taxi_start.mp4", "image": "/home/robsen/.openshot_qt/thumbnail/LGW3TZJV4Q.png", "gravity": 4, "scale_x": {"Points": [{"co": {"Y": 1, "X": 1}, "interpolation": 2}]}, "perspective_c1_y": {"Points": [{"co": {"Y": -1, "X": 1}, "interpolation": 2}]}, "crop_height": {"Points": [{"co": {"Y": -1, "X": 1}, "interpolation": 2}]}, "crop_x": {"Points": [{"co": {"Y": 0, "X": 1}, "interpolation": 2}]}, "start": 0, "scale": 1, "shear_y": {"Points": [{"co": {"Y": 0, "X": 1}, "interpolation": 2}]}, "display": 0, "volume": {"Points": [{"co": {"Y": 1, "X": 1}, "interpolation": 2}]}, "channel_mapping": {"Points": [{"co": {"Y": -1, "X": 1}, "interpolation": 2}]}, "anchor": 0, "duration": 15.0, "perspective_c3_y": {"Points": [{"co": {"Y": -1, "X": 1}, "interpolation": 2}]}, "shear_x": {"Points": [{"co": {"Y": 0, "X": 1}, "interpolation": 2}]}, "perspective_c4_x": {"Points": [{"co": {"Y": -1, "X": 1}, "interpolation": 2}]}, "location_y": {"Points": [{"co": {"Y": 0, "X": 1}, "interpolation": 2}]}, "perspective_c2_x": {"Points": [{"co": {"Y": -1, "X": 1}, "interpolation": 2}]}, "layer": 0, "perspective_c2_y": {"Points": [{"co": {"Y": -1, "X": 1}, "interpolation": 2}]}, "perspective_c1_x": {"Points": [{"co": {"Y": -1, "X": 1}, "interpolation": 2}]}, "perspective_c4_y": {"Points": [{"co": {"Y": -1, "X": 1}, "interpolation": 2}]}, "channel_filter": {"Points": [{"co": {"Y": -1, "X": 1}, "interpolation": 2}]}, "time": {"Points": [{"co": {"Y": 1, "X": 1}, "interpolation": 2}]}, "file_id": "LGW3TZJV4Q"}, "key": ["clips", {"id": "0AEDFYGQ7J"}], "partial": false, "type": "update"}, {"old_values": {"alpha": {"Points": [{"co": {"Y": 1, "X": 1}, "interpolation": 2}]}, "rotation": {"Points": [{"co": {"Y": 0, "X": 1}, "interpolation": 2}]}, "scale_y": {"Points": [{"co": {"Y": 1, "X": 1}, "interpolation": 2}]}, "crop_y": {"Points": [{"co": {"Y": 0, "X": 1}, "interpolation": 2}]}, "perspective_c3_x": {"Points": [{"co": {"Y": -1, "X": 1}, "interpolation": 2}]}, "end": 15, "crop_width": {"Points": [{"co": {"Y": -1, "X": 1}, "interpolation": 2}]}, "position": 53.075, "id": "PJWPMFXKV3", "wave_color": {"green": {"Points": [{"handle_right": {"Y": 0, "X": 0.5}, "co": {"Y": 123, "X": 1}, "handle_left": {"Y": 1, "X": 0.5}, "handle_type": 0, "interpolation": 0}]}, "blue": {"Points": [{"handle_right": {"Y": 0, "X": 0.5}, "co": {"Y": 255, "X": 1}, "handle_left": {"Y": 1, "X": 0.5}, "handle_type": 0, "interpolation": 0}]}, "alpha": {"Points": [{"handle_right": {"Y": 0, "X": 0.5}, "co": {"Y": 255, "X": 1}, "handle_left": {"Y": 1, "X": 0.5}, "handle_type": 0, "interpolation": 0}]}, "red": {"Points": [{"handle_right": {"Y": 0, "X": 0.5}, "co": {"Y": 0, "X": 1}, "handle_left": {"Y": 1, "X": 0.5}, "handle_type": 0, "interpolation": 0}]}}, "has_video": {"Points": [{"co": {"Y": -1, "X": 1}, "interpolation": 2}]}, "has_audio": {"Points": [{"co": {"Y": -1, "X": 1}, "interpolation": 2}]}, "effects": [], "location_x": {"Points": [{"co": {"Y": 0, "X": 1}, "interpolation": 2}]}, "waveform": false, "title": "arrow.mp4", "image": "/home/robsen/.openshot_qt/thumbnail/X22V56NF57.png", "gravity": 4, "perspective_c2_x": {"Points": [{"co": {"Y": -1, "X": 1}, "interpolation": 2}]}, "perspective_c1_y": {"Points": [{"co": {"Y": -1, "X": 1}, "interpolation": 2}]}, "crop_height": {"Points": [{"co": {"Y": -1, "X": 1}, "interpolation": 2}]}, "crop_x": {"Points": [{"co": {"Y": 0, "X": 1}, "interpolation": 2}]}, "start": 0, "scale": 1, "shear_y": {"Points": [{"co": {"Y": 0, "X": 1}, "interpolation": 2}]}, "display": 0, "volume": {"Points": [{"co": {"Y": 1, "X": 1}, "interpolation": 2}]}, "channel_mapping": {"Points": [{"co": {"Y": -1, "X": 1}, "interpolation": 2}]}, "anchor": 0, "duration": 15.0, "perspective_c3_y": {"Points": [{"co": {"Y": -1, "X": 1}, "interpolation": 2}]}, "shear_x": {"Points": [{"co": {"Y": 0, "X": 1}, "interpolation": 2}]}, "perspective_c4_x": {"Points": [{"co": {"Y": -1, "X": 1}, "interpolation": 2}]}, "location_y": {"Points": [{"co": {"Y": 0, "X": 1}, "interpolation": 2}]}, "scale_x": {"Points": [{"co": {"Y": 1, "X": 1}, "interpolation": 2}]}, "layer": 2, "perspective_c2_y": {"Points": [{"co": {"Y": -1, "X": 1}, "interpolation": 2}]}, "perspective_c1_x": {"Points": [{"co": {"Y": -1, "X": 1}, "interpolation": 2}]}, "perspective_c4_y": {"Points": [{"co": {"Y": -1, "X": 1}, "interpolation": 2}]}, "reader": {"audio_bit_rate": 0, "has_single_image": false, "vcodec": "h264", "has_video": true, "type": "FFmpegReader", "video_length": "375", "audio_timebase": {"den": 1, "num": 1}, "path": "/home/robsen/Dropbox/Workdir/Repo/SuesseRache-HH-Taxi/arrow.mp4", "width": 1920, "has_audio": false, "video_bit_rate": 83079, "channel_layout": 4, "height": 1080, "display_ratio": {"den": 9, "num": 16}, "interlaced_frame": false, "duration": 15.0, "sample_rate": 0, "pixel_format": 0, "video_timebase": {"den": 12800, "num": 1}, "file_size": "155774", "top_field_first": true, "pixel_ratio": {"den": 1, "num": 1}, "acodec": "", "audio_stream_index": -1, "video_stream_index": 0, "channels": 0, "fps": {"den": 1, "num": 25}}, "channel_filter": {"Points": [{"co": {"Y": -1, "X": 1}, "interpolation": 2}]}, "file_id": "X22V56NF57", "time": {"Points": [{"co": {"Y": 1, "X": 1}, "interpolation": 2}]}}, "value": {"alpha": {"Points": [{"co": {"Y": 1, "X": 1}, "interpolation": 2}, {"handle_right": {"Y": 0, "X": 0.5}, "co": {"Y": 0, "X": 1}, "handle_left": {"Y": 1, "X": 0.5}, "handle_type": 0, "interpolation": 0}, {"handle_right": {"Y": 0, "X": 0.5}, "co": {"Y": 1, "X": 73}, "handle_left": {"Y": 1, "X": 0.5}, "handle_type": 0, "interpolation": 0}]}, "rotation": {"Points": [{"co": {"Y": 0, "X": 1}, "interpolation": 2}]}, "scale_y": {"Points": [{"co": {"Y": 1, "X": 1}, "interpolation": 2}]}, "crop_y": {"Points": [{"co": {"Y": 0, "X": 1}, "interpolation": 2}]}, "crop_width": {"Points": [{"co": {"Y": -1, "X": 1}, "interpolation": 2}]}, "end": 15, "perspective_c3_x": {"Points": [{"co": {"Y": -1, "X": 1}, "interpolation": 2}]}, "position": 53.075, "id": "PJWPMFXKV3", "wave_color": {"green": {"Points": [{"handle_right": {"Y": 0, "X": 0.5}, "co": {"Y": 123, "X": 1}, "handle_left": {"Y": 1, "X": 0.5}, "handle_type": 0, "interpolation": 0}]}, "blue": {"Points": [{"handle_right": {"Y": 0, "X": 0.5}, "co": {"Y": 255, "X": 1}, "handle_left": {"Y": 1, "X": 0.5}, "handle_type": 0, "interpolation": 0}]}, "alpha": {"Points": [{"handle_right": {"Y": 0, "X": 0.5}, "co": {"Y": 255, "X": 1}, "handle_left": {"Y": 1, "X": 0.5}, "handle_type": 0, "interpolation": 0}]}, "red": {"Points": [{"handle_right": {"Y": 0, "X": 0.5}, "co": {"Y": 0, "X": 1}, "handle_left": {"Y": 1, "X": 0.5}, "handle_type": 0, "interpolation": 0}]}}, "has_video": {"Points": [{"co": {"Y": -1, "X": 1}, "interpolation": 2}]}, "has_audio": {"Points": [{"co": {"Y": -1, "X": 1}, "interpolation": 2}]}, "effects": [], "location_x": {"Points": [{"co": {"Y": 0, "X": 1}, "interpolation": 2}]}, "waveform": false, "title": "arrow.mp4", "image": "/home/robsen/.openshot_qt/thumbnail/X22V56NF57.png", "gravity": 4, "scale_x": {"Points": [{"co": {"Y": 1, "X": 1}, "interpolation": 2}]}, "perspective_c1_y": {"Points": [{"co": {"Y": -1, "X": 1}, "interpolation": 2}]}, "crop_height": {"Points": [{"co": {"Y": -1, "X": 1}, "interpolation": 2}]}, "crop_x": {"Points": [{"co": {"Y": 0, "X": 1}, "interpolation": 2}]}, "start": 0, "scale": 1, "shear_y": {"Points": [{"co": {"Y": 0, "X": 1}, "interpolation": 2}]}, "display": 0, "volume": {"Points": [{"co": {"Y": 1, "X": 1}, "interpolation": 2}]}, "channel_mapping": {"Points": [{"co": {"Y": -1, "X": 1}, "interpolation": 2}]}, "anchor": 0, "duration": 15.0, "perspective_c3_y": {"Points": [{"co": {"Y": -1, "X": 1}, "interpolation": 2}]}, "shear_x": {"Points": [{"co": {"Y": 0, "X": 1}, "interpolation": 2}]}, "perspective_c4_x": {"Points": [{"co": {"Y": -1, "X": 1}, "interpolation": 2}]}, "location_y": {"Points": [{"co": {"Y": 0, "X": 1}, "interpolation": 2}]}, "perspective_c2_x": {"Points": [{"co": {"Y": -1, "X": 1}, "interpolation": 2}]}, "layer": 2, "perspective_c2_y": {"Points": [{"co": {"Y": -1, "X": 1}, "interpolation": 2}]}, "perspective_c1_x": {"Points": [{"co": {"Y": -1, "X": 1}, "interpolation": 2}]}, "perspective_c4_y": {"Points": [{"co": {"Y": -1, "X": 1}, "interpolation": 2}]}, "channel_filter": {"Points": [{"co": {"Y": -1, "X": 1}, "interpolation": 2}]}, "time": {"Points": [{"co": {"Y": 1, "X": 1}, "interpolation": 2}]}, "file_id": "X22V56NF57"}, "key": ["clips", {"id": "PJWPMFXKV3"}], "partial": false, "type": "update"}]}, "key": ["history"], "partial": false, "type": "update"}, {"old_values": null, "value": {"redo": [], "undo": [{"old_values": [{"number": 0, "label": "Spur 1", "id": "UBOPYJIV1S", "y": 0}, {"number": 1, "label": "Spur 2", "id": "SHY16ICR2M", "y": 0}], "value": {"number": 2, "y": 0, "label": "", "id": "E44ZNJSI3Z", "lock": false}, "key": ["layers"], "partial": false, "type": "insert"}, {"old_values": [], "value": {"audio_bit_rate": 0, "has_single_image": false, "media_type": "video", "id": "LGW3TZJV4Q", "type": "FFmpegReader", "has_video": true, "video_length": "375", "audio_timebase": {"den": 1, "num": 1}, "path": "/home/robsen/Dropbox/Workdir/Repo/SuesseRache-HH-Taxi/taxi_start.mp4", "width": 1920, "has_audio": false, "video_bit_rate": 147692, "channel_layout": 4, "height": 1080, "vcodec": "h264", "display_ratio": {"den": 9, "num": 16}, "interlaced_frame": false, "duration": 15, "sample_rate": 0, "pixel_format": 0, "video_timebase": {"den": 12800, "num": 1}, "file_size": "276924", "top_field_first": true, "pixel_ratio": {"den": 1, "num": 1}, "acodec": "", "audio_stream_index": -1, "video_stream_index": 0, "channels": 0, "fps": {"den": 1, "num": 25}}, "key": ["files"], "partial": false, "type": "insert"}, {"old_values": [{"audio_bit_rate": 0, "has_single_image": false, "media_type": "video", "id": "LGW3TZJV4Q", "type": "FFmpegReader", "has_video": true, "video_length": "375", "audio_timebase": {"den": 1, "num": 1}, "path": "/home/robsen/Dropbox/Workdir/Repo/SuesseRache-HH-Taxi/taxi_start.mp4", "width": 1920, "has_audio": false, "video_bit_rate": 147692, "channel_layout": 4, "height": 1080, "vcodec": "h264", "display_ratio": {"den": 9, "num": 16}, "interlaced_frame": false, "duration": 15, "sample_rate": 0, "pixel_format": 0, "video_timebase": {"den": 12800, "num": 1}, "file_size": "276924", "top_field_first": true, "pixel_ratio": {"den": 1, "num": 1}, "acodec": "", "audio_stream_index": -1, "video_stream_index": 0, "channels": 0, "fps": {"den": 1, "num": 25}}], "value": {"audio_bit_rate": 189375, "has_single_image": false, "media_type": "video", "id": "Z3LOYBY1PL", "type": "FFmpegReader", "has_video": true, "video_length": "937", "audio_timebase": {"den": 48000, "num": 1}, "path": "/home/robsen/Dropbox/Workdir/Repo/SuesseRache-HH-Taxi/TE_SR_Taxi.mp4", "width": 1920, "has_audio": true, "video_bit_rate": 32091692, "channel_layout": 3, "height": 1080, "vcodec": "h264", "display_ratio": {"den": 9, "num": 16}, "interlaced_frame": false, "duration": 31.317333221435547, "sample_rate": 48000, "pixel_format": 0, "video_timebase": {"den": 29970, "num": 1}, "file_size": "125628279", "top_field_first": true, "pixel_ratio": {"den": 1, "num": 1}, "acodec": "aac", "audio_stream_index": 1, "video_stream_index": 0, "channels": 2, "fps": {"den": 100, "num": 2997}}, "key": ["files"], "partial": false, "type": "insert"}, {"old_values": [{"audio_bit_rate": 0, "has_single_image": false, "media_type": "video", "id": "LGW3TZJV4Q", "type": "FFmpegReader", "has_video": true, "video_length": "375", "audio_timebase": {"den": 1, "num": 1}, "path": "/home/robsen/Dropbox/Workdir/Repo/SuesseRache-HH-Taxi/taxi_start.mp4", "width": 1920, "has_audio": false, "video_bit_rate": 147692, "channel_layout": 4, "height": 1080, "vcodec": "h264", "display_ratio": {"den": 9, "num": 16}, "interlaced_frame": false, "duration": 15, "sample_rate": 0, "pixel_format": 0, "video_timebase": {"den": 12800, "num": 1}, "file_size": "276924", "top_field_first": true, "pixel_ratio": {"den": 1, "num": 1}, "acodec": "", "audio_stream_index": -1, "video_stream_index": 0, "channels": 0, "fps": {"den": 1, "num": 25}}, {"audio_bit_rate": 189375, "has_single_image": false, "media_type": "video", "id": "Z3LOYBY1PL", "type": "FFmpegReader", "has_video": true, "video_length": "937", "audio_timebase": {"den": 48000, "num": 1}, "path": "/home/robsen/Dropbox/Workdir/Repo/SuesseRache-HH-Taxi/TE_SR_Taxi.mp4", "width": 1920, "has_audio": true, "video_bit_rate": 32091692, "channel_layout": 3, "height": 1080, "vcodec": "h264", "display_ratio": {"den": 9, "num": 16}, "interlaced_frame": false, "duration": 31.317333221435547, "sample_rate": 48000, "pixel_format": 0, "video_timebase": {"den": 29970, "num": 1}, "file_size": "125628279", "top_field_first": true, "pixel_ratio": {"den": 1, "num": 1}, "acodec": "aac", "audio_stream_index": 1, "video_stream_index": 0, "channels": 2, "fps": {"den": 100, "num": 2997}}], "value": {"audio_bit_rate": 0, "has_single_image": false, "media_type": "video", "id": "X22V56NF57", "type": "FFmpegReader", "has_video": true, "video_length": "375", "audio_timebase": {"den": 1, "num": 1}, "path": "/home/robsen/Dropbox/Workdir/Repo/SuesseRache-HH-Taxi/arrow.mp4", "width": 1920, "has_audio": false, "video_bit_rate": 83079, "channel_layout": 4, "height": 1080, "vcodec": "h264", "display_ratio": {"den": 9, "num": 16}, "interlaced_frame": false, "duration": 15, "sample_rate": 0, "pixel_format": 0, "video_timebase": {"den": 12800, "num": 1}, "file_size": "155774", "top_field_first": true, "pixel_ratio": {"den": 1, "num": 1}, "acodec": "", "audio_stream_index": -1, "video_stream_index": 0, "channels": 0, "fps": {"den": 1, "num": 25}}, "key": ["files"], "partial": false, "type": "insert"}, {"old_values": [], "value": {"alpha": {"Points": [{"co": {"Y": 1, "X": 1}, "interpolation": 2}, {"handle_right": {"Y": 0, "X": 0.5}, "co": {"Y": 1, "X": 289}, "handle_left": {"Y": 1, "X": 0.5}, "handle_type": 0, "interpolation": 0}, {"handle_right": {"Y": 0, "X": 0.5}, "co": {"Y": 0, "X": 361}, "handle_left": {"Y": 1, "X": 0.5}, "handle_type": 0, "interpolation": 0}, {"handle_right": {"Y": 0, "X": 0.5}, "co": {"Y": 0, "X": 1}, "handle_left": {"Y": 1, "X": 0.5}, "handle_type": 0, "interpolation": 0}, {"handle_right": {"Y": 0, "X": 0.5}, "co": {"Y": 1, "X": 73}, "handle_left": {"Y": 1, "X": 0.5}, "handle_type": 0, "interpolation": 0}]}, "rotation": {"Points": [{"co": {"Y": 0, "X": 1}, "interpolation": 2}]}, "scale_y": {"Points": [{"co": {"Y": 1, "X": 1}, "interpolation": 2}]}, "crop_y": {"Points": [{"co": {"Y": 0, "X": 1}, "interpolation": 2}]}, "perspective_c3_x": {"Points": [{"co": {"Y": -1, "X": 1}, "interpolation": 2}]}, "end": 15, "crop_width": {"Points": [{"co": {"Y": -1, "X": 1}, "interpolation": 2}]}, "position": 8.8, "id": "0AEDFYGQ7J", "wave_color": {"green": {"Points": [{"handle_right": {"Y": 0, "X": 0.5}, "co": {"Y": 123, "X": 1}, "handle_left": {"Y": 1, "X": 0.5}, "handle_type": 0, "interpolation": 0}]}, "blue": {"Points": [{"handle_right": {"Y": 0, "X": 0.5}, "co": {"Y": 255, "X": 1}, "handle_left": {"Y": 1, "X": 0.5}, "handle_type": 0, "interpolation": 0}]}, "alpha": {"Points": [{"handle_right": {"Y": 0, "X": 0.5}, "co": {"Y": 255, "X": 1}, "handle_left": {"Y": 1, "X": 0.5}, "handle_type": 0, "interpolation": 0}]}, "red": {"Points": [{"handle_right": {"Y": 0, "X": 0.5}, "co": {"Y": 0, "X": 1}, "handle_left": {"Y": 1, "X": 0.5}, "handle_type": 0, "interpolation": 0}]}}, "has_video": {"Points": [{"co": {"Y": -1, "X": 1}, "interpolation": 2}]}, "has_audio": {"Points": [{"co": {"Y": -1, "X": 1}, "interpolation": 2}]}, "effects": [], "location_x": {"Points": [{"co": {"Y": 0, "X": 1}, "interpolation": 2}]}, "waveform": false, "title": "taxi_start.mp4", "image": "/home/robsen/.openshot_qt/thumbnail/LGW3TZJV4Q.png", "gravity": 4, "scale_x": {"Points": [{"co": {"Y": 1, "X": 1}, "interpolation": 2}]}, "perspective_c1_y": {"Points": [{"co": {"Y": -1, "X": 1}, "interpolation": 2}]}, "crop_height": {"Points": [{"co": {"Y": -1, "X": 1}, "interpolation": 2}]}, "crop_x": {"Points": [{"co": {"Y": 0, "X": 1}, "interpolation": 2}]}, "start": 0, "scale": 1, "shear_y": {"Points": [{"co": {"Y": 0, "X": 1}, "interpolation": 2}]}, "display": 0, "volume": {"Points": [{"co": {"Y": 1, "X": 1}, "interpolation": 2}]}, "channel_mapping": {"Points": [{"co": {"Y": -1, "X": 1}, "interpolation": 2}]}, "anchor": 0, "duration": 15.0, "perspective_c3_y": {"Points": [{"co": {"Y": -1, "X": 1}, "interpolation": 2}]}, "shear_x": {"Points": [{"co": {"Y": 0, "X": 1}, "interpolation": 2}]}, "perspective_c4_x": {"Points": [{"co": {"Y": -1, "X": 1}, "interpolation": 2}]}, "location_y": {"Points": [{"co": {"Y": 0, "X": 1}, "interpolation": 2}]}, "perspective_c2_x": {"Points": [{"co": {"Y": -1, "X": 1}, "interpolation": 2}]}, "layer": 0, "perspective_c2_y": {"Points": [{"co": {"Y": -1, "X": 1}, "interpolation": 2}]}, "perspective_c1_x": {"Points": [{"co": {"Y": -1, "X": 1}, "interpolation": 2}]}, "perspective_c4_y": {"Points": [{"co": {"Y": -1, "X": 1}, "interpolation": 2}]}, "reader": {"audio_bit_rate": 0, "has_single_image": false, "has_video": true, "type": "FFmpegReader", "video_length": "375", "audio_timebase": {"den": 1, "num": 1}, "path": "/home/robsen/Dropbox/Workdir/Repo/SuesseRache-HH-Taxi/taxi_start.mp4", "width": 1920, "has_audio": false, "video_bit_rate": 147692, "channel_layout": 4, "height": 1080, "display_ratio": {"den": 9, "num": 16}, "interlaced_frame": false, "video_timebase": {"den": 12800, "num": 1}, "duration": 15.0, "sample_rate": 0, "pixel_format": 0, "fps": {"den": 1, "num": 25}, "file_size": "276924", "top_field_first": true, "pixel_ratio": {"den": 1, "num": 1}, "acodec": "", "audio_stream_index": -1, "video_stream_index": 0, "channels": 0, "vcodec": "h264"}, "channel_filter": {"Points": [{"co": {"Y": -1, "X": 1}, "interpolation": 2}]}, "file_id": "LGW3TZJV4Q", "time": {"Points": [{"co": {"Y": 1, "X": 1}, "interpolation": 2}]}}, "key": ["clips"], "partial": false, "type": "insert"}, {"old_values": null, "value": {"id": "0AEDFYGQ7J", "start": 0, "end": 15, "position": 8.8, "layer": 0, "image": "/home/robsen/.openshot_qt/thumbnail/LGW3TZJV4Q.png"}, "key": ["clips", {"id": "0AEDFYGQ7J"}], "partial": false, "type": "update"}, {"old_values": null, "value": {"id": "0AEDFYGQ7J", "start": 0, "end": 15, "position": 8.8, "layer": 0, "image": "/home/robsen/.openshot_qt/thumbnail/LGW3TZJV4Q.png"}, "key": ["clips", {"id": "0AEDFYGQ7J"}], "partial": false, "type": "update"}, {"old_values": [{"alpha": {"Points": [{"co": {"Y": 1, "X": 1}, "interpolation": 2}]}, "rotation": {"Points": [{"co": {"Y": 0, "X": 1}, "interpolation": 2}]}, "scale_y": {"Points": [{"co": {"Y": 1, "X": 1}, "interpolation": 2}]}, "crop_y": {"Points": [{"co": {"Y": 0, "X": 1}, "interpolation": 2}]}, "perspective_c3_x": {"Points": [{"co": {"Y": -1, "X": 1}, "interpolation": 2}]}, "end": 15, "crop_width": {"Points": [{"co": {"Y": -1, "X": 1}, "interpolation": 2}]}, "position": 8.8, "id": "0AEDFYGQ7J", "wave_color": {"green": {"Points": [{"handle_right": {"Y": 0, "X": 0.5}, "co": {"Y": 123, "X": 1}, "handle_left": {"Y": 1, "X": 0.5}, "handle_type": 0, "interpolation": 0}]}, "blue": {"Points": [{"handle_right": {"Y": 0, "X": 0.5}, "co": {"Y": 255, "X": 1}, "handle_left": {"Y": 1, "X": 0.5}, "handle_type": 0, "interpolation": 0}]}, "alpha": {"Points": [{"handle_right": {"Y": 0, "X": 0.5}, "co": {"Y": 255, "X": 1}, "handle_left": {"Y": 1, "X": 0.5}, "handle_type": 0, "interpolation": 0}]}, "red": {"Points": [{"handle_right": {"Y": 0, "X": 0.5}, "co": {"Y": 0, "X": 1}, "handle_left": {"Y": 1, "X": 0.5}, "handle_type": 0, "interpolation": 0}]}}, "has_video": {"Points": [{"co": {"Y": -1, "X": 1}, "interpolation": 2}]}, "has_audio": {"Points": [{"co": {"Y": -1, "X": 1}, "interpolation": 2}]}, "effects": [], "location_x": {"Points": [{"co": {"Y": 0, "X": 1}, "interpolation": 2}]}, "waveform": false, "title": "taxi_start.mp4", "image": "/home/robsen/.openshot_qt/thumbnail/LGW3TZJV4Q.png", "gravity": 4, "perspective_c2_x": {"Points": [{"co": {"Y": -1, "X": 1}, "interpolation": 2}]}, "perspective_c1_y": {"Points": [{"co": {"Y": -1, "X": 1}, "interpolation": 2}]}, "crop_height": {"Points": [{"co": {"Y": -1, "X": 1}, "interpolation": 2}]}, "crop_x": {"Points": [{"co": {"Y": 0, "X": 1}, "interpolation": 2}]}, "start": 0, "scale": 1, "shear_y": {"Points": [{"co": {"Y": 0, "X": 1}, "interpolation": 2}]}, "display": 0, "volume": {"Points": [{"co": {"Y": 1, "X": 1}, "interpolation": 2}]}, "channel_mapping": {"Points": [{"co": {"Y": -1, "X": 1}, "interpolation": 2}]}, "anchor": 0, "duration": 15.0, "perspective_c3_y": {"Points": [{"co": {"Y": -1, "X": 1}, "interpolation": 2}]}, "shear_x": {"Points": [{"co": {"Y": 0, "X": 1}, "interpolation": 2}]}, "perspective_c4_x": {"Points": [{"co": {"Y": -1, "X": 1}, "interpolation": 2}]}, "location_y": {"Points": [{"co": {"Y": 0, "X": 1}, "interpolation": 2}]}, "scale_x": {"Points": [{"co": {"Y": 1, "X": 1}, "interpolation": 2}]}, "layer": 0, "perspective_c2_y": {"Points": [{"co": {"Y": -1, "X": 1}, "interpolation": 2}]}, "perspective_c1_x": {"Points": [{"co": {"Y": -1, "X": 1}, "interpolation": 2}]}, "perspective_c4_y": {"Points": [{"co": {"Y": -1, "X": 1}, "interpolation": 2}]}, "reader": {"audio_bit_rate": 0, "has_single_image": false, "vcodec": "h264", "has_video": true, "type": "FFmpegReader", "video_length": "375", "audio_timebase": {"den": 1, "num": 1}, "path": "/home/robsen/Dropbox/Workdir/Repo/SuesseRache-HH-Taxi/taxi_start.mp4", "width": 1920, "has_audio": false, "video_bit_rate": 147692, "channel_layout": 4, "height": 1080, "display_ratio": {"den": 9, "num": 16}, "interlaced_frame": false, "duration": 15.0, "sample_rate": 0, "pixel_format": 0, "video_timebase": {"den": 12800, "num": 1}, "file_size": "276924", "top_field_first": true, "pixel_ratio": {"den": 1, "num": 1}, "acodec": "", "audio_stream_index": -1, "video_stream_index": 0, "channels": 0, "fps": {"den": 1, "num": 25}}, "channel_filter": {"Points": [{"co": {"Y": -1, "X": 1}, "interpolation": 2}]}, "file_id": "LGW3TZJV4Q", "time": {"Points": [{"co": {"Y": 1, "X": 1}, "interpolation": 2}]}}], "value": {"alpha": {"Points": [{"co": {"Y": 1, "X": 1}, "interpolation": 2}]}, "rotation": {"Points": [{"co": {"Y": 0, "X": 1}, "interpolation": 2}]}, "scale_y": {"Points": [{"co": {"Y": 1, "X": 1}, "interpolation": 2}]}, "crop_y": {"Points": [{"co": {"Y": 0, "X": 1}, "interpolation": 2}]}, "perspective_c3_x": {"Points": [{"co": {"Y": -1, "X": 1}, "interpolation": 2}]}, "end": 31.317333221435547, "crop_width": {"Points": [{"co": {"Y": -1, "X": 1}, "interpolation": 2}]}, "position": 21.76, "id": "627XQDJ3EP", "wave_color": {"green": {"Points": [{"handle_right": {"Y": 0, "X": 0.5}, "co": {"Y": 123, "X": 1}, "handle_left": {"Y": 1, "X": 0.5}, "handle_type": 0, "interpolation": 0}]}, "blue": {"Points": [{"handle_right": {"Y": 0, "X": 0.5}, "co": {"Y": 255, "X": 1}, "handle_left": {"Y": 1, "X": 0.5}, "handle_type": 0, "interpolation": 0}]}, "alpha": {"Points": [{"handle_right": {"Y": 0, "X": 0.5}, "co": {"Y": 255, "X": 1}, "handle_left": {"Y": 1, "X": 0.5}, "handle_type": 0, "interpolation": 0}]}, "red": {"Points": [{"handle_right": {"Y": 0, "X": 0.5}, "co": {"Y": 0, "X": 1}, "handle_left": {"Y": 1, "X": 0.5}, "handle_type": 0, "interpolation": 0}]}}, "has_video": {"Points": [{"co": {"Y": -1, "X": 1}, "interpolation": 2}]}, "has_audio": {"Points": [{"co": {"Y": -1, "X": 1}, "interpolation": 2}]}, "effects": [], "location_x": {"Points": [{"co": {"Y": 0, "X": 1}, "interpolation": 2}]}, "waveform": false, "title": "TE_SR_Taxi.mp4", "image": "/home/robsen/.openshot_qt/thumbnail/Z3LOYBY1PL.png", "gravity": 4, "scale_x": {"Points": [{"co": {"Y": 1, "X": 1}, "interpolation": 2}]}, "perspective_c1_y": {"Points": [{"co": {"Y": -1, "X": 1}, "interpolation": 2}]}, "crop_height": {"Points": [{"co": {"Y": -1, "X": 1}, "interpolation": 2}]}, "crop_x": {"Points": [{"co": {"Y": 0, "X": 1}, "interpolation": 2}]}, "start": 0, "scale": 1, "shear_y": {"Points": [{"co": {"Y": 0, "X": 1}, "interpolation": 2}]}, "display": 0, "volume": {"Points": [{"co": {"Y": 1, "X": 1}, "interpolation": 2}]}, "channel_mapping": {"Points": [{"co": {"Y": -1, "X": 1}, "interpolation": 2}]}, "anchor": 0, "duration": 31.317333221435547, "perspective_c3_y": {"Points": [{"co": {"Y": -1, "X": 1}, "interpolation": 2}]}, "shear_x": {"Points": [{"co": {"Y": 0, "X": 1}, "interpolation": 2}]}, "perspective_c4_x": {"Points": [{"co": {"Y": -1, "X": 1}, "interpolation": 2}]}, "location_y": {"Points": [{"co": {"Y": 0, "X": 1}, "interpolation": 2}]}, "perspective_c2_x": {"Points": [{"co": {"Y": -1, "X": 1}, "interpolation": 2}]}, "layer": 1, "perspective_c2_y": {"Points": [{"co": {"Y": -1, "X": 1}, "interpolation": 2}]}, "perspective_c1_x": {"Points": [{"co": {"Y": -1, "X": 1}, "interpolation": 2}]}, "perspective_c4_y": {"Points": [{"co": {"Y": -1, "X": 1}, "interpolation": 2}]}, "reader": {"audio_bit_rate": 189375, "has_single_image": false, "has_video": true, "type": "FFmpegReader", "video_length": "937", "audio_timebase": {"den": 48000, "num": 1}, "path": "/home/robsen/Dropbox/Workdir/Repo/SuesseRache-HH-Taxi/TE_SR_Taxi.mp4", "width": 1920, "has_audio": true, "video_bit_rate": 32091692, "channel_layout": 3, "height": 1080, "display_ratio": {"den": 9, "num": 16}, "interlaced_frame": false, "video_timebase": {"den": 29970, "num": 1}, "duration": 31.317333221435547, "sample_rate": 48000, "pixel_format": 0, "fps": {"den": 100, "num": 2997}, "file_size": "125628279", "top_field_first": true, "pixel_ratio": {"den": 1, "num": 1}, "acodec": "aac", "audio_stream_index": 1, "video_stream_index": 0, "channels": 2, "vcodec": "h264"}, "channel_filter": {"Points": [{"co": {"Y": -1, "X": 1}, "interpolation": 2}]}, "file_id": "Z3LOYBY1PL", "time": {"Points": [{"co": {"Y": 1, "X": 1}, "interpolation": 2}]}}, "key": ["clips"], "partial": false, "type": "insert"}, {"old_values": {"alpha": {"Points": [{"co": {"Y": 1, "X": 1}, "interpolation": 2}]}, "rotation": {"Points": [{"co": {"Y": 0, "X": 1}, "interpolation": 2}]}, "scale_y": {"Points": [{"co": {"Y": 1, "X": 1}, "interpolation": 2}]}, "crop_y": {"Points": [{"co": {"Y": 0, "X": 1}, "interpolation": 2}]}, "perspective_c3_x": {"Points": [{"co": {"Y": -1, "X": 1}, "interpolation": 2}]}, "end": 31.317333221435547, "crop_width": {"Points": [{"co": {"Y": -1, "X": 1}, "interpolation": 2}]}, "position": 18.88, "id": "627XQDJ3EP", "wave_color": {"green": {"Points": [{"handle_right": {"Y": 0, "X": 0.5}, "co": {"Y": 123, "X": 1}, "handle_left": {"Y": 1, "X": 0.5}, "handle_type": 0, "interpolation": 0}]}, "blue": {"Points": [{"handle_right": {"Y": 0, "X": 0.5}, "co": {"Y": 255, "X": 1}, "handle_left": {"Y": 1, "X": 0.5}, "handle_type": 0, "interpolation": 0}]}, "alpha": {"Points": [{"handle_right": {"Y": 0, "X": 0.5}, "co": {"Y": 255, "X": 1}, "handle_left": {"Y": 1, "X": 0.5}, "handle_type": 0, "interpolation": 0}]}, "red": {"Points": [{"handle_right": {"Y": 0, "X": 0.5}, "co": {"Y": 0, "X": 1}, "handle_left": {"Y": 1, "X": 0.5}, "handle_type": 0, "interpolation": 0}]}}, "has_video": {"Points": [{"co": {"Y": -1, "X": 1}, "interpolation": 2}]}, "has_audio": {"Points": [{"co": {"Y": -1, "X": 1}, "interpolation": 2}]}, "effects": [], "location_x": {"Points": [{"co": {"Y": 0, "X": 1}, "interpolation": 2}]}, "waveform": false, "title": "TE_SR_Taxi.mp4", "image": "/home/robsen/.openshot_qt/thumbnail/Z3LOYBY1PL.png", "gravity": 4, "scale_x": {"Points": [{"co": {"Y": 1, "X": 1}, "interpolation": 2}]}, "perspective_c1_y": {"Points": [{"co": {"Y": -1, "X": 1}, "interpolation": 2}]}, "crop_height": {"Points": [{"co": {"Y": -1, "X": 1}, "interpolation": 2}]}, "crop_x": {"Points": [{"co": {"Y": 0, "X": 1}, "interpolation": 2}]}, "start": 0, "scale": 1, "shear_y": {"Points": [{"co": {"Y": 0, "X": 1}, "interpolation": 2}]}, "display": 0, "volume": {"Points": [{"co": {"Y": 1, "X": 1}, "interpolation": 2}]}, "channel_mapping": {"Points": [{"co": {"Y": -1, "X": 1}, "interpolation": 2}]}, "anchor": 0, "duration": 31.317333221435547, "perspective_c3_y": {"Points": [{"co": {"Y": -1, "X": 1}, "interpolation": 2}]}, "shear_x": {"Points": [{"co": {"Y": 0, "X": 1}, "interpolation": 2}]}, "perspective_c4_x": {"Points": [{"co": {"Y": -1, "X": 1}, "interpolation": 2}]}, "location_y": {"Points": [{"co": {"Y": 0, "X": 1}, "interpolation": 2}]}, "perspective_c2_x": {"Points": [{"co": {"Y": -1, "X": 1}, "interpolation": 2}]}, "layer": 2, "perspective_c2_y": {"Points": [{"co": {"Y": -1, "X": 1}, "interpolation": 2}]}, "perspective_c1_x": {"Points": [{"co": {"Y": -1, "X": 1}, "interpolation": 2}]}, "perspective_c4_y": {"Points": [{"co": {"Y": -1, "X": 1}, "interpolation": 2}]}, "reader": {"audio_bit_rate": 189375, "has_single_image": false, "vcodec": "h264", "has_video": true, "type": "FFmpegReader", "video_length": "937", "audio_timebase": {"den": 48000, "num": 1}, "path": "/home/robsen/Dropbox/Workdir/Repo/SuesseRache-HH-Taxi/TE_SR_Taxi.mp4", "width": 1920, "has_audio": true, "video_bit_rate": 32091692, "channel_layout": 3, "height": 1080, "display_ratio": {"den": 9, "num": 16}, "interlaced_frame": false, "duration": 31.317333221435547, "sample_rate": 48000, "pixel_format": 0, "video_timebase": {"den": 29970, "num": 1}, "file_size": "125628279", "top_field_first": true, "pixel_ratio": {"den": 1, "num": 1}, "acodec": "aac", "audio_stream_index": 1, "video_stream_index": 0, "channels": 2, "fps": {"den": 100, "num": 2997}}, "channel_filter": {"Points": [{"co": {"Y": -1, "X": 1}, "interpolation": 2}]}, "file_id": "Z3LOYBY1PL", "time": {"Points": [{"co": {"Y": 1, "X": 1}, "interpolation": 2}]}}, "value": {"id": "627XQDJ3EP", "start": 0, "end": 31.317333221435547, "position": 21.76, "layer": 0, "image": "/home/robsen/.openshot_qt/thumbnail/Z3LOYBY1PL.png"}, "key": ["clips", {"id": "627XQDJ3EP"}], "partial": false, "type": "update"}, {"old_values": [], "value": {"start": 0, "type": "Mask", "contrast": {"Points": [{"co": {"Y": 3, "X": 1}, "interpolation": 2}]}, "layer": 0, "replace_image": false, "title": "Transition", "end": 2.039999999999999, "reader": {"audio_bit_rate": 0, "has_single_image": true, "has_video": true, "type": "QtImageReader", "video_length": "2592000", "audio_timebase": {"den": 1, "num": 1}, "path": "/usr/lib/python3/dist-packages/openshot_qt/transitions/common/fade.svg", "width": 720, "has_audio": false, "video_bit_rate": 0, "channel_layout": 4, "height": 576, "display_ratio": {"den": 4, "num": 5}, "interlaced_frame": false, "video_timebase": {"den": 30, "num": 1}, "duration": 86400, "sample_rate": 0, "pixel_format": -1, "fps": {"den": 1, "num": 30}, "file_size": "1658880", "top_field_first": true, "pixel_ratio": {"den": 1, "num": 1}, "acodec": "", "audio_stream_index": -1, "video_stream_index": -1, "channels": 0, "vcodec": ""}, "brightness": {"Points": [{"handle_right": {"Y": 0, "X": 0.5}, "co": {"Y": 1, "X": 1}, "handle_left": {"Y": 1, "X": 0.5}, "handle_type": 0, "interpolation": 0}, {"handle_right": {"Y": 0, "X": 0.5}, "co": {"Y": -1, "X": 50}, "handle_left": {"Y": 1, "X": 0.5}, "handle_type": 0, "interpolation": 0}]}, "id": "5NBS5H99MA", "position": 21.76}, "key": ["effects"], "partial": false, "type": "insert"}, {"old_values": {"alpha": {"Points": [{"co": {"Y": 1, "X": 1}, "interpolation": 2}]}, "rotation": {"Points": [{"co": {"Y": 0, "X": 1}, "interpolation": 2}]}, "scale_y": {"Points": [{"co": {"Y": 1, "X": 1}, "interpolation": 2}]}, "crop_y": {"Points": [{"co": {"Y": 0, "X": 1}, "interpolation": 2}]}, "perspective_c3_x": {"Points": [{"co": {"Y": -1, "X": 1}, "interpolation": 2}]}, "end": 31.317333221435547, "crop_width": {"Points": [{"co": {"Y": -1, "X": 1}, "interpolation": 2}]}, "position": 21.76, "id": "627XQDJ3EP", "wave_color": {"green": {"Points": [{"handle_right": {"Y": 0, "X": 0.5}, "co": {"Y": 123, "X": 1}, "handle_left": {"Y": 1, "X": 0.5}, "handle_type": 0, "interpolation": 0}]}, "blue": {"Points": [{"handle_right": {"Y": 0, "X": 0.5}, "co": {"Y": 255, "X": 1}, "handle_left": {"Y": 1, "X": 0.5}, "handle_type": 0, "interpolation": 0}]}, "alpha": {"Points": [{"handle_right": {"Y": 0, "X": 0.5}, "co": {"Y": 255, "X": 1}, "handle_left": {"Y": 1, "X": 0.5}, "handle_type": 0, "interpolation": 0}]}, "red": {"Points": [{"handle_right": {"Y": 0, "X": 0.5}, "co": {"Y": 0, "X": 1}, "handle_left": {"Y": 1, "X": 0.5}, "handle_type": 0, "interpolation": 0}]}}, "has_video": {"Points": [{"co": {"Y": -1, "X": 1}, "interpolation": 2}]}, "has_audio": {"Points": [{"co": {"Y": -1, "X": 1}, "interpolation": 2}]}, "effects": [], "location_x": {"Points": [{"co": {"Y": 0, "X": 1}, "interpolation": 2}]}, "waveform": false, "title": "TE_SR_Taxi.mp4", "image": "/home/robsen/.openshot_qt/thumbnail/Z3LOYBY1PL.png", "gravity": 4, "perspective_c2_x": {"Points": [{"co": {"Y": -1, "X": 1}, "interpolation": 2}]}, "perspective_c1_y": {"Points": [{"co": {"Y": -1, "X": 1}, "interpolation": 2}]}, "crop_height": {"Points": [{"co": {"Y": -1, "X": 1}, "interpolation": 2}]}, "crop_x": {"Points": [{"co": {"Y": 0, "X": 1}, "interpolation": 2}]}, "start": 0, "scale": 1, "shear_y": {"Points": [{"co": {"Y": 0, "X": 1}, "interpolation": 2}]}, "display": 0, "volume": {"Points": [{"co": {"Y": 1, "X": 1}, "interpolation": 2}]}, "channel_mapping": {"Points": [{"co": {"Y": -1, "X": 1}, "interpolation": 2}]}, "anchor": 0, "duration": 31.317333221435547, "perspective_c3_y": {"Points": [{"co": {"Y": -1, "X": 1}, "interpolation": 2}]}, "shear_x": {"Points": [{"co": {"Y": 0, "X": 1}, "interpolation": 2}]}, "perspective_c4_x": {"Points": [{"co": {"Y": -1, "X": 1}, "interpolation": 2}]}, "location_y": {"Points": [{"co": {"Y": 0, "X": 1}, "interpolation": 2}]}, "scale_x": {"Points": [{"co": {"Y": 1, "X": 1}, "interpolation": 2}]}, "layer": 0, "perspective_c2_y": {"Points": [{"co": {"Y": -1, "X": 1}, "interpolation": 2}]}, "perspective_c1_x": {"Points": [{"co": {"Y": -1, "X": 1}, "interpolation": 2}]}, "perspective_c4_y": {"Points": [{"co": {"Y": -1, "X": 1}, "interpolation": 2}]}, "reader": {"audio_bit_rate": 189375, "has_single_image": false, "vcodec": "h264", "has_video": true, "type": "FFmpegReader", "video_length": "937", "audio_timebase": {"den": 48000, "num": 1}, "path": "/home/robsen/Dropbox/Workdir/Repo/SuesseRache-HH-Taxi/TE_SR_Taxi.mp4", "width": 1920, "has_audio": true, "video_bit_rate": 32091692, "channel_layout": 3, "height": 1080, "display_ratio": {"den": 9, "num": 16}, "interlaced_frame": false, "duration": 31.317333221435547, "sample_rate": 48000, "pixel_format": 0, "video_timebase": {"den": 29970, "num": 1}, "file_size": "125628279", "top_field_first": true, "pixel_ratio": {"den": 1, "num": 1}, "acodec": "aac", "audio_stream_index": 1, "video_stream_index": 0, "channels": 2, "fps": {"den": 100, "num": 2997}}, "channel_filter": {"Points": [{"co": {"Y": -1, "X": 1}, "interpolation": 2}]}, "file_id": "Z3LOYBY1PL", "time": {"Points": [{"co": {"Y": 1, "X": 1}, "interpolation": 2}]}}, "value": {"id": "627XQDJ3EP", "start": 0, "end": 31.317333221435547, "position": 21.76, "layer": 1, "image": "/home/robsen/.openshot_qt/thumbnail/Z3LOYBY1PL.png"}, "key": ["clips", {"id": "627XQDJ3EP"}], "partial": false, "type": "update"}, {"old_values": [{"alpha": {"Points": [{"co": {"Y": 1, "X": 1}, "interpolation": 2}]}, "rotation": {"Points": [{"co": {"Y": 0, "X": 1}, "interpolation": 2}]}, "scale_y": {"Points": [{"co": {"Y": 1, "X": 1}, "interpolation": 2}]}, "crop_y": {"Points": [{"co": {"Y": 0, "X": 1}, "interpolation": 2}]}, "perspective_c3_x": {"Points": [{"co": {"Y": -1, "X": 1}, "interpolation": 2}]}, "end": 15, "crop_width": {"Points": [{"co": {"Y": -1, "X": 1}, "interpolation": 2}]}, "position": 8.8, "id": "0AEDFYGQ7J", "wave_color": {"green": {"Points": [{"handle_right": {"Y": 0, "X": 0.5}, "co": {"Y": 123, "X": 1}, "handle_left": {"Y": 1, "X": 0.5}, "handle_type": 0, "interpolation": 0}]}, "blue": {"Points": [{"handle_right": {"Y": 0, "X": 0.5}, "co": {"Y": 255, "X": 1}, "handle_left": {"Y": 1, "X": 0.5}, "handle_type": 0, "interpolation": 0}]}, "alpha": {"Points": [{"handle_right": {"Y": 0, "X": 0.5}, "co": {"Y": 255, "X": 1}, "handle_left": {"Y": 1, "X": 0.5}, "handle_type": 0, "interpolation": 0}]}, "red": {"Points": [{"handle_right": {"Y": 0, "X": 0.5}, "co": {"Y": 0, "X": 1}, "handle_left": {"Y": 1, "X": 0.5}, "handle_type": 0, "interpolation": 0}]}}, "has_video": {"Points": [{"co": {"Y": -1, "X": 1}, "interpolation": 2}]}, "has_audio": {"Points": [{"co": {"Y": -1, "X": 1}, "interpolation": 2}]}, "effects": [], "location_x": {"Points": [{"co": {"Y": 0, "X": 1}, "interpolation": 2}]}, "waveform": false, "title": "taxi_start.mp4", "image": "/home/robsen/.openshot_qt/thumbnail/LGW3TZJV4Q.png", "gravity": 4, "perspective_c2_x": {"Points": [{"co": {"Y": -1, "X": 1}, "interpolation": 2}]}, "perspective_c1_y": {"Points": [{"co": {"Y": -1, "X": 1}, "interpolation": 2}]}, "crop_height": {"Points": [{"co": {"Y": -1, "X": 1}, "interpolation": 2}]}, "crop_x": {"Points": [{"co": {"Y": 0, "X": 1}, "interpolation": 2}]}, "start": 0, "scale": 1, "shear_y": {"Points": [{"co": {"Y": 0, "X": 1}, "interpolation": 2}]}, "display": 0, "volume": {"Points": [{"co": {"Y": 1, "X": 1}, "interpolation": 2}]}, "channel_mapping": {"Points": [{"co": {"Y": -1, "X": 1}, "interpolation": 2}]}, "anchor": 0, "duration": 15.0, "perspective_c3_y": {"Points": [{"co": {"Y": -1, "X": 1}, "interpolation": 2}]}, "shear_x": {"Points": [{"co": {"Y": 0, "X": 1}, "interpolation": 2}]}, "perspective_c4_x": {"Points": [{"co": {"Y": -1, "X": 1}, "interpolation": 2}]}, "location_y": {"Points": [{"co": {"Y": 0, "X": 1}, "interpolation": 2}]}, "scale_x": {"Points": [{"co": {"Y": 1, "X": 1}, "interpolation": 2}]}, "layer": 0, "perspective_c2_y": {"Points": [{"co": {"Y": -1, "X": 1}, "interpolation": 2}]}, "perspective_c1_x": {"Points": [{"co": {"Y": -1, "X": 1}, "interpolation": 2}]}, "perspective_c4_y": {"Points": [{"co": {"Y": -1, "X": 1}, "interpolation": 2}]}, "reader": {"audio_bit_rate": 0, "has_single_image": false, "vcodec": "h264", "has_video": true, "type": "FFmpegReader", "video_length": "375", "audio_timebase": {"den": 1, "num": 1}, "path": "/home/robsen/Dropbox/Workdir/Repo/SuesseRache-HH-Taxi/taxi_start.mp4", "width": 1920, "has_audio": false, "video_bit_rate": 147692, "channel_layout": 4, "height": 1080, "display_ratio": {"den": 9, "num": 16}, "interlaced_frame": false, "duration": 15.0, "sample_rate": 0, "pixel_format": 0, "video_timebase": {"den": 12800, "num": 1}, "file_size": "276924", "top_field_first": true, "pixel_ratio": {"den": 1, "num": 1}, "acodec": "", "audio_stream_index": -1, "video_stream_index": 0, "channels": 0, "fps": {"den": 1, "num": 25}}, "channel_filter": {"Points": [{"co": {"Y": -1, "X": 1}, "interpolation": 2}]}, "file_id": "LGW3TZJV4Q", "time": {"Points": [{"co": {"Y": 1, "X": 1}, "interpolation": 2}]}}, {"alpha": {"Points": [{"co": {"Y": 1, "X": 1}, "interpolation": 2}]}, "rotation": {"Points": [{"co": {"Y": 0, "X": 1}, "interpolation": 2}]}, "scale_y": {"Points": [{"co": {"Y": 1, "X": 1}, "interpolation": 2}]}, "crop_y": {"Points": [{"co": {"Y": 0, "X": 1}, "interpolation": 2}]}, "perspective_c3_x": {"Points": [{"co": {"Y": -1, "X": 1}, "interpolation": 2}]}, "end": 31.317333221435547, "crop_width": {"Points": [{"co": {"Y": -1, "X": 1}, "interpolation": 2}]}, "position": 21.76, "id": "627XQDJ3EP", "wave_color": {"green": {"Points": [{"handle_right": {"Y": 0, "X": 0.5}, "co": {"Y": 123, "X": 1}, "handle_left": {"Y": 1, "X": 0.5}, "handle_type": 0, "interpolation": 0}]}, "blue": {"Points": [{"handle_right": {"Y": 0, "X": 0.5}, "co": {"Y": 255, "X": 1}, "handle_left": {"Y": 1, "X": 0.5}, "handle_type": 0, "interpolation": 0}]}, "alpha": {"Points": [{"handle_right": {"Y": 0, "X": 0.5}, "co": {"Y": 255, "X": 1}, "handle_left": {"Y": 1, "X": 0.5}, "handle_type": 0, "interpolation": 0}]}, "red": {"Points": [{"handle_right": {"Y": 0, "X": 0.5}, "co": {"Y": 0, "X": 1}, "handle_left": {"Y": 1, "X": 0.5}, "handle_type": 0, "interpolation": 0}]}}, "has_video": {"Points": [{"co": {"Y": -1, "X": 1}, "interpolation": 2}]}, "has_audio": {"Points": [{"co": {"Y": -1, "X": 1}, "interpolation": 2}]}, "effects": [], "location_x": {"Points": [{"co": {"Y": 0, "X": 1}, "interpolation": 2}]}, "waveform": false, "title": "TE_SR_Taxi.mp4", "image": "/home/robsen/.openshot_qt/thumbnail/Z3LOYBY1PL.png", "gravity": 4, "perspective_c2_x": {"Points": [{"co": {"Y": -1, "X": 1}, "interpolation": 2}]}, "perspective_c1_y": {"Points": [{"co": {"Y": -1, "X": 1}, "interpolation": 2}]}, "crop_height": {"Points": [{"co": {"Y": -1, "X": 1}, "interpolation": 2}]}, "crop_x": {"Points": [{"co": {"Y": 0, "X": 1}, "interpolation": 2}]}, "start": 0, "scale": 1, "shear_y": {"Points": [{"co": {"Y": 0, "X": 1}, "interpolation": 2}]}, "display": 0, "volume": {"Points": [{"co": {"Y": 1, "X": 1}, "interpolation": 2}]}, "channel_mapping": {"Points": [{"co": {"Y": -1, "X": 1}, "interpolation": 2}]}, "anchor": 0, "duration": 31.317333221435547, "perspective_c3_y": {"Points": [{"co": {"Y": -1, "X": 1}, "interpolation": 2}]}, "shear_x": {"Points": [{"co": {"Y": 0, "X": 1}, "interpolation": 2}]}, "perspective_c4_x": {"Points": [{"co": {"Y": -1, "X": 1}, "interpolation": 2}]}, "location_y": {"Points": [{"co": {"Y": 0, "X": 1}, "interpolation": 2}]}, "scale_x": {"Points": [{"co": {"Y": 1, "X": 1}, "interpolation": 2}]}, "layer": 1, "perspective_c2_y": {"Points": [{"co": {"Y": -1, "X": 1}, "interpolation": 2}]}, "perspective_c1_x": {"Points": [{"co": {"Y": -1, "X": 1}, "interpolation": 2}]}, "perspective_c4_y": {"Points": [{"co": {"Y": -1, "X": 1}, "interpolation": 2}]}, "reader": {"audio_bit_rate": 189375, "has_single_image": false, "vcodec": "h264", "has_video": true, "type": "FFmpegReader", "video_length": "937", "audio_timebase": {"den": 48000, "num": 1}, "path": "/home/robsen/Dropbox/Workdir/Repo/SuesseRache-HH-Taxi/TE_SR_Taxi.mp4", "width": 1920, "has_audio": true, "video_bit_rate": 32091692, "channel_layout": 3, "height": 1080, "display_ratio": {"den": 9, "num": 16}, "interlaced_frame": false, "duration": 31.317333221435547, "sample_rate": 48000, "pixel_format": 0, "video_timebase": {"den": 29970, "num": 1}, "file_size": "125628279", "top_field_first": true, "pixel_ratio": {"den": 1, "num": 1}, "acodec": "aac", "audio_stream_index": 1, "video_stream_index": 0, "channels": 2, "fps": {"den": 100, "num": 2997}}, "channel_filter": {"Points": [{"co": {"Y": -1, "X": 1}, "interpolation": 2}]}, "file_id": "Z3LOYBY1PL", "time": {"Points": [{"co": {"Y": 1, "X": 1}, "interpolation": 2}]}}], "value": {"alpha": {"Points": [{"co": {"Y": 1, "X": 1}, "interpolation": 2}, {"handle_right": {"Y": 0, "X": 0.5}, "co": {"Y": 0, "X": 1}, "handle_left": {"Y": 1, "X": 0.5}, "handle_type": 0, "interpolation": 0}, {"handle_right": {"Y": 0, "X": 0.5}, "co": {"Y": 1, "X": 73}, "handle_left": {"Y": 1, "X": 0.5}, "handle_type": 0, "interpolation": 0}]}, "rotation": {"Points": [{"co": {"Y": 0, "X": 1}, "interpolation": 2}]}, "scale_y": {"Points": [{"co": {"Y": 1, "X": 1}, "interpolation": 2}]}, "crop_y": {"Points": [{"co": {"Y": 0, "X": 1}, "interpolation": 2}]}, "perspective_c3_x": {"Points": [{"co": {"Y": -1, "X": 1}, "interpolation": 2}]}, "end": 15, "crop_width": {"Points": [{"co": {"Y": -1, "X": 1}, "interpolation": 2}]}, "position": 53.075, "id": "PJWPMFXKV3", "wave_color": {"green": {"Points": [{"handle_right": {"Y": 0, "X": 0.5}, "co": {"Y": 123, "X": 1}, "handle_left": {"Y": 1, "X": 0.5}, "handle_type": 0, "interpolation": 0}]}, "blue": {"Points": [{"handle_right": {"Y": 0, "X": 0.5}, "co": {"Y": 255, "X": 1}, "handle_left": {"Y": 1, "X": 0.5}, "handle_type": 0, "interpolation": 0}]}, "alpha": {"Points": [{"handle_right": {"Y": 0, "X": 0.5}, "co": {"Y": 255, "X": 1}, "handle_left": {"Y": 1, "X": 0.5}, "handle_type": 0, "interpolation": 0}]}, "red": {"Points": [{"handle_right": {"Y": 0, "X": 0.5}, "co": {"Y": 0, "X": 1}, "handle_left": {"Y": 1, "X": 0.5}, "handle_type": 0, "interpolation": 0}]}}, "has_video": {"Points": [{"co": {"Y": -1, "X": 1}, "interpolation": 2}]}, "has_audio": {"Points": [{"co": {"Y": -1, "X": 1}, "interpolation": 2}]}, "effects": [], "location_x": {"Points": [{"co": {"Y": 0, "X": 1}, "interpolation": 2}]}, "waveform": false, "title": "arrow.mp4", "image": "/home/robsen/.openshot_qt/thumbnail/X22V56NF57.png", "gravity": 4, "scale_x": {"Points": [{"co": {"Y": 1, "X": 1}, "interpolation": 2}]}, "perspective_c1_y": {"Points": [{"co": {"Y": -1, "X": 1}, "interpolation": 2}]}, "crop_height": {"Points": [{"co": {"Y": -1, "X": 1}, "interpolation": 2}]}, "crop_x": {"Points": [{"co": {"Y": 0, "X": 1}, "interpolation": 2}]}, "start": 0, "scale": 1, "shear_y": {"Points": [{"co": {"Y": 0, "X": 1}, "interpolation": 2}]}, "display": 0, "volume": {"Points": [{"co": {"Y": 1, "X": 1}, "interpolation": 2}]}, "channel_mapping": {"Points": [{"co": {"Y": -1, "X": 1}, "interpolation": 2}]}, "anchor": 0, "duration": 15.0, "perspective_c3_y": {"Points": [{"co": {"Y": -1, "X": 1}, "interpolation": 2}]}, "shear_x": {"Points": [{"co": {"Y": 0, "X": 1}, "interpolation": 2}]}, "perspective_c4_x": {"Points": [{"co": {"Y": -1, "X": 1}, "interpolation": 2}]}, "location_y": {"Points": [{"co": {"Y": 0, "X": 1}, "interpolation": 2}]}, "perspective_c2_x": {"Points": [{"co": {"Y": -1, "X": 1}, "interpolation": 2}]}, "layer": 2, "perspective_c2_y": {"Points": [{"co": {"Y": -1, "X": 1}, "interpolation": 2}]}, "perspective_c1_x": {"Points": [{"co": {"Y": -1, "X": 1}, "interpolation": 2}]}, "perspective_c4_y": {"Points": [{"co": {"Y": -1, "X": 1}, "interpolation": 2}]}, "reader": {"audio_bit_rate": 0, "has_single_image": false, "has_video": true, "type": "FFmpegReader", "video_length": "375", "audio_timebase": {"den": 1, "num": 1}, "path": "/home/robsen/Dropbox/Workdir/Repo/SuesseRache-HH-Taxi/arrow.mp4", "width": 1920, "has_audio": false, "video_bit_rate": 83079, "channel_layout": 4, "height": 1080, "display_ratio": {"den": 9, "num": 16}, "interlaced_frame": false, "video_timebase": {"den": 12800, "num": 1}, "duration": 15.0, "sample_rate": 0, "pixel_format": 0, "fps": {"den": 1, "num": 25}, "file_size": "155774", "top_field_first": true, "pixel_ratio": {"den": 1, "num": 1}, "acodec": "", "audio_stream_index": -1, "video_stream_index": 0, "channels": 0, "vcodec": "h264"}, "channel_filter": {"Points": [{"co": {"Y": -1, "X": 1}, "interpolation": 2}]}, "file_id": "X22V56NF57", "time": {"Points": [{"co": {"Y": 1, "X": 1}, "interpolation": 2}]}}, "key": ["clips"], "partial": false, "type": "insert"}, {"old_values": {"alpha": {"Points": [{"co": {"Y": 1, "X": 1}, "interpolation": 2}]}, "rotation": {"Points": [{"co": {"Y": 0, "X": 1}, "interpolation": 2}]}, "scale_y": {"Points": [{"co": {"Y": 1, "X": 1}, "interpolation": 2}]}, "crop_y": {"Points": [{"co": {"Y": 0, "X": 1}, "interpolation": 2}]}, "perspective_c3_x": {"Points": [{"co": {"Y": -1, "X": 1}, "interpolation": 2}]}, "end": 15.0, "crop_width": {"Points": [{"co": {"Y": -1, "X": 1}, "interpolation": 2}]}, "position": 62.88, "id": "PJWPMFXKV3", "wave_color": {"green": {"Points": [{"handle_right": {"Y": 0, "X": 0.5}, "co": {"Y": 123, "X": 1}, "handle_left": {"Y": 1, "X": 0.5}, "handle_type": 0, "interpolation": 0}]}, "blue": {"Points": [{"handle_right": {"Y": 0, "X": 0.5}, "co": {"Y": 255, "X": 1}, "handle_left": {"Y": 1, "X": 0.5}, "handle_type": 0, "interpolation": 0}]}, "alpha": {"Points": [{"handle_right": {"Y": 0, "X": 0.5}, "co": {"Y": 255, "X": 1}, "handle_left": {"Y": 1, "X": 0.5}, "handle_type": 0, "interpolation": 0}]}, "red": {"Points": [{"handle_right": {"Y": 0, "X": 0.5}, "co": {"Y": 0, "X": 1}, "handle_left": {"Y": 1, "X": 0.5}, "handle_type": 0, "interpolation": 0}]}}, "has_video": {"Points": [{"co": {"Y": -1, "X": 1}, "interpolation": 2}]}, "has_audio": {"Points": [{"co": {"Y": -1, "X": 1}, "interpolation": 2}]}, "effects": [], "location_x": {"Points": [{"co": {"Y": 0, "X": 1}, "interpolation": 2}]}, "waveform": false, "title": "arrow.mp4", "image": "/home/robsen/.openshot_qt/thumbnail/X22V56NF57.png", "gravity": 4, "scale_x": {"Points": [{"co": {"Y": 1, "X": 1}, "interpolation": 2}]}, "perspective_c1_y": {"Points": [{"co": {"Y": -1, "X": 1}, "interpolation": 2}]}, "crop_height": {"Points": [{"co": {"Y": -1, "X": 1}, "interpolation": 2}]}, "crop_x": {"Points": [{"co": {"Y": 0, "X": 1}, "interpolation": 2}]}, "start": 0, "scale": 1, "shear_y": {"Points": [{"co": {"Y": 0, "X": 1}, "interpolation": 2}]}, "display": 0, "volume": {"Points": [{"co": {"Y": 1, "X": 1}, "interpolation": 2}]}, "channel_mapping": {"Points": [{"co": {"Y": -1, "X": 1}, "interpolation": 2}]}, "anchor": 0, "duration": 15.0, "perspective_c3_y": {"Points": [{"co": {"Y": -1, "X": 1}, "interpolation": 2}]}, "shear_x": {"Points": [{"co": {"Y": 0, "X": 1}, "interpolation": 2}]}, "perspective_c4_x": {"Points": [{"co": {"Y": -1, "X": 1}, "interpolation": 2}]}, "location_y": {"Points": [{"co": {"Y": 0, "X": 1}, "interpolation": 2}]}, "perspective_c2_x": {"Points": [{"co": {"Y": -1, "X": 1}, "interpolation": 2}]}, "layer": 2, "perspective_c2_y": {"Points": [{"co": {"Y": -1, "X": 1}, "interpolation": 2}]}, "perspective_c1_x": {"Points": [{"co": {"Y": -1, "X": 1}, "interpolation": 2}]}, "perspective_c4_y": {"Points": [{"co": {"Y": -1, "X": 1}, "interpolation": 2}]}, "reader": {"audio_bit_rate": 0, "has_single_image": false, "vcodec": "h264", "has_video": true, "type": "FFmpegReader", "video_length": "375", "audio_timebase": {"den": 1, "num": 1}, "path": "/home/robsen/Dropbox/Workdir/Repo/SuesseRache-HH-Taxi/arrow.mp4", "width": 1920, "has_audio": false, "video_bit_rate": 83079, "channel_layout": 4, "height": 1080, "display_ratio": {"den": 9, "num": 16}, "interlaced_frame": false, "duration": 15.0, "sample_rate": 0, "pixel_format": 0, "video_timebase": {"den": 12800, "num": 1}, "file_size": "155774", "top_field_first": true, "pixel_ratio": {"den": 1, "num": 1}, "acodec": "", "audio_stream_index": -1, "video_stream_index": 0, "channels": 0, "fps": {"den": 1, "num": 25}}, "channel_filter": {"Points": [{"co": {"Y": -1, "X": 1}, "interpolation": 2}]}, "file_id": "X22V56NF57", "time": {"Points": [{"co": {"Y": 1, "X": 1}, "interpolation": 2}]}}, "value": {"id": "PJWPMFXKV3", "start": 0, "end": 15, "position": 63.04, "layer": 1, "image": "/home/robsen/.openshot_qt/thumbnail/X22V56NF57.png"}, "key": ["clips", {"id": "PJWPMFXKV3"}], "partial": false, "type": "update"}, {"old_values": {"alpha": {"Points": [{"co": {"Y": 1, "X": 1}, "interpolation": 2}]}, "rotation": {"Points": [{"co": {"Y": 0, "X": 1}, "interpolation": 2}]}, "scale_y": {"Points": [{"co": {"Y": 1, "X": 1}, "interpolation": 2}]}, "crop_y": {"Points": [{"co": {"Y": 0, "X": 1}, "interpolation": 2}]}, "perspective_c3_x": {"Points": [{"co": {"Y": -1, "X": 1}, "interpolation": 2}]}, "end": 15, "crop_width": {"Points": [{"co": {"Y": -1, "X": 1}, "interpolation": 2}]}, "position": 63.04, "id": "PJWPMFXKV3", "wave_color": {"green": {"Points": [{"handle_right": {"Y": 0, "X": 0.5}, "co": {"Y": 123, "X": 1}, "handle_left": {"Y": 1, "X": 0.5}, "handle_type": 0, "interpolation": 0}]}, "blue": {"Points": [{"handle_right": {"Y": 0, "X": 0.5}, "co": {"Y": 255, "X": 1}, "handle_left": {"Y": 1, "X": 0.5}, "handle_type": 0, "interpolation": 0}]}, "alpha": {"Points": [{"handle_right": {"Y": 0, "X": 0.5}, "co": {"Y": 255, "X": 1}, "handle_left": {"Y": 1, "X": 0.5}, "handle_type": 0, "interpolation": 0}]}, "red": {"Points": [{"handle_right": {"Y": 0, "X": 0.5}, "co": {"Y": 0, "X": 1}, "handle_left": {"Y": 1, "X": 0.5}, "handle_type": 0, "interpolation": 0}]}}, "has_video": {"Points": [{"co": {"Y": -1, "X": 1}, "interpolation": 2}]}, "has_audio": {"Points": [{"co": {"Y": -1, "X": 1}, "interpolation": 2}]}, "effects": [], "location_x": {"Points": [{"co": {"Y": 0, "X": 1}, "interpolation": 2}]}, "waveform": false, "title": "arrow.mp4", "image": "/home/robsen/.openshot_qt/thumbnail/X22V56NF57.png", "gravity": 4, "perspective_c2_x": {"Points": [{"co": {"Y": -1, "X": 1}, "interpolation": 2}]}, "perspective_c1_y": {"Points": [{"co": {"Y": -1, "X": 1}, "interpolation": 2}]}, "crop_height": {"Points": [{"co": {"Y": -1, "X": 1}, "interpolation": 2}]}, "crop_x": {"Points": [{"co": {"Y": 0, "X": 1}, "interpolation": 2}]}, "start": 0, "scale": 1, "shear_y": {"Points": [{"co": {"Y": 0, "X": 1}, "interpolation": 2}]}, "display": 0, "volume": {"Points": [{"co": {"Y": 1, "X": 1}, "interpolation": 2}]}, "channel_mapping": {"Points": [{"co": {"Y": -1, "X": 1}, "interpolation": 2}]}, "anchor": 0, "duration": 15.0, "perspective_c3_y": {"Points": [{"co": {"Y": -1, "X": 1}, "interpolation": 2}]}, "shear_x": {"Points": [{"co": {"Y": 0, "X": 1}, "interpolation": 2}]}, "perspective_c4_x": {"Points": [{"co": {"Y": -1, "X": 1}, "interpolation": 2}]}, "location_y": {"Points": [{"co": {"Y": 0, "X": 1}, "interpolation": 2}]}, "scale_x": {"Points": [{"co": {"Y": 1, "X": 1}, "interpolation": 2}]}, "layer": 1, "perspective_c2_y": {"Points": [{"co": {"Y": -1, "X": 1}, "interpolation": 2}]}, "perspective_c1_x": {"Points": [{"co": {"Y": -1, "X": 1}, "interpolation": 2}]}, "perspective_c4_y": {"Points": [{"co": {"Y": -1, "X": 1}, "interpolation": 2}]}, "reader": {"audio_bit_rate": 0, "has_single_image": false, "vcodec": "h264", "has_video": true, "type": "FFmpegReader", "video_length": "375", "audio_timebase": {"den": 1, "num": 1}, "path": "/home/robsen/Dropbox/Workdir/Repo/SuesseRache-HH-Taxi/arrow.mp4", "width": 1920, "has_audio": false, "video_bit_rate": 83079, "channel_layout": 4, "height": 1080, "display_ratio": {"den": 9, "num": 16}, "interlaced_frame": false, "duration": 15.0, "sample_rate": 0, "pixel_format": 0, "video_timebase": {"den": 12800, "num": 1}, "file_size": "155774", "top_field_first": true, "pixel_ratio": {"den": 1, "num": 1}, "acodec": "", "audio_stream_index": -1, "video_stream_index": 0, "channels": 0, "fps": {"den": 1, "num": 25}}, "channel_filter": {"Points": [{"co": {"Y": -1, "X": 1}, "interpolation": 2}]}, "file_id": "X22V56NF57", "time": {"Points": [{"co": {"Y": 1, "X": 1}, "interpolation": 2}]}}, "value": {"id": "PJWPMFXKV3", "start": 0, "end": 15, "position": 53.075, "layer": 2, "image": "/home/robsen/.openshot_qt/thumbnail/X22V56NF57.png"}, "key": ["clips", {"id": "PJWPMFXKV3"}], "partial": false, "type": "update"}, {"old_values": {"start": 0, "type": "Mask", "contrast": {"Points": [{"co": {"Y": 3, "X": 1}, "interpolation": 2}]}, "layer": 0, "replace_image": false, "title": "Transition", "end": 2.039999999999999, "reader": {"audio_bit_rate": 0, "has_single_image": true, "vcodec": "", "has_video": true, "type": "QtImageReader", "video_length": "2592000", "audio_timebase": {"den": 1, "num": 1}, "path": "/usr/lib/python3/dist-packages/openshot_qt/transitions/common/fade.svg", "width": 720, "has_audio": false, "video_bit_rate": 0, "channel_layout": 4, "height": 576, "display_ratio": {"den": 4, "num": 5}, "interlaced_frame": false, "duration": 86400, "sample_rate": 0, "pixel_format": -1, "video_timebase": {"den": 30, "num": 1}, "file_size": "1658880", "top_field_first": true, "pixel_ratio": {"den": 1, "num": 1}, "acodec": "", "audio_stream_index": -1, "video_stream_index": -1, "channels": 0, "fps": {"den": 1, "num": 30}}, "brightness": {"Points": [{"handle_right": {"Y": 0, "X": 0.5}, "co": {"Y": 1, "X": 1}, "handle_left": {"Y": 1, "X": 0.5}, "handle_type": 0, "interpolation": 0}, {"handle_right": {"Y": 0, "X": 0.5}, "co": {"Y": -1, "X": 50}, "handle_left": {"Y": 1, "X": 0.5}, "handle_type": 0, "interpolation": 0}]}, "id": "5NBS5H99MA", "position": 21.76}, "value": null, "key": ["effects", {"id": "5NBS5H99MA"}], "partial": false, "type": "delete"}, {"old_values": {"alpha": {"Points": [{"co": {"Y": 1, "X": 1}, "interpolation": 2}]}, "rotation": {"Points": [{"co": {"Y": 0, "X": 1}, "interpolation": 2}]}, "scale_y": {"Points": [{"co": {"Y": 1, "X": 1}, "interpolation": 2}]}, "crop_y": {"Points": [{"co": {"Y": 0, "X": 1}, "interpolation": 2}]}, "perspective_c3_x": {"Points": [{"co": {"Y": -1, "X": 1}, "interpolation": 2}]}, "end": 15, "crop_width": {"Points": [{"co": {"Y": -1, "X": 1}, "interpolation": 2}]}, "position": 8.8, "id": "0AEDFYGQ7J", "wave_color": {"green": {"Points": [{"handle_right": {"Y": 0, "X": 0.5}, "co": {"Y": 123, "X": 1}, "handle_left": {"Y": 1, "X": 0.5}, "handle_type": 0, "interpolation": 0}]}, "blue": {"Points": [{"handle_right": {"Y": 0, "X": 0.5}, "co": {"Y": 255, "X": 1}, "handle_left": {"Y": 1, "X": 0.5}, "handle_type": 0, "interpolation": 0}]}, "alpha": {"Points": [{"handle_right": {"Y": 0, "X": 0.5}, "co": {"Y": 255, "X": 1}, "handle_left": {"Y": 1, "X": 0.5}, "handle_type": 0, "interpolation": 0}]}, "red": {"Points": [{"handle_right": {"Y": 0, "X": 0.5}, "co": {"Y": 0, "X": 1}, "handle_left": {"Y": 1, "X": 0.5}, "handle_type": 0, "interpolation": 0}]}}, "has_video": {"Points": [{"co": {"Y": -1, "X": 1}, "interpolation": 2}]}, "has_audio": {"Points": [{"co": {"Y": -1, "X": 1}, "interpolation": 2}]}, "effects": [], "location_x": {"Points": [{"co": {"Y": 0, "X": 1}, "interpolation": 2}]}, "waveform": false, "title": "taxi_start.mp4", "image": "/home/robsen/.openshot_qt/thumbnail/LGW3TZJV4Q.png", "gravity": 4, "perspective_c2_x": {"Points": [{"co": {"Y": -1, "X": 1}, "interpolation": 2}]}, "perspective_c1_y": {"Points": [{"co": {"Y": -1, "X": 1}, "interpolation": 2}]}, "crop_height": {"Points": [{"co": {"Y": -1, "X": 1}, "interpolation": 2}]}, "crop_x": {"Points": [{"co": {"Y": 0, "X": 1}, "interpolation": 2}]}, "start": 0, "scale": 1, "shear_y": {"Points": [{"co": {"Y": 0, "X": 1}, "interpolation": 2}]}, "display": 0, "volume": {"Points": [{"co": {"Y": 1, "X": 1}, "interpolation": 2}]}, "channel_mapping": {"Points": [{"co": {"Y": -1, "X": 1}, "interpolation": 2}]}, "anchor": 0, "duration": 15.0, "perspective_c3_y": {"Points": [{"co": {"Y": -1, "X": 1}, "interpolation": 2}]}, "shear_x": {"Points": [{"co": {"Y": 0, "X": 1}, "interpolation": 2}]}, "perspective_c4_x": {"Points": [{"co": {"Y": -1, "X": 1}, "interpolation": 2}]}, "location_y": {"Points": [{"co": {"Y": 0, "X": 1}, "interpolation": 2}]}, "scale_x": {"Points": [{"co": {"Y": 1, "X": 1}, "interpolation": 2}]}, "layer": 0, "perspective_c2_y": {"Points": [{"co": {"Y": -1, "X": 1}, "interpolation": 2}]}, "perspective_c1_x": {"Points": [{"co": {"Y": -1, "X": 1}, "interpolation": 2}]}, "perspective_c4_y": {"Points": [{"co": {"Y": -1, "X": 1}, "interpolation": 2}]}, "reader": {"audio_bit_rate": 0, "has_single_image": false, "vcodec": "h264", "has_video": true, "type": "FFmpegReader", "video_length": "375", "audio_timebase": {"den": 1, "num": 1}, "path": "/home/robsen/Dropbox/Workdir/Repo/SuesseRache-HH-Taxi/taxi_start.mp4", "width": 1920, "has_audio": false, "video_bit_rate": 147692, "channel_layout": 4, "height": 1080, "display_ratio": {"den": 9, "num": 16}, "interlaced_frame": false, "duration": 15.0, "sample_rate": 0, "pixel_format": 0, "video_timebase": {"den": 12800, "num": 1}, "file_size": "276924", "top_field_first": true, "pixel_ratio": {"den": 1, "num": 1}, "acodec": "", "audio_stream_index": -1, "video_stream_index": 0, "channels": 0, "fps": {"den": 1, "num": 25}}, "channel_filter": {"Points": [{"co": {"Y": -1, "X": 1}, "interpolation": 2}]}, "file_id": "LGW3TZJV4Q", "time": {"Points": [{"co": {"Y": 1, "X": 1}, "interpolation": 2}]}}, "value": {"alpha": {"Points": [{"co": {"Y": 1, "X": 1}, "interpolation": 2}, {"handle_right": {"Y": 0, "X": 0.5}, "co": {"Y": 1, "X": 289}, "handle_left": {"Y": 1, "X": 0.5}, "handle_type": 0, "interpolation": 0}, {"handle_right": {"Y": 0, "X": 0.5}, "co": {"Y": 0, "X": 361}, "handle_left": {"Y": 1, "X": 0.5}, "handle_type": 0, "interpolation": 0}]}, "rotation": {"Points": [{"co": {"Y": 0, "X": 1}, "interpolation": 2}]}, "scale_y": {"Points": [{"co": {"Y": 1, "X": 1}, "interpolation": 2}]}, "crop_y": {"Points": [{"co": {"Y": 0, "X": 1}, "interpolation": 2}]}, "crop_width": {"Points": [{"co": {"Y": -1, "X": 1}, "interpolation": 2}]}, "end": 15, "perspective_c3_x": {"Points": [{"co": {"Y": -1, "X": 1}, "interpolation": 2}]}, "position": 8.8, "id": "0AEDFYGQ7J", "wave_color": {"green": {"Points": [{"handle_right": {"Y": 0, "X": 0.5}, "co": {"Y": 123, "X": 1}, "handle_left": {"Y": 1, "X": 0.5}, "handle_type": 0, "interpolation": 0}]}, "blue": {"Points": [{"handle_right": {"Y": 0, "X": 0.5}, "co": {"Y": 255, "X": 1}, "handle_left": {"Y": 1, "X": 0.5}, "handle_type": 0, "interpolation": 0}]}, "alpha": {"Points": [{"handle_right": {"Y": 0, "X": 0.5}, "co": {"Y": 255, "X": 1}, "handle_left": {"Y": 1, "X": 0.5}, "handle_type": 0, "interpolation": 0}]}, "red": {"Points": [{"handle_right": {"Y": 0, "X": 0.5}, "co": {"Y": 0, "X": 1}, "handle_left": {"Y": 1, "X": 0.5}, "handle_type": 0, "interpolation": 0}]}}, "has_video": {"Points": [{"co": {"Y": -1, "X": 1}, "interpolation": 2}]}, "has_audio": {"Points": [{"co": {"Y": -1, "X": 1}, "interpolation": 2}]}, "effects": [], "location_x": {"Points": [{"co": {"Y": 0, "X": 1}, "interpolation": 2}]}, "waveform": false, "title": "taxi_start.mp4", "image": "/home/robsen/.openshot_qt/thumbnail/LGW3TZJV4Q.png", "gravity": 4, "scale_x": {"Points": [{"co": {"Y": 1, "X": 1}, "interpolation": 2}]}, "perspective_c1_y": {"Points": [{"co": {"Y": -1, "X": 1}, "interpolation": 2}]}, "crop_height": {"Points": [{"co": {"Y": -1, "X": 1}, "interpolation": 2}]}, "crop_x": {"Points": [{"co": {"Y": 0, "X": 1}, "interpolation": 2}]}, "start": 0, "scale": 1, "shear_y": {"Points": [{"co": {"Y": 0, "X": 1}, "interpolation": 2}]}, "display": 0, "volume": {"Points": [{"co": {"Y": 1, "X": 1}, "interpolation": 2}]}, "channel_mapping": {"Points": [{"co": {"Y": -1, "X": 1}, "interpolation": 2}]}, "anchor": 0, "duration": 15.0, "perspective_c3_y": {"Points": [{"co": {"Y": -1, "X": 1}, "interpolation": 2}]}, "shear_x": {"Points": [{"co": {"Y": 0, "X": 1}, "interpolation": 2}]}, "perspective_c4_x": {"Points": [{"co": {"Y": -1, "X": 1}, "interpolation": 2}]}, "location_y": {"Points": [{"co": {"Y": 0, "X": 1}, "interpolation": 2}]}, "perspective_c2_x": {"Points": [{"co": {"Y": -1, "X": 1}, "interpolation": 2}]}, "layer": 0, "perspective_c2_y": {"Points": [{"co": {"Y": -1, "X": 1}, "interpolation": 2}]}, "perspective_c1_x": {"Points": [{"co": {"Y": -1, "X": 1}, "interpolation": 2}]}, "perspective_c4_y": {"Points": [{"co": {"Y": -1, "X": 1}, "interpolation": 2}]}, "channel_filter": {"Points": [{"co": {"Y": -1, "X": 1}, "interpolation": 2}]}, "time": {"Points": [{"co": {"Y": 1, "X": 1}, "interpolation": 2}]}, "file_id": "LGW3TZJV4Q"}, "key": ["clips", {"id": "0AEDFYGQ7J"}], "partial": false, "type": "update"}, {"old_values": {"alpha": {"Points": [{"co": {"Y": 1, "X": 1}, "interpolation": 2}, {"handle_right": {"Y": 0, "X": 0.5}, "co": {"Y": 1, "X": 289}, "handle_left": {"Y": 1, "X": 0.5}, "handle_type": 0, "interpolation": 0}, {"handle_right": {"Y": 0, "X": 0.5}, "co": {"Y": 0, "X": 361}, "handle_left": {"Y": 1, "X": 0.5}, "handle_type": 0, "interpolation": 0}]}, "rotation": {"Points": [{"co": {"Y": 0, "X": 1}, "interpolation": 2}]}, "scale_y": {"Points": [{"co": {"Y": 1, "X": 1}, "interpolation": 2}]}, "crop_y": {"Points": [{"co": {"Y": 0, "X": 1}, "interpolation": 2}]}, "perspective_c3_x": {"Points": [{"co": {"Y": -1, "X": 1}, "interpolation": 2}]}, "end": 15, "crop_width": {"Points": [{"co": {"Y": -1, "X": 1}, "interpolation": 2}]}, "position": 8.8, "id": "0AEDFYGQ7J", "wave_color": {"green": {"Points": [{"handle_right": {"Y": 0, "X": 0.5}, "co": {"Y": 123, "X": 1}, "handle_left": {"Y": 1, "X": 0.5}, "handle_type": 0, "interpolation": 0}]}, "blue": {"Points": [{"handle_right": {"Y": 0, "X": 0.5}, "co": {"Y": 255, "X": 1}, "handle_left": {"Y": 1, "X": 0.5}, "handle_type": 0, "interpolation": 0}]}, "alpha": {"Points": [{"handle_right": {"Y": 0, "X": 0.5}, "co": {"Y": 255, "X": 1}, "handle_left": {"Y": 1, "X": 0.5}, "handle_type": 0, "interpolation": 0}]}, "red": {"Points": [{"handle_right": {"Y": 0, "X": 0.5}, "co": {"Y": 0, "X": 1}, "handle_left": {"Y": 1, "X": 0.5}, "handle_type": 0, "interpolation": 0}]}}, "has_video": {"Points": [{"co": {"Y": -1, "X": 1}, "interpolation": 2}]}, "has_audio": {"Points": [{"co": {"Y": -1, "X": 1}, "interpolation": 2}]}, "effects": [], "location_x": {"Points": [{"co": {"Y": 0, "X": 1}, "interpolation": 2}]}, "waveform": false, "title": "taxi_start.mp4", "image": "/home/robsen/.openshot_qt/thumbnail/LGW3TZJV4Q.png", "gravity": 4, "perspective_c2_x": {"Points": [{"co": {"Y": -1, "X": 1}, "interpolation": 2}]}, "perspective_c1_y": {"Points": [{"co": {"Y": -1, "X": 1}, "interpolation": 2}]}, "crop_height": {"Points": [{"co": {"Y": -1, "X": 1}, "interpolation": 2}]}, "crop_x": {"Points": [{"co": {"Y": 0, "X": 1}, "interpolation": 2}]}, "start": 0, "scale": 1, "shear_y": {"Points": [{"co": {"Y": 0, "X": 1}, "interpolation": 2}]}, "display": 0, "volume": {"Points": [{"co": {"Y": 1, "X": 1}, "interpolation": 2}]}, "channel_mapping": {"Points": [{"co": {"Y": -1, "X": 1}, "interpolation": 2}]}, "anchor": 0, "duration": 15.0, "perspective_c3_y": {"Points": [{"co": {"Y": -1, "X": 1}, "interpolation": 2}]}, "shear_x": {"Points": [{"co": {"Y": 0, "X": 1}, "interpolation": 2}]}, "perspective_c4_x": {"Points": [{"co": {"Y": -1, "X": 1}, "interpolation": 2}]}, "location_y": {"Points": [{"co": {"Y": 0, "X": 1}, "interpolation": 2}]}, "scale_x": {"Points": [{"co": {"Y": 1, "X": 1}, "interpolation": 2}]}, "layer": 0, "perspective_c2_y": {"Points": [{"co": {"Y": -1, "X": 1}, "interpolation": 2}]}, "perspective_c1_x": {"Points": [{"co": {"Y": -1, "X": 1}, "interpolation": 2}]}, "perspective_c4_y": {"Points": [{"co": {"Y": -1, "X": 1}, "interpolation": 2}]}, "reader": {"audio_bit_rate": 0, "has_single_image": false, "vcodec": "h264", "has_video": true, "type": "FFmpegReader", "video_length": "375", "audio_timebase": {"den": 1, "num": 1}, "path": "/home/robsen/Dropbox/Workdir/Repo/SuesseRache-HH-Taxi/taxi_start.mp4", "width": 1920, "has_audio": false, "video_bit_rate": 147692, "channel_layout": 4, "height": 1080, "display_ratio": {"den": 9, "num": 16}, "interlaced_frame": false, "duration": 15.0, "sample_rate": 0, "pixel_format": 0, "video_timebase": {"den": 12800, "num": 1}, "file_size": "276924", "top_field_first": true, "pixel_ratio": {"den": 1, "num": 1}, "acodec": "", "audio_stream_index": -1, "video_stream_index": 0, "channels": 0, "fps": {"den": 1, "num": 25}}, "channel_filter": {"Points": [{"co": {"Y": -1, "X": 1}, "interpolation": 2}]}, "file_id": "LGW3TZJV4Q", "time": {"Points": [{"co": {"Y": 1, "X": 1}, "interpolation": 2}]}}, "value": {"alpha": {"Points": [{"co": {"Y": 1, "X": 1}, "interpolation": 2}, {"handle_right": {"Y": 0, "X": 0.5}, "co": {"Y": 1, "X": 289}, "handle_left": {"Y": 1, "X": 0.5}, "handle_type": 0, "interpolation": 0}, {"handle_right": {"Y": 0, "X": 0.5}, "co": {"Y": 0, "X": 361}, "handle_left": {"Y": 1, "X": 0.5}, "handle_type": 0, "interpolation": 0}, {"handle_right": {"Y": 0, "X": 0.5}, "co": {"Y": 0, "X": 1}, "handle_left": {"Y": 1, "X": 0.5}, "handle_type": 0, "interpolation": 0}, {"handle_right": {"Y": 0, "X": 0.5}, "co": {"Y": 1, "X": 73}, "handle_left": {"Y": 1, "X": 0.5}, "handle_type": 0, "interpolation": 0}]}, "rotation": {"Points": [{"co": {"Y": 0, "X": 1}, "interpolation": 2}]}, "scale_y": {"Points": [{"co": {"Y": 1, "X": 1}, "interpolation": 2}]}, "crop_y": {"Points": [{"co": {"Y": 0, "X": 1}, "interpolation": 2}]}, "crop_width": {"Points": [{"co": {"Y": -1, "X": 1}, "interpolation": 2}]}, "end": 15, "perspective_c3_x": {"Points": [{"co": {"Y": -1, "X": 1}, "interpolation": 2}]}, "position": 8.8, "id": "0AEDFYGQ7J", "wave_color": {"green": {"Points": [{"handle_right": {"Y": 0, "X": 0.5}, "co": {"Y": 123, "X": 1}, "handle_left": {"Y": 1, "X": 0.5}, "handle_type": 0, "interpolation": 0}]}, "blue": {"Points": [{"handle_right": {"Y": 0, "X": 0.5}, "co": {"Y": 255, "X": 1}, "handle_left": {"Y": 1, "X": 0.5}, "handle_type": 0, "interpolation": 0}]}, "alpha": {"Points": [{"handle_right": {"Y": 0, "X": 0.5}, "co": {"Y": 255, "X": 1}, "handle_left": {"Y": 1, "X": 0.5}, "handle_type": 0, "interpolation": 0}]}, "red": {"Points": [{"handle_right": {"Y": 0, "X": 0.5}, "co": {"Y": 0, "X": 1}, "handle_left": {"Y": 1, "X": 0.5}, "handle_type": 0, "interpolation": 0}]}}, "has_video": {"Points": [{"co": {"Y": -1, "X": 1}, "interpolation": 2}]}, "has_audio": {"Points": [{"co": {"Y": -1, "X": 1}, "interpolation": 2}]}, "effects": [], "location_x": {"Points": [{"co": {"Y": 0, "X": 1}, "interpolation": 2}]}, "waveform": false, "title": "taxi_start.mp4", "image": "/home/robsen/.openshot_qt/thumbnail/LGW3TZJV4Q.png", "gravity": 4, "scale_x": {"Points": [{"co": {"Y": 1, "X": 1}, "interpolation": 2}]}, "perspective_c1_y": {"Points": [{"co": {"Y": -1, "X": 1}, "interpolation": 2}]}, "crop_height": {"Points": [{"co": {"Y": -1, "X": 1}, "interpolation": 2}]}, "crop_x": {"Points": [{"co": {"Y": 0, "X": 1}, "interpolation": 2}]}, "start": 0, "scale": 1, "shear_y": {"Points": [{"co": {"Y": 0, "X": 1}, "interpolation": 2}]}, "display": 0, "volume": {"Points": [{"co": {"Y": 1, "X": 1}, "interpolation": 2}]}, "channel_mapping": {"Points": [{"co": {"Y": -1, "X": 1}, "interpolation": 2}]}, "anchor": 0, "duration": 15.0, "perspective_c3_y": {"Points": [{"co": {"Y": -1, "X": 1}, "interpolation": 2}]}, "shear_x": {"Points": [{"co": {"Y": 0, "X": 1}, "interpolation": 2}]}, "perspective_c4_x": {"Points": [{"co": {"Y": -1, "X": 1}, "interpolation": 2}]}, "location_y": {"Points": [{"co": {"Y": 0, "X": 1}, "interpolation": 2}]}, "perspective_c2_x": {"Points": [{"co": {"Y": -1, "X": 1}, "interpolation": 2}]}, "layer": 0, "perspective_c2_y": {"Points": [{"co": {"Y": -1, "X": 1}, "interpolation": 2}]}, "perspective_c1_x": {"Points": [{"co": {"Y": -1, "X": 1}, "interpolation": 2}]}, "perspective_c4_y": {"Points": [{"co": {"Y": -1, "X": 1}, "interpolation": 2}]}, "channel_filter": {"Points": [{"co": {"Y": -1, "X": 1}, "interpolation": 2}]}, "time": {"Points": [{"co": {"Y": 1, "X": 1}, "interpolation": 2}]}, "file_id": "LGW3TZJV4Q"}, "key": ["clips", {"id": "0AEDFYGQ7J"}], "partial": false, "type": "update"}, {"old_values": {"alpha": {"Points": [{"co": {"Y": 1, "X": 1}, "interpolation": 2}]}, "rotation": {"Points": [{"co": {"Y": 0, "X": 1}, "interpolation": 2}]}, "scale_y": {"Points": [{"co": {"Y": 1, "X": 1}, "interpolation": 2}]}, "crop_y": {"Points": [{"co": {"Y": 0, "X": 1}, "interpolation": 2}]}, "perspective_c3_x": {"Points": [{"co": {"Y": -1, "X": 1}, "interpolation": 2}]}, "end": 15, "crop_width": {"Points": [{"co": {"Y": -1, "X": 1}, "interpolation": 2}]}, "position": 53.075, "id": "PJWPMFXKV3", "wave_color": {"green": {"Points": [{"handle_right": {"Y": 0, "X": 0.5}, "co": {"Y": 123, "X": 1}, "handle_left": {"Y": 1, "X": 0.5}, "handle_type": 0, "interpolation": 0}]}, "blue": {"Points": [{"handle_right": {"Y": 0, "X": 0.5}, "co": {"Y": 255, "X": 1}, "handle_left": {"Y": 1, "X": 0.5}, "handle_type": 0, "interpolation": 0}]}, "alpha": {"Points": [{"handle_right": {"Y": 0, "X": 0.5}, "co": {"Y": 255, "X": 1}, "handle_left": {"Y": 1, "X": 0.5}, "handle_type": 0, "interpolation": 0}]}, "red": {"Points": [{"handle_right": {"Y": 0, "X": 0.5}, "co": {"Y": 0, "X": 1}, "handle_left": {"Y": 1, "X": 0.5}, "handle_type": 0, "interpolation": 0}]}}, "has_video": {"Points": [{"co": {"Y": -1, "X": 1}, "interpolation": 2}]}, "has_audio": {"Points": [{"co": {"Y": -1, "X": 1}, "interpolation": 2}]}, "effects": [], "location_x": {"Points": [{"co": {"Y": 0, "X": 1}, "interpolation": 2}]}, "waveform": false, "title": "arrow.mp4", "image": "/home/robsen/.openshot_qt/thumbnail/X22V56NF57.png", "gravity": 4, "perspective_c2_x": {"Points": [{"co": {"Y": -1, "X": 1}, "interpolation": 2}]}, "perspective_c1_y": {"Points": [{"co": {"Y": -1, "X": 1}, "interpolation": 2}]}, "crop_height": {"Points": [{"co": {"Y": -1, "X": 1}, "interpolation": 2}]}, "crop_x": {"Points": [{"co": {"Y": 0, "X": 1}, "interpolation": 2}]}, "start": 0, "scale": 1, "shear_y": {"Points": [{"co": {"Y": 0, "X": 1}, "interpolation": 2}]}, "display": 0, "volume": {"Points": [{"co": {"Y": 1, "X": 1}, "interpolation": 2}]}, "channel_mapping": {"Points": [{"co": {"Y": -1, "X": 1}, "interpolation": 2}]}, "anchor": 0, "duration": 15.0, "perspective_c3_y": {"Points": [{"co": {"Y": -1, "X": 1}, "interpolation": 2}]}, "shear_x": {"Points": [{"co": {"Y": 0, "X": 1}, "interpolation": 2}]}, "perspective_c4_x": {"Points": [{"co": {"Y": -1, "X": 1}, "interpolation": 2}]}, "location_y": {"Points": [{"co": {"Y": 0, "X": 1}, "interpolation": 2}]}, "scale_x": {"Points": [{"co": {"Y": 1, "X": 1}, "interpolation": 2}]}, "layer": 2, "perspective_c2_y": {"Points": [{"co": {"Y": -1, "X": 1}, "interpolation": 2}]}, "perspective_c1_x": {"Points": [{"co": {"Y": -1, "X": 1}, "interpolation": 2}]}, "perspective_c4_y": {"Points": [{"co": {"Y": -1, "X": 1}, "interpolation": 2}]}, "reader": {"audio_bit_rate": 0, "has_single_image": false, "vcodec": "h264", "has_video": true, "type": "FFmpegReader", "video_length": "375", "audio_timebase": {"den": 1, "num": 1}, "path": "/home/robsen/Dropbox/Workdir/Repo/SuesseRache-HH-Taxi/arrow.mp4", "width": 1920, "has_audio": false, "video_bit_rate": 83079, "channel_layout": 4, "height": 1080, "display_ratio": {"den": 9, "num": 16}, "interlaced_frame": false, "duration": 15.0, "sample_rate": 0, "pixel_format": 0, "video_timebase": {"den": 12800, "num": 1}, "file_size": "155774", "top_field_first": true, "pixel_ratio": {"den": 1, "num": 1}, "acodec": "", "audio_stream_index": -1, "video_stream_index": 0, "channels": 0, "fps": {"den": 1, "num": 25}}, "channel_filter": {"Points": [{"co": {"Y": -1, "X": 1}, "interpolation": 2}]}, "file_id": "X22V56NF57", "time": {"Points": [{"co": {"Y": 1, "X": 1}, "interpolation": 2}]}}, "value": {"alpha": {"Points": [{"co": {"Y": 1, "X": 1}, "interpolation": 2}, {"handle_right": {"Y": 0, "X": 0.5}, "co": {"Y": 0, "X": 1}, "handle_left": {"Y": 1, "X": 0.5}, "handle_type": 0, "interpolation": 0}, {"handle_right": {"Y": 0, "X": 0.5}, "co": {"Y": 1, "X": 73}, "handle_left": {"Y": 1, "X": 0.5}, "handle_type": 0, "interpolation": 0}]}, "rotation": {"Points": [{"co": {"Y": 0, "X": 1}, "interpolation": 2}]}, "scale_y": {"Points": [{"co": {"Y": 1, "X": 1}, "interpolation": 2}]}, "crop_y": {"Points": [{"co": {"Y": 0, "X": 1}, "interpolation": 2}]}, "crop_width": {"Points": [{"co": {"Y": -1, "X": 1}, "interpolation": 2}]}, "end": 15, "perspective_c3_x": {"Points": [{"co": {"Y": -1, "X": 1}, "interpolation": 2}]}, "position": 53.075, "id": "PJWPMFXKV3", "wave_color": {"green": {"Points": [{"handle_right": {"Y": 0, "X": 0.5}, "co": {"Y": 123, "X": 1}, "handle_left": {"Y": 1, "X": 0.5}, "handle_type": 0, "interpolation": 0}]}, "blue": {"Points": [{"handle_right": {"Y": 0, "X": 0.5}, "co": {"Y": 255, "X": 1}, "handle_left": {"Y": 1, "X": 0.5}, "handle_type": 0, "interpolation": 0}]}, "alpha": {"Points": [{"handle_right": {"Y": 0, "X": 0.5}, "co": {"Y": 255, "X": 1}, "handle_left": {"Y": 1, "X": 0.5}, "handle_type": 0, "interpolation": 0}]}, "red": {"Points": [{"handle_right": {"Y": 0, "X": 0.5}, "co": {"Y": 0, "X": 1}, "handle_left": {"Y": 1, "X": 0.5}, "handle_type": 0, "interpolation": 0}]}}, "has_video": {"Points": [{"co": {"Y": -1, "X": 1}, "interpolation": 2}]}, "has_audio": {"Points": [{"co": {"Y": -1, "X": 1}, "interpolation": 2}]}, "effects": [], "location_x": {"Points": [{"co": {"Y": 0, "X": 1}, "interpolation": 2}]}, "waveform": false, "title": "arrow.mp4", "image": "/home/robsen/.openshot_qt/thumbnail/X22V56NF57.png", "gravity": 4, "scale_x": {"Points": [{"co": {"Y": 1, "X": 1}, "interpolation": 2}]}, "perspective_c1_y": {"Points": [{"co": {"Y": -1, "X": 1}, "interpolation": 2}]}, "crop_height": {"Points": [{"co": {"Y": -1, "X": 1}, "interpolation": 2}]}, "crop_x": {"Points": [{"co": {"Y": 0, "X": 1}, "interpolation": 2}]}, "start": 0, "scale": 1, "shear_y": {"Points": [{"co": {"Y": 0, "X": 1}, "interpolation": 2}]}, "display": 0, "volume": {"Points": [{"co": {"Y": 1, "X": 1}, "interpolation": 2}]}, "channel_mapping": {"Points": [{"co": {"Y": -1, "X": 1}, "interpolation": 2}]}, "anchor": 0, "duration": 15.0, "perspective_c3_y": {"Points": [{"co": {"Y": -1, "X": 1}, "interpolation": 2}]}, "shear_x": {"Points": [{"co": {"Y": 0, "X": 1}, "interpolation": 2}]}, "perspective_c4_x": {"Points": [{"co": {"Y": -1, "X": 1}, "interpolation": 2}]}, "location_y": {"Points": [{"co": {"Y": 0, "X": 1}, "interpolation": 2}]}, "perspective_c2_x": {"Points": [{"co": {"Y": -1, "X": 1}, "interpolation": 2}]}, "layer": 2, "perspective_c2_y": {"Points": [{"co": {"Y": -1, "X": 1}, "interpolation": 2}]}, "perspective_c1_x": {"Points": [{"co": {"Y": -1, "X": 1}, "interpolation": 2}]}, "perspective_c4_y": {"Points": [{"co": {"Y": -1, "X": 1}, "interpolation": 2}]}, "channel_filter": {"Points": [{"co": {"Y": -1, "X": 1}, "interpolation": 2}]}, "time": {"Points": [{"co": {"Y": 1, "X": 1}, "interpolation": 2}]}, "file_id": "X22V56NF57"}, "key": ["clips", {"id": "PJWPMFXKV3"}], "partial": false, "type": "update"}]}, "key": ["history"], "partial": false, "type": "update"}, {"old_values": null, "value": {"redo": [], "undo": [{"old_values": [{"number": 0, "label": "Spur 1", "id": "UBOPYJIV1S", "y": 0}, {"number": 1, "label": "Spur 2", "id": "SHY16ICR2M", "y": 0}], "value": {"number": 2, "y": 0, "label": "", "id": "E44ZNJSI3Z", "lock": false}, "key": ["layers"], "partial": false, "type": "insert"}, {"old_values": [], "value": {"audio_bit_rate": 0, "has_single_image": false, "media_type": "video", "id": "LGW3TZJV4Q", "type": "FFmpegReader", "has_video": true, "video_length": "375", "audio_timebase": {"den": 1, "num": 1}, "path": "/home/robsen/Dropbox/Workdir/Repo/SuesseRache-HH-Taxi/taxi_start.mp4", "width": 1920, "has_audio": false, "video_bit_rate": 147692, "channel_layout": 4, "height": 1080, "vcodec": "h264", "display_ratio": {"den": 9, "num": 16}, "interlaced_frame": false, "duration": 15, "sample_rate": 0, "pixel_format": 0, "video_timebase": {"den": 12800, "num": 1}, "file_size": "276924", "top_field_first": true, "pixel_ratio": {"den": 1, "num": 1}, "acodec": "", "audio_stream_index": -1, "video_stream_index": 0, "channels": 0, "fps": {"den": 1, "num": 25}}, "key": ["files"], "partial": false, "type": "insert"}, {"old_values": [{"audio_bit_rate": 0, "has_single_image": false, "media_type": "video", "id": "LGW3TZJV4Q", "type": "FFmpegReader", "has_video": true, "video_length": "375", "audio_timebase": {"den": 1, "num": 1}, "path": "/home/robsen/Dropbox/Workdir/Repo/SuesseRache-HH-Taxi/taxi_start.mp4", "width": 1920, "has_audio": false, "video_bit_rate": 147692, "channel_layout": 4, "height": 1080, "vcodec": "h264", "display_ratio": {"den": 9, "num": 16}, "interlaced_frame": false, "duration": 15, "sample_rate": 0, "pixel_format": 0, "video_timebase": {"den": 12800, "num": 1}, "file_size": "276924", "top_field_first": true, "pixel_ratio": {"den": 1, "num": 1}, "acodec": "", "audio_stream_index": -1, "video_stream_index": 0, "channels": 0, "fps": {"den": 1, "num": 25}}], "value": {"audio_bit_rate": 189375, "has_single_image": false, "media_type": "video", "id": "Z3LOYBY1PL", "type": "FFmpegReader", "has_video": true, "video_length": "937", "audio_timebase": {"den": 48000, "num": 1}, "path": "/home/robsen/Dropbox/Workdir/Repo/SuesseRache-HH-Taxi/TE_SR_Taxi.mp4", "width": 1920, "has_audio": true, "video_bit_rate": 32091692, "channel_layout": 3, "height": 1080, "vcodec": "h264", "display_ratio": {"den": 9, "num": 16}, "interlaced_frame": false, "duration": 31.317333221435547, "sample_rate": 48000, "pixel_format": 0, "video_timebase": {"den": 29970, "num": 1}, "file_size": "125628279", "top_field_first": true, "pixel_ratio": {"den": 1, "num": 1}, "acodec": "aac", "audio_stream_index": 1, "video_stream_index": 0, "channels": 2, "fps": {"den": 100, "num": 2997}}, "key": ["files"], "partial": false, "type": "insert"}, {"old_values": [{"audio_bit_rate": 0, "has_single_image": false, "media_type": "video", "id": "LGW3TZJV4Q", "type": "FFmpegReader", "has_video": true, "video_length": "375", "audio_timebase": {"den": 1, "num": 1}, "path": "/home/robsen/Dropbox/Workdir/Repo/SuesseRache-HH-Taxi/taxi_start.mp4", "width": 1920, "has_audio": false, "video_bit_rate": 147692, "channel_layout": 4, "height": 1080, "vcodec": "h264", "display_ratio": {"den": 9, "num": 16}, "interlaced_frame": false, "duration": 15, "sample_rate": 0, "pixel_format": 0, "video_timebase": {"den": 12800, "num": 1}, "file_size": "276924", "top_field_first": true, "pixel_ratio": {"den": 1, "num": 1}, "acodec": "", "audio_stream_index": -1, "video_stream_index": 0, "channels": 0, "fps": {"den": 1, "num": 25}}, {"audio_bit_rate": 189375, "has_single_image": false, "media_type": "video", "id": "Z3LOYBY1PL", "type": "FFmpegReader", "has_video": true, "video_length": "937", "audio_timebase": {"den": 48000, "num": 1}, "path": "/home/robsen/Dropbox/Workdir/Repo/SuesseRache-HH-Taxi/TE_SR_Taxi.mp4", "width": 1920, "has_audio": true, "video_bit_rate": 32091692, "channel_layout": 3, "height": 1080, "vcodec": "h264", "display_ratio": {"den": 9, "num": 16}, "interlaced_frame": false, "duration": 31.317333221435547, "sample_rate": 48000, "pixel_format": 0, "video_timebase": {"den": 29970, "num": 1}, "file_size": "125628279", "top_field_first": true, "pixel_ratio": {"den": 1, "num": 1}, "acodec": "aac", "audio_stream_index": 1, "video_stream_index": 0, "channels": 2, "fps": {"den": 100, "num": 2997}}], "value": {"audio_bit_rate": 0, "has_single_image": false, "media_type": "video", "id": "X22V56NF57", "type": "FFmpegReader", "has_video": true, "video_length": "375", "audio_timebase": {"den": 1, "num": 1}, "path": "/home/robsen/Dropbox/Workdir/Repo/SuesseRache-HH-Taxi/arrow.mp4", "width": 1920, "has_audio": false, "video_bit_rate": 83079, "channel_layout": 4, "height": 1080, "vcodec": "h264", "display_ratio": {"den": 9, "num": 16}, "interlaced_frame": false, "duration": 15, "sample_rate": 0, "pixel_format": 0, "video_timebase": {"den": 12800, "num": 1}, "file_size": "155774", "top_field_first": true, "pixel_ratio": {"den": 1, "num": 1}, "acodec": "", "audio_stream_index": -1, "video_stream_index": 0, "channels": 0, "fps": {"den": 1, "num": 25}}, "key": ["files"], "partial": false, "type": "insert"}, {"old_values": [], "value": {"alpha": {"Points": [{"co": {"Y": 1, "X": 1}, "interpolation": 2}, {"handle_right": {"Y": 0, "X": 0.5}, "co": {"Y": 1, "X": 289}, "handle_left": {"Y": 1, "X": 0.5}, "handle_type": 0, "interpolation": 0}, {"handle_right": {"Y": 0, "X": 0.5}, "co": {"Y": 0, "X": 361}, "handle_left": {"Y": 1, "X": 0.5}, "handle_type": 0, "interpolation": 0}, {"handle_right": {"Y": 0, "X": 0.5}, "co": {"Y": 0, "X": 1}, "handle_left": {"Y": 1, "X": 0.5}, "handle_type": 0, "interpolation": 0}, {"handle_right": {"Y": 0, "X": 0.5}, "co": {"Y": 1, "X": 73}, "handle_left": {"Y": 1, "X": 0.5}, "handle_type": 0, "interpolation": 0}]}, "rotation": {"Points": [{"co": {"Y": 0, "X": 1}, "interpolation": 2}]}, "scale_y": {"Points": [{"co": {"Y": 1, "X": 1}, "interpolation": 2}]}, "crop_y": {"Points": [{"co": {"Y": 0, "X": 1}, "interpolation": 2}]}, "perspective_c3_x": {"Points": [{"co": {"Y": -1, "X": 1}, "interpolation": 2}]}, "end": 15, "crop_width": {"Points": [{"co": {"Y": -1, "X": 1}, "interpolation": 2}]}, "position": 8.8, "id": "0AEDFYGQ7J", "wave_color": {"green": {"Points": [{"handle_right": {"Y": 0, "X": 0.5}, "co": {"Y": 123, "X": 1}, "handle_left": {"Y": 1, "X": 0.5}, "handle_type": 0, "interpolation": 0}]}, "blue": {"Points": [{"handle_right": {"Y": 0, "X": 0.5}, "co": {"Y": 255, "X": 1}, "handle_left": {"Y": 1, "X": 0.5}, "handle_type": 0, "interpolation": 0}]}, "alpha": {"Points": [{"handle_right": {"Y": 0, "X": 0.5}, "co": {"Y": 255, "X": 1}, "handle_left": {"Y": 1, "X": 0.5}, "handle_type": 0, "interpolation": 0}]}, "red": {"Points": [{"handle_right": {"Y": 0, "X": 0.5}, "co": {"Y": 0, "X": 1}, "handle_left": {"Y": 1, "X": 0.5}, "handle_type": 0, "interpolation": 0}]}}, "has_video": {"Points": [{"co": {"Y": -1, "X": 1}, "interpolation": 2}]}, "has_audio": {"Points": [{"co": {"Y": -1, "X": 1}, "interpolation": 2}]}, "effects": [], "location_x": {"Points": [{"co": {"Y": 0, "X": 1}, "interpolation": 2}]}, "waveform": false, "title": "taxi_start.mp4", "image": "/home/robsen/.openshot_qt/thumbnail/LGW3TZJV4Q.png", "gravity": 4, "scale_x": {"Points": [{"co": {"Y": 1, "X": 1}, "interpolation": 2}]}, "perspective_c1_y": {"Points": [{"co": {"Y": -1, "X": 1}, "interpolation": 2}]}, "crop_height": {"Points": [{"co": {"Y": -1, "X": 1}, "interpolation": 2}]}, "crop_x": {"Points": [{"co": {"Y": 0, "X": 1}, "interpolation": 2}]}, "start": 0, "scale": 1, "shear_y": {"Points": [{"co": {"Y": 0, "X": 1}, "interpolation": 2}]}, "display": 0, "volume": {"Points": [{"co": {"Y": 1, "X": 1}, "interpolation": 2}]}, "channel_mapping": {"Points": [{"co": {"Y": -1, "X": 1}, "interpolation": 2}]}, "anchor": 0, "duration": 15.0, "perspective_c3_y": {"Points": [{"co": {"Y": -1, "X": 1}, "interpolation": 2}]}, "shear_x": {"Points": [{"co": {"Y": 0, "X": 1}, "interpolation": 2}]}, "perspective_c4_x": {"Points": [{"co": {"Y": -1, "X": 1}, "interpolation": 2}]}, "location_y": {"Points": [{"co": {"Y": 0, "X": 1}, "interpolation": 2}]}, "perspective_c2_x": {"Points": [{"co": {"Y": -1, "X": 1}, "interpolation": 2}]}, "layer": 0, "perspective_c2_y": {"Points": [{"co": {"Y": -1, "X": 1}, "interpolation": 2}]}, "perspective_c1_x": {"Points": [{"co": {"Y": -1, "X": 1}, "interpolation": 2}]}, "perspective_c4_y": {"Points": [{"co": {"Y": -1, "X": 1}, "interpolation": 2}]}, "reader": {"audio_bit_rate": 0, "has_single_image": false, "has_video": true, "type": "FFmpegReader", "video_length": "375", "audio_timebase": {"den": 1, "num": 1}, "path": "/home/robsen/Dropbox/Workdir/Repo/SuesseRache-HH-Taxi/taxi_start.mp4", "width": 1920, "has_audio": false, "video_bit_rate": 147692, "channel_layout": 4, "height": 1080, "display_ratio": {"den": 9, "num": 16}, "interlaced_frame": false, "video_timebase": {"den": 12800, "num": 1}, "duration": 15.0, "sample_rate": 0, "pixel_format": 0, "fps": {"den": 1, "num": 25}, "file_size": "276924", "top_field_first": true, "pixel_ratio": {"den": 1, "num": 1}, "acodec": "", "audio_stream_index": -1, "video_stream_index": 0, "channels": 0, "vcodec": "h264"}, "channel_filter": {"Points": [{"co": {"Y": -1, "X": 1}, "interpolation": 2}]}, "file_id": "LGW3TZJV4Q", "time": {"Points": [{"co": {"Y": 1, "X": 1}, "interpolation": 2}]}}, "key": ["clips"], "partial": false, "type": "insert"}, {"old_values": null, "value": {"id": "0AEDFYGQ7J", "start": 0, "end": 15, "position": 8.8, "layer": 0, "image": "/home/robsen/.openshot_qt/thumbnail/LGW3TZJV4Q.png"}, "key": ["clips", {"id": "0AEDFYGQ7J"}], "partial": false, "type": "update"}, {"old_values": null, "value": {"id": "0AEDFYGQ7J", "start": 0, "end": 15, "position": 8.8, "layer": 0, "image": "/home/robsen/.openshot_qt/thumbnail/LGW3TZJV4Q.png"}, "key": ["clips", {"id": "0AEDFYGQ7J"}], "partial": false, "type": "update"}, {"old_values": [{"alpha": {"Points": [{"co": {"Y": 1, "X": 1}, "interpolation": 2}]}, "rotation": {"Points": [{"co": {"Y": 0, "X": 1}, "interpolation": 2}]}, "scale_y": {"Points": [{"co": {"Y": 1, "X": 1}, "interpolation": 2}]}, "crop_y": {"Points": [{"co": {"Y": 0, "X": 1}, "interpolation": 2}]}, "perspective_c3_x": {"Points": [{"co": {"Y": -1, "X": 1}, "interpolation": 2}]}, "end": 15, "crop_width": {"Points": [{"co": {"Y": -1, "X": 1}, "interpolation": 2}]}, "position": 8.8, "id": "0AEDFYGQ7J", "wave_color": {"green": {"Points": [{"handle_right": {"Y": 0, "X": 0.5}, "co": {"Y": 123, "X": 1}, "handle_left": {"Y": 1, "X": 0.5}, "handle_type": 0, "interpolation": 0}]}, "blue": {"Points": [{"handle_right": {"Y": 0, "X": 0.5}, "co": {"Y": 255, "X": 1}, "handle_left": {"Y": 1, "X": 0.5}, "handle_type": 0, "interpolation": 0}]}, "alpha": {"Points": [{"handle_right": {"Y": 0, "X": 0.5}, "co": {"Y": 255, "X": 1}, "handle_left": {"Y": 1, "X": 0.5}, "handle_type": 0, "interpolation": 0}]}, "red": {"Points": [{"handle_right": {"Y": 0, "X": 0.5}, "co": {"Y": 0, "X": 1}, "handle_left": {"Y": 1, "X": 0.5}, "handle_type": 0, "interpolation": 0}]}}, "has_video": {"Points": [{"co": {"Y": -1, "X": 1}, "interpolation": 2}]}, "has_audio": {"Points": [{"co": {"Y": -1, "X": 1}, "interpolation": 2}]}, "effects": [], "location_x": {"Points": [{"co": {"Y": 0, "X": 1}, "interpolation": 2}]}, "waveform": false, "title": "taxi_start.mp4", "image": "/home/robsen/.openshot_qt/thumbnail/LGW3TZJV4Q.png", "gravity": 4, "perspective_c2_x": {"Points": [{"co": {"Y": -1, "X": 1}, "interpolation": 2}]}, "perspective_c1_y": {"Points": [{"co": {"Y": -1, "X": 1}, "interpolation": 2}]}, "crop_height": {"Points": [{"co": {"Y": -1, "X": 1}, "interpolation": 2}]}, "crop_x": {"Points": [{"co": {"Y": 0, "X": 1}, "interpolation": 2}]}, "start": 0, "scale": 1, "shear_y": {"Points": [{"co": {"Y": 0, "X": 1}, "interpolation": 2}]}, "display": 0, "volume": {"Points": [{"co": {"Y": 1, "X": 1}, "interpolation": 2}]}, "channel_mapping": {"Points": [{"co": {"Y": -1, "X": 1}, "interpolation": 2}]}, "anchor": 0, "duration": 15.0, "perspective_c3_y": {"Points": [{"co": {"Y": -1, "X": 1}, "interpolation": 2}]}, "shear_x": {"Points": [{"co": {"Y": 0, "X": 1}, "interpolation": 2}]}, "perspective_c4_x": {"Points": [{"co": {"Y": -1, "X": 1}, "interpolation": 2}]}, "location_y": {"Points": [{"co": {"Y": 0, "X": 1}, "interpolation": 2}]}, "scale_x": {"Points": [{"co": {"Y": 1, "X": 1}, "interpolation": 2}]}, "layer": 0, "perspective_c2_y": {"Points": [{"co": {"Y": -1, "X": 1}, "interpolation": 2}]}, "perspective_c1_x": {"Points": [{"co": {"Y": -1, "X": 1}, "interpolation": 2}]}, "perspective_c4_y": {"Points": [{"co": {"Y": -1, "X": 1}, "interpolation": 2}]}, "reader": {"audio_bit_rate": 0, "has_single_image": false, "vcodec": "h264", "has_video": true, "type": "FFmpegReader", "video_length": "375", "audio_timebase": {"den": 1, "num": 1}, "path": "/home/robsen/Dropbox/Workdir/Repo/SuesseRache-HH-Taxi/taxi_start.mp4", "width": 1920, "has_audio": false, "video_bit_rate": 147692, "channel_layout": 4, "height": 1080, "display_ratio": {"den": 9, "num": 16}, "interlaced_frame": false, "duration": 15.0, "sample_rate": 0, "pixel_format": 0, "video_timebase": {"den": 12800, "num": 1}, "file_size": "276924", "top_field_first": true, "pixel_ratio": {"den": 1, "num": 1}, "acodec": "", "audio_stream_index": -1, "video_stream_index": 0, "channels": 0, "fps": {"den": 1, "num": 25}}, "channel_filter": {"Points": [{"co": {"Y": -1, "X": 1}, "interpolation": 2}]}, "file_id": "LGW3TZJV4Q", "time": {"Points": [{"co": {"Y": 1, "X": 1}, "interpolation": 2}]}}], "value": {"alpha": {"Points": [{"co": {"Y": 1, "X": 1}, "interpolation": 2}]}, "rotation": {"Points": [{"co": {"Y": 0, "X": 1}, "interpolation": 2}]}, "scale_y": {"Points": [{"co": {"Y": 1, "X": 1}, "interpolation": 2}]}, "crop_y": {"Points": [{"co": {"Y": 0, "X": 1}, "interpolation": 2}]}, "perspective_c3_x": {"Points": [{"co": {"Y": -1, "X": 1}, "interpolation": 2}]}, "end": 31.317333221435547, "crop_width": {"Points": [{"co": {"Y": -1, "X": 1}, "interpolation": 2}]}, "position": 21.76, "id": "627XQDJ3EP", "wave_color": {"green": {"Points": [{"handle_right": {"Y": 0, "X": 0.5}, "co": {"Y": 123, "X": 1}, "handle_left": {"Y": 1, "X": 0.5}, "handle_type": 0, "interpolation": 0}]}, "blue": {"Points": [{"handle_right": {"Y": 0, "X": 0.5}, "co": {"Y": 255, "X": 1}, "handle_left": {"Y": 1, "X": 0.5}, "handle_type": 0, "interpolation": 0}]}, "alpha": {"Points": [{"handle_right": {"Y": 0, "X": 0.5}, "co": {"Y": 255, "X": 1}, "handle_left": {"Y": 1, "X": 0.5}, "handle_type": 0, "interpolation": 0}]}, "red": {"Points": [{"handle_right": {"Y": 0, "X": 0.5}, "co": {"Y": 0, "X": 1}, "handle_left": {"Y": 1, "X": 0.5}, "handle_type": 0, "interpolation": 0}]}}, "has_video": {"Points": [{"co": {"Y": -1, "X": 1}, "interpolation": 2}]}, "has_audio": {"Points": [{"co": {"Y": -1, "X": 1}, "interpolation": 2}]}, "effects": [], "location_x": {"Points": [{"co": {"Y": 0, "X": 1}, "interpolation": 2}]}, "waveform": false, "title": "TE_SR_Taxi.mp4", "image": "/home/robsen/.openshot_qt/thumbnail/Z3LOYBY1PL.png", "gravity": 4, "scale_x": {"Points": [{"co": {"Y": 1, "X": 1}, "interpolation": 2}]}, "perspective_c1_y": {"Points": [{"co": {"Y": -1, "X": 1}, "interpolation": 2}]}, "crop_height": {"Points": [{"co": {"Y": -1, "X": 1}, "interpolation": 2}]}, "crop_x": {"Points": [{"co": {"Y": 0, "X": 1}, "interpolation": 2}]}, "start": 0, "scale": 1, "shear_y": {"Points": [{"co": {"Y": 0, "X": 1}, "interpolation": 2}]}, "display": 0, "volume": {"Points": [{"co": {"Y": 1, "X": 1}, "interpolation": 2}]}, "channel_mapping": {"Points": [{"co": {"Y": -1, "X": 1}, "interpolation": 2}]}, "anchor": 0, "duration": 31.317333221435547, "perspective_c3_y": {"Points": [{"co": {"Y": -1, "X": 1}, "interpolation": 2}]}, "shear_x": {"Points": [{"co": {"Y": 0, "X": 1}, "interpolation": 2}]}, "perspective_c4_x": {"Points": [{"co": {"Y": -1, "X": 1}, "interpolation": 2}]}, "location_y": {"Points": [{"co": {"Y": 0, "X": 1}, "interpolation": 2}]}, "perspective_c2_x": {"Points": [{"co": {"Y": -1, "X": 1}, "interpolation": 2}]}, "layer": 1, "perspective_c2_y": {"Points": [{"co": {"Y": -1, "X": 1}, "interpolation": 2}]}, "perspective_c1_x": {"Points": [{"co": {"Y": -1, "X": 1}, "interpolation": 2}]}, "perspective_c4_y": {"Points": [{"co": {"Y": -1, "X": 1}, "interpolation": 2}]}, "reader": {"audio_bit_rate": 189375, "has_single_image": false, "has_video": true, "type": "FFmpegReader", "video_length": "937", "audio_timebase": {"den": 48000, "num": 1}, "path": "/home/robsen/Dropbox/Workdir/Repo/SuesseRache-HH-Taxi/TE_SR_Taxi.mp4", "width": 1920, "has_audio": true, "video_bit_rate": 32091692, "channel_layout": 3, "height": 1080, "display_ratio": {"den": 9, "num": 16}, "interlaced_frame": false, "video_timebase": {"den": 29970, "num": 1}, "duration": 31.317333221435547, "sample_rate": 48000, "pixel_format": 0, "fps": {"den": 100, "num": 2997}, "file_size": "125628279", "top_field_first": true, "pixel_ratio": {"den": 1, "num": 1}, "acodec": "aac", "audio_stream_index": 1, "video_stream_index": 0, "channels": 2, "vcodec": "h264"}, "channel_filter": {"Points": [{"co": {"Y": -1, "X": 1}, "interpolation": 2}]}, "file_id": "Z3LOYBY1PL", "time": {"Points": [{"co": {"Y": 1, "X": 1}, "interpolation": 2}]}}, "key": ["clips"], "partial": false, "type": "insert"}, {"old_values": {"alpha": {"Points": [{"co": {"Y": 1, "X": 1}, "interpolation": 2}]}, "rotation": {"Points": [{"co": {"Y": 0, "X": 1}, "interpolation": 2}]}, "scale_y": {"Points": [{"co": {"Y": 1, "X": 1}, "interpolation": 2}]}, "crop_y": {"Points": [{"co": {"Y": 0, "X": 1}, "interpolation": 2}]}, "perspective_c3_x": {"Points": [{"co": {"Y": -1, "X": 1}, "interpolation": 2}]}, "end": 31.317333221435547, "crop_width": {"Points": [{"co": {"Y": -1, "X": 1}, "interpolation": 2}]}, "position": 18.88, "id": "627XQDJ3EP", "wave_color": {"green": {"Points": [{"handle_right": {"Y": 0, "X": 0.5}, "co": {"Y": 123, "X": 1}, "handle_left": {"Y": 1, "X": 0.5}, "handle_type": 0, "interpolation": 0}]}, "blue": {"Points": [{"handle_right": {"Y": 0, "X": 0.5}, "co": {"Y": 255, "X": 1}, "handle_left": {"Y": 1, "X": 0.5}, "handle_type": 0, "interpolation": 0}]}, "alpha": {"Points": [{"handle_right": {"Y": 0, "X": 0.5}, "co": {"Y": 255, "X": 1}, "handle_left": {"Y": 1, "X": 0.5}, "handle_type": 0, "interpolation": 0}]}, "red": {"Points": [{"handle_right": {"Y": 0, "X": 0.5}, "co": {"Y": 0, "X": 1}, "handle_left": {"Y": 1, "X": 0.5}, "handle_type": 0, "interpolation": 0}]}}, "has_video": {"Points": [{"co": {"Y": -1, "X": 1}, "interpolation": 2}]}, "has_audio": {"Points": [{"co": {"Y": -1, "X": 1}, "interpolation": 2}]}, "effects": [], "location_x": {"Points": [{"co": {"Y": 0, "X": 1}, "interpolation": 2}]}, "waveform": false, "title": "TE_SR_Taxi.mp4", "image": "/home/robsen/.openshot_qt/thumbnail/Z3LOYBY1PL.png", "gravity": 4, "scale_x": {"Points": [{"co": {"Y": 1, "X": 1}, "interpolation": 2}]}, "perspective_c1_y": {"Points": [{"co": {"Y": -1, "X": 1}, "interpolation": 2}]}, "crop_height": {"Points": [{"co": {"Y": -1, "X": 1}, "interpolation": 2}]}, "crop_x": {"Points": [{"co": {"Y": 0, "X": 1}, "interpolation": 2}]}, "start": 0, "scale": 1, "shear_y": {"Points": [{"co": {"Y": 0, "X": 1}, "interpolation": 2}]}, "display": 0, "volume": {"Points": [{"co": {"Y": 1, "X": 1}, "interpolation": 2}]}, "channel_mapping": {"Points": [{"co": {"Y": -1, "X": 1}, "interpolation": 2}]}, "anchor": 0, "duration": 31.317333221435547, "perspective_c3_y": {"Points": [{"co": {"Y": -1, "X": 1}, "interpolation": 2}]}, "shear_x": {"Points": [{"co": {"Y": 0, "X": 1}, "interpolation": 2}]}, "perspective_c4_x": {"Points": [{"co": {"Y": -1, "X": 1}, "interpolation": 2}]}, "location_y": {"Points": [{"co": {"Y": 0, "X": 1}, "interpolation": 2}]}, "perspective_c2_x": {"Points": [{"co": {"Y": -1, "X": 1}, "interpolation": 2}]}, "layer": 2, "perspective_c2_y": {"Points": [{"co": {"Y": -1, "X": 1}, "interpolation": 2}]}, "perspective_c1_x": {"Points": [{"co": {"Y": -1, "X": 1}, "interpolation": 2}]}, "perspective_c4_y": {"Points": [{"co": {"Y": -1, "X": 1}, "interpolation": 2}]}, "reader": {"audio_bit_rate": 189375, "has_single_image": false, "vcodec": "h264", "has_video": true, "type": "FFmpegReader", "video_length": "937", "audio_timebase": {"den": 48000, "num": 1}, "path": "/home/robsen/Dropbox/Workdir/Repo/SuesseRache-HH-Taxi/TE_SR_Taxi.mp4", "width": 1920, "has_audio": true, "video_bit_rate": 32091692, "channel_layout": 3, "height": 1080, "display_ratio": {"den": 9, "num": 16}, "interlaced_frame": false, "duration": 31.317333221435547, "sample_rate": 48000, "pixel_format": 0, "video_timebase": {"den": 29970, "num": 1}, "file_size": "125628279", "top_field_first": true, "pixel_ratio": {"den": 1, "num": 1}, "acodec": "aac", "audio_stream_index": 1, "video_stream_index": 0, "channels": 2, "fps": {"den": 100, "num": 2997}}, "channel_filter": {"Points": [{"co": {"Y": -1, "X": 1}, "interpolation": 2}]}, "file_id": "Z3LOYBY1PL", "time": {"Points": [{"co": {"Y": 1, "X": 1}, "interpolation": 2}]}}, "value": {"id": "627XQDJ3EP", "start": 0, "end": 31.317333221435547, "position": 21.76, "layer": 0, "image": "/home/robsen/.openshot_qt/thumbnail/Z3LOYBY1PL.png"}, "key": ["clips", {"id": "627XQDJ3EP"}], "partial": false, "type": "update"}, {"old_values": [], "value": {"start": 0, "type": "Mask", "contrast": {"Points": [{"co": {"Y": 3, "X": 1}, "interpolation": 2}]}, "layer": 0, "replace_image": false, "title": "Transition", "end": 2.039999999999999, "reader": {"audio_bit_rate": 0, "has_single_image": true, "has_video": true, "type": "QtImageReader", "video_length": "2592000", "audio_timebase": {"den": 1, "num": 1}, "path": "/usr/lib/python3/dist-packages/openshot_qt/transitions/common/fade.svg", "width": 720, "has_audio": false, "video_bit_rate": 0, "channel_layout": 4, "height": 576, "display_ratio": {"den": 4, "num": 5}, "interlaced_frame": false, "video_timebase": {"den": 30, "num": 1}, "duration": 86400, "sample_rate": 0, "pixel_format": -1, "fps": {"den": 1, "num": 30}, "file_size": "1658880", "top_field_first": true, "pixel_ratio": {"den": 1, "num": 1}, "acodec": "", "audio_stream_index": -1, "video_stream_index": -1, "channels": 0, "vcodec": ""}, "brightness": {"Points": [{"handle_right": {"Y": 0, "X": 0.5}, "co": {"Y": 1, "X": 1}, "handle_left": {"Y": 1, "X": 0.5}, "handle_type": 0, "interpolation": 0}, {"handle_right": {"Y": 0, "X": 0.5}, "co": {"Y": -1, "X": 50}, "handle_left": {"Y": 1, "X": 0.5}, "handle_type": 0, "interpolation": 0}]}, "id": "5NBS5H99MA", "position": 21.76}, "key": ["effects"], "partial": false, "type": "insert"}, {"old_values": {"alpha": {"Points": [{"co": {"Y": 1, "X": 1}, "interpolation": 2}]}, "rotation": {"Points": [{"co": {"Y": 0, "X": 1}, "interpolation": 2}]}, "scale_y": {"Points": [{"co": {"Y": 1, "X": 1}, "interpolation": 2}]}, "crop_y": {"Points": [{"co": {"Y": 0, "X": 1}, "interpolation": 2}]}, "perspective_c3_x": {"Points": [{"co": {"Y": -1, "X": 1}, "interpolation": 2}]}, "end": 31.317333221435547, "crop_width": {"Points": [{"co": {"Y": -1, "X": 1}, "interpolation": 2}]}, "position": 21.76, "id": "627XQDJ3EP", "wave_color": {"green": {"Points": [{"handle_right": {"Y": 0, "X": 0.5}, "co": {"Y": 123, "X": 1}, "handle_left": {"Y": 1, "X": 0.5}, "handle_type": 0, "interpolation": 0}]}, "blue": {"Points": [{"handle_right": {"Y": 0, "X": 0.5}, "co": {"Y": 255, "X": 1}, "handle_left": {"Y": 1, "X": 0.5}, "handle_type": 0, "interpolation": 0}]}, "alpha": {"Points": [{"handle_right": {"Y": 0, "X": 0.5}, "co": {"Y": 255, "X": 1}, "handle_left": {"Y": 1, "X": 0.5}, "handle_type": 0, "interpolation": 0}]}, "red": {"Points": [{"handle_right": {"Y": 0, "X": 0.5}, "co": {"Y": 0, "X": 1}, "handle_left": {"Y": 1, "X": 0.5}, "handle_type": 0, "interpolation": 0}]}}, "has_video": {"Points": [{"co": {"Y": -1, "X": 1}, "interpolation": 2}]}, "has_audio": {"Points": [{"co": {"Y": -1, "X": 1}, "interpolation": 2}]}, "effects": [], "location_x": {"Points": [{"co": {"Y": 0, "X": 1}, "interpolation": 2}]}, "waveform": false, "title": "TE_SR_Taxi.mp4", "image": "/home/robsen/.openshot_qt/thumbnail/Z3LOYBY1PL.png", "gravity": 4, "perspective_c2_x": {"Points": [{"co": {"Y": -1, "X": 1}, "interpolation": 2}]}, "perspective_c1_y": {"Points": [{"co": {"Y": -1, "X": 1}, "interpolation": 2}]}, "crop_height": {"Points": [{"co": {"Y": -1, "X": 1}, "interpolation": 2}]}, "crop_x": {"Points": [{"co": {"Y": 0, "X": 1}, "interpolation": 2}]}, "start": 0, "scale": 1, "shear_y": {"Points": [{"co": {"Y": 0, "X": 1}, "interpolation": 2}]}, "display": 0, "volume": {"Points": [{"co": {"Y": 1, "X": 1}, "interpolation": 2}]}, "channel_mapping": {"Points": [{"co": {"Y": -1, "X": 1}, "interpolation": 2}]}, "anchor": 0, "duration": 31.317333221435547, "perspective_c3_y": {"Points": [{"co": {"Y": -1, "X": 1}, "interpolation": 2}]}, "shear_x": {"Points": [{"co": {"Y": 0, "X": 1}, "interpolation": 2}]}, "perspective_c4_x": {"Points": [{"co": {"Y": -1, "X": 1}, "interpolation": 2}]}, "location_y": {"Points": [{"co": {"Y": 0, "X": 1}, "interpolation": 2}]}, "scale_x": {"Points": [{"co": {"Y": 1, "X": 1}, "interpolation": 2}]}, "layer": 0, "perspective_c2_y": {"Points": [{"co": {"Y": -1, "X": 1}, "interpolation": 2}]}, "perspective_c1_x": {"Points": [{"co": {"Y": -1, "X": 1}, "interpolation": 2}]}, "perspective_c4_y": {"Points": [{"co": {"Y": -1, "X": 1}, "interpolation": 2}]}, "reader": {"audio_bit_rate": 189375, "has_single_image": false, "vcodec": "h264", "has_video": true, "type": "FFmpegReader", "video_length": "937", "audio_timebase": {"den": 48000, "num": 1}, "path": "/home/robsen/Dropbox/Workdir/Repo/SuesseRache-HH-Taxi/TE_SR_Taxi.mp4", "width": 1920, "has_audio": true, "video_bit_rate": 32091692, "channel_layout": 3, "height": 1080, "display_ratio": {"den": 9, "num": 16}, "interlaced_frame": false, "duration": 31.317333221435547, "sample_rate": 48000, "pixel_format": 0, "video_timebase": {"den": 29970, "num": 1}, "file_size": "125628279", "top_field_first": true, "pixel_ratio": {"den": 1, "num": 1}, "acodec": "aac", "audio_stream_index": 1, "video_stream_index": 0, "channels": 2, "fps": {"den": 100, "num": 2997}}, "channel_filter": {"Points": [{"co": {"Y": -1, "X": 1}, "interpolation": 2}]}, "file_id": "Z3LOYBY1PL", "time": {"Points": [{"co": {"Y": 1, "X": 1}, "interpolation": 2}]}}, "value": {"id": "627XQDJ3EP", "start": 0, "end": 31.317333221435547, "position": 21.76, "layer": 1, "image": "/home/robsen/.openshot_qt/thumbnail/Z3LOYBY1PL.png"}, "key": ["clips", {"id": "627XQDJ3EP"}], "partial": false, "type": "update"}, {"old_values": [{"alpha": {"Points": [{"co": {"Y": 1, "X": 1}, "interpolation": 2}]}, "rotation": {"Points": [{"co": {"Y": 0, "X": 1}, "interpolation": 2}]}, "scale_y": {"Points": [{"co": {"Y": 1, "X": 1}, "interpolation": 2}]}, "crop_y": {"Points": [{"co": {"Y": 0, "X": 1}, "interpolation": 2}]}, "perspective_c3_x": {"Points": [{"co": {"Y": -1, "X": 1}, "interpolation": 2}]}, "end": 15, "crop_width": {"Points": [{"co": {"Y": -1, "X": 1}, "interpolation": 2}]}, "position": 8.8, "id": "0AEDFYGQ7J", "wave_color": {"green": {"Points": [{"handle_right": {"Y": 0, "X": 0.5}, "co": {"Y": 123, "X": 1}, "handle_left": {"Y": 1, "X": 0.5}, "handle_type": 0, "interpolation": 0}]}, "blue": {"Points": [{"handle_right": {"Y": 0, "X": 0.5}, "co": {"Y": 255, "X": 1}, "handle_left": {"Y": 1, "X": 0.5}, "handle_type": 0, "interpolation": 0}]}, "alpha": {"Points": [{"handle_right": {"Y": 0, "X": 0.5}, "co": {"Y": 255, "X": 1}, "handle_left": {"Y": 1, "X": 0.5}, "handle_type": 0, "interpolation": 0}]}, "red": {"Points": [{"handle_right": {"Y": 0, "X": 0.5}, "co": {"Y": 0, "X": 1}, "handle_left": {"Y": 1, "X": 0.5}, "handle_type": 0, "interpolation": 0}]}}, "has_video": {"Points": [{"co": {"Y": -1, "X": 1}, "interpolation": 2}]}, "has_audio": {"Points": [{"co": {"Y": -1, "X": 1}, "interpolation": 2}]}, "effects": [], "location_x": {"Points": [{"co": {"Y": 0, "X": 1}, "interpolation": 2}]}, "waveform": false, "title": "taxi_start.mp4", "image": "/home/robsen/.openshot_qt/thumbnail/LGW3TZJV4Q.png", "gravity": 4, "perspective_c2_x": {"Points": [{"co": {"Y": -1, "X": 1}, "interpolation": 2}]}, "perspective_c1_y": {"Points": [{"co": {"Y": -1, "X": 1}, "interpolation": 2}]}, "crop_height": {"Points": [{"co": {"Y": -1, "X": 1}, "interpolation": 2}]}, "crop_x": {"Points": [{"co": {"Y": 0, "X": 1}, "interpolation": 2}]}, "start": 0, "scale": 1, "shear_y": {"Points": [{"co": {"Y": 0, "X": 1}, "interpolation": 2}]}, "display": 0, "volume": {"Points": [{"co": {"Y": 1, "X": 1}, "interpolation": 2}]}, "channel_mapping": {"Points": [{"co": {"Y": -1, "X": 1}, "interpolation": 2}]}, "anchor": 0, "duration": 15.0, "perspective_c3_y": {"Points": [{"co": {"Y": -1, "X": 1}, "interpolation": 2}]}, "shear_x": {"Points": [{"co": {"Y": 0, "X": 1}, "interpolation": 2}]}, "perspective_c4_x": {"Points": [{"co": {"Y": -1, "X": 1}, "interpolation": 2}]}, "location_y": {"Points": [{"co": {"Y": 0, "X": 1}, "interpolation": 2}]}, "scale_x": {"Points": [{"co": {"Y": 1, "X": 1}, "interpolation": 2}]}, "layer": 0, "perspective_c2_y": {"Points": [{"co": {"Y": -1, "X": 1}, "interpolation": 2}]}, "perspective_c1_x": {"Points": [{"co": {"Y": -1, "X": 1}, "interpolation": 2}]}, "perspective_c4_y": {"Points": [{"co": {"Y": -1, "X": 1}, "interpolation": 2}]}, "reader": {"audio_bit_rate": 0, "has_single_image": false, "vcodec": "h264", "has_video": true, "type": "FFmpegReader", "video_length": "375", "audio_timebase": {"den": 1, "num": 1}, "path": "/home/robsen/Dropbox/Workdir/Repo/SuesseRache-HH-Taxi/taxi_start.mp4", "width": 1920, "has_audio": false, "video_bit_rate": 147692, "channel_layout": 4, "height": 1080, "display_ratio": {"den": 9, "num": 16}, "interlaced_frame": false, "duration": 15.0, "sample_rate": 0, "pixel_format": 0, "video_timebase": {"den": 12800, "num": 1}, "file_size": "276924", "top_field_first": true, "pixel_ratio": {"den": 1, "num": 1}, "acodec": "", "audio_stream_index": -1, "video_stream_index": 0, "channels": 0, "fps": {"den": 1, "num": 25}}, "channel_filter": {"Points": [{"co": {"Y": -1, "X": 1}, "interpolation": 2}]}, "file_id": "LGW3TZJV4Q", "time": {"Points": [{"co": {"Y": 1, "X": 1}, "interpolation": 2}]}}, {"alpha": {"Points": [{"co": {"Y": 1, "X": 1}, "interpolation": 2}]}, "rotation": {"Points": [{"co": {"Y": 0, "X": 1}, "interpolation": 2}]}, "scale_y": {"Points": [{"co": {"Y": 1, "X": 1}, "interpolation": 2}]}, "crop_y": {"Points": [{"co": {"Y": 0, "X": 1}, "interpolation": 2}]}, "perspective_c3_x": {"Points": [{"co": {"Y": -1, "X": 1}, "interpolation": 2}]}, "end": 31.317333221435547, "crop_width": {"Points": [{"co": {"Y": -1, "X": 1}, "interpolation": 2}]}, "position": 21.76, "id": "627XQDJ3EP", "wave_color": {"green": {"Points": [{"handle_right": {"Y": 0, "X": 0.5}, "co": {"Y": 123, "X": 1}, "handle_left": {"Y": 1, "X": 0.5}, "handle_type": 0, "interpolation": 0}]}, "blue": {"Points": [{"handle_right": {"Y": 0, "X": 0.5}, "co": {"Y": 255, "X": 1}, "handle_left": {"Y": 1, "X": 0.5}, "handle_type": 0, "interpolation": 0}]}, "alpha": {"Points": [{"handle_right": {"Y": 0, "X": 0.5}, "co": {"Y": 255, "X": 1}, "handle_left": {"Y": 1, "X": 0.5}, "handle_type": 0, "interpolation": 0}]}, "red": {"Points": [{"handle_right": {"Y": 0, "X": 0.5}, "co": {"Y": 0, "X": 1}, "handle_left": {"Y": 1, "X": 0.5}, "handle_type": 0, "interpolation": 0}]}}, "has_video": {"Points": [{"co": {"Y": -1, "X": 1}, "interpolation": 2}]}, "has_audio": {"Points": [{"co": {"Y": -1, "X": 1}, "interpolation": 2}]}, "effects": [], "location_x": {"Points": [{"co": {"Y": 0, "X": 1}, "interpolation": 2}]}, "waveform": false, "title": "TE_SR_Taxi.mp4", "image": "/home/robsen/.openshot_qt/thumbnail/Z3LOYBY1PL.png", "gravity": 4, "perspective_c2_x": {"Points": [{"co": {"Y": -1, "X": 1}, "interpolation": 2}]}, "perspective_c1_y": {"Points": [{"co": {"Y": -1, "X": 1}, "interpolation": 2}]}, "crop_height": {"Points": [{"co": {"Y": -1, "X": 1}, "interpolation": 2}]}, "crop_x": {"Points": [{"co": {"Y": 0, "X": 1}, "interpolation": 2}]}, "start": 0, "scale": 1, "shear_y": {"Points": [{"co": {"Y": 0, "X": 1}, "interpolation": 2}]}, "display": 0, "volume": {"Points": [{"co": {"Y": 1, "X": 1}, "interpolation": 2}]}, "channel_mapping": {"Points": [{"co": {"Y": -1, "X": 1}, "interpolation": 2}]}, "anchor": 0, "duration": 31.317333221435547, "perspective_c3_y": {"Points": [{"co": {"Y": -1, "X": 1}, "interpolation": 2}]}, "shear_x": {"Points": [{"co": {"Y": 0, "X": 1}, "interpolation": 2}]}, "perspective_c4_x": {"Points": [{"co": {"Y": -1, "X": 1}, "interpolation": 2}]}, "location_y": {"Points": [{"co": {"Y": 0, "X": 1}, "interpolation": 2}]}, "scale_x": {"Points": [{"co": {"Y": 1, "X": 1}, "interpolation": 2}]}, "layer": 1, "perspective_c2_y": {"Points": [{"co": {"Y": -1, "X": 1}, "interpolation": 2}]}, "perspective_c1_x": {"Points": [{"co": {"Y": -1, "X": 1}, "interpolation": 2}]}, "perspective_c4_y": {"Points": [{"co": {"Y": -1, "X": 1}, "interpolation": 2}]}, "reader": {"audio_bit_rate": 189375, "has_single_image": false, "vcodec": "h264", "has_video": true, "type": "FFmpegReader", "video_length": "937", "audio_timebase": {"den": 48000, "num": 1}, "path": "/home/robsen/Dropbox/Workdir/Repo/SuesseRache-HH-Taxi/TE_SR_Taxi.mp4", "width": 1920, "has_audio": true, "video_bit_rate": 32091692, "channel_layout": 3, "height": 1080, "display_ratio": {"den": 9, "num": 16}, "interlaced_frame": false, "duration": 31.317333221435547, "sample_rate": 48000, "pixel_format": 0, "video_timebase": {"den": 29970, "num": 1}, "file_size": "125628279", "top_field_first": true, "pixel_ratio": {"den": 1, "num": 1}, "acodec": "aac", "audio_stream_index": 1, "video_stream_index": 0, "channels": 2, "fps": {"den": 100, "num": 2997}}, "channel_filter": {"Points": [{"co": {"Y": -1, "X": 1}, "interpolation": 2}]}, "file_id": "Z3LOYBY1PL", "time": {"Points": [{"co": {"Y": 1, "X": 1}, "interpolation": 2}]}}], "value": {"alpha": {"Points": [{"co": {"Y": 1, "X": 1}, "interpolation": 2}, {"handle_right": {"Y": 0, "X": 0.5}, "co": {"Y": 0, "X": 1}, "handle_left": {"Y": 1, "X": 0.5}, "handle_type": 0, "interpolation": 0}, {"handle_right": {"Y": 0, "X": 0.5}, "co": {"Y": 1, "X": 73}, "handle_left": {"Y": 1, "X": 0.5}, "handle_type": 0, "interpolation": 0}]}, "rotation": {"Points": [{"co": {"Y": 0, "X": 1}, "interpolation": 2}]}, "scale_y": {"Points": [{"co": {"Y": 1, "X": 1}, "interpolation": 2}]}, "crop_y": {"Points": [{"co": {"Y": 0, "X": 1}, "interpolation": 2}]}, "perspective_c3_x": {"Points": [{"co": {"Y": -1, "X": 1}, "interpolation": 2}]}, "end": 15, "crop_width": {"Points": [{"co": {"Y": -1, "X": 1}, "interpolation": 2}]}, "position": 53.075, "id": "PJWPMFXKV3", "wave_color": {"green": {"Points": [{"handle_right": {"Y": 0, "X": 0.5}, "co": {"Y": 123, "X": 1}, "handle_left": {"Y": 1, "X": 0.5}, "handle_type": 0, "interpolation": 0}]}, "blue": {"Points": [{"handle_right": {"Y": 0, "X": 0.5}, "co": {"Y": 255, "X": 1}, "handle_left": {"Y": 1, "X": 0.5}, "handle_type": 0, "interpolation": 0}]}, "alpha": {"Points": [{"handle_right": {"Y": 0, "X": 0.5}, "co": {"Y": 255, "X": 1}, "handle_left": {"Y": 1, "X": 0.5}, "handle_type": 0, "interpolation": 0}]}, "red": {"Points": [{"handle_right": {"Y": 0, "X": 0.5}, "co": {"Y": 0, "X": 1}, "handle_left": {"Y": 1, "X": 0.5}, "handle_type": 0, "interpolation": 0}]}}, "has_video": {"Points": [{"co": {"Y": -1, "X": 1}, "interpolation": 2}]}, "has_audio": {"Points": [{"co": {"Y": -1, "X": 1}, "interpolation": 2}]}, "effects": [], "location_x": {"Points": [{"co": {"Y": 0, "X": 1}, "interpolation": 2}]}, "waveform": false, "title": "arrow.mp4", "image": "/home/robsen/.openshot_qt/thumbnail/X22V56NF57.png", "gravity": 4, "scale_x": {"Points": [{"co": {"Y": 1, "X": 1}, "interpolation": 2}]}, "perspective_c1_y": {"Points": [{"co": {"Y": -1, "X": 1}, "interpolation": 2}]}, "crop_height": {"Points": [{"co": {"Y": -1, "X": 1}, "interpolation": 2}]}, "crop_x": {"Points": [{"co": {"Y": 0, "X": 1}, "interpolation": 2}]}, "start": 0, "scale": 1, "shear_y": {"Points": [{"co": {"Y": 0, "X": 1}, "interpolation": 2}]}, "display": 0, "volume": {"Points": [{"co": {"Y": 1, "X": 1}, "interpolation": 2}]}, "channel_mapping": {"Points": [{"co": {"Y": -1, "X": 1}, "interpolation": 2}]}, "anchor": 0, "duration": 15.0, "perspective_c3_y": {"Points": [{"co": {"Y": -1, "X": 1}, "interpolation": 2}]}, "shear_x": {"Points": [{"co": {"Y": 0, "X": 1}, "interpolation": 2}]}, "perspective_c4_x": {"Points": [{"co": {"Y": -1, "X": 1}, "interpolation": 2}]}, "location_y": {"Points": [{"co": {"Y": 0, "X": 1}, "interpolation": 2}]}, "perspective_c2_x": {"Points": [{"co": {"Y": -1, "X": 1}, "interpolation": 2}]}, "layer": 2, "perspective_c2_y": {"Points": [{"co": {"Y": -1, "X": 1}, "interpolation": 2}]}, "perspective_c1_x": {"Points": [{"co": {"Y": -1, "X": 1}, "interpolation": 2}]}, "perspective_c4_y": {"Points": [{"co": {"Y": -1, "X": 1}, "interpolation": 2}]}, "reader": {"audio_bit_rate": 0, "has_single_image": false, "has_video": true, "type": "FFmpegReader", "video_length": "375", "audio_timebase": {"den": 1, "num": 1}, "path": "/home/robsen/Dropbox/Workdir/Repo/SuesseRache-HH-Taxi/arrow.mp4", "width": 1920, "has_audio": false, "video_bit_rate": 83079, "channel_layout": 4, "height": 1080, "display_ratio": {"den": 9, "num": 16}, "interlaced_frame": false, "video_timebase": {"den": 12800, "num": 1}, "duration": 15.0, "sample_rate": 0, "pixel_format": 0, "fps": {"den": 1, "num": 25}, "file_size": "155774", "top_field_first": true, "pixel_ratio": {"den": 1, "num": 1}, "acodec": "", "audio_stream_index": -1, "video_stream_index": 0, "channels": 0, "vcodec": "h264"}, "channel_filter": {"Points": [{"co": {"Y": -1, "X": 1}, "interpolation": 2}]}, "file_id": "X22V56NF57", "time": {"Points": [{"co": {"Y": 1, "X": 1}, "interpolation": 2}]}}, "key": ["clips"], "partial": false, "type": "insert"}, {"old_values": {"alpha": {"Points": [{"co": {"Y": 1, "X": 1}, "interpolation": 2}]}, "rotation": {"Points": [{"co": {"Y": 0, "X": 1}, "interpolation": 2}]}, "scale_y": {"Points": [{"co": {"Y": 1, "X": 1}, "interpolation": 2}]}, "crop_y": {"Points": [{"co": {"Y": 0, "X": 1}, "interpolation": 2}]}, "perspective_c3_x": {"Points": [{"co": {"Y": -1, "X": 1}, "interpolation": 2}]}, "end": 15.0, "crop_width": {"Points": [{"co": {"Y": -1, "X": 1}, "interpolation": 2}]}, "position": 62.88, "id": "PJWPMFXKV3", "wave_color": {"green": {"Points": [{"handle_right": {"Y": 0, "X": 0.5}, "co": {"Y": 123, "X": 1}, "handle_left": {"Y": 1, "X": 0.5}, "handle_type": 0, "interpolation": 0}]}, "blue": {"Points": [{"handle_right": {"Y": 0, "X": 0.5}, "co": {"Y": 255, "X": 1}, "handle_left": {"Y": 1, "X": 0.5}, "handle_type": 0, "interpolation": 0}]}, "alpha": {"Points": [{"handle_right": {"Y": 0, "X": 0.5}, "co": {"Y": 255, "X": 1}, "handle_left": {"Y": 1, "X": 0.5}, "handle_type": 0, "interpolation": 0}]}, "red": {"Points": [{"handle_right": {"Y": 0, "X": 0.5}, "co": {"Y": 0, "X": 1}, "handle_left": {"Y": 1, "X": 0.5}, "handle_type": 0, "interpolation": 0}]}}, "has_video": {"Points": [{"co": {"Y": -1, "X": 1}, "interpolation": 2}]}, "has_audio": {"Points": [{"co": {"Y": -1, "X": 1}, "interpolation": 2}]}, "effects": [], "location_x": {"Points": [{"co": {"Y": 0, "X": 1}, "interpolation": 2}]}, "waveform": false, "title": "arrow.mp4", "image": "/home/robsen/.openshot_qt/thumbnail/X22V56NF57.png", "gravity": 4, "scale_x": {"Points": [{"co": {"Y": 1, "X": 1}, "interpolation": 2}]}, "perspective_c1_y": {"Points": [{"co": {"Y": -1, "X": 1}, "interpolation": 2}]}, "crop_height": {"Points": [{"co": {"Y": -1, "X": 1}, "interpolation": 2}]}, "crop_x": {"Points": [{"co": {"Y": 0, "X": 1}, "interpolation": 2}]}, "start": 0, "scale": 1, "shear_y": {"Points": [{"co": {"Y": 0, "X": 1}, "interpolation": 2}]}, "display": 0, "volume": {"Points": [{"co": {"Y": 1, "X": 1}, "interpolation": 2}]}, "channel_mapping": {"Points": [{"co": {"Y": -1, "X": 1}, "interpolation": 2}]}, "anchor": 0, "duration": 15.0, "perspective_c3_y": {"Points": [{"co": {"Y": -1, "X": 1}, "interpolation": 2}]}, "shear_x": {"Points": [{"co": {"Y": 0, "X": 1}, "interpolation": 2}]}, "perspective_c4_x": {"Points": [{"co": {"Y": -1, "X": 1}, "interpolation": 2}]}, "location_y": {"Points": [{"co": {"Y": 0, "X": 1}, "interpolation": 2}]}, "perspective_c2_x": {"Points": [{"co": {"Y": -1, "X": 1}, "interpolation": 2}]}, "layer": 2, "perspective_c2_y": {"Points": [{"co": {"Y": -1, "X": 1}, "interpolation": 2}]}, "perspective_c1_x": {"Points": [{"co": {"Y": -1, "X": 1}, "interpolation": 2}]}, "perspective_c4_y": {"Points": [{"co": {"Y": -1, "X": 1}, "interpolation": 2}]}, "reader": {"audio_bit_rate": 0, "has_single_image": false, "vcodec": "h264", "has_video": true, "type": "FFmpegReader", "video_length": "375", "audio_timebase": {"den": 1, "num": 1}, "path": "/home/robsen/Dropbox/Workdir/Repo/SuesseRache-HH-Taxi/arrow.mp4", "width": 1920, "has_audio": false, "video_bit_rate": 83079, "channel_layout": 4, "height": 1080, "display_ratio": {"den": 9, "num": 16}, "interlaced_frame": false, "duration": 15.0, "sample_rate": 0, "pixel_format": 0, "video_timebase": {"den": 12800, "num": 1}, "file_size": "155774", "top_field_first": true, "pixel_ratio": {"den": 1, "num": 1}, "acodec": "", "audio_stream_index": -1, "video_stream_index": 0, "channels": 0, "fps": {"den": 1, "num": 25}}, "channel_filter": {"Points": [{"co": {"Y": -1, "X": 1}, "interpolation": 2}]}, "file_id": "X22V56NF57", "time": {"Points": [{"co": {"Y": 1, "X": 1}, "interpolation": 2}]}}, "value": {"id": "PJWPMFXKV3", "start": 0, "end": 15, "position": 63.04, "layer": 1, "image": "/home/robsen/.openshot_qt/thumbnail/X22V56NF57.png"}, "key": ["clips", {"id": "PJWPMFXKV3"}], "partial": false, "type": "update"}, {"old_values": {"alpha": {"Points": [{"co": {"Y": 1, "X": 1}, "interpolation": 2}]}, "rotation": {"Points": [{"co": {"Y": 0, "X": 1}, "interpolation": 2}]}, "scale_y": {"Points": [{"co": {"Y": 1, "X": 1}, "interpolation": 2}]}, "crop_y": {"Points": [{"co": {"Y": 0, "X": 1}, "interpolation": 2}]}, "perspective_c3_x": {"Points": [{"co": {"Y": -1, "X": 1}, "interpolation": 2}]}, "end": 15, "crop_width": {"Points": [{"co": {"Y": -1, "X": 1}, "interpolation": 2}]}, "position": 63.04, "id": "PJWPMFXKV3", "wave_color": {"green": {"Points": [{"handle_right": {"Y": 0, "X": 0.5}, "co": {"Y": 123, "X": 1}, "handle_left": {"Y": 1, "X": 0.5}, "handle_type": 0, "interpolation": 0}]}, "blue": {"Points": [{"handle_right": {"Y": 0, "X": 0.5}, "co": {"Y": 255, "X": 1}, "handle_left": {"Y": 1, "X": 0.5}, "handle_type": 0, "interpolation": 0}]}, "alpha": {"Points": [{"handle_right": {"Y": 0, "X": 0.5}, "co": {"Y": 255, "X": 1}, "handle_left": {"Y": 1, "X": 0.5}, "handle_type": 0, "interpolation": 0}]}, "red": {"Points": [{"handle_right": {"Y": 0, "X": 0.5}, "co": {"Y": 0, "X": 1}, "handle_left": {"Y": 1, "X": 0.5}, "handle_type": 0, "interpolation": 0}]}}, "has_video": {"Points": [{"co": {"Y": -1, "X": 1}, "interpolation": 2}]}, "has_audio": {"Points": [{"co": {"Y": -1, "X": 1}, "interpolation": 2}]}, "effects": [], "location_x": {"Points": [{"co": {"Y": 0, "X": 1}, "interpolation": 2}]}, "waveform": false, "title": "arrow.mp4", "image": "/home/robsen/.openshot_qt/thumbnail/X22V56NF57.png", "gravity": 4, "perspective_c2_x": {"Points": [{"co": {"Y": -1, "X": 1}, "interpolation": 2}]}, "perspective_c1_y": {"Points": [{"co": {"Y": -1, "X": 1}, "interpolation": 2}]}, "crop_height": {"Points": [{"co": {"Y": -1, "X": 1}, "interpolation": 2}]}, "crop_x": {"Points": [{"co": {"Y": 0, "X": 1}, "interpolation": 2}]}, "start": 0, "scale": 1, "shear_y": {"Points": [{"co": {"Y": 0, "X": 1}, "interpolation": 2}]}, "display": 0, "volume": {"Points": [{"co": {"Y": 1, "X": 1}, "interpolation": 2}]}, "channel_mapping": {"Points": [{"co": {"Y": -1, "X": 1}, "interpolation": 2}]}, "anchor": 0, "duration": 15.0, "perspective_c3_y": {"Points": [{"co": {"Y": -1, "X": 1}, "interpolation": 2}]}, "shear_x": {"Points": [{"co": {"Y": 0, "X": 1}, "interpolation": 2}]}, "perspective_c4_x": {"Points": [{"co": {"Y": -1, "X": 1}, "interpolation": 2}]}, "location_y": {"Points": [{"co": {"Y": 0, "X": 1}, "interpolation": 2}]}, "scale_x": {"Points": [{"co": {"Y": 1, "X": 1}, "interpolation": 2}]}, "layer": 1, "perspective_c2_y": {"Points": [{"co": {"Y": -1, "X": 1}, "interpolation": 2}]}, "perspective_c1_x": {"Points": [{"co": {"Y": -1, "X": 1}, "interpolation": 2}]}, "perspective_c4_y": {"Points": [{"co": {"Y": -1, "X": 1}, "interpolation": 2}]}, "reader": {"audio_bit_rate": 0, "has_single_image": false, "vcodec": "h264", "has_video": true, "type": "FFmpegReader", "video_length": "375", "audio_timebase": {"den": 1, "num": 1}, "path": "/home/robsen/Dropbox/Workdir/Repo/SuesseRache-HH-Taxi/arrow.mp4", "width": 1920, "has_audio": false, "video_bit_rate": 83079, "channel_layout": 4, "height": 1080, "display_ratio": {"den": 9, "num": 16}, "interlaced_frame": false, "duration": 15.0, "sample_rate": 0, "pixel_format": 0, "video_timebase": {"den": 12800, "num": 1}, "file_size": "155774", "top_field_first": true, "pixel_ratio": {"den": 1, "num": 1}, "acodec": "", "audio_stream_index": -1, "video_stream_index": 0, "channels": 0, "fps": {"den": 1, "num": 25}}, "channel_filter": {"Points": [{"co": {"Y": -1, "X": 1}, "interpolation": 2}]}, "file_id": "X22V56NF57", "time": {"Points": [{"co": {"Y": 1, "X": 1}, "interpolation": 2}]}}, "value": {"id": "PJWPMFXKV3", "start": 0, "end": 15, "position": 53.075, "layer": 2, "image": "/home/robsen/.openshot_qt/thumbnail/X22V56NF57.png"}, "key": ["clips", {"id": "PJWPMFXKV3"}], "partial": false, "type": "update"}, {"old_values": {"start": 0, "type": "Mask", "contrast": {"Points": [{"co": {"Y": 3, "X": 1}, "interpolation": 2}]}, "layer": 0, "replace_image": false, "title": "Transition", "end": 2.039999999999999, "reader": {"audio_bit_rate": 0, "has_single_image": true, "vcodec": "", "has_video": true, "type": "QtImageReader", "video_length": "2592000", "audio_timebase": {"den": 1, "num": 1}, "path": "/usr/lib/python3/dist-packages/openshot_qt/transitions/common/fade.svg", "width": 720, "has_audio": false, "video_bit_rate": 0, "channel_layout": 4, "height": 576, "display_ratio": {"den": 4, "num": 5}, "interlaced_frame": false, "duration": 86400, "sample_rate": 0, "pixel_format": -1, "video_timebase": {"den": 30, "num": 1}, "file_size": "1658880", "top_field_first": true, "pixel_ratio": {"den": 1, "num": 1}, "acodec": "", "audio_stream_index": -1, "video_stream_index": -1, "channels": 0, "fps": {"den": 1, "num": 30}}, "brightness": {"Points": [{"handle_right": {"Y": 0, "X": 0.5}, "co": {"Y": 1, "X": 1}, "handle_left": {"Y": 1, "X": 0.5}, "handle_type": 0, "interpolation": 0}, {"handle_right": {"Y": 0, "X": 0.5}, "co": {"Y": -1, "X": 50}, "handle_left": {"Y": 1, "X": 0.5}, "handle_type": 0, "interpolation": 0}]}, "id": "5NBS5H99MA", "position": 21.76}, "value": null, "key": ["effects", {"id": "5NBS5H99MA"}], "partial": false, "type": "delete"}, {"old_values": {"alpha": {"Points": [{"co": {"Y": 1, "X": 1}, "interpolation": 2}]}, "rotation": {"Points": [{"co": {"Y": 0, "X": 1}, "interpolation": 2}]}, "scale_y": {"Points": [{"co": {"Y": 1, "X": 1}, "interpolation": 2}]}, "crop_y": {"Points": [{"co": {"Y": 0, "X": 1}, "interpolation": 2}]}, "perspective_c3_x": {"Points": [{"co": {"Y": -1, "X": 1}, "interpolation": 2}]}, "end": 15, "crop_width": {"Points": [{"co": {"Y": -1, "X": 1}, "interpolation": 2}]}, "position": 8.8, "id": "0AEDFYGQ7J", "wave_color": {"green": {"Points": [{"handle_right": {"Y": 0, "X": 0.5}, "co": {"Y": 123, "X": 1}, "handle_left": {"Y": 1, "X": 0.5}, "handle_type": 0, "interpolation": 0}]}, "blue": {"Points": [{"handle_right": {"Y": 0, "X": 0.5}, "co": {"Y": 255, "X": 1}, "handle_left": {"Y": 1, "X": 0.5}, "handle_type": 0, "interpolation": 0}]}, "alpha": {"Points": [{"handle_right": {"Y": 0, "X": 0.5}, "co": {"Y": 255, "X": 1}, "handle_left": {"Y": 1, "X": 0.5}, "handle_type": 0, "interpolation": 0}]}, "red": {"Points": [{"handle_right": {"Y": 0, "X": 0.5}, "co": {"Y": 0, "X": 1}, "handle_left": {"Y": 1, "X": 0.5}, "handle_type": 0, "interpolation": 0}]}}, "has_video": {"Points": [{"co": {"Y": -1, "X": 1}, "interpolation": 2}]}, "has_audio": {"Points": [{"co": {"Y": -1, "X": 1}, "interpolation": 2}]}, "effects": [], "location_x": {"Points": [{"co": {"Y": 0, "X": 1}, "interpolation": 2}]}, "waveform": false, "title": "taxi_start.mp4", "image": "/home/robsen/.openshot_qt/thumbnail/LGW3TZJV4Q.png", "gravity": 4, "perspective_c2_x": {"Points": [{"co": {"Y": -1, "X": 1}, "interpolation": 2}]}, "perspective_c1_y": {"Points": [{"co": {"Y": -1, "X": 1}, "interpolation": 2}]}, "crop_height": {"Points": [{"co": {"Y": -1, "X": 1}, "interpolation": 2}]}, "crop_x": {"Points": [{"co": {"Y": 0, "X": 1}, "interpolation": 2}]}, "start": 0, "scale": 1, "shear_y": {"Points": [{"co": {"Y": 0, "X": 1}, "interpolation": 2}]}, "display": 0, "volume": {"Points": [{"co": {"Y": 1, "X": 1}, "interpolation": 2}]}, "channel_mapping": {"Points": [{"co": {"Y": -1, "X": 1}, "interpolation": 2}]}, "anchor": 0, "duration": 15.0, "perspective_c3_y": {"Points": [{"co": {"Y": -1, "X": 1}, "interpolation": 2}]}, "shear_x": {"Points": [{"co": {"Y": 0, "X": 1}, "interpolation": 2}]}, "perspective_c4_x": {"Points": [{"co": {"Y": -1, "X": 1}, "interpolation": 2}]}, "location_y": {"Points": [{"co": {"Y": 0, "X": 1}, "interpolation": 2}]}, "scale_x": {"Points": [{"co": {"Y": 1, "X": 1}, "interpolation": 2}]}, "layer": 0, "perspective_c2_y": {"Points": [{"co": {"Y": -1, "X": 1}, "interpolation": 2}]}, "perspective_c1_x": {"Points": [{"co": {"Y": -1, "X": 1}, "interpolation": 2}]}, "perspective_c4_y": {"Points": [{"co": {"Y": -1, "X": 1}, "interpolation": 2}]}, "reader": {"audio_bit_rate": 0, "has_single_image": false, "vcodec": "h264", "has_video": true, "type": "FFmpegReader", "video_length": "375", "audio_timebase": {"den": 1, "num": 1}, "path": "/home/robsen/Dropbox/Workdir/Repo/SuesseRache-HH-Taxi/taxi_start.mp4", "width": 1920, "has_audio": false, "video_bit_rate": 147692, "channel_layout": 4, "height": 1080, "display_ratio": {"den": 9, "num": 16}, "interlaced_frame": false, "duration": 15.0, "sample_rate": 0, "pixel_format": 0, "video_timebase": {"den": 12800, "num": 1}, "file_size": "276924", "top_field_first": true, "pixel_ratio": {"den": 1, "num": 1}, "acodec": "", "audio_stream_index": -1, "video_stream_index": 0, "channels": 0, "fps": {"den": 1, "num": 25}}, "channel_filter": {"Points": [{"co": {"Y": -1, "X": 1}, "interpolation": 2}]}, "file_id": "LGW3TZJV4Q", "time": {"Points": [{"co": {"Y": 1, "X": 1}, "interpolation": 2}]}}, "value": {"alpha": {"Points": [{"co": {"Y": 1, "X": 1}, "interpolation": 2}, {"handle_right": {"Y": 0, "X": 0.5}, "co": {"Y": 1, "X": 289}, "handle_left": {"Y": 1, "X": 0.5}, "handle_type": 0, "interpolation": 0}, {"handle_right": {"Y": 0, "X": 0.5}, "co": {"Y": 0, "X": 361}, "handle_left": {"Y": 1, "X": 0.5}, "handle_type": 0, "interpolation": 0}]}, "rotation": {"Points": [{"co": {"Y": 0, "X": 1}, "interpolation": 2}]}, "scale_y": {"Points": [{"co": {"Y": 1, "X": 1}, "interpolation": 2}]}, "crop_y": {"Points": [{"co": {"Y": 0, "X": 1}, "interpolation": 2}]}, "crop_width": {"Points": [{"co": {"Y": -1, "X": 1}, "interpolation": 2}]}, "end": 15, "perspective_c3_x": {"Points": [{"co": {"Y": -1, "X": 1}, "interpolation": 2}]}, "position": 8.8, "id": "0AEDFYGQ7J", "wave_color": {"green": {"Points": [{"handle_right": {"Y": 0, "X": 0.5}, "co": {"Y": 123, "X": 1}, "handle_left": {"Y": 1, "X": 0.5}, "handle_type": 0, "interpolation": 0}]}, "blue": {"Points": [{"handle_right": {"Y": 0, "X": 0.5}, "co": {"Y": 255, "X": 1}, "handle_left": {"Y": 1, "X": 0.5}, "handle_type": 0, "interpolation": 0}]}, "alpha": {"Points": [{"handle_right": {"Y": 0, "X": 0.5}, "co": {"Y": 255, "X": 1}, "handle_left": {"Y": 1, "X": 0.5}, "handle_type": 0, "interpolation": 0}]}, "red": {"Points": [{"handle_right": {"Y": 0, "X": 0.5}, "co": {"Y": 0, "X": 1}, "handle_left": {"Y": 1, "X": 0.5}, "handle_type": 0, "interpolation": 0}]}}, "has_video": {"Points": [{"co": {"Y": -1, "X": 1}, "interpolation": 2}]}, "has_audio": {"Points": [{"co": {"Y": -1, "X": 1}, "interpolation": 2}]}, "effects": [], "location_x": {"Points": [{"co": {"Y": 0, "X": 1}, "interpolation": 2}]}, "waveform": false, "title": "taxi_start.mp4", "image": "/home/robsen/.openshot_qt/thumbnail/LGW3TZJV4Q.png", "gravity": 4, "scale_x": {"Points": [{"co": {"Y": 1, "X": 1}, "interpolation": 2}]}, "perspective_c1_y": {"Points": [{"co": {"Y": -1, "X": 1}, "interpolation": 2}]}, "crop_height": {"Points": [{"co": {"Y": -1, "X": 1}, "interpolation": 2}]}, "crop_x": {"Points": [{"co": {"Y": 0, "X": 1}, "interpolation": 2}]}, "start": 0, "scale": 1, "shear_y": {"Points": [{"co": {"Y": 0, "X": 1}, "interpolation": 2}]}, "display": 0, "volume": {"Points": [{"co": {"Y": 1, "X": 1}, "interpolation": 2}]}, "channel_mapping": {"Points": [{"co": {"Y": -1, "X": 1}, "interpolation": 2}]}, "anchor": 0, "duration": 15.0, "perspective_c3_y": {"Points": [{"co": {"Y": -1, "X": 1}, "interpolation": 2}]}, "shear_x": {"Points": [{"co": {"Y": 0, "X": 1}, "interpolation": 2}]}, "perspective_c4_x": {"Points": [{"co": {"Y": -1, "X": 1}, "interpolation": 2}]}, "location_y": {"Points": [{"co": {"Y": 0, "X": 1}, "interpolation": 2}]}, "perspective_c2_x": {"Points": [{"co": {"Y": -1, "X": 1}, "interpolation": 2}]}, "layer": 0, "perspective_c2_y": {"Points": [{"co": {"Y": -1, "X": 1}, "interpolation": 2}]}, "perspective_c1_x": {"Points": [{"co": {"Y": -1, "X": 1}, "interpolation": 2}]}, "perspective_c4_y": {"Points": [{"co": {"Y": -1, "X": 1}, "interpolation": 2}]}, "channel_filter": {"Points": [{"co": {"Y": -1, "X": 1}, "interpolation": 2}]}, "time": {"Points": [{"co": {"Y": 1, "X": 1}, "interpolation": 2}]}, "file_id": "LGW3TZJV4Q"}, "key": ["clips", {"id": "0AEDFYGQ7J"}], "partial": false, "type": "update"}, {"old_values": {"alpha": {"Points": [{"co": {"Y": 1, "X": 1}, "interpolation": 2}, {"handle_right": {"Y": 0, "X": 0.5}, "co": {"Y": 1, "X": 289}, "handle_left": {"Y": 1, "X": 0.5}, "handle_type": 0, "interpolation": 0}, {"handle_right": {"Y": 0, "X": 0.5}, "co": {"Y": 0, "X": 361}, "handle_left": {"Y": 1, "X": 0.5}, "handle_type": 0, "interpolation": 0}]}, "rotation": {"Points": [{"co": {"Y": 0, "X": 1}, "interpolation": 2}]}, "scale_y": {"Points": [{"co": {"Y": 1, "X": 1}, "interpolation": 2}]}, "crop_y": {"Points": [{"co": {"Y": 0, "X": 1}, "interpolation": 2}]}, "perspective_c3_x": {"Points": [{"co": {"Y": -1, "X": 1}, "interpolation": 2}]}, "end": 15, "crop_width": {"Points": [{"co": {"Y": -1, "X": 1}, "interpolation": 2}]}, "position": 8.8, "id": "0AEDFYGQ7J", "wave_color": {"green": {"Points": [{"handle_right": {"Y": 0, "X": 0.5}, "co": {"Y": 123, "X": 1}, "handle_left": {"Y": 1, "X": 0.5}, "handle_type": 0, "interpolation": 0}]}, "blue": {"Points": [{"handle_right": {"Y": 0, "X": 0.5}, "co": {"Y": 255, "X": 1}, "handle_left": {"Y": 1, "X": 0.5}, "handle_type": 0, "interpolation": 0}]}, "alpha": {"Points": [{"handle_right": {"Y": 0, "X": 0.5}, "co": {"Y": 255, "X": 1}, "handle_left": {"Y": 1, "X": 0.5}, "handle_type": 0, "interpolation": 0}]}, "red": {"Points": [{"handle_right": {"Y": 0, "X": 0.5}, "co": {"Y": 0, "X": 1}, "handle_left": {"Y": 1, "X": 0.5}, "handle_type": 0, "interpolation": 0}]}}, "has_video": {"Points": [{"co": {"Y": -1, "X": 1}, "interpolation": 2}]}, "has_audio": {"Points": [{"co": {"Y": -1, "X": 1}, "interpolation": 2}]}, "effects": [], "location_x": {"Points": [{"co": {"Y": 0, "X": 1}, "interpolation": 2}]}, "waveform": false, "title": "taxi_start.mp4", "image": "/home/robsen/.openshot_qt/thumbnail/LGW3TZJV4Q.png", "gravity": 4, "perspective_c2_x": {"Points": [{"co": {"Y": -1, "X": 1}, "interpolation": 2}]}, "perspective_c1_y": {"Points": [{"co": {"Y": -1, "X": 1}, "interpolation": 2}]}, "crop_height": {"Points": [{"co": {"Y": -1, "X": 1}, "interpolation": 2}]}, "crop_x": {"Points": [{"co": {"Y": 0, "X": 1}, "interpolation": 2}]}, "start": 0, "scale": 1, "shear_y": {"Points": [{"co": {"Y": 0, "X": 1}, "interpolation": 2}]}, "display": 0, "volume": {"Points": [{"co": {"Y": 1, "X": 1}, "interpolation": 2}]}, "channel_mapping": {"Points": [{"co": {"Y": -1, "X": 1}, "interpolation": 2}]}, "anchor": 0, "duration": 15.0, "perspective_c3_y": {"Points": [{"co": {"Y": -1, "X": 1}, "interpolation": 2}]}, "shear_x": {"Points": [{"co": {"Y": 0, "X": 1}, "interpolation": 2}]}, "perspective_c4_x": {"Points": [{"co": {"Y": -1, "X": 1}, "interpolation": 2}]}, "location_y": {"Points": [{"co": {"Y": 0, "X": 1}, "interpolation": 2}]}, "scale_x": {"Points": [{"co": {"Y": 1, "X": 1}, "interpolation": 2}]}, "layer": 0, "perspective_c2_y": {"Points": [{"co": {"Y": -1, "X": 1}, "interpolation": 2}]}, "perspective_c1_x": {"Points": [{"co": {"Y": -1, "X": 1}, "interpolation": 2}]}, "perspective_c4_y": {"Points": [{"co": {"Y": -1, "X": 1}, "interpolation": 2}]}, "reader": {"audio_bit_rate": 0, "has_single_image": false, "vcodec": "h264", "has_video": true, "type": "FFmpegReader", "video_length": "375", "audio_timebase": {"den": 1, "num": 1}, "path": "/home/robsen/Dropbox/Workdir/Repo/SuesseRache-HH-Taxi/taxi_start.mp4", "width": 1920, "has_audio": false, "video_bit_rate": 147692, "channel_layout": 4, "height": 1080, "display_ratio": {"den": 9, "num": 16}, "interlaced_frame": false, "duration": 15.0, "sample_rate": 0, "pixel_format": 0, "video_timebase": {"den": 12800, "num": 1}, "file_size": "276924", "top_field_first": true, "pixel_ratio": {"den": 1, "num": 1}, "acodec": "", "audio_stream_index": -1, "video_stream_index": 0, "channels": 0, "fps": {"den": 1, "num": 25}}, "channel_filter": {"Points": [{"co": {"Y": -1, "X": 1}, "interpolation": 2}]}, "file_id": "LGW3TZJV4Q", "time": {"Points": [{"co": {"Y": 1, "X": 1}, "interpolation": 2}]}}, "value": {"alpha": {"Points": [{"co": {"Y": 1, "X": 1}, "interpolation": 2}, {"handle_right": {"Y": 0, "X": 0.5}, "co": {"Y": 1, "X": 289}, "handle_left": {"Y": 1, "X": 0.5}, "handle_type": 0, "interpolation": 0}, {"handle_right": {"Y": 0, "X": 0.5}, "co": {"Y": 0, "X": 361}, "handle_left": {"Y": 1, "X": 0.5}, "handle_type": 0, "interpolation": 0}, {"handle_right": {"Y": 0, "X": 0.5}, "co": {"Y": 0, "X": 1}, "handle_left": {"Y": 1, "X": 0.5}, "handle_type": 0, "interpolation": 0}, {"handle_right": {"Y": 0, "X": 0.5}, "co": {"Y": 1, "X": 73}, "handle_left": {"Y": 1, "X": 0.5}, "handle_type": 0, "interpolation": 0}]}, "rotation": {"Points": [{"co": {"Y": 0, "X": 1}, "interpolation": 2}]}, "scale_y": {"Points": [{"co": {"Y": 1, "X": 1}, "interpolation": 2}]}, "crop_y": {"Points": [{"co": {"Y": 0, "X": 1}, "interpolation": 2}]}, "crop_width": {"Points": [{"co": {"Y": -1, "X": 1}, "interpolation": 2}]}, "end": 15, "perspective_c3_x": {"Points": [{"co": {"Y": -1, "X": 1}, "interpolation": 2}]}, "position": 8.8, "id": "0AEDFYGQ7J", "wave_color": {"green": {"Points": [{"handle_right": {"Y": 0, "X": 0.5}, "co": {"Y": 123, "X": 1}, "handle_left": {"Y": 1, "X": 0.5}, "handle_type": 0, "interpolation": 0}]}, "blue": {"Points": [{"handle_right": {"Y": 0, "X": 0.5}, "co": {"Y": 255, "X": 1}, "handle_left": {"Y": 1, "X": 0.5}, "handle_type": 0, "interpolation": 0}]}, "alpha": {"Points": [{"handle_right": {"Y": 0, "X": 0.5}, "co": {"Y": 255, "X": 1}, "handle_left": {"Y": 1, "X": 0.5}, "handle_type": 0, "interpolation": 0}]}, "red": {"Points": [{"handle_right": {"Y": 0, "X": 0.5}, "co": {"Y": 0, "X": 1}, "handle_left": {"Y": 1, "X": 0.5}, "handle_type": 0, "interpolation": 0}]}}, "has_video": {"Points": [{"co": {"Y": -1, "X": 1}, "interpolation": 2}]}, "has_audio": {"Points": [{"co": {"Y": -1, "X": 1}, "interpolation": 2}]}, "effects": [], "location_x": {"Points": [{"co": {"Y": 0, "X": 1}, "interpolation": 2}]}, "waveform": false, "title": "taxi_start.mp4", "image": "/home/robsen/.openshot_qt/thumbnail/LGW3TZJV4Q.png", "gravity": 4, "scale_x": {"Points": [{"co": {"Y": 1, "X": 1}, "interpolation": 2}]}, "perspective_c1_y": {"Points": [{"co": {"Y": -1, "X": 1}, "interpolation": 2}]}, "crop_height": {"Points": [{"co": {"Y": -1, "X": 1}, "interpolation": 2}]}, "crop_x": {"Points": [{"co": {"Y": 0, "X": 1}, "interpolation": 2}]}, "start": 0, "scale": 1, "shear_y": {"Points": [{"co": {"Y": 0, "X": 1}, "interpolation": 2}]}, "display": 0, "volume": {"Points": [{"co": {"Y": 1, "X": 1}, "interpolation": 2}]}, "channel_mapping": {"Points": [{"co": {"Y": -1, "X": 1}, "interpolation": 2}]}, "anchor": 0, "duration": 15.0, "perspective_c3_y": {"Points": [{"co": {"Y": -1, "X": 1}, "interpolation": 2}]}, "shear_x": {"Points": [{"co": {"Y": 0, "X": 1}, "interpolation": 2}]}, "perspective_c4_x": {"Points": [{"co": {"Y": -1, "X": 1}, "interpolation": 2}]}, "location_y": {"Points": [{"co": {"Y": 0, "X": 1}, "interpolation": 2}]}, "perspective_c2_x": {"Points": [{"co": {"Y": -1, "X": 1}, "interpolation": 2}]}, "layer": 0, "perspective_c2_y": {"Points": [{"co": {"Y": -1, "X": 1}, "interpolation": 2}]}, "perspective_c1_x": {"Points": [{"co": {"Y": -1, "X": 1}, "interpolation": 2}]}, "perspective_c4_y": {"Points": [{"co": {"Y": -1, "X": 1}, "interpolation": 2}]}, "channel_filter": {"Points": [{"co": {"Y": -1, "X": 1}, "interpolation": 2}]}, "time": {"Points": [{"co": {"Y": 1, "X": 1}, "interpolation": 2}]}, "file_id": "LGW3TZJV4Q"}, "key": ["clips", {"id": "0AEDFYGQ7J"}], "partial": false, "type": "update"}, {"old_values": {"alpha": {"Points": [{"co": {"Y": 1, "X": 1}, "interpolation": 2}]}, "rotation": {"Points": [{"co": {"Y": 0, "X": 1}, "interpolation": 2}]}, "scale_y": {"Points": [{"co": {"Y": 1, "X": 1}, "interpolation": 2}]}, "crop_y": {"Points": [{"co": {"Y": 0, "X": 1}, "interpolation": 2}]}, "perspective_c3_x": {"Points": [{"co": {"Y": -1, "X": 1}, "interpolation": 2}]}, "end": 15, "crop_width": {"Points": [{"co": {"Y": -1, "X": 1}, "interpolation": 2}]}, "position": 53.075, "id": "PJWPMFXKV3", "wave_color": {"green": {"Points": [{"handle_right": {"Y": 0, "X": 0.5}, "co": {"Y": 123, "X": 1}, "handle_left": {"Y": 1, "X": 0.5}, "handle_type": 0, "interpolation": 0}]}, "blue": {"Points": [{"handle_right": {"Y": 0, "X": 0.5}, "co": {"Y": 255, "X": 1}, "handle_left": {"Y": 1, "X": 0.5}, "handle_type": 0, "interpolation": 0}]}, "alpha": {"Points": [{"handle_right": {"Y": 0, "X": 0.5}, "co": {"Y": 255, "X": 1}, "handle_left": {"Y": 1, "X": 0.5}, "handle_type": 0, "interpolation": 0}]}, "red": {"Points": [{"handle_right": {"Y": 0, "X": 0.5}, "co": {"Y": 0, "X": 1}, "handle_left": {"Y": 1, "X": 0.5}, "handle_type": 0, "interpolation": 0}]}}, "has_video": {"Points": [{"co": {"Y": -1, "X": 1}, "interpolation": 2}]}, "has_audio": {"Points": [{"co": {"Y": -1, "X": 1}, "interpolation": 2}]}, "effects": [], "location_x": {"Points": [{"co": {"Y": 0, "X": 1}, "interpolation": 2}]}, "waveform": false, "title": "arrow.mp4", "image": "/home/robsen/.openshot_qt/thumbnail/X22V56NF57.png", "gravity": 4, "perspective_c2_x": {"Points": [{"co": {"Y": -1, "X": 1}, "interpolation": 2}]}, "perspective_c1_y": {"Points": [{"co": {"Y": -1, "X": 1}, "interpolation": 2}]}, "crop_height": {"Points": [{"co": {"Y": -1, "X": 1}, "interpolation": 2}]}, "crop_x": {"Points": [{"co": {"Y": 0, "X": 1}, "interpolation": 2}]}, "start": 0, "scale": 1, "shear_y": {"Points": [{"co": {"Y": 0, "X": 1}, "interpolation": 2}]}, "display": 0, "volume": {"Points": [{"co": {"Y": 1, "X": 1}, "interpolation": 2}]}, "channel_mapping": {"Points": [{"co": {"Y": -1, "X": 1}, "interpolation": 2}]}, "anchor": 0, "duration": 15.0, "perspective_c3_y": {"Points": [{"co": {"Y": -1, "X": 1}, "interpolation": 2}]}, "shear_x": {"Points": [{"co": {"Y": 0, "X": 1}, "interpolation": 2}]}, "perspective_c4_x": {"Points": [{"co": {"Y": -1, "X": 1}, "interpolation": 2}]}, "location_y": {"Points": [{"co": {"Y": 0, "X": 1}, "interpolation": 2}]}, "scale_x": {"Points": [{"co": {"Y": 1, "X": 1}, "interpolation": 2}]}, "layer": 2, "perspective_c2_y": {"Points": [{"co": {"Y": -1, "X": 1}, "interpolation": 2}]}, "perspective_c1_x": {"Points": [{"co": {"Y": -1, "X": 1}, "interpolation": 2}]}, "perspective_c4_y": {"Points": [{"co": {"Y": -1, "X": 1}, "interpolation": 2}]}, "reader": {"audio_bit_rate": 0, "has_single_image": false, "vcodec": "h264", "has_video": true, "type": "FFmpegReader", "video_length": "375", "audio_timebase": {"den": 1, "num": 1}, "path": "/home/robsen/Dropbox/Workdir/Repo/SuesseRache-HH-Taxi/arrow.mp4", "width": 1920, "has_audio": false, "video_bit_rate": 83079, "channel_layout": 4, "height": 1080, "display_ratio": {"den": 9, "num": 16}, "interlaced_frame": false, "duration": 15.0, "sample_rate": 0, "pixel_format": 0, "video_timebase": {"den": 12800, "num": 1}, "file_size": "155774", "top_field_first": true, "pixel_ratio": {"den": 1, "num": 1}, "acodec": "", "audio_stream_index": -1, "video_stream_index": 0, "channels": 0, "fps": {"den": 1, "num": 25}}, "channel_filter": {"Points": [{"co": {"Y": -1, "X": 1}, "interpolation": 2}]}, "file_id": "X22V56NF57", "time": {"Points": [{"co": {"Y": 1, "X": 1}, "interpolation": 2}]}}, "value": {"alpha": {"Points": [{"co": {"Y": 1, "X": 1}, "interpolation": 2}, {"handle_right": {"Y": 0, "X": 0.5}, "co": {"Y": 0, "X": 1}, "handle_left": {"Y": 1, "X": 0.5}, "handle_type": 0, "interpolation": 0}, {"handle_right": {"Y": 0, "X": 0.5}, "co": {"Y": 1, "X": 73}, "handle_left": {"Y": 1, "X": 0.5}, "handle_type": 0, "interpolation": 0}]}, "rotation": {"Points": [{"co": {"Y": 0, "X": 1}, "interpolation": 2}]}, "scale_y": {"Points": [{"co": {"Y": 1, "X": 1}, "interpolation": 2}]}, "crop_y": {"Points": [{"co": {"Y": 0, "X": 1}, "interpolation": 2}]}, "crop_width": {"Points": [{"co": {"Y": -1, "X": 1}, "interpolation": 2}]}, "end": 15, "perspective_c3_x": {"Points": [{"co": {"Y": -1, "X": 1}, "interpolation": 2}]}, "position": 53.075, "id": "PJWPMFXKV3", "wave_color": {"green": {"Points": [{"handle_right": {"Y": 0, "X": 0.5}, "co": {"Y": 123, "X": 1}, "handle_left": {"Y": 1, "X": 0.5}, "handle_type": 0, "interpolation": 0}]}, "blue": {"Points": [{"handle_right": {"Y": 0, "X": 0.5}, "co": {"Y": 255, "X": 1}, "handle_left": {"Y": 1, "X": 0.5}, "handle_type": 0, "interpolation": 0}]}, "alpha": {"Points": [{"handle_right": {"Y": 0, "X": 0.5}, "co": {"Y": 255, "X": 1}, "handle_left": {"Y": 1, "X": 0.5}, "handle_type": 0, "interpolation": 0}]}, "red": {"Points": [{"handle_right": {"Y": 0, "X": 0.5}, "co": {"Y": 0, "X": 1}, "handle_left": {"Y": 1, "X": 0.5}, "handle_type": 0, "interpolation": 0}]}}, "has_video": {"Points": [{"co": {"Y": -1, "X": 1}, "interpolation": 2}]}, "has_audio": {"Points": [{"co": {"Y": -1, "X": 1}, "interpolation": 2}]}, "effects": [], "location_x": {"Points": [{"co": {"Y": 0, "X": 1}, "interpolation": 2}]}, "waveform": false, "title": "arrow.mp4", "image": "/home/robsen/.openshot_qt/thumbnail/X22V56NF57.png", "gravity": 4, "scale_x": {"Points": [{"co": {"Y": 1, "X": 1}, "interpolation": 2}]}, "perspective_c1_y": {"Points": [{"co": {"Y": -1, "X": 1}, "interpolation": 2}]}, "crop_height": {"Points": [{"co": {"Y": -1, "X": 1}, "interpolation": 2}]}, "crop_x": {"Points": [{"co": {"Y": 0, "X": 1}, "interpolation": 2}]}, "start": 0, "scale": 1, "shear_y": {"Points": [{"co": {"Y": 0, "X": 1}, "interpolation": 2}]}, "display": 0, "volume": {"Points": [{"co": {"Y": 1, "X": 1}, "interpolation": 2}]}, "channel_mapping": {"Points": [{"co": {"Y": -1, "X": 1}, "interpolation": 2}]}, "anchor": 0, "duration": 15.0, "perspective_c3_y": {"Points": [{"co": {"Y": -1, "X": 1}, "interpolation": 2}]}, "shear_x": {"Points": [{"co": {"Y": 0, "X": 1}, "interpolation": 2}]}, "perspective_c4_x": {"Points": [{"co": {"Y": -1, "X": 1}, "interpolation": 2}]}, "location_y": {"Points": [{"co": {"Y": 0, "X": 1}, "interpolation": 2}]}, "perspective_c2_x": {"Points": [{"co": {"Y": -1, "X": 1}, "interpolation": 2}]}, "layer": 2, "perspective_c2_y": {"Points": [{"co": {"Y": -1, "X": 1}, "interpolation": 2}]}, "perspective_c1_x": {"Points": [{"co": {"Y": -1, "X": 1}, "interpolation": 2}]}, "perspective_c4_y": {"Points": [{"co": {"Y": -1, "X": 1}, "interpolation": 2}]}, "channel_filter": {"Points": [{"co": {"Y": -1, "X": 1}, "interpolation": 2}]}, "time": {"Points": [{"co": {"Y": 1, "X": 1}, "interpolation": 2}]}, "file_id": "X22V56NF57"}, "key": ["clips", {"id": "PJWPMFXKV3"}], "partial": false, "type": "update"}]}, "key": ["history"], "partial": false, "type": "update"}, {"old_values": null, "value": {"redo": [], "undo": [{"old_values": [{"number": 0, "label": "Spur 1", "id": "UBOPYJIV1S", "y": 0}, {"number": 1, "label": "Spur 2", "id": "SHY16ICR2M", "y": 0}], "value": {"number": 2, "y": 0, "label": "", "id": "E44ZNJSI3Z", "lock": false}, "key": ["layers"], "partial": false, "type": "insert"}, {"old_values": [], "value": {"audio_bit_rate": 0, "has_single_image": false, "media_type": "video", "id": "LGW3TZJV4Q", "type": "FFmpegReader", "has_video": true, "video_length": "375", "audio_timebase": {"den": 1, "num": 1}, "path": "/home/robsen/Dropbox/Workdir/Repo/SuesseRache-HH-Taxi/taxi_start.mp4", "width": 1920, "has_audio": false, "video_bit_rate": 147692, "channel_layout": 4, "height": 1080, "vcodec": "h264", "display_ratio": {"den": 9, "num": 16}, "interlaced_frame": false, "duration": 15, "sample_rate": 0, "pixel_format": 0, "video_timebase": {"den": 12800, "num": 1}, "file_size": "276924", "top_field_first": true, "pixel_ratio": {"den": 1, "num": 1}, "acodec": "", "audio_stream_index": -1, "video_stream_index": 0, "channels": 0, "fps": {"den": 1, "num": 25}}, "key": ["files"], "partial": false, "type": "insert"}, {"old_values": [{"audio_bit_rate": 0, "has_single_image": false, "media_type": "video", "id": "LGW3TZJV4Q", "type": "FFmpegReader", "has_video": true, "video_length": "375", "audio_timebase": {"den": 1, "num": 1}, "path": "/home/robsen/Dropbox/Workdir/Repo/SuesseRache-HH-Taxi/taxi_start.mp4", "width": 1920, "has_audio": false, "video_bit_rate": 147692, "channel_layout": 4, "height": 1080, "vcodec": "h264", "display_ratio": {"den": 9, "num": 16}, "interlaced_frame": false, "duration": 15, "sample_rate": 0, "pixel_format": 0, "video_timebase": {"den": 12800, "num": 1}, "file_size": "276924", "top_field_first": true, "pixel_ratio": {"den": 1, "num": 1}, "acodec": "", "audio_stream_index": -1, "video_stream_index": 0, "channels": 0, "fps": {"den": 1, "num": 25}}], "value": {"audio_bit_rate": 189375, "has_single_image": false, "media_type": "video", "id": "Z3LOYBY1PL", "type": "FFmpegReader", "has_video": true, "video_length": "937", "audio_timebase": {"den": 48000, "num": 1}, "path": "/home/robsen/Dropbox/Workdir/Repo/SuesseRache-HH-Taxi/TE_SR_Taxi.mp4", "width": 1920, "has_audio": true, "video_bit_rate": 32091692, "channel_layout": 3, "height": 1080, "vcodec": "h264", "display_ratio": {"den": 9, "num": 16}, "interlaced_frame": false, "duration": 31.317333221435547, "sample_rate": 48000, "pixel_format": 0, "video_timebase": {"den": 29970, "num": 1}, "file_size": "125628279", "top_field_first": true, "pixel_ratio": {"den": 1, "num": 1}, "acodec": "aac", "audio_stream_index": 1, "video_stream_index": 0, "channels": 2, "fps": {"den": 100, "num": 2997}}, "key": ["files"], "partial": false, "type": "insert"}, {"old_values": [{"audio_bit_rate": 0, "has_single_image": false, "media_type": "video", "id": "LGW3TZJV4Q", "type": "FFmpegReader", "has_video": true, "video_length": "375", "audio_timebase": {"den": 1, "num": 1}, "path": "/home/robsen/Dropbox/Workdir/Repo/SuesseRache-HH-Taxi/taxi_start.mp4", "width": 1920, "has_audio": false, "video_bit_rate": 147692, "channel_layout": 4, "height": 1080, "vcodec": "h264", "display_ratio": {"den": 9, "num": 16}, "interlaced_frame": false, "duration": 15, "sample_rate": 0, "pixel_format": 0, "video_timebase": {"den": 12800, "num": 1}, "file_size": "276924", "top_field_first": true, "pixel_ratio": {"den": 1, "num": 1}, "acodec": "", "audio_stream_index": -1, "video_stream_index": 0, "channels": 0, "fps": {"den": 1, "num": 25}}, {"audio_bit_rate": 189375, "has_single_image": false, "media_type": "video", "id": "Z3LOYBY1PL", "type": "FFmpegReader", "has_video": true, "video_length": "937", "audio_timebase": {"den": 48000, "num": 1}, "path": "/home/robsen/Dropbox/Workdir/Repo/SuesseRache-HH-Taxi/TE_SR_Taxi.mp4", "width": 1920, "has_audio": true, "video_bit_rate": 32091692, "channel_layout": 3, "height": 1080, "vcodec": "h264", "display_ratio": {"den": 9, "num": 16}, "interlaced_frame": false, "duration": 31.317333221435547, "sample_rate": 48000, "pixel_format": 0, "video_timebase": {"den": 29970, "num": 1}, "file_size": "125628279", "top_field_first": true, "pixel_ratio": {"den": 1, "num": 1}, "acodec": "aac", "audio_stream_index": 1, "video_stream_index": 0, "channels": 2, "fps": {"den": 100, "num": 2997}}], "value": {"audio_bit_rate": 0, "has_single_image": false, "media_type": "video", "id": "X22V56NF57", "type": "FFmpegReader", "has_video": true, "video_length": "375", "audio_timebase": {"den": 1, "num": 1}, "path": "/home/robsen/Dropbox/Workdir/Repo/SuesseRache-HH-Taxi/arrow.mp4", "width": 1920, "has_audio": false, "video_bit_rate": 83079, "channel_layout": 4, "height": 1080, "vcodec": "h264", "display_ratio": {"den": 9, "num": 16}, "interlaced_frame": false, "duration": 15, "sample_rate": 0, "pixel_format": 0, "video_timebase": {"den": 12800, "num": 1}, "file_size": "155774", "top_field_first": true, "pixel_ratio": {"den": 1, "num": 1}, "acodec": "", "audio_stream_index": -1, "video_stream_index": 0, "channels": 0, "fps": {"den": 1, "num": 25}}, "key": ["files"], "partial": false, "type": "insert"}, {"old_values": [], "value": {"alpha": {"Points": [{"co": {"Y": 1, "X": 1}, "interpolation": 2}, {"handle_right": {"Y": 0, "X": 0.5}, "co": {"Y": 1, "X": 289}, "handle_left": {"Y": 1, "X": 0.5}, "handle_type": 0, "interpolation": 0}, {"handle_right": {"Y": 0, "X": 0.5}, "co": {"Y": 0, "X": 361}, "handle_left": {"Y": 1, "X": 0.5}, "handle_type": 0, "interpolation": 0}, {"handle_right": {"Y": 0, "X": 0.5}, "co": {"Y": 0, "X": 1}, "handle_left": {"Y": 1, "X": 0.5}, "handle_type": 0, "interpolation": 0}, {"handle_right": {"Y": 0, "X": 0.5}, "co": {"Y": 1, "X": 73}, "handle_left": {"Y": 1, "X": 0.5}, "handle_type": 0, "interpolation": 0}]}, "rotation": {"Points": [{"co": {"Y": 0, "X": 1}, "interpolation": 2}]}, "scale_y": {"Points": [{"co": {"Y": 1, "X": 1}, "interpolation": 2}]}, "crop_y": {"Points": [{"co": {"Y": 0, "X": 1}, "interpolation": 2}]}, "perspective_c3_x": {"Points": [{"co": {"Y": -1, "X": 1}, "interpolation": 2}]}, "end": 15, "crop_width": {"Points": [{"co": {"Y": -1, "X": 1}, "interpolation": 2}]}, "position": 8.8, "id": "0AEDFYGQ7J", "wave_color": {"green": {"Points": [{"handle_right": {"Y": 0, "X": 0.5}, "co": {"Y": 123, "X": 1}, "handle_left": {"Y": 1, "X": 0.5}, "handle_type": 0, "interpolation": 0}]}, "blue": {"Points": [{"handle_right": {"Y": 0, "X": 0.5}, "co": {"Y": 255, "X": 1}, "handle_left": {"Y": 1, "X": 0.5}, "handle_type": 0, "interpolation": 0}]}, "alpha": {"Points": [{"handle_right": {"Y": 0, "X": 0.5}, "co": {"Y": 255, "X": 1}, "handle_left": {"Y": 1, "X": 0.5}, "handle_type": 0, "interpolation": 0}]}, "red": {"Points": [{"handle_right": {"Y": 0, "X": 0.5}, "co": {"Y": 0, "X": 1}, "handle_left": {"Y": 1, "X": 0.5}, "handle_type": 0, "interpolation": 0}]}}, "has_video": {"Points": [{"co": {"Y": -1, "X": 1}, "interpolation": 2}]}, "has_audio": {"Points": [{"co": {"Y": -1, "X": 1}, "interpolation": 2}]}, "effects": [], "location_x": {"Points": [{"co": {"Y": 0, "X": 1}, "interpolation": 2}]}, "waveform": false, "title": "taxi_start.mp4", "image": "/home/robsen/.openshot_qt/thumbnail/LGW3TZJV4Q.png", "gravity": 4, "scale_x": {"Points": [{"co": {"Y": 1, "X": 1}, "interpolation": 2}]}, "perspective_c1_y": {"Points": [{"co": {"Y": -1, "X": 1}, "interpolation": 2}]}, "crop_height": {"Points": [{"co": {"Y": -1, "X": 1}, "interpolation": 2}]}, "crop_x": {"Points": [{"co": {"Y": 0, "X": 1}, "interpolation": 2}]}, "start": 0, "scale": 1, "shear_y": {"Points": [{"co": {"Y": 0, "X": 1}, "interpolation": 2}]}, "display": 0, "volume": {"Points": [{"co": {"Y": 1, "X": 1}, "interpolation": 2}]}, "channel_mapping": {"Points": [{"co": {"Y": -1, "X": 1}, "interpolation": 2}]}, "anchor": 0, "duration": 15.0, "perspective_c3_y": {"Points": [{"co": {"Y": -1, "X": 1}, "interpolation": 2}]}, "shear_x": {"Points": [{"co": {"Y": 0, "X": 1}, "interpolation": 2}]}, "perspective_c4_x": {"Points": [{"co": {"Y": -1, "X": 1}, "interpolation": 2}]}, "location_y": {"Points": [{"co": {"Y": 0, "X": 1}, "interpolation": 2}]}, "perspective_c2_x": {"Points": [{"co": {"Y": -1, "X": 1}, "interpolation": 2}]}, "layer": 0, "perspective_c2_y": {"Points": [{"co": {"Y": -1, "X": 1}, "interpolation": 2}]}, "perspective_c1_x": {"Points": [{"co": {"Y": -1, "X": 1}, "interpolation": 2}]}, "perspective_c4_y": {"Points": [{"co": {"Y": -1, "X": 1}, "interpolation": 2}]}, "reader": {"audio_bit_rate": 0, "has_single_image": false, "has_video": true, "type": "FFmpegReader", "video_length": "375", "audio_timebase": {"den": 1, "num": 1}, "path": "/home/robsen/Dropbox/Workdir/Repo/SuesseRache-HH-Taxi/taxi_start.mp4", "width": 1920, "has_audio": false, "video_bit_rate": 147692, "channel_layout": 4, "height": 1080, "display_ratio": {"den": 9, "num": 16}, "interlaced_frame": false, "video_timebase": {"den": 12800, "num": 1}, "duration": 15.0, "sample_rate": 0, "pixel_format": 0, "fps": {"den": 1, "num": 25}, "file_size": "276924", "top_field_first": true, "pixel_ratio": {"den": 1, "num": 1}, "acodec": "", "audio_stream_index": -1, "video_stream_index": 0, "channels": 0, "vcodec": "h264"}, "channel_filter": {"Points": [{"co": {"Y": -1, "X": 1}, "interpolation": 2}]}, "file_id": "LGW3TZJV4Q", "time": {"Points": [{"co": {"Y": 1, "X": 1}, "interpolation": 2}]}}, "key": ["clips"], "partial": false, "type": "insert"}, {"old_values": null, "value": {"id": "0AEDFYGQ7J", "start": 0, "end": 15, "position": 8.8, "layer": 0, "image": "/home/robsen/.openshot_qt/thumbnail/LGW3TZJV4Q.png"}, "key": ["clips", {"id": "0AEDFYGQ7J"}], "partial": false, "type": "update"}, {"old_values": null, "value": {"id": "0AEDFYGQ7J", "start": 0, "end": 15, "position": 8.8, "layer": 0, "image": "/home/robsen/.openshot_qt/thumbnail/LGW3TZJV4Q.png"}, "key": ["clips", {"id": "0AEDFYGQ7J"}], "partial": false, "type": "update"}, {"old_values": [{"alpha": {"Points": [{"co": {"Y": 1, "X": 1}, "interpolation": 2}]}, "rotation": {"Points": [{"co": {"Y": 0, "X": 1}, "interpolation": 2}]}, "scale_y": {"Points": [{"co": {"Y": 1, "X": 1}, "interpolation": 2}]}, "crop_y": {"Points": [{"co": {"Y": 0, "X": 1}, "interpolation": 2}]}, "perspective_c3_x": {"Points": [{"co": {"Y": -1, "X": 1}, "interpolation": 2}]}, "end": 15, "crop_width": {"Points": [{"co": {"Y": -1, "X": 1}, "interpolation": 2}]}, "position": 8.8, "id": "0AEDFYGQ7J", "wave_color": {"green": {"Points": [{"handle_right": {"Y": 0, "X": 0.5}, "co": {"Y": 123, "X": 1}, "handle_left": {"Y": 1, "X": 0.5}, "handle_type": 0, "interpolation": 0}]}, "blue": {"Points": [{"handle_right": {"Y": 0, "X": 0.5}, "co": {"Y": 255, "X": 1}, "handle_left": {"Y": 1, "X": 0.5}, "handle_type": 0, "interpolation": 0}]}, "alpha": {"Points": [{"handle_right": {"Y": 0, "X": 0.5}, "co": {"Y": 255, "X": 1}, "handle_left": {"Y": 1, "X": 0.5}, "handle_type": 0, "interpolation": 0}]}, "red": {"Points": [{"handle_right": {"Y": 0, "X": 0.5}, "co": {"Y": 0, "X": 1}, "handle_left": {"Y": 1, "X": 0.5}, "handle_type": 0, "interpolation": 0}]}}, "has_video": {"Points": [{"co": {"Y": -1, "X": 1}, "interpolation": 2}]}, "has_audio": {"Points": [{"co": {"Y": -1, "X": 1}, "interpolation": 2}]}, "effects": [], "location_x": {"Points": [{"co": {"Y": 0, "X": 1}, "interpolation": 2}]}, "waveform": false, "title": "taxi_start.mp4", "image": "/home/robsen/.openshot_qt/thumbnail/LGW3TZJV4Q.png", "gravity": 4, "perspective_c2_x": {"Points": [{"co": {"Y": -1, "X": 1}, "interpolation": 2}]}, "perspective_c1_y": {"Points": [{"co": {"Y": -1, "X": 1}, "interpolation": 2}]}, "crop_height": {"Points": [{"co": {"Y": -1, "X": 1}, "interpolation": 2}]}, "crop_x": {"Points": [{"co": {"Y": 0, "X": 1}, "interpolation": 2}]}, "start": 0, "scale": 1, "shear_y": {"Points": [{"co": {"Y": 0, "X": 1}, "interpolation": 2}]}, "display": 0, "volume": {"Points": [{"co": {"Y": 1, "X": 1}, "interpolation": 2}]}, "channel_mapping": {"Points": [{"co": {"Y": -1, "X": 1}, "interpolation": 2}]}, "anchor": 0, "duration": 15.0, "perspective_c3_y": {"Points": [{"co": {"Y": -1, "X": 1}, "interpolation": 2}]}, "shear_x": {"Points": [{"co": {"Y": 0, "X": 1}, "interpolation": 2}]}, "perspective_c4_x": {"Points": [{"co": {"Y": -1, "X": 1}, "interpolation": 2}]}, "location_y": {"Points": [{"co": {"Y": 0, "X": 1}, "interpolation": 2}]}, "scale_x": {"Points": [{"co": {"Y": 1, "X": 1}, "interpolation": 2}]}, "layer": 0, "perspective_c2_y": {"Points": [{"co": {"Y": -1, "X": 1}, "interpolation": 2}]}, "perspective_c1_x": {"Points": [{"co": {"Y": -1, "X": 1}, "interpolation": 2}]}, "perspective_c4_y": {"Points": [{"co": {"Y": -1, "X": 1}, "interpolation": 2}]}, "reader": {"audio_bit_rate": 0, "has_single_image": false, "vcodec": "h264", "has_video": true, "type": "FFmpegReader", "video_length": "375", "audio_timebase": {"den": 1, "num": 1}, "path": "/home/robsen/Dropbox/Workdir/Repo/SuesseRache-HH-Taxi/taxi_start.mp4", "width": 1920, "has_audio": false, "video_bit_rate": 147692, "channel_layout": 4, "height": 1080, "display_ratio": {"den": 9, "num": 16}, "interlaced_frame": false, "duration": 15.0, "sample_rate": 0, "pixel_format": 0, "video_timebase": {"den": 12800, "num": 1}, "file_size": "276924", "top_field_first": true, "pixel_ratio": {"den": 1, "num": 1}, "acodec": "", "audio_stream_index": -1, "video_stream_index": 0, "channels": 0, "fps": {"den": 1, "num": 25}}, "channel_filter": {"Points": [{"co": {"Y": -1, "X": 1}, "interpolation": 2}]}, "file_id": "LGW3TZJV4Q", "time": {"Points": [{"co": {"Y": 1, "X": 1}, "interpolation": 2}]}}], "value": {"alpha": {"Points": [{"co": {"Y": 1, "X": 1}, "interpolation": 2}]}, "rotation": {"Points": [{"co": {"Y": 0, "X": 1}, "interpolation": 2}]}, "scale_y": {"Points": [{"co": {"Y": 1, "X": 1}, "interpolation": 2}]}, "crop_y": {"Points": [{"co": {"Y": 0, "X": 1}, "interpolation": 2}]}, "perspective_c3_x": {"Points": [{"co": {"Y": -1, "X": 1}, "interpolation": 2}]}, "end": 31.317333221435547, "crop_width": {"Points": [{"co": {"Y": -1, "X": 1}, "interpolation": 2}]}, "position": 21.76, "id": "627XQDJ3EP", "wave_color": {"green": {"Points": [{"handle_right": {"Y": 0, "X": 0.5}, "co": {"Y": 123, "X": 1}, "handle_left": {"Y": 1, "X": 0.5}, "handle_type": 0, "interpolation": 0}]}, "blue": {"Points": [{"handle_right": {"Y": 0, "X": 0.5}, "co": {"Y": 255, "X": 1}, "handle_left": {"Y": 1, "X": 0.5}, "handle_type": 0, "interpolation": 0}]}, "alpha": {"Points": [{"handle_right": {"Y": 0, "X": 0.5}, "co": {"Y": 255, "X": 1}, "handle_left": {"Y": 1, "X": 0.5}, "handle_type": 0, "interpolation": 0}]}, "red": {"Points": [{"handle_right": {"Y": 0, "X": 0.5}, "co": {"Y": 0, "X": 1}, "handle_left": {"Y": 1, "X": 0.5}, "handle_type": 0, "interpolation": 0}]}}, "has_video": {"Points": [{"co": {"Y": -1, "X": 1}, "interpolation": 2}]}, "has_audio": {"Points": [{"co": {"Y": -1, "X": 1}, "interpolation": 2}]}, "effects": [], "location_x": {"Points": [{"co": {"Y": 0, "X": 1}, "interpolation": 2}]}, "waveform": false, "title": "TE_SR_Taxi.mp4", "image": "/home/robsen/.openshot_qt/thumbnail/Z3LOYBY1PL.png", "gravity": 4, "scale_x": {"Points": [{"co": {"Y": 1, "X": 1}, "interpolation": 2}]}, "perspective_c1_y": {"Points": [{"co": {"Y": -1, "X": 1}, "interpolation": 2}]}, "crop_height": {"Points": [{"co": {"Y": -1, "X": 1}, "interpolation": 2}]}, "crop_x": {"Points": [{"co": {"Y": 0, "X": 1}, "interpolation": 2}]}, "start": 0, "scale": 1, "shear_y": {"Points": [{"co": {"Y": 0, "X": 1}, "interpolation": 2}]}, "display": 0, "volume": {"Points": [{"co": {"Y": 1, "X": 1}, "interpolation": 2}]}, "channel_mapping": {"Points": [{"co": {"Y": -1, "X": 1}, "interpolation": 2}]}, "anchor": 0, "duration": 31.317333221435547, "perspective_c3_y": {"Points": [{"co": {"Y": -1, "X": 1}, "interpolation": 2}]}, "shear_x": {"Points": [{"co": {"Y": 0, "X": 1}, "interpolation": 2}]}, "perspective_c4_x": {"Points": [{"co": {"Y": -1, "X": 1}, "interpolation": 2}]}, "location_y": {"Points": [{"co": {"Y": 0, "X": 1}, "interpolation": 2}]}, "perspective_c2_x": {"Points": [{"co": {"Y": -1, "X": 1}, "interpolation": 2}]}, "layer": 1, "perspective_c2_y": {"Points": [{"co": {"Y": -1, "X": 1}, "interpolation": 2}]}, "perspective_c1_x": {"Points": [{"co": {"Y": -1, "X": 1}, "interpolation": 2}]}, "perspective_c4_y": {"Points": [{"co": {"Y": -1, "X": 1}, "interpolation": 2}]}, "reader": {"audio_bit_rate": 189375, "has_single_image": false, "has_video": true, "type": "FFmpegReader", "video_length": "937", "audio_timebase": {"den": 48000, "num": 1}, "path": "/home/robsen/Dropbox/Workdir/Repo/SuesseRache-HH-Taxi/TE_SR_Taxi.mp4", "width": 1920, "has_audio": true, "video_bit_rate": 32091692, "channel_layout": 3, "height": 1080, "display_ratio": {"den": 9, "num": 16}, "interlaced_frame": false, "video_timebase": {"den": 29970, "num": 1}, "duration": 31.317333221435547, "sample_rate": 48000, "pixel_format": 0, "fps": {"den": 100, "num": 2997}, "file_size": "125628279", "top_field_first": true, "pixel_ratio": {"den": 1, "num": 1}, "acodec": "aac", "audio_stream_index": 1, "video_stream_index": 0, "channels": 2, "vcodec": "h264"}, "channel_filter": {"Points": [{"co": {"Y": -1, "X": 1}, "interpolation": 2}]}, "file_id": "Z3LOYBY1PL", "time": {"Points": [{"co": {"Y": 1, "X": 1}, "interpolation": 2}]}}, "key": ["clips"], "partial": false, "type": "insert"}, {"old_values": {"alpha": {"Points": [{"co": {"Y": 1, "X": 1}, "interpolation": 2}]}, "rotation": {"Points": [{"co": {"Y": 0, "X": 1}, "interpolation": 2}]}, "scale_y": {"Points": [{"co": {"Y": 1, "X": 1}, "interpolation": 2}]}, "crop_y": {"Points": [{"co": {"Y": 0, "X": 1}, "interpolation": 2}]}, "perspective_c3_x": {"Points": [{"co": {"Y": -1, "X": 1}, "interpolation": 2}]}, "end": 31.317333221435547, "crop_width": {"Points": [{"co": {"Y": -1, "X": 1}, "interpolation": 2}]}, "position": 18.88, "id": "627XQDJ3EP", "wave_color": {"green": {"Points": [{"handle_right": {"Y": 0, "X": 0.5}, "co": {"Y": 123, "X": 1}, "handle_left": {"Y": 1, "X": 0.5}, "handle_type": 0, "interpolation": 0}]}, "blue": {"Points": [{"handle_right": {"Y": 0, "X": 0.5}, "co": {"Y": 255, "X": 1}, "handle_left": {"Y": 1, "X": 0.5}, "handle_type": 0, "interpolation": 0}]}, "alpha": {"Points": [{"handle_right": {"Y": 0, "X": 0.5}, "co": {"Y": 255, "X": 1}, "handle_left": {"Y": 1, "X": 0.5}, "handle_type": 0, "interpolation": 0}]}, "red": {"Points": [{"handle_right": {"Y": 0, "X": 0.5}, "co": {"Y": 0, "X": 1}, "handle_left": {"Y": 1, "X": 0.5}, "handle_type": 0, "interpolation": 0}]}}, "has_video": {"Points": [{"co": {"Y": -1, "X": 1}, "interpolation": 2}]}, "has_audio": {"Points": [{"co": {"Y": -1, "X": 1}, "interpolation": 2}]}, "effects": [], "location_x": {"Points": [{"co": {"Y": 0, "X": 1}, "interpolation": 2}]}, "waveform": false, "title": "TE_SR_Taxi.mp4", "image": "/home/robsen/.openshot_qt/thumbnail/Z3LOYBY1PL.png", "gravity": 4, "scale_x": {"Points": [{"co": {"Y": 1, "X": 1}, "interpolation": 2}]}, "perspective_c1_y": {"Points": [{"co": {"Y": -1, "X": 1}, "interpolation": 2}]}, "crop_height": {"Points": [{"co": {"Y": -1, "X": 1}, "interpolation": 2}]}, "crop_x": {"Points": [{"co": {"Y": 0, "X": 1}, "interpolation": 2}]}, "start": 0, "scale": 1, "shear_y": {"Points": [{"co": {"Y": 0, "X": 1}, "interpolation": 2}]}, "display": 0, "volume": {"Points": [{"co": {"Y": 1, "X": 1}, "interpolation": 2}]}, "channel_mapping": {"Points": [{"co": {"Y": -1, "X": 1}, "interpolation": 2}]}, "anchor": 0, "duration": 31.317333221435547, "perspective_c3_y": {"Points": [{"co": {"Y": -1, "X": 1}, "interpolation": 2}]}, "shear_x": {"Points": [{"co": {"Y": 0, "X": 1}, "interpolation": 2}]}, "perspective_c4_x": {"Points": [{"co": {"Y": -1, "X": 1}, "interpolation": 2}]}, "location_y": {"Points": [{"co": {"Y": 0, "X": 1}, "interpolation": 2}]}, "perspective_c2_x": {"Points": [{"co": {"Y": -1, "X": 1}, "interpolation": 2}]}, "layer": 2, "perspective_c2_y": {"Points": [{"co": {"Y": -1, "X": 1}, "interpolation": 2}]}, "perspective_c1_x": {"Points": [{"co": {"Y": -1, "X": 1}, "interpolation": 2}]}, "perspective_c4_y": {"Points": [{"co": {"Y": -1, "X": 1}, "interpolation": 2}]}, "reader": {"audio_bit_rate": 189375, "has_single_image": false, "vcodec": "h264", "has_video": true, "type": "FFmpegReader", "video_length": "937", "audio_timebase": {"den": 48000, "num": 1}, "path": "/home/robsen/Dropbox/Workdir/Repo/SuesseRache-HH-Taxi/TE_SR_Taxi.mp4", "width": 1920, "has_audio": true, "video_bit_rate": 32091692, "channel_layout": 3, "height": 1080, "display_ratio": {"den": 9, "num": 16}, "interlaced_frame": false, "duration": 31.317333221435547, "sample_rate": 48000, "pixel_format": 0, "video_timebase": {"den": 29970, "num": 1}, "file_size": "125628279", "top_field_first": true, "pixel_ratio": {"den": 1, "num": 1}, "acodec": "aac", "audio_stream_index": 1, "video_stream_index": 0, "channels": 2, "fps": {"den": 100, "num": 2997}}, "channel_filter": {"Points": [{"co": {"Y": -1, "X": 1}, "interpolation": 2}]}, "file_id": "Z3LOYBY1PL", "time": {"Points": [{"co": {"Y": 1, "X": 1}, "interpolation": 2}]}}, "value": {"id": "627XQDJ3EP", "start": 0, "end": 31.317333221435547, "position": 21.76, "layer": 0, "image": "/home/robsen/.openshot_qt/thumbnail/Z3LOYBY1PL.png"}, "key": ["clips", {"id": "627XQDJ3EP"}], "partial": false, "type": "update"}, {"old_values": [], "value": {"start": 0, "type": "Mask", "contrast": {"Points": [{"co": {"Y": 3, "X": 1}, "interpolation": 2}]}, "layer": 0, "replace_image": false, "title": "Transition", "end": 2.039999999999999, "reader": {"audio_bit_rate": 0, "has_single_image": true, "has_video": true, "type": "QtImageReader", "video_length": "2592000", "audio_timebase": {"den": 1, "num": 1}, "path": "/usr/lib/python3/dist-packages/openshot_qt/transitions/common/fade.svg", "width": 720, "has_audio": false, "video_bit_rate": 0, "channel_layout": 4, "height": 576, "display_ratio": {"den": 4, "num": 5}, "interlaced_frame": false, "video_timebase": {"den": 30, "num": 1}, "duration": 86400, "sample_rate": 0, "pixel_format": -1, "fps": {"den": 1, "num": 30}, "file_size": "1658880", "top_field_first": true, "pixel_ratio": {"den": 1, "num": 1}, "acodec": "", "audio_stream_index": -1, "video_stream_index": -1, "channels": 0, "vcodec": ""}, "brightness": {"Points": [{"handle_right": {"Y": 0, "X": 0.5}, "co": {"Y": 1, "X": 1}, "handle_left": {"Y": 1, "X": 0.5}, "handle_type": 0, "interpolation": 0}, {"handle_right": {"Y": 0, "X": 0.5}, "co": {"Y": -1, "X": 50}, "handle_left": {"Y": 1, "X": 0.5}, "handle_type": 0, "interpolation": 0}]}, "id": "5NBS5H99MA", "position": 21.76}, "key": ["effects"], "partial": false, "type": "insert"}, {"old_values": {"alpha": {"Points": [{"co": {"Y": 1, "X": 1}, "interpolation": 2}]}, "rotation": {"Points": [{"co": {"Y": 0, "X": 1}, "interpolation": 2}]}, "scale_y": {"Points": [{"co": {"Y": 1, "X": 1}, "interpolation": 2}]}, "crop_y": {"Points": [{"co": {"Y": 0, "X": 1}, "interpolation": 2}]}, "perspective_c3_x": {"Points": [{"co": {"Y": -1, "X": 1}, "interpolation": 2}]}, "end": 31.317333221435547, "crop_width": {"Points": [{"co": {"Y": -1, "X": 1}, "interpolation": 2}]}, "position": 21.76, "id": "627XQDJ3EP", "wave_color": {"green": {"Points": [{"handle_right": {"Y": 0, "X": 0.5}, "co": {"Y": 123, "X": 1}, "handle_left": {"Y": 1, "X": 0.5}, "handle_type": 0, "interpolation": 0}]}, "blue": {"Points": [{"handle_right": {"Y": 0, "X": 0.5}, "co": {"Y": 255, "X": 1}, "handle_left": {"Y": 1, "X": 0.5}, "handle_type": 0, "interpolation": 0}]}, "alpha": {"Points": [{"handle_right": {"Y": 0, "X": 0.5}, "co": {"Y": 255, "X": 1}, "handle_left": {"Y": 1, "X": 0.5}, "handle_type": 0, "interpolation": 0}]}, "red": {"Points": [{"handle_right": {"Y": 0, "X": 0.5}, "co": {"Y": 0, "X": 1}, "handle_left": {"Y": 1, "X": 0.5}, "handle_type": 0, "interpolation": 0}]}}, "has_video": {"Points": [{"co": {"Y": -1, "X": 1}, "interpolation": 2}]}, "has_audio": {"Points": [{"co": {"Y": -1, "X": 1}, "interpolation": 2}]}, "effects": [], "location_x": {"Points": [{"co": {"Y": 0, "X": 1}, "interpolation": 2}]}, "waveform": false, "title": "TE_SR_Taxi.mp4", "image": "/home/robsen/.openshot_qt/thumbnail/Z3LOYBY1PL.png", "gravity": 4, "perspective_c2_x": {"Points": [{"co": {"Y": -1, "X": 1}, "interpolation": 2}]}, "perspective_c1_y": {"Points": [{"co": {"Y": -1, "X": 1}, "interpolation": 2}]}, "crop_height": {"Points": [{"co": {"Y": -1, "X": 1}, "interpolation": 2}]}, "crop_x": {"Points": [{"co": {"Y": 0, "X": 1}, "interpolation": 2}]}, "start": 0, "scale": 1, "shear_y": {"Points": [{"co": {"Y": 0, "X": 1}, "interpolation": 2}]}, "display": 0, "volume": {"Points": [{"co": {"Y": 1, "X": 1}, "interpolation": 2}]}, "channel_mapping": {"Points": [{"co": {"Y": -1, "X": 1}, "interpolation": 2}]}, "anchor": 0, "duration": 31.317333221435547, "perspective_c3_y": {"Points": [{"co": {"Y": -1, "X": 1}, "interpolation": 2}]}, "shear_x": {"Points": [{"co": {"Y": 0, "X": 1}, "interpolation": 2}]}, "perspective_c4_x": {"Points": [{"co": {"Y": -1, "X": 1}, "interpolation": 2}]}, "location_y": {"Points": [{"co": {"Y": 0, "X": 1}, "interpolation": 2}]}, "scale_x": {"Points": [{"co": {"Y": 1, "X": 1}, "interpolation": 2}]}, "layer": 0, "perspective_c2_y": {"Points": [{"co": {"Y": -1, "X": 1}, "interpolation": 2}]}, "perspective_c1_x": {"Points": [{"co": {"Y": -1, "X": 1}, "interpolation": 2}]}, "perspective_c4_y": {"Points": [{"co": {"Y": -1, "X": 1}, "interpolation": 2}]}, "reader": {"audio_bit_rate": 189375, "has_single_image": false, "vcodec": "h264", "has_video": true, "type": "FFmpegReader", "video_length": "937", "audio_timebase": {"den": 48000, "num": 1}, "path": "/home/robsen/Dropbox/Workdir/Repo/SuesseRache-HH-Taxi/TE_SR_Taxi.mp4", "width": 1920, "has_audio": true, "video_bit_rate": 32091692, "channel_layout": 3, "height": 1080, "display_ratio": {"den": 9, "num": 16}, "interlaced_frame": false, "duration": 31.317333221435547, "sample_rate": 48000, "pixel_format": 0, "video_timebase": {"den": 29970, "num": 1}, "file_size": "125628279", "top_field_first": true, "pixel_ratio": {"den": 1, "num": 1}, "acodec": "aac", "audio_stream_index": 1, "video_stream_index": 0, "channels": 2, "fps": {"den": 100, "num": 2997}}, "channel_filter": {"Points": [{"co": {"Y": -1, "X": 1}, "interpolation": 2}]}, "file_id": "Z3LOYBY1PL", "time": {"Points": [{"co": {"Y": 1, "X": 1}, "interpolation": 2}]}}, "value": {"id": "627XQDJ3EP", "start": 0, "end": 31.317333221435547, "position": 21.76, "layer": 1, "image": "/home/robsen/.openshot_qt/thumbnail/Z3LOYBY1PL.png"}, "key": ["clips", {"id": "627XQDJ3EP"}], "partial": false, "type": "update"}, {"old_values": [{"alpha": {"Points": [{"co": {"Y": 1, "X": 1}, "interpolation": 2}]}, "rotation": {"Points": [{"co": {"Y": 0, "X": 1}, "interpolation": 2}]}, "scale_y": {"Points": [{"co": {"Y": 1, "X": 1}, "interpolation": 2}]}, "crop_y": {"Points": [{"co": {"Y": 0, "X": 1}, "interpolation": 2}]}, "perspective_c3_x": {"Points": [{"co": {"Y": -1, "X": 1}, "interpolation": 2}]}, "end": 15, "crop_width": {"Points": [{"co": {"Y": -1, "X": 1}, "interpolation": 2}]}, "position": 8.8, "id": "0AEDFYGQ7J", "wave_color": {"green": {"Points": [{"handle_right": {"Y": 0, "X": 0.5}, "co": {"Y": 123, "X": 1}, "handle_left": {"Y": 1, "X": 0.5}, "handle_type": 0, "interpolation": 0}]}, "blue": {"Points": [{"handle_right": {"Y": 0, "X": 0.5}, "co": {"Y": 255, "X": 1}, "handle_left": {"Y": 1, "X": 0.5}, "handle_type": 0, "interpolation": 0}]}, "alpha": {"Points": [{"handle_right": {"Y": 0, "X": 0.5}, "co": {"Y": 255, "X": 1}, "handle_left": {"Y": 1, "X": 0.5}, "handle_type": 0, "interpolation": 0}]}, "red": {"Points": [{"handle_right": {"Y": 0, "X": 0.5}, "co": {"Y": 0, "X": 1}, "handle_left": {"Y": 1, "X": 0.5}, "handle_type": 0, "interpolation": 0}]}}, "has_video": {"Points": [{"co": {"Y": -1, "X": 1}, "interpolation": 2}]}, "has_audio": {"Points": [{"co": {"Y": -1, "X": 1}, "interpolation": 2}]}, "effects": [], "location_x": {"Points": [{"co": {"Y": 0, "X": 1}, "interpolation": 2}]}, "waveform": false, "title": "taxi_start.mp4", "image": "/home/robsen/.openshot_qt/thumbnail/LGW3TZJV4Q.png", "gravity": 4, "perspective_c2_x": {"Points": [{"co": {"Y": -1, "X": 1}, "interpolation": 2}]}, "perspective_c1_y": {"Points": [{"co": {"Y": -1, "X": 1}, "interpolation": 2}]}, "crop_height": {"Points": [{"co": {"Y": -1, "X": 1}, "interpolation": 2}]}, "crop_x": {"Points": [{"co": {"Y": 0, "X": 1}, "interpolation": 2}]}, "start": 0, "scale": 1, "shear_y": {"Points": [{"co": {"Y": 0, "X": 1}, "interpolation": 2}]}, "display": 0, "volume": {"Points": [{"co": {"Y": 1, "X": 1}, "interpolation": 2}]}, "channel_mapping": {"Points": [{"co": {"Y": -1, "X": 1}, "interpolation": 2}]}, "anchor": 0, "duration": 15.0, "perspective_c3_y": {"Points": [{"co": {"Y": -1, "X": 1}, "interpolation": 2}]}, "shear_x": {"Points": [{"co": {"Y": 0, "X": 1}, "interpolation": 2}]}, "perspective_c4_x": {"Points": [{"co": {"Y": -1, "X": 1}, "interpolation": 2}]}, "location_y": {"Points": [{"co": {"Y": 0, "X": 1}, "interpolation": 2}]}, "scale_x": {"Points": [{"co": {"Y": 1, "X": 1}, "interpolation": 2}]}, "layer": 0, "perspective_c2_y": {"Points": [{"co": {"Y": -1, "X": 1}, "interpolation": 2}]}, "perspective_c1_x": {"Points": [{"co": {"Y": -1, "X": 1}, "interpolation": 2}]}, "perspective_c4_y": {"Points": [{"co": {"Y": -1, "X": 1}, "interpolation": 2}]}, "reader": {"audio_bit_rate": 0, "has_single_image": false, "vcodec": "h264", "has_video": true, "type": "FFmpegReader", "video_length": "375", "audio_timebase": {"den": 1, "num": 1}, "path": "/home/robsen/Dropbox/Workdir/Repo/SuesseRache-HH-Taxi/taxi_start.mp4", "width": 1920, "has_audio": false, "video_bit_rate": 147692, "channel_layout": 4, "height": 1080, "display_ratio": {"den": 9, "num": 16}, "interlaced_frame": false, "duration": 15.0, "sample_rate": 0, "pixel_format": 0, "video_timebase": {"den": 12800, "num": 1}, "file_size": "276924", "top_field_first": true, "pixel_ratio": {"den": 1, "num": 1}, "acodec": "", "audio_stream_index": -1, "video_stream_index": 0, "channels": 0, "fps": {"den": 1, "num": 25}}, "channel_filter": {"Points": [{"co": {"Y": -1, "X": 1}, "interpolation": 2}]}, "file_id": "LGW3TZJV4Q", "time": {"Points": [{"co": {"Y": 1, "X": 1}, "interpolation": 2}]}}, {"alpha": {"Points": [{"co": {"Y": 1, "X": 1}, "interpolation": 2}]}, "rotation": {"Points": [{"co": {"Y": 0, "X": 1}, "interpolation": 2}]}, "scale_y": {"Points": [{"co": {"Y": 1, "X": 1}, "interpolation": 2}]}, "crop_y": {"Points": [{"co": {"Y": 0, "X": 1}, "interpolation": 2}]}, "perspective_c3_x": {"Points": [{"co": {"Y": -1, "X": 1}, "interpolation": 2}]}, "end": 31.317333221435547, "crop_width": {"Points": [{"co": {"Y": -1, "X": 1}, "interpolation": 2}]}, "position": 21.76, "id": "627XQDJ3EP", "wave_color": {"green": {"Points": [{"handle_right": {"Y": 0, "X": 0.5}, "co": {"Y": 123, "X": 1}, "handle_left": {"Y": 1, "X": 0.5}, "handle_type": 0, "interpolation": 0}]}, "blue": {"Points": [{"handle_right": {"Y": 0, "X": 0.5}, "co": {"Y": 255, "X": 1}, "handle_left": {"Y": 1, "X": 0.5}, "handle_type": 0, "interpolation": 0}]}, "alpha": {"Points": [{"handle_right": {"Y": 0, "X": 0.5}, "co": {"Y": 255, "X": 1}, "handle_left": {"Y": 1, "X": 0.5}, "handle_type": 0, "interpolation": 0}]}, "red": {"Points": [{"handle_right": {"Y": 0, "X": 0.5}, "co": {"Y": 0, "X": 1}, "handle_left": {"Y": 1, "X": 0.5}, "handle_type": 0, "interpolation": 0}]}}, "has_video": {"Points": [{"co": {"Y": -1, "X": 1}, "interpolation": 2}]}, "has_audio": {"Points": [{"co": {"Y": -1, "X": 1}, "interpolation": 2}]}, "effects": [], "location_x": {"Points": [{"co": {"Y": 0, "X": 1}, "interpolation": 2}]}, "waveform": false, "title": "TE_SR_Taxi.mp4", "image": "/home/robsen/.openshot_qt/thumbnail/Z3LOYBY1PL.png", "gravity": 4, "perspective_c2_x": {"Points": [{"co": {"Y": -1, "X": 1}, "interpolation": 2}]}, "perspective_c1_y": {"Points": [{"co": {"Y": -1, "X": 1}, "interpolation": 2}]}, "crop_height": {"Points": [{"co": {"Y": -1, "X": 1}, "interpolation": 2}]}, "crop_x": {"Points": [{"co": {"Y": 0, "X": 1}, "interpolation": 2}]}, "start": 0, "scale": 1, "shear_y": {"Points": [{"co": {"Y": 0, "X": 1}, "interpolation": 2}]}, "display": 0, "volume": {"Points": [{"co": {"Y": 1, "X": 1}, "interpolation": 2}]}, "channel_mapping": {"Points": [{"co": {"Y": -1, "X": 1}, "interpolation": 2}]}, "anchor": 0, "duration": 31.317333221435547, "perspective_c3_y": {"Points": [{"co": {"Y": -1, "X": 1}, "interpolation": 2}]}, "shear_x": {"Points": [{"co": {"Y": 0, "X": 1}, "interpolation": 2}]}, "perspective_c4_x": {"Points": [{"co": {"Y": -1, "X": 1}, "interpolation": 2}]}, "location_y": {"Points": [{"co": {"Y": 0, "X": 1}, "interpolation": 2}]}, "scale_x": {"Points": [{"co": {"Y": 1, "X": 1}, "interpolation": 2}]}, "layer": 1, "perspective_c2_y": {"Points": [{"co": {"Y": -1, "X": 1}, "interpolation": 2}]}, "perspective_c1_x": {"Points": [{"co": {"Y": -1, "X": 1}, "interpolation": 2}]}, "perspective_c4_y": {"Points": [{"co": {"Y": -1, "X": 1}, "interpolation": 2}]}, "reader": {"audio_bit_rate": 189375, "has_single_image": false, "vcodec": "h264", "has_video": true, "type": "FFmpegReader", "video_length": "937", "audio_timebase": {"den": 48000, "num": 1}, "path": "/home/robsen/Dropbox/Workdir/Repo/SuesseRache-HH-Taxi/TE_SR_Taxi.mp4", "width": 1920, "has_audio": true, "video_bit_rate": 32091692, "channel_layout": 3, "height": 1080, "display_ratio": {"den": 9, "num": 16}, "interlaced_frame": false, "duration": 31.317333221435547, "sample_rate": 48000, "pixel_format": 0, "video_timebase": {"den": 29970, "num": 1}, "file_size": "125628279", "top_field_first": true, "pixel_ratio": {"den": 1, "num": 1}, "acodec": "aac", "audio_stream_index": 1, "video_stream_index": 0, "channels": 2, "fps": {"den": 100, "num": 2997}}, "channel_filter": {"Points": [{"co": {"Y": -1, "X": 1}, "interpolation": 2}]}, "file_id": "Z3LOYBY1PL", "time": {"Points": [{"co": {"Y": 1, "X": 1}, "interpolation": 2}]}}], "value": {"alpha": {"Points": [{"co": {"Y": 1, "X": 1}, "interpolation": 2}, {"handle_right": {"Y": 0, "X": 0.5}, "co": {"Y": 0, "X": 1}, "handle_left": {"Y": 1, "X": 0.5}, "handle_type": 0, "interpolation": 0}, {"handle_right": {"Y": 0, "X": 0.5}, "co": {"Y": 1, "X": 73}, "handle_left": {"Y": 1, "X": 0.5}, "handle_type": 0, "interpolation": 0}]}, "rotation": {"Points": [{"co": {"Y": 0, "X": 1}, "interpolation": 2}]}, "scale_y": {"Points": [{"co": {"Y": 1, "X": 1}, "interpolation": 2}]}, "crop_y": {"Points": [{"co": {"Y": 0, "X": 1}, "interpolation": 2}]}, "perspective_c3_x": {"Points": [{"co": {"Y": -1, "X": 1}, "interpolation": 2}]}, "end": 15, "crop_width": {"Points": [{"co": {"Y": -1, "X": 1}, "interpolation": 2}]}, "position": 53.075, "id": "PJWPMFXKV3", "wave_color": {"green": {"Points": [{"handle_right": {"Y": 0, "X": 0.5}, "co": {"Y": 123, "X": 1}, "handle_left": {"Y": 1, "X": 0.5}, "handle_type": 0, "interpolation": 0}]}, "blue": {"Points": [{"handle_right": {"Y": 0, "X": 0.5}, "co": {"Y": 255, "X": 1}, "handle_left": {"Y": 1, "X": 0.5}, "handle_type": 0, "interpolation": 0}]}, "alpha": {"Points": [{"handle_right": {"Y": 0, "X": 0.5}, "co": {"Y": 255, "X": 1}, "handle_left": {"Y": 1, "X": 0.5}, "handle_type": 0, "interpolation": 0}]}, "red": {"Points": [{"handle_right": {"Y": 0, "X": 0.5}, "co": {"Y": 0, "X": 1}, "handle_left": {"Y": 1, "X": 0.5}, "handle_type": 0, "interpolation": 0}]}}, "has_video": {"Points": [{"co": {"Y": -1, "X": 1}, "interpolation": 2}]}, "has_audio": {"Points": [{"co": {"Y": -1, "X": 1}, "interpolation": 2}]}, "effects": [], "location_x": {"Points": [{"co": {"Y": 0, "X": 1}, "interpolation": 2}]}, "waveform": false, "title": "arrow.mp4", "image": "/home/robsen/.openshot_qt/thumbnail/X22V56NF57.png", "gravity": 4, "scale_x": {"Points": [{"co": {"Y": 1, "X": 1}, "interpolation": 2}]}, "perspective_c1_y": {"Points": [{"co": {"Y": -1, "X": 1}, "interpolation": 2}]}, "crop_height": {"Points": [{"co": {"Y": -1, "X": 1}, "interpolation": 2}]}, "crop_x": {"Points": [{"co": {"Y": 0, "X": 1}, "interpolation": 2}]}, "start": 0, "scale": 1, "shear_y": {"Points": [{"co": {"Y": 0, "X": 1}, "interpolation": 2}]}, "display": 0, "volume": {"Points": [{"co": {"Y": 1, "X": 1}, "interpolation": 2}]}, "channel_mapping": {"Points": [{"co": {"Y": -1, "X": 1}, "interpolation": 2}]}, "anchor": 0, "duration": 15.0, "perspective_c3_y": {"Points": [{"co": {"Y": -1, "X": 1}, "interpolation": 2}]}, "shear_x": {"Points": [{"co": {"Y": 0, "X": 1}, "interpolation": 2}]}, "perspective_c4_x": {"Points": [{"co": {"Y": -1, "X": 1}, "interpolation": 2}]}, "location_y": {"Points": [{"co": {"Y": 0, "X": 1}, "interpolation": 2}]}, "perspective_c2_x": {"Points": [{"co": {"Y": -1, "X": 1}, "interpolation": 2}]}, "layer": 2, "perspective_c2_y": {"Points": [{"co": {"Y": -1, "X": 1}, "interpolation": 2}]}, "perspective_c1_x": {"Points": [{"co": {"Y": -1, "X": 1}, "interpolation": 2}]}, "perspective_c4_y": {"Points": [{"co": {"Y": -1, "X": 1}, "interpolation": 2}]}, "reader": {"audio_bit_rate": 0, "has_single_image": false, "has_video": true, "type": "FFmpegReader", "video_length": "375", "audio_timebase": {"den": 1, "num": 1}, "path": "/home/robsen/Dropbox/Workdir/Repo/SuesseRache-HH-Taxi/arrow.mp4", "width": 1920, "has_audio": false, "video_bit_rate": 83079, "channel_layout": 4, "height": 1080, "display_ratio": {"den": 9, "num": 16}, "interlaced_frame": false, "video_timebase": {"den": 12800, "num": 1}, "duration": 15.0, "sample_rate": 0, "pixel_format": 0, "fps": {"den": 1, "num": 25}, "file_size": "155774", "top_field_first": true, "pixel_ratio": {"den": 1, "num": 1}, "acodec": "", "audio_stream_index": -1, "video_stream_index": 0, "channels": 0, "vcodec": "h264"}, "channel_filter": {"Points": [{"co": {"Y": -1, "X": 1}, "interpolation": 2}]}, "file_id": "X22V56NF57", "time": {"Points": [{"co": {"Y": 1, "X": 1}, "interpolation": 2}]}}, "key": ["clips"], "partial": false, "type": "insert"}, {"old_values": {"alpha": {"Points": [{"co": {"Y": 1, "X": 1}, "interpolation": 2}]}, "rotation": {"Points": [{"co": {"Y": 0, "X": 1}, "interpolation": 2}]}, "scale_y": {"Points": [{"co": {"Y": 1, "X": 1}, "interpolation": 2}]}, "crop_y": {"Points": [{"co": {"Y": 0, "X": 1}, "interpolation": 2}]}, "perspective_c3_x": {"Points": [{"co": {"Y": -1, "X": 1}, "interpolation": 2}]}, "end": 15.0, "crop_width": {"Points": [{"co": {"Y": -1, "X": 1}, "interpolation": 2}]}, "position": 62.88, "id": "PJWPMFXKV3", "wave_color": {"green": {"Points": [{"handle_right": {"Y": 0, "X": 0.5}, "co": {"Y": 123, "X": 1}, "handle_left": {"Y": 1, "X": 0.5}, "handle_type": 0, "interpolation": 0}]}, "blue": {"Points": [{"handle_right": {"Y": 0, "X": 0.5}, "co": {"Y": 255, "X": 1}, "handle_left": {"Y": 1, "X": 0.5}, "handle_type": 0, "interpolation": 0}]}, "alpha": {"Points": [{"handle_right": {"Y": 0, "X": 0.5}, "co": {"Y": 255, "X": 1}, "handle_left": {"Y": 1, "X": 0.5}, "handle_type": 0, "interpolation": 0}]}, "red": {"Points": [{"handle_right": {"Y": 0, "X": 0.5}, "co": {"Y": 0, "X": 1}, "handle_left": {"Y": 1, "X": 0.5}, "handle_type": 0, "interpolation": 0}]}}, "has_video": {"Points": [{"co": {"Y": -1, "X": 1}, "interpolation": 2}]}, "has_audio": {"Points": [{"co": {"Y": -1, "X": 1}, "interpolation": 2}]}, "effects": [], "location_x": {"Points": [{"co": {"Y": 0, "X": 1}, "interpolation": 2}]}, "waveform": false, "title": "arrow.mp4", "image": "/home/robsen/.openshot_qt/thumbnail/X22V56NF57.png", "gravity": 4, "scale_x": {"Points": [{"co": {"Y": 1, "X": 1}, "interpolation": 2}]}, "perspective_c1_y": {"Points": [{"co": {"Y": -1, "X": 1}, "interpolation": 2}]}, "crop_height": {"Points": [{"co": {"Y": -1, "X": 1}, "interpolation": 2}]}, "crop_x": {"Points": [{"co": {"Y": 0, "X": 1}, "interpolation": 2}]}, "start": 0, "scale": 1, "shear_y": {"Points": [{"co": {"Y": 0, "X": 1}, "interpolation": 2}]}, "display": 0, "volume": {"Points": [{"co": {"Y": 1, "X": 1}, "interpolation": 2}]}, "channel_mapping": {"Points": [{"co": {"Y": -1, "X": 1}, "interpolation": 2}]}, "anchor": 0, "duration": 15.0, "perspective_c3_y": {"Points": [{"co": {"Y": -1, "X": 1}, "interpolation": 2}]}, "shear_x": {"Points": [{"co": {"Y": 0, "X": 1}, "interpolation": 2}]}, "perspective_c4_x": {"Points": [{"co": {"Y": -1, "X": 1}, "interpolation": 2}]}, "location_y": {"Points": [{"co": {"Y": 0, "X": 1}, "interpolation": 2}]}, "perspective_c2_x": {"Points": [{"co": {"Y": -1, "X": 1}, "interpolation": 2}]}, "layer": 2, "perspective_c2_y": {"Points": [{"co": {"Y": -1, "X": 1}, "interpolation": 2}]}, "perspective_c1_x": {"Points": [{"co": {"Y": -1, "X": 1}, "interpolation": 2}]}, "perspective_c4_y": {"Points": [{"co": {"Y": -1, "X": 1}, "interpolation": 2}]}, "reader": {"audio_bit_rate": 0, "has_single_image": false, "vcodec": "h264", "has_video": true, "type": "FFmpegReader", "video_length": "375", "audio_timebase": {"den": 1, "num": 1}, "path": "/home/robsen/Dropbox/Workdir/Repo/SuesseRache-HH-Taxi/arrow.mp4", "width": 1920, "has_audio": false, "video_bit_rate": 83079, "channel_layout": 4, "height": 1080, "display_ratio": {"den": 9, "num": 16}, "interlaced_frame": false, "duration": 15.0, "sample_rate": 0, "pixel_format": 0, "video_timebase": {"den": 12800, "num": 1}, "file_size": "155774", "top_field_first": true, "pixel_ratio": {"den": 1, "num": 1}, "acodec": "", "audio_stream_index": -1, "video_stream_index": 0, "channels": 0, "fps": {"den": 1, "num": 25}}, "channel_filter": {"Points": [{"co": {"Y": -1, "X": 1}, "interpolation": 2}]}, "file_id": "X22V56NF57", "time": {"Points": [{"co": {"Y": 1, "X": 1}, "interpolation": 2}]}}, "value": {"id": "PJWPMFXKV3", "start": 0, "end": 15, "position": 63.04, "layer": 1, "image": "/home/robsen/.openshot_qt/thumbnail/X22V56NF57.png"}, "key": ["clips", {"id": "PJWPMFXKV3"}], "partial": false, "type": "update"}, {"old_values": {"alpha": {"Points": [{"co": {"Y": 1, "X": 1}, "interpolation": 2}]}, "rotation": {"Points": [{"co": {"Y": 0, "X": 1}, "interpolation": 2}]}, "scale_y": {"Points": [{"co": {"Y": 1, "X": 1}, "interpolation": 2}]}, "crop_y": {"Points": [{"co": {"Y": 0, "X": 1}, "interpolation": 2}]}, "perspective_c3_x": {"Points": [{"co": {"Y": -1, "X": 1}, "interpolation": 2}]}, "end": 15, "crop_width": {"Points": [{"co": {"Y": -1, "X": 1}, "interpolation": 2}]}, "position": 63.04, "id": "PJWPMFXKV3", "wave_color": {"green": {"Points": [{"handle_right": {"Y": 0, "X": 0.5}, "co": {"Y": 123, "X": 1}, "handle_left": {"Y": 1, "X": 0.5}, "handle_type": 0, "interpolation": 0}]}, "blue": {"Points": [{"handle_right": {"Y": 0, "X": 0.5}, "co": {"Y": 255, "X": 1}, "handle_left": {"Y": 1, "X": 0.5}, "handle_type": 0, "interpolation": 0}]}, "alpha": {"Points": [{"handle_right": {"Y": 0, "X": 0.5}, "co": {"Y": 255, "X": 1}, "handle_left": {"Y": 1, "X": 0.5}, "handle_type": 0, "interpolation": 0}]}, "red": {"Points": [{"handle_right": {"Y": 0, "X": 0.5}, "co": {"Y": 0, "X": 1}, "handle_left": {"Y": 1, "X": 0.5}, "handle_type": 0, "interpolation": 0}]}}, "has_video": {"Points": [{"co": {"Y": -1, "X": 1}, "interpolation": 2}]}, "has_audio": {"Points": [{"co": {"Y": -1, "X": 1}, "interpolation": 2}]}, "effects": [], "location_x": {"Points": [{"co": {"Y": 0, "X": 1}, "interpolation": 2}]}, "waveform": false, "title": "arrow.mp4", "image": "/home/robsen/.openshot_qt/thumbnail/X22V56NF57.png", "gravity": 4, "perspective_c2_x": {"Points": [{"co": {"Y": -1, "X": 1}, "interpolation": 2}]}, "perspective_c1_y": {"Points": [{"co": {"Y": -1, "X": 1}, "interpolation": 2}]}, "crop_height": {"Points": [{"co": {"Y": -1, "X": 1}, "interpolation": 2}]}, "crop_x": {"Points": [{"co": {"Y": 0, "X": 1}, "interpolation": 2}]}, "start": 0, "scale": 1, "shear_y": {"Points": [{"co": {"Y": 0, "X": 1}, "interpolation": 2}]}, "display": 0, "volume": {"Points": [{"co": {"Y": 1, "X": 1}, "interpolation": 2}]}, "channel_mapping": {"Points": [{"co": {"Y": -1, "X": 1}, "interpolation": 2}]}, "anchor": 0, "duration": 15.0, "perspective_c3_y": {"Points": [{"co": {"Y": -1, "X": 1}, "interpolation": 2}]}, "shear_x": {"Points": [{"co": {"Y": 0, "X": 1}, "interpolation": 2}]}, "perspective_c4_x": {"Points": [{"co": {"Y": -1, "X": 1}, "interpolation": 2}]}, "location_y": {"Points": [{"co": {"Y": 0, "X": 1}, "interpolation": 2}]}, "scale_x": {"Points": [{"co": {"Y": 1, "X": 1}, "interpolation": 2}]}, "layer": 1, "perspective_c2_y": {"Points": [{"co": {"Y": -1, "X": 1}, "interpolation": 2}]}, "perspective_c1_x": {"Points": [{"co": {"Y": -1, "X": 1}, "interpolation": 2}]}, "perspective_c4_y": {"Points": [{"co": {"Y": -1, "X": 1}, "interpolation": 2}]}, "reader": {"audio_bit_rate": 0, "has_single_image": false, "vcodec": "h264", "has_video": true, "type": "FFmpegReader", "video_length": "375", "audio_timebase": {"den": 1, "num": 1}, "path": "/home/robsen/Dropbox/Workdir/Repo/SuesseRache-HH-Taxi/arrow.mp4", "width": 1920, "has_audio": false, "video_bit_rate": 83079, "channel_layout": 4, "height": 1080, "display_ratio": {"den": 9, "num": 16}, "interlaced_frame": false, "duration": 15.0, "sample_rate": 0, "pixel_format": 0, "video_timebase": {"den": 12800, "num": 1}, "file_size": "155774", "top_field_first": true, "pixel_ratio": {"den": 1, "num": 1}, "acodec": "", "audio_stream_index": -1, "video_stream_index": 0, "channels": 0, "fps": {"den": 1, "num": 25}}, "channel_filter": {"Points": [{"co": {"Y": -1, "X": 1}, "interpolation": 2}]}, "file_id": "X22V56NF57", "time": {"Points": [{"co": {"Y": 1, "X": 1}, "interpolation": 2}]}}, "value": {"id": "PJWPMFXKV3", "start": 0, "end": 15, "position": 53.075, "layer": 2, "image": "/home/robsen/.openshot_qt/thumbnail/X22V56NF57.png"}, "key": ["clips", {"id": "PJWPMFXKV3"}], "partial": false, "type": "update"}, {"old_values": {"start": 0, "type": "Mask", "contrast": {"Points": [{"co": {"Y": 3, "X": 1}, "interpolation": 2}]}, "layer": 0, "replace_image": false, "title": "Transition", "end": 2.039999999999999, "reader": {"audio_bit_rate": 0, "has_single_image": true, "vcodec": "", "has_video": true, "type": "QtImageReader", "video_length": "2592000", "audio_timebase": {"den": 1, "num": 1}, "path": "/usr/lib/python3/dist-packages/openshot_qt/transitions/common/fade.svg", "width": 720, "has_audio": false, "video_bit_rate": 0, "channel_layout": 4, "height": 576, "display_ratio": {"den": 4, "num": 5}, "interlaced_frame": false, "duration": 86400, "sample_rate": 0, "pixel_format": -1, "video_timebase": {"den": 30, "num": 1}, "file_size": "1658880", "top_field_first": true, "pixel_ratio": {"den": 1, "num": 1}, "acodec": "", "audio_stream_index": -1, "video_stream_index": -1, "channels": 0, "fps": {"den": 1, "num": 30}}, "brightness": {"Points": [{"handle_right": {"Y": 0, "X": 0.5}, "co": {"Y": 1, "X": 1}, "handle_left": {"Y": 1, "X": 0.5}, "handle_type": 0, "interpolation": 0}, {"handle_right": {"Y": 0, "X": 0.5}, "co": {"Y": -1, "X": 50}, "handle_left": {"Y": 1, "X": 0.5}, "handle_type": 0, "interpolation": 0}]}, "id": "5NBS5H99MA", "position": 21.76}, "value": null, "key": ["effects", {"id": "5NBS5H99MA"}], "partial": false, "type": "delete"}, {"old_values": {"alpha": {"Points": [{"co": {"Y": 1, "X": 1}, "interpolation": 2}]}, "rotation": {"Points": [{"co": {"Y": 0, "X": 1}, "interpolation": 2}]}, "scale_y": {"Points": [{"co": {"Y": 1, "X": 1}, "interpolation": 2}]}, "crop_y": {"Points": [{"co": {"Y": 0, "X": 1}, "interpolation": 2}]}, "perspective_c3_x": {"Points": [{"co": {"Y": -1, "X": 1}, "interpolation": 2}]}, "end": 15, "crop_width": {"Points": [{"co": {"Y": -1, "X": 1}, "interpolation": 2}]}, "position": 8.8, "id": "0AEDFYGQ7J", "wave_color": {"green": {"Points": [{"handle_right": {"Y": 0, "X": 0.5}, "co": {"Y": 123, "X": 1}, "handle_left": {"Y": 1, "X": 0.5}, "handle_type": 0, "interpolation": 0}]}, "blue": {"Points": [{"handle_right": {"Y": 0, "X": 0.5}, "co": {"Y": 255, "X": 1}, "handle_left": {"Y": 1, "X": 0.5}, "handle_type": 0, "interpolation": 0}]}, "alpha": {"Points": [{"handle_right": {"Y": 0, "X": 0.5}, "co": {"Y": 255, "X": 1}, "handle_left": {"Y": 1, "X": 0.5}, "handle_type": 0, "interpolation": 0}]}, "red": {"Points": [{"handle_right": {"Y": 0, "X": 0.5}, "co": {"Y": 0, "X": 1}, "handle_left": {"Y": 1, "X": 0.5}, "handle_type": 0, "interpolation": 0}]}}, "has_video": {"Points": [{"co": {"Y": -1, "X": 1}, "interpolation": 2}]}, "has_audio": {"Points": [{"co": {"Y": -1, "X": 1}, "interpolation": 2}]}, "effects": [], "location_x": {"Points": [{"co": {"Y": 0, "X": 1}, "interpolation": 2}]}, "waveform": false, "title": "taxi_start.mp4", "image": "/home/robsen/.openshot_qt/thumbnail/LGW3TZJV4Q.png", "gravity": 4, "perspective_c2_x": {"Points": [{"co": {"Y": -1, "X": 1}, "interpolation": 2}]}, "perspective_c1_y": {"Points": [{"co": {"Y": -1, "X": 1}, "interpolation": 2}]}, "crop_height": {"Points": [{"co": {"Y": -1, "X": 1}, "interpolation": 2}]}, "crop_x": {"Points": [{"co": {"Y": 0, "X": 1}, "interpolation": 2}]}, "start": 0, "scale": 1, "shear_y": {"Points": [{"co": {"Y": 0, "X": 1}, "interpolation": 2}]}, "display": 0, "volume": {"Points": [{"co": {"Y": 1, "X": 1}, "interpolation": 2}]}, "channel_mapping": {"Points": [{"co": {"Y": -1, "X": 1}, "interpolation": 2}]}, "anchor": 0, "duration": 15.0, "perspective_c3_y": {"Points": [{"co": {"Y": -1, "X": 1}, "interpolation": 2}]}, "shear_x": {"Points": [{"co": {"Y": 0, "X": 1}, "interpolation": 2}]}, "perspective_c4_x": {"Points": [{"co": {"Y": -1, "X": 1}, "interpolation": 2}]}, "location_y": {"Points": [{"co": {"Y": 0, "X": 1}, "interpolation": 2}]}, "scale_x": {"Points": [{"co": {"Y": 1, "X": 1}, "interpolation": 2}]}, "layer": 0, "perspective_c2_y": {"Points": [{"co": {"Y": -1, "X": 1}, "interpolation": 2}]}, "perspective_c1_x": {"Points": [{"co": {"Y": -1, "X": 1}, "interpolation": 2}]}, "perspective_c4_y": {"Points": [{"co": {"Y": -1, "X": 1}, "interpolation": 2}]}, "reader": {"audio_bit_rate": 0, "has_single_image": false, "vcodec": "h264", "has_video": true, "type": "FFmpegReader", "video_length": "375", "audio_timebase": {"den": 1, "num": 1}, "path": "/home/robsen/Dropbox/Workdir/Repo/SuesseRache-HH-Taxi/taxi_start.mp4", "width": 1920, "has_audio": false, "video_bit_rate": 147692, "channel_layout": 4, "height": 1080, "display_ratio": {"den": 9, "num": 16}, "interlaced_frame": false, "duration": 15.0, "sample_rate": 0, "pixel_format": 0, "video_timebase": {"den": 12800, "num": 1}, "file_size": "276924", "top_field_first": true, "pixel_ratio": {"den": 1, "num": 1}, "acodec": "", "audio_stream_index": -1, "video_stream_index": 0, "channels": 0, "fps": {"den": 1, "num": 25}}, "channel_filter": {"Points": [{"co": {"Y": -1, "X": 1}, "interpolation": 2}]}, "file_id": "LGW3TZJV4Q", "time": {"Points": [{"co": {"Y": 1, "X": 1}, "interpolation": 2}]}}, "value": {"alpha": {"Points": [{"co": {"Y": 1, "X": 1}, "interpolation": 2}, {"handle_right": {"Y": 0, "X": 0.5}, "co": {"Y": 1, "X": 289}, "handle_left": {"Y": 1, "X": 0.5}, "handle_type": 0, "interpolation": 0}, {"handle_right": {"Y": 0, "X": 0.5}, "co": {"Y": 0, "X": 361}, "handle_left": {"Y": 1, "X": 0.5}, "handle_type": 0, "interpolation": 0}]}, "rotation": {"Points": [{"co": {"Y": 0, "X": 1}, "interpolation": 2}]}, "scale_y": {"Points": [{"co": {"Y": 1, "X": 1}, "interpolation": 2}]}, "crop_y": {"Points": [{"co": {"Y": 0, "X": 1}, "interpolation": 2}]}, "crop_width": {"Points": [{"co": {"Y": -1, "X": 1}, "interpolation": 2}]}, "end": 15, "perspective_c3_x": {"Points": [{"co": {"Y": -1, "X": 1}, "interpolation": 2}]}, "position": 8.8, "id": "0AEDFYGQ7J", "wave_color": {"green": {"Points": [{"handle_right": {"Y": 0, "X": 0.5}, "co": {"Y": 123, "X": 1}, "handle_left": {"Y": 1, "X": 0.5}, "handle_type": 0, "interpolation": 0}]}, "blue": {"Points": [{"handle_right": {"Y": 0, "X": 0.5}, "co": {"Y": 255, "X": 1}, "handle_left": {"Y": 1, "X": 0.5}, "handle_type": 0, "interpolation": 0}]}, "alpha": {"Points": [{"handle_right": {"Y": 0, "X": 0.5}, "co": {"Y": 255, "X": 1}, "handle_left": {"Y": 1, "X": 0.5}, "handle_type": 0, "interpolation": 0}]}, "red": {"Points": [{"handle_right": {"Y": 0, "X": 0.5}, "co": {"Y": 0, "X": 1}, "handle_left": {"Y": 1, "X": 0.5}, "handle_type": 0, "interpolation": 0}]}}, "has_video": {"Points": [{"co": {"Y": -1, "X": 1}, "interpolation": 2}]}, "has_audio": {"Points": [{"co": {"Y": -1, "X": 1}, "interpolation": 2}]}, "effects": [], "location_x": {"Points": [{"co": {"Y": 0, "X": 1}, "interpolation": 2}]}, "waveform": false, "title": "taxi_start.mp4", "image": "/home/robsen/.openshot_qt/thumbnail/LGW3TZJV4Q.png", "gravity": 4, "scale_x": {"Points": [{"co": {"Y": 1, "X": 1}, "interpolation": 2}]}, "perspective_c1_y": {"Points": [{"co": {"Y": -1, "X": 1}, "interpolation": 2}]}, "crop_height": {"Points": [{"co": {"Y": -1, "X": 1}, "interpolation": 2}]}, "crop_x": {"Points": [{"co": {"Y": 0, "X": 1}, "interpolation": 2}]}, "start": 0, "scale": 1, "shear_y": {"Points": [{"co": {"Y": 0, "X": 1}, "interpolation": 2}]}, "display": 0, "volume": {"Points": [{"co": {"Y": 1, "X": 1}, "interpolation": 2}]}, "channel_mapping": {"Points": [{"co": {"Y": -1, "X": 1}, "interpolation": 2}]}, "anchor": 0, "duration": 15.0, "perspective_c3_y": {"Points": [{"co": {"Y": -1, "X": 1}, "interpolation": 2}]}, "shear_x": {"Points": [{"co": {"Y": 0, "X": 1}, "interpolation": 2}]}, "perspective_c4_x": {"Points": [{"co": {"Y": -1, "X": 1}, "interpolation": 2}]}, "location_y": {"Points": [{"co": {"Y": 0, "X": 1}, "interpolation": 2}]}, "perspective_c2_x": {"Points": [{"co": {"Y": -1, "X": 1}, "interpolation": 2}]}, "layer": 0, "perspective_c2_y": {"Points": [{"co": {"Y": -1, "X": 1}, "interpolation": 2}]}, "perspective_c1_x": {"Points": [{"co": {"Y": -1, "X": 1}, "interpolation": 2}]}, "perspective_c4_y": {"Points": [{"co": {"Y": -1, "X": 1}, "interpolation": 2}]}, "channel_filter": {"Points": [{"co": {"Y": -1, "X": 1}, "interpolation": 2}]}, "time": {"Points": [{"co": {"Y": 1, "X": 1}, "interpolation": 2}]}, "file_id": "LGW3TZJV4Q"}, "key": ["clips", {"id": "0AEDFYGQ7J"}], "partial": false, "type": "update"}, {"old_values": {"alpha": {"Points": [{"co": {"Y": 1, "X": 1}, "interpolation": 2}, {"handle_right": {"Y": 0, "X": 0.5}, "co": {"Y": 1, "X": 289}, "handle_left": {"Y": 1, "X": 0.5}, "handle_type": 0, "interpolation": 0}, {"handle_right": {"Y": 0, "X": 0.5}, "co": {"Y": 0, "X": 361}, "handle_left": {"Y": 1, "X": 0.5}, "handle_type": 0, "interpolation": 0}]}, "rotation": {"Points": [{"co": {"Y": 0, "X": 1}, "interpolation": 2}]}, "scale_y": {"Points": [{"co": {"Y": 1, "X": 1}, "interpolation": 2}]}, "crop_y": {"Points": [{"co": {"Y": 0, "X": 1}, "interpolation": 2}]}, "perspective_c3_x": {"Points": [{"co": {"Y": -1, "X": 1}, "interpolation": 2}]}, "end": 15, "crop_width": {"Points": [{"co": {"Y": -1, "X": 1}, "interpolation": 2}]}, "position": 8.8, "id": "0AEDFYGQ7J", "wave_color": {"green": {"Points": [{"handle_right": {"Y": 0, "X": 0.5}, "co": {"Y": 123, "X": 1}, "handle_left": {"Y": 1, "X": 0.5}, "handle_type": 0, "interpolation": 0}]}, "blue": {"Points": [{"handle_right": {"Y": 0, "X": 0.5}, "co": {"Y": 255, "X": 1}, "handle_left": {"Y": 1, "X": 0.5}, "handle_type": 0, "interpolation": 0}]}, "alpha": {"Points": [{"handle_right": {"Y": 0, "X": 0.5}, "co": {"Y": 255, "X": 1}, "handle_left": {"Y": 1, "X": 0.5}, "handle_type": 0, "interpolation": 0}]}, "red": {"Points": [{"handle_right": {"Y": 0, "X": 0.5}, "co": {"Y": 0, "X": 1}, "handle_left": {"Y": 1, "X": 0.5}, "handle_type": 0, "interpolation": 0}]}}, "has_video": {"Points": [{"co": {"Y": -1, "X": 1}, "interpolation": 2}]}, "has_audio": {"Points": [{"co": {"Y": -1, "X": 1}, "interpolation": 2}]}, "effects": [], "location_x": {"Points": [{"co": {"Y": 0, "X": 1}, "interpolation": 2}]}, "waveform": false, "title": "taxi_start.mp4", "image": "/home/robsen/.openshot_qt/thumbnail/LGW3TZJV4Q.png", "gravity": 4, "perspective_c2_x": {"Points": [{"co": {"Y": -1, "X": 1}, "interpolation": 2}]}, "perspective_c1_y": {"Points": [{"co": {"Y": -1, "X": 1}, "interpolation": 2}]}, "crop_height": {"Points": [{"co": {"Y": -1, "X": 1}, "interpolation": 2}]}, "crop_x": {"Points": [{"co": {"Y": 0, "X": 1}, "interpolation": 2}]}, "start": 0, "scale": 1, "shear_y": {"Points": [{"co": {"Y": 0, "X": 1}, "interpolation": 2}]}, "display": 0, "volume": {"Points": [{"co": {"Y": 1, "X": 1}, "interpolation": 2}]}, "channel_mapping": {"Points": [{"co": {"Y": -1, "X": 1}, "interpolation": 2}]}, "anchor": 0, "duration": 15.0, "perspective_c3_y": {"Points": [{"co": {"Y": -1, "X": 1}, "interpolation": 2}]}, "shear_x": {"Points": [{"co": {"Y": 0, "X": 1}, "interpolation": 2}]}, "perspective_c4_x": {"Points": [{"co": {"Y": -1, "X": 1}, "interpolation": 2}]}, "location_y": {"Points": [{"co": {"Y": 0, "X": 1}, "interpolation": 2}]}, "scale_x": {"Points": [{"co": {"Y": 1, "X": 1}, "interpolation": 2}]}, "layer": 0, "perspective_c2_y": {"Points": [{"co": {"Y": -1, "X": 1}, "interpolation": 2}]}, "perspective_c1_x": {"Points": [{"co": {"Y": -1, "X": 1}, "interpolation": 2}]}, "perspective_c4_y": {"Points": [{"co": {"Y": -1, "X": 1}, "interpolation": 2}]}, "reader": {"audio_bit_rate": 0, "has_single_image": false, "vcodec": "h264", "has_video": true, "type": "FFmpegReader", "video_length": "375", "audio_timebase": {"den": 1, "num": 1}, "path": "/home/robsen/Dropbox/Workdir/Repo/SuesseRache-HH-Taxi/taxi_start.mp4", "width": 1920, "has_audio": false, "video_bit_rate": 147692, "channel_layout": 4, "height": 1080, "display_ratio": {"den": 9, "num": 16}, "interlaced_frame": false, "duration": 15.0, "sample_rate": 0, "pixel_format": 0, "video_timebase": {"den": 12800, "num": 1}, "file_size": "276924", "top_field_first": true, "pixel_ratio": {"den": 1, "num": 1}, "acodec": "", "audio_stream_index": -1, "video_stream_index": 0, "channels": 0, "fps": {"den": 1, "num": 25}}, "channel_filter": {"Points": [{"co": {"Y": -1, "X": 1}, "interpolation": 2}]}, "file_id": "LGW3TZJV4Q", "time": {"Points": [{"co": {"Y": 1, "X": 1}, "interpolation": 2}]}}, "value": {"alpha": {"Points": [{"co": {"Y": 1, "X": 1}, "interpolation": 2}, {"handle_right": {"Y": 0, "X": 0.5}, "co": {"Y": 1, "X": 289}, "handle_left": {"Y": 1, "X": 0.5}, "handle_type": 0, "interpolation": 0}, {"handle_right": {"Y": 0, "X": 0.5}, "co": {"Y": 0, "X": 361}, "handle_left": {"Y": 1, "X": 0.5}, "handle_type": 0, "interpolation": 0}, {"handle_right": {"Y": 0, "X": 0.5}, "co": {"Y": 0, "X": 1}, "handle_left": {"Y": 1, "X": 0.5}, "handle_type": 0, "interpolation": 0}, {"handle_right": {"Y": 0, "X": 0.5}, "co": {"Y": 1, "X": 73}, "handle_left": {"Y": 1, "X": 0.5}, "handle_type": 0, "interpolation": 0}]}, "rotation": {"Points": [{"co": {"Y": 0, "X": 1}, "interpolation": 2}]}, "scale_y": {"Points": [{"co": {"Y": 1, "X": 1}, "interpolation": 2}]}, "crop_y": {"Points": [{"co": {"Y": 0, "X": 1}, "interpolation": 2}]}, "crop_width": {"Points": [{"co": {"Y": -1, "X": 1}, "interpolation": 2}]}, "end": 15, "perspective_c3_x": {"Points": [{"co": {"Y": -1, "X": 1}, "interpolation": 2}]}, "position": 8.8, "id": "0AEDFYGQ7J", "wave_color": {"green": {"Points": [{"handle_right": {"Y": 0, "X": 0.5}, "co": {"Y": 123, "X": 1}, "handle_left": {"Y": 1, "X": 0.5}, "handle_type": 0, "interpolation": 0}]}, "blue": {"Points": [{"handle_right": {"Y": 0, "X": 0.5}, "co": {"Y": 255, "X": 1}, "handle_left": {"Y": 1, "X": 0.5}, "handle_type": 0, "interpolation": 0}]}, "alpha": {"Points": [{"handle_right": {"Y": 0, "X": 0.5}, "co": {"Y": 255, "X": 1}, "handle_left": {"Y": 1, "X": 0.5}, "handle_type": 0, "interpolation": 0}]}, "red": {"Points": [{"handle_right": {"Y": 0, "X": 0.5}, "co": {"Y": 0, "X": 1}, "handle_left": {"Y": 1, "X": 0.5}, "handle_type": 0, "interpolation": 0}]}}, "has_video": {"Points": [{"co": {"Y": -1, "X": 1}, "interpolation": 2}]}, "has_audio": {"Points": [{"co": {"Y": -1, "X": 1}, "interpolation": 2}]}, "effects": [], "location_x": {"Points": [{"co": {"Y": 0, "X": 1}, "interpolation": 2}]}, "waveform": false, "title": "taxi_start.mp4", "image": "/home/robsen/.openshot_qt/thumbnail/LGW3TZJV4Q.png", "gravity": 4, "scale_x": {"Points": [{"co": {"Y": 1, "X": 1}, "interpolation": 2}]}, "perspective_c1_y": {"Points": [{"co": {"Y": -1, "X": 1}, "interpolation": 2}]}, "crop_height": {"Points": [{"co": {"Y": -1, "X": 1}, "interpolation": 2}]}, "crop_x": {"Points": [{"co": {"Y": 0, "X": 1}, "interpolation": 2}]}, "start": 0, "scale": 1, "shear_y": {"Points": [{"co": {"Y": 0, "X": 1}, "interpolation": 2}]}, "display": 0, "volume": {"Points": [{"co": {"Y": 1, "X": 1}, "interpolation": 2}]}, "channel_mapping": {"Points": [{"co": {"Y": -1, "X": 1}, "interpolation": 2}]}, "anchor": 0, "duration": 15.0, "perspective_c3_y": {"Points": [{"co": {"Y": -1, "X": 1}, "interpolation": 2}]}, "shear_x": {"Points": [{"co": {"Y": 0, "X": 1}, "interpolation": 2}]}, "perspective_c4_x": {"Points": [{"co": {"Y": -1, "X": 1}, "interpolation": 2}]}, "location_y": {"Points": [{"co": {"Y": 0, "X": 1}, "interpolation": 2}]}, "perspective_c2_x": {"Points": [{"co": {"Y": -1, "X": 1}, "interpolation": 2}]}, "layer": 0, "perspective_c2_y": {"Points": [{"co": {"Y": -1, "X": 1}, "interpolation": 2}]}, "perspective_c1_x": {"Points": [{"co": {"Y": -1, "X": 1}, "interpolation": 2}]}, "perspective_c4_y": {"Points": [{"co": {"Y": -1, "X": 1}, "interpolation": 2}]}, "channel_filter": {"Points": [{"co": {"Y": -1, "X": 1}, "interpolation": 2}]}, "time": {"Points": [{"co": {"Y": 1, "X": 1}, "interpolation": 2}]}, "file_id": "LGW3TZJV4Q"}, "key": ["clips", {"id": "0AEDFYGQ7J"}], "partial": false, "type": "update"}, {"old_values": {"alpha": {"Points": [{"co": {"Y": 1, "X": 1}, "interpolation": 2}]}, "rotation": {"Points": [{"co": {"Y": 0, "X": 1}, "interpolation": 2}]}, "scale_y": {"Points": [{"co": {"Y": 1, "X": 1}, "interpolation": 2}]}, "crop_y": {"Points": [{"co": {"Y": 0, "X": 1}, "interpolation": 2}]}, "perspective_c3_x": {"Points": [{"co": {"Y": -1, "X": 1}, "interpolation": 2}]}, "end": 15, "crop_width": {"Points": [{"co": {"Y": -1, "X": 1}, "interpolation": 2}]}, "position": 53.075, "id": "PJWPMFXKV3", "wave_color": {"green": {"Points": [{"handle_right": {"Y": 0, "X": 0.5}, "co": {"Y": 123, "X": 1}, "handle_left": {"Y": 1, "X": 0.5}, "handle_type": 0, "interpolation": 0}]}, "blue": {"Points": [{"handle_right": {"Y": 0, "X": 0.5}, "co": {"Y": 255, "X": 1}, "handle_left": {"Y": 1, "X": 0.5}, "handle_type": 0, "interpolation": 0}]}, "alpha": {"Points": [{"handle_right": {"Y": 0, "X": 0.5}, "co": {"Y": 255, "X": 1}, "handle_left": {"Y": 1, "X": 0.5}, "handle_type": 0, "interpolation": 0}]}, "red": {"Points": [{"handle_right": {"Y": 0, "X": 0.5}, "co": {"Y": 0, "X": 1}, "handle_left": {"Y": 1, "X": 0.5}, "handle_type": 0, "interpolation": 0}]}}, "has_video": {"Points": [{"co": {"Y": -1, "X": 1}, "interpolation": 2}]}, "has_audio": {"Points": [{"co": {"Y": -1, "X": 1}, "interpolation": 2}]}, "effects": [], "location_x": {"Points": [{"co": {"Y": 0, "X": 1}, "interpolation": 2}]}, "waveform": false, "title": "arrow.mp4", "image": "/home/robsen/.openshot_qt/thumbnail/X22V56NF57.png", "gravity": 4, "perspective_c2_x": {"Points": [{"co": {"Y": -1, "X": 1}, "interpolation": 2}]}, "perspective_c1_y": {"Points": [{"co": {"Y": -1, "X": 1}, "interpolation": 2}]}, "crop_height": {"Points": [{"co": {"Y": -1, "X": 1}, "interpolation": 2}]}, "crop_x": {"Points": [{"co": {"Y": 0, "X": 1}, "interpolation": 2}]}, "start": 0, "scale": 1, "shear_y": {"Points": [{"co": {"Y": 0, "X": 1}, "interpolation": 2}]}, "display": 0, "volume": {"Points": [{"co": {"Y": 1, "X": 1}, "interpolation": 2}]}, "channel_mapping": {"Points": [{"co": {"Y": -1, "X": 1}, "interpolation": 2}]}, "anchor": 0, "duration": 15.0, "perspective_c3_y": {"Points": [{"co": {"Y": -1, "X": 1}, "interpolation": 2}]}, "shear_x": {"Points": [{"co": {"Y": 0, "X": 1}, "interpolation": 2}]}, "perspective_c4_x": {"Points": [{"co": {"Y": -1, "X": 1}, "interpolation": 2}]}, "location_y": {"Points": [{"co": {"Y": 0, "X": 1}, "interpolation": 2}]}, "scale_x": {"Points": [{"co": {"Y": 1, "X": 1}, "interpolation": 2}]}, "layer": 2, "perspective_c2_y": {"Points": [{"co": {"Y": -1, "X": 1}, "interpolation": 2}]}, "perspective_c1_x": {"Points": [{"co": {"Y": -1, "X": 1}, "interpolation": 2}]}, "perspective_c4_y": {"Points": [{"co": {"Y": -1, "X": 1}, "interpolation": 2}]}, "reader": {"audio_bit_rate": 0, "has_single_image": false, "vcodec": "h264", "has_video": true, "type": "FFmpegReader", "video_length": "375", "audio_timebase": {"den": 1, "num": 1}, "path": "/home/robsen/Dropbox/Workdir/Repo/SuesseRache-HH-Taxi/arrow.mp4", "width": 1920, "has_audio": false, "video_bit_rate": 83079, "channel_layout": 4, "height": 1080, "display_ratio": {"den": 9, "num": 16}, "interlaced_frame": false, "duration": 15.0, "sample_rate": 0, "pixel_format": 0, "video_timebase": {"den": 12800, "num": 1}, "file_size": "155774", "top_field_first": true, "pixel_ratio": {"den": 1, "num": 1}, "acodec": "", "audio_stream_index": -1, "video_stream_index": 0, "channels": 0, "fps": {"den": 1, "num": 25}}, "channel_filter": {"Points": [{"co": {"Y": -1, "X": 1}, "interpolation": 2}]}, "file_id": "X22V56NF57", "time": {"Points": [{"co": {"Y": 1, "X": 1}, "interpolation": 2}]}}, "value": {"alpha": {"Points": [{"co": {"Y": 1, "X": 1}, "interpolation": 2}, {"handle_right": {"Y": 0, "X": 0.5}, "co": {"Y": 0, "X": 1}, "handle_left": {"Y": 1, "X": 0.5}, "handle_type": 0, "interpolation": 0}, {"handle_right": {"Y": 0, "X": 0.5}, "co": {"Y": 1, "X": 73}, "handle_left": {"Y": 1, "X": 0.5}, "handle_type": 0, "interpolation": 0}]}, "rotation": {"Points": [{"co": {"Y": 0, "X": 1}, "interpolation": 2}]}, "scale_y": {"Points": [{"co": {"Y": 1, "X": 1}, "interpolation": 2}]}, "crop_y": {"Points": [{"co": {"Y": 0, "X": 1}, "interpolation": 2}]}, "crop_width": {"Points": [{"co": {"Y": -1, "X": 1}, "interpolation": 2}]}, "end": 15, "perspective_c3_x": {"Points": [{"co": {"Y": -1, "X": 1}, "interpolation": 2}]}, "position": 53.075, "id": "PJWPMFXKV3", "wave_color": {"green": {"Points": [{"handle_right": {"Y": 0, "X": 0.5}, "co": {"Y": 123, "X": 1}, "handle_left": {"Y": 1, "X": 0.5}, "handle_type": 0, "interpolation": 0}]}, "blue": {"Points": [{"handle_right": {"Y": 0, "X": 0.5}, "co": {"Y": 255, "X": 1}, "handle_left": {"Y": 1, "X": 0.5}, "handle_type": 0, "interpolation": 0}]}, "alpha": {"Points": [{"handle_right": {"Y": 0, "X": 0.5}, "co": {"Y": 255, "X": 1}, "handle_left": {"Y": 1, "X": 0.5}, "handle_type": 0, "interpolation": 0}]}, "red": {"Points": [{"handle_right": {"Y": 0, "X": 0.5}, "co": {"Y": 0, "X": 1}, "handle_left": {"Y": 1, "X": 0.5}, "handle_type": 0, "interpolation": 0}]}}, "has_video": {"Points": [{"co": {"Y": -1, "X": 1}, "interpolation": 2}]}, "has_audio": {"Points": [{"co": {"Y": -1, "X": 1}, "interpolation": 2}]}, "effects": [], "location_x": {"Points": [{"co": {"Y": 0, "X": 1}, "interpolation": 2}]}, "waveform": false, "title": "arrow.mp4", "image": "/home/robsen/.openshot_qt/thumbnail/X22V56NF57.png", "gravity": 4, "scale_x": {"Points": [{"co": {"Y": 1, "X": 1}, "interpolation": 2}]}, "perspective_c1_y": {"Points": [{"co": {"Y": -1, "X": 1}, "interpolation": 2}]}, "crop_height": {"Points": [{"co": {"Y": -1, "X": 1}, "interpolation": 2}]}, "crop_x": {"Points": [{"co": {"Y": 0, "X": 1}, "interpolation": 2}]}, "start": 0, "scale": 1, "shear_y": {"Points": [{"co": {"Y": 0, "X": 1}, "interpolation": 2}]}, "display": 0, "volume": {"Points": [{"co": {"Y": 1, "X": 1}, "interpolation": 2}]}, "channel_mapping": {"Points": [{"co": {"Y": -1, "X": 1}, "interpolation": 2}]}, "anchor": 0, "duration": 15.0, "perspective_c3_y": {"Points": [{"co": {"Y": -1, "X": 1}, "interpolation": 2}]}, "shear_x": {"Points": [{"co": {"Y": 0, "X": 1}, "interpolation": 2}]}, "perspective_c4_x": {"Points": [{"co": {"Y": -1, "X": 1}, "interpolation": 2}]}, "location_y": {"Points": [{"co": {"Y": 0, "X": 1}, "interpolation": 2}]}, "perspective_c2_x": {"Points": [{"co": {"Y": -1, "X": 1}, "interpolation": 2}]}, "layer": 2, "perspective_c2_y": {"Points": [{"co": {"Y": -1, "X": 1}, "interpolation": 2}]}, "perspective_c1_x": {"Points": [{"co": {"Y": -1, "X": 1}, "interpolation": 2}]}, "perspective_c4_y": {"Points": [{"co": {"Y": -1, "X": 1}, "interpolation": 2}]}, "channel_filter": {"Points": [{"co": {"Y": -1, "X": 1}, "interpolation": 2}]}, "time": {"Points": [{"co": {"Y": 1, "X": 1}, "interpolation": 2}]}, "file_id": "X22V56NF57"}, "key": ["clips", {"id": "PJWPMFXKV3"}], "partial": false, "type": "update"}]}, "key": ["history"], "partial": false, "type": "update"}, {"old_values": {"alpha": {"Points": [{"co": {"Y": 1, "X": 1}, "interpolation": 2}, {"handle_right": {"Y": 0, "X": 0.5}, "co": {"Y": 1, "X": 289}, "handle_left": {"Y": 1, "X": 0.5}, "handle_type": 0, "interpolation": 0}, {"handle_right": {"Y": 0, "X": 0.5}, "co": {"Y": 0, "X": 361}, "handle_left": {"Y": 1, "X": 0.5}, "handle_type": 0, "interpolation": 0}, {"handle_right": {"Y": 0, "X": 0.5}, "co": {"Y": 0, "X": 1}, "handle_left": {"Y": 1, "X": 0.5}, "handle_type": 0, "interpolation": 0}, {"handle_right": {"Y": 0, "X": 0.5}, "co": {"Y": 1, "X": 73}, "handle_left": {"Y": 1, "X": 0.5}, "handle_type": 0, "interpolation": 0}]}, "rotation": {"Points": [{"co": {"Y": 0, "X": 1}, "interpolation": 2}]}, "scale_y": {"Points": [{"co": {"Y": 1, "X": 1}, "interpolation": 2}]}, "crop_y": {"Points": [{"co": {"Y": 0, "X": 1}, "interpolation": 2}]}, "perspective_c3_x": {"Points": [{"co": {"Y": -1, "X": 1}, "interpolation": 2}]}, "end": 15, "crop_width": {"Points": [{"co": {"Y": -1, "X": 1}, "interpolation": 2}]}, "position": 8.8, "id": "0AEDFYGQ7J", "wave_color": {"green": {"Points": [{"handle_right": {"Y": 0, "X": 0.5}, "co": {"Y": 123, "X": 1}, "handle_left": {"Y": 1, "X": 0.5}, "handle_type": 0, "interpolation": 0}]}, "blue": {"Points": [{"handle_right": {"Y": 0, "X": 0.5}, "co": {"Y": 255, "X": 1}, "handle_left": {"Y": 1, "X": 0.5}, "handle_type": 0, "interpolation": 0}]}, "alpha": {"Points": [{"handle_right": {"Y": 0, "X": 0.5}, "co": {"Y": 255, "X": 1}, "handle_left": {"Y": 1, "X": 0.5}, "handle_type": 0, "interpolation": 0}]}, "red": {"Points": [{"handle_right": {"Y": 0, "X": 0.5}, "co": {"Y": 0, "X": 1}, "handle_left": {"Y": 1, "X": 0.5}, "handle_type": 0, "interpolation": 0}]}}, "has_video": {"Points": [{"co": {"Y": -1, "X": 1}, "interpolation": 2}]}, "has_audio": {"Points": [{"co": {"Y": -1, "X": 1}, "interpolation": 2}]}, "effects": [], "location_x": {"Points": [{"co": {"Y": 0, "X": 1}, "interpolation": 2}]}, "waveform": false, "title": "taxi_start.mp4", "image": "/home/robsen/.openshot_qt/thumbnail/LGW3TZJV4Q.png", "gravity": 4, "scale_x": {"Points": [{"co": {"Y": 1, "X": 1}, "interpolation": 2}]}, "perspective_c1_y": {"Points": [{"co": {"Y": -1, "X": 1}, "interpolation": 2}]}, "crop_height": {"Points": [{"co": {"Y": -1, "X": 1}, "interpolation": 2}]}, "crop_x": {"Points": [{"co": {"Y": 0, "X": 1}, "interpolation": 2}]}, "start": 0, "scale": 1, "shear_y": {"Points": [{"co": {"Y": 0, "X": 1}, "interpolation": 2}]}, "display": 0, "volume": {"Points": [{"co": {"Y": 1, "X": 1}, "interpolation": 2}]}, "channel_mapping": {"Points": [{"co": {"Y": -1, "X": 1}, "interpolation": 2}]}, "anchor": 0, "duration": 15.0, "perspective_c3_y": {"Points": [{"co": {"Y": -1, "X": 1}, "interpolation": 2}]}, "shear_x": {"Points": [{"co": {"Y": 0, "X": 1}, "interpolation": 2}]}, "perspective_c4_x": {"Points": [{"co": {"Y": -1, "X": 1}, "interpolation": 2}]}, "location_y": {"Points": [{"co": {"Y": 0, "X": 1}, "interpolation": 2}]}, "perspective_c2_x": {"Points": [{"co": {"Y": -1, "X": 1}, "interpolation": 2}]}, "layer": 0, "perspective_c2_y": {"Points": [{"co": {"Y": -1, "X": 1}, "interpolation": 2}]}, "perspective_c1_x": {"Points": [{"co": {"Y": -1, "X": 1}, "interpolation": 2}]}, "perspective_c4_y": {"Points": [{"co": {"Y": -1, "X": 1}, "interpolation": 2}]}, "reader": {"audio_bit_rate": 0, "has_single_image": false, "has_video": true, "type": "FFmpegReader", "video_length": "375", "audio_timebase": {"den": 1, "num": 1}, "path": "/home/robsen/Dropbox/Workdir/Repo/SuesseRache-HH-Taxi/taxi_start.mp4", "width": 1920, "has_audio": false, "video_bit_rate": 147692, "channel_layout": 4, "height": 1080, "display_ratio": {"den": 9, "num": 16}, "interlaced_frame": false, "video_timebase": {"den": 12800, "num": 1}, "duration": 15.0, "sample_rate": 0, "pixel_format": 0, "fps": {"den": 1, "num": 25}, "file_size": "276924", "top_field_first": true, "pixel_ratio": {"den": 1, "num": 1}, "acodec": "", "audio_stream_index": -1, "video_stream_index": 0, "channels": 0, "vcodec": "h264"}, "channel_filter": {"Points": [{"co": {"Y": -1, "X": 1}, "interpolation": 2}]}, "file_id": "LGW3TZJV4Q", "time": {"Points": [{"co": {"Y": 1, "X": 1}, "interpolation": 2}]}}, "value": {"position": 0.0}, "key": ["clips", {"id": "0AEDFYGQ7J"}], "partial": false, "type": "update"}, {"old_values": {"alpha": {"Points": [{"co": {"Y": 1, "X": 1}, "interpolation": 2}]}, "rotation": {"Points": [{"co": {"Y": 0, "X": 1}, "interpolation": 2}]}, "scale_y": {"Points": [{"co": {"Y": 1, "X": 1}, "interpolation": 2}]}, "crop_y": {"Points": [{"co": {"Y": 0, "X": 1}, "interpolation": 2}]}, "perspective_c3_x": {"Points": [{"co": {"Y": -1, "X": 1}, "interpolation": 2}]}, "end": 31.317333221435547, "crop_width": {"Points": [{"co": {"Y": -1, "X": 1}, "interpolation": 2}]}, "position": 21.76, "id": "627XQDJ3EP", "wave_color": {"green": {"Points": [{"handle_right": {"Y": 0, "X": 0.5}, "co": {"Y": 123, "X": 1}, "handle_left": {"Y": 1, "X": 0.5}, "handle_type": 0, "interpolation": 0}]}, "blue": {"Points": [{"handle_right": {"Y": 0, "X": 0.5}, "co": {"Y": 255, "X": 1}, "handle_left": {"Y": 1, "X": 0.5}, "handle_type": 0, "interpolation": 0}]}, "alpha": {"Points": [{"handle_right": {"Y": 0, "X": 0.5}, "co": {"Y": 255, "X": 1}, "handle_left": {"Y": 1, "X": 0.5}, "handle_type": 0, "interpolation": 0}]}, "red": {"Points": [{"handle_right": {"Y": 0, "X": 0.5}, "co": {"Y": 0, "X": 1}, "handle_left": {"Y": 1, "X": 0.5}, "handle_type": 0, "interpolation": 0}]}}, "has_video": {"Points": [{"co": {"Y": -1, "X": 1}, "interpolation": 2}]}, "has_audio": {"Points": [{"co": {"Y": -1, "X": 1}, "interpolation": 2}]}, "effects": [], "location_x": {"Points": [{"co": {"Y": 0, "X": 1}, "interpolation": 2}]}, "waveform": false, "title": "TE_SR_Taxi.mp4", "image": "/home/robsen/.openshot_qt/thumbnail/Z3LOYBY1PL.png", "gravity": 4, "scale_x": {"Points": [{"co": {"Y": 1, "X": 1}, "interpolation": 2}]}, "perspective_c1_y": {"Points": [{"co": {"Y": -1, "X": 1}, "interpolation": 2}]}, "crop_height": {"Points": [{"co": {"Y": -1, "X": 1}, "interpolation": 2}]}, "crop_x": {"Points": [{"co": {"Y": 0, "X": 1}, "interpolation": 2}]}, "start": 0, "scale": 1, "shear_y": {"Points": [{"co": {"Y": 0, "X": 1}, "interpolation": 2}]}, "display": 0, "volume": {"Points": [{"co": {"Y": 1, "X": 1}, "interpolation": 2}]}, "channel_mapping": {"Points": [{"co": {"Y": -1, "X": 1}, "interpolation": 2}]}, "anchor": 0, "duration": 31.317333221435547, "perspective_c3_y": {"Points": [{"co": {"Y": -1, "X": 1}, "interpolation": 2}]}, "shear_x": {"Points": [{"co": {"Y": 0, "X": 1}, "interpolation": 2}]}, "perspective_c4_x": {"Points": [{"co": {"Y": -1, "X": 1}, "interpolation": 2}]}, "location_y": {"Points": [{"co": {"Y": 0, "X": 1}, "interpolation": 2}]}, "perspective_c2_x": {"Points": [{"co": {"Y": -1, "X": 1}, "interpolation": 2}]}, "layer": 1, "perspective_c2_y": {"Points": [{"co": {"Y": -1, "X": 1}, "interpolation": 2}]}, "perspective_c1_x": {"Points": [{"co": {"Y": -1, "X": 1}, "interpolation": 2}]}, "perspective_c4_y": {"Points": [{"co": {"Y": -1, "X": 1}, "interpolation": 2}]}, "reader": {"audio_bit_rate": 189375, "has_single_image": false, "has_video": true, "type": "FFmpegReader", "video_length": "937", "audio_timebase": {"den": 48000, "num": 1}, "path": "/home/robsen/Dropbox/Workdir/Repo/SuesseRache-HH-Taxi/TE_SR_Taxi.mp4", "width": 1920, "has_audio": true, "video_bit_rate": 32091692, "channel_layout": 3, "height": 1080, "display_ratio": {"den": 9, "num": 16}, "interlaced_frame": false, "video_timebase": {"den": 29970, "num": 1}, "duration": 31.317333221435547, "sample_rate": 48000, "pixel_format": 0, "fps": {"den": 100, "num": 2997}, "file_size": "125628279", "top_field_first": true, "pixel_ratio": {"den": 1, "num": 1}, "acodec": "aac", "audio_stream_index": 1, "video_stream_index": 0, "channels": 2, "vcodec": "h264"}, "channel_filter": {"Points": [{"co": {"Y": -1, "X": 1}, "interpolation": 2}]}, "file_id": "Z3LOYBY1PL", "time": {"Points": [{"co": {"Y": 1, "X": 1}, "interpolation": 2}]}}, "value": {"id": "627XQDJ3EP", "start": 0, "end": 31.317333221435547, "position": 12.96, "layer": 1, "image": "/home/robsen/.openshot_qt/thumbnail/Z3LOYBY1PL.png"}, "key": ["clips", {"id": "627XQDJ3EP"}], "partial": false, "type": "update"}, {"old_values": null, "value": {"id": "PJWPMFXKV3", "start": 0, "end": 15, "position": 41.395, "layer": 2, "image": "/home/robsen/.openshot_qt/thumbnail/X22V56NF57.png"}, "key": ["clips", {"id": "PJWPMFXKV3"}], "partial": false, "type": "update"}, {"old_values": null, "value": {"id": "PJWPMFXKV3", "start": 0, "end": 15, "position": 41.395, "layer": 2, "image": "/home/robsen/.openshot_qt/thumbnail/X22V56NF57.png"}, "key": ["clips", {"id": "PJWPMFXKV3"}], "partial": false, "type": "update"}, {"old_values": null, "value": {"id": "PJWPMFXKV3", "start": 0, "end": 15, "position": 41.395, "layer": 2, "image": "/home/robsen/.openshot_qt/thumbnail/X22V56NF57.png"}, "key": ["clips", {"id": "PJWPMFXKV3"}], "partial": false, "type": "update"}, {"old_values": null, "value": {"id": "PJWPMFXKV3", "start": 0, "end": 15, "position": 41.395, "layer": 2, "image": "/home/robsen/.openshot_qt/thumbnail/X22V56NF57.png"}, "key": ["clips", {"id": "PJWPMFXKV3"}], "partial": false, "type": "update"}, {"old_values": {"alpha": {"Points": [{"co": {"Y": 1, "X": 1}, "interpolation": 2}, {"handle_right": {"Y": 0, "X": 0.5}, "co": {"Y": 1, "X": 289}, "handle_left": {"Y": 1, "X": 0.5}, "handle_type": 0, "interpolation": 0}, {"handle_right": {"Y": 0, "X": 0.5}, "co": {"Y": 0, "X": 361}, "handle_left": {"Y": 1, "X": 0.5}, "handle_type": 0, "interpolation": 0}, {"handle_right": {"Y": 0, "X": 0.5}, "co": {"Y": 0, "X": 1}, "handle_left": {"Y": 1, "X": 0.5}, "handle_type": 0, "interpolation": 0}, {"handle_right": {"Y": 0, "X": 0.5}, "co": {"Y": 1, "X": 73}, "handle_left": {"Y": 1, "X": 0.5}, "handle_type": 0, "interpolation": 0}]}, "rotation": {"Points": [{"co": {"Y": 0, "X": 1}, "interpolation": 2}]}, "scale_y": {"Points": [{"co": {"Y": 1, "X": 1}, "interpolation": 2}]}, "crop_y": {"Points": [{"co": {"Y": 0, "X": 1}, "interpolation": 2}]}, "perspective_c3_x": {"Points": [{"co": {"Y": -1, "X": 1}, "interpolation": 2}]}, "end": 15, "crop_width": {"Points": [{"co": {"Y": -1, "X": 1}, "interpolation": 2}]}, "position": 0.0, "id": "0AEDFYGQ7J", "wave_color": {"green": {"Points": [{"handle_right": {"Y": 0, "X": 0.5}, "co": {"Y": 123, "X": 1}, "handle_left": {"Y": 1, "X": 0.5}, "handle_type": 0, "interpolation": 0}]}, "blue": {"Points": [{"handle_right": {"Y": 0, "X": 0.5}, "co": {"Y": 255, "X": 1}, "handle_left": {"Y": 1, "X": 0.5}, "handle_type": 0, "interpolation": 0}]}, "alpha": {"Points": [{"handle_right": {"Y": 0, "X": 0.5}, "co": {"Y": 255, "X": 1}, "handle_left": {"Y": 1, "X": 0.5}, "handle_type": 0, "interpolation": 0}]}, "red": {"Points": [{"handle_right": {"Y": 0, "X": 0.5}, "co": {"Y": 0, "X": 1}, "handle_left": {"Y": 1, "X": 0.5}, "handle_type": 0, "interpolation": 0}]}}, "has_video": {"Points": [{"co": {"Y": -1, "X": 1}, "interpolation": 2}]}, "has_audio": {"Points": [{"co": {"Y": -1, "X": 1}, "interpolation": 2}]}, "effects": [], "location_x": {"Points": [{"co": {"Y": 0, "X": 1}, "interpolation": 2}]}, "waveform": false, "title": "taxi_start.mp4", "image": "/home/robsen/.openshot_qt/thumbnail/LGW3TZJV4Q.png", "gravity": 4, "scale_x": {"Points": [{"co": {"Y": 1, "X": 1}, "interpolation": 2}]}, "perspective_c1_y": {"Points": [{"co": {"Y": -1, "X": 1}, "interpolation": 2}]}, "crop_height": {"Points": [{"co": {"Y": -1, "X": 1}, "interpolation": 2}]}, "crop_x": {"Points": [{"co": {"Y": 0, "X": 1}, "interpolation": 2}]}, "start": 0, "scale": 1, "shear_y": {"Points": [{"co": {"Y": 0, "X": 1}, "interpolation": 2}]}, "display": 0, "volume": {"Points": [{"co": {"Y": 1, "X": 1}, "interpolation": 2}]}, "channel_mapping": {"Points": [{"co": {"Y": -1, "X": 1}, "interpolation": 2}]}, "anchor": 0, "duration": 15.0, "perspective_c3_y": {"Points": [{"co": {"Y": -1, "X": 1}, "interpolation": 2}]}, "shear_x": {"Points": [{"co": {"Y": 0, "X": 1}, "interpolation": 2}]}, "perspective_c4_x": {"Points": [{"co": {"Y": -1, "X": 1}, "interpolation": 2}]}, "location_y": {"Points": [{"co": {"Y": 0, "X": 1}, "interpolation": 2}]}, "perspective_c2_x": {"Points": [{"co": {"Y": -1, "X": 1}, "interpolation": 2}]}, "layer": 0, "perspective_c2_y": {"Points": [{"co": {"Y": -1, "X": 1}, "interpolation": 2}]}, "perspective_c1_x": {"Points": [{"co": {"Y": -1, "X": 1}, "interpolation": 2}]}, "perspective_c4_y": {"Points": [{"co": {"Y": -1, "X": 1}, "interpolation": 2}]}, "reader": {"audio_bit_rate": 0, "has_single_image": false, "has_video": true, "type": "FFmpegReader", "video_length": "375", "audio_timebase": {"den": 1, "num": 1}, "path": "/home/robsen/Dropbox/Workdir/Repo/SuesseRache-HH-Taxi/taxi_start.mp4", "width": 1920, "has_audio": false, "video_bit_rate": 147692, "channel_layout": 4, "height": 1080, "display_ratio": {"den": 9, "num": 16}, "interlaced_frame": false, "video_timebase": {"den": 12800, "num": 1}, "duration": 15.0, "sample_rate": 0, "pixel_format": 0, "fps": {"den": 1, "num": 25}, "file_size": "276924", "top_field_first": true, "pixel_ratio": {"den": 1, "num": 1}, "acodec": "", "audio_stream_index": -1, "video_stream_index": 0, "channels": 0, "vcodec": "h264"}, "channel_filter": {"Points": [{"co": {"Y": -1, "X": 1}, "interpolation": 2}]}, "file_id": "LGW3TZJV4Q", "time": {"Points": [{"co": {"Y": 1, "X": 1}, "interpolation": 2}]}}, "value": {"end": 5.0}, "key": ["clips", {"id": "0AEDFYGQ7J"}], "partial": false, "type": "update"}, {"old_values": {"alpha": {"Points": [{"co": {"Y": 1, "X": 1}, "interpolation": 2}]}, "rotation": {"Points": [{"co": {"Y": 0, "X": 1}, "interpolation": 2}]}, "scale_y": {"Points": [{"co": {"Y": 1, "X": 1}, "interpolation": 2}]}, "crop_y": {"Points": [{"co": {"Y": 0, "X": 1}, "interpolation": 2}]}, "perspective_c3_x": {"Points": [{"co": {"Y": -1, "X": 1}, "interpolation": 2}]}, "end": 31.317333221435547, "crop_width": {"Points": [{"co": {"Y": -1, "X": 1}, "interpolation": 2}]}, "position": 12.96, "id": "627XQDJ3EP", "wave_color": {"green": {"Points": [{"handle_right": {"Y": 0, "X": 0.5}, "co": {"Y": 123, "X": 1}, "handle_left": {"Y": 1, "X": 0.5}, "handle_type": 0, "interpolation": 0}]}, "blue": {"Points": [{"handle_right": {"Y": 0, "X": 0.5}, "co": {"Y": 255, "X": 1}, "handle_left": {"Y": 1, "X": 0.5}, "handle_type": 0, "interpolation": 0}]}, "alpha": {"Points": [{"handle_right": {"Y": 0, "X": 0.5}, "co": {"Y": 255, "X": 1}, "handle_left": {"Y": 1, "X": 0.5}, "handle_type": 0, "interpolation": 0}]}, "red": {"Points": [{"handle_right": {"Y": 0, "X": 0.5}, "co": {"Y": 0, "X": 1}, "handle_left": {"Y": 1, "X": 0.5}, "handle_type": 0, "interpolation": 0}]}}, "has_video": {"Points": [{"co": {"Y": -1, "X": 1}, "interpolation": 2}]}, "has_audio": {"Points": [{"co": {"Y": -1, "X": 1}, "interpolation": 2}]}, "effects": [], "location_x": {"Points": [{"co": {"Y": 0, "X": 1}, "interpolation": 2}]}, "waveform": false, "title": "TE_SR_Taxi.mp4", "image": "/home/robsen/.openshot_qt/thumbnail/Z3LOYBY1PL.png", "gravity": 4, "scale_x": {"Points": [{"co": {"Y": 1, "X": 1}, "interpolation": 2}]}, "perspective_c1_y": {"Points": [{"co": {"Y": -1, "X": 1}, "interpolation": 2}]}, "crop_height": {"Points": [{"co": {"Y": -1, "X": 1}, "interpolation": 2}]}, "crop_x": {"Points": [{"co": {"Y": 0, "X": 1}, "interpolation": 2}]}, "start": 0, "scale": 1, "shear_y": {"Points": [{"co": {"Y": 0, "X": 1}, "interpolation": 2}]}, "display": 0, "volume": {"Points": [{"co": {"Y": 1, "X": 1}, "interpolation": 2}]}, "channel_mapping": {"Points": [{"co": {"Y": -1, "X": 1}, "interpolation": 2}]}, "anchor": 0, "duration": 31.317333221435547, "perspective_c3_y": {"Points": [{"co": {"Y": -1, "X": 1}, "interpolation": 2}]}, "shear_x": {"Points": [{"co": {"Y": 0, "X": 1}, "interpolation": 2}]}, "perspective_c4_x": {"Points": [{"co": {"Y": -1, "X": 1}, "interpolation": 2}]}, "location_y": {"Points": [{"co": {"Y": 0, "X": 1}, "interpolation": 2}]}, "perspective_c2_x": {"Points": [{"co": {"Y": -1, "X": 1}, "interpolation": 2}]}, "layer": 1, "perspective_c2_y": {"Points": [{"co": {"Y": -1, "X": 1}, "interpolation": 2}]}, "perspective_c1_x": {"Points": [{"co": {"Y": -1, "X": 1}, "interpolation": 2}]}, "perspective_c4_y": {"Points": [{"co": {"Y": -1, "X": 1}, "interpolation": 2}]}, "reader": {"audio_bit_rate": 189375, "has_single_image": false, "has_video": true, "type": "FFmpegReader", "video_length": "937", "audio_timebase": {"den": 48000, "num": 1}, "path": "/home/robsen/Dropbox/Workdir/Repo/SuesseRache-HH-Taxi/TE_SR_Taxi.mp4", "width": 1920, "has_audio": true, "video_bit_rate": 32091692, "channel_layout": 3, "height": 1080, "display_ratio": {"den": 9, "num": 16}, "interlaced_frame": false, "video_timebase": {"den": 29970, "num": 1}, "duration": 31.317333221435547, "sample_rate": 48000, "pixel_format": 0, "fps": {"den": 100, "num": 2997}, "file_size": "125628279", "top_field_first": true, "pixel_ratio": {"den": 1, "num": 1}, "acodec": "aac", "audio_stream_index": 1, "video_stream_index": 0, "channels": 2, "vcodec": "h264"}, "channel_filter": {"Points": [{"co": {"Y": -1, "X": 1}, "interpolation": 2}]}, "file_id": "Z3LOYBY1PL", "time": {"Points": [{"co": {"Y": 1, "X": 1}, "interpolation": 2}]}}, "value": {"id": "627XQDJ3EP", "start": 0, "end": 31.317333221435547, "position": 3.375, "layer": 1, "image": "/home/robsen/.openshot_qt/thumbnail/Z3LOYBY1PL.png"}, "key": ["clips", {"id": "627XQDJ3EP"}], "partial": false, "type": "update"}, {"old_values": {"alpha": {"Points": [{"co": {"Y": 1, "X": 1}, "interpolation": 2}]}, "rotation": {"Points": [{"co": {"Y": 0, "X": 1}, "interpolation": 2}]}, "scale_y": {"Points": [{"co": {"Y": 1, "X": 1}, "interpolation": 2}]}, "crop_y": {"Points": [{"co": {"Y": 0, "X": 1}, "interpolation": 2}]}, "perspective_c3_x": {"Points": [{"co": {"Y": -1, "X": 1}, "interpolation": 2}]}, "end": 31.317333221435547, "crop_width": {"Points": [{"co": {"Y": -1, "X": 1}, "interpolation": 2}]}, "position": 3.375, "id": "627XQDJ3EP", "wave_color": {"green": {"Points": [{"handle_right": {"Y": 0, "X": 0.5}, "co": {"Y": 123, "X": 1}, "handle_left": {"Y": 1, "X": 0.5}, "handle_type": 0, "interpolation": 0}]}, "blue": {"Points": [{"handle_right": {"Y": 0, "X": 0.5}, "co": {"Y": 255, "X": 1}, "handle_left": {"Y": 1, "X": 0.5}, "handle_type": 0, "interpolation": 0}]}, "alpha": {"Points": [{"handle_right": {"Y": 0, "X": 0.5}, "co": {"Y": 255, "X": 1}, "handle_left": {"Y": 1, "X": 0.5}, "handle_type": 0, "interpolation": 0}]}, "red": {"Points": [{"handle_right": {"Y": 0, "X": 0.5}, "co": {"Y": 0, "X": 1}, "handle_left": {"Y": 1, "X": 0.5}, "handle_type": 0, "interpolation": 0}]}}, "has_video": {"Points": [{"co": {"Y": -1, "X": 1}, "interpolation": 2}]}, "has_audio": {"Points": [{"co": {"Y": -1, "X": 1}, "interpolation": 2}]}, "effects": [], "location_x": {"Points": [{"co": {"Y": 0, "X": 1}, "interpolation": 2}]}, "waveform": false, "title": "TE_SR_Taxi.mp4", "image": "/home/robsen/.openshot_qt/thumbnail/Z3LOYBY1PL.png", "gravity": 4, "scale_x": {"Points": [{"co": {"Y": 1, "X": 1}, "interpolation": 2}]}, "perspective_c1_y": {"Points": [{"co": {"Y": -1, "X": 1}, "interpolation": 2}]}, "crop_height": {"Points": [{"co": {"Y": -1, "X": 1}, "interpolation": 2}]}, "crop_x": {"Points": [{"co": {"Y": 0, "X": 1}, "interpolation": 2}]}, "start": 0, "scale": 1, "shear_y": {"Points": [{"co": {"Y": 0, "X": 1}, "interpolation": 2}]}, "display": 0, "volume": {"Points": [{"co": {"Y": 1, "X": 1}, "interpolation": 2}]}, "channel_mapping": {"Points": [{"co": {"Y": -1, "X": 1}, "interpolation": 2}]}, "anchor": 0, "duration": 31.317333221435547, "perspective_c3_y": {"Points": [{"co": {"Y": -1, "X": 1}, "interpolation": 2}]}, "shear_x": {"Points": [{"co": {"Y": 0, "X": 1}, "interpolation": 2}]}, "perspective_c4_x": {"Points": [{"co": {"Y": -1, "X": 1}, "interpolation": 2}]}, "location_y": {"Points": [{"co": {"Y": 0, "X": 1}, "interpolation": 2}]}, "perspective_c2_x": {"Points": [{"co": {"Y": -1, "X": 1}, "interpolation": 2}]}, "layer": 1, "perspective_c2_y": {"Points": [{"co": {"Y": -1, "X": 1}, "interpolation": 2}]}, "perspective_c1_x": {"Points": [{"co": {"Y": -1, "X": 1}, "interpolation": 2}]}, "perspective_c4_y": {"Points": [{"co": {"Y": -1, "X": 1}, "interpolation": 2}]}, "reader": {"audio_bit_rate": 189375, "has_single_image": false, "has_video": true, "type": "FFmpegReader", "video_length": "937", "audio_timebase": {"den": 48000, "num": 1}, "path": "/home/robsen/Dropbox/Workdir/Repo/SuesseRache-HH-Taxi/TE_SR_Taxi.mp4", "width": 1920, "has_audio": true, "video_bit_rate": 32091692, "channel_layout": 3, "height": 1080, "display_ratio": {"den": 9, "num": 16}, "interlaced_frame": false, "video_timebase": {"den": 29970, "num": 1}, "duration": 31.317333221435547, "sample_rate": 48000, "pixel_format": 0, "fps": {"den": 100, "num": 2997}, "file_size": "125628279", "top_field_first": true, "pixel_ratio": {"den": 1, "num": 1}, "acodec": "aac", "audio_stream_index": 1, "video_stream_index": 0, "channels": 2, "vcodec": "h264"}, "channel_filter": {"Points": [{"co": {"Y": -1, "X": 1}, "interpolation": 2}]}, "file_id": "Z3LOYBY1PL", "time": {"Points": [{"co": {"Y": 1, "X": 1}, "interpolation": 2}]}}, "value": {"id": "627XQDJ3EP", "start": 0, "end": 31.317333221435547, "position": 3.375, "layer": 1, "image": "/home/robsen/.openshot_qt/thumbnail/Z3LOYBY1PL.png"}, "key": ["clips", {"id": "627XQDJ3EP"}], "partial": false, "type": "update"}, {"old_values": null, "value": {"id": "PJWPMFXKV3", "start": 0, "end": 15, "position": 32.755, "layer": 2, "image": "/home/robsen/.openshot_qt/thumbnail/X22V56NF57.png"}, "key": ["clips", {"id": "PJWPMFXKV3"}], "partial": false, "type": "update"}, {"old_values": null, "value": {"id": "PJWPMFXKV3", "start": 0, "end": 15, "position": 32.755, "layer": 2, "image": "/home/robsen/.openshot_qt/thumbnail/X22V56NF57.png"}, "key": ["clips", {"id": "PJWPMFXKV3"}], "partial": false, "type": "update"}, {"old_values": null, "value": {"id": "PJWPMFXKV3", "start": 0, "end": 15, "position": 32.755, "layer": 2, "image": "/home/robsen/.openshot_qt/thumbnail/X22V56NF57.png"}, "key": ["clips", {"id": "PJWPMFXKV3"}], "partial": false, "type": "update"}, {"old_values": {"alpha": {"Points": [{"co": {"Y": 1, "X": 1}, "interpolation": 2}, {"handle_right": {"Y": 0, "X": 0.5}, "co": {"Y": 0, "X": 1}, "handle_left": {"Y": 1, "X": 0.5}, "handle_type": 0, "interpolation": 0}, {"handle_right": {"Y": 0, "X": 0.5}, "co": {"Y": 1, "X": 73}, "handle_left": {"Y": 1, "X": 0.5}, "handle_type": 0, "interpolation": 0}]}, "rotation": {"Points": [{"co": {"Y": 0, "X": 1}, "interpolation": 2}]}, "scale_y": {"Points": [{"co": {"Y": 1, "X": 1}, "interpolation": 2}]}, "crop_y": {"Points": [{"co": {"Y": 0, "X": 1}, "interpolation": 2}]}, "perspective_c3_x": {"Points": [{"co": {"Y": -1, "X": 1}, "interpolation": 2}]}, "end": 15, "crop_width": {"Points": [{"co": {"Y": -1, "X": 1}, "interpolation": 2}]}, "position": 32.755, "id": "PJWPMFXKV3", "wave_color": {"green": {"Points": [{"handle_right": {"Y": 0, "X": 0.5}, "co": {"Y": 123, "X": 1}, "handle_left": {"Y": 1, "X": 0.5}, "handle_type": 0, "interpolation": 0}]}, "blue": {"Points": [{"handle_right": {"Y": 0, "X": 0.5}, "co": {"Y": 255, "X": 1}, "handle_left": {"Y": 1, "X": 0.5}, "handle_type": 0, "interpolation": 0}]}, "alpha": {"Points": [{"handle_right": {"Y": 0, "X": 0.5}, "co": {"Y": 255, "X": 1}, "handle_left": {"Y": 1, "X": 0.5}, "handle_type": 0, "interpolation": 0}]}, "red": {"Points": [{"handle_right": {"Y": 0, "X": 0.5}, "co": {"Y": 0, "X": 1}, "handle_left": {"Y": 1, "X": 0.5}, "handle_type": 0, "interpolation": 0}]}}, "has_video": {"Points": [{"co": {"Y": -1, "X": 1}, "interpolation": 2}]}, "has_audio": {"Points": [{"co": {"Y": -1, "X": 1}, "interpolation": 2}]}, "effects": [], "location_x": {"Points": [{"co": {"Y": 0, "X": 1}, "interpolation": 2}]}, "waveform": false, "title": "arrow.mp4", "image": "/home/robsen/.openshot_qt/thumbnail/X22V56NF57.png", "gravity": 4, "scale_x": {"Points": [{"co": {"Y": 1, "X": 1}, "interpolation": 2}]}, "perspective_c1_y": {"Points": [{"co": {"Y": -1, "X": 1}, "interpolation": 2}]}, "crop_height": {"Points": [{"co": {"Y": -1, "X": 1}, "interpolation": 2}]}, "crop_x": {"Points": [{"co": {"Y": 0, "X": 1}, "interpolation": 2}]}, "start": 0, "scale": 1, "shear_y": {"Points": [{"co": {"Y": 0, "X": 1}, "interpolation": 2}]}, "display": 0, "volume": {"Points": [{"co": {"Y": 1, "X": 1}, "interpolation": 2}]}, "channel_mapping": {"Points": [{"co": {"Y": -1, "X": 1}, "interpolation": 2}]}, "anchor": 0, "duration": 15.0, "perspective_c3_y": {"Points": [{"co": {"Y": -1, "X": 1}, "interpolation": 2}]}, "shear_x": {"Points": [{"co": {"Y": 0, "X": 1}, "interpolation": 2}]}, "perspective_c4_x": {"Points": [{"co": {"Y": -1, "X": 1}, "interpolation": 2}]}, "location_y": {"Points": [{"co": {"Y": 0, "X": 1}, "interpolation": 2}]}, "perspective_c2_x": {"Points": [{"co": {"Y": -1, "X": 1}, "interpolation": 2}]}, "layer": 2, "perspective_c2_y": {"Points": [{"co": {"Y": -1, "X": 1}, "interpolation": 2}]}, "perspective_c1_x": {"Points": [{"co": {"Y": -1, "X": 1}, "interpolation": 2}]}, "perspective_c4_y": {"Points": [{"co": {"Y": -1, "X": 1}, "interpolation": 2}]}, "reader": {"audio_bit_rate": 0, "has_single_image": false, "has_video": true, "type": "FFmpegReader", "video_length": "375", "audio_timebase": {"den": 1, "num": 1}, "path": "/home/robsen/Dropbox/Workdir/Repo/SuesseRache-HH-Taxi/arrow.mp4", "width": 1920, "has_audio": false, "video_bit_rate": 83079, "channel_layout": 4, "height": 1080, "display_ratio": {"den": 9, "num": 16}, "interlaced_frame": false, "video_timebase": {"den": 12800, "num": 1}, "duration": 15.0, "sample_rate": 0, "pixel_format": 0, "fps": {"den": 1, "num": 25}, "file_size": "155774", "top_field_first": true, "pixel_ratio": {"den": 1, "num": 1}, "acodec": "", "audio_stream_index": -1, "video_stream_index": 0, "channels": 0, "vcodec": "h264"}, "channel_filter": {"Points": [{"co": {"Y": -1, "X": 1}, "interpolation": 2}]}, "file_id": "X22V56NF57", "time": {"Points": [{"co": {"Y": 1, "X": 1}, "interpolation": 2}]}}, "value": {"end": 5.0}, "key": ["clips", {"id": "PJWPMFXKV3"}], "partial": false, "type": "update"}, {"old_values": {"alpha": {"Points": [{"co": {"Y": 1, "X": 1}, "interpolation": 2}, {"handle_right": {"Y": 0, "X": 0.5}, "co": {"Y": 0, "X": 1}, "handle_left": {"Y": 1, "X": 0.5}, "handle_type": 0, "interpolation": 0}, {"handle_right": {"Y": 0, "X": 0.5}, "co": {"Y": 1, "X": 73}, "handle_left": {"Y": 1, "X": 0.5}, "handle_type": 0, "interpolation": 0}]}, "rotation": {"Points": [{"co": {"Y": 0, "X": 1}, "interpolation": 2}]}, "scale_y": {"Points": [{"co": {"Y": 1, "X": 1}, "interpolation": 2}]}, "crop_y": {"Points": [{"co": {"Y": 0, "X": 1}, "interpolation": 2}]}, "perspective_c3_x": {"Points": [{"co": {"Y": -1, "X": 1}, "interpolation": 2}]}, "end": 5.0, "crop_width": {"Points": [{"co": {"Y": -1, "X": 1}, "interpolation": 2}]}, "position": 32.755, "id": "PJWPMFXKV3", "wave_color": {"green": {"Points": [{"handle_right": {"Y": 0, "X": 0.5}, "co": {"Y": 123, "X": 1}, "handle_left": {"Y": 1, "X": 0.5}, "handle_type": 0, "interpolation": 0}]}, "blue": {"Points": [{"handle_right": {"Y": 0, "X": 0.5}, "co": {"Y": 255, "X": 1}, "handle_left": {"Y": 1, "X": 0.5}, "handle_type": 0, "interpolation": 0}]}, "alpha": {"Points": [{"handle_right": {"Y": 0, "X": 0.5}, "co": {"Y": 255, "X": 1}, "handle_left": {"Y": 1, "X": 0.5}, "handle_type": 0, "interpolation": 0}]}, "red": {"Points": [{"handle_right": {"Y": 0, "X": 0.5}, "co": {"Y": 0, "X": 1}, "handle_left": {"Y": 1, "X": 0.5}, "handle_type": 0, "interpolation": 0}]}}, "has_video": {"Points": [{"co": {"Y": -1, "X": 1}, "interpolation": 2}]}, "has_audio": {"Points": [{"co": {"Y": -1, "X": 1}, "interpolation": 2}]}, "effects": [], "location_x": {"Points": [{"co": {"Y": 0, "X": 1}, "interpolation": 2}]}, "waveform": false, "title": "arrow.mp4", "image": "/home/robsen/.openshot_qt/thumbnail/X22V56NF57.png", "gravity": 4, "scale_x": {"Points": [{"co": {"Y": 1, "X": 1}, "interpolation": 2}]}, "perspective_c1_y": {"Points": [{"co": {"Y": -1, "X": 1}, "interpolation": 2}]}, "crop_height": {"Points": [{"co": {"Y": -1, "X": 1}, "interpolation": 2}]}, "crop_x": {"Points": [{"co": {"Y": 0, "X": 1}, "interpolation": 2}]}, "start": 0, "scale": 1, "shear_y": {"Points": [{"co": {"Y": 0, "X": 1}, "interpolation": 2}]}, "display": 0, "volume": {"Points": [{"co": {"Y": 1, "X": 1}, "interpolation": 2}]}, "channel_mapping": {"Points": [{"co": {"Y": -1, "X": 1}, "interpolation": 2}]}, "anchor": 0, "duration": 15.0, "perspective_c3_y": {"Points": [{"co": {"Y": -1, "X": 1}, "interpolation": 2}]}, "shear_x": {"Points": [{"co": {"Y": 0, "X": 1}, "interpolation": 2}]}, "perspective_c4_x": {"Points": [{"co": {"Y": -1, "X": 1}, "interpolation": 2}]}, "location_y": {"Points": [{"co": {"Y": 0, "X": 1}, "interpolation": 2}]}, "perspective_c2_x": {"Points": [{"co": {"Y": -1, "X": 1}, "interpolation": 2}]}, "layer": 2, "perspective_c2_y": {"Points": [{"co": {"Y": -1, "X": 1}, "interpolation": 2}]}, "perspective_c1_x": {"Points": [{"co": {"Y": -1, "X": 1}, "interpolation": 2}]}, "perspective_c4_y": {"Points": [{"co": {"Y": -1, "X": 1}, "interpolation": 2}]}, "reader": {"audio_bit_rate": 0, "has_single_image": false, "has_video": true, "type": "FFmpegReader", "video_length": "375", "audio_timebase": {"den": 1, "num": 1}, "path": "/home/robsen/Dropbox/Workdir/Repo/SuesseRache-HH-Taxi/arrow.mp4", "width": 1920, "has_audio": false, "video_bit_rate": 83079, "channel_layout": 4, "height": 1080, "display_ratio": {"den": 9, "num": 16}, "interlaced_frame": false, "video_timebase": {"den": 12800, "num": 1}, "duration": 15.0, "sample_rate": 0, "pixel_format": 0, "fps": {"den": 1, "num": 25}, "file_size": "155774", "top_field_first": true, "pixel_ratio": {"den": 1, "num": 1}, "acodec": "", "audio_stream_index": -1, "video_stream_index": 0, "channels": 0, "vcodec": "h264"}, "channel_filter": {"Points": [{"co": {"Y": -1, "X": 1}, "interpolation": 2}]}, "file_id": "X22V56NF57", "time": {"Points": [{"co": {"Y": 1, "X": 1}, "interpolation": 2}]}}, "value": {"id": "PJWPMFXKV3", "start": 0, "end": 5, "position": 29.89, "layer": 2, "image": "/home/robsen/.openshot_qt/thumbnail/X22V56NF57.png"}, "key": ["clips", {"id": "PJWPMFXKV3"}], "partial": false, "type": "update"}]}, "old_values": null, "partial": false, "key": ["history"], "type": "update"}, {"value": {"position": 30.0}, "old_values": {"alpha": {"Points": [{"co": {"Y": 1, "X": 1}, "interpolation": 2}, {"handle_right": {"Y": 0, "X": 0.5}, "co": {"Y": 0, "X": 1}, "handle_left": {"Y": 1, "X": 0.5}, "handle_type": 0, "interpolation": 0}, {"handle_right": {"Y": 0, "X": 0.5}, "co": {"Y": 1, "X": 73}, "handle_left": {"Y": 1, "X": 0.5}, "handle_type": 0, "interpolation": 0}]}, "rotation": {"Points": [{"co": {"Y": 0, "X": 1}, "interpolation": 2}]}, "scale_y": {"Points": [{"co": {"Y": 1, "X": 1}, "interpolation": 2}]}, "crop_y": {"Points": [{"co": {"Y": 0, "X": 1}, "interpolation": 2}]}, "perspective_c3_x": {"Points": [{"co": {"Y": -1, "X": 1}, "interpolation": 2}]}, "end": 5, "crop_width": {"Points": [{"co": {"Y": -1, "X": 1}, "interpolation": 2}]}, "position": 29.89, "id": "PJWPMFXKV3", "wave_color": {"green": {"Points": [{"handle_right": {"Y": 0, "X": 0.5}, "co": {"Y": 123, "X": 1}, "handle_left": {"Y": 1, "X": 0.5}, "handle_type": 0, "interpolation": 0}]}, "blue": {"Points": [{"handle_right": {"Y": 0, "X": 0.5}, "co": {"Y": 255, "X": 1}, "handle_left": {"Y": 1, "X": 0.5}, "handle_type": 0, "interpolation": 0}]}, "alpha": {"Points": [{"handle_right": {"Y": 0, "X": 0.5}, "co": {"Y": 255, "X": 1}, "handle_left": {"Y": 1, "X": 0.5}, "handle_type": 0, "interpolation": 0}]}, "red": {"Points": [{"handle_right": {"Y": 0, "X": 0.5}, "co": {"Y": 0, "X": 1}, "handle_left": {"Y": 1, "X": 0.5}, "handle_type": 0, "interpolation": 0}]}}, "has_video": {"Points": [{"co": {"Y": -1, "X": 1}, "interpolation": 2}]}, "has_audio": {"Points": [{"co": {"Y": -1, "X": 1}, "interpolation": 2}]}, "effects": [], "location_x": {"Points": [{"co": {"Y": 0, "X": 1}, "interpolation": 2}]}, "waveform": false, "title": "arrow.mp4", "image": "/home/robsen/.openshot_qt/thumbnail/X22V56NF57.png", "gravity": 4, "perspective_c2_x": {"Points": [{"co": {"Y": -1, "X": 1}, "interpolation": 2}]}, "perspective_c1_y": {"Points": [{"co": {"Y": -1, "X": 1}, "interpolation": 2}]}, "crop_height": {"Points": [{"co": {"Y": -1, "X": 1}, "interpolation": 2}]}, "crop_x": {"Points": [{"co": {"Y": 0, "X": 1}, "interpolation": 2}]}, "start": 0, "scale": 1, "shear_y": {"Points": [{"co": {"Y": 0, "X": 1}, "interpolation": 2}]}, "display": 0, "volume": {"Points": [{"co": {"Y": 1, "X": 1}, "interpolation": 2}]}, "channel_mapping": {"Points": [{"co": {"Y": -1, "X": 1}, "interpolation": 2}]}, "anchor": 0, "duration": 15.0, "perspective_c3_y": {"Points": [{"co": {"Y": -1, "X": 1}, "interpolation": 2}]}, "shear_x": {"Points": [{"co": {"Y": 0, "X": 1}, "interpolation": 2}]}, "perspective_c4_x": {"Points": [{"co": {"Y": -1, "X": 1}, "interpolation": 2}]}, "location_y": {"Points": [{"co": {"Y": 0, "X": 1}, "interpolation": 2}]}, "scale_x": {"Points": [{"co": {"Y": 1, "X": 1}, "interpolation": 2}]}, "layer": 2, "perspective_c2_y": {"Points": [{"co": {"Y": -1, "X": 1}, "interpolation": 2}]}, "perspective_c1_x": {"Points": [{"co": {"Y": -1, "X": 1}, "interpolation": 2}]}, "perspective_c4_y": {"Points": [{"co": {"Y": -1, "X": 1}, "interpolation": 2}]}, "reader": {"audio_bit_rate": 0, "has_single_image": false, "vcodec": "h264", "has_video": true, "type": "FFmpegReader", "video_length": "375", "audio_timebase": {"den": 1, "num": 1}, "path": "/home/robsen/Dropbox/Workdir/Repo/SuesseRache-HH-Taxi/arrow.mp4", "width": 1920, "has_audio": false, "video_bit_rate": 83079, "channel_layout": 4, "height": 1080, "display_ratio": {"den": 9, "num": 16}, "interlaced_frame": false, "duration": 15.0, "sample_rate": 0, "pixel_format": 0, "video_timebase": {"den": 12800, "num": 1}, "file_size": "155774", "top_field_first": true, "pixel_ratio": {"den": 1, "num": 1}, "acodec": "", "audio_stream_index": -1, "video_stream_index": 0, "channels": 0, "fps": {"den": 1, "num": 25}}, "channel_filter": {"Points": [{"co": {"Y": -1, "X": 1}, "interpolation": 2}]}, "file_id": "X22V56NF57", "time": {"Points": [{"co": {"Y": 1, "X": 1}, "interpolation": 2}]}}, "partial": false, "key": ["clips", {"id": "PJWPMFXKV3"}], "type": "update"}, {"value": {"alpha": {"Points": [{"co": {"Y": 1, "X": 1}, "interpolation": 2}, {"handle_right": {"Y": 0, "X": 0.5}, "co": {"Y": 1, "X": 49}, "handle_left": {"Y": 1, "X": 0.5}, "handle_type": 0, "interpolation": 0}, {"handle_right": {"Y": 0, "X": 0.5}, "co": {"Y": 0, "X": 121}, "handle_left": {"Y": 1, "X": 0.5}, "handle_type": 0, "interpolation": 0}]}, "scale_y": {"Points": [{"co": {"Y": 1, "X": 1}, "interpolation": 2}]}, "crop_y": {"Points": [{"co": {"Y": 0, "X": 1}, "interpolation": 2}]}, "perspective_c3_x": {"Points": [{"co": {"Y": -1, "X": 1}, "interpolation": 2}]}, "crop_width": {"Points": [{"co": {"Y": -1, "X": 1}, "interpolation": 2}]}, "position": 0, "has_video": {"Points": [{"co": {"Y": -1, "X": 1}, "interpolation": 2}]}, "layer": 0, "volume": {"Points": [{"co": {"Y": 1, "X": 1}, "interpolation": 2}]}, "wave_color": {"alpha": {"Points": [{"handle_right": {"Y": 0, "X": 0.5}, "co": {"Y": 255, "X": 1}, "handle_left": {"Y": 1, "X": 0.5}, "handle_type": 0, "interpolation": 0}]}, "blue": {"Points": [{"handle_right": {"Y": 0, "X": 0.5}, "co": {"Y": 255, "X": 1}, "handle_left": {"Y": 1, "X": 0.5}, "handle_type": 0, "interpolation": 0}]}, "red": {"Points": [{"handle_right": {"Y": 0, "X": 0.5}, "co": {"Y": 0, "X": 1}, "handle_left": {"Y": 1, "X": 0.5}, "handle_type": 0, "interpolation": 0}]}, "green": {"Points": [{"handle_right": {"Y": 0, "X": 0.5}, "co": {"Y": 123, "X": 1}, "handle_left": {"Y": 1, "X": 0.5}, "handle_type": 0, "interpolation": 0}]}}, "perspective_c4_y": {"Points": [{"co": {"Y": -1, "X": 1}, "interpolation": 2}]}, "id": "47DJSIWW2E", "has_audio": {"Points": [{"co": {"Y": -1, "X": 1}, "interpolation": 2}]}, "effects": [], "location_x": {"Points": [{"co": {"Y": 0, "X": 1}, "interpolation": 2}]}, "waveform": false, "gravity": 4, "image": "/home/robsen/.openshot_qt/thumbnail/LGW3TZJV4Q.png", "title": "taxi_start.mp4", "perspective_c2_x": {"Points": [{"co": {"Y": -1, "X": 1}, "interpolation": 2}]}, "perspective_c1_y": {"Points": [{"co": {"Y": -1, "X": 1}, "interpolation": 2}]}, "crop_height": {"Points": [{"co": {"Y": -1, "X": 1}, "interpolation": 2}]}, "crop_x": {"Points": [{"co": {"Y": 0, "X": 1}, "interpolation": 2}]}, "start": 0, "scale": 1, "location_y": {"Points": [{"co": {"Y": 0, "X": 1}, "interpolation": 2}]}, "shear_y": {"Points": [{"co": {"Y": 0, "X": 1}, "interpolation": 2}]}, "display": 0, "channel_filter": {"Points": [{"co": {"Y": -1, "X": 1}, "interpolation": 2}]}, "anchor": 0, "duration": 15.0, "perspective_c3_y": {"Points": [{"co": {"Y": -1, "X": 1}, "interpolation": 2}]}, "shear_x": {"Points": [{"co": {"Y": 0, "X": 1}, "interpolation": 2}]}, "perspective_c4_x": {"Points": [{"co": {"Y": -1, "X": 1}, "interpolation": 2}]}, "perspective_c2_y": {"Points": [{"co": {"Y": -1, "X": 1}, "interpolation": 2}]}, "scale_x": {"Points": [{"co": {"Y": 1, "X": 1}, "interpolation": 2}]}, "rotation": {"Points": [{"co": {"Y": 0, "X": 1}, "interpolation": 2}]}, "channel_mapping": {"Points": [{"co": {"Y": -1, "X": 1}, "interpolation": 2}]}, "perspective_c1_x": {"Points": [{"co": {"Y": -1, "X": 1}, "interpolation": 2}]}, "end": 5.0, "reader": {"audio_bit_rate": 0, "has_single_image": false, "vcodec": "h264", "has_video": true, "type": "FFmpegReader", "video_length": "375", "audio_timebase": {"den": 1, "num": 1}, "path": "/home/robsen/Dropbox/Workdir/Repo/SuesseRache-HH-Taxi/Videos/taxi_start.mp4", "width": 1920, "has_audio": false, "video_bit_rate": 147692, "channel_layout": 4, "height": 1080, "display_ratio": {"den": 9, "num": 16}, "interlaced_frame": false, "duration": 15.0, "sample_rate": 0, "pixel_format": 0, "video_timebase": {"den": 12800, "num": 1}, "file_size": "276924", "top_field_first": true, "pixel_ratio": {"den": 1, "num": 1}, "acodec": "", "audio_stream_index": -1, "video_stream_index": 0, "channels": 0, "fps": {"den": 1, "num": 25}}, "time": {"Points": [{"co": {"Y": 1, "X": 1}, "interpolation": 2}]}, "file_id": "LGW3TZJV4Q"}, "old_values": [{"alpha": {"Points": [{"co": {"Y": 1, "X": 1}, "interpolation": 2}, {"handle_right": {"Y": 0, "X": 0.5}, "co": {"Y": 0, "X": 1}, "handle_left": {"Y": 1, "X": 0.5}, "handle_type": 0, "interpolation": 0}, {"handle_right": {"Y": 0, "X": 0.5}, "co": {"Y": 1, "X": 73}, "handle_left": {"Y": 1, "X": 0.5}, "handle_type": 0, "interpolation": 0}]}, "rotation": {"Points": [{"co": {"Y": 0, "X": 1}, "interpolation": 2}]}, "scale_y": {"Points": [{"co": {"Y": 1, "X": 1}, "interpolation": 2}]}, "crop_y": {"Points": [{"co": {"Y": 0, "X": 1}, "interpolation": 2}]}, "crop_width": {"Points": [{"co": {"Y": -1, "X": 1}, "interpolation": 2}]}, "end": 5, "perspective_c3_x": {"Points": [{"co": {"Y": -1, "X": 1}, "interpolation": 2}]}, "position": 30.0, "id": "PJWPMFXKV3", "wave_color": {"green": {"Points": [{"handle_right": {"Y": 0, "X": 0.5}, "co": {"Y": 123, "X": 1}, "handle_left": {"Y": 1, "X": 0.5}, "handle_type": 0, "interpolation": 0}]}, "blue": {"Points": [{"handle_right": {"Y": 0, "X": 0.5}, "co": {"Y": 255, "X": 1}, "handle_left": {"Y": 1, "X": 0.5}, "handle_type": 0, "interpolation": 0}]}, "alpha": {"Points": [{"handle_right": {"Y": 0, "X": 0.5}, "co": {"Y": 255, "X": 1}, "handle_left": {"Y": 1, "X": 0.5}, "handle_type": 0, "interpolation": 0}]}, "red": {"Points": [{"handle_right": {"Y": 0, "X": 0.5}, "co": {"Y": 0, "X": 1}, "handle_left": {"Y": 1, "X": 0.5}, "handle_type": 0, "interpolation": 0}]}}, "has_video": {"Points": [{"co": {"Y": -1, "X": 1}, "interpolation": 2}]}, "has_audio": {"Points": [{"co": {"Y": -1, "X": 1}, "interpolation": 2}]}, "effects": [], "location_x": {"Points": [{"co": {"Y": 0, "X": 1}, "interpolation": 2}]}, "waveform": false, "title": "arrow.mp4", "image": "/home/robsen/.openshot_qt/thumbnail/X22V56NF57.png", "gravity": 4, "scale_x": {"Points": [{"co": {"Y": 1, "X": 1}, "interpolation": 2}]}, "perspective_c1_y": {"Points": [{"co": {"Y": -1, "X": 1}, "interpolation": 2}]}, "crop_height": {"Points": [{"co": {"Y": -1, "X": 1}, "interpolation": 2}]}, "crop_x": {"Points": [{"co": {"Y": 0, "X": 1}, "interpolation": 2}]}, "start": 0, "scale": 1, "shear_y": {"Points": [{"co": {"Y": 0, "X": 1}, "interpolation": 2}]}, "display": 0, "volume": {"Points": [{"co": {"Y": 1, "X": 1}, "interpolation": 2}]}, "channel_mapping": {"Points": [{"co": {"Y": -1, "X": 1}, "interpolation": 2}]}, "anchor": 0, "duration": 15.0, "perspective_c3_y": {"Points": [{"co": {"Y": -1, "X": 1}, "interpolation": 2}]}, "shear_x": {"Points": [{"co": {"Y": 0, "X": 1}, "interpolation": 2}]}, "perspective_c4_x": {"Points": [{"co": {"Y": -1, "X": 1}, "interpolation": 2}]}, "location_y": {"Points": [{"co": {"Y": 0, "X": 1}, "interpolation": 2}]}, "perspective_c2_x": {"Points": [{"co": {"Y": -1, "X": 1}, "interpolation": 2}]}, "layer": 2, "perspective_c2_y": {"Points": [{"co": {"Y": -1, "X": 1}, "interpolation": 2}]}, "perspective_c1_x": {"Points": [{"co": {"Y": -1, "X": 1}, "interpolation": 2}]}, "perspective_c4_y": {"Points": [{"co": {"Y": -1, "X": 1}, "interpolation": 2}]}, "reader": {"audio_bit_rate": 0, "has_single_image": false, "vcodec": "h264", "has_video": true, "type": "FFmpegReader", "video_length": "375", "audio_timebase": {"den": 1, "num": 1}, "path": "/home/robsen/Dropbox/Workdir/Repo/SuesseRache-HH-Taxi/Videos/arrow.mp4", "width": 1920, "has_audio": false, "video_bit_rate": 83079, "channel_layout": 4, "height": 1080, "display_ratio": {"den": 9, "num": 16}, "interlaced_frame": false, "duration": 15.0, "sample_rate": 0, "pixel_format": 0, "video_timebase": {"den": 12800, "num": 1}, "file_size": "155774", "top_field_first": true, "pixel_ratio": {"den": 1, "num": 1}, "acodec": "", "audio_stream_index": -1, "video_stream_index": 0, "channels": 0, "fps": {"den": 1, "num": 25}}, "channel_filter": {"Points": [{"co": {"Y": -1, "X": 1}, "interpolation": 2}]}, "file_id": "X22V56NF57", "time": {"Points": [{"co": {"Y": 1, "X": 1}, "interpolation": 2}]}}], "partial": false, "key": ["clips"], "type": "insert"}, {"value": {"id": "47DJSIWW2E", "start": 0, "end": 15, "position": 11.68, "layer": 0, "image": "/home/robsen/.openshot_qt/thumbnail/LGW3TZJV4Q.png"}, "old_values": {"alpha": {"Points": [{"co": {"Y": 1, "X": 1}, "interpolation": 2}]}, "rotation": {"Points": [{"co": {"Y": 0, "X": 1}, "interpolation": 2}]}, "scale_y": {"Points": [{"co": {"Y": 1, "X": 1}, "interpolation": 2}]}, "crop_y": {"Points": [{"co": {"Y": 0, "X": 1}, "interpolation": 2}]}, "crop_width": {"Points": [{"co": {"Y": -1, "X": 1}, "interpolation": 2}]}, "end": 15.0, "perspective_c3_x": {"Points": [{"co": {"Y": -1, "X": 1}, "interpolation": 2}]}, "position": 0.0, "id": "47DJSIWW2E", "wave_color": {"alpha": {"Points": [{"handle_right": {"Y": 0, "X": 0.5}, "co": {"Y": 255, "X": 1}, "handle_left": {"Y": 1, "X": 0.5}, "handle_type": 0, "interpolation": 0}]}, "blue": {"Points": [{"handle_right": {"Y": 0, "X": 0.5}, "co": {"Y": 255, "X": 1}, "handle_left": {"Y": 1, "X": 0.5}, "handle_type": 0, "interpolation": 0}]}, "red": {"Points": [{"handle_right": {"Y": 0, "X": 0.5}, "co": {"Y": 0, "X": 1}, "handle_left": {"Y": 1, "X": 0.5}, "handle_type": 0, "interpolation": 0}]}, "green": {"Points": [{"handle_right": {"Y": 0, "X": 0.5}, "co": {"Y": 123, "X": 1}, "handle_left": {"Y": 1, "X": 0.5}, "handle_type": 0, "interpolation": 0}]}}, "has_video": {"Points": [{"co": {"Y": -1, "X": 1}, "interpolation": 2}]}, "has_audio": {"Points": [{"co": {"Y": -1, "X": 1}, "interpolation": 2}]}, "effects": [], "location_x": {"Points": [{"co": {"Y": 0, "X": 1}, "interpolation": 2}]}, "waveform": false, "gravity": 4, "image": "/home/robsen/.openshot_qt/thumbnail/LGW3TZJV4Q.png", "title": "taxi_start.mp4", "perspective_c2_x": {"Points": [{"co": {"Y": -1, "X": 1}, "interpolation": 2}]}, "perspective_c1_y": {"Points": [{"co": {"Y": -1, "X": 1}, "interpolation": 2}]}, "crop_height": {"Points": [{"co": {"Y": -1, "X": 1}, "interpolation": 2}]}, "crop_x": {"Points": [{"co": {"Y": 0, "X": 1}, "interpolation": 2}]}, "start": 0, "scale": 1, "location_y": {"Points": [{"co": {"Y": 0, "X": 1}, "interpolation": 2}]}, "shear_y": {"Points": [{"co": {"Y": 0, "X": 1}, "interpolation": 2}]}, "display": 0, "volume": {"Points": [{"co": {"Y": 1, "X": 1}, "interpolation": 2}]}, "anchor": 0, "duration": 15.0, "perspective_c3_y": {"Points": [{"co": {"Y": -1, "X": 1}, "interpolation": 2}]}, "shear_x": {"Points": [{"co": {"Y": 0, "X": 1}, "interpolation": 2}]}, "perspective_c4_x": {"Points": [{"co": {"Y": -1, "X": 1}, "interpolation": 2}]}, "perspective_c2_y": {"Points": [{"co": {"Y": -1, "X": 1}, "interpolation": 2}]}, "scale_x": {"Points": [{"co": {"Y": 1, "X": 1}, "interpolation": 2}]}, "layer": 2, "channel_mapping": {"Points": [{"co": {"Y": -1, "X": 1}, "interpolation": 2}]}, "perspective_c1_x": {"Points": [{"co": {"Y": -1, "X": 1}, "interpolation": 2}]}, "perspective_c4_y": {"Points": [{"co": {"Y": -1, "X": 1}, "interpolation": 2}]}, "reader": {"audio_bit_rate": 0, "has_single_image": false, "vcodec": "h264", "has_video": true, "type": "FFmpegReader", "video_length": "375", "audio_timebase": {"den": 1, "num": 1}, "path": "/home/robsen/Dropbox/Workdir/Repo/SuesseRache-HH-Taxi/Videos/taxi_start.mp4", "width": 1920, "has_audio": false, "video_bit_rate": 147692, "channel_layout": 4, "height": 1080, "display_ratio": {"den": 9, "num": 16}, "interlaced_frame": false, "duration": 15.0, "sample_rate": 0, "pixel_format": 0, "video_timebase": {"den": 12800, "num": 1}, "file_size": "276924", "top_field_first": true, "pixel_ratio": {"den": 1, "num": 1}, "acodec": "", "audio_stream_index": -1, "video_stream_index": 0, "channels": 0, "fps": {"den": 1, "num": 25}}, "channel_filter": {"Points": [{"co": {"Y": -1, "X": 1}, "interpolation": 2}]}, "file_id": "LGW3TZJV4Q", "time": {"Points": [{"co": {"Y": 1, "X": 1}, "interpolation": 2}]}}, "partial": false, "key": ["clips", {"id": "47DJSIWW2E"}], "type": "update"}, {"value": {"id": "47DJSIWW2E", "start": 0, "end": 15, "position": 0, "layer": 0, "image": "/home/robsen/.openshot_qt/thumbnail/LGW3TZJV4Q.png"}, "old_values": null, "partial": false, "key": ["clips", {"id": "47DJSIWW2E"}], "type": "update"}, {"value": {"id": "47DJSIWW2E", "start": 0, "end": 15, "position": 0, "layer": 0, "image": "/home/robsen/.openshot_qt/thumbnail/LGW3TZJV4Q.png"}, "old_values": null, "partial": false, "key": ["clips", {"id": "47DJSIWW2E"}], "type": "update"}, {"value": {"id": "47DJSIWW2E", "start": 0, "end": 15, "position": 0, "layer": 0, "image": "/home/robsen/.openshot_qt/thumbnail/LGW3TZJV4Q.png"}, "old_values": null, "partial": false, "key": ["clips", {"id": "47DJSIWW2E"}], "type": "update"}, {"value": {"end": 5.0}, "old_values": {"alpha": {"Points": [{"co": {"Y": 1, "X": 1}, "interpolation": 2}]}, "rotation": {"Points": [{"co": {"Y": 0, "X": 1}, "interpolation": 2}]}, "scale_y": {"Points": [{"co": {"Y": 1, "X": 1}, "interpolation": 2}]}, "crop_y": {"Points": [{"co": {"Y": 0, "X": 1}, "interpolation": 2}]}, "crop_width": {"Points": [{"co": {"Y": -1, "X": 1}, "interpolation": 2}]}, "end": 15, "perspective_c3_x": {"Points": [{"co": {"Y": -1, "X": 1}, "interpolation": 2}]}, "position": 0, "id": "47DJSIWW2E", "wave_color": {"alpha": {"Points": [{"handle_right": {"Y": 0, "X": 0.5}, "co": {"Y": 255, "X": 1}, "handle_left": {"Y": 1, "X": 0.5}, "handle_type": 0, "interpolation": 0}]}, "blue": {"Points": [{"handle_right": {"Y": 0, "X": 0.5}, "co": {"Y": 255, "X": 1}, "handle_left": {"Y": 1, "X": 0.5}, "handle_type": 0, "interpolation": 0}]}, "red": {"Points": [{"handle_right": {"Y": 0, "X": 0.5}, "co": {"Y": 0, "X": 1}, "handle_left": {"Y": 1, "X": 0.5}, "handle_type": 0, "interpolation": 0}]}, "green": {"Points": [{"handle_right": {"Y": 0, "X": 0.5}, "co": {"Y": 123, "X": 1}, "handle_left": {"Y": 1, "X": 0.5}, "handle_type": 0, "interpolation": 0}]}}, "has_video": {"Points": [{"co": {"Y": -1, "X": 1}, "interpolation": 2}]}, "has_audio": {"Points": [{"co": {"Y": -1, "X": 1}, "interpolation": 2}]}, "effects": [], "location_x": {"Points": [{"co": {"Y": 0, "X": 1}, "interpolation": 2}]}, "waveform": false, "title": "taxi_start.mp4", "image": "/home/robsen/.openshot_qt/thumbnail/LGW3TZJV4Q.png", "gravity": 4, "perspective_c2_x": {"Points": [{"co": {"Y": -1, "X": 1}, "interpolation": 2}]}, "perspective_c1_y": {"Points": [{"co": {"Y": -1, "X": 1}, "interpolation": 2}]}, "crop_height": {"Points": [{"co": {"Y": -1, "X": 1}, "interpolation": 2}]}, "crop_x": {"Points": [{"co": {"Y": 0, "X": 1}, "interpolation": 2}]}, "start": 0, "scale": 1, "location_y": {"Points": [{"co": {"Y": 0, "X": 1}, "interpolation": 2}]}, "shear_y": {"Points": [{"co": {"Y": 0, "X": 1}, "interpolation": 2}]}, "display": 0, "volume": {"Points": [{"co": {"Y": 1, "X": 1}, "interpolation": 2}]}, "anchor": 0, "duration": 15.0, "perspective_c3_y": {"Points": [{"co": {"Y": -1, "X": 1}, "interpolation": 2}]}, "shear_x": {"Points": [{"co": {"Y": 0, "X": 1}, "interpolation": 2}]}, "perspective_c4_x": {"Points": [{"co": {"Y": -1, "X": 1}, "interpolation": 2}]}, "perspective_c2_y": {"Points": [{"co": {"Y": -1, "X": 1}, "interpolation": 2}]}, "scale_x": {"Points": [{"co": {"Y": 1, "X": 1}, "interpolation": 2}]}, "layer": 0, "channel_mapping": {"Points": [{"co": {"Y": -1, "X": 1}, "interpolation": 2}]}, "perspective_c1_x": {"Points": [{"co": {"Y": -1, "X": 1}, "interpolation": 2}]}, "perspective_c4_y": {"Points": [{"co": {"Y": -1, "X": 1}, "interpolation": 2}]}, "reader": {"audio_bit_rate": 0, "has_single_image": false, "vcodec": "h264", "has_video": true, "type": "FFmpegReader", "video_length": "375", "audio_timebase": {"den": 1, "num": 1}, "path": "/home/robsen/Dropbox/Workdir/Repo/SuesseRache-HH-Taxi/Videos/taxi_start.mp4", "width": 1920, "has_audio": false, "video_bit_rate": 147692, "channel_layout": 4, "height": 1080, "display_ratio": {"den": 9, "num": 16}, "interlaced_frame": false, "duration": 15.0, "sample_rate": 0, "pixel_format": 0, "video_timebase": {"den": 12800, "num": 1}, "file_size": "276924", "top_field_first": true, "pixel_ratio": {"den": 1, "num": 1}, "acodec": "", "audio_stream_index": -1, "video_stream_index": 0, "channels": 0, "fps": {"den": 1, "num": 25}}, "channel_filter": {"Points": [{"co": {"Y": -1, "X": 1}, "interpolation": 2}]}, "file_id": "LGW3TZJV4Q", "time": {"Points": [{"co": {"Y": 1, "X": 1}, "interpolation": 2}]}}, "partial": false, "key": ["clips", {"id": "47DJSIWW2E"}], "type": "update"}, {"value": {"alpha": {"Points": [{"co": {"Y": 1, "X": 1}, "interpolation": 2}, {"handle_right": {"Y": 0, "X": 0.5}, "co": {"Y": 1, "X": 49}, "handle_left": {"Y": 1, "X": 0.5}, "handle_type": 0, "interpolation": 0}, {"handle_right": {"Y": 0, "X": 0.5}, "co": {"Y": 0, "X": 121}, "handle_left": {"Y": 1, "X": 0.5}, "handle_type": 0, "interpolation": 0}]}, "rotation": {"Points": [{"co": {"Y": 0, "X": 1}, "interpolation": 2}]}, "scale_y": {"Points": [{"co": {"Y": 1, "X": 1}, "interpolation": 2}]}, "crop_y": {"Points": [{"co": {"Y": 0, "X": 1}, "interpolation": 2}]}, "crop_width": {"Points": [{"co": {"Y": -1, "X": 1}, "interpolation": 2}]}, "end": 5.0, "perspective_c3_x": {"Points": [{"co": {"Y": -1, "X": 1}, "interpolation": 2}]}, "position": 0, "id": "47DJSIWW2E", "wave_color": {"alpha": {"Points": [{"handle_right": {"Y": 0, "X": 0.5}, "co": {"Y": 255, "X": 1}, "handle_left": {"Y": 1, "X": 0.5}, "handle_type": 0, "interpolation": 0}]}, "blue": {"Points": [{"handle_right": {"Y": 0, "X": 0.5}, "co": {"Y": 255, "X": 1}, "handle_left": {"Y": 1, "X": 0.5}, "handle_type": 0, "interpolation": 0}]}, "red": {"Points": [{"handle_right": {"Y": 0, "X": 0.5}, "co": {"Y": 0, "X": 1}, "handle_left": {"Y": 1, "X": 0.5}, "handle_type": 0, "interpolation": 0}]}, "green": {"Points": [{"handle_right": {"Y": 0, "X": 0.5}, "co": {"Y": 123, "X": 1}, "handle_left": {"Y": 1, "X": 0.5}, "handle_type": 0, "interpolation": 0}]}}, "has_video": {"Points": [{"co": {"Y": -1, "X": 1}, "interpolation": 2}]}, "has_audio": {"Points": [{"co": {"Y": -1, "X": 1}, "interpolation": 2}]}, "effects": [], "location_x": {"Points": [{"co": {"Y": 0, "X": 1}, "interpolation": 2}]}, "waveform": false, "title": "taxi_start.mp4", "image": "/home/robsen/.openshot_qt/thumbnail/LGW3TZJV4Q.png", "gravity": 4, "perspective_c2_x": {"Points": [{"co": {"Y": -1, "X": 1}, "interpolation": 2}]}, "perspective_c1_y": {"Points": [{"co": {"Y": -1, "X": 1}, "interpolation": 2}]}, "crop_height": {"Points": [{"co": {"Y": -1, "X": 1}, "interpolation": 2}]}, "crop_x": {"Points": [{"co": {"Y": 0, "X": 1}, "interpolation": 2}]}, "start": 0, "scale": 1, "shear_y": {"Points": [{"co": {"Y": 0, "X": 1}, "interpolation": 2}]}, "display": 0, "volume": {"Points": [{"co": {"Y": 1, "X": 1}, "interpolation": 2}]}, "anchor": 0, "duration": 15.0, "perspective_c3_y": {"Points": [{"co": {"Y": -1, "X": 1}, "interpolation": 2}]}, "shear_x": {"Points": [{"co": {"Y": 0, "X": 1}, "interpolation": 2}]}, "perspective_c4_x": {"Points": [{"co": {"Y": -1, "X": 1}, "interpolation": 2}]}, "perspective_c2_y": {"Points": [{"co": {"Y": -1, "X": 1}, "interpolation": 2}]}, "scale_x": {"Points": [{"co": {"Y": 1, "X": 1}, "interpolation": 2}]}, "layer": 0, "channel_mapping": {"Points": [{"co": {"Y": -1, "X": 1}, "interpolation": 2}]}, "perspective_c1_x": {"Points": [{"co": {"Y": -1, "X": 1}, "interpolation": 2}]}, "perspective_c4_y": {"Points": [{"co": {"Y": -1, "X": 1}, "interpolation": 2}]}, "location_y": {"Points": [{"co": {"Y": 0, "X": 1}, "interpolation": 2}]}, "channel_filter": {"Points": [{"co": {"Y": -1, "X": 1}, "interpolation": 2}]}, "file_id": "LGW3TZJV4Q", "time": {"Points": [{"co": {"Y": 1, "X": 1}, "interpolation": 2}]}}, "old_values": {"alpha": {"Points": [{"co": {"Y": 1, "X": 1}, "interpolation": 2}]}, "rotation": {"Points": [{"co": {"Y": 0, "X": 1}, "interpolation": 2}]}, "scale_y": {"Points": [{"co": {"Y": 1, "X": 1}, "interpolation": 2}]}, "crop_y": {"Points": [{"co": {"Y": 0, "X": 1}, "interpolation": 2}]}, "crop_width": {"Points": [{"co": {"Y": -1, "X": 1}, "interpolation": 2}]}, "end": 5.0, "perspective_c3_x": {"Points": [{"co": {"Y": -1, "X": 1}, "interpolation": 2}]}, "position": 0, "id": "47DJSIWW2E", "wave_color": {"alpha": {"Points": [{"handle_right": {"Y": 0, "X": 0.5}, "co": {"Y": 255, "X": 1}, "handle_left": {"Y": 1, "X": 0.5}, "handle_type": 0, "interpolation": 0}]}, "blue": {"Points": [{"handle_right": {"Y": 0, "X": 0.5}, "co": {"Y": 255, "X": 1}, "handle_left": {"Y": 1, "X": 0.5}, "handle_type": 0, "interpolation": 0}]}, "red": {"Points": [{"handle_right": {"Y": 0, "X": 0.5}, "co": {"Y": 0, "X": 1}, "handle_left": {"Y": 1, "X": 0.5}, "handle_type": 0, "interpolation": 0}]}, "green": {"Points": [{"handle_right": {"Y": 0, "X": 0.5}, "co": {"Y": 123, "X": 1}, "handle_left": {"Y": 1, "X": 0.5}, "handle_type": 0, "interpolation": 0}]}}, "has_video": {"Points": [{"co": {"Y": -1, "X": 1}, "interpolation": 2}]}, "has_audio": {"Points": [{"co": {"Y": -1, "X": 1}, "interpolation": 2}]}, "effects": [], "location_x": {"Points": [{"co": {"Y": 0, "X": 1}, "interpolation": 2}]}, "waveform": false, "title": "taxi_start.mp4", "image": "/home/robsen/.openshot_qt/thumbnail/LGW3TZJV4Q.png", "gravity": 4, "perspective_c2_x": {"Points": [{"co": {"Y": -1, "X": 1}, "interpolation": 2}]}, "perspective_c1_y": {"Points": [{"co": {"Y": -1, "X": 1}, "interpolation": 2}]}, "crop_height": {"Points": [{"co": {"Y": -1, "X": 1}, "interpolation": 2}]}, "crop_x": {"Points": [{"co": {"Y": 0, "X": 1}, "interpolation": 2}]}, "start": 0, "scale": 1, "location_y": {"Points": [{"co": {"Y": 0, "X": 1}, "interpolation": 2}]}, "shear_y": {"Points": [{"co": {"Y": 0, "X": 1}, "interpolation": 2}]}, "display": 0, "volume": {"Points": [{"co": {"Y": 1, "X": 1}, "interpolation": 2}]}, "anchor": 0, "duration": 15.0, "perspective_c3_y": {"Points": [{"co": {"Y": -1, "X": 1}, "interpolation": 2}]}, "shear_x": {"Points": [{"co": {"Y": 0, "X": 1}, "interpolation": 2}]}, "perspective_c4_x": {"Points": [{"co": {"Y": -1, "X": 1}, "interpolation": 2}]}, "perspective_c2_y": {"Points": [{"co": {"Y": -1, "X": 1}, "interpolation": 2}]}, "scale_x": {"Points": [{"co": {"Y": 1, "X": 1}, "interpolation": 2}]}, "layer": 0, "channel_mapping": {"Points": [{"co": {"Y": -1, "X": 1}, "interpolation": 2}]}, "perspective_c1_x": {"Points": [{"co": {"Y": -1, "X": 1}, "interpolation": 2}]}, "perspective_c4_y": {"Points": [{"co": {"Y": -1, "X": 1}, "interpolation": 2}]}, "reader": {"audio_bit_rate": 0, "has_single_image": false, "vcodec": "h264", "has_video": true, "type": "FFmpegReader", "video_length": "375", "audio_timebase": {"den": 1, "num": 1}, "path": "/home/robsen/Dropbox/Workdir/Repo/SuesseRache-HH-Taxi/Videos/taxi_start.mp4", "width": 1920, "has_audio": false, "video_bit_rate": 147692, "channel_layout": 4, "height": 1080, "display_ratio": {"den": 9, "num": 16}, "interlaced_frame": false, "duration": 15.0, "sample_rate": 0, "pixel_format": 0, "video_timebase": {"den": 12800, "num": 1}, "file_size": "276924", "top_field_first": true, "pixel_ratio": {"den": 1, "num": 1}, "acodec": "", "audio_stream_index": -1, "video_stream_index": 0, "channels": 0, "fps": {"den": 1, "num": 25}}, "channel_filter": {"Points": [{"co": {"Y": -1, "X": 1}, "interpolation": 2}]}, "file_id": "LGW3TZJV4Q", "time": {"Points": [{"co": {"Y": 1, "X": 1}, "interpolation": 2}]}}, "partial": false, "key": ["clips", {"id": "47DJSIWW2E"}], "type": "update"}, {"value": {"alpha": {"Points": [{"co": {"Y": 1, "X": 1}, "interpolation": 2}]}, "scale_y": {"Points": [{"co": {"Y": 1, "X": 1}, "interpolation": 2}]}, "crop_y": {"Points": [{"co": {"Y": 0, "X": 1}, "interpolation": 2}]}, "perspective_c3_x": {"Points": [{"co": {"Y": -1, "X": 1}, "interpolation": 2}]}, "crop_width": {"Points": [{"co": {"Y": -1, "X": 1}, "interpolation": 2}]}, "position": 2.04, "has_video": {"Points": [{"co": {"Y": -1, "X": 1}, "interpolation": 2}]}, "layer": 1, "volume": {"Points": [{"co": {"Y": 1, "X": 1}, "interpolation": 2}]}, "wave_color": {"alpha": {"Points": [{"handle_right": {"Y": 0, "X": 0.5}, "co": {"Y": 255, "X": 1}, "handle_left": {"Y": 1, "X": 0.5}, "handle_type": 0, "interpolation": 0}]}, "blue": {"Points": [{"handle_right": {"Y": 0, "X": 0.5}, "co": {"Y": 255, "X": 1}, "handle_left": {"Y": 1, "X": 0.5}, "handle_type": 0, "interpolation": 0}]}, "red": {"Points": [{"handle_right": {"Y": 0, "X": 0.5}, "co": {"Y": 0, "X": 1}, "handle_left": {"Y": 1, "X": 0.5}, "handle_type": 0, "interpolation": 0}]}, "green": {"Points": [{"handle_right": {"Y": 0, "X": 0.5}, "co": {"Y": 123, "X": 1}, "handle_left": {"Y": 1, "X": 0.5}, "handle_type": 0, "interpolation": 0}]}}, "perspective_c4_y": {"Points": [{"co": {"Y": -1, "X": 1}, "interpolation": 2}]}, "id": "B7IJAZMQBJ", "has_audio": {"Points": [{"co": {"Y": -1, "X": 1}, "interpolation": 2}]}, "effects": [], "location_x": {"Points": [{"co": {"Y": 0, "X": 1}, "interpolation": 2}]}, "waveform": false, "gravity": 4, "image": "/home/robsen/.openshot_qt/thumbnail/Z3LOYBY1PL.png", "title": "TE_SR_Taxi.mp4", "perspective_c2_x": {"Points": [{"co": {"Y": -1, "X": 1}, "interpolation": 2}]}, "perspective_c1_y": {"Points": [{"co": {"Y": -1, "X": 1}, "interpolation": 2}]}, "crop_height": {"Points": [{"co": {"Y": -1, "X": 1}, "interpolation": 2}]}, "crop_x": {"Points": [{"co": {"Y": 0, "X": 1}, "interpolation": 2}]}, "start": 0, "scale": 1, "location_y": {"Points": [{"co": {"Y": 0, "X": 1}, "interpolation": 2}]}, "shear_y": {"Points": [{"co": {"Y": 0, "X": 1}, "interpolation": 2}]}, "display": 0, "channel_filter": {"Points": [{"co": {"Y": -1, "X": 1}, "interpolation": 2}]}, "anchor": 0, "duration": 31.317333221435547, "perspective_c3_y": {"Points": [{"co": {"Y": -1, "X": 1}, "interpolation": 2}]}, "shear_x": {"Points": [{"co": {"Y": 0, "X": 1}, "interpolation": 2}]}, "perspective_c4_x": {"Points": [{"co": {"Y": -1, "X": 1}, "interpolation": 2}]}, "perspective_c2_y": {"Points": [{"co": {"Y": -1, "X": 1}, "interpolation": 2}]}, "scale_x": {"Points": [{"co": {"Y": 1, "X": 1}, "interpolation": 2}]}, "rotation": {"Points": [{"co": {"Y": 0, "X": 1}, "interpolation": 2}]}, "channel_mapping": {"Points": [{"co": {"Y": -1, "X": 1}, "interpolation": 2}]}, "perspective_c1_x": {"Points": [{"co": {"Y": -1, "X": 1}, "interpolation": 2}]}, "end": 31.317333221435547, "reader": {"audio_bit_rate": 189375, "has_single_image": false, "vcodec": "h264", "has_video": true, "type": "FFmpegReader", "video_length": "937", "audio_timebase": {"den": 48000, "num": 1}, "path": "/home/robsen/Dropbox/Workdir/Repo/SuesseRache-HH-Taxi/Videos/TE_SR_Taxi.mp4", "width": 1920, "has_audio": true, "video_bit_rate": 32091692, "channel_layout": 3, "height": 1080, "display_ratio": {"den": 9, "num": 16}, "interlaced_frame": false, "duration": 31.317333221435547, "sample_rate": 48000, "pixel_format": 0, "video_timebase": {"den": 29970, "num": 1}, "file_size": "125628279", "top_field_first": true, "pixel_ratio": {"den": 1, "num": 1}, "acodec": "aac", "audio_stream_index": 1, "video_stream_index": 0, "channels": 2, "fps": {"den": 100, "num": 2997}}, "time": {"Points": [{"co": {"Y": 1, "X": 1}, "interpolation": 2}]}, "file_id": "Z3LOYBY1PL"}, "old_values": [{"alpha": {"Points": [{"co": {"Y": 1, "X": 1}, "interpolation": 2}, {"handle_right": {"Y": 0, "X": 0.5}, "co": {"Y": 0, "X": 1}, "handle_left": {"Y": 1, "X": 0.5}, "handle_type": 0, "interpolation": 0}, {"handle_right": {"Y": 0, "X": 0.5}, "co": {"Y": 1, "X": 73}, "handle_left": {"Y": 1, "X": 0.5}, "handle_type": 0, "interpolation": 0}]}, "rotation": {"Points": [{"co": {"Y": 0, "X": 1}, "interpolation": 2}]}, "scale_y": {"Points": [{"co": {"Y": 1, "X": 1}, "interpolation": 2}]}, "crop_y": {"Points": [{"co": {"Y": 0, "X": 1}, "interpolation": 2}]}, "crop_width": {"Points": [{"co": {"Y": -1, "X": 1}, "interpolation": 2}]}, "end": 5, "perspective_c3_x": {"Points": [{"co": {"Y": -1, "X": 1}, "interpolation": 2}]}, "position": 30.0, "id": "PJWPMFXKV3", "wave_color": {"green": {"Points": [{"handle_right": {"Y": 0, "X": 0.5}, "co": {"Y": 123, "X": 1}, "handle_left": {"Y": 1, "X": 0.5}, "handle_type": 0, "interpolation": 0}]}, "blue": {"Points": [{"handle_right": {"Y": 0, "X": 0.5}, "co": {"Y": 255, "X": 1}, "handle_left": {"Y": 1, "X": 0.5}, "handle_type": 0, "interpolation": 0}]}, "alpha": {"Points": [{"handle_right": {"Y": 0, "X": 0.5}, "co": {"Y": 255, "X": 1}, "handle_left": {"Y": 1, "X": 0.5}, "handle_type": 0, "interpolation": 0}]}, "red": {"Points": [{"handle_right": {"Y": 0, "X": 0.5}, "co": {"Y": 0, "X": 1}, "handle_left": {"Y": 1, "X": 0.5}, "handle_type": 0, "interpolation": 0}]}}, "has_video": {"Points": [{"co": {"Y": -1, "X": 1}, "interpolation": 2}]}, "has_audio": {"Points": [{"co": {"Y": -1, "X": 1}, "interpolation": 2}]}, "effects": [], "location_x": {"Points": [{"co": {"Y": 0, "X": 1}, "interpolation": 2}]}, "waveform": false, "title": "arrow.mp4", "image": "/home/robsen/.openshot_qt/thumbnail/X22V56NF57.png", "gravity": 4, "scale_x": {"Points": [{"co": {"Y": 1, "X": 1}, "interpolation": 2}]}, "perspective_c1_y": {"Points": [{"co": {"Y": -1, "X": 1}, "interpolation": 2}]}, "crop_height": {"Points": [{"co": {"Y": -1, "X": 1}, "interpolation": 2}]}, "crop_x": {"Points": [{"co": {"Y": 0, "X": 1}, "interpolation": 2}]}, "start": 0, "scale": 1, "shear_y": {"Points": [{"co": {"Y": 0, "X": 1}, "interpolation": 2}]}, "display": 0, "volume": {"Points": [{"co": {"Y": 1, "X": 1}, "interpolation": 2}]}, "channel_mapping": {"Points": [{"co": {"Y": -1, "X": 1}, "interpolation": 2}]}, "anchor": 0, "duration": 15.0, "perspective_c3_y": {"Points": [{"co": {"Y": -1, "X": 1}, "interpolation": 2}]}, "shear_x": {"Points": [{"co": {"Y": 0, "X": 1}, "interpolation": 2}]}, "perspective_c4_x": {"Points": [{"co": {"Y": -1, "X": 1}, "interpolation": 2}]}, "location_y": {"Points": [{"co": {"Y": 0, "X": 1}, "interpolation": 2}]}, "perspective_c2_x": {"Points": [{"co": {"Y": -1, "X": 1}, "interpolation": 2}]}, "layer": 2, "perspective_c2_y": {"Points": [{"co": {"Y": -1, "X": 1}, "interpolation": 2}]}, "perspective_c1_x": {"Points": [{"co": {"Y": -1, "X": 1}, "interpolation": 2}]}, "perspective_c4_y": {"Points": [{"co": {"Y": -1, "X": 1}, "interpolation": 2}]}, "reader": {"audio_bit_rate": 0, "has_single_image": false, "vcodec": "h264", "has_video": true, "type": "FFmpegReader", "video_length": "375", "audio_timebase": {"den": 1, "num": 1}, "path": "/home/robsen/Dropbox/Workdir/Repo/SuesseRache-HH-Taxi/Videos/arrow.mp4", "width": 1920, "has_audio": false, "video_bit_rate": 83079, "channel_layout": 4, "height": 1080, "display_ratio": {"den": 9, "num": 16}, "interlaced_frame": false, "duration": 15.0, "sample_rate": 0, "pixel_format": 0, "video_timebase": {"den": 12800, "num": 1}, "file_size": "155774", "top_field_first": true, "pixel_ratio": {"den": 1, "num": 1}, "acodec": "", "audio_stream_index": -1, "video_stream_index": 0, "channels": 0, "fps": {"den": 1, "num": 25}}, "channel_filter": {"Points": [{"co": {"Y": -1, "X": 1}, "interpolation": 2}]}, "file_id": "X22V56NF57", "time": {"Points": [{"co": {"Y": 1, "X": 1}, "interpolation": 2}]}}, {"alpha": {"Points": [{"co": {"Y": 1, "X": 1}, "interpolation": 2}, {"handle_right": {"Y": 0, "X": 0.5}, "co": {"Y": 1, "X": 49}, "handle_left": {"Y": 1, "X": 0.5}, "handle_type": 0, "interpolation": 0}, {"handle_right": {"Y": 0, "X": 0.5}, "co": {"Y": 0, "X": 121}, "handle_left": {"Y": 1, "X": 0.5}, "handle_type": 0, "interpolation": 0}]}, "rotation": {"Points": [{"co": {"Y": 0, "X": 1}, "interpolation": 2}]}, "scale_y": {"Points": [{"co": {"Y": 1, "X": 1}, "interpolation": 2}]}, "crop_y": {"Points": [{"co": {"Y": 0, "X": 1}, "interpolation": 2}]}, "crop_width": {"Points": [{"co": {"Y": -1, "X": 1}, "interpolation": 2}]}, "end": 5.0, "perspective_c3_x": {"Points": [{"co": {"Y": -1, "X": 1}, "interpolation": 2}]}, "position": 0, "id": "47DJSIWW2E", "wave_color": {"green": {"Points": [{"handle_right": {"Y": 0, "X": 0.5}, "co": {"Y": 123, "X": 1}, "handle_left": {"Y": 1, "X": 0.5}, "handle_type": 0, "interpolation": 0}]}, "blue": {"Points": [{"handle_right": {"Y": 0, "X": 0.5}, "co": {"Y": 255, "X": 1}, "handle_left": {"Y": 1, "X": 0.5}, "handle_type": 0, "interpolation": 0}]}, "alpha": {"Points": [{"handle_right": {"Y": 0, "X": 0.5}, "co": {"Y": 255, "X": 1}, "handle_left": {"Y": 1, "X": 0.5}, "handle_type": 0, "interpolation": 0}]}, "red": {"Points": [{"handle_right": {"Y": 0, "X": 0.5}, "co": {"Y": 0, "X": 1}, "handle_left": {"Y": 1, "X": 0.5}, "handle_type": 0, "interpolation": 0}]}}, "has_video": {"Points": [{"co": {"Y": -1, "X": 1}, "interpolation": 2}]}, "has_audio": {"Points": [{"co": {"Y": -1, "X": 1}, "interpolation": 2}]}, "effects": [], "location_x": {"Points": [{"co": {"Y": 0, "X": 1}, "interpolation": 2}]}, "waveform": false, "title": "taxi_start.mp4", "image": "/home/robsen/.openshot_qt/thumbnail/LGW3TZJV4Q.png", "gravity": 4, "perspective_c2_x": {"Points": [{"co": {"Y": -1, "X": 1}, "interpolation": 2}]}, "perspective_c1_y": {"Points": [{"co": {"Y": -1, "X": 1}, "interpolation": 2}]}, "crop_height": {"Points": [{"co": {"Y": -1, "X": 1}, "interpolation": 2}]}, "crop_x": {"Points": [{"co": {"Y": 0, "X": 1}, "interpolation": 2}]}, "start": 0, "scale": 1, "location_y": {"Points": [{"co": {"Y": 0, "X": 1}, "interpolation": 2}]}, "shear_y": {"Points": [{"co": {"Y": 0, "X": 1}, "interpolation": 2}]}, "display": 0, "volume": {"Points": [{"co": {"Y": 1, "X": 1}, "interpolation": 2}]}, "anchor": 0, "duration": 15.0, "perspective_c3_y": {"Points": [{"co": {"Y": -1, "X": 1}, "interpolation": 2}]}, "shear_x": {"Points": [{"co": {"Y": 0, "X": 1}, "interpolation": 2}]}, "perspective_c4_x": {"Points": [{"co": {"Y": -1, "X": 1}, "interpolation": 2}]}, "perspective_c2_y": {"Points": [{"co": {"Y": -1, "X": 1}, "interpolation": 2}]}, "scale_x": {"Points": [{"co": {"Y": 1, "X": 1}, "interpolation": 2}]}, "layer": 0, "channel_mapping": {"Points": [{"co": {"Y": -1, "X": 1}, "interpolation": 2}]}, "perspective_c1_x": {"Points": [{"co": {"Y": -1, "X": 1}, "interpolation": 2}]}, "perspective_c4_y": {"Points": [{"co": {"Y": -1, "X": 1}, "interpolation": 2}]}, "reader": {"audio_bit_rate": 0, "has_single_image": false, "vcodec": "h264", "has_video": true, "type": "FFmpegReader", "video_length": "375", "audio_timebase": {"den": 1, "num": 1}, "path": "/home/robsen/Dropbox/Workdir/Repo/SuesseRache-HH-Taxi/Videos/taxi_start.mp4", "width": 1920, "has_audio": false, "video_bit_rate": 147692, "channel_layout": 4, "height": 1080, "display_ratio": {"den": 9, "num": 16}, "interlaced_frame": false, "duration": 15.0, "sample_rate": 0, "pixel_format": 0, "video_timebase": {"den": 12800, "num": 1}, "file_size": "276924", "top_field_first": true, "pixel_ratio": {"den": 1, "num": 1}, "acodec": "", "audio_stream_index": -1, "video_stream_index": 0, "channels": 0, "fps": {"den": 1, "num": 25}}, "channel_filter": {"Points": [{"co": {"Y": -1, "X": 1}, "interpolation": 2}]}, "file_id": "LGW3TZJV4Q", "time": {"Points": [{"co": {"Y": 1, "X": 1}, "interpolation": 2}]}}], "partial": false, "key": ["clips"], "type": "insert"}, {"value": {"id": "B7IJAZMQBJ", "start": 0, "end": 31.317333221435547, "position": 16.64, "layer": 1, "image": "/home/robsen/.openshot_qt/thumbnail/Z3LOYBY1PL.png"}, "old_values": {"alpha": {"Points": [{"co": {"Y": 1, "X": 1}, "interpolation": 2}]}, "rotation": {"Points": [{"co": {"Y": 0, "X": 1}, "interpolation": 2}]}, "scale_y": {"Points": [{"co": {"Y": 1, "X": 1}, "interpolation": 2}]}, "crop_y": {"Points": [{"co": {"Y": 0, "X": 1}, "interpolation": 2}]}, "crop_width": {"Points": [{"co": {"Y": -1, "X": 1}, "interpolation": 2}]}, "end": 31.317333221435547, "perspective_c3_x": {"Points": [{"co": {"Y": -1, "X": 1}, "interpolation": 2}]}, "position": 0.0, "id": "B7IJAZMQBJ", "wave_color": {"alpha": {"Points": [{"handle_right": {"Y": 0, "X": 0.5}, "co": {"Y": 255, "X": 1}, "handle_left": {"Y": 1, "X": 0.5}, "handle_type": 0, "interpolation": 0}]}, "blue": {"Points": [{"handle_right": {"Y": 0, "X": 0.5}, "co": {"Y": 255, "X": 1}, "handle_left": {"Y": 1, "X": 0.5}, "handle_type": 0, "interpolation": 0}]}, "red": {"Points": [{"handle_right": {"Y": 0, "X": 0.5}, "co": {"Y": 0, "X": 1}, "handle_left": {"Y": 1, "X": 0.5}, "handle_type": 0, "interpolation": 0}]}, "green": {"Points": [{"handle_right": {"Y": 0, "X": 0.5}, "co": {"Y": 123, "X": 1}, "handle_left": {"Y": 1, "X": 0.5}, "handle_type": 0, "interpolation": 0}]}}, "has_video": {"Points": [{"co": {"Y": -1, "X": 1}, "interpolation": 2}]}, "has_audio": {"Points": [{"co": {"Y": -1, "X": 1}, "interpolation": 2}]}, "effects": [], "location_x": {"Points": [{"co": {"Y": 0, "X": 1}, "interpolation": 2}]}, "waveform": false, "gravity": 4, "image": "/home/robsen/.openshot_qt/thumbnail/Z3LOYBY1PL.png", "title": "TE_SR_Taxi.mp4", "perspective_c2_x": {"Points": [{"co": {"Y": -1, "X": 1}, "interpolation": 2}]}, "perspective_c1_y": {"Points": [{"co": {"Y": -1, "X": 1}, "interpolation": 2}]}, "crop_height": {"Points": [{"co": {"Y": -1, "X": 1}, "interpolation": 2}]}, "crop_x": {"Points": [{"co": {"Y": 0, "X": 1}, "interpolation": 2}]}, "start": 0, "scale": 1, "location_y": {"Points": [{"co": {"Y": 0, "X": 1}, "interpolation": 2}]}, "shear_y": {"Points": [{"co": {"Y": 0, "X": 1}, "interpolation": 2}]}, "display": 0, "volume": {"Points": [{"co": {"Y": 1, "X": 1}, "interpolation": 2}]}, "anchor": 0, "duration": 31.317333221435547, "perspective_c3_y": {"Points": [{"co": {"Y": -1, "X": 1}, "interpolation": 2}]}, "shear_x": {"Points": [{"co": {"Y": 0, "X": 1}, "interpolation": 2}]}, "perspective_c4_x": {"Points": [{"co": {"Y": -1, "X": 1}, "interpolation": 2}]}, "perspective_c2_y": {"Points": [{"co": {"Y": -1, "X": 1}, "interpolation": 2}]}, "scale_x": {"Points": [{"co": {"Y": 1, "X": 1}, "interpolation": 2}]}, "layer": 2, "channel_mapping": {"Points": [{"co": {"Y": -1, "X": 1}, "interpolation": 2}]}, "perspective_c1_x": {"Points": [{"co": {"Y": -1, "X": 1}, "interpolation": 2}]}, "perspective_c4_y": {"Points": [{"co": {"Y": -1, "X": 1}, "interpolation": 2}]}, "reader": {"audio_bit_rate": 189375, "has_single_image": false, "vcodec": "h264", "has_video": true, "type": "FFmpegReader", "video_length": "937", "audio_timebase": {"den": 48000, "num": 1}, "path": "/home/robsen/Dropbox/Workdir/Repo/SuesseRache-HH-Taxi/Videos/TE_SR_Taxi.mp4", "width": 1920, "has_audio": true, "video_bit_rate": 32091692, "channel_layout": 3, "height": 1080, "display_ratio": {"den": 9, "num": 16}, "interlaced_frame": false, "duration": 31.317333221435547, "sample_rate": 48000, "pixel_format": 0, "video_timebase": {"den": 29970, "num": 1}, "file_size": "125628279", "top_field_first": true, "pixel_ratio": {"den": 1, "num": 1}, "acodec": "aac", "audio_stream_index": 1, "video_stream_index": 0, "channels": 2, "fps": {"den": 100, "num": 2997}}, "channel_filter": {"Points": [{"co": {"Y": -1, "X": 1}, "interpolation": 2}]}, "file_id": "Z3LOYBY1PL", "time": {"Points": [{"co": {"Y": 1, "X": 1}, "interpolation": 2}]}}, "partial": false, "key": ["clips", {"id": "B7IJAZMQBJ"}], "type": "update"}, {"value": {"id": "B7IJAZMQBJ", "start": 0, "end": 31.317333221435547, "position": 3.8000000000000007, "layer": 1, "image": "/home/robsen/.openshot_qt/thumbnail/Z3LOYBY1PL.png"}, "old_values": {"alpha": {"Points": [{"co": {"Y": 1, "X": 1}, "interpolation": 2}]}, "rotation": {"Points": [{"co": {"Y": 0, "X": 1}, "interpolation": 2}]}, "scale_y": {"Points": [{"co": {"Y": 1, "X": 1}, "interpolation": 2}]}, "crop_y": {"Points": [{"co": {"Y": 0, "X": 1}, "interpolation": 2}]}, "crop_width": {"Points": [{"co": {"Y": -1, "X": 1}, "interpolation": 2}]}, "end": 31.317333221435547, "perspective_c3_x": {"Points": [{"co": {"Y": -1, "X": 1}, "interpolation": 2}]}, "position": 16.64, "id": "B7IJAZMQBJ", "wave_color": {"alpha": {"Points": [{"handle_right": {"Y": 0, "X": 0.5}, "co": {"Y": 255, "X": 1}, "handle_left": {"Y": 1, "X": 0.5}, "handle_type": 0, "interpolation": 0}]}, "blue": {"Points": [{"handle_right": {"Y": 0, "X": 0.5}, "co": {"Y": 255, "X": 1}, "handle_left": {"Y": 1, "X": 0.5}, "handle_type": 0, "interpolation": 0}]}, "red": {"Points": [{"handle_right": {"Y": 0, "X": 0.5}, "co": {"Y": 0, "X": 1}, "handle_left": {"Y": 1, "X": 0.5}, "handle_type": 0, "interpolation": 0}]}, "green": {"Points": [{"handle_right": {"Y": 0, "X": 0.5}, "co": {"Y": 123, "X": 1}, "handle_left": {"Y": 1, "X": 0.5}, "handle_type": 0, "interpolation": 0}]}}, "has_video": {"Points": [{"co": {"Y": -1, "X": 1}, "interpolation": 2}]}, "has_audio": {"Points": [{"co": {"Y": -1, "X": 1}, "interpolation": 2}]}, "effects": [], "location_x": {"Points": [{"co": {"Y": 0, "X": 1}, "interpolation": 2}]}, "waveform": false, "title": "TE_SR_Taxi.mp4", "image": "/home/robsen/.openshot_qt/thumbnail/Z3LOYBY1PL.png", "gravity": 4, "perspective_c2_x": {"Points": [{"co": {"Y": -1, "X": 1}, "interpolation": 2}]}, "perspective_c1_y": {"Points": [{"co": {"Y": -1, "X": 1}, "interpolation": 2}]}, "crop_height": {"Points": [{"co": {"Y": -1, "X": 1}, "interpolation": 2}]}, "crop_x": {"Points": [{"co": {"Y": 0, "X": 1}, "interpolation": 2}]}, "start": 0, "scale": 1, "location_y": {"Points": [{"co": {"Y": 0, "X": 1}, "interpolation": 2}]}, "shear_y": {"Points": [{"co": {"Y": 0, "X": 1}, "interpolation": 2}]}, "display": 0, "volume": {"Points": [{"co": {"Y": 1, "X": 1}, "interpolation": 2}]}, "anchor": 0, "duration": 31.317333221435547, "perspective_c3_y": {"Points": [{"co": {"Y": -1, "X": 1}, "interpolation": 2}]}, "shear_x": {"Points": [{"co": {"Y": 0, "X": 1}, "interpolation": 2}]}, "perspective_c4_x": {"Points": [{"co": {"Y": -1, "X": 1}, "interpolation": 2}]}, "perspective_c2_y": {"Points": [{"co": {"Y": -1, "X": 1}, "interpolation": 2}]}, "scale_x": {"Points": [{"co": {"Y": 1, "X": 1}, "interpolation": 2}]}, "layer": 1, "channel_mapping": {"Points": [{"co": {"Y": -1, "X": 1}, "interpolation": 2}]}, "perspective_c1_x": {"Points": [{"co": {"Y": -1, "X": 1}, "interpolation": 2}]}, "perspective_c4_y": {"Points": [{"co": {"Y": -1, "X": 1}, "interpolation": 2}]}, "reader": {"audio_bit_rate": 189375, "has_single_image": false, "vcodec": "h264", "has_video": true, "type": "FFmpegReader", "video_length": "937", "audio_timebase": {"den": 48000, "num": 1}, "path": "/home/robsen/Dropbox/Workdir/Repo/SuesseRache-HH-Taxi/Videos/TE_SR_Taxi.mp4", "width": 1920, "has_audio": true, "video_bit_rate": 32091692, "channel_layout": 3, "height": 1080, "display_ratio": {"den": 9, "num": 16}, "interlaced_frame": false, "duration": 31.317333221435547, "sample_rate": 48000, "pixel_format": 0, "video_timebase": {"den": 29970, "num": 1}, "file_size": "125628279", "top_field_first": true, "pixel_ratio": {"den": 1, "num": 1}, "acodec": "aac", "audio_stream_index": 1, "video_stream_index": 0, "channels": 2, "fps": {"den": 100, "num": 2997}}, "channel_filter": {"Points": [{"co": {"Y": -1, "X": 1}, "interpolation": 2}]}, "file_id": "Z3LOYBY1PL", "time": {"Points": [{"co": {"Y": 1, "X": 1}, "interpolation": 2}]}}, "partial": false, "key": ["clips", {"id": "B7IJAZMQBJ"}], "type": "update"}, {"value": {"id": "B7IJAZMQBJ", "start": 0, "end": 31.317333221435547, "position": 3.96, "layer": 1, "image": "/home/robsen/.openshot_qt/thumbnail/Z3LOYBY1PL.png"}, "old_values": {"alpha": {"Points": [{"co": {"Y": 1, "X": 1}, "interpolation": 2}]}, "rotation": {"Points": [{"co": {"Y": 0, "X": 1}, "interpolation": 2}]}, "scale_y": {"Points": [{"co": {"Y": 1, "X": 1}, "interpolation": 2}]}, "crop_y": {"Points": [{"co": {"Y": 0, "X": 1}, "interpolation": 2}]}, "crop_width": {"Points": [{"co": {"Y": -1, "X": 1}, "interpolation": 2}]}, "end": 31.317333221435547, "perspective_c3_x": {"Points": [{"co": {"Y": -1, "X": 1}, "interpolation": 2}]}, "position": 3.8000000000000007, "id": "B7IJAZMQBJ", "wave_color": {"alpha": {"Points": [{"handle_right": {"Y": 0, "X": 0.5}, "co": {"Y": 255, "X": 1}, "handle_left": {"Y": 1, "X": 0.5}, "handle_type": 0, "interpolation": 0}]}, "blue": {"Points": [{"handle_right": {"Y": 0, "X": 0.5}, "co": {"Y": 255, "X": 1}, "handle_left": {"Y": 1, "X": 0.5}, "handle_type": 0, "interpolation": 0}]}, "red": {"Points": [{"handle_right": {"Y": 0, "X": 0.5}, "co": {"Y": 0, "X": 1}, "handle_left": {"Y": 1, "X": 0.5}, "handle_type": 0, "interpolation": 0}]}, "green": {"Points": [{"handle_right": {"Y": 0, "X": 0.5}, "co": {"Y": 123, "X": 1}, "handle_left": {"Y": 1, "X": 0.5}, "handle_type": 0, "interpolation": 0}]}}, "has_video": {"Points": [{"co": {"Y": -1, "X": 1}, "interpolation": 2}]}, "has_audio": {"Points": [{"co": {"Y": -1, "X": 1}, "interpolation": 2}]}, "effects": [], "location_x": {"Points": [{"co": {"Y": 0, "X": 1}, "interpolation": 2}]}, "waveform": false, "title": "TE_SR_Taxi.mp4", "image": "/home/robsen/.openshot_qt/thumbnail/Z3LOYBY1PL.png", "gravity": 4, "perspective_c2_x": {"Points": [{"co": {"Y": -1, "X": 1}, "interpolation": 2}]}, "perspective_c1_y": {"Points": [{"co": {"Y": -1, "X": 1}, "interpolation": 2}]}, "crop_height": {"Points": [{"co": {"Y": -1, "X": 1}, "interpolation": 2}]}, "crop_x": {"Points": [{"co": {"Y": 0, "X": 1}, "interpolation": 2}]}, "start": 0, "scale": 1, "location_y": {"Points": [{"co": {"Y": 0, "X": 1}, "interpolation": 2}]}, "shear_y": {"Points": [{"co": {"Y": 0, "X": 1}, "interpolation": 2}]}, "display": 0, "volume": {"Points": [{"co": {"Y": 1, "X": 1}, "interpolation": 2}]}, "anchor": 0, "duration": 31.317333221435547, "perspective_c3_y": {"Points": [{"co": {"Y": -1, "X": 1}, "interpolation": 2}]}, "shear_x": {"Points": [{"co": {"Y": 0, "X": 1}, "interpolation": 2}]}, "perspective_c4_x": {"Points": [{"co": {"Y": -1, "X": 1}, "interpolation": 2}]}, "perspective_c2_y": {"Points": [{"co": {"Y": -1, "X": 1}, "interpolation": 2}]}, "scale_x": {"Points": [{"co": {"Y": 1, "X": 1}, "interpolation": 2}]}, "layer": 1, "channel_mapping": {"Points": [{"co": {"Y": -1, "X": 1}, "interpolation": 2}]}, "perspective_c1_x": {"Points": [{"co": {"Y": -1, "X": 1}, "interpolation": 2}]}, "perspective_c4_y": {"Points": [{"co": {"Y": -1, "X": 1}, "interpolation": 2}]}, "reader": {"audio_bit_rate": 189375, "has_single_image": false, "vcodec": "h264", "has_video": true, "type": "FFmpegReader", "video_length": "937", "audio_timebase": {"den": 48000, "num": 1}, "path": "/home/robsen/Dropbox/Workdir/Repo/SuesseRache-HH-Taxi/Videos/TE_SR_Taxi.mp4", "width": 1920, "has_audio": true, "video_bit_rate": 32091692, "channel_layout": 3, "height": 1080, "display_ratio": {"den": 9, "num": 16}, "interlaced_frame": false, "duration": 31.317333221435547, "sample_rate": 48000, "pixel_format": 0, "video_timebase": {"den": 29970, "num": 1}, "file_size": "125628279", "top_field_first": true, "pixel_ratio": {"den": 1, "num": 1}, "acodec": "aac", "audio_stream_index": 1, "video_stream_index": 0, "channels": 2, "fps": {"den": 100, "num": 2997}}, "channel_filter": {"Points": [{"co": {"Y": -1, "X": 1}, "interpolation": 2}]}, "file_id": "Z3LOYBY1PL", "time": {"Points": [{"co": {"Y": 1, "X": 1}, "interpolation": 2}]}}, "partial": false, "key": ["clips", {"id": "B7IJAZMQBJ"}], "type": "update"}, {"value": {"id": "B7IJAZMQBJ", "start": 0, "end": 31.317333221435547, "position": 3.96, "layer": 1, "image": "/home/robsen/.openshot_qt/thumbnail/Z3LOYBY1PL.png"}, "old_values": {"alpha": {"Points": [{"co": {"Y": 1, "X": 1}, "interpolation": 2}]}, "rotation": {"Points": [{"co": {"Y": 0, "X": 1}, "interpolation": 2}]}, "scale_y": {"Points": [{"co": {"Y": 1, "X": 1}, "interpolation": 2}]}, "crop_y": {"Points": [{"co": {"Y": 0, "X": 1}, "interpolation": 2}]}, "crop_width": {"Points": [{"co": {"Y": -1, "X": 1}, "interpolation": 2}]}, "end": 31.317333221435547, "perspective_c3_x": {"Points": [{"co": {"Y": -1, "X": 1}, "interpolation": 2}]}, "position": 3.96, "id": "B7IJAZMQBJ", "wave_color": {"alpha": {"Points": [{"handle_right": {"Y": 0, "X": 0.5}, "co": {"Y": 255, "X": 1}, "handle_left": {"Y": 1, "X": 0.5}, "handle_type": 0, "interpolation": 0}]}, "blue": {"Points": [{"handle_right": {"Y": 0, "X": 0.5}, "co": {"Y": 255, "X": 1}, "handle_left": {"Y": 1, "X": 0.5}, "handle_type": 0, "interpolation": 0}]}, "red": {"Points": [{"handle_right": {"Y": 0, "X": 0.5}, "co": {"Y": 0, "X": 1}, "handle_left": {"Y": 1, "X": 0.5}, "handle_type": 0, "interpolation": 0}]}, "green": {"Points": [{"handle_right": {"Y": 0, "X": 0.5}, "co": {"Y": 123, "X": 1}, "handle_left": {"Y": 1, "X": 0.5}, "handle_type": 0, "interpolation": 0}]}}, "has_video": {"Points": [{"co": {"Y": -1, "X": 1}, "interpolation": 2}]}, "has_audio": {"Points": [{"co": {"Y": -1, "X": 1}, "interpolation": 2}]}, "effects": [], "location_x": {"Points": [{"co": {"Y": 0, "X": 1}, "interpolation": 2}]}, "waveform": false, "title": "TE_SR_Taxi.mp4", "image": "/home/robsen/.openshot_qt/thumbnail/Z3LOYBY1PL.png", "gravity": 4, "perspective_c2_x": {"Points": [{"co": {"Y": -1, "X": 1}, "interpolation": 2}]}, "perspective_c1_y": {"Points": [{"co": {"Y": -1, "X": 1}, "interpolation": 2}]}, "crop_height": {"Points": [{"co": {"Y": -1, "X": 1}, "interpolation": 2}]}, "crop_x": {"Points": [{"co": {"Y": 0, "X": 1}, "interpolation": 2}]}, "start": 0, "scale": 1, "location_y": {"Points": [{"co": {"Y": 0, "X": 1}, "interpolation": 2}]}, "shear_y": {"Points": [{"co": {"Y": 0, "X": 1}, "interpolation": 2}]}, "display": 0, "volume": {"Points": [{"co": {"Y": 1, "X": 1}, "interpolation": 2}]}, "anchor": 0, "duration": 31.317333221435547, "perspective_c3_y": {"Points": [{"co": {"Y": -1, "X": 1}, "interpolation": 2}]}, "shear_x": {"Points": [{"co": {"Y": 0, "X": 1}, "interpolation": 2}]}, "perspective_c4_x": {"Points": [{"co": {"Y": -1, "X": 1}, "interpolation": 2}]}, "perspective_c2_y": {"Points": [{"co": {"Y": -1, "X": 1}, "interpolation": 2}]}, "scale_x": {"Points": [{"co": {"Y": 1, "X": 1}, "interpolation": 2}]}, "layer": 1, "channel_mapping": {"Points": [{"co": {"Y": -1, "X": 1}, "interpolation": 2}]}, "perspective_c1_x": {"Points": [{"co": {"Y": -1, "X": 1}, "interpolation": 2}]}, "perspective_c4_y": {"Points": [{"co": {"Y": -1, "X": 1}, "interpolation": 2}]}, "reader": {"audio_bit_rate": 189375, "has_single_image": false, "vcodec": "h264", "has_video": true, "type": "FFmpegReader", "video_length": "937", "audio_timebase": {"den": 48000, "num": 1}, "path": "/home/robsen/Dropbox/Workdir/Repo/SuesseRache-HH-Taxi/Videos/TE_SR_Taxi.mp4", "width": 1920, "has_audio": true, "video_bit_rate": 32091692, "channel_layout": 3, "height": 1080, "display_ratio": {"den": 9, "num": 16}, "interlaced_frame": false, "duration": 31.317333221435547, "sample_rate": 48000, "pixel_format": 0, "video_timebase": {"den": 29970, "num": 1}, "file_size": "125628279", "top_field_first": true, "pixel_ratio": {"den": 1, "num": 1}, "acodec": "aac", "audio_stream_index": 1, "video_stream_index": 0, "channels": 2, "fps": {"den": 100, "num": 2997}}, "channel_filter": {"Points": [{"co": {"Y": -1, "X": 1}, "interpolation": 2}]}, "file_id": "Z3LOYBY1PL", "time": {"Points": [{"co": {"Y": 1, "X": 1}, "interpolation": 2}]}}, "partial": false, "key": ["clips", {"id": "B7IJAZMQBJ"}], "type": "update"}, {"value": {"id": "B7IJAZMQBJ", "start": 0, "end": 31.317333221435547, "position": 2.36, "layer": 1, "image": "/home/robsen/.openshot_qt/thumbnail/Z3LOYBY1PL.png"}, "old_values": {"alpha": {"Points": [{"co": {"Y": 1, "X": 1}, "interpolation": 2}]}, "rotation": {"Points": [{"co": {"Y": 0, "X": 1}, "interpolation": 2}]}, "scale_y": {"Points": [{"co": {"Y": 1, "X": 1}, "interpolation": 2}]}, "crop_y": {"Points": [{"co": {"Y": 0, "X": 1}, "interpolation": 2}]}, "crop_width": {"Points": [{"co": {"Y": -1, "X": 1}, "interpolation": 2}]}, "end": 31.317333221435547, "perspective_c3_x": {"Points": [{"co": {"Y": -1, "X": 1}, "interpolation": 2}]}, "position": 3.96, "id": "B7IJAZMQBJ", "wave_color": {"alpha": {"Points": [{"handle_right": {"Y": 0, "X": 0.5}, "co": {"Y": 255, "X": 1}, "handle_left": {"Y": 1, "X": 0.5}, "handle_type": 0, "interpolation": 0}]}, "blue": {"Points": [{"handle_right": {"Y": 0, "X": 0.5}, "co": {"Y": 255, "X": 1}, "handle_left": {"Y": 1, "X": 0.5}, "handle_type": 0, "interpolation": 0}]}, "red": {"Points": [{"handle_right": {"Y": 0, "X": 0.5}, "co": {"Y": 0, "X": 1}, "handle_left": {"Y": 1, "X": 0.5}, "handle_type": 0, "interpolation": 0}]}, "green": {"Points": [{"handle_right": {"Y": 0, "X": 0.5}, "co": {"Y": 123, "X": 1}, "handle_left": {"Y": 1, "X": 0.5}, "handle_type": 0, "interpolation": 0}]}}, "has_video": {"Points": [{"co": {"Y": -1, "X": 1}, "interpolation": 2}]}, "has_audio": {"Points": [{"co": {"Y": -1, "X": 1}, "interpolation": 2}]}, "effects": [], "location_x": {"Points": [{"co": {"Y": 0, "X": 1}, "interpolation": 2}]}, "waveform": false, "title": "TE_SR_Taxi.mp4", "image": "/home/robsen/.openshot_qt/thumbnail/Z3LOYBY1PL.png", "gravity": 4, "perspective_c2_x": {"Points": [{"co": {"Y": -1, "X": 1}, "interpolation": 2}]}, "perspective_c1_y": {"Points": [{"co": {"Y": -1, "X": 1}, "interpolation": 2}]}, "crop_height": {"Points": [{"co": {"Y": -1, "X": 1}, "interpolation": 2}]}, "crop_x": {"Points": [{"co": {"Y": 0, "X": 1}, "interpolation": 2}]}, "start": 0, "scale": 1, "location_y": {"Points": [{"co": {"Y": 0, "X": 1}, "interpolation": 2}]}, "shear_y": {"Points": [{"co": {"Y": 0, "X": 1}, "interpolation": 2}]}, "display": 0, "volume": {"Points": [{"co": {"Y": 1, "X": 1}, "interpolation": 2}]}, "anchor": 0, "duration": 31.317333221435547, "perspective_c3_y": {"Points": [{"co": {"Y": -1, "X": 1}, "interpolation": 2}]}, "shear_x": {"Points": [{"co": {"Y": 0, "X": 1}, "interpolation": 2}]}, "perspective_c4_x": {"Points": [{"co": {"Y": -1, "X": 1}, "interpolation": 2}]}, "perspective_c2_y": {"Points": [{"co": {"Y": -1, "X": 1}, "interpolation": 2}]}, "scale_x": {"Points": [{"co": {"Y": 1, "X": 1}, "interpolation": 2}]}, "layer": 1, "channel_mapping": {"Points": [{"co": {"Y": -1, "X": 1}, "interpolation": 2}]}, "perspective_c1_x": {"Points": [{"co": {"Y": -1, "X": 1}, "interpolation": 2}]}, "perspective_c4_y": {"Points": [{"co": {"Y": -1, "X": 1}, "interpolation": 2}]}, "reader": {"audio_bit_rate": 189375, "has_single_image": false, "vcodec": "h264", "has_video": true, "type": "FFmpegReader", "video_length": "937", "audio_timebase": {"den": 48000, "num": 1}, "path": "/home/robsen/Dropbox/Workdir/Repo/SuesseRache-HH-Taxi/Videos/TE_SR_Taxi.mp4", "width": 1920, "has_audio": true, "video_bit_rate": 32091692, "channel_layout": 3, "height": 1080, "display_ratio": {"den": 9, "num": 16}, "interlaced_frame": false, "duration": 31.317333221435547, "sample_rate": 48000, "pixel_format": 0, "video_timebase": {"den": 29970, "num": 1}, "file_size": "125628279", "top_field_first": true, "pixel_ratio": {"den": 1, "num": 1}, "acodec": "aac", "audio_stream_index": 1, "video_stream_index": 0, "channels": 2, "fps": {"den": 100, "num": 2997}}, "channel_filter": {"Points": [{"co": {"Y": -1, "X": 1}, "interpolation": 2}]}, "file_id": "Z3LOYBY1PL", "time": {"Points": [{"co": {"Y": 1, "X": 1}, "interpolation": 2}]}}, "partial": false, "key": ["clips", {"id": "B7IJAZMQBJ"}], "type": "update"}, {"value": {"id": "B7IJAZMQBJ", "start": 0, "end": 31.317333221435547, "position": 2.04, "layer": 1, "image": "/home/robsen/.openshot_qt/thumbnail/Z3LOYBY1PL.png"}, "old_values": {"alpha": {"Points": [{"co": {"Y": 1, "X": 1}, "interpolation": 2}]}, "rotation": {"Points": [{"co": {"Y": 0, "X": 1}, "interpolation": 2}]}, "scale_y": {"Points": [{"co": {"Y": 1, "X": 1}, "interpolation": 2}]}, "crop_y": {"Points": [{"co": {"Y": 0, "X": 1}, "interpolation": 2}]}, "crop_width": {"Points": [{"co": {"Y": -1, "X": 1}, "interpolation": 2}]}, "end": 31.317333221435547, "perspective_c3_x": {"Points": [{"co": {"Y": -1, "X": 1}, "interpolation": 2}]}, "position": 2.36, "id": "B7IJAZMQBJ", "wave_color": {"alpha": {"Points": [{"handle_right": {"Y": 0, "X": 0.5}, "co": {"Y": 255, "X": 1}, "handle_left": {"Y": 1, "X": 0.5}, "handle_type": 0, "interpolation": 0}]}, "blue": {"Points": [{"handle_right": {"Y": 0, "X": 0.5}, "co": {"Y": 255, "X": 1}, "handle_left": {"Y": 1, "X": 0.5}, "handle_type": 0, "interpolation": 0}]}, "red": {"Points": [{"handle_right": {"Y": 0, "X": 0.5}, "co": {"Y": 0, "X": 1}, "handle_left": {"Y": 1, "X": 0.5}, "handle_type": 0, "interpolation": 0}]}, "green": {"Points": [{"handle_right": {"Y": 0, "X": 0.5}, "co": {"Y": 123, "X": 1}, "handle_left": {"Y": 1, "X": 0.5}, "handle_type": 0, "interpolation": 0}]}}, "has_video": {"Points": [{"co": {"Y": -1, "X": 1}, "interpolation": 2}]}, "has_audio": {"Points": [{"co": {"Y": -1, "X": 1}, "interpolation": 2}]}, "effects": [], "location_x": {"Points": [{"co": {"Y": 0, "X": 1}, "interpolation": 2}]}, "waveform": false, "title": "TE_SR_Taxi.mp4", "image": "/home/robsen/.openshot_qt/thumbnail/Z3LOYBY1PL.png", "gravity": 4, "perspective_c2_x": {"Points": [{"co": {"Y": -1, "X": 1}, "interpolation": 2}]}, "perspective_c1_y": {"Points": [{"co": {"Y": -1, "X": 1}, "interpolation": 2}]}, "crop_height": {"Points": [{"co": {"Y": -1, "X": 1}, "interpolation": 2}]}, "crop_x": {"Points": [{"co": {"Y": 0, "X": 1}, "interpolation": 2}]}, "start": 0, "scale": 1, "location_y": {"Points": [{"co": {"Y": 0, "X": 1}, "interpolation": 2}]}, "shear_y": {"Points": [{"co": {"Y": 0, "X": 1}, "interpolation": 2}]}, "display": 0, "volume": {"Points": [{"co": {"Y": 1, "X": 1}, "interpolation": 2}]}, "anchor": 0, "duration": 31.317333221435547, "perspective_c3_y": {"Points": [{"co": {"Y": -1, "X": 1}, "interpolation": 2}]}, "shear_x": {"Points": [{"co": {"Y": 0, "X": 1}, "interpolation": 2}]}, "perspective_c4_x": {"Points": [{"co": {"Y": -1, "X": 1}, "interpolation": 2}]}, "perspective_c2_y": {"Points": [{"co": {"Y": -1, "X": 1}, "interpolation": 2}]}, "scale_x": {"Points": [{"co": {"Y": 1, "X": 1}, "interpolation": 2}]}, "layer": 1, "channel_mapping": {"Points": [{"co": {"Y": -1, "X": 1}, "interpolation": 2}]}, "perspective_c1_x": {"Points": [{"co": {"Y": -1, "X": 1}, "interpolation": 2}]}, "perspective_c4_y": {"Points": [{"co": {"Y": -1, "X": 1}, "interpolation": 2}]}, "reader": {"audio_bit_rate": 189375, "has_single_image": false, "vcodec": "h264", "has_video": true, "type": "FFmpegReader", "video_length": "937", "audio_timebase": {"den": 48000, "num": 1}, "path": "/home/robsen/Dropbox/Workdir/Repo/SuesseRache-HH-Taxi/Videos/TE_SR_Taxi.mp4", "width": 1920, "has_audio": true, "video_bit_rate": 32091692, "channel_layout": 3, "height": 1080, "display_ratio": {"den": 9, "num": 16}, "interlaced_frame": false, "duration": 31.317333221435547, "sample_rate": 48000, "pixel_format": 0, "video_timebase": {"den": 29970, "num": 1}, "file_size": "125628279", "top_field_first": true, "pixel_ratio": {"den": 1, "num": 1}, "acodec": "aac", "audio_stream_index": 1, "video_stream_index": 0, "channels": 2, "fps": {"den": 100, "num": 2997}}, "channel_filter": {"Points": [{"co": {"Y": -1, "X": 1}, "interpolation": 2}]}, "file_id": "Z3LOYBY1PL", "time": {"Points": [{"co": {"Y": 1, "X": 1}, "interpolation": 2}]}}, "partial": false, "key": ["clips", {"id": "B7IJAZMQBJ"}], "type": "update"}]}, "version": {"libopenshot": "0.1.9", "openshot-qt": "2.4.1-dev1"}, "clips": [{"alpha": {"Points": [{"co": {"Y": 1, "X": 1}, "interpolation": 2}, {"handle_right": {"Y": 0, "X": 0.5}, "co": {"Y": 0, "X": 1}, "handle_left": {"Y": 1, "X": 0.5}, "handle_type": 0, "interpolation": 0}, {"handle_right": {"Y": 0, "X": 0.5}, "co": {"Y": 1, "X": 73}, "handle_left": {"Y": 1, "X": 0.5}, "handle_type": 0, "interpolation": 0}]}, "scale_y": {"Points": [{"co": {"Y": 1, "X": 1}, "interpolation": 2}]}, "end": 5, "perspective_c3_x": {"Points": [{"co": {"Y": -1, "X": 1}, "interpolation": 2}]}, "effects": [], "crop_width": {"Points": [{"co": {"Y": -1, "X": 1}, "interpolation": 2}]}, "position": 30.0, "id": "PJWPMFXKV3", "layer": 2, "volume": {"Points": [{"co": {"Y": 1, "X": 1}, "interpolation": 2}]}, "wave_color": {"alpha": {"Points": [{"handle_right": {"Y": 0, "X": 0.5}, "co": {"Y": 255, "X": 1}, "handle_left": {"Y": 1, "X": 0.5}, "handle_type": 0, "interpolation": 0}]}, "blue": {"Points": [{"handle_right": {"Y": 0, "X": 0.5}, "co": {"Y": 255, "X": 1}, "handle_left": {"Y": 1, "X": 0.5}, "handle_type": 0, "interpolation": 0}]}, "red": {"Points": [{"handle_right": {"Y": 0, "X": 0.5}, "co": {"Y": 0, "X": 1}, "handle_left": {"Y": 1, "X": 0.5}, "handle_type": 0, "interpolation": 0}]}, "green": {"Points": [{"handle_right": {"Y": 0, "X": 0.5}, "co": {"Y": 123, "X": 1}, "handle_left": {"Y": 1, "X": 0.5}, "handle_type": 0, "interpolation": 0}]}}, "crop_y": {"Points": [{"co": {"Y": 0, "X": 1}, "interpolation": 2}]}, "has_video": {"Points": [{"co": {"Y": -1, "X": 1}, "interpolation": 2}]}, "has_audio": {"Points": [{"co": {"Y": -1, "X": 1}, "interpolation": 2}]}, "location_y": {"Points": [{"co": {"Y": 0, "X": 1}, "interpolation": 2}]}, "location_x": {"Points": [{"co": {"Y": 0, "X": 1}, "interpolation": 2}]}, "waveform": false, "gravity": 4, "image": "../../../../.openshot_qt/thumbnail/X22V56NF57.png", "title": "arrow.mp4", "scale_x": {"Points": [{"co": {"Y": 1, "X": 1}, "interpolation": 2}]}, "perspective_c1_y": {"Points": [{"co": {"Y": -1, "X": 1}, "interpolation": 2}]}, "crop_height": {"Points": [{"co": {"Y": -1, "X": 1}, "interpolation": 2}]}, "crop_x": {"Points": [{"co": {"Y": 0, "X": 1}, "interpolation": 2}]}, "start": 0, "scale": 1, "shear_y": {"Points": [{"co": {"Y": 0, "X": 1}, "interpolation": 2}]}, "display": 0, "channel_filter": {"Points": [{"co": {"Y": -1, "X": 1}, "interpolation": 2}]}, "anchor": 0, "duration": 15.0, "perspective_c3_y": {"Points": [{"co": {"Y": -1, "X": 1}, "interpolation": 2}]}, "shear_x": {"Points": [{"co": {"Y": 0, "X": 1}, "interpolation": 2}]}, "perspective_c4_x": {"Points": [{"co": {"Y": -1, "X": 1}, "interpolation": 2}]}, "perspective_c2_y": {"Points": [{"co": {"Y": -1, "X": 1}, "interpolation": 2}]}, "perspective_c2_x": {"Points": [{"co": {"Y": -1, "X": 1}, "interpolation": 2}]}, "rotation": {"Points": [{"co": {"Y": 0, "X": 1}, "interpolation": 2}]}, "channel_mapping": {"Points": [{"co": {"Y": -1, "X": 1}, "interpolation": 2}]}, "perspective_c1_x": {"Points": [{"co": {"Y": -1, "X": 1}, "interpolation": 2}]}, "perspective_c4_y": {"Points": [{"co": {"Y": -1, "X": 1}, "interpolation": 2}]}, "reader": {"audio_bit_rate": 0, "has_single_image": false, "vcodec": "h264", "has_video": true, "type": "FFmpegReader", "video_length": "375", "audio_timebase": {"den": 1, "num": 1}, "path": "Videos/arrow.mp4", "width": 1920, "has_audio": false, "video_bit_rate": 83079, "channel_layout": 4, "height": 1080, "display_ratio": {"den": 9, "num": 16}, "interlaced_frame": false, "duration": 15.0, "sample_rate": 0, "pixel_format": 0, "video_timebase": {"den": 12800, "num": 1}, "file_size": "155774", "top_field_first": true, "pixel_ratio": {"den": 1, "num": 1}, "acodec": "", "audio_stream_index": -1, "video_stream_index": 0, "channels": 0, "fps": {"den": 1, "num": 25}}, "time": {"Points": [{"co": {"Y": 1, "X": 1}, "interpolation": 2}]}, "file_id": "X22V56NF57"}, {"alpha": {"Points": [{"co": {"Y": 1, "X": 1}, "interpolation": 2}, {"handle_right": {"Y": 0, "X": 0.5}, "co": {"Y": 1, "X": 49}, "handle_left": {"Y": 1, "X": 0.5}, "handle_type": 0, "interpolation": 0}, {"handle_right": {"Y": 0, "X": 0.5}, "co": {"Y": 0, "X": 121}, "handle_left": {"Y": 1, "X": 0.5}, "handle_type": 0, "interpolation": 0}]}, "scale_y": {"Points": [{"co": {"Y": 1, "X": 1}, "interpolation": 2}]}, "crop_y": {"Points": [{"co": {"Y": 0, "X": 1}, "interpolation": 2}]}, "perspective_c3_x": {"Points": [{"co": {"Y": -1, "X": 1}, "interpolation": 2}]}, "crop_width": {"Points": [{"co": {"Y": -1, "X": 1}, "interpolation": 2}]}, "position": 0, "has_video": {"Points": [{"co": {"Y": -1, "X": 1}, "interpolation": 2}]}, "volume": {"Points": [{"co": {"Y": 1, "X": 1}, "interpolation": 2}]}, "wave_color": {"alpha": {"Points": [{"handle_right": {"Y": 0, "X": 0.5}, "co": {"Y": 255, "X": 1}, "handle_left": {"Y": 1, "X": 0.5}, "handle_type": 0, "interpolation": 0}]}, "blue": {"Points": [{"handle_right": {"Y": 0, "X": 0.5}, "co": {"Y": 255, "X": 1}, "handle_left": {"Y": 1, "X": 0.5}, "handle_type": 0, "interpolation": 0}]}, "red": {"Points": [{"handle_right": {"Y": 0, "X": 0.5}, "co": {"Y": 0, "X": 1}, "handle_left": {"Y": 1, "X": 0.5}, "handle_type": 0, "interpolation": 0}]}, "green": {"Points": [{"handle_right": {"Y": 0, "X": 0.5}, "co": {"Y": 123, "X": 1}, "handle_left": {"Y": 1, "X": 0.5}, "handle_type": 0, "interpolation": 0}]}}, "crop_height": {"Points": [{"co": {"Y": -1, "X": 1}, "interpolation": 2}]}, "id": "47DJSIWW2E", "has_audio": {"Points": [{"co": {"Y": -1, "X": 1}, "interpolation": 2}]}, "effects": [], "location_x": {"Points": [{"co": {"Y": 0, "X": 1}, "interpolation": 2}]}, "waveform": false, "title": "taxi_start.mp4", "image": "../../../../.openshot_qt/thumbnail/LGW3TZJV4Q.png", "gravity": 4, "layer": 0, "perspective_c1_y": {"Points": [{"co": {"Y": -1, "X": 1}, "interpolation": 2}]}, "perspective_c4_y": {"Points": [{"co": {"Y": -1, "X": 1}, "interpolation": 2}]}, "crop_x": {"Points": [{"co": {"Y": 0, "X": 1}, "interpolation": 2}]}, "start": 0, "scale": 1, "location_y": {"Points": [{"co": {"Y": 0, "X": 1}, "interpolation": 2}]}, "shear_y": {"Points": [{"co": {"Y": 0, "X": 1}, "interpolation": 2}]}, "display": 0, "channel_filter": {"Points": [{"co": {"Y": -1, "X": 1}, "interpolation": 2}]}, "shear_x": {"Points": [{"co": {"Y": 0, "X": 1}, "interpolation": 2}]}, "anchor": 0, "duration": 15.0, "perspective_c3_y": {"Points": [{"co": {"Y": -1, "X": 1}, "interpolation": 2}]}, "scale_x": {"Points": [{"co": {"Y": 1, "X": 1}, "interpolation": 2}]}, "perspective_c4_x": {"Points": [{"co": {"Y": -1, "X": 1}, "interpolation": 2}]}, "perspective_c2_y": {"Points": [{"co": {"Y": -1, "X": 1}, "interpolation": 2}]}, "perspective_c2_x": {"Points": [{"co": {"Y": -1, "X": 1}, "interpolation": 2}]}, "rotation": {"Points": [{"co": {"Y": 0, "X": 1}, "interpolation": 2}]}, "channel_mapping": {"Points": [{"co": {"Y": -1, "X": 1}, "interpolation": 2}]}, "perspective_c1_x": {"Points": [{"co": {"Y": -1, "X": 1}, "interpolation": 2}]}, "end": 5.0, "reader": {"audio_bit_rate": 0, "has_single_image": false, "vcodec": "h264", "has_video": true, "type": "FFmpegReader", "video_length": "375", "audio_timebase": {"den": 1, "num": 1}, "path": "Videos/taxi_start.mp4", "width": 1920, "has_audio": false, "video_bit_rate": 147692, "channel_layout": 4, "height": 1080, "display_ratio": {"den": 9, "num": 16}, "interlaced_frame": false, "duration": 15.0, "sample_rate": 0, "pixel_format": 0, "fps": {"den": 1, "num": 25}, "file_size": "276924", "top_field_first": true, "pixel_ratio": {"den": 1, "num": 1}, "acodec": "", "audio_stream_index": -1, "video_stream_index": 0, "channels": 0, "video_timebase": {"den": 12800, "num": 1}}, "time": {"Points": [{"co": {"Y": 1, "X": 1}, "interpolation": 2}]}, "file_id": "LGW3TZJV4Q"}, {"alpha": {"Points": [{"co": {"Y": 1, "X": 1}, "interpolation": 2}]}, "scale_y": {"Points": [{"co": {"Y": 1, "X": 1}, "interpolation": 2}]}, "crop_y": {"Points": [{"co": {"Y": 0, "X": 1}, "interpolation": 2}]}, "perspective_c3_x": {"Points": [{"co": {"Y": -1, "X": 1}, "interpolation": 2}]}, "crop_width": {"Points": [{"co": {"Y": -1, "X": 1}, "interpolation": 2}]}, "position": 2.04, "has_video": {"Points": [{"co": {"Y": -1, "X": 1}, "interpolation": 2}]}, "volume": {"Points": [{"co": {"Y": 1, "X": 1}, "interpolation": 2}]}, "wave_color": {"green": {"Points": [{"handle_right": {"Y": 0, "X": 0.5}, "co": {"Y": 123, "X": 1}, "handle_left": {"Y": 1, "X": 0.5}, "handle_type": 0, "interpolation": 0}]}, "blue": {"Points": [{"handle_right": {"Y": 0, "X": 0.5}, "co": {"Y": 255, "X": 1}, "handle_left": {"Y": 1, "X": 0.5}, "handle_type": 0, "interpolation": 0}]}, "alpha": {"Points": [{"handle_right": {"Y": 0, "X": 0.5}, "co": {"Y": 255, "X": 1}, "handle_left": {"Y": 1, "X": 0.5}, "handle_type": 0, "interpolation": 0}]}, "red": {"Points": [{"handle_right": {"Y": 0, "X": 0.5}, "co": {"Y": 0, "X": 1}, "handle_left": {"Y": 1, "X": 0.5}, "handle_type": 0, "interpolation": 0}]}}, "crop_height": {"Points": [{"co": {"Y": -1, "X": 1}, "interpolation": 2}]}, "id": "B7IJAZMQBJ", "has_audio": {"Points": [{"co": {"Y": -1, "X": 1}, "interpolation": 2}]}, "effects": [], "location_x": {"Points": [{"co": {"Y": 0, "X": 1}, "interpolation": 2}]}, "waveform": false, "title": "TE_SR_Taxi.mp4", "image": "../../../../.openshot_qt/thumbnail/Z3LOYBY1PL.png", "gravity": 4, "layer": 1, "perspective_c1_y": {"Points": [{"co": {"Y": -1, "X": 1}, "interpolation": 2}]}, "perspective_c4_y": {"Points": [{"co": {"Y": -1, "X": 1}, "interpolation": 2}]}, "crop_x": {"Points": [{"co": {"Y": 0, "X": 1}, "interpolation": 2}]}, "start": 0, "scale": 1, "location_y": {"Points": [{"co": {"Y": 0, "X": 1}, "interpolation": 2}]}, "shear_y": {"Points": [{"co": {"Y": 0, "X": 1}, "interpolation": 2}]}, "display": 0, "channel_filter": {"Points": [{"co": {"Y": -1, "X": 1}, "interpolation": 2}]}, "shear_x": {"Points": [{"co": {"Y": 0, "X": 1}, "interpolation": 2}]}, "anchor": 0, "duration": 31.317333221435547, "perspective_c3_y": {"Points": [{"co": {"Y": -1, "X": 1}, "interpolation": 2}]}, "scale_x": {"Points": [{"co": {"Y": 1, "X": 1}, "interpolation": 2}]}, "perspective_c4_x": {"Points": [{"co": {"Y": -1, "X": 1}, "interpolation": 2}]}, "perspective_c2_y": {"Points": [{"co": {"Y": -1, "X": 1}, "interpolation": 2}]}, "perspective_c2_x": {"Points": [{"co": {"Y": -1, "X": 1}, "interpolation": 2}]}, "rotation": {"Points": [{"co": {"Y": 0, "X": 1}, "interpolation": 2}]}, "channel_mapping": {"Points": [{"co": {"Y": -1, "X": 1}, "interpolation": 2}]}, "perspective_c1_x": {"Points": [{"co": {"Y": -1, "X": 1}, "interpolation": 2}]}, "end": 31.317333221435547, "reader": {"audio_bit_rate": 189375, "has_single_image": false, "vcodec": "h264", "has_video": true, "type": "FFmpegReader", "video_length": "937", "audio_timebase": {"den": 48000, "num": 1}, "path": "Videos/TE_SR_Taxi.mp4", "width": 1920, "has_audio": true, "video_bit_rate": 32091692, "channel_layout": 3, "height": 1080, "display_ratio": {"den": 9, "num": 16}, "interlaced_frame": false, "duration": 31.317333221435547, "sample_rate": 48000, "pixel_format": 0, "fps": {"den": 100, "num": 2997}, "file_size": "125628279", "top_field_first": true, "pixel_ratio": {"den": 1, "num": 1}, "acodec": "aac", "audio_stream_index": 1, "video_stream_index": 0, "channels": 2, "video_timebase": {"den": 29970, "num": 1}}, "time": {"Points": [{"co": {"Y": 1, "X": 1}, "interpolation": 2}]}, "file_id": "Z3LOYBY1PL"}], "id": "T0", "tick_pixels": 100, "playhead_position": 0, "effects": [], "settings": {}, "width": 1280, "files": [{"audio_bit_rate": 0, "has_single_image": false, "media_type": "video", "id": "LGW3TZJV4Q", "type": "FFmpegReader", "has_video": true, "video_length": "375", "audio_timebase": {"den": 1, "num": 1}, "path": "Videos/taxi_start.mp4", "width": 1920, "has_audio": false, "video_bit_rate": 147692, "channel_layout": 4, "height": 1080, "vcodec": "h264", "display_ratio": {"den": 9, "num": 16}, "interlaced_frame": false, "duration": 15, "sample_rate": 0, "pixel_format": 0, "fps": {"den": 1, "num": 25}, "file_size": "276924", "top_field_first": true, "pixel_ratio": {"den": 1, "num": 1}, "acodec": "", "audio_stream_index": -1, "video_stream_index": 0, "channels": 0, "video_timebase": {"den": 12800, "num": 1}}, {"audio_bit_rate": 189375, "has_single_image": false, "media_type": "video", "id": "Z3LOYBY1PL", "type": "FFmpegReader", "has_video": true, "video_length": "937", "audio_timebase": {"den": 48000, "num": 1}, "path": "Videos/TE_SR_Taxi.mp4", "width": 1920, "has_audio": true, "video_bit_rate": 32091692, "channel_layout": 3, "height": 1080, "vcodec": "h264", "display_ratio": {"den": 9, "num": 16}, "interlaced_frame": false, "duration": 31.317333221435547, "sample_rate": 48000, "pixel_format": 0, "fps": {"den": 100, "num": 2997}, "file_size": "125628279", "top_field_first": true, "pixel_ratio": {"den": 1, "num": 1}, "acodec": "aac", "audio_stream_index": 1, "video_stream_index": 0, "channels": 2, "video_timebase": {"den": 29970, "num": 1}}, {"audio_bit_rate": 0, "has_single_image": false, "media_type": "video", "id": "X22V56NF57", "type": "FFmpegReader", "has_video": true, "video_length": "375", "audio_timebase": {"den": 1, "num": 1}, "path": "Videos/arrow.mp4", "width": 1920, "has_audio": false, "video_bit_rate": 83079, "channel_layout": 4, "height": 1080, "vcodec": "h264", "display_ratio": {"den": 9, "num": 16}, "interlaced_frame": false, "duration": 15, "sample_rate": 0, "pixel_format": 0, "fps": {"den": 1, "num": 25}, "file_size": "155774", "top_field_first": true, "pixel_ratio": {"den": 1, "num": 1}, "acodec": "", "audio_stream_index": -1, "video_stream_index": 0, "channels": 0, "video_timebase": {"den": 12800, "num": 1}}], "progress": [], "profile": "HDV 720 24p", "channel_layout": 3, "export_path": "", "scale": 16, "layers": [{"id": "UBOPYJIV1S", "number": 0, "label": "Spur 1", "y": 0}, {"id": "SHY16ICR2M", "number": 1, "label": "Spur 2", "y": 0}, {"id": "E44ZNJSI3Z", "number": 2, "label": "", "y": 0, "lock": false}], "duration": 300, "sample_rate": 44100, "height": 720, "fps": {"den": 1, "num": 24}, "markers": [], "channels": 2}